<?xml version="1.0" encoding="UTF-8" standalone="no"?>
<!-- Created with Inkscape (http://www.inkscape.org/) -->

<svg
   width="87"
   height="60"
   viewBox="0 0 23.018752 15.874999"
   version="1.1"
   id="svg1"
   inkscape:version="1.4.2 (2aeb623e1d, 2025-05-12)"
   sodipodi:docname="cloud.svg"
   xmlns:inkscape="http://www.inkscape.org/namespaces/inkscape"
   xmlns:sodipodi="http://sodipodi.sourceforge.net/DTD/sodipodi-0.dtd"
   xmlns="http://www.w3.org/2000/svg"
   xmlns:svg="http://www.w3.org/2000/svg">
  <sodipodi:namedview
     id="namedview1"
     pagecolor="#ffffff"
     bordercolor="#999999"
     borderopacity="1"
     inkscape:showpageshadow="2"
     inkscape:pageopacity="0"
     inkscape:pagecheckerboard="0"
     inkscape:deskcolor="#d1d1d1"
     inkscape:document-units="mm"
     inkscape:zoom="2.6689955"
     inkscape:cx="115.02455"
     inkscape:cy="66.129748"
     inkscape:window-width="1920"
     inkscape:window-height="954"
     inkscape:window-x="0"
     inkscape:window-y="27"
     inkscape:window-maximized="1"
     inkscape:current-layer="layer1" />
  <defs
     id="defs1" />
  <g
     inkscape:label="Layer 1"
     inkscape:groupmode="layer"
     id="layer1"
     transform="translate(-81.121438,-95.15139)">
    <path
       fill="#fefefe"
       d="m 90.317016,97.650434 c 1.440496,-2.309602 4.069746,-3.156164 6.366161,-1.954527 1.724302,0.902324 3.312268,2.867831 3.135784,5.112593 -0.03793,0.48095 -0.51223,1.14148 -0.362772,1.58745 0.197149,0.11606 0.09208,0.0918 0.329779,0.0505 0.451942,-0.37586 0.649492,-1.25521 0.770992,-1.85061 1.60585,0.43426 2.48364,1.13284 3.17871,2.80328 1.4499,4.47752 -2.56207,7.86831 -6.247713,5.86548 -0.312557,-0.16993 -0.604973,-0.36795 -0.903223,-0.56716 -0.604841,0.7166 -1.069508,1.27951 -1.885946,1.70031 -2.468929,1.27246 -4.656436,0.48709 -6.520917,-1.4932 l -0.07354,-0.0782 c -1.107666,0.58647 -1.562524,1.20515 -2.926304,1.09143 -2.909742,-0.24267 -4.959851,-3.2453 -3.655561,-6.36853 0.611733,-1.41913 1.460369,-2.13309 2.851708,-2.46372 0.0035,0.35873 -2.65e-4,0.47026 0.06426,0.81539 0.140843,0.19466 0.05088,0.13494 0.286059,0.17094 0.476985,-0.23725 0.3164,-1.34316 0.492751,-1.9311 0.568408,-1.894373 2.464689,-2.826262 4.142219,-2.188417 0.456449,0.173588 0.790206,0.686442 1.351061,0.640047 l 0.09302,-0.121035 c -0.02239,-0.381279 -0.244322,-0.567448 -0.486525,-0.820947 z"
       id="path13"
       style="stroke-width:0.139257" />
    <path
       fill="#cfe2ec"
       d="m 103.73567,103.39912 c 1.4499,4.47752 -2.56207,7.8683 -6.247713,5.86548 -0.312557,-0.16993 -0.604973,-0.36796 -0.903223,-0.56716 -0.604841,0.71659 -1.069508,1.2795 -1.885946,1.7003 -2.468929,1.27247 -4.656436,0.48709 -6.520917,-1.4932 l -0.07354,-0.0781 c -1.107666,0.58647 -1.562524,1.20515 -2.926304,1.09142 -2.909742,-0.24266 -4.959851,-3.24529 -3.655561,-6.36853 0.204043,0.608 0.231867,1.28917 0.501894,1.93477 0.452076,1.08118 1.119988,2.09372 2.188037,2.48494 1.804196,0.66069 2.869993,0.0401 4.432384,-0.74483 0.794844,0.60125 1.417706,1.18685 2.398176,1.39176 2.369158,0.4947 3.965468,-0.31278 5.864265,-1.67044 3.626028,1.86056 5.547868,0.22862 6.828448,-3.54636 z"
       id="path14"
       style="stroke:none;stroke-width:0.139257" />
  </g>
</svg>
