<?xml version="1.0" encoding="UTF-8" standalone="no"?>
<svg
   width="106"
   height="62"
   viewBox="0 0 106 62"
   version="1.1"
   id="svg41"
   sodipodi:docname="plane.svg"
   inkscape:version="1.4.2 (2aeb623e1d, 2025-05-12)"
   xmlns:inkscape="http://www.inkscape.org/namespaces/inkscape"
   xmlns:sodipodi="http://sodipodi.sourceforge.net/DTD/sodipodi-0.dtd"
   xmlns="http://www.w3.org/2000/svg"
   xmlns:svg="http://www.w3.org/2000/svg">
  <sodipodi:namedview
     id="namedview41"
     pagecolor="#ffffff"
     bordercolor="#999999"
     borderopacity="1"
     inkscape:showpageshadow="2"
     inkscape:pageopacity="0"
     inkscape:pagecheckerboard="0"
     inkscape:deskcolor="#d1d1d1"
     inkscape:zoom="8.275359"
     inkscape:cx="57.520163"
     inkscape:cy="73.773234"
     inkscape:window-width="1920"
     inkscape:window-height="954"
     inkscape:window-x="0"
     inkscape:window-y="27"
     inkscape:window-maximized="1"
     inkscape:current-layer="g52" />
  <defs
     id="defs5">
    <linearGradient
       id="gradient_0"
       gradientUnits="userSpaceOnUse"
       x1="759.04938"
       y1="463.73071"
       x2="765.16864"
       y2="408.80008">
      <stop
         offset="0"
         stop-color="#E13E3D"
         id="stop4" />
      <stop
         offset="1"
         stop-color="#EC6751"
         id="stop5" />
    </linearGradient>
  </defs>
  <g
     id="g52"
     transform="matrix(-0.11350807,0,0,0.12948577,111.04912,-32.725548)">
    <path
       id="path2"
       d="m 905.64844,252.76172 c -1.26798,0.0522 -2.5588,0.17936 -3.87305,0.38867 -13.269,2.078 -22.98837,8.56827 -30.48437,19.69727 -21.732,32.27 -43.98496,64.47323 -64.75196,97.36523 -9.184,14.546 -21.39051,30.74936 -29.10351,45.69336 -20.448,-4.934 -43.52157,-8.36434 -64.35157,-12.40234 l -169.91601,-31.72657 -96.42969,-18.3164 c -18.556,-3.437 -35.14156,-8.21377 -54.22656,-8.38477 -41.715,-0.374 -83.85764,20.88505 -105.30664,57.12305 -26.696,0.972 -52.65516,1.42497 -79.28516,4.04297 -24.441,2.402 -44.95558,3.87834 -62.64258,23.52734 -8.445,9.382 -13.34228,17.86942 -16.73828,30.10742 L 113.54492,463.25 c 6.685,-33.555 13.14273,-67.76914 6.2207,-101.86914 -1.82899,-9.006 -6.44693,-26.28977 -16.71093,-27.75977 -13.810321,-1.978 -20.191371,28.0791 -21.292971,36.7461 -4.2887,33.739 0.351328,68.72003 7.798828,101.58203 -19.2777,11.083 -55.140016,31.07664 -39.166016,58.05664 7.7777,13.136 25.501672,25.44534 39.076172,31.77734 -11.9183,36.814 -13.258381,97.20053 1.699219,133.64453 2.0882,5.088 7.764856,10.52407 13.396488,6.78907 7.797,-5.171 10.54575,-16.55267 12.59375,-25.13868 7.601,-33.892 3.80011,-72.34496 -3.83789,-105.91796 3.675,1.247 8.14326,2.62943 11.69726,4.02343 8.158,45.142 19.82238,55.18832 65.35938,63.57032 12.423,1.901 24.83268,3.87068 37.30468,5.42968 18.86636,2.3574 158.88196,-3.14377 160.53125,-4.45119 55.38303,15.32621 149.1797,28.01866 202.5918,43.62498 14.89869,1.76298 29.96468,2.82911 44.94727,3.07617 23.098,0.381 84.142,-1.83836 102,-15.69336 4.94,-3.833 9.64525,-10.24731 10.40625,-16.57031 0.32,-2.666 -0.15908,-5.35476 -1.83008,-7.50976 -4.603,-5.935 -49.92436,-20.89302 -59.19336,-24.66602 18.48,-3.527 40.22087,-9.02055 58.67187,-13.43555 l 79.92969,-19.20703 c 16.266,-3.996 40.10158,-11.08125 56.01758,-13.49218 9.504,9.643 9.12425,8.9251 22.78125,9.0371 14.022,0.116 28.12097,-0.0465 42.16797,-0.18554 6.372,-0.244 12.96144,0.27598 19.27344,-0.66602 2.013,-0.427 3.80437,-1.88025 5.23437,-3.2793 5.577,-5.45699 5.54941,-13.00415 1.56641,-19.41015 -5.206,-8.374 -11.75599,-15.78581 -16.83399,-24.25781 5.643,-3.996 11.57838,-8.35911 14.98438,-14.53711 17.622,-31.969 2.74887,-68.52403 -33.45313,-75.70703 2.577,-43.359 1.95666,-87.65877 3.59766,-131.13477 0.357,-9.436 1.01061,-19.88466 -0.27734,-29.22266 -2.50407,-18.13968 -16.1288,-34.51732 -35.14844,-33.73437 z M 407.38086,724.92969 c 0.40327,0.13588 0.80594,0.2766 1.2168,0.38672 h 0.002 v 0.002 h 0.002 0.002 0.002 0.002 0.002 0.002 l 0.002,-0.002 v -0.002 -0.002 c -0.0178,-0.0252 -0.14547,-0.10852 -0.20117,-0.12891 -0.26721,-0.0979 -0.53669,-0.21272 -0.82031,-0.23632 -0.0699,-0.006 -0.14093,-0.0111 -0.21094,-0.0176 z"
       sodipodi:nodetypes="sccsccccccccccccccccsscccccccscccccccccccccccccsscccccccccccccscsc" />
    <path
       fill="#be211f"
       d="m 557.752,385.077 97.153,18.015 c 37.636,7.145 75.31,14.716 113.052,21.166 42.256,7.03 84.304,14.838 126.026,24.58 15.753,3.679 32.431,5.12 47.799,10.123 12.275,3.995 20.971,13.477 24.624,25.62 3.432,20.014 -0.285,31.324 -16.008,43.768 -11.71,-15.884 -24.144,-31.454 -35.478,-47.616 -9.559,-9.663 -12.708,-18.119 -28.474,-18.798 -17.664,-0.077 -37.839,-1.49 -55.449,-0.241 -8.827,0.626 -14.43,10.356 -16.157,18.649 0.578,8.285 6.125,14.301 10.543,21.026 5.403,8.223 11.229,16.173 16.497,24.498 10.808,14.252 20.306,26.353 31.737,40.099 -21.387,6.718 -43.903,11.159 -65.69,16.541 -20.223,4.996 -128.445,33.242 -138.826,31.606 -6,-0.946 -12.235,-4.537 -17.954,-6.614 -23.8,-8.644 -47.115,-18.317 -70.768,-27.317 -10.273,-3.874 -59.74,-26.036 -66.873,-25.518 -20.514,1.491 -48.166,3.615 -69.305,5.082 l -132.877,9.193 c -13.231,0.922 -31.463,0.791 -44.67,3.567 -5.023,1.056 -8.955,8.104 -9.073,13.619 -11.71,0.134 -28.997,-4.72 -40.842,-6.323 7.667,-31.465 7.565,-65.036 3.852,-97.048 -0.903,-15.519 -7.618,-35.27 -13.992,-49.202 -3.263,-6.368 -6.97,-10.551 -11.667,-15.907 27.208,-2.874 62.127,-4.199 89.44,-4.73 0.559,8.674 1.775,10.957 7.541,17.007 44.642,35.3 135.612,36.794 191.563,44.236 17.558,2.336 44.403,6.139 60.887,0.667 29.027,-14.353 36.004,-38.248 27.708,-68.549 -4.49,-10.116 -6.366,-13.295 -14.319,-21.199 z"
       id="path3" />
    <path
       fill="#da2e28"
       d="m 557.752,385.077 97.153,18.015 c 37.636,7.145 75.31,14.716 113.052,21.166 42.256,7.03 84.304,14.838 126.026,24.58 15.753,3.679 32.431,5.12 47.799,10.123 12.275,3.995 20.971,13.477 24.624,25.62 3.432,20.014 -0.285,31.324 -16.008,43.768 -11.71,-15.884 -24.144,-31.454 -35.478,-47.616 -9.559,-9.663 -12.708,-18.119 -28.474,-18.798 -17.664,-0.077 -37.839,-1.49 -55.449,-0.241 -8.827,0.626 -14.43,10.356 -16.157,18.649 l -209.694,0.511 c -26.75,-0.006 -53.423,-0.04 -80.158,-1.119 -5.197,-0.21 -11.19,0.161 -16.238,-0.677 11.603,-0.081 24.917,0.44 35.611,-3.48 l 0.002,-0.753 c 29.027,-14.353 36.004,-38.248 27.708,-68.549 -4.49,-10.116 -6.366,-13.295 -14.319,-21.199 z"
       id="path4" />
    <path
       fill="url(#gradient_0)"
       d="m 557.752,385.077 97.153,18.015 c 37.636,7.145 75.31,14.716 113.052,21.166 42.256,7.03 84.304,14.838 126.026,24.58 15.753,3.679 32.431,5.12 47.799,10.123 12.275,3.995 20.971,13.477 24.624,25.62 3.432,20.014 -0.285,31.324 -16.008,43.768 -11.71,-15.884 -24.144,-31.454 -35.478,-47.616 -9.559,-9.663 -12.708,-18.119 -28.474,-18.798 l 0.254,-1.036 c -1.645,-2.024 -17.573,-3.435 -20.985,-3.932 l -50.702,-7.541 C 760.311,440.77 706.928,431.52 652.435,421.643 l -46.496,-8.865 c -11.289,-2.089 -22.743,-3.733 -33.868,-6.502 -4.49,-10.116 -6.366,-13.295 -14.319,-21.199 z"
       id="path5"
       style="fill:url(#gradient_0)" />
    <path
       fill="#be211f"
       d="m 914.92,480.733 c 11.511,1.901 41.332,7.721 51.486,3.848 3.432,20.014 -0.285,31.324 -16.008,43.768 -11.71,-15.884 -24.144,-31.454 -35.478,-47.616 z"
       id="path6" />
    <path
       fill="#a31c1a"
       d="m 841.88,525.867 c 10.808,14.252 20.306,26.353 31.737,40.099 -21.387,6.718 -43.903,11.159 -65.69,16.541 -20.223,4.996 -128.445,33.242 -138.826,31.606 -6,-0.946 -12.235,-4.537 -17.954,-6.614 -23.8,-8.644 -47.115,-18.317 -70.768,-27.317 2.672,-3.111 6.474,-3.972 10.424,-4.817 15.203,-3.251 30.649,-5.526 45.979,-8.096 l 64.504,-11.336 c 37.871,-6.94 75.01,-16.561 112.765,-23.968 9.317,-1.827 18.583,-3.952 27.829,-6.098 z"
       id="path7" />
    <path
       fill="#da2e28"
       d="m 194.932,417.645 c 27.208,-2.874 62.127,-4.199 89.44,-4.73 0.559,8.674 1.775,10.957 7.541,17.007 44.642,35.3 135.612,36.794 191.563,44.236 17.558,2.336 44.403,6.139 60.887,0.667 l -0.002,0.753 c -10.694,3.92 -24.008,3.399 -35.611,3.48 -24.065,-0.628 -48.443,-1.488 -72.504,-1.858 -35.366,-0.545 -70.977,0.335 -106.324,1.457 l -74.425,2.714 c -8.523,0.343 -26.929,1.896 -34.906,1.383 -0.903,-15.519 -7.618,-35.27 -13.992,-49.202 -3.263,-6.368 -6.97,-10.551 -11.667,-15.907 z"
       id="path8" />
    <path
       fill="#e2665a"
       d="m 194.932,417.645 c 27.208,-2.874 62.127,-4.199 89.44,-4.73 0.559,8.674 1.775,10.957 7.541,17.007 -5.363,2.862 -52.62,1.146 -61.762,2.447 -4.532,0.645 -18.134,0.884 -23.552,1.183 -3.263,-6.368 -6.97,-10.551 -11.667,-15.907 z"
       id="path9" />
    <path
       fill="#fbbf33"
       d="m 508.296,564.717 c 3.317,-0.233 4.986,-0.496 8.165,0.68 16.113,5.962 32.235,12.481 48.168,18.898 l 79.646,31.781 52.62,20.458 c 8.169,3.086 22.394,7.727 29.468,11.43 -15.321,4.329 -27.039,5.071 -42.391,6.703 -54.946,5.842 -102.736,-2.25 -156.369,-12.617 -4.404,-1.035 -8.962,-1.867 -13.403,-2.82 -29.214,-6.267 -58.388,-13.442 -87.298,-20.973 -44.876,-11.689 -88.76,-26.475 -132.912,-40.55 25.038,-2.135 51.15,-2.353 76.315,-3.854 z"
       id="path10" />
    <path
       fill="#e5991b"
       d="m 856.462,313.145 c 4.677,0.235 9.471,0.926 14.13,1.512 l 36.829,5.219 c 6.372,0.925 17.22,2.324 23.22,3.879 -1.689,40.382 -2.097,81.636 -4.163,121.72 -7.666,-1.951 -15.162,-3.759 -22.915,-5.32 -31.264,-6.295 -62.373,-12.691 -93.74,-18.461 -6.879,-1.788 -14.804,-3.219 -21.847,-4.636 18.433,-26.637 35.517,-55.043 53.746,-81.866 4.987,-7.339 9.533,-14.803 14.74,-22.047 z"
       id="path11" />
    <path
       fill="#fbbf33"
       d="m 856.462,313.145 c 4.677,0.235 9.471,0.926 14.13,1.512 -0.717,2.914 -15.902,29.299 -18.238,33.445 l -25.911,45.615 c -4.947,8.72 -10.808,20.158 -16.62,27.977 -6.879,-1.788 -14.804,-3.219 -21.847,-4.636 18.433,-26.637 35.517,-55.043 53.746,-81.866 4.987,-7.339 9.533,-14.803 14.74,-22.047 z"
       id="path12" />
    <path
       fill="#7fbfd2"
       d="m 367.63,358.357 c 35.434,-5.978 55.627,1.597 89.514,8.591 6.62,6.023 10.337,12.328 13.155,20.862 6.307,21.771 3.631,52.739 1.753,75.859 -14.777,-2.067 -29.578,-3.189 -44.283,-5.103 -15.853,-2.063 -32.186,-4.824 -47.96,-7.476 2.917,-24.085 5.004,-48.882 -0.72,-72.676 -3.314,-9.045 -4.746,-13.043 -11.459,-20.057 z"
       id="path13" />
    <path
       fill="#e4e8ed"
       d="m 367.63,358.357 c 35.434,-5.978 55.627,1.597 89.514,8.591 6.62,6.023 10.337,12.328 13.155,20.862 -3.293,-0.15 -14.701,-2.753 -18.69,-3.474 -24,-4.341 -48.089,-11.336 -72.52,-5.922 -3.314,-9.045 -4.746,-13.043 -11.459,-20.057 z"
       id="path14" />
    <path
       fill="#e5991b"
       d="m 835.694,470.663 c 7.765,-0.328 15.729,0.433 23.512,0.523 8.945,0.104 18.006,-0.4 26.929,0.195 2.088,0.139 4.683,0.248 6.56,1.209 7.052,3.61 46.8,60.481 53.849,70.355 4.343,6.082 15.477,19.203 17.471,25.457 0.61,1.913 0.755,3.482 -0.172,5.309 -2.444,2.002 -6.722,1.19 -10.026,1.002 -18.972,-0.797 -39.608,0.494 -58.54,-0.441 -11.397,-8.811 -67.71,-82.396 -70.698,-92.624 -0.452,-1.545 -0.158,-3.07 0.651,-4.436 2.156,-3.641 6.518,-5.637 10.464,-6.549 z"
       id="path15" />
    <path
       fill="#c7cdd0"
       d="m 56.8417,512.928 c 11.9433,-27.658 65.8203,-44.305 94.0143,-46.614 3.044,13.486 5.546,31.568 5.647,45.313 0.504,17.914 -0.064,41.953 -3.434,59.591 -19.186,-2.976 -37.108,-8.547 -54.6422,-16.95 -12.7024,-6.087 -46.1744,-23.602 -41.5851,-41.34 z"
       id="path16" />
    <path
       fill="#888e8f"
       d="m 56.8417,512.928 c 4.2217,2.186 10.0924,4.716 14.5914,6.053 17.2224,5.119 78.6569,14.382 85.0699,-7.354 0.504,17.914 -0.064,41.953 -3.434,59.591 -19.186,-2.976 -37.108,-8.547 -54.6422,-16.95 -12.7024,-6.087 -46.1744,-23.602 -41.5851,-41.34 z"
       id="path17" />
    <path
       fill="#7fbfd2"
       d="m 467.882,368.629 c 25.159,4.113 51.295,10.962 76.578,15.296 5.819,0.998 15.439,16.866 17.917,22.304 7.307,16.866 4.37,41.272 -10.661,53.332 -14.573,11.693 -29.372,8.985 -46.556,7.268 l -27.711,-2.776 c 1.968,-19.79 4.523,-55.553 -0.299,-74.416 -3.124,-9.4 -4.513,-12.299 -9.268,-21.008 z"
       id="path18" />
    <path
       fill="#e4e8ed"
       d="m 467.882,368.629 c 25.159,4.113 51.295,10.962 76.578,15.296 5.819,0.998 15.439,16.866 17.917,22.304 -12.169,-1.69 -29.573,-5.948 -41.977,-8.478 -14.047,-2.864 -29.627,-5.046 -43.25,-8.114 -3.124,-9.4 -4.513,-12.299 -9.268,-21.008 z"
       id="path19" />
    <path
       fill="#fbbf33"
       d="m 266.481,584.491 c 2.59,-3.93 5.575,-7.185 10.861,-5.754 6.986,1.89 13.88,4.496 20.783,6.718 l 52.402,17.027 c 26.829,8.521 52.845,14.905 79.701,22.347 31.467,8.719 60.845,15.666 92.669,22.445 55.963,11.921 112.203,20.02 169.429,12.253 11.627,-1.578 24.456,-3.064 35.789,-6.369 3.064,-1.278 5.862,-3.178 8.546,-0.485 1.987,6.694 -7.716,12.705 -13.32,14.036 -93.262,22.145 -191.892,0.58 -282.56,-23.753 -18.937,-5.082 -36.942,-9.23 -55.588,-14.969 -26.25,-8.078 -52.419,-15.183 -78.492,-23.743 -11.117,-3.601 -22.561,-6.979 -33.116,-12.026 -3.951,-1.889 -5.799,-3.523 -7.104,-7.727 z"
       id="path20" />
    <path
       fill="#c57706"
       d="m 266.481,584.491 c 1.615,-0.024 3.59,0.036 5.125,0.557 54.121,18.386 108.234,36.505 163.911,49.707 29.653,7.031 58.909,16.085 89.013,21.26 20.931,3.852 41.631,8.485 62.691,11.58 14.722,2.162 31.311,1.846 46.041,2.418 17.298,0.673 86.338,-1.084 95.562,-15.634 -0.233,-1.08 0.06,-0.712 -0.709,-1.221 3.064,-1.278 5.862,-3.178 8.546,-0.485 1.987,6.694 -7.716,12.705 -13.32,14.036 -93.262,22.145 -191.892,0.58 -282.56,-23.753 -18.937,-5.082 -36.942,-9.23 -55.588,-14.969 -26.25,-8.078 -52.419,-15.183 -78.492,-23.743 -11.117,-3.601 -22.561,-6.979 -33.116,-12.026 -3.951,-1.889 -5.799,-3.523 -7.104,-7.727 z"
       id="path21" />
    <path
       fill="#7fbfd2"
       d="m 360.733,360.459 c 6.35,5.207 8.874,11.666 11.898,19.083 6.791,22.427 3.787,47.274 1.542,70.32 -21.323,-4.4 -54.669,-12.117 -72.008,-25.121 -4.012,-3.323 -5.966,-5.641 -7.721,-10.499 9.388,-27.713 40.224,-44.951 66.289,-53.783 z"
       id="path28" />
    <path
       fill="#e4e8ed"
       d="m 360.733,360.459 c 6.35,5.207 8.874,11.666 11.898,19.083 -32.71,7.438 -48.312,22.47 -70.466,45.199 -4.012,-3.323 -5.966,-5.641 -7.721,-10.499 9.388,-27.713 40.224,-44.951 66.289,-53.783 z"
       id="path29" />
    <path
       fill="#a31c1a"
       d="m 216.739,579.802 c 11.845,1.603 29.132,6.457 40.842,6.323 3.519,17.419 21.744,19.609 36.109,24.654 21.138,7.423 42.834,13.498 64.202,20.195 5.834,1.828 11.807,3.549 17.401,6.036 -15.076,2.065 -31.862,1.114 -47.12,1.541 -44.3,1.239 -85.979,-2.634 -129.809,-8.771 9.531,-14.811 14.806,-32.9 18.375,-49.978 z"
       id="path30" />
    <path
       fill="#fbbf33"
       d="m 210.794,483.962 c 3.545,29.129 3.203,64.902 -3.013,93.74 -12.515,-3.076 -30.693,-8.205 -40.355,-17.007 -1.872,-1.705 -1.512,-2.634 -1.536,-4.905 2.108,-24.228 1.306,-45.411 -0.849,-69.426 14.057,-0.921 31.883,-2.069 45.753,-2.402 z"
       id="path31" />
    <path
       fill="#fee25c"
       d="m 151.072,440.565 c 7.953,-10.26 20.421,-19.183 33.464,-21.012 17.911,10.241 23.534,45.11 26.258,64.409 -13.87,0.333 -31.696,1.481 -45.753,2.402 -2.075,-16.307 -6.286,-27.196 -12.686,-41.977 -0.249,-0.546 -1.051,-3.124 -1.283,-3.822 z"
       id="path32" />
    <path
       fill="#c57706"
       d="m 152.224,581.262 c -0.374,4.821 -4.098,19.398 -2.361,21.979 l 0.971,-0.123 c 8.295,-7.003 13.593,-36.194 15.056,-47.328 0.024,2.271 -0.336,3.2 1.536,4.905 9.662,8.802 27.84,13.931 40.355,17.007 -5.916,22.081 -8.909,30.408 -19.429,50.474 -14.863,-3.775 -36.408,-9.951 -43.454,-24.822 -3.597,-7.592 -5.861,-17.211 -7.86,-25.411 4.775,1.319 10.286,2.318 15.186,3.319 z"
       id="path33" />
    <path
       fill="#be211f"
       d="m 863.387,303.199 c 12.398,-15.412 23.296,-45.906 48.993,-38.974 20.894,7.34 18.689,30.371 18.685,48.527 -18.656,-2.472 -37.555,-5.426 -56.18,-8.258 -3.615,-0.55 -7.822,-0.902 -11.498,-1.295 z"
       id="path34" />
    <path
       fill="#e2665a"
       d="m 863.387,303.199 c 12.398,-15.412 23.296,-45.906 48.993,-38.974 -11.273,2.185 -15.96,5.1 -22.506,14.988 -4.456,6.729 -12.054,18.036 -14.989,25.281 -3.615,-0.55 -7.822,-0.902 -11.498,-1.295 z"
       id="path35" />
    <path
       fill="#888e8f"
       d="m 97.9864,351.069 c 0.9484,-1.953 1.4015,-3.402 3.1176,-4.69 9.563,-1.758 11.154,43.112 10.871,50.783 -0.465,12.58 -0.854,25.387 -3.321,37.785 -2.14,10.755 -4.165,25.239 -8.7419,35.105 l -1.7209,-6.744 C 91.3028,430.004 84.8754,383.175 97.9864,351.069 Z"
       id="path36" />
    <path
       fill="#c7cdd0"
       d="m 97.9864,351.069 c 0.9484,-1.953 1.4015,-3.402 3.1176,-4.69 9.563,-1.758 11.154,43.112 10.871,50.783 -0.465,12.58 -0.854,25.387 -3.321,37.785 -2.14,10.755 -4.165,25.239 -8.7419,35.105 l -1.7209,-6.744 c 0.1227,-0.201 0.5388,-0.838 0.6031,-1.089 1.1727,-4.569 1.5707,-13.295 1.8817,-17.769 1.351,-19.46 4.56,-76.152 -2.6896,-93.381 z"
       id="path37" />
    <path
       fill="#888e8f"
       d="m 96.6761,573.065 c 0.5387,-2.297 0.9165,-5.044 2.2745,-6.848 l 0.8899,-0.256 c 4.6045,3.9 9.0075,38.568 9.8725,48.717 1.946,22.828 1.75,55.341 -7.585,77.131 -0.129,0.133 -0.259,0.266 -0.388,0.4 -0.931,-0.528 -0.587,-0.16 -1.054,-1.084 -15.1568,-26.38 -11.2485,-88.854 -4.0099,-118.06 z"
       id="path38" />
    <path
       fill="#c7cdd0"
       d="m 96.6761,573.065 c 0.5387,-2.297 0.9165,-5.044 2.2745,-6.848 l 0.8899,-0.256 c 4.6045,3.9 9.0075,38.568 9.8725,48.717 1.946,22.828 1.75,55.341 -7.585,77.131 -0.129,0.133 -0.259,0.266 -0.388,0.4 -0.931,-0.528 -0.587,-0.16 -1.054,-1.084 0.325,-2.589 0.21,-5.477 0.317,-8.111 1.023,-25.277 1.315,-50.562 0.549,-75.853 -0.286,-9.448 -0.878,-19.571 -2.5019,-28.908 -0.3637,-2.091 -1.0546,-3.555 -2.374,-5.188 z"
       id="path39" />
    <path
       id="path40"
       d="m 370.00977,648.48438 c -0.37201,0.008 -0.75052,0.0147 -1.13282,0.0215 0.37674,0.0511 0.7545,0.099 1.13282,0.13672 z" />
    <path
       fill="#c57706"
       d="m 151.072,440.565 c 0.232,0.698 1.034,3.276 1.283,3.822 -1.368,5.015 -1.7,7.704 -1.039,12.805 l -11.082,1.364 c 2.647,-6.717 6.404,-12.35 10.838,-17.991 z"
       id="path41" />
  </g>
</svg>
