<?xml version="1.0" encoding="UTF-8" standalone="no"?>
<!-- Created with Inkscape (http://www.inkscape.org/) -->

<svg
   width="120"
   height="120"
   viewBox="0 0 31.749999 31.750001"
   version="1.1"
   id="svg8107"
   inkscape:version="1.1.2 (0a00cf5339, 2022-02-04)"
   sodipodi:docname="not-blue.svg"
   xmlns:inkscape="http://www.inkscape.org/namespaces/inkscape"
   xmlns:sodipodi="http://sodipodi.sourceforge.net/DTD/sodipodi-0.dtd"
   xmlns="http://www.w3.org/2000/svg"
   xmlns:svg="http://www.w3.org/2000/svg">
  <sodipodi:namedview
     id="namedview8109"
     pagecolor="#ffffff"
     bordercolor="#666666"
     borderopacity="1.0"
     inkscape:pageshadow="2"
     inkscape:pageopacity="0.0"
     inkscape:pagecheckerboard="0"
     inkscape:document-units="mm"
     showgrid="false"
     units="px"
     inkscape:zoom="2.1273152"
     inkscape:cx="-6.3460271"
     inkscape:cy="101.77147"
     inkscape:window-width="1920"
     inkscape:window-height="960"
     inkscape:window-x="0"
     inkscape:window-y="27"
     inkscape:window-maximized="1"
     inkscape:current-layer="layer1" />
  <defs
     id="defs8104" />
  <g
     inkscape:label="Слой 1"
     inkscape:groupmode="layer"
     id="layer1">
    <path
       style="fill:#0000ff;stroke:none;stroke-width:0.479596px;stroke-linecap:butt;stroke-linejoin:miter;stroke-opacity:1"
       d="m 20.194795,9.634139 c 0.765948,2.788449 2.096861,2.889008 3.750234,3.155851 1.653372,0.266844 1.934021,-2.8542171 3.958376,0.58211 2.024357,3.436331 2.990713,5.073172 1.358945,7.123558 -1.631768,2.050387 -6.559268,2.030136 -9.103833,-0.07348 -3.186065,-2.63394 -3.689595,6.30526 -6.270499,5.221231 C 10.171789,24.082532 13.6446,18.209215 10.387175,17.572841 7.1297504,16.936469 2.4230212,21.069116 1.9443065,15.203976 1.4655913,9.3388325 6.3607368,9.5710106 8.6125549,9.0334593 12.45929,7.3037095 17.888662,2.4050898 20.194795,9.634139 Z"
       id="path14863"
       sodipodi:nodetypes="cssssssscc" />
    <rect
       style="fill:none;fill-opacity:0.999978;stroke:#4d5056;stroke-width:0.559044;stroke-miterlimit:4;stroke-dasharray:none;stroke-opacity:1"
       id="rect16191"
       width="31.190956"
       height="31.190956"
       x="0.27952191"
       y="0.27952191" />
    <g
       id="g18258"
       transform="rotate(43.536381,15.875,15.875)">
      <rect
         style="fill:#ff0000;fill-opacity:0.999978;stroke:none;stroke-width:0.552;stroke-miterlimit:4;stroke-dasharray:none;stroke-opacity:1"
         id="rect18001"
         width="0.76405472"
         height="24.428782"
         x="15.492972"
         y="3.6606092" />
      <rect
         style="fill:#ff0000;fill-opacity:0.999978;stroke:none;stroke-width:0.552;stroke-miterlimit:4;stroke-dasharray:none;stroke-opacity:1"
         id="rect18001-7"
         width="0.76405472"
         height="24.428782"
         x="15.606919"
         y="-27.974621"
         transform="rotate(89.587257)" />
    </g>
  </g>
</svg>
