<?xml version="1.0" encoding="UTF-8" standalone="no"?>
<svg
   width="1024"
   height="700"
   viewBox="0 0 1024 700"
   fill="none"
   version="1.1"
   id="svg4"
   sodipodi:docname="bg-06.svg"
   inkscape:version="1.4.2 (2aeb623e1d, 2025-05-12)"
   xmlns:inkscape="http://www.inkscape.org/namespaces/inkscape"
   xmlns:sodipodi="http://sodipodi.sourceforge.net/DTD/sodipodi-0.dtd"
   xmlns:xlink="http://www.w3.org/1999/xlink"
   xmlns="http://www.w3.org/2000/svg"
   xmlns:svg="http://www.w3.org/2000/svg">
  <sodipodi:namedview
     id="namedview4"
     pagecolor="#ffffff"
     bordercolor="#999999"
     borderopacity="1"
     inkscape:showpageshadow="2"
     inkscape:pageopacity="0"
     inkscape:pagecheckerboard="0"
     inkscape:deskcolor="#d1d1d1"
     inkscape:zoom="0.88859755"
     inkscape:cx="495.16229"
     inkscape:cy="391.06567"
     inkscape:window-width="1920"
     inkscape:window-height="954"
     inkscape:window-x="0"
     inkscape:window-y="27"
     inkscape:window-maximized="1"
     inkscape:current-layer="svg4"
     showgrid="false" />
  <rect
     width="1024"
     height="700"
     fill="#2a7df9"
     id="rect2"
     x="0"
     y="0"
     style="fill:url(#linearGradient2);stroke-width:1.22202"
     inkscape:transform-center-x="25.883488"
     inkscape:transform-center-y="3.3761031" />
  <path
     fill="#eb928c"
     d="m 393.56634,617.93365 c 2.164,1.489 3.609,7.31 4.685,10.247 4.277,2.111 7.927,2.732 12.278,5.337 -4.614,1.346 -8.215,2.613 -12.717,4.291 -0.778,3.586 -1.629,6.616 -3.172,9.942 -2.241,-1.177 -4.152,-7.579 -5.042,-10.015 -3.532,-1.967 -6.568,-2.396 -10.001,-4.511 l 0.138,-0.723 c 2.613,-1.596 6.063,-2.325 9.284,-3.683 1.875,-3.503 2.504,-7.12 4.547,-10.885 z"
     id="path44-5" />
  <path
     style="fill:#ffffff;fill-opacity:0.0626613;stroke-width:1.51181"
     d="M 468.0686,532.48157 C 1109.8781,94.397334 831.63332,930.15485 210.35913,621.38572 80.49617,483.60677 365.78043,537.05779 468.0686,532.48157 Z"
     id="path6-5"
     sodipodi:nodetypes="sss" />
  <path
     fill="#eb928c"
     d="m 764.1458,477.32889 c 1.45542,1.03941 2.42727,5.10282 3.15095,7.15302 2.87654,1.4736 5.33139,1.9071 8.25771,3.72554 -3.1032,0.93959 -5.52509,1.82404 -8.55297,2.99538 -0.52325,2.50324 -1.0956,4.61836 -2.13336,6.94011 -1.50721,-0.82162 -2.79248,-5.2906 -3.39106,-6.99107 -2.37549,-1.37308 -4.41739,-1.67255 -6.72629,-3.14895 l 0.0928,-0.50469 c 1.75741,-1.11411 4.07775,-1.62299 6.24407,-2.57096 1.26105,-2.4453 1.68409,-4.97018 3.05814,-7.59838 z"
     id="path44-9"
     style="stroke-width:0.685192" />
  <path
     fill="#f6b991"
     d="m 625.59331,584.72422 c 0.1548,2.57487 -3.15328,7.80807 -1.29083,11.91006 1.99321,4.39027 5.97676,6.24855 10.24588,8.05163 -7.90556,-0.17743 -12.39198,-2.771 -18.62834,4.75198 -0.58412,0.70473 -3.15425,4.29494 -3.47587,4.5449 l -0.063,-0.55785 c 3.09703,-12.06377 0.53845,-14.75631 -10.13338,-20.58568 15.30391,3.53822 14.17606,2.64785 23.34552,-8.11504 z"
     id="path39-7"
     style="stroke-width:0.468282;fill:#f6b991;fill-opacity:0.46923178" />
  <path
     fill="#f6b991"
     d="m 833.81074,115.83037 c 0.322,5.645 -6.559,17.118 -2.685,26.111 4.146,9.625 12.432,13.699 21.312,17.652 -16.444,-0.389 -25.776,-6.075 -38.748,10.418 -1.215,1.545 -6.561,9.416 -7.23,9.964 l -0.131,-1.223 c 6.442,-26.448 1.12,-32.351 -21.078,-45.131 31.833,7.757 29.487,5.805 48.56,-17.791 z"
     id="path39"
     style="fill:#f6b991;fill-opacity:0.35752243" />
  <path
     fill="#f6b991"
     d="m 249.34909,275.54573 c 0.1602,2.57487 -3.26314,7.80807 -1.3358,11.91006 2.06266,4.39027 6.18499,6.24855 10.60284,8.05163 -8.18098,-0.17743 -12.82371,-2.771 -19.27736,4.75198 -0.60447,0.70473 -3.26413,4.29494 -3.59697,4.5449 l -0.0652,-0.55785 c 3.20493,-12.06377 0.55721,-14.75631 -10.48643,-20.58568 15.83711,3.53822 14.66996,2.64785 24.15889,-8.11504 z"
     id="path39-2"
     style="stroke-width:0.47637" />
  <path
     style="fill:#ffffff;fill-opacity:0.0626613;stroke-width:1.51181"
     d="M 237.9661,122.34955 C 409.16943,-141.57644 940.87703,260.43649 689.239,224.75812 502.83109,198.12836 178.00763,406.22279 82.665204,320.41447 -47.197755,182.63552 135.67793,126.92577 237.9661,122.34955 Z m 57.38341,57.97794 C 466.55284,-83.5985 633.64093,455.70943 382.0029,420.03106 195.595,393.4013 161.11671,563.23319 65.774274,477.42487 -64.088689,339.64592 193.06135,184.90371 295.34951,180.32749 Z"
     id="path6"
     sodipodi:nodetypes="sssscccc" />
  <path
     d="m 884.48935,78.581479 c 1.332,-0.065 2.64,-0.086 3.964,0.106 4.016,0.585 5.912,2.975 8.133,6.069 2.966,0.391 5.872,0.952 8.337,2.763 1.772,1.302 3.01,3.047 3.254,5.264 0.358,3.242 -1.154,6.082 -3.158,8.495001 1.592,3.497 3.059,6.319 2.053,10.314 -0.555,2.203 -1.968,4.047 -4.001,5.08 -4.159,2.115 -8.327,0.844 -12.451,-0.525 -0.195,0.21 -0.39,0.419 -0.589,0.625 -2.2,2.285 -4.707,4.107 -8.033,4.038 -2.299,-0.047 -4.3739,-1.204 -5.8987,-2.885 -3.313,-3.652 -3.1202,-7.299 -2.9309,-11.871 -0.6296,-0.354 -1.2566,-0.7 -1.8529,-1.109 -2.0822,-1.427 -3.6317,-3.428 -4.0194,-5.971001 -0.3909,-2.564 0.6469,-5.188 2.2555,-7.153 1.9552,-2.387 3.9094,-2.976 6.8756,-3.366 1.9078,-4.903 3.0628,-7.582 8.0618,-9.874 z"
     id="path26" />
  <path
     fill="#fefdfd"
     d="m 598.56666,138.85429 c 10.315,-0.532 6.122,4.894 10.638,7.015 2.389,1.122 6.902,-0.705 9.459,2.131 0.841,0.933 1.187,1.738 1.029,3.008 -0.389,3.13 -3.491,6.131 -5.677,8.213 1.997,1.581 3.992,3.158 4.462,5.815 0.276,1.565 0.022,3.201 -0.938,4.5 -1.148,1.553 -2.995,2.34 -4.886,2.469 -3.305,0.225 -5.652,-1.585 -8.014,-3.645 -2.078,1.137 -2.722,4.419 -4.771,5.725 -1.499,0.955 -3.193,1.437 -4.952,0.923 -1.617,-0.473 -2.9603,-1.668 -3.7757,-3.123 -1.918,-3.425 -0.4277,-6.583 0.6373,-10.014 -0.595,-1.426 -3.2083,-1.681 -4.6388,-2.403 -1.3617,-0.687 -2.4457,-1.647 -2.7916,-3.203 -0.3413,-1.535 0.1264,-3.821 1.1225,-5.067 2.0149,-2.521 5.5162,-2.515 8.4623,-2.853 0.877,-4.021 1.542,-6.554 4.634,-9.491 z"
     id="path27"
     style="fill:#ffe269;fill-opacity:0.51602513" />
  <path
     fill="#fefdfd"
     d="m 647.81656,370.6317 c 11.62318,-0.5649 6.89846,5.19661 11.98718,7.44877 2.6919,1.19137 7.7773,-0.7486 10.6586,2.26276 0.9477,0.99069 1.3376,1.84547 1.1595,3.194 -0.4383,3.32354 -3.9337,6.51012 -6.397,8.72086 2.2503,1.67876 4.4983,3.35327 5.0279,6.17456 0.311,1.66177 0.025,3.39894 -1.0569,4.77826 -1.2936,1.64903 -3.3749,2.48469 -5.5057,2.62167 -3.7241,0.23891 -6.36882,-1.68301 -9.03037,-3.87039 -2.34153,1.20731 -3.06721,4.69225 -5.37608,6.079 -1.68912,1.01406 -3.59796,1.52586 -5.58005,0.98008 -1.82208,-0.50225 -3.33575,-1.77114 -4.25457,-3.31611 -2.16125,-3.63679 -0.48194,-6.99006 0.71813,-10.63321 -0.67046,-1.51418 -3.6152,-1.78494 -5.22713,-2.55159 -1.5344,-0.72948 -2.75588,-1.74884 -3.14565,-3.40105 -0.38459,-1.62993 0.14243,-4.05728 1.26486,-5.38033 2.27045,-2.67688 6.21581,-2.67051 9.53556,-3.02941 0.98823,-4.26964 1.73757,-6.95927 5.22172,-10.07787 z"
     id="path27-2"
     style="fill:#ffe269;fill-opacity:0.51602513;stroke-width:1.09385" />
  <path
     fill="#fefdfd"
     d="m 290.51388,446.40526 c 10.315,-0.532 6.122,4.894 10.638,7.015 2.389,1.122 6.902,-0.705 9.459,2.131 0.841,0.933 1.187,1.738 1.029,3.008 -0.389,3.13 -3.491,6.13101 -5.677,8.21301 1.997,1.581 3.992,3.158 4.462,5.815 0.276,1.565 0.022,3.201 -0.938,4.5 -1.148,1.553 -2.995,2.34 -4.886,2.469 -3.305,0.225 -5.652,-1.585 -8.014,-3.645 -2.078,1.137 -2.722,4.419 -4.771,5.725 -1.499,0.955 -3.193,1.437 -4.952,0.923 -1.617,-0.473 -2.9603,-1.668 -3.7757,-3.123 -1.918,-3.425 -0.4277,-6.583 0.6373,-10.014 -0.595,-1.426 -3.2083,-1.681 -4.6388,-2.403 -1.3617,-0.687 -2.4457,-1.647 -2.7916,-3.203 -0.3413,-1.53501 0.1264,-3.82101 1.1225,-5.06701 2.0149,-2.521 5.5162,-2.515 8.4623,-2.853 0.877,-4.021 1.542,-6.554 4.634,-9.491 z"
     id="path27-7"
     style="fill:#ffe269;fill-opacity:0.51602513" />
  <path
     fill="#fefdfd"
     d="m 121.21641,579.68082 c 5.73619,-0.33462 3.40446,3.07831 5.91582,4.4124 1.32852,0.70573 3.83821,-0.44344 5.26016,1.34039 0.46769,0.58685 0.6601,1.09319 0.57223,1.89201 -0.21632,1.96876 -1.94135,3.85637 -3.15699,5.16593 1.11054,0.99444 2.21996,1.98637 2.48133,3.6576 0.15348,0.98438 0.0122,2.01341 -0.52162,2.83048 -0.63841,0.97682 -1.66553,1.47184 -2.71712,1.55298 -1.83792,0.14153 -3.14309,-0.99695 -4.4566,-2.29268 -1.15558,0.71517 -1.51371,2.77952 -2.65316,3.60099 -0.8336,0.60069 -1.77564,0.90387 -2.75382,0.58056 -0.89922,-0.29751 -1.64623,-1.04916 -2.09968,-1.96435 -1.0666,-2.1543 -0.23784,-4.14066 0.35441,-6.29874 -0.33088,-0.89695 -1.78414,-1.05734 -2.57965,-1.51148 -0.75724,-0.43212 -1.36006,-1.03595 -1.55241,-2.01466 -0.1898,-0.96551 0.0703,-2.40339 0.62422,-3.18712 1.12049,-1.58569 3.06757,-1.58192 4.7059,-1.79452 0.48771,-2.52918 0.85751,-4.12243 2.57698,-5.96979 z"
     id="path27-61"
     style="fill:#ffe269;fill-opacity:0.51602513;stroke-width:0.591426" />
  <path
     fill="#fefdfd"
     d="m 175.32958,150.0365 c 10.315,-0.532 6.122,4.894 10.638,7.015 2.389,1.122 6.902,-0.705 9.459,2.131 0.841,0.933 1.187,1.738 1.029,3.008 -0.389,3.13 -3.491,6.131 -5.677,8.213 1.997,1.581 3.992,3.158 4.462,5.815 0.276,1.565 0.022,3.201 -0.938,4.5 -1.148,1.553 -2.995,2.34 -4.886,2.469 -3.305,0.225 -5.652,-1.585 -8.014,-3.645 -2.078,1.137 -2.722,4.419 -4.771,5.725 -1.499,0.955 -3.193,1.437 -4.952,0.923 -1.617,-0.473 -2.9603,-1.668 -3.7757,-3.123 -1.918,-3.425 -0.4277,-6.583 0.6373,-10.014 -0.595,-1.426 -3.2083,-1.681 -4.6388,-2.403 -1.3617,-0.687 -2.4457,-1.647 -2.7916,-3.203 -0.3413,-1.535 0.1264,-3.821 1.1225,-5.067 2.0149,-2.521 5.5162,-2.515 8.4623,-2.853 0.877,-4.021 1.542,-6.554 4.634,-9.491 z"
     id="path27-6"
     style="fill:#ffe269;fill-opacity:0.51602513" />
  <path
     fill="#fefdfd"
     d="m 389.56159,274.58119 c 5.73619,-0.30172 3.40446,2.77568 5.91582,3.97863 1.32852,0.63635 3.83821,-0.39985 5.26016,1.20862 0.46769,0.52916 0.6601,0.98572 0.57223,1.70601 -0.21632,1.77521 -1.94135,3.47726 -3.15699,4.65809 1.11054,0.89668 2.21996,1.79109 2.48133,3.29803 0.15348,0.8876 0.0122,1.81548 -0.52162,2.55222 -0.63841,0.8808 -1.66553,1.32715 -2.71712,1.40032 -1.83792,0.12761 -3.14309,-0.89895 -4.4566,-2.0673 -1.15558,0.64486 -1.51371,2.50628 -2.65316,3.24699 -0.8336,0.54164 -1.77564,0.81501 -2.75382,0.52349 -0.89922,-0.26827 -1.64623,-0.94603 -2.09968,-1.77124 -1.0666,-1.94253 -0.23784,-3.73362 0.35441,-5.67954 -0.33088,-0.80877 -1.78414,-0.9534 -2.57965,-1.36289 -0.75724,-0.38963 -1.36006,-0.93411 -1.55241,-1.81661 -0.1898,-0.87059 0.0703,-2.16712 0.62422,-2.8738 1.12049,-1.42981 3.06757,-1.4264 4.7059,-1.6181 0.48771,-2.28055 0.85751,-3.71717 2.57698,-5.38292 z"
     id="path27-6-6"
     style="fill:#ffe269;fill-opacity:0.51602513;stroke-width:0.561604" />
  <defs
     id="defs4">
    <linearGradient
       id="linearGradient1"
       inkscape:collect="always">
      <stop
         style="stop-color:#4a0072;stop-opacity:1;"
         offset="0"
         id="stop1" />
      <stop
         style="stop-color:#d29bff;stop-opacity:1;"
         offset="1"
         id="stop2" />
    </linearGradient>
    <linearGradient
       id="paint0_linear"
       x1="795.5"
       y1="-1.5764601e-05"
       x2="-6.7552147"
       y2="664.25677"
       gradientUnits="userSpaceOnUse"
       gradientTransform="matrix(1.282631,0,0,1.2805499,735.94484,115.61153)">
      <stop
         offset="0.0597881"
         stop-color="#9EC0F4"
         id="stop3" />
      <stop
         offset="0.831596"
         stop-color="white"
         stop-opacity="0"
         id="stop4" />
    </linearGradient>
    <linearGradient
       inkscape:collect="always"
       xlink:href="#linearGradient1"
       id="linearGradient2"
       x1="512"
       y1="862"
       x2="512"
       y2="-162"
       gradientUnits="userSpaceOnUse" />
  </defs>
  <path
     fill="#eb928c"
     d="m 453.16957,173.03684 c 2.164,1.489 3.609,7.31 4.685,10.247 4.277,2.111 7.927,2.732 12.278,5.337 -4.614,1.346 -8.215,2.613 -12.717,4.291 -0.778,3.586 -1.629,6.616 -3.172,9.942 -2.241,-1.177 -4.152,-7.579 -5.042,-10.015 -3.532,-1.967 -6.568,-2.396 -10.001,-4.511 l 0.138,-0.723 c 2.613,-1.596 6.063,-2.325 9.284,-3.683 1.875,-3.503 2.504,-7.12 4.547,-10.885 z"
     id="path44" />
</svg>
