<?xml version="1.0" encoding="UTF-8" standalone="no"?>
<svg
   width="1024"
   height="700"
   viewBox="0 0 1024 700"
   fill="none"
   version="1.1"
   id="svg4"
   sodipodi:docname="bg-05.svg"
   inkscape:version="1.4.2 (2aeb623e1d, 2025-05-12)"
   xmlns:inkscape="http://www.inkscape.org/namespaces/inkscape"
   xmlns:sodipodi="http://sodipodi.sourceforge.net/DTD/sodipodi-0.dtd"
   xmlns:xlink="http://www.w3.org/1999/xlink"
   xmlns="http://www.w3.org/2000/svg"
   xmlns:svg="http://www.w3.org/2000/svg">
  <sodipodi:namedview
     id="namedview4"
     pagecolor="#ffffff"
     bordercolor="#999999"
     borderopacity="1"
     inkscape:showpageshadow="2"
     inkscape:pageopacity="0"
     inkscape:pagecheckerboard="0"
     inkscape:deskcolor="#d1d1d1"
     inkscape:zoom="0.88859755"
     inkscape:cx="396.12983"
     inkscape:cy="360.68072"
     inkscape:window-width="1920"
     inkscape:window-height="954"
     inkscape:window-x="0"
     inkscape:window-y="27"
     inkscape:window-maximized="1"
     inkscape:current-layer="svg4"
     showgrid="false" />
  <rect
     width="1024"
     height="700"
     fill="#2a7df9"
     id="rect2"
     x="0"
     y="0"
     style="fill:url(#linearGradient6);fill-opacity:1;stroke-width:1.22202" />
  <path
     style="fill:#d5d8da;fill-opacity:0.204083;stroke-width:3.72404;stroke-linejoin:round"
     d="m -40.912329,129.30721 c 0,0 -146.971431,-47.08751 57.107913,-155.521063 C 220.27494,-134.64741 208.47328,10.309306 246.62814,70.523196 284.78299,130.73706 366.23843,82.018422 341.08034,149.29592 315.92224,216.57344 230.11053,265.93634 141.49031,203.67395 49.15685,60.172526 51.433245,258.62031 -40.912329,129.30721 Z"
     id="path6-1"
     sodipodi:nodetypes="cssssc" />
  <defs
     id="defs4">
    <linearGradient
       id="linearGradient1"
       inkscape:collect="always">
      <stop
         style="stop-color:#c503ce;stop-opacity:1;"
         offset="0"
         id="stop5" />
      <stop
         style="stop-color:#1e1e1e;stop-opacity:0.89609289;"
         offset="1"
         id="stop6" />
    </linearGradient>
    <linearGradient
       id="paint0_linear"
       x1="795.5"
       y1="-1.5764601e-05"
       x2="-6.7552147"
       y2="664.25677"
       gradientUnits="userSpaceOnUse"
       gradientTransform="matrix(1.282631,0,0,1.2805499,735.94484,115.61153)">
      <stop
         offset="0.0597881"
         stop-color="#9EC0F4"
         id="stop3" />
      <stop
         offset="0.831596"
         stop-color="white"
         stop-opacity="0"
         id="stop4" />
    </linearGradient>
    <linearGradient
       id="gradient_3"
       gradientUnits="userSpaceOnUse"
       x1="834.04053"
       y1="619.34546"
       x2="833.3985"
       y2="608.63782"
       gradientTransform="translate(-244.8443,-304.808)">
      <stop
         offset="0"
         stop-color="#F79D6E"
         id="stop360" />
      <stop
         offset="1"
         stop-color="#FB9283"
         id="stop361" />
    </linearGradient>
    <linearGradient
       id="gradient_4"
       gradientUnits="userSpaceOnUse"
       x1="518.46313"
       y1="893.25836"
       x2="512.35229"
       y2="889.29797"
       gradientTransform="translate(-244.8443,-304.808)">
      <stop
         offset="0"
         stop-color="#FF6F72"
         id="stop443" />
      <stop
         offset="1"
         stop-color="#F7A0A0"
         id="stop444" />
    </linearGradient>
    <linearGradient
       id="gradient_0"
       gradientUnits="userSpaceOnUse"
       x1="576.94659"
       y1="-1.7882807"
       x2="574.20795"
       y2="877.87543"
       gradientTransform="matrix(0.88801449,0,0,0.76924929,2.8280123,5.5039063)">
      <stop
         offset="0"
         stop-color="#539AA5"
         id="stop1" />
      <stop
         offset="1"
         stop-color="#97B6A9"
         id="stop2" />
    </linearGradient>
    <linearGradient
       inkscape:collect="always"
       xlink:href="#linearGradient1"
       id="linearGradient6"
       x1="512"
       y1="862"
       x2="512"
       y2="-162"
       gradientUnits="userSpaceOnUse" />
  </defs>
  <path
     style="fill:#d5d8da;fill-opacity:0.204083;stroke-width:5;stroke-linejoin:round"
     d="m 713.01771,-31.283234 c 329.06689,37.282795 362.86469,-22.28117 374.00529,66.843505 11.1406,89.124659 39.7878,151.193629 -35.0132,213.262589 -74.80111,62.06896 -97.08228,213.26259 -171.88334,93.8992 C 805.3254,223.35867 824.42355,164.47273 711.4262,167.65575 598.42886,170.83878 399.98914,-66.748913 713.01771,-31.283234 Z"
     id="path6"
     sodipodi:nodetypes="ssssss" />
  <path
     style="fill:#d5d8da;fill-opacity:0.204083;stroke-width:5;stroke-linejoin:round"
     d="M 412.38241,786.55096 C 81.347931,796.10003 1.1268115,745.81147 -10.013794,656.68679 -21.154394,567.56213 -49.801594,505.49316 24.999511,443.4242 99.800571,381.35524 122.08174,230.16161 196.8828,349.525 c 74.80106,119.36339 72.18315,116.21922 168.70026,175.06631 107.3705,65.46447 377.83381,252.41057 46.79935,261.95965 z"
     id="path6-4"
     sodipodi:nodetypes="ssssss" />
  <path
     sodipodi:type="star"
     style="fill:#d5d8da;fill-opacity:0.204083;stroke-width:5;stroke-linejoin:round"
     id="path7"
     inkscape:flatsided="false"
     sodipodi:sides="5"
     sodipodi:cx="444.52069"
     sodipodi:cy="202.56639"
     sodipodi:r1="37.408994"
     sodipodi:r2="21.013372"
     sodipodi:arg1="2.772259"
     sodipodi:arg2="3.4005775"
     inkscape:rounded="0"
     inkscape:randomized="0"
     d="m 409.63426,216.07082 14.57384,-18.88594 -3.31138,-23.62436 22.46516,8.02448 21.44483,-10.44965 -0.68962,23.84534 16.56502,17.16612 -22.89137,6.71275 -11.20708,21.0589 -13.45803,-19.69663 z"
     inkscape:transform-center-x="-0.63749323"
     inkscape:transform-center-y="2.960513" />
  <path
     sodipodi:type="star"
     style="fill:#d5d8da;fill-opacity:0.204083;stroke-width:5;stroke-linejoin:round"
     id="path8"
     inkscape:flatsided="false"
     sodipodi:sides="5"
     sodipodi:cx="389.37762"
     sodipodi:cy="328.6077"
     sodipodi:r1="19.653723"
     sodipodi:r2="11.039884"
     sodipodi:arg1="2.7291822"
     sodipodi:arg2="3.3575007"
     inkscape:rounded="0"
     inkscape:randomized="0"
     d="m 371.37172,336.48528 7.22234,-10.24271 -2.27259,-12.3252 11.97322,3.70369 11.01969,-5.97007 0.17751,12.53171 9.08314,8.6355 -11.86351,4.04134 -5.406,11.30709 -7.50957,-10.03402 z"
     inkscape:transform-center-x="-0.59575264"
     inkscape:transform-center-y="1.3011178"
     transform="translate(-119.2891,-28.134221)" />
  <path
     sodipodi:type="star"
     style="fill:#d5d8da;fill-opacity:0.204083;stroke-width:5;stroke-linejoin:round"
     id="path9"
     inkscape:flatsided="false"
     sodipodi:sides="5"
     sodipodi:cx="562.68442"
     sodipodi:cy="360.11803"
     sodipodi:r1="14.629795"
     sodipodi:r2="8.2178449"
     sodipodi:arg1="2.7468015"
     sodipodi:arg2="3.3751201"
     inkscape:rounded="0"
     inkscape:randomized="0"
     d="m 549.18002,365.74489 5.50965,-7.52854 -1.52977,-9.20299 8.86265,2.91354 8.27983,-4.29877 -0.0322,9.3292 6.64698,6.5462 -8.88256,2.85223 -4.17177,8.34455 -5.4575,-7.56644 z"
     inkscape:transform-center-x="-0.36413008"
     inkscape:transform-center-y="1.0461739" />
  <path
     sodipodi:type="star"
     style="fill:#d5d8da;fill-opacity:0.204083;stroke-width:5;stroke-linejoin:round"
     id="path10"
     inkscape:flatsided="false"
     sodipodi:sides="5"
     sodipodi:cx="669.59448"
     sodipodi:cy="489.53546"
     sodipodi:r1="15.140289"
     sodipodi:r2="8.5045996"
     sodipodi:arg1="2.3036114"
     sodipodi:arg2="2.93193"
     inkscape:rounded="0"
     inkscape:randomized="0"
     d="m 659.46616,500.78915 1.80996,-9.48363 -5.51435,-7.92508 9.57877,-1.20923 5.83317,-7.69345 4.11005,8.73628 9.11946,3.17027 -7.03863,6.60855 -0.19704,9.65279 -8.46015,-4.65198 z"
     inkscape:transform-center-x="-0.48800909"
     inkscape:transform-center-y="-0.97375838"
     transform="translate(-59.644549,-13.504426)" />
  <path
     sodipodi:type="star"
     style="fill:#d5d8da;fill-opacity:0.204083;stroke-width:5;stroke-linejoin:round"
     id="path11"
     inkscape:flatsided="false"
     sodipodi:sides="5"
     sodipodi:cx="398.38058"
     sodipodi:cy="435.51773"
     sodipodi:r1="25.289518"
     sodipodi:r2="14.205623"
     sodipodi:arg1="2.7776137"
     sodipodi:arg2="3.4059322"
     inkscape:rounded="0"
     inkscape:randomized="0"
     d="m 374.74784,444.52068 9.92055,-12.71448 -2.15304,-15.98248 15.15781,5.50601 14.53492,-6.98652 -0.55252,16.11739 11.13612,11.66457 -15.49928,4.45508 -7.65242,14.19562 -9.02657,-13.36399 z"
     inkscape:transform-center-x="-0.38917444"
     inkscape:transform-center-y="2.041811"
     transform="translate(-6.7522131,-34.886434)" />
  <path
     sodipodi:type="star"
     style="fill:#d5d8da;fill-opacity:0.204083;stroke-width:5;stroke-linejoin:round"
     id="path12"
     inkscape:flatsided="false"
     sodipodi:sides="5"
     sodipodi:cx="634.70803"
     sodipodi:cy="208.19324"
     sodipodi:r1="23.846138"
     sodipodi:r2="13.394848"
     sodipodi:arg1="2.8049178"
     sodipodi:arg2="3.4332364"
     inkscape:rounded="0"
     inkscape:randomized="0"
     d="m 612.20063,216.07082 9.67816,-11.72896 -1.61797,-15.1201 14.14562,5.58002 13.88009,-6.21114 -0.93568,15.1776 10.19633,11.2814 -14.7239,3.80025 -7.57841,13.18344 -8.16419,-12.82892 z"
     inkscape:transform-center-x="-0.16589999"
     inkscape:transform-center-y="2.1187462" />
</svg>
