<?xml version="1.0" encoding="UTF-8" standalone="no"?>
<!-- Created with Inkscape (http://www.inkscape.org/) -->

<svg
   width="100"
   height="50"
   viewBox="0 0 26.458333 13.229167"
   version="1.1"
   id="svg1231"
   inkscape:version="1.2.2 (b0a8486541, 2022-12-01, custom)"
   sodipodi:docname="cards.svg"
   xmlns:inkscape="http://www.inkscape.org/namespaces/inkscape"
   xmlns:sodipodi="http://sodipodi.sourceforge.net/DTD/sodipodi-0.dtd"
   xmlns="http://www.w3.org/2000/svg"
   xmlns:svg="http://www.w3.org/2000/svg">
  <sodipodi:namedview
     id="namedview1233"
     pagecolor="#ffffff"
     bordercolor="#666666"
     borderopacity="1.0"
     inkscape:pageshadow="2"
     inkscape:pageopacity="0.0"
     inkscape:pagecheckerboard="0"
     inkscape:document-units="mm"
     showgrid="false"
     fit-margin-top="0"
     fit-margin-left="0"
     fit-margin-right="0"
     fit-margin-bottom="0"
     inkscape:zoom="5.6159372"
     inkscape:cx="39.085195"
     inkscape:cy="51.549722"
     inkscape:window-width="1920"
     inkscape:window-height="960"
     inkscape:window-x="0"
     inkscape:window-y="0"
     inkscape:window-maximized="1"
     inkscape:current-layer="layer1"
     units="px"
     inkscape:showpageshadow="2"
     inkscape:deskcolor="#d1d1d1" />
  <defs
     id="defs1228">
    <filter
       inkscape:collect="always"
       style="color-interpolation-filters:sRGB"
       id="filter39509"
       x="-0.026488639"
       y="-0.054215345"
       width="1.0529773"
       height="1.1084307">
      <feGaussianBlur
         inkscape:collect="always"
         stdDeviation="0.20509452"
         id="feGaussianBlur39511" />
    </filter>
    <filter
       inkscape:collect="always"
       style="color-interpolation-filters:sRGB"
       id="filter39509-1"
       x="-0.026488628"
       y="-0.054215345"
       width="1.0529773"
       height="1.1084307">
      <feGaussianBlur
         inkscape:collect="always"
         stdDeviation="0.20509452"
         id="feGaussianBlur39511-8" />
    </filter>
    <filter
       inkscape:collect="always"
       style="color-interpolation-filters:sRGB"
       id="filter39509-2"
       x="-0.026488639"
       y="-0.054215334"
       width="1.0529773"
       height="1.1084307">
      <feGaussianBlur
         inkscape:collect="always"
         stdDeviation="0.20509452"
         id="feGaussianBlur39511-3" />
    </filter>
  </defs>
  <g
     inkscape:label="Слой 1"
     inkscape:groupmode="layer"
     id="layer1"
     transform="translate(-42.611899,-76.973307)">
    <rect
       style="fill:none;stroke:#000000;stroke-width:0.269837;stroke-dasharray:none;stroke-opacity:1"
       id="rect953"
       width="12.959331"
       height="12.95933"
       x="42.743294"
       y="77.104698" />
    <rect
       style="fill:none;stroke:#000000;stroke-width:0.269837;stroke-dasharray:none;stroke-opacity:1"
       id="rect953-3"
       width="12.959331"
       height="12.95933"
       x="55.975983"
       y="77.108223" />
    <g
       id="g905"
       transform="matrix(0.24044595,0,0,0.22101779,29.91402,49.1395)">
      <path
         style="fill:#864a0b;fill-opacity:1;stroke:none;stroke-width:0.111532px;stroke-linecap:butt;stroke-linejoin:miter;stroke-opacity:1"
         d="m 132.60409,181.55611 1.67706,-24.28185 c 0,0 -6.20347,-4.25791 -9.19397,-6.81358 -1.05057,-0.89781 -2.1669,-3.80255 -2.1669,-3.80255 0,0 8.31337,7.136 13.66661,7.30852 5.36886,1.4284 12.99198,-1.28106 12.99198,-1.28106 l 6.71258,0.0751 -19.53399,4.12635 -0.36672,6.42528 0.83186,5.10503 0.9655,7.20047 1.73174,6.2442 c -2.6815,-0.75351 -4.63538,-0.54998 -7.31474,-0.30458 l -7.4e-4,10e-4"
         id="path41292"
         sodipodi:nodetypes="ccsccccccccccc" />
      <path
         style="fill:#864a0b;fill-opacity:1;stroke:none;stroke-width:0.0584399px;stroke-linecap:butt;stroke-linejoin:miter;stroke-opacity:1"
         d="m 134.64876,158.64304 0.81064,-13.79177 c 0,0 -2.99858,-2.41843 -4.4441,-3.87002 -0.50782,-0.50994 -1.04742,-2.1598 -1.04742,-2.1598 0,0 4.01845,4.05316 6.60605,4.15115 2.59516,0.81131 6.51339,-0.66642 6.51339,-0.66642 l 3.01124,-0.0186 -9.44218,2.34372 -0.73417,3.58893 0.0232,2.77851 0.32159,4.27938 0.49046,4.00315 c -1.29616,-0.42798 -0.81313,-0.7769 -2.10826,-0.63751 l -3.6e-4,5.6e-4"
         id="path41292-6"
         sodipodi:nodetypes="ccsccccccccccc" />
      <path
         style="fill:#0a962c;fill-opacity:1;stroke:none;stroke-width:0.111532px;stroke-linecap:butt;stroke-linejoin:miter;stroke-opacity:1"
         d="m 128.39097,147.59108 c -0.75718,-1.62357 -0.6794,-4.2819 -2.15269,-4.94441 -1.80586,-0.81206 -3.50347,2.76784 -5.41696,2.43804 -1.80638,-0.31133 -2.51538,-3.72681 -4.33294,-3.92969 -2.20387,-0.246 -5.04154,1.13676 -5.92593,3.51701 -0.75113,2.02159 0.15902,4.8879 1.56112,6.3572 1.72458,1.80724 4.52912,1.45691 6.8404,1.36111 1.1581,-0.048 2.24363,-1.24242 3.37788,-0.96407 1.49392,0.36662 2.12023,3.11264 3.64165,3.25526 1.70545,0.15987 4.05981,-0.9111 4.52452,-2.84223 0.37986,-1.57854 -1.44594,-2.80921 -2.11705,-4.24822 z"
         id="path41294"
         sodipodi:nodetypes="sssssssssss" />
      <path
         style="fill:#0a962c;fill-opacity:1;stroke:none;stroke-width:0.0732169px;stroke-linecap:butt;stroke-linejoin:miter;stroke-opacity:1"
         d="m 147.77044,155.95931 c 1.09,0.40771 2.10769,1.63411 3.23027,1.30661 1.37597,-0.40142 0.93272,-2.72862 2.17851,-3.3922 1.17604,-0.62644 2.95451,0.60615 4.0937,-0.0737 1.38131,-0.82437 2.48029,-2.64879 2.04335,-4.09248 -0.37111,-1.22617 -2.04708,-2.12689 -3.45081,-2.19179 -1.7266,-0.0798 -3.21913,1.26705 -4.5263,2.29042 -0.65498,0.51278 -0.80929,1.50944 -1.58088,1.86559 -1.01626,0.46908 -2.4789,-0.49804 -3.4216,0.0833 -1.05673,0.65162 -1.99903,2.13107 -1.49736,3.19512 0.41007,0.86978 1.96504,0.64783 2.93112,1.00918 z"
         id="path41296"
         sodipodi:nodetypes="sssssssssss" />
      <path
         id="path41298"
         style="fill:#196d1f;fill-opacity:1;stroke:none;stroke-width:0.111532px;stroke-linecap:butt;stroke-linejoin:miter;stroke-opacity:1"
         d="m 159.25018,150.11698 c 0.0357,4.6e-4 0.0898,0.002 0.14945,0.005 0.14512,1.3621 -0.87484,2.9307 -2.12672,3.67783 -1.13919,0.67987 -2.9177,-0.5526 -4.09374,0.0738 -1.24579,0.66358 -0.80246,2.99071 -2.17842,3.39213 -1.12258,0.32751 -2.14022,-0.899 -3.23022,-1.3067 -0.7933,-0.29672 -1.98321,-0.20058 -2.61069,-0.63813 0.35486,-0.35743 0.78625,-0.72078 1.14051,-0.80138 1.49259,-0.33962 2.99692,1.96565 4.41779,1.331 0.90534,-0.40439 0.77374,-2.2782 1.62084,-2.8295 1.03075,-0.67083 2.41785,0.30178 3.53455,-0.14107 1.28387,-0.50916 3.31349,-2.76321 3.31349,-2.76321 0,0 0.0227,-4.5e-4 0.0632,0 z" />
      <path
         id="path41300"
         style="fill:#603508;fill-opacity:1;stroke:none;stroke-width:0.111532px;stroke-linecap:butt;stroke-linejoin:miter;stroke-opacity:1"
         d="m 128.9664,152.61922 -0.81524,0.25879 c 2.91673,2.18965 6.12995,4.39616 6.12995,4.39616 l -1.67697,24.28189 2.1e-4,0.003 8.1e-4,-10e-4 c 0.39545,-0.0362 1.45935,-0.0778 1.82787,-0.10922 0,0 -0.15488,-1.95477 -0.0258,-4.32614 0.16459,-3.02482 -0.0771,-6.75862 0.0394,-9.10578 0.11677,-2.35146 -0.30069,-4.3804 0.0222,-6.66345 0.21675,-1.53279 0.40778,-2.93334 0.49801,-4.60979 l 0.0324,-0.6027 -5.95053,-3.50844 z"
         sodipodi:nodetypes="cccccccssssccc" />
      <path
         id="path41302"
         style="fill:#196d1f;fill-opacity:1;stroke:none;stroke-width:0.111532px;stroke-linecap:butt;stroke-linejoin:miter;stroke-opacity:1"
         d="m 110.34229,145.56733 c 0.33163,0.26402 0.64921,0.5474 0.91663,0.75775 1.54169,1.21264 2.0233,3.94794 3.7005,4.88095 0.94421,0.52526 2.10977,0.40572 3.13246,0.15358 1.27969,-0.3155 2.22096,-2.18472 3.52168,-2.02693 1.96853,0.2388 2.70288,4.27135 4.68189,4.28222 1.38047,0.008 1.912,-2.84208 3.28935,-2.95122 0.27424,-0.0217 0.58779,0.0794 0.90718,0.24581 0.0781,0.29858 0.0938,0.60679 0.0161,0.92972 -0.46471,1.93113 -2.81915,3.00211 -4.5246,2.84224 -1.52141,-0.14263 -2.14765,-2.88846 -3.64156,-3.25508 -1.13426,-0.27835 -2.21976,0.91593 -3.37786,0.96393 -2.31127,0.0958 -5.11582,0.44628 -6.8404,-1.36096 -1.20532,-1.2631 -2.04602,-3.55826 -1.78136,-5.46201 z" />
      <path
         style="mix-blend-mode:normal;fill:#0ebb2e;fill-opacity:0.650947;stroke:none;stroke-width:0.0807087px;stroke-linecap:butt;stroke-linejoin:miter;stroke-opacity:1;filter:url(#filter39509)"
         d="m 10.0186,105.11291 c -1.2963858,0.51183 -2.4114577,1.81615 -3.8308296,1.61295 -1.7397558,-0.24906 -1.4561968,-2.56925 -3.0651837,-3.08803 -1.5189118,-0.48974 -3.57018165,0.89979 -5.0497325,0.354 -1.7940147,-0.6618 -3.3530518,-2.33018 -2.9776704,-3.78639 0.3188211,-1.23679 2.2812724,-2.291362 4.00266325,-2.500866 2.11731485,-0.257688 4.10719165,0.903096 5.83232245,1.767066 0.864402,0.4329 1.1667749,1.39074 2.1571388,1.65846 1.3043989,0.35261 2.9966477,-0.74464 4.2231037,-0.27472 1.374814,0.52677 2.702027,1.87438 2.204145,2.96635 -0.406978,0.89259 -2.346942,0.83754 -3.495957,1.29118 z"
         id="path41304"
         sodipodi:nodetypes="sssssssssss"
         transform="matrix(-0.38924286,0,0,0.45651194,156.11788,103.91673)" />
      <g
         id="g9548"
         transform="matrix(1.0220409,-0.60045173,0.48597261,1.0669746,-70.853755,99.727765)">
        <path
           style="fill:#0a962c;fill-opacity:1;stroke:none;stroke-width:0.0732169px;stroke-linecap:butt;stroke-linejoin:miter;stroke-opacity:1"
           d="m 149.67398,126.92142 c 1.09,0.40771 2.10769,1.63411 3.23027,1.30661 1.37597,-0.40142 0.93272,-2.72862 2.17851,-3.3922 1.17604,-0.62644 2.95451,0.60615 4.0937,-0.0737 1.38131,-0.82437 2.48029,-2.64879 2.04335,-4.09248 -0.37111,-1.22617 -2.04708,-2.12689 -3.45081,-2.19179 -1.7266,-0.0798 -3.21913,1.26705 -4.5263,2.29042 -0.65498,0.51278 -0.80929,1.50944 -1.58088,1.86559 -1.01626,0.46908 -2.4789,-0.49804 -3.4216,0.0833 -1.05673,0.65162 -1.99903,2.13107 -1.49736,3.19512 0.41007,0.86978 1.96504,0.64783 2.93112,1.00918 z"
           id="path41296-7"
           sodipodi:nodetypes="sssssssssss" />
        <path
           id="path41298-5"
           style="fill:#196d1f;fill-opacity:1;stroke:none;stroke-width:0.111532px;stroke-linecap:butt;stroke-linejoin:miter;stroke-opacity:1"
           d="m 161.15372,121.07909 c 0.0357,4.6e-4 0.0898,0.002 0.14945,0.005 0.14512,1.3621 -0.87484,2.9307 -2.12672,3.67783 -1.13919,0.67987 -2.9177,-0.5526 -4.09374,0.0738 -1.24579,0.66358 -0.80246,2.99071 -2.17842,3.39213 -1.12258,0.32751 -2.14022,-0.899 -3.23022,-1.3067 -0.7933,-0.29672 -1.98321,-0.20058 -2.61069,-0.63813 0.35486,-0.35743 0.78625,-0.72078 1.14051,-0.80138 1.49259,-0.33962 2.99692,1.96565 4.41779,1.331 0.90534,-0.40439 0.77374,-2.2782 1.62084,-2.8295 1.03075,-0.67083 2.41785,0.30178 3.53455,-0.14107 1.28387,-0.50916 3.31349,-2.76321 3.31349,-2.76321 0,0 0.0227,-4.5e-4 0.0632,0 z" />
        <path
           style="mix-blend-mode:normal;fill:#0ebb2e;fill-opacity:0.650947;stroke:none;stroke-width:0.0807087px;stroke-linecap:butt;stroke-linejoin:miter;stroke-opacity:1;filter:url(#filter39509-2)"
           d="m 10.0186,105.11291 c -1.2963858,0.51183 -2.4114577,1.81615 -3.8308296,1.61295 -1.7397558,-0.24906 -1.4561968,-2.56925 -3.0651837,-3.08803 -1.5189118,-0.48974 -3.57018165,0.89979 -5.0497325,0.354 -1.7940147,-0.6618 -3.3530518,-2.33018 -2.9776704,-3.78639 0.3188211,-1.23679 2.2812724,-2.291362 4.00266325,-2.500866 2.11731485,-0.257688 4.10719165,0.903096 5.83232245,1.767066 0.864402,0.4329 1.1667749,1.39074 2.1571388,1.65846 1.3043989,0.35261 2.9966477,-0.74464 4.2231037,-0.27472 1.374814,0.52677 2.702027,1.87438 2.204145,2.96635 -0.406978,0.89259 -2.346942,0.83754 -3.495957,1.29118 z"
           id="path41304-9"
           sodipodi:nodetypes="sssssssssss"
           transform="matrix(-0.38924286,0,0,0.45651194,158.02142,74.878842)" />
      </g>
      <path
         style="fill:#0ebb2e;fill-opacity:0.650947;stroke:none;stroke-width:0.0807087px;stroke-linecap:butt;stroke-linejoin:miter;stroke-opacity:1;filter:url(#filter39509)"
         d="m 105.66641,103.15129 c -1.29639,0.51184 -2.41146,1.81615 -3.83083,1.61295 -1.73976,-0.24905 -1.4562,-2.56925 -3.065185,-3.08803 -1.51892,-0.48974 -3.57019,0.89979 -5.049737,0.354 -1.794014,-0.66179 -3.353051,-2.330179 -2.97767,-3.786385 0.318821,-1.23679 2.281272,-2.291365 4.002663,-2.500869 2.117314,-0.257688 4.107194,0.9031 5.832319,1.767069 0.86441,0.432901 1.16678,1.39074 2.15714,1.658458 1.3044,0.352606 2.99666,-0.744645 4.22311,-0.274721 1.37482,0.526774 2.70203,1.874378 2.20415,2.966348 -0.40698,0.89259 -2.34694,0.83754 -3.49596,1.29118 z"
         id="path41306"
         sodipodi:nodetypes="sssssssssss"
         transform="matrix(-0.34088301,-0.20046783,-0.20657105,0.39979453,171.99088,126.29197)" />
      <path
         style="fill:#0ebb2e;fill-opacity:0.650947;stroke:none;stroke-width:0.0807087px;stroke-linecap:butt;stroke-linejoin:miter;stroke-opacity:1;filter:url(#filter39509)"
         d="m 105.66641,103.15129 c -1.29639,0.51184 -2.41146,1.81615 -3.83083,1.61295 -1.73976,-0.24905 -1.4562,-2.56925 -3.065185,-3.08803 -1.51892,-0.48974 -3.57019,0.89979 -5.049737,0.354 -1.794014,-0.66179 -3.353051,-2.330179 -2.97767,-3.786385 0.318821,-1.23679 2.281272,-2.291365 4.002663,-2.500869 2.117314,-0.257688 4.107194,0.9031 5.832319,1.767069 0.86441,0.432901 1.16678,1.39074 2.15714,1.658458 1.3044,0.352606 2.99666,-0.744645 4.22311,-0.274721 1.37482,0.526774 2.70203,1.874378 2.20415,2.966348 -0.40698,0.89259 -2.34694,0.83754 -3.49596,1.29118 z"
         id="path41308"
         sodipodi:nodetypes="sssssssssss"
         transform="matrix(-0.12075128,-0.3947765,-0.40679542,0.14161955,177.9869,173.93363)" />
      <g
         id="g9357"
         transform="matrix(0.71780636,0.48839191,-0.55115459,0.6454324,100.30576,-5.9262804)">
        <path
           style="fill:#0a962c;fill-opacity:1;stroke:none;stroke-width:0.111532px;stroke-linecap:butt;stroke-linejoin:miter;stroke-opacity:1"
           d="m 140.38931,122.4677 c -0.75718,-1.62357 -0.6794,-4.2819 -2.15269,-4.94441 -1.80586,-0.81206 -3.50347,2.76784 -5.41696,2.43804 -1.80638,-0.31133 -2.51538,-3.72681 -4.33294,-3.92969 -2.20387,-0.246 -5.04154,1.13676 -5.92593,3.51701 -0.75113,2.02159 0.15902,4.8879 1.56112,6.3572 1.72458,1.80724 4.52912,1.45691 6.8404,1.36111 1.1581,-0.048 2.24363,-1.24242 3.37788,-0.96407 1.49392,0.36662 2.12023,3.11264 3.64165,3.25526 1.70545,0.15987 4.05981,-0.9111 4.52452,-2.84223 0.37986,-1.57854 -1.44594,-2.80921 -2.11705,-4.24822 z"
           id="path41294-7"
           sodipodi:nodetypes="sssssssssss" />
        <path
           id="path41302-9"
           style="fill:#196d1f;fill-opacity:1;stroke:none;stroke-width:0.111532px;stroke-linecap:butt;stroke-linejoin:miter;stroke-opacity:1"
           d="m 122.34063,120.44395 c 0.33163,0.26402 0.64921,0.5474 0.91663,0.75775 1.54169,1.21264 2.0233,3.94794 3.7005,4.88095 0.94421,0.52526 2.10977,0.40572 3.13246,0.15358 1.27969,-0.3155 2.22096,-2.18472 3.52168,-2.02693 1.96853,0.2388 2.70288,4.27135 4.68189,4.28222 1.38047,0.008 1.912,-2.84208 3.28935,-2.95122 0.27424,-0.0217 0.58779,0.0794 0.90718,0.24581 0.0781,0.29858 0.0938,0.60679 0.0161,0.92972 -0.46471,1.93113 -2.81915,3.00211 -4.5246,2.84224 -1.52141,-0.14263 -2.14765,-2.88846 -3.64156,-3.25508 -1.13426,-0.27835 -2.21976,0.91593 -3.37786,0.96393 -2.31127,0.0958 -5.11582,0.44628 -6.8404,-1.36096 -1.20532,-1.2631 -2.04602,-3.55826 -1.78136,-5.46201 z" />
        <path
           style="fill:#0ebb2e;fill-opacity:0.650947;stroke:none;stroke-width:0.0807087px;stroke-linecap:butt;stroke-linejoin:miter;stroke-opacity:1;filter:url(#filter39509-1)"
           d="m 105.66641,103.15129 c -1.29639,0.51184 -2.41146,1.81615 -3.83083,1.61295 -1.73976,-0.24905 -1.4562,-2.56925 -3.065185,-3.08803 -1.51892,-0.48974 -3.57019,0.89979 -5.049737,0.354 -1.794014,-0.66179 -3.353051,-2.330179 -2.97767,-3.786385 0.318821,-1.23679 2.281272,-2.291365 4.002663,-2.500869 2.117314,-0.257688 4.107194,0.9031 5.832319,1.767069 0.86441,0.432901 1.16678,1.39074 2.15714,1.658458 1.3044,0.352606 2.99666,-0.744645 4.22311,-0.274721 1.37482,0.526774 2.70203,1.874378 2.20415,2.966348 -0.40698,0.89259 -2.34694,0.83754 -3.49596,1.29118 z"
           id="path41306-2"
           sodipodi:nodetypes="sssssssssss"
           transform="matrix(-0.34088301,-0.20046783,-0.20657105,0.39979453,183.98922,101.16859)" />
        <path
           style="fill:#0ebb2e;fill-opacity:0.650947;stroke:none;stroke-width:0.0807087px;stroke-linecap:butt;stroke-linejoin:miter;stroke-opacity:1;filter:url(#filter39509-1)"
           d="m 105.66641,103.15129 c -1.29639,0.51184 -2.41146,1.81615 -3.83083,1.61295 -1.73976,-0.24905 -1.4562,-2.56925 -3.065185,-3.08803 -1.51892,-0.48974 -3.57019,0.89979 -5.049737,0.354 -1.794014,-0.66179 -3.353051,-2.330179 -2.97767,-3.786385 0.318821,-1.23679 2.281272,-2.291365 4.002663,-2.500869 2.117314,-0.257688 4.107194,0.9031 5.832319,1.767069 0.86441,0.432901 1.16678,1.39074 2.15714,1.658458 1.3044,0.352606 2.99666,-0.744645 4.22311,-0.274721 1.37482,0.526774 2.70203,1.874378 2.20415,2.966348 -0.40698,0.89259 -2.34694,0.83754 -3.49596,1.29118 z"
           id="path41308-0"
           sodipodi:nodetypes="sssssssssss"
           transform="matrix(-0.12075128,-0.3947765,-0.40679542,0.14161955,189.98524,148.81025)" />
      </g>
    </g>
  </g>
</svg>
