<?xml version="1.0" encoding="UTF-8" standalone="no"?>
<svg
   xmlns:dc="http://purl.org/dc/elements/1.1/"
   xmlns:cc="http://creativecommons.org/ns#"
   xmlns:rdf="http://www.w3.org/1999/02/22-rdf-syntax-ns#"
   xmlns:svg="http://www.w3.org/2000/svg"
   xmlns="http://www.w3.org/2000/svg"
   xmlns:sodipodi="http://sodipodi.sourceforge.net/DTD/sodipodi-0.dtd"
   xmlns:inkscape="http://www.inkscape.org/namespaces/inkscape"
   id="svg13627"
   version="1.1"
   viewBox="0 0 155.71143 21.914942"
   height="21.914942mm"
   width="155.71143mm"
   sodipodi:docname="molodec.svg"
   inkscape:version="0.92.3 (2405546, 2018-03-11)">
  <sodipodi:namedview
     pagecolor="#ffffff"
     bordercolor="#666666"
     borderopacity="1"
     objecttolerance="10"
     gridtolerance="10"
     guidetolerance="10"
     inkscape:pageopacity="0"
     inkscape:pageshadow="2"
     inkscape:window-width="1600"
     inkscape:window-height="837"
     id="namedview14257"
     showgrid="false"
     inkscape:zoom="1.8262936"
     inkscape:cx="295.68656"
     inkscape:cy="3.5286094"
     inkscape:window-x="-8"
     inkscape:window-y="-8"
     inkscape:window-maximized="1"
     inkscape:current-layer="g10500" />
  <defs
     id="defs13621" />
  <metadata
     id="metadata13624">
    <rdf:RDF>
      <cc:Work
         rdf:about="">
        <dc:format>image/svg+xml</dc:format>
        <dc:type
           rdf:resource="http://purl.org/dc/dcmitype/StillImage" />
        <dc:title />
      </cc:Work>
    </rdf:RDF>
  </metadata>
  <g
     transform="translate(176.12953,14.826518)"
     id="layer1">
    <g
       transform="translate(-205.82366,-31.276446)"
       id="g10500">
      <g
         aria-label="Молодец!!!"
         transform="matrix(0.26458333,0,0,0.26458333,15.229385,-41.397114)"
         style="font-style:normal;font-weight:normal;font-size:40px;line-height:1.25;font-family:sans-serif;letter-spacing:0px;word-spacing:0px;fill:#ffcd03;fill-opacity:1;stroke:none;stroke-width:3;stroke-miterlimit:4;stroke-dasharray:none;stroke-dashoffset:0;stroke-opacity:1"
         id="flowRoot5305">
        <path
           sodipodi:type="inkscape:offset"
           inkscape:radius="0"
           inkscape:original="M 54.669922 218.63477 L 54.669922 288.43164 L 71.638672 288.43164 L 71.638672 241.69727 L 84.576172 272.02539 L 96.998047 272.02539 L 109.93555 241.69727 L 109.93555 288.43164 L 127.8418 288.43164 L 127.8418 218.63477 L 106.93555 218.63477 L 91.279297 253.65039 L 75.576172 218.63477 L 54.669922 218.63477 z M 546.3418 218.63477 L 548.49805 268.32227 L 563.7793 268.32227 L 565.93555 218.63477 L 546.3418 218.63477 z M 584.9668 218.63477 L 587.12305 268.32227 L 602.4043 268.32227 L 604.56055 218.63477 L 584.9668 218.63477 z M 623.5918 218.63477 L 625.74805 268.32227 L 641.0293 268.32227 L 643.18555 218.63477 L 623.5918 218.63477 z M 169.6543 234.15039 C 160.5918 234.15039 153.51368 236.63477 148.41992 241.60352 C 143.35742 246.57227 140.82617 253.41602 140.82617 262.13477 C 140.82617 270.79102 143.34179 277.61914 148.37305 282.61914 C 153.43555 287.58789 160.5293 290.07227 169.6543 290.07227 C 178.7793 290.07227 185.85743 287.58789 190.88867 282.61914 C 195.95117 277.61914 198.48242 270.79102 198.48242 262.13477 C 198.48242 253.47852 195.96679 246.65039 190.93555 241.65039 C 185.93555 236.65039 178.8418 234.15039 169.6543 234.15039 z M 303.7168 234.15039 C 294.6543 234.15039 287.57618 236.63477 282.48242 241.60352 C 277.41992 246.57227 274.88867 253.41602 274.88867 262.13477 C 274.88867 270.79102 277.40429 277.61914 282.43555 282.61914 C 287.49805 287.58789 294.5918 290.07227 303.7168 290.07227 C 312.8418 290.07227 319.91993 287.58789 324.95117 282.61914 C 330.01367 277.61914 332.54492 270.79102 332.54492 262.13477 C 332.54492 253.47852 330.02929 246.65039 324.99805 241.65039 C 319.99805 236.65039 312.9043 234.15039 303.7168 234.15039 z M 437.16992 234.15039 C 427.88868 234.15039 420.57618 236.69727 415.23242 241.79102 C 409.91992 246.85352 407.26367 253.72852 407.26367 262.41602 C 407.26367 271.19727 410.07617 277.96289 415.70117 282.71289 C 421.32617 287.46289 429.41992 289.83789 439.98242 289.83789 C 444.07618 289.83789 447.81055 289.49414 451.18555 288.80664 C 454.56055 288.11914 458.1543 287.00977 461.9668 285.47852 L 461.9668 271.93164 L 460.0918 271.93164 C 458.1543 273.40039 455.51368 274.77539 452.16992 276.05664 C 448.82618 277.33789 445.37305 277.97852 441.81055 277.97852 C 436.18555 277.97852 431.91993 276.88477 429.01367 274.69727 C 426.13867 272.50977 424.57617 269.35352 424.32617 265.22852 L 462.95117 265.22852 L 462.95117 259.32227 C 462.95117 251.19727 460.79492 244.97852 456.48242 240.66602 C 452.16992 236.32227 445.73242 234.15039 437.16992 234.15039 z M 217.04492 235.79102 C 216.95118 239.35352 216.8418 242.54102 216.7168 245.35352 C 216.5918 248.16602 216.4668 250.66602 216.3418 252.85352 C 216.0293 258.75977 215.51368 263.22852 214.79492 266.25977 C 214.10742 269.25977 212.71679 271.75977 210.62305 273.75977 C 210.06055 274.29102 209.3418 274.63477 208.4668 274.79102 C 207.62304 274.94727 206.79492 275.02539 205.98242 275.02539 C 205.66992 275.02539 205.35742 275.00978 205.04492 274.97852 C 204.73242 274.94725 204.51367 274.93164 204.38867 274.93164 L 203.87305 274.93164 L 203.87305 288.43164 C 204.15429 288.43164 205.04492 288.47852 206.54492 288.57227 C 208.04492 288.69727 209.52929 288.75977 210.99805 288.75977 C 212.87305 288.75977 214.81055 288.46289 216.81055 287.86914 C 218.84179 287.27539 220.48242 286.47852 221.73242 285.47852 C 222.82618 284.60352 223.9043 283.57227 224.9668 282.38477 C 226.06054 281.19727 227.07617 279.58789 228.01367 277.55664 C 228.98243 275.55664 229.7793 272.97852 230.4043 269.82227 C 231.0293 266.66602 231.45118 262.57227 231.66992 257.54102 C 231.73241 255.82227 231.77928 254.32227 231.81055 253.04102 C 231.87305 251.72852 231.95118 249.90039 232.04492 247.55664 L 245.9668 247.55664 L 245.9668 288.43164 L 262.8418 288.43164 L 262.8418 235.79102 L 217.04492 235.79102 z M 350.68555 235.79102 C 350.68555 243.82227 349.9668 251.41602 348.5293 258.57227 C 347.12304 265.69727 345.23242 271.72852 342.85742 276.66602 L 338.49805 276.66602 L 338.49805 301.46289 L 353.54492 301.46289 L 353.54492 288.24414 L 384.57617 288.24414 L 384.57617 301.46289 L 399.62305 301.46289 L 399.62305 276.66602 L 394.18555 276.66602 L 394.18555 235.79102 L 350.68555 235.79102 z M 474.85742 235.79102 L 474.85742 288.43164 L 518.31055 288.43164 L 518.31055 301.46289 L 533.35742 301.46289 L 533.35742 276.85352 L 527.91992 276.85352 L 527.91992 235.79102 L 511.04492 235.79102 L 511.04492 276.85352 L 491.73242 276.85352 L 491.73242 235.79102 L 474.85742 235.79102 z M 435.81055 244.69727 C 439.31055 244.69727 441.88868 245.58789 443.54492 247.36914 C 445.20118 249.15039 446.07618 251.80664 446.16992 255.33789 L 424.2793 255.33789 C 424.5293 251.61914 425.70118 248.91602 427.79492 247.22852 C 429.88868 245.54102 432.56055 244.69727 435.81055 244.69727 z M 169.6543 245.91602 C 171.2793 245.91602 172.79493 246.18164 174.20117 246.71289 C 175.60743 247.24414 176.81055 248.15039 177.81055 249.43164 C 178.81055 250.68164 179.5918 252.35352 180.1543 254.44727 C 180.7168 256.54102 180.99805 259.13477 180.99805 262.22852 C 180.99805 265.57227 180.7168 268.19727 180.1543 270.10352 C 179.62304 271.97852 178.81054 273.58789 177.7168 274.93164 C 176.74804 276.15039 175.56054 277.02539 174.1543 277.55664 C 172.7793 278.05664 171.32618 278.30664 169.79492 278.30664 C 168.01368 278.30664 166.41993 278.02539 165.01367 277.46289 C 163.63867 276.90039 162.45117 276.00977 161.45117 274.79102 C 160.41993 273.50977 159.63868 271.82227 159.10742 269.72852 C 158.57618 267.60352 158.31055 265.10352 158.31055 262.22852 C 158.31055 259.00977 158.60743 256.33789 159.20117 254.21289 C 159.82617 252.08789 160.65429 250.41602 161.68555 249.19727 C 162.84179 247.88477 164.04492 247.00977 165.29492 246.57227 C 166.57618 246.13477 168.0293 245.91602 169.6543 245.91602 z M 303.7168 245.91602 C 305.3418 245.91602 306.85743 246.18164 308.26367 246.71289 C 309.66993 247.24414 310.87305 248.15039 311.87305 249.43164 C 312.87305 250.68164 313.6543 252.35352 314.2168 254.44727 C 314.7793 256.54102 315.06055 259.13477 315.06055 262.22852 C 315.06055 265.57227 314.7793 268.19727 314.2168 270.10352 C 313.68554 271.97852 312.87304 273.58789 311.7793 274.93164 C 310.81054 276.15039 309.62304 277.02539 308.2168 277.55664 C 306.8418 278.05664 305.38868 278.30664 303.85742 278.30664 C 302.07618 278.30664 300.48243 278.02539 299.07617 277.46289 C 297.70117 276.90039 296.51367 276.00977 295.51367 274.79102 C 294.48243 273.50977 293.70118 271.82227 293.16992 269.72852 C 292.63868 267.60352 292.37305 265.10352 292.37305 262.22852 C 292.37305 259.00977 292.66993 256.33789 293.26367 254.21289 C 293.88867 252.08789 294.71679 250.41602 295.74805 249.19727 C 296.90429 247.88477 298.10742 247.00977 299.35742 246.57227 C 300.63868 246.13477 302.0918 245.91602 303.7168 245.91602 z M 365.82617 247.55664 L 377.4043 247.55664 L 377.4043 276.66602 L 358.56055 276.66602 C 360.34179 272.97852 361.85742 268.65039 363.10742 263.68164 C 364.38868 258.71289 365.29493 253.33789 365.82617 247.55664 z M 546.66992 276.05664 L 546.66992 288.43164 L 565.60742 288.43164 L 565.60742 276.05664 L 546.66992 276.05664 z M 585.29492 276.05664 L 585.29492 288.43164 L 604.23242 288.43164 L 604.23242 276.05664 L 585.29492 276.05664 z M 623.91992 276.05664 L 623.91992 288.43164 L 642.85742 288.43164 L 642.85742 276.05664 L 623.91992 276.05664 z "
           style="font-style:normal;font-variant:normal;font-weight:bold;font-stretch:normal;font-size:96px;font-family:sans-serif;-inkscape-font-specification:'sans-serif Bold';fill:#ffcd03;fill-opacity:1;stroke:none;stroke-width:3;stroke-miterlimit:4;stroke-dasharray:none;stroke-dashoffset:0;stroke-opacity:1"
           id="path14826"
           d="m 54.669922,218.63477 v 69.79687 h 16.96875 v -46.73437 l 12.9375,30.32812 h 12.421875 l 12.937503,-30.32812 v 46.73437 H 127.8418 V 218.63477 H 106.93555 L 91.279297,253.65039 75.576172,218.63477 Z m 491.671878,0 2.15625,49.6875 h 15.28125 l 2.15625,-49.6875 z m 38.625,0 2.15625,49.6875 h 15.28125 l 2.15625,-49.6875 z m 38.625,0 2.15625,49.6875 h 15.28125 l 2.15625,-49.6875 z m -453.9375,15.51562 c -9.0625,0 -16.14062,2.48438 -21.23438,7.45313 -5.0625,4.96875 -7.59375,11.8125 -7.59375,20.53125 0,8.65625 2.51562,15.48437 7.54688,20.48437 5.0625,4.96875 12.15625,7.45313 21.28125,7.45313 9.125,0 16.20313,-2.48438 21.23437,-7.45313 5.0625,-5 7.59375,-11.82812 7.59375,-20.48437 0,-8.65625 -2.51563,-15.48438 -7.54687,-20.48438 -5,-5 -12.09375,-7.5 -21.28125,-7.5 z m 134.0625,0 c -9.0625,0 -16.14062,2.48438 -21.23438,7.45313 -5.0625,4.96875 -7.59375,11.8125 -7.59375,20.53125 0,8.65625 2.51562,15.48437 7.54688,20.48437 5.0625,4.96875 12.15625,7.45313 21.28125,7.45313 9.125,0 16.20313,-2.48438 21.23437,-7.45313 5.0625,-5 7.59375,-11.82812 7.59375,-20.48437 0,-8.65625 -2.51563,-15.48438 -7.54687,-20.48438 -5,-5 -12.09375,-7.5 -21.28125,-7.5 z m 133.45312,0 c -9.28124,0 -16.59374,2.54688 -21.9375,7.64063 -5.3125,5.0625 -7.96875,11.9375 -7.96875,20.625 0,8.78125 2.8125,15.54687 8.4375,20.29687 5.625,4.75 13.71875,7.125 24.28125,7.125 4.09376,0 7.82813,-0.34375 11.20313,-1.03125 3.375,-0.6875 6.96875,-1.79687 10.78125,-3.32812 v -13.54688 h -1.875 c -1.9375,1.46875 -4.57812,2.84375 -7.92188,4.125 -3.34374,1.28125 -6.79687,1.92188 -10.35937,1.92188 -5.625,0 -9.89062,-1.09375 -12.79688,-3.28125 -2.875,-2.1875 -4.4375,-5.34375 -4.6875,-9.46875 h 38.625 v -5.90625 c 0,-8.125 -2.15625,-14.34375 -6.46875,-18.65625 -4.3125,-4.34375 -10.75,-6.51563 -19.3125,-6.51563 z m -220.125,1.64063 c -0.0937,3.5625 -0.20312,6.75 -0.32812,9.5625 -0.125,2.8125 -0.25,5.3125 -0.375,7.5 -0.3125,5.90625 -0.82812,10.375 -1.54688,13.40625 -0.6875,3 -2.07813,5.5 -4.17187,7.5 -0.5625,0.53125 -1.28125,0.875 -2.15625,1.03125 -0.84376,0.15625 -1.67188,0.23437 -2.48438,0.23437 -0.3125,0 -0.625,-0.0156 -0.9375,-0.0469 -0.3125,-0.0313 -0.53125,-0.0469 -0.65625,-0.0469 h -0.51562 v 13.5 c 0.28124,0 1.17187,0.0469 2.67187,0.14063 1.5,0.125 2.98437,0.1875 4.45313,0.1875 1.875,0 3.8125,-0.29688 5.8125,-0.89063 2.03124,-0.59375 3.67187,-1.39062 4.92187,-2.39062 1.09376,-0.875 2.17188,-1.90625 3.23438,-3.09375 1.09374,-1.1875 2.10937,-2.79688 3.04687,-4.82813 0.96876,-2 1.76563,-4.57812 2.39063,-7.73437 0.625,-3.15625 1.04688,-7.25 1.26562,-12.28125 0.0625,-1.71875 0.10936,-3.21875 0.14063,-4.5 0.0625,-1.3125 0.14063,-3.14063 0.23437,-5.48438 h 13.92188 v 40.875 h 16.875 v -52.64062 z m 133.64063,0 c 0,8.03125 -0.71875,15.625 -2.15625,22.78125 -1.40626,7.125 -3.29688,13.15625 -5.67188,18.09375 h -4.35937 v 24.79687 h 15.04687 v -13.21875 h 31.03125 v 13.21875 h 15.04688 v -24.79687 h -5.4375 v -40.875 z m 124.17187,0 v 52.64062 h 43.45313 v 13.03125 h 15.04687 v -24.60937 h -5.4375 v -41.0625 h -16.875 v 41.0625 h -19.3125 v -41.0625 z m -39.04687,8.90625 c 3.5,0 6.07813,0.89062 7.73437,2.67187 1.65626,1.78125 2.53126,4.4375 2.625,7.96875 H 424.2793 c 0.25,-3.71875 1.42188,-6.42187 3.51562,-8.10937 2.09376,-1.6875 4.76563,-2.53125 8.01563,-2.53125 z m -266.15625,1.21875 c 1.625,0 3.14063,0.26562 4.54687,0.79687 1.40626,0.53125 2.60938,1.4375 3.60938,2.71875 1,1.25 1.78125,2.92188 2.34375,5.01563 0.5625,2.09375 0.84375,4.6875 0.84375,7.78125 0,3.34375 -0.28125,5.96875 -0.84375,7.875 -0.53126,1.875 -1.34376,3.48437 -2.4375,4.82812 -0.96876,1.21875 -2.15626,2.09375 -3.5625,2.625 -1.375,0.5 -2.82812,0.75 -4.35938,0.75 -1.78124,0 -3.37499,-0.28125 -4.78125,-0.84375 -1.375,-0.5625 -2.5625,-1.45312 -3.5625,-2.67187 -1.03124,-1.28125 -1.81249,-2.96875 -2.34375,-5.0625 -0.53124,-2.125 -0.79687,-4.625 -0.79687,-7.5 0,-3.21875 0.29688,-5.89063 0.89062,-8.01563 0.625,-2.125 1.45312,-3.79687 2.48438,-5.01562 1.15624,-1.3125 2.35937,-2.1875 3.60937,-2.625 1.28126,-0.4375 2.73438,-0.65625 4.35938,-0.65625 z m 134.0625,0 c 1.625,0 3.14063,0.26562 4.54687,0.79687 1.40626,0.53125 2.60938,1.4375 3.60938,2.71875 1,1.25 1.78125,2.92188 2.34375,5.01563 0.5625,2.09375 0.84375,4.6875 0.84375,7.78125 0,3.34375 -0.28125,5.96875 -0.84375,7.875 -0.53126,1.875 -1.34376,3.48437 -2.4375,4.82812 -0.96876,1.21875 -2.15626,2.09375 -3.5625,2.625 -1.375,0.5 -2.82812,0.75 -4.35938,0.75 -1.78124,0 -3.37499,-0.28125 -4.78125,-0.84375 -1.375,-0.5625 -2.5625,-1.45312 -3.5625,-2.67187 -1.03124,-1.28125 -1.81249,-2.96875 -2.34375,-5.0625 -0.53124,-2.125 -0.79687,-4.625 -0.79687,-7.5 0,-3.21875 0.29688,-5.89063 0.89062,-8.01563 0.625,-2.125 1.45312,-3.79687 2.48438,-5.01562 1.15624,-1.3125 2.35937,-2.1875 3.60937,-2.625 1.28126,-0.4375 2.73438,-0.65625 4.35938,-0.65625 z m 62.10937,1.64062 h 11.57813 v 29.10938 h -18.84375 c 1.78124,-3.6875 3.29687,-8.01563 4.54687,-12.98438 1.28126,-4.96875 2.18751,-10.34375 2.71875,-16.125 z m 180.84375,28.5 v 12.375 h 18.9375 v -12.375 z m 38.625,0 v 12.375 h 18.9375 v -12.375 z m 38.625,0 v 12.375 h 18.9375 v -12.375 z" />
      </g>
      <path
         style="fill:#ffffff;fill-opacity:0.63888891;stroke:none;stroke-width:0.26458332px;stroke-linecap:butt;stroke-linejoin:miter;stroke-opacity:1"
         d="m 48.218933,17.838936 0.356738,16.112617 -0.535106,-0.297284 -0.47565,-15.696421 z"
         id="path10380" />
      <path
         style="fill:#ffffff;fill-opacity:0.63888891;stroke:none;stroke-width:0.22584911px;stroke-linecap:butt;stroke-linejoin:miter;stroke-opacity:1"
         d="M 84.003139,22.18412 83.889448,33.929253 83.363446,33.691387 83.346176,22.244503 Z"
         id="path10380-7" />
      <path
         style="fill:#ffffff;fill-opacity:0.63888891;stroke:none;stroke-width:0.22584911px;stroke-linecap:butt;stroke-linejoin:miter;stroke-opacity:1"
         d="m 118.64722,22.693655 0.35674,11.740265 -0.53511,-0.216612 -0.47565,-11.43701 z"
         id="path10380-7-3" />
      <path
         style="fill:#ffffff;fill-opacity:0.63888891;stroke:none;stroke-width:0.22584911px;stroke-linecap:butt;stroke-linejoin:miter;stroke-opacity:1"
         d="m 154.101,22.231596 -0.30724,11.741665 -0.52201,-0.246503 0.17137,-11.445614 z"
         id="path10380-7-9" />
      <path
         style="fill:#ffffff;fill-opacity:0.63888891;stroke:none;stroke-width:0.22584911px;stroke-linecap:butt;stroke-linejoin:miter;stroke-opacity:1"
         d="m 164.02072,17.362042 -0.47167,11.736209 -0.5185,-0.253789 0.33166,-11.442091 z"
         id="path10380-7-37" />
      <path
         style="fill:#ffffff;fill-opacity:0.63888891;stroke:none;stroke-width:0.22584911px;stroke-linecap:butt;stroke-linejoin:miter;stroke-opacity:1"
         d="m 174.38014,17.254909 -0.47167,11.736209 -0.5185,-0.253789 0.33166,-11.442091 z"
         id="path10380-7-37-2" />
      <path
         style="fill:#ffffff;fill-opacity:0.63888891;stroke:none;stroke-width:0.22584911px;stroke-linecap:butt;stroke-linejoin:miter;stroke-opacity:1"
         d="m 184.63836,17.170825 -0.47167,11.736209 -0.5185,-0.253789 0.33166,-11.442091 z"
         id="path10380-7-37-2-4" />
      <path
         style="fill:#f6f2e7;fill-opacity:0.68333333;stroke:none;stroke-width:0.26458332px;stroke-linecap:butt;stroke-linejoin:miter;stroke-opacity:1"
         d="m 100.06469,22.535972 2.25933,2.675526 -0.59456,0.951298 -2.73498,-3.091719 z"
         id="path10454" />
      <path
         style="fill:#f6f2e7;fill-opacity:0.68333333;stroke:none;stroke-width:0.26458332px;stroke-linecap:butt;stroke-linejoin:miter;stroke-opacity:1"
         d="m 134.43035,21.971139 2.25933,2.675526 -0.59456,0.951298 -2.73499,-3.091719 z"
         id="path10454-8" />
      <path
         style="fill:#f6f2e7;fill-opacity:0.68333333;stroke:none;stroke-width:0.26458332px;stroke-linecap:butt;stroke-linejoin:miter;stroke-opacity:1"
         d="m 64.450463,22.5657 2.25933,2.675526 -0.59456,0.951298 -2.734981,-3.091719 z"
         id="path10454-88" />
    </g>
  </g>
</svg>
