<?xml version="1.0" encoding="UTF-8" standalone="no"?>
<svg
   xmlns:dc="http://purl.org/dc/elements/1.1/"
   xmlns:cc="http://creativecommons.org/ns#"
   xmlns:rdf="http://www.w3.org/1999/02/22-rdf-syntax-ns#"
   xmlns:svg="http://www.w3.org/2000/svg"
   xmlns="http://www.w3.org/2000/svg"
   xmlns:sodipodi="http://sodipodi.sourceforge.net/DTD/sodipodi-0.dtd"
   xmlns:inkscape="http://www.inkscape.org/namespaces/inkscape"
   id="svg8"
   version="1.1"
   viewBox="0 0 18.520832 26.458334"
   height="26.458334mm"
   width="18.520832mm"
   sodipodi:docname="o-5.svg"
   inkscape:version="0.92.3 (2405546, 2018-03-11)">
  <sodipodi:namedview
     pagecolor="#ffffff"
     bordercolor="#666666"
     borderopacity="1"
     objecttolerance="10"
     gridtolerance="10"
     guidetolerance="10"
     inkscape:pageopacity="0"
     inkscape:pageshadow="2"
     inkscape:window-width="1600"
     inkscape:window-height="837"
     id="namedview6964"
     showgrid="false"
     inkscape:zoom="3.3375439"
     inkscape:cx="-4.3550083"
     inkscape:cy="22.898839"
     inkscape:window-x="-8"
     inkscape:window-y="-8"
     inkscape:window-maximized="1"
     inkscape:current-layer="svg8" />
  <defs
     id="defs2">
    <clipPath
       id="clipPath3270"
       clipPathUnits="userSpaceOnUse">
      <path
         inkscape:connector-curvature="0"
         id="path3272"
         sodipodi:nodetypes="csszzssccsszsssccs"
         style="opacity:0.32143004;fill:#fa03d1;fill-rule:evenodd"
         d="m 51.431,82.482 c 5.116,8.47 11.076,20.128 12.714,29.888 1.589,9.47 -3.953,25.81 -2.905,33.59 5.212,38.66 26.211,72.25 71.09,101.77 45.13,29.69 113.69,33.35 170.72,19.19 57.11,-14.17 112.83,-60.5 129.8,-107.07 2.87,-7.87 3.58,-13.12 4.63,-23.17 0.42,-4.03 3.15,-11.36 4.76,-16.52 -4.87,-4.43 -10.15,-7.84 -16.85,-9.72 -2.73,3.88 -9.82,8.81 -14.11,11.64 -4.56,3.01 -10.23,4.92 -15.3,6.96 -43.56,17.46 -67.35,47.02 -147.48,47.98 -80.12,0.96 -118.46,-38.63 -136.37,-54.04 -7.01,-6.03 -22.054,-12.87 -28.287,-19.7 -5.764,-6.318 -11.17,-16.634 -13.25,-24.928 -1.327,-5.293 1.029,-14.522 -0.834,-18.808 -7.024,4.897 -24.986,7.272 -28.667,8.438 -0.584,5.098 7.598,9.96 10.339,14.5 z" />
    </clipPath>
    <clipPath
       id="clipPath3266"
       clipPathUnits="userSpaceOnUse">
      <path
         inkscape:connector-curvature="0"
         id="path3268"
         sodipodi:nodetypes="csszzssccsszsssccs"
         style="opacity:0.32143004;fill:#fa03d1;fill-rule:evenodd"
         d="m 51.431,82.482 c 5.116,8.47 11.076,20.128 12.714,29.888 1.589,9.47 -3.953,25.81 -2.905,33.59 5.212,38.66 26.211,72.25 71.09,101.77 45.13,29.69 113.69,33.35 170.72,19.19 57.11,-14.17 112.83,-60.5 129.8,-107.07 2.87,-7.87 3.58,-13.12 4.63,-23.17 0.42,-4.03 3.15,-11.36 4.76,-16.52 -4.87,-4.43 -10.15,-7.84 -16.85,-9.72 -2.73,3.88 -9.82,8.81 -14.11,11.64 -4.56,3.01 -10.23,4.92 -15.3,6.96 -43.56,17.46 -67.35,47.02 -147.48,47.98 -80.12,0.96 -118.46,-38.63 -136.37,-54.04 -7.01,-6.03 -22.054,-12.87 -28.287,-19.7 -5.764,-6.318 -11.17,-16.634 -13.25,-24.928 -1.327,-5.293 1.029,-14.522 -0.834,-18.808 -7.024,4.897 -24.986,7.272 -28.667,8.438 -0.584,5.098 7.598,9.96 10.339,14.5 z" />
    </clipPath>
    <clipPath
       id="clipPath3367"
       clipPathUnits="userSpaceOnUse">
      <path
         inkscape:connector-curvature="0"
         id="path3369"
         sodipodi:nodetypes="csszzssccsszsssccs"
         style="opacity:0.59523998;fill:#0c59a7;fill-rule:evenodd"
         d="m 49.916,83.997 c 5.116,8.471 11.076,20.133 12.713,29.893 1.59,9.47 -3.952,25.8 -2.904,33.58 5.212,38.66 26.211,72.25 71.085,101.78 45.13,29.69 113.69,33.34 170.72,19.19 57.11,-14.18 112.84,-60.5 129.81,-107.08 2.86,-7.87 3.58,-13.12 4.63,-23.16 0.42,-4.03 3.14,-11.37 4.75,-16.52 -4.87,-4.43 -10.14,-7.85 -16.84,-9.73 -2.73,3.89 -9.82,8.81 -14.12,11.65 -4.56,3.01 -10.22,4.92 -15.3,6.95 -43.55,17.47 -67.35,47.03 -147.48,47.99 C 166.86,179.5 128.53,139.91 110.61,124.49 103.6,118.46 88.56,111.63 82.327,104.79 76.564,98.477 71.158,88.162 69.078,79.867 67.751,74.574 70.107,65.345 68.244,61.059 c -7.024,4.898 -24.986,7.273 -28.667,8.439 -0.585,5.097 7.597,9.959 10.339,14.499 z" />
    </clipPath>
    <clipPath
       id="clipPath3577"
       clipPathUnits="userSpaceOnUse">
      <path
         inkscape:connector-curvature="0"
         id="path3579"
         sodipodi:nodetypes="csszzssccsszsssccs"
         style="opacity:0.76586998;fill:#89e8ff;fill-rule:evenodd"
         d="m 51.431,82.482 c 5.116,8.47 11.076,20.128 12.714,29.888 1.589,9.47 -3.953,25.81 -2.905,33.59 5.212,38.66 26.211,72.25 71.09,101.77 45.13,29.69 113.69,33.35 170.72,19.19 57.11,-14.17 112.83,-60.5 129.8,-107.07 2.87,-7.87 3.58,-13.12 4.63,-23.17 0.42,-4.03 3.15,-11.36 4.76,-16.52 -4.87,-4.43 -10.15,-7.84 -16.85,-9.72 -2.73,3.88 -9.82,8.81 -14.11,11.64 -4.56,3.01 -10.23,4.92 -15.3,6.96 -43.56,17.46 -67.35,47.02 -147.48,47.98 -80.12,0.96 -118.46,-38.63 -136.37,-54.04 -7.01,-6.03 -22.054,-12.87 -28.287,-19.7 -5.764,-6.318 -11.17,-16.634 -13.25,-24.928 -1.327,-5.293 1.029,-14.522 -0.834,-18.808 -7.024,4.897 -24.986,7.272 -28.667,8.438 -0.584,5.098 7.598,9.96 10.339,14.5 z" />
    </clipPath>
    <clipPath
       id="clipPath3573"
       clipPathUnits="userSpaceOnUse">
      <path
         inkscape:connector-curvature="0"
         id="path3575"
         sodipodi:nodetypes="csszzssccsszsssccs"
         style="opacity:0.76586998;fill:#89e8ff;fill-rule:evenodd"
         d="m 51.431,82.482 c 5.116,8.47 11.076,20.128 12.714,29.888 1.589,9.47 -3.953,25.81 -2.905,33.59 5.212,38.66 26.211,72.25 71.09,101.77 45.13,29.69 113.69,33.35 170.72,19.19 57.11,-14.17 112.83,-60.5 129.8,-107.07 2.87,-7.87 3.58,-13.12 4.63,-23.17 0.42,-4.03 3.15,-11.36 4.76,-16.52 -4.87,-4.43 -10.15,-7.84 -16.85,-9.72 -2.73,3.88 -9.82,8.81 -14.11,11.64 -4.56,3.01 -10.23,4.92 -15.3,6.96 -43.56,17.46 -67.35,47.02 -147.48,47.98 -80.12,0.96 -118.46,-38.63 -136.37,-54.04 -7.01,-6.03 -22.054,-12.87 -28.287,-19.7 -5.764,-6.318 -11.17,-16.634 -13.25,-24.928 -1.327,-5.293 1.029,-14.522 -0.834,-18.808 -7.024,4.897 -24.986,7.272 -28.667,8.438 -0.584,5.098 7.598,9.96 10.339,14.5 z" />
    </clipPath>
    <clipPath
       id="clipPath3569"
       clipPathUnits="userSpaceOnUse">
      <path
         inkscape:connector-curvature="0"
         id="path3571"
         sodipodi:nodetypes="csszzssccsszsssccs"
         style="opacity:0.76586998;fill:#89e8ff;fill-rule:evenodd"
         d="m 51.431,82.482 c 5.116,8.47 11.076,20.128 12.714,29.888 1.589,9.47 -3.953,25.81 -2.905,33.59 5.212,38.66 26.211,72.25 71.09,101.77 45.13,29.69 113.69,33.35 170.72,19.19 57.11,-14.17 112.83,-60.5 129.8,-107.07 2.87,-7.87 3.58,-13.12 4.63,-23.17 0.42,-4.03 3.15,-11.36 4.76,-16.52 -4.87,-4.43 -10.15,-7.84 -16.85,-9.72 -2.73,3.88 -9.82,8.81 -14.11,11.64 -4.56,3.01 -10.23,4.92 -15.3,6.96 -43.56,17.46 -67.35,47.02 -147.48,47.98 -80.12,0.96 -118.46,-38.63 -136.37,-54.04 -7.01,-6.03 -22.054,-12.87 -28.287,-19.7 -5.764,-6.318 -11.17,-16.634 -13.25,-24.928 -1.327,-5.293 1.029,-14.522 -0.834,-18.808 -7.024,4.897 -24.986,7.272 -28.667,8.438 -0.584,5.098 7.598,9.96 10.339,14.5 z" />
    </clipPath>
    <clipPath
       id="clipPath3565"
       clipPathUnits="userSpaceOnUse">
      <path
         inkscape:connector-curvature="0"
         id="path3567"
         sodipodi:nodetypes="csszzssccsszsssccs"
         style="opacity:0.76586998;fill:#89e8ff;fill-rule:evenodd"
         d="m 51.431,82.482 c 5.116,8.47 11.076,20.128 12.714,29.888 1.589,9.47 -3.953,25.81 -2.905,33.59 5.212,38.66 26.211,72.25 71.09,101.77 45.13,29.69 113.69,33.35 170.72,19.19 57.11,-14.17 112.83,-60.5 129.8,-107.07 2.87,-7.87 3.58,-13.12 4.63,-23.17 0.42,-4.03 3.15,-11.36 4.76,-16.52 -4.87,-4.43 -10.15,-7.84 -16.85,-9.72 -2.73,3.88 -9.82,8.81 -14.11,11.64 -4.56,3.01 -10.23,4.92 -15.3,6.96 -43.56,17.46 -67.35,47.02 -147.48,47.98 -80.12,0.96 -118.46,-38.63 -136.37,-54.04 -7.01,-6.03 -22.054,-12.87 -28.287,-19.7 -5.764,-6.318 -11.17,-16.634 -13.25,-24.928 -1.327,-5.293 1.029,-14.522 -0.834,-18.808 -7.024,4.897 -24.986,7.272 -28.667,8.438 -0.584,5.098 7.598,9.96 10.339,14.5 z" />
    </clipPath>
    <clipPath
       id="clipPath3561"
       clipPathUnits="userSpaceOnUse">
      <path
         inkscape:connector-curvature="0"
         id="path3563"
         sodipodi:nodetypes="csszzssccsszsssccs"
         style="opacity:0.76586998;fill:#89e8ff;fill-rule:evenodd"
         d="m 344.49,151.68 c -6.77,8.47 -14.65,20.13 -16.81,29.89 -2.11,9.47 5.22,25.8 3.84,33.58 -6.9,38.66 -34.66,72.25 -94,101.78 -59.67,29.69 -150.32,33.34 -225.72,19.19 -75.512,-14.18 -149.19,-60.5 -171.63,-107.08 -3.79,-7.87 -4.74,-13.12 -6.12,-23.16 -0.56,-4.03 -4.16,-11.37 -6.29,-16.52 6.44,-4.43 13.41,-7.85 22.27,-9.73 3.61,3.89 12.98,8.82 18.66,11.65 6.03,3.01 13.53,4.92 20.23,6.95 57.594,17.47 89.057,47.03 195,47.99 105.943,0.96 156.63,-38.63 180.31,-54.05 9.27,-6.03 29.16,-12.86 37.4,-19.7 7.62,-6.31 14.77,-16.63 17.52,-24.92 1.75,-5.3 -1.36,-14.52 1.1,-18.81 9.29,4.9 33.04,7.27 37.91,8.44 0.77,5.09 -10.05,9.96 -13.67,14.5 z" />
    </clipPath>
    <linearGradient
       id="linearGradient3399">
      <stop
         id="stop3401"
         style="stop-color:#9b9502"
         offset="0" />
      <stop
         id="stop3443"
         style="stop-color:#9b9502"
         offset=".5" />
      <stop
         id="stop3403"
         style="stop-color:#99712d"
         offset="1" />
    </linearGradient>
    <clipPath
       id="clipPath3593"
       clipPathUnits="userSpaceOnUse">
      <path
         inkscape:connector-curvature="0"
         id="path3595"
         sodipodi:nodetypes="csszzssccsszsssccs"
         style="opacity:0.76586998;fill:#89e8ff;fill-rule:evenodd"
         d="m 51.431,82.482 c 5.116,8.47 11.076,20.128 12.714,29.888 1.589,9.47 -3.953,25.81 -2.905,33.59 5.212,38.66 26.211,72.25 71.09,101.77 45.13,29.69 113.69,33.35 170.72,19.19 57.11,-14.17 112.83,-60.5 129.8,-107.07 2.87,-7.87 3.58,-13.12 4.63,-23.17 0.42,-4.03 3.15,-11.36 4.76,-16.52 -4.87,-4.43 -10.15,-7.84 -16.85,-9.72 -2.73,3.88 -9.82,8.81 -14.11,11.64 -4.56,3.01 -10.23,4.92 -15.3,6.96 -43.56,17.46 -67.35,47.02 -147.48,47.98 -80.12,0.96 -118.46,-38.63 -136.37,-54.04 -7.01,-6.03 -22.054,-12.87 -28.287,-19.7 -5.764,-6.318 -11.17,-16.634 -13.25,-24.928 -1.327,-5.293 1.029,-14.522 -0.834,-18.808 -7.024,4.897 -24.986,7.272 -28.667,8.438 -0.584,5.098 7.598,9.96 10.339,14.5 z" />
    </clipPath>
    <clipPath
       id="clipPath3589"
       clipPathUnits="userSpaceOnUse">
      <path
         inkscape:connector-curvature="0"
         id="path3591"
         sodipodi:nodetypes="csszzssccsszsssccs"
         style="opacity:0.76586998;fill:#89e8ff;fill-rule:evenodd"
         d="m 51.431,82.482 c 5.116,8.47 11.076,20.128 12.714,29.888 1.589,9.47 -3.953,25.81 -2.905,33.59 5.212,38.66 26.211,72.25 71.09,101.77 45.13,29.69 113.69,33.35 170.72,19.19 57.11,-14.17 112.83,-60.5 129.8,-107.07 2.87,-7.87 3.58,-13.12 4.63,-23.17 0.42,-4.03 3.15,-11.36 4.76,-16.52 -4.87,-4.43 -10.15,-7.84 -16.85,-9.72 -2.73,3.88 -9.82,8.81 -14.11,11.64 -4.56,3.01 -10.23,4.92 -15.3,6.96 -43.56,17.46 -67.35,47.02 -147.48,47.98 -80.12,0.96 -118.46,-38.63 -136.37,-54.04 -7.01,-6.03 -22.054,-12.87 -28.287,-19.7 -5.764,-6.318 -11.17,-16.634 -13.25,-24.928 -1.327,-5.293 1.029,-14.522 -0.834,-18.808 -7.024,4.897 -24.986,7.272 -28.667,8.438 -0.584,5.098 7.598,9.96 10.339,14.5 z" />
    </clipPath>
    <clipPath
       id="clipPath3585"
       clipPathUnits="userSpaceOnUse">
      <path
         inkscape:connector-curvature="0"
         id="path3587"
         sodipodi:nodetypes="csszzssccsszsssccs"
         style="opacity:0.76586998;fill:#89e8ff;fill-rule:evenodd"
         d="m 51.431,82.482 c 5.116,8.47 11.076,20.128 12.714,29.888 1.589,9.47 -3.953,25.81 -2.905,33.59 5.212,38.66 26.211,72.25 71.09,101.77 45.13,29.69 113.69,33.35 170.72,19.19 57.11,-14.17 112.83,-60.5 129.8,-107.07 2.87,-7.87 3.58,-13.12 4.63,-23.17 0.42,-4.03 3.15,-11.36 4.76,-16.52 -4.87,-4.43 -10.15,-7.84 -16.85,-9.72 -2.73,3.88 -9.82,8.81 -14.11,11.64 -4.56,3.01 -10.23,4.92 -15.3,6.96 -43.56,17.46 -67.35,47.02 -147.48,47.98 -80.12,0.96 -118.46,-38.63 -136.37,-54.04 -7.01,-6.03 -22.054,-12.87 -28.287,-19.7 -5.764,-6.318 -11.17,-16.634 -13.25,-24.928 -1.327,-5.293 1.029,-14.522 -0.834,-18.808 -7.024,4.897 -24.986,7.272 -28.667,8.438 -0.584,5.098 7.598,9.96 10.339,14.5 z" />
    </clipPath>
    <clipPath
       id="clipPath3581"
       clipPathUnits="userSpaceOnUse">
      <path
         inkscape:connector-curvature="0"
         id="path3583"
         sodipodi:nodetypes="csszzssccsszsssccs"
         style="opacity:0.76586998;fill:#89e8ff;fill-rule:evenodd"
         d="m 51.431,82.482 c 5.116,8.47 11.076,20.128 12.714,29.888 1.589,9.47 -3.953,25.81 -2.905,33.59 5.212,38.66 26.211,72.25 71.09,101.77 45.13,29.69 113.69,33.35 170.72,19.19 57.11,-14.17 112.83,-60.5 129.8,-107.07 2.87,-7.87 3.58,-13.12 4.63,-23.17 0.42,-4.03 3.15,-11.36 4.76,-16.52 -4.87,-4.43 -10.15,-7.84 -16.85,-9.72 -2.73,3.88 -9.82,8.81 -14.11,11.64 -4.56,3.01 -10.23,4.92 -15.3,6.96 -43.56,17.46 -67.35,47.02 -147.48,47.98 -80.12,0.96 -118.46,-38.63 -136.37,-54.04 -7.01,-6.03 -22.054,-12.87 -28.287,-19.7 -5.764,-6.318 -11.17,-16.634 -13.25,-24.928 -1.327,-5.293 1.029,-14.522 -0.834,-18.808 -7.024,4.897 -24.986,7.272 -28.667,8.438 -0.584,5.098 7.598,9.96 10.339,14.5 z" />
    </clipPath>
    <clipPath
       id="clipPath235"
       clipPathUnits="userSpaceOnUse">
      <path
         inkscape:connector-curvature="0"
         id="path233"
         sodipodi:nodetypes="csszzssccsszsssccs"
         style="opacity:0.76586998;fill:#89e8ff;fill-rule:evenodd"
         d="m 51.431,82.482 c 5.116,8.47 11.076,20.128 12.714,29.888 1.589,9.47 -3.953,25.81 -2.905,33.59 5.212,38.66 26.211,72.25 71.09,101.77 45.13,29.69 113.69,33.35 170.72,19.19 57.11,-14.17 112.83,-60.5 129.8,-107.07 2.87,-7.87 3.58,-13.12 4.63,-23.17 0.42,-4.03 3.15,-11.36 4.76,-16.52 -4.87,-4.43 -10.15,-7.84 -16.85,-9.72 -2.73,3.88 -9.82,8.81 -14.11,11.64 -4.56,3.01 -10.23,4.92 -15.3,6.96 -43.56,17.46 -67.35,47.02 -147.48,47.98 -80.12,0.96 -118.46,-38.63 -136.37,-54.04 -7.01,-6.03 -22.054,-12.87 -28.287,-19.7 -5.764,-6.318 -11.17,-16.634 -13.25,-24.928 -1.327,-5.293 1.029,-14.522 -0.834,-18.808 -7.024,4.897 -24.986,7.272 -28.667,8.438 -0.584,5.098 7.598,9.96 10.339,14.5 z" />
    </clipPath>
  </defs>
  <metadata
     id="metadata5">
    <rdf:RDF>
      <cc:Work
         rdf:about="">
        <dc:format>image/svg+xml</dc:format>
        <dc:type
           rdf:resource="http://purl.org/dc/dcmitype/StillImage" />
        <dc:title></dc:title>
      </cc:Work>
    </rdf:RDF>
  </metadata>
  <g
     transform="translate(-30.204145,-27.056441)"
     id="layer1"
     style="fill:#ffffff">
    <rect
       style="fill:#ffffff;stroke:#000000;stroke-width:0.24614717;stroke-linejoin:round;stroke-miterlimit:4;stroke-dasharray:none;stroke-opacity:1"
       y="27.179514"
       x="30.327219"
       height="26.212187"
       width="18.274685"
       id="rect3713" />
  </g>
  <g
     id="g7891"
     transform="translate(1.0583334,0.52916672)">
    <path
       sodipodi:nodetypes="ccc"
       inkscape:connector-curvature="0"
       id="path7866"
       d="M 11.048458,9.0902135 C 4.7499326,0.43987166 0.10588295,15.050647 4.0592602,18.133457 10.305641,23.34831 14.273689,16.125883 11.048458,9.0902135 Z"
       style="fill:#82199e;fill-opacity:0.95959598;stroke:none;stroke-width:0.300327px;stroke-linecap:butt;stroke-linejoin:miter;stroke-opacity:1" />
    <path
       sodipodi:nodetypes="ccc"
       inkscape:connector-curvature="0"
       id="path7866-8"
       d="M 12.731694,9.0935214 C 6.4331684,0.69667509 1.7891188,14.879286 5.742496,17.871755 c 6.246381,5.062033 10.214428,-1.948742 6.989198,-8.7782336 z"
       style="fill:#82199e;fill-opacity:0.42929293;stroke:none;stroke-width:0.29589379px;stroke-linecap:butt;stroke-linejoin:miter;stroke-opacity:1" />
    <path
       inkscape:connector-curvature="0"
       id="path7883"
       d="M 8.2981034,7.4462475 10.35925,2.4122936 9.0512145,2.451931 7.8224543,7.1687853 Z"
       style="fill:#6e3e3e;fill-opacity:1;stroke:none;stroke-width:0.26458335px;stroke-linecap:butt;stroke-linejoin:miter;stroke-opacity:1" />
    <path
       sodipodi:nodetypes="ccc"
       inkscape:connector-curvature="0"
       id="path7885"
       d="M 9.2983221,9.5140064 C 10.248916,11.635927 10.086135,14.160645 10.173037,16.595033 10.58728,12.376497 11.735814,12.527516 9.2983221,9.5140064 Z"
       style="fill:#ffffff;fill-opacity:0.5;stroke:none;stroke-width:0.26458335px;stroke-linecap:butt;stroke-linejoin:miter;stroke-opacity:1" />
  </g>
</svg>
