<?xml version="1.0" encoding="UTF-8" standalone="no"?>
<svg
   xmlns:dc="http://purl.org/dc/elements/1.1/"
   xmlns:cc="http://creativecommons.org/ns#"
   xmlns:rdf="http://www.w3.org/1999/02/22-rdf-syntax-ns#"
   xmlns:svg="http://www.w3.org/2000/svg"
   xmlns="http://www.w3.org/2000/svg"
   xmlns:xlink="http://www.w3.org/1999/xlink"
   xmlns:sodipodi="http://sodipodi.sourceforge.net/DTD/sodipodi-0.dtd"
   xmlns:inkscape="http://www.inkscape.org/namespaces/inkscape"
   id="svg8"
   version="1.1"
   viewBox="0 0 18.520832 26.458334"
   height="26.458334mm"
   width="18.520832mm"
   sodipodi:docname="o-7.svg"
   inkscape:version="0.92.3 (2405546, 2018-03-11)">
  <sodipodi:namedview
     pagecolor="#ffffff"
     bordercolor="#666666"
     borderopacity="1"
     objecttolerance="10"
     gridtolerance="10"
     guidetolerance="10"
     inkscape:pageopacity="0"
     inkscape:pageshadow="2"
     inkscape:window-width="1600"
     inkscape:window-height="837"
     id="namedview6964"
     showgrid="false"
     inkscape:zoom="1.668772"
     inkscape:cx="-116.03166"
     inkscape:cy="112.30291"
     inkscape:window-x="-8"
     inkscape:window-y="-8"
     inkscape:window-maximized="1"
     inkscape:current-layer="svg8" />
  <defs
     id="defs2">
    <clipPath
       id="clipPath3270"
       clipPathUnits="userSpaceOnUse">
      <path
         inkscape:connector-curvature="0"
         id="path3272"
         sodipodi:nodetypes="csszzssccsszsssccs"
         style="opacity:0.32143004;fill:#fa03d1;fill-rule:evenodd"
         d="m 51.431,82.482 c 5.116,8.47 11.076,20.128 12.714,29.888 1.589,9.47 -3.953,25.81 -2.905,33.59 5.212,38.66 26.211,72.25 71.09,101.77 45.13,29.69 113.69,33.35 170.72,19.19 57.11,-14.17 112.83,-60.5 129.8,-107.07 2.87,-7.87 3.58,-13.12 4.63,-23.17 0.42,-4.03 3.15,-11.36 4.76,-16.52 -4.87,-4.43 -10.15,-7.84 -16.85,-9.72 -2.73,3.88 -9.82,8.81 -14.11,11.64 -4.56,3.01 -10.23,4.92 -15.3,6.96 -43.56,17.46 -67.35,47.02 -147.48,47.98 -80.12,0.96 -118.46,-38.63 -136.37,-54.04 -7.01,-6.03 -22.054,-12.87 -28.287,-19.7 -5.764,-6.318 -11.17,-16.634 -13.25,-24.928 -1.327,-5.293 1.029,-14.522 -0.834,-18.808 -7.024,4.897 -24.986,7.272 -28.667,8.438 -0.584,5.098 7.598,9.96 10.339,14.5 z" />
    </clipPath>
    <clipPath
       id="clipPath3266"
       clipPathUnits="userSpaceOnUse">
      <path
         inkscape:connector-curvature="0"
         id="path3268"
         sodipodi:nodetypes="csszzssccsszsssccs"
         style="opacity:0.32143004;fill:#fa03d1;fill-rule:evenodd"
         d="m 51.431,82.482 c 5.116,8.47 11.076,20.128 12.714,29.888 1.589,9.47 -3.953,25.81 -2.905,33.59 5.212,38.66 26.211,72.25 71.09,101.77 45.13,29.69 113.69,33.35 170.72,19.19 57.11,-14.17 112.83,-60.5 129.8,-107.07 2.87,-7.87 3.58,-13.12 4.63,-23.17 0.42,-4.03 3.15,-11.36 4.76,-16.52 -4.87,-4.43 -10.15,-7.84 -16.85,-9.72 -2.73,3.88 -9.82,8.81 -14.11,11.64 -4.56,3.01 -10.23,4.92 -15.3,6.96 -43.56,17.46 -67.35,47.02 -147.48,47.98 -80.12,0.96 -118.46,-38.63 -136.37,-54.04 -7.01,-6.03 -22.054,-12.87 -28.287,-19.7 -5.764,-6.318 -11.17,-16.634 -13.25,-24.928 -1.327,-5.293 1.029,-14.522 -0.834,-18.808 -7.024,4.897 -24.986,7.272 -28.667,8.438 -0.584,5.098 7.598,9.96 10.339,14.5 z" />
    </clipPath>
    <clipPath
       id="clipPath3367"
       clipPathUnits="userSpaceOnUse">
      <path
         inkscape:connector-curvature="0"
         id="path3369"
         sodipodi:nodetypes="csszzssccsszsssccs"
         style="opacity:0.59523998;fill:#0c59a7;fill-rule:evenodd"
         d="m 49.916,83.997 c 5.116,8.471 11.076,20.133 12.713,29.893 1.59,9.47 -3.952,25.8 -2.904,33.58 5.212,38.66 26.211,72.25 71.085,101.78 45.13,29.69 113.69,33.34 170.72,19.19 57.11,-14.18 112.84,-60.5 129.81,-107.08 2.86,-7.87 3.58,-13.12 4.63,-23.16 0.42,-4.03 3.14,-11.37 4.75,-16.52 -4.87,-4.43 -10.14,-7.85 -16.84,-9.73 -2.73,3.89 -9.82,8.81 -14.12,11.65 -4.56,3.01 -10.22,4.92 -15.3,6.95 -43.55,17.47 -67.35,47.03 -147.48,47.99 C 166.86,179.5 128.53,139.91 110.61,124.49 103.6,118.46 88.56,111.63 82.327,104.79 76.564,98.477 71.158,88.162 69.078,79.867 67.751,74.574 70.107,65.345 68.244,61.059 c -7.024,4.898 -24.986,7.273 -28.667,8.439 -0.585,5.097 7.597,9.959 10.339,14.499 z" />
    </clipPath>
    <clipPath
       id="clipPath3577"
       clipPathUnits="userSpaceOnUse">
      <path
         inkscape:connector-curvature="0"
         id="path3579"
         sodipodi:nodetypes="csszzssccsszsssccs"
         style="opacity:0.76586998;fill:#89e8ff;fill-rule:evenodd"
         d="m 51.431,82.482 c 5.116,8.47 11.076,20.128 12.714,29.888 1.589,9.47 -3.953,25.81 -2.905,33.59 5.212,38.66 26.211,72.25 71.09,101.77 45.13,29.69 113.69,33.35 170.72,19.19 57.11,-14.17 112.83,-60.5 129.8,-107.07 2.87,-7.87 3.58,-13.12 4.63,-23.17 0.42,-4.03 3.15,-11.36 4.76,-16.52 -4.87,-4.43 -10.15,-7.84 -16.85,-9.72 -2.73,3.88 -9.82,8.81 -14.11,11.64 -4.56,3.01 -10.23,4.92 -15.3,6.96 -43.56,17.46 -67.35,47.02 -147.48,47.98 -80.12,0.96 -118.46,-38.63 -136.37,-54.04 -7.01,-6.03 -22.054,-12.87 -28.287,-19.7 -5.764,-6.318 -11.17,-16.634 -13.25,-24.928 -1.327,-5.293 1.029,-14.522 -0.834,-18.808 -7.024,4.897 -24.986,7.272 -28.667,8.438 -0.584,5.098 7.598,9.96 10.339,14.5 z" />
    </clipPath>
    <clipPath
       id="clipPath3573"
       clipPathUnits="userSpaceOnUse">
      <path
         inkscape:connector-curvature="0"
         id="path3575"
         sodipodi:nodetypes="csszzssccsszsssccs"
         style="opacity:0.76586998;fill:#89e8ff;fill-rule:evenodd"
         d="m 51.431,82.482 c 5.116,8.47 11.076,20.128 12.714,29.888 1.589,9.47 -3.953,25.81 -2.905,33.59 5.212,38.66 26.211,72.25 71.09,101.77 45.13,29.69 113.69,33.35 170.72,19.19 57.11,-14.17 112.83,-60.5 129.8,-107.07 2.87,-7.87 3.58,-13.12 4.63,-23.17 0.42,-4.03 3.15,-11.36 4.76,-16.52 -4.87,-4.43 -10.15,-7.84 -16.85,-9.72 -2.73,3.88 -9.82,8.81 -14.11,11.64 -4.56,3.01 -10.23,4.92 -15.3,6.96 -43.56,17.46 -67.35,47.02 -147.48,47.98 -80.12,0.96 -118.46,-38.63 -136.37,-54.04 -7.01,-6.03 -22.054,-12.87 -28.287,-19.7 -5.764,-6.318 -11.17,-16.634 -13.25,-24.928 -1.327,-5.293 1.029,-14.522 -0.834,-18.808 -7.024,4.897 -24.986,7.272 -28.667,8.438 -0.584,5.098 7.598,9.96 10.339,14.5 z" />
    </clipPath>
    <clipPath
       id="clipPath3569"
       clipPathUnits="userSpaceOnUse">
      <path
         inkscape:connector-curvature="0"
         id="path3571"
         sodipodi:nodetypes="csszzssccsszsssccs"
         style="opacity:0.76586998;fill:#89e8ff;fill-rule:evenodd"
         d="m 51.431,82.482 c 5.116,8.47 11.076,20.128 12.714,29.888 1.589,9.47 -3.953,25.81 -2.905,33.59 5.212,38.66 26.211,72.25 71.09,101.77 45.13,29.69 113.69,33.35 170.72,19.19 57.11,-14.17 112.83,-60.5 129.8,-107.07 2.87,-7.87 3.58,-13.12 4.63,-23.17 0.42,-4.03 3.15,-11.36 4.76,-16.52 -4.87,-4.43 -10.15,-7.84 -16.85,-9.72 -2.73,3.88 -9.82,8.81 -14.11,11.64 -4.56,3.01 -10.23,4.92 -15.3,6.96 -43.56,17.46 -67.35,47.02 -147.48,47.98 -80.12,0.96 -118.46,-38.63 -136.37,-54.04 -7.01,-6.03 -22.054,-12.87 -28.287,-19.7 -5.764,-6.318 -11.17,-16.634 -13.25,-24.928 -1.327,-5.293 1.029,-14.522 -0.834,-18.808 -7.024,4.897 -24.986,7.272 -28.667,8.438 -0.584,5.098 7.598,9.96 10.339,14.5 z" />
    </clipPath>
    <clipPath
       id="clipPath3565"
       clipPathUnits="userSpaceOnUse">
      <path
         inkscape:connector-curvature="0"
         id="path3567"
         sodipodi:nodetypes="csszzssccsszsssccs"
         style="opacity:0.76586998;fill:#89e8ff;fill-rule:evenodd"
         d="m 51.431,82.482 c 5.116,8.47 11.076,20.128 12.714,29.888 1.589,9.47 -3.953,25.81 -2.905,33.59 5.212,38.66 26.211,72.25 71.09,101.77 45.13,29.69 113.69,33.35 170.72,19.19 57.11,-14.17 112.83,-60.5 129.8,-107.07 2.87,-7.87 3.58,-13.12 4.63,-23.17 0.42,-4.03 3.15,-11.36 4.76,-16.52 -4.87,-4.43 -10.15,-7.84 -16.85,-9.72 -2.73,3.88 -9.82,8.81 -14.11,11.64 -4.56,3.01 -10.23,4.92 -15.3,6.96 -43.56,17.46 -67.35,47.02 -147.48,47.98 -80.12,0.96 -118.46,-38.63 -136.37,-54.04 -7.01,-6.03 -22.054,-12.87 -28.287,-19.7 -5.764,-6.318 -11.17,-16.634 -13.25,-24.928 -1.327,-5.293 1.029,-14.522 -0.834,-18.808 -7.024,4.897 -24.986,7.272 -28.667,8.438 -0.584,5.098 7.598,9.96 10.339,14.5 z" />
    </clipPath>
    <clipPath
       id="clipPath3561"
       clipPathUnits="userSpaceOnUse">
      <path
         inkscape:connector-curvature="0"
         id="path3563"
         sodipodi:nodetypes="csszzssccsszsssccs"
         style="opacity:0.76586998;fill:#89e8ff;fill-rule:evenodd"
         d="m 344.49,151.68 c -6.77,8.47 -14.65,20.13 -16.81,29.89 -2.11,9.47 5.22,25.8 3.84,33.58 -6.9,38.66 -34.66,72.25 -94,101.78 -59.67,29.69 -150.32,33.34 -225.72,19.19 -75.512,-14.18 -149.19,-60.5 -171.63,-107.08 -3.79,-7.87 -4.74,-13.12 -6.12,-23.16 -0.56,-4.03 -4.16,-11.37 -6.29,-16.52 6.44,-4.43 13.41,-7.85 22.27,-9.73 3.61,3.89 12.98,8.82 18.66,11.65 6.03,3.01 13.53,4.92 20.23,6.95 57.594,17.47 89.057,47.03 195,47.99 105.943,0.96 156.63,-38.63 180.31,-54.05 9.27,-6.03 29.16,-12.86 37.4,-19.7 7.62,-6.31 14.77,-16.63 17.52,-24.92 1.75,-5.3 -1.36,-14.52 1.1,-18.81 9.29,4.9 33.04,7.27 37.91,8.44 0.77,5.09 -10.05,9.96 -13.67,14.5 z" />
    </clipPath>
    <linearGradient
       id="linearGradient3399">
      <stop
         id="stop3401"
         style="stop-color:#9b9502"
         offset="0" />
      <stop
         id="stop3443"
         style="stop-color:#9b9502"
         offset=".5" />
      <stop
         id="stop3403"
         style="stop-color:#99712d"
         offset="1" />
    </linearGradient>
    <clipPath
       id="clipPath3593"
       clipPathUnits="userSpaceOnUse">
      <path
         inkscape:connector-curvature="0"
         id="path3595"
         sodipodi:nodetypes="csszzssccsszsssccs"
         style="opacity:0.76586998;fill:#89e8ff;fill-rule:evenodd"
         d="m 51.431,82.482 c 5.116,8.47 11.076,20.128 12.714,29.888 1.589,9.47 -3.953,25.81 -2.905,33.59 5.212,38.66 26.211,72.25 71.09,101.77 45.13,29.69 113.69,33.35 170.72,19.19 57.11,-14.17 112.83,-60.5 129.8,-107.07 2.87,-7.87 3.58,-13.12 4.63,-23.17 0.42,-4.03 3.15,-11.36 4.76,-16.52 -4.87,-4.43 -10.15,-7.84 -16.85,-9.72 -2.73,3.88 -9.82,8.81 -14.11,11.64 -4.56,3.01 -10.23,4.92 -15.3,6.96 -43.56,17.46 -67.35,47.02 -147.48,47.98 -80.12,0.96 -118.46,-38.63 -136.37,-54.04 -7.01,-6.03 -22.054,-12.87 -28.287,-19.7 -5.764,-6.318 -11.17,-16.634 -13.25,-24.928 -1.327,-5.293 1.029,-14.522 -0.834,-18.808 -7.024,4.897 -24.986,7.272 -28.667,8.438 -0.584,5.098 7.598,9.96 10.339,14.5 z" />
    </clipPath>
    <clipPath
       id="clipPath3589"
       clipPathUnits="userSpaceOnUse">
      <path
         inkscape:connector-curvature="0"
         id="path3591"
         sodipodi:nodetypes="csszzssccsszsssccs"
         style="opacity:0.76586998;fill:#89e8ff;fill-rule:evenodd"
         d="m 51.431,82.482 c 5.116,8.47 11.076,20.128 12.714,29.888 1.589,9.47 -3.953,25.81 -2.905,33.59 5.212,38.66 26.211,72.25 71.09,101.77 45.13,29.69 113.69,33.35 170.72,19.19 57.11,-14.17 112.83,-60.5 129.8,-107.07 2.87,-7.87 3.58,-13.12 4.63,-23.17 0.42,-4.03 3.15,-11.36 4.76,-16.52 -4.87,-4.43 -10.15,-7.84 -16.85,-9.72 -2.73,3.88 -9.82,8.81 -14.11,11.64 -4.56,3.01 -10.23,4.92 -15.3,6.96 -43.56,17.46 -67.35,47.02 -147.48,47.98 -80.12,0.96 -118.46,-38.63 -136.37,-54.04 -7.01,-6.03 -22.054,-12.87 -28.287,-19.7 -5.764,-6.318 -11.17,-16.634 -13.25,-24.928 -1.327,-5.293 1.029,-14.522 -0.834,-18.808 -7.024,4.897 -24.986,7.272 -28.667,8.438 -0.584,5.098 7.598,9.96 10.339,14.5 z" />
    </clipPath>
    <clipPath
       id="clipPath3585"
       clipPathUnits="userSpaceOnUse">
      <path
         inkscape:connector-curvature="0"
         id="path3587"
         sodipodi:nodetypes="csszzssccsszsssccs"
         style="opacity:0.76586998;fill:#89e8ff;fill-rule:evenodd"
         d="m 51.431,82.482 c 5.116,8.47 11.076,20.128 12.714,29.888 1.589,9.47 -3.953,25.81 -2.905,33.59 5.212,38.66 26.211,72.25 71.09,101.77 45.13,29.69 113.69,33.35 170.72,19.19 57.11,-14.17 112.83,-60.5 129.8,-107.07 2.87,-7.87 3.58,-13.12 4.63,-23.17 0.42,-4.03 3.15,-11.36 4.76,-16.52 -4.87,-4.43 -10.15,-7.84 -16.85,-9.72 -2.73,3.88 -9.82,8.81 -14.11,11.64 -4.56,3.01 -10.23,4.92 -15.3,6.96 -43.56,17.46 -67.35,47.02 -147.48,47.98 -80.12,0.96 -118.46,-38.63 -136.37,-54.04 -7.01,-6.03 -22.054,-12.87 -28.287,-19.7 -5.764,-6.318 -11.17,-16.634 -13.25,-24.928 -1.327,-5.293 1.029,-14.522 -0.834,-18.808 -7.024,4.897 -24.986,7.272 -28.667,8.438 -0.584,5.098 7.598,9.96 10.339,14.5 z" />
    </clipPath>
    <clipPath
       id="clipPath3581"
       clipPathUnits="userSpaceOnUse">
      <path
         inkscape:connector-curvature="0"
         id="path3583"
         sodipodi:nodetypes="csszzssccsszsssccs"
         style="opacity:0.76586998;fill:#89e8ff;fill-rule:evenodd"
         d="m 51.431,82.482 c 5.116,8.47 11.076,20.128 12.714,29.888 1.589,9.47 -3.953,25.81 -2.905,33.59 5.212,38.66 26.211,72.25 71.09,101.77 45.13,29.69 113.69,33.35 170.72,19.19 57.11,-14.17 112.83,-60.5 129.8,-107.07 2.87,-7.87 3.58,-13.12 4.63,-23.17 0.42,-4.03 3.15,-11.36 4.76,-16.52 -4.87,-4.43 -10.15,-7.84 -16.85,-9.72 -2.73,3.88 -9.82,8.81 -14.11,11.64 -4.56,3.01 -10.23,4.92 -15.3,6.96 -43.56,17.46 -67.35,47.02 -147.48,47.98 -80.12,0.96 -118.46,-38.63 -136.37,-54.04 -7.01,-6.03 -22.054,-12.87 -28.287,-19.7 -5.764,-6.318 -11.17,-16.634 -13.25,-24.928 -1.327,-5.293 1.029,-14.522 -0.834,-18.808 -7.024,4.897 -24.986,7.272 -28.667,8.438 -0.584,5.098 7.598,9.96 10.339,14.5 z" />
    </clipPath>
    <clipPath
       id="clipPath235"
       clipPathUnits="userSpaceOnUse">
      <path
         inkscape:connector-curvature="0"
         id="path233"
         sodipodi:nodetypes="csszzssccsszsssccs"
         style="opacity:0.76586998;fill:#89e8ff;fill-rule:evenodd"
         d="m 51.431,82.482 c 5.116,8.47 11.076,20.128 12.714,29.888 1.589,9.47 -3.953,25.81 -2.905,33.59 5.212,38.66 26.211,72.25 71.09,101.77 45.13,29.69 113.69,33.35 170.72,19.19 57.11,-14.17 112.83,-60.5 129.8,-107.07 2.87,-7.87 3.58,-13.12 4.63,-23.17 0.42,-4.03 3.15,-11.36 4.76,-16.52 -4.87,-4.43 -10.15,-7.84 -16.85,-9.72 -2.73,3.88 -9.82,8.81 -14.11,11.64 -4.56,3.01 -10.23,4.92 -15.3,6.96 -43.56,17.46 -67.35,47.02 -147.48,47.98 -80.12,0.96 -118.46,-38.63 -136.37,-54.04 -7.01,-6.03 -22.054,-12.87 -28.287,-19.7 -5.764,-6.318 -11.17,-16.634 -13.25,-24.928 -1.327,-5.293 1.029,-14.522 -0.834,-18.808 -7.024,4.897 -24.986,7.272 -28.667,8.438 -0.584,5.098 7.598,9.96 10.339,14.5 z" />
    </clipPath>
  </defs>
  <metadata
     id="metadata5">
    <rdf:RDF>
      <cc:Work
         rdf:about="">
        <dc:format>image/svg+xml</dc:format>
        <dc:type
           rdf:resource="http://purl.org/dc/dcmitype/StillImage" />
        <dc:title></dc:title>
      </cc:Work>
    </rdf:RDF>
  </metadata>
  <g
     transform="translate(-30.204145,-27.05644)"
     id="layer1"
     style="fill:#ffffff">
    <rect
       style="fill:#ffffff;stroke:#000000;stroke-width:0.24614717;stroke-linejoin:round;stroke-miterlimit:4;stroke-dasharray:none;stroke-opacity:1"
       y="27.179514"
       x="30.327219"
       height="26.212187"
       width="18.274685"
       id="rect3713" />
  </g>
  <g
     id="g9719"
     transform="matrix(0.84036482,0,0,0.84036482,-4.5569238,-0.47290288)" />
  <g
     id="g9830"
     transform="translate(36.942087,12.842528)">
    <path
       sodipodi:nodetypes="csccc"
       inkscape:connector-curvature="0"
       id="path8230"
       d="m -27.04343,-6.1367181 c 2.871022,-0.012573 6.013854,2.0218055 6.44996,3.9278475 0.955695,4.1769504 -3.223091,11.2254384 -7.346853,10.8708824 -3.587241,0.6982517 -6.993985,-6.962659 -5.93376,-11.1388019 1.661132,-3.5752273 3.73146,-3.881949 6.830653,-3.659928 z"
       style="fill:#f41d1d;fill-opacity:1;stroke:none;stroke-width:0.26458335px;stroke-linecap:butt;stroke-linejoin:miter;stroke-opacity:1" />
    <path
       sodipodi:nodetypes="csccc"
       inkscape:connector-curvature="0"
       id="path8230-0"
       d="m -27.179557,-5.2948085 c 2.32527,-0.011098 4.870682,1.7850228 5.22389,3.4678397 0.774026,3.6877694 -3.291418,9.9107776 -6.631296,9.5977452 -3.677146,0.072077 -4.983499,-6.1472312 -4.124813,-9.8342876 1.345369,-3.1565163 3.022149,-3.4273165 5.532219,-3.2312973 z"
       style="fill:#e92828;fill-opacity:1;stroke:none;stroke-width:0.22373463px;stroke-linecap:butt;stroke-linejoin:miter;stroke-opacity:1" />
    <path
       sodipodi:nodetypes="cccccccccccc"
       inkscape:connector-curvature="0"
       id="path8232"
       d="m -29.902276,-6.8654436 -5.521495,2.6065946 c 2.052583,0.3625933 4.128239,-0.9137487 6.110081,-1.5415346 -1.095386,0.8900758 -1.96046,2.2207274 -2.718706,3.7557383 1.408762,-0.7931622 2.843303,-1.5175834 4.036017,-2.8868733 0.149287,1.505884 0.889918,2.5189804 1.933925,3.2792639 0.407586,-1.0370322 0.528437,-2.0740644 -0.252251,-3.1110966 0.924821,0.6262552 1.854818,1.2369821 2.998985,1.2051996 -0.295044,-0.6873296 -0.562378,-1.3900581 -1.317312,-1.8218134 1.348222,0.3126043 2.584699,0.7400424 3.783767,0.5325302 -1.669253,-0.8685469 -3.385223,-1.8211384 -5.129106,-2.0180085 z"
       style="fill:#77de3d;fill-opacity:1;stroke:none;stroke-width:0.26458335px;stroke-linecap:butt;stroke-linejoin:miter;stroke-opacity:1" />
    <path
       sodipodi:nodetypes="cccccccccccc"
       inkscape:connector-curvature="0"
       id="path8232-8"
       d="m -29.266976,-6.5571368 -3.680997,1.7377296 c 1.368389,0.241729 2.752159,-0.609166 4.073388,-1.02769 -0.730257,0.593385 -1.306974,1.480485 -1.812471,2.503826 0.939175,-0.528775 1.895535,-1.011722 2.690678,-1.924582 0.09952,1.003923 0.593279,1.67932 1.289284,2.186176 0.271724,-0.691355 0.352291,-1.38271 -0.168168,-2.074065 0.616548,0.417504 1.236546,0.824655 1.999324,0.803467 -0.196696,-0.45822 -0.374919,-0.926705 -0.878208,-1.214543 0.898814,0.208403 1.723132,0.493362 2.522511,0.35502 -1.112835,-0.579031 -2.256815,-1.2140917 -3.419404,-1.3453384 z"
       style="fill:#52ae1e;fill-opacity:0.33333333;stroke:none;stroke-width:0.1763889px;stroke-linecap:butt;stroke-linejoin:miter;stroke-opacity:1" />
    <path
       inkscape:tile-y0="10.780006"
       inkscape:tile-x0="4.1044494"
       sodipodi:nodetypes="ccc"
       inkscape:connector-curvature="0"
       id="use8353"
       d="m -32.539145,-0.790911 c -0.612227,0.005 -0.54301,1.26018417 -0.0529,1.27199 0.44601,0.0442833 0.574391,-1.16797572 0.0529,-1.27199 z"
       style="fill:#f4e71d;fill-opacity:1;stroke:none;stroke-width:0.26458335px;stroke-linecap:butt;stroke-linejoin:miter;stroke-opacity:1"
       transform="matrix(0.84036482,0,0,0.84036482,-4.5569239,-0.47290288)" />
    <path
       inkscape:tile-y0="6.3406134"
       inkscape:tile-x0="5.8196739"
       sodipodi:nodetypes="ccc"
       inkscape:connector-curvature="0"
       id="use8397"
       d="m -30.673895,-0.83481084 c -0.612227,0.181876 -0.485829,1.25002635 -0.12365,1.2366148 0.473538,0.0145883 0.645141,-1.0787716 0.12365,-1.2366148 z"
       style="fill:#f4e71d;fill-opacity:1;stroke:none;stroke-width:0.26458335px;stroke-linecap:butt;stroke-linejoin:miter;stroke-opacity:1"
       inkscape:tile-cx="6.2286613"
       inkscape:tile-cy="6.978215"
       inkscape:tile-w="0.81797481"
       inkscape:tile-h="1.2752033"
       transform="matrix(0.84036482,0,0,0.84036482,-4.5569239,-0.47290288)" />
    <use
       x="0"
       y="0"
       inkscape:tiled-clone-of="#use8397"
       xlink:href="#use8397"
       id="use9635"
       width="100%"
       height="100%"
       transform="matrix(0.84036482,0,0,0.84036482,-2.7903994,6.2163361)" />
    <use
       x="0"
       y="0"
       inkscape:tiled-clone-of="#use8397"
       xlink:href="#use8397"
       transform="matrix(0.84036482,0,0,0.84036482,-5.4463102,1.0434262)"
       id="use9637"
       width="100%"
       height="100%" />
    <use
       x="0"
       y="0"
       inkscape:tiled-clone-of="#use8397"
       xlink:href="#use8397"
       transform="matrix(0.84036482,0,0,0.84036482,-6.3356963,2.2973119)"
       id="use9641"
       width="100%"
       height="100%" />
    <use
       x="0"
       y="0"
       inkscape:tiled-clone-of="#use8397"
       xlink:href="#use8397"
       transform="matrix(0.84036482,0,0,0.84036482,-5.1928727,4.6059861)"
       id="use9643"
       width="100%"
       height="100%" />
    <use
       x="0"
       y="0"
       inkscape:tiled-clone-of="#use8397"
       xlink:href="#use8397"
       transform="matrix(0.84036482,0,0,0.84036482,-2.9801406,-0.47290288)"
       id="use9647"
       width="100%"
       height="100%" />
    <use
       x="0"
       y="0"
       inkscape:tiled-clone-of="#use8397"
       xlink:href="#use8397"
       transform="matrix(0.84036482,0,0,0.84036482,-3.8695266,1.0434262)"
       id="use9649"
       width="100%"
       height="100%" />
    <use
       x="0"
       y="0"
       inkscape:tiled-clone-of="#use8397"
       xlink:href="#use8397"
       transform="matrix(0.84036482,0,0,0.84036482,3.267232,-0.84987246)"
       id="use9651"
       width="100%"
       height="100%" />
    <use
       x="0"
       y="0"
       inkscape:tiled-clone-of="#use8397"
       xlink:href="#use8397"
       transform="matrix(0.84036482,0,0,0.84036482,-4.4819217,2.6948975)"
       id="use9653"
       width="100%"
       height="100%" />
    <use
       x="0"
       y="0"
       inkscape:tiled-clone-of="#use8397"
       xlink:href="#use8397"
       transform="matrix(0.84036482,0,0,0.84036482,1.4620796,3.1541385)"
       id="use9655"
       width="100%"
       height="100%" />
    <use
       x="0"
       y="0"
       inkscape:tiled-clone-of="#use8397"
       xlink:href="#use8397"
       transform="matrix(0.84036482,0,0,0.84036482,-1.4033569,-0.47290288)"
       id="use9659"
       width="100%"
       height="100%" />
    <use
       x="0"
       y="0"
       inkscape:tiled-clone-of="#use8397"
       xlink:href="#use8397"
       transform="matrix(0.84036482,0,0,0.84036482,0.2331513,3.0012064)"
       id="use9661"
       width="100%"
       height="100%" />
    <use
       x="0"
       y="0"
       inkscape:tiled-clone-of="#use8397"
       xlink:href="#use8397"
       transform="matrix(0.84036482,0,0,0.84036482,-2.1222146,1.2699568)"
       id="use9663"
       width="100%"
       height="100%" />
    <use
       x="0"
       y="0"
       inkscape:tiled-clone-of="#use8397"
       xlink:href="#use8397"
       transform="matrix(0.84036482,0,0,0.84036482,-0.33778945,4.7440658)"
       id="use9665"
       width="100%"
       height="100%" />
    <use
       x="0"
       y="0"
       inkscape:tiled-clone-of="#use8397"
       xlink:href="#use8397"
       transform="matrix(0.84036482,0,0,0.84036482,-3.1821293,3.0834775)"
       id="use9667"
       width="100%"
       height="100%" />
    <use
       x="0"
       y="0"
       inkscape:tiled-clone-of="#use8397"
       xlink:href="#use8397"
       transform="matrix(0.84036482,0,0,0.84036482,0.17342666,-0.47290288)"
       id="use9671"
       width="100%"
       height="100%" />
    <use
       x="0"
       y="0"
       inkscape:tiled-clone-of="#use8397"
       xlink:href="#use8397"
       transform="matrix(0.84036482,0,0,0.84036482,-0.71595951,1.225676)"
       id="use9675"
       width="100%"
       height="100%" />
    <use
       x="0"
       y="0"
       inkscape:tiled-clone-of="#use8397"
       xlink:href="#use8397"
       transform="matrix(0.84036482,0,0,0.84036482,-1.4640237,3.0397231)"
       id="use9677"
       width="100%"
       height="100%" />
    <use
       x="0"
       y="0"
       inkscape:tiled-clone-of="#use8397"
       xlink:href="#use8397"
       transform="matrix(0.84036482,0,0,0.84036482,-3.55182,4.8415227)"
       id="use9679"
       width="100%"
       height="100%" />
    <use
       x="0"
       y="0"
       inkscape:tiled-clone-of="#use8397"
       xlink:href="#use8397"
       transform="matrix(0.84036482,0,0,0.84036482,1.7502094,-0.47290288)"
       id="use9683"
       width="100%"
       height="100%" />
    <use
       x="0"
       y="0"
       inkscape:tiled-clone-of="#use8397"
       xlink:href="#use8397"
       transform="matrix(0.84036482,0,0,0.84036482,1.0021452,1.3496238)"
       id="use9685"
       width="100%"
       height="100%" />
    <use
       x="0"
       y="0"
       inkscape:tiled-clone-of="#use8397"
       xlink:href="#use8397"
       transform="matrix(0.84036482,0,0,0.84036482,2.6395955,1.225676)"
       id="use9687"
       width="100%"
       height="100%" />
    <use
       x="0"
       y="0"
       inkscape:tiled-clone-of="#use8397"
       xlink:href="#use8397"
       transform="matrix(0.84036482,0,0,0.84036482,-1.9722109,4.7708618)"
       id="use9691"
       width="100%"
       height="100%" />
    <use
       x="0"
       y="0"
       inkscape:tiled-clone-of="#use8397"
       xlink:href="#use8397"
       id="use9635-9"
       width="100%"
       height="100%"
       transform="matrix(0.84036482,0,0,0.84036482,-1.2523668,6.4321023)" />
    <path
       sodipodi:nodetypes="ccc"
       inkscape:connector-curvature="0"
       id="path9721"
       d="m -21.284919,0.05687722 c 0.213368,1.05693558 -0.980356,3.33001718 -2.595116,5.47583588 0.847756,-1.5483379 2.331823,-4.3741028 2.595116,-5.47583588 z"
       style="fill:#fffdfd;fill-opacity:0.67171715;stroke:none;stroke-width:0.21978232px;stroke-linecap:butt;stroke-linejoin:miter;stroke-opacity:1" />
    <path
       sodipodi:nodetypes="ccc"
       inkscape:connector-curvature="0"
       id="path9721-5"
       d="m -33.347458,1.4836439 c -0.458652,1.1843753 1.03059,4.4887756 2.595116,5.4758359 -1.684226,-2.0386889 -2.134042,-3.5863588 -2.595116,-5.4758359 z"
       style="fill:#fffdfd;fill-opacity:0.67171715;stroke:none;stroke-width:0.21978232px;stroke-linecap:butt;stroke-linejoin:miter;stroke-opacity:1" />
    <path
       sodipodi:nodetypes="ccc"
       inkscape:connector-curvature="0"
       id="path9753"
       d="m -28.694119,-6.8643214 c 0.240668,0.8911349 1.744255,0.769043 2.062754,-0.00446 z"
       style="fill:#005800;fill-opacity:1;stroke:none;stroke-width:0.33718479px;stroke-linecap:butt;stroke-linejoin:miter;stroke-opacity:1" />
    <path
       sodipodi:nodetypes="ccccccc"
       inkscape:connector-curvature="0"
       id="path9755"
       d="m -28.105967,-6.2818131 c 0.316796,-1.2879826 -0.56909,-1.3383948 -0.790587,-2.6861881 -0.300262,-0.1753703 -0.233306,-0.3841246 -0.215012,-0.5884528 0.225242,-0.079446 0.338071,-0.2391986 0.961894,-0.03395 -0.01198,0.1978533 0.08815,0.4293114 -0.203695,0.5431889 0.106375,1.364005 0.980907,1.4421659 0.88112,2.7767191 z"
       style="fill:#005800;fill-opacity:1;stroke:none;stroke-width:0.21365394px;stroke-linecap:butt;stroke-linejoin:miter;stroke-opacity:1" />
  </g>
</svg>
