<?xml version="1.0" encoding="UTF-8" standalone="no"?>
<!-- Created with Inkscape (http://www.inkscape.org/) -->

<svg
   width="3750"
   height="2160"
   viewBox="0 0 992.18751 571.50002"
   version="1.1"
   id="svg5"
   sodipodi:docname="map.svg"
   inkscape:version="1.1.2 (0a00cf5339, 2022-02-04)"
   xmlns:inkscape="http://www.inkscape.org/namespaces/inkscape"
   xmlns:sodipodi="http://sodipodi.sourceforge.net/DTD/sodipodi-0.dtd"
   xmlns="http://www.w3.org/2000/svg"
   xmlns:svg="http://www.w3.org/2000/svg">
  <sodipodi:namedview
     id="namedview7"
     pagecolor="#ffffff"
     bordercolor="#666666"
     borderopacity="1.0"
     inkscape:pageshadow="2"
     inkscape:pageopacity="0.0"
     inkscape:pagecheckerboard="0"
     inkscape:document-units="px"
     showgrid="false"
     units="px"
     width="14513.386px"
     inkscape:zoom="0.35099607"
     inkscape:cx="1316.2541"
     inkscape:cy="984.34151"
     inkscape:window-width="1920"
     inkscape:window-height="960"
     inkscape:window-x="0"
     inkscape:window-y="27"
     inkscape:window-maximized="1"
     inkscape:current-layer="layer2"
     inkscape:lockguides="true" />
  <defs
     id="defs2" />
  <g
     inkscape:label="Слой 1"
     inkscape:groupmode="layer"
     id="layer1"
     sodipodi:insensitive="true"
     style="display:inline">
    <rect
       style="fill:#7ef5f5;fill-opacity:0.941176;stroke-width:1.16063"
       id="rect846"
       width="992.1875"
       height="571.5"
       x="0"
       y="0" />
  </g>
  <g
     inkscape:groupmode="layer"
     id="layer2"
     inkscape:label="Слой 2">
    <rect
       style="fill:none;fill-opacity:0.941176;stroke-width:1.3229167;stroke:#00c5ff;stroke-opacity:1;stroke-miterlimit:4;stroke-dasharray:none"
       id="rect2864"
       width="992.1875"
       height="571.5"
       x="0"
       y="0" />
    <path
       style="fill:#eaffff;fill-opacity:0.941176;stroke:#000000;stroke-width:0;stroke-linecap:butt;stroke-linejoin:miter;stroke-miterlimit:4;stroke-dasharray:none;stroke-opacity:1"
       d="m 300.64924,1.21118 c 18.95875,3.512701 20.82416,20.081868 33.80474,25.599944 46.86329,12.80825 9.76793,33.74861 59.61523,35.84361 27.5659,0 45.4444,1.04604 70.74791,-6.9914 13.0451,-4.14365 22.51524,-14.3692 37.73221,-15.98039 12.67852,-1.34239 24.65955,0.68296 36.78601,2.11231 6.75197,0.79591 15.15206,0 22.01056,0 10.50626,0 29.47022,3.90466 39.30421,0 23.76906,-9.43746 30.51601,-28.726392 49.64274,-40.87716794 z"
       id="path1997"
       sodipodi:nodetypes="cccssssscc" />
    <path
       style="fill:#92fc3c;fill-opacity:0.941176;stroke:none;stroke-width:0.448767px;stroke-linecap:butt;stroke-linejoin:miter;stroke-opacity:1"
       d="m 201.39005,111.38783 c -37.40629,18.15971 -68.04893,58.02894 -63.057,101.20905 17.08969,10.0416 55.22624,42.15106 12.02842,42.97935 -42.24016,20.55504 -57.856258,72.42659 -55.653371,116.27499 9.655721,44.62028 59.812241,60.43104 99.957491,62.84708 37.36593,3.88703 74.85846,-0.63631 112.27698,-0.82459 35.65866,16.25705 47.9014,68.90199 92.2876,68.20823 64.52774,1.11869 133.60072,11.3632 193.33303,-19.56522 38.89239,-6.8709 46.41039,-59.7953 84.53818,-65.2134 41.35074,-3.32251 83.74917,9.44997 124.2149,-4.57365 48.10077,-15.53321 87.35854,-57.81943 100.23651,-106.30034 2.97725,-44.52501 -50.76668,-41.10025 -81.27936,-43.86908 -35.03486,3.5861 -87.787,-2.05729 -77.453,-51.29734 11.03312,-31.61043 18.03053,-84.13928 -30.94595,-83.64347 -59.76363,-1.43711 -120.99838,-1.60185 -178.57299,16.90945 -41.66779,-2.78755 -51.20983,-66.864373 -97.43614,-57.636379 -37.37217,-1.312831 -83.15749,-9.652284 -111.72462,20.619969 -46.63039,16.0118 -90.0462,-16.194859 -122.75068,3.87535 z"
       id="path3776"
       sodipodi:nodetypes="cccccccccccccccccc" />
    <path
       style="fill:#f3fc3c;fill-opacity:0.941176;stroke:none;stroke-width:0.22915px;stroke-linecap:butt;stroke-linejoin:miter;stroke-opacity:1"
       d="m 593.65325,272.21552 c 5.29443,80.71301 74.46789,36.67626 96.0925,37.40205 30.31137,0.62094 62.75782,6.30727 90.81658,-10.85989 18.26937,-3.81378 21.80089,-33.19005 39.7111,-36.19743 19.42417,-1.84421 39.34048,5.24531 58.34891,-2.53866 22.59493,-8.62188 41.03596,-32.09332 47.08527,-59.0032 1.39854,-24.7141 -23.84722,-22.81315 -38.18031,-24.35003 -16.45732,1.9905 -41.2372,-1.14192 -36.38289,-28.47316 5.1827,-17.54572 8.46969,-46.70245 -14.5366,-46.42725 -28.07346,-0.79768 -56.83798,-0.88912 -83.88317,9.38578 -19.5731,-1.54726 -24.0554,-37.113815 -45.76982,-31.991713 C 596.30505,80.895022 532.48968,222.36098 593.65325,272.21552 Z"
       id="path3776-3"
       sodipodi:nodetypes="cccccccccccc" />
    <path
       style="fill:#10bd2b;fill-opacity:0.941176;stroke:none;stroke-width:0.0964568px;stroke-linecap:butt;stroke-linejoin:miter;stroke-opacity:1"
       d="m 688.85555,447.25053 c -7.48846,4.1907 -13.62289,13.39129 -12.62354,23.35591 3.42122,2.3173 11.05588,9.72716 2.40799,9.91831 -8.45617,4.74346 -11.5824,16.71381 -11.1414,26.83266 1.93301,10.29698 11.97398,13.94561 20.01077,14.50316 7.48038,0.89701 14.98611,-0.14684 22.47703,-0.19029 7.1386,3.75163 9.58951,15.90045 18.4753,15.74035 12.91799,0.25816 26.74589,2.62227 38.70387,-4.51504 7.78597,-1.5856 9.29102,-13.79891 16.92392,-15.04924 8.27812,-0.76673 16.76598,2.18076 24.86692,-1.05546 9.62942,-3.58458 17.48855,-13.34293 20.06662,-24.53082 0.59603,-10.27499 -10.16311,-9.48466 -16.27154,-10.12363 -7.01371,0.82756 -17.57431,-0.47476 -15.50552,-11.83783 2.20874,-7.29471 3.60958,-19.41674 -6.19515,-19.30233 -11.96424,-0.33163 -24.223,-0.36965 -35.74901,3.90218 -8.34159,-0.64328 -10.25184,-15.43022 -19.50601,-13.30069 -7.48163,-0.30296 -16.64752,-2.22744 -22.36645,4.75845 -9.33507,3.69503 -18.0266,-3.73727 -24.5738,0.89431 z"
       id="path3776-3-7"
       sodipodi:nodetypes="cccccccccccccccccc" />
    <path
       style="fill:#008000;stroke:none;stroke-width:0.264583px;stroke-linecap:butt;stroke-linejoin:miter;stroke-opacity:1"
       d="m 518.09917,315.41876 c -4.98619,-13.69612 -5.74659,-28.42581 -7.99111,-42.63493 -5.03432,-12.44184 -8.78094,-25.36255 -13.02335,-38.05483 -6.53748,-14.59748 -22.05256,-23.95915 -37.92637,-23.88662 -14.25372,-0.96451 -28.57018,0.33204 -42.81654,-0.44167 -13.85472,1.40937 -24.50838,12.73646 -28.96478,25.34765 -7.34142,15.45543 -5.11769,35.19199 6.5722,47.96417 8.05762,10.05697 19.08409,17.11558 28.23681,25.98204 7.55113,11.03167 5.22513,25.10205 7.87833,37.55366 1.16375,17.2023 7.52255,34.94814 20.20444,47.00427 8.3112,7.85221 19.96394,10.37468 31.08276,9.84161 11.23856,0.56236 22.99765,-3.01792 30.29605,-11.97878 6.31244,-6.93279 8.79235,-16.40556 8.82865,-25.57693 13.10049,-23.30082 4.66795,-27.66557 -2.37709,-51.11964 z"
       id="path7755"
       sodipodi:nodetypes="cccccccccccccc" />
    <path
       style="fill:#483737;stroke:#000000;stroke-width:0.264583px;stroke-linecap:butt;stroke-linejoin:miter;stroke-opacity:1"
       d="m 142.87453,282.07056 c -17.73763,1.26876 -38.48779,-4.36788 -52.708407,9.64709 -13.757111,10.69671 -21.195181,27.50526 -23.388231,44.41848 -5.92964,17.47296 8.79485,32.31276 21.184291,42.3271 15.257807,12.87572 25.529177,30.71281 40.897827,43.34947 15.99652,10.64942 34.29647,17.5482 52.39705,23.60396 19.85551,5.32482 40.56822,6.93558 61.00186,5.82744 20.55546,3.47018 29.32348,27.99369 50.17758,30.78946 25.21622,11.18964 53.33868,7.02656 80.05192,7.53657 14.72175,-4.64738 34.4767,-13.78889 33.26673,-32.12395 3.97793,-14.87206 -9.4185,-26.54696 -22.19116,-30.75495 -14.33362,-5.8016 -29.77451,-10.15473 -45.31642,-6.90815 -15.59377,1.97699 -31.78582,6.01271 -47.34098,2.27697 -13.37447,-4.20169 -22.0073,-16.46703 -26.70346,-29.00441 -13.05196,-21.22193 -23.43294,-44.66173 -40.64991,-62.91797 -15.86817,-11.59778 -40.77368,-6.74973 -52.44058,-24.6759 -4.07755,-13.00803 -12.09836,-26.74054 -28.23811,-23.39121 z"
       id="path8223" />
  </g>
</svg>
