<?xml version="1.0" encoding="UTF-8" standalone="no"?>
<svg
   width="1024"
   height="700"
   viewBox="0 0 1024 700"
   fill="none"
   version="1.1"
   id="svg4"
   sodipodi:docname="bg-05.svg"
   inkscape:version="1.3.1 (9b9bdc1480, 2023-11-25, custom)"
   xmlns:inkscape="http://www.inkscape.org/namespaces/inkscape"
   xmlns:sodipodi="http://sodipodi.sourceforge.net/DTD/sodipodi-0.dtd"
   xmlns="http://www.w3.org/2000/svg"
   xmlns:svg="http://www.w3.org/2000/svg">
  <sodipodi:namedview
     id="namedview4"
     pagecolor="#ffffff"
     bordercolor="#999999"
     borderopacity="1"
     inkscape:showpageshadow="2"
     inkscape:pageopacity="0"
     inkscape:pagecheckerboard="0"
     inkscape:deskcolor="#d1d1d1"
     inkscape:zoom="0.88859755"
     inkscape:cx="396.69252"
     inkscape:cy="333.10918"
     inkscape:window-width="1920"
     inkscape:window-height="954"
     inkscape:window-x="0"
     inkscape:window-y="27"
     inkscape:window-maximized="1"
     inkscape:current-layer="svg4"
     showgrid="false" />
  <rect
     width="1024"
     height="700"
     fill="#2a7df9"
     id="rect2"
     x="0"
     y="0"
     style="fill:#f3fc7b;fill-opacity:1;stroke-width:1.22202" />
  <path
     fill="url(#gradient_0)"
     d="M 2.8280123,5.5039064 H 317.6025 h 18.1297 20.83194 36.11199 123.93929 17.27544 8.61818 9.54882 19.52388 14.41247 88.44092 9.77793 88.74994 7.43002 244.55748 c 0.9057,1.3869552 0.8347,2.5189813 0.8524,4.0719065 0.7371,51.5736621 0.027,103.2468271 0.027,154.8319271 v 310.03207 l -0.01,101.78554 c 0,4.67318 0.7992,30.23611 -0.3019,33.20695 -0.1332,0.35615 -0.3463,0.65078 -0.5506,0.98078 0.4263,0.65926 0.7016,1.13696 0.7726,1.9062 0.5239,5.69476 0.5772,61.61303 -0.222,63.69539 -0.1687,0.4177 -0.3019,0.58078 -0.5683,0.98617 1.3853,2.15775 1.3853,13.91496 0.6837,16.44425 -0.142,0.52617 -0.364,0.84848 -0.6837,1.30618 H 2.8280123 v -5.39397 -63.19307 z"
     id="path2"
     style="fill:url(#gradient_0);stroke-width:0.826502" />
  <defs
     id="defs4">
    <linearGradient
       id="paint0_linear"
       x1="795.5"
       y1="-1.5764601e-05"
       x2="-6.7552147"
       y2="664.25677"
       gradientUnits="userSpaceOnUse"
       gradientTransform="matrix(1.282631,0,0,1.2805499,735.94484,115.61153)">
      <stop
         offset="0.0597881"
         stop-color="#9EC0F4"
         id="stop3" />
      <stop
         offset="0.831596"
         stop-color="white"
         stop-opacity="0"
         id="stop4" />
    </linearGradient>
    <linearGradient
       id="gradient_3"
       gradientUnits="userSpaceOnUse"
       x1="834.04053"
       y1="619.34546"
       x2="833.3985"
       y2="608.63782"
       gradientTransform="translate(-244.8443,-304.808)">
      <stop
         offset="0"
         stop-color="#F79D6E"
         id="stop360" />
      <stop
         offset="1"
         stop-color="#FB9283"
         id="stop361" />
    </linearGradient>
    <linearGradient
       id="gradient_4"
       gradientUnits="userSpaceOnUse"
       x1="518.46313"
       y1="893.25836"
       x2="512.35229"
       y2="889.29797"
       gradientTransform="translate(-244.8443,-304.808)">
      <stop
         offset="0"
         stop-color="#FF6F72"
         id="stop443" />
      <stop
         offset="1"
         stop-color="#F7A0A0"
         id="stop444" />
    </linearGradient>
    <linearGradient
       id="gradient_0"
       gradientUnits="userSpaceOnUse"
       x1="576.94659"
       y1="-1.7882807"
       x2="574.20795"
       y2="877.87543"
       gradientTransform="matrix(0.88801449,0,0,0.76924929,2.8280123,5.5039063)">
      <stop
         offset="0"
         stop-color="#539AA5"
         id="stop1" />
      <stop
         offset="1"
         stop-color="#97B6A9"
         id="stop2" />
    </linearGradient>
  </defs>
  <path
     id="rect1"
     style="fill:#0074a3;fill-opacity:1;stroke-width:6.53446"
     d="M 0,0 V 700 H 1024 V 0 Z M 10.039216,10 H 1013.9608 V 690 H 10.039216 Z" />
</svg>
