<?xml version="1.0" encoding="UTF-8" standalone="no"?>
<!-- Created with Inkscape (http://www.inkscape.org/) -->

<svg
   width="1200"
   height="700"
   viewBox="0 0 317.49999 185.20834"
   version="1.1"
   id="svg5"
   inkscape:version="1.1.2 (08b2f3d93c, 2022-04-05)"
   sodipodi:docname="bg-2.svg"
   xmlns:inkscape="http://www.inkscape.org/namespaces/inkscape"
   xmlns:sodipodi="http://sodipodi.sourceforge.net/DTD/sodipodi-0.dtd"
   xmlns="http://www.w3.org/2000/svg"
   xmlns:svg="http://www.w3.org/2000/svg">
  <sodipodi:namedview
     id="namedview7"
     pagecolor="#ffffff"
     bordercolor="#666666"
     borderopacity="1.0"
     inkscape:pageshadow="2"
     inkscape:pageopacity="0.0"
     inkscape:pagecheckerboard="0"
     inkscape:document-units="px"
     showgrid="false"
     units="px"
     width="1100px"
     height="1122.5196px"
     inkscape:zoom="0.9814281"
     inkscape:cx="355.60425"
     inkscape:cy="412.66395"
     inkscape:window-width="1920"
     inkscape:window-height="960"
     inkscape:window-x="0"
     inkscape:window-y="0"
     inkscape:window-maximized="1"
     inkscape:current-layer="layer1"
     showguides="false" />
  <defs
     id="defs2">
    <filter
       inkscape:collect="always"
       style="color-interpolation-filters:sRGB"
       id="filter39509"
       x="-0.026488639"
       y="-0.054215363"
       width="1.0529773"
       height="1.1084307">
      <feGaussianBlur
         inkscape:collect="always"
         stdDeviation="0.20509452"
         id="feGaussianBlur39511" />
    </filter>
  </defs>
  <g
     inkscape:label="Слой 1"
     inkscape:groupmode="layer"
     id="layer1">
    <rect
       style="fill:#8df8f3;fill-opacity:1;stroke-width:0.264583"
       id="rect1010"
       width="318.94617"
       height="186.68686"
       x="0.1924618"
       y="0.11866674" />
    <path
       style="fill:#6a5713;fill-opacity:1;stroke:none;stroke-width:0.132098px;stroke-linecap:butt;stroke-linejoin:miter;stroke-opacity:1"
       d="M 0.33603756,175.1092 C 2.505932,174.748 19.780053,166.91595 58.745959,166.27206 c 30.480134,-0.50367 43.336331,3.47352 65.473621,3.05003 15.20695,-0.29091 18.95913,-4.00965 43.16704,-3.78135 44.28961,0.41768 18.25687,-2.06214 59.99453,0.61995 26.18548,2.55651 89.71662,-11.55522 91.60169,19.87755 H 0.03669056 Z"
       id="path3202"
       sodipodi:nodetypes="csascccc" />
    <path
       style="fill:#bba704;fill-opacity:1;stroke:none;stroke-width:0.108307px;stroke-linecap:butt;stroke-linejoin:miter;stroke-opacity:1"
       d="m -0.25772918,175.30871 c 2.16989428,-0.24282 19.44401518,-5.50785 58.40992118,-5.9407 30.480134,-0.33858 41.018651,6.92372 66.596548,6.50795 19.07274,-0.31003 19.14392,-5.83844 43.16704,-6.36171 24.36155,-0.53064 35.58435,3.77283 59.99453,4.23648 17.58787,0.33407 31.08372,-3.4029 47.99659,-3.98034 1.71236,-0.0585 3.45976,-0.0845 5.24997,-0.0707 19.51335,0.1506 38.67834,5.05603 38.67834,5.05603 L 319.512,187.11328 H 0.56584772 Z"
       id="path7318"
       sodipodi:nodetypes="csasssscccc" />
    <g
       id="g25140"
       transform="matrix(1.0540339,0,0,1.1587312,168.21164,-19.05916)">
      <path
         style="fill:#864a0b;fill-opacity:1;stroke:none;stroke-width:0.264583px;stroke-linecap:butt;stroke-linejoin:miter;stroke-opacity:1"
         d="m 45.034837,170.07086 4.308512,-53.18996 c 0,0 -15.93726,-9.32704 -23.620124,-14.92529 -2.699021,-1.966686 -5.566963,-8.329586 -5.566963,-8.329586 0,0 21.357796,15.631576 35.110736,16.009486 13.79309,3.12895 33.377576,-2.8062 33.377576,-2.8062 l 17.245226,0.16458 -50.184579,9.03886 -0.942126,14.07474 2.137104,11.18269 2.480457,15.77279 4.449009,13.67807 c -6.88901,-1.65059 -11.908715,-1.20476 -18.792235,-0.6672 l -0.0019,0.003"
         id="path25128"
         sodipodi:nodetypes="ccsccccccccccc" />
      <path
         style="fill:#0a962c;fill-opacity:1;stroke:none;stroke-width:0.264583px;stroke-linecap:butt;stroke-linejoin:miter;stroke-opacity:1"
         d="m 71.232921,103.01413 c 1.945277,-3.556476 1.745443,-9.379601 5.530477,-10.830856 4.639409,-1.778838 9.00072,6.063011 13.916658,5.340591 4.640737,-0.681977 6.462217,-8.163679 11.131694,-8.608092 5.66194,-0.538869 12.95218,2.490118 15.22426,7.704093 1.92973,4.428354 -0.40854,10.707064 -4.01065,13.925604 -4.4306,3.95881 -11.63574,3.19139 -17.573617,2.98155 -2.975257,-0.10514 -5.764087,-2.72155 -8.678089,-2.11181 -3.837998,0.80309 -5.44706,6.81831 -9.355714,7.13072 -4.381453,0.3502 -10.430028,-1.9958 -11.623902,-6.22598 -0.975891,-3.45782 3.714745,-6.15364 5.438883,-9.30582 z"
         id="path25130"
         sodipodi:nodetypes="sssssssssss" />
      <path
         style="fill:#0a962c;fill-opacity:1;stroke:none;stroke-width:0.17369px;stroke-linecap:butt;stroke-linejoin:miter;stroke-opacity:1"
         d="m 32.776518,107.47209 c -2.800299,0.89308 -5.41485,3.57955 -8.298845,2.86215 -3.534983,-0.87932 -2.396246,-5.97711 -5.596779,-7.4307 -3.021359,-1.37223 -7.590409,1.32779 -10.5170887,-0.16148 -3.548722,-1.8058 -6.3721087,-5.802223 -5.2495557,-8.964673 0.953411,-2.68594 5.2591357,-4.65899 8.8654494,-4.80115 4.435773,-0.17485 8.270233,2.7755 11.628465,5.01722 1.682691,1.12324 2.079138,3.30645 4.061431,4.0866 2.610857,1.02753 6.368515,-1.09095 8.790387,0.18241 2.714828,1.42739 5.135702,4.668143 3.846862,6.998983 -1.05352,1.90527 -5.048363,1.41909 -7.530326,2.21064 z"
         id="path25132"
         sodipodi:nodetypes="sssssssssss" />
      <path
         id="path25134"
         style="fill:#196d1f;fill-opacity:1;stroke:none;stroke-width:0.264583px;stroke-linecap:butt;stroke-linejoin:miter;stroke-opacity:1"
         d="m 117.60161,98.581061 c -0.85198,0.578326 -1.66787,1.199081 -2.3549,1.659849 -3.96073,2.65633 -5.19803,8.64807 -9.50691,10.69185 -2.42576,1.15059 -5.4202,0.88873 -8.047577,0.33642 -3.287637,-0.69111 -5.705837,-4.78568 -9.047505,-4.44004 -5.057335,0.5231 -6.943944,9.3565 -12.028207,9.3803 -3.546564,0.0166 -4.912111,-6.22563 -8.450646,-6.46472 -0.704548,-0.0476 -1.510067,0.17402 -2.330608,0.53847 -0.200748,0.65404 -0.240985,1.32918 -0.04134,2.03657 1.193874,4.23018 7.242643,6.57618 11.624098,6.22598 3.908652,-0.31242 5.517501,-6.32723 9.3555,-7.13032 2.914001,-0.60974 5.702761,2.00636 8.678018,2.1115 5.937877,0.20984 13.143007,0.9776 17.573607,-2.98121 3.09659,-2.76685 5.25642,-7.79444 4.57647,-11.964649 z" />
      <path
         id="path25136"
         style="fill:#196d1f;fill-opacity:1;stroke:none;stroke-width:0.264583px;stroke-linecap:butt;stroke-linejoin:miter;stroke-opacity:1"
         d="m 3.2840376,94.674324 c -0.09173,0.0011 -0.23065,0.0051 -0.383956,0.01137 -0.372825,2.983706 2.2475377,6.419756 5.4637487,8.056356 2.9266807,1.48927 7.4958287,-1.21049 10.5171877,0.16174 3.200533,1.4536 2.061574,6.55124 5.596557,7.43056 2.883995,0.7174 5.49842,-1.96928 8.29872,-2.86236 2.038059,-0.64998 5.095036,-0.43939 6.707084,-1.39784 -0.911659,-0.78296 -2.019925,-1.57888 -2.930054,-1.75545 -3.834601,-0.74394 -7.699369,4.3058 -11.349696,2.91558 -2.325905,-0.88582 -1.987825,-4.99043 -4.164087,-6.19807 -2.648091,-1.469464 -6.211673,0.66106 -9.080582,-0.30903 -3.2983767,-1.115307 -8.5126584,-6.052855 -8.5126584,-6.052855 0,0 -0.05831,-0.0012 -0.162264,-10e-7 z" />
      <path
         id="path25138"
         style="fill:#603508;fill-opacity:1;stroke:none;stroke-width:0.264583px;stroke-linecap:butt;stroke-linejoin:miter;stroke-opacity:1"
         d="m 35.689294,106.68393 -2.094445,0.56689 c 7.49336,4.79649 15.748392,9.6299 15.748392,9.6299 l -4.308264,53.19003 5.16e-4,0.006 0.0021,-0.003 c 1.015941,-0.0793 3.749203,-0.17035 4.695949,-0.23925 0,0 -0.397903,-4.28196 -0.0664,-9.4765 0.422855,-6.62595 -0.198183,-14.80491 0.101259,-19.94642 0.299992,-5.15094 -0.772484,-9.59538 0.05696,-14.59645 0.55687,-3.35761 1.047638,-6.42555 1.279429,-10.09785 l 0.08333,-1.32023 -15.287439,-7.68532 z"
         sodipodi:nodetypes="cccccccssssccc" />
      <path
         style="opacity:1;mix-blend-mode:normal;fill:#0ebb2e;fill-opacity:0.650947;stroke:none;stroke-width:0.0807087px;stroke-linecap:butt;stroke-linejoin:miter;stroke-opacity:1;filter:url(#filter39509)"
         d="m 20.31969,98.584517 c -1.296386,0.511832 -2.411458,1.816143 -3.83083,1.612943 -1.739756,-0.249051 -1.456197,-2.569243 -3.065184,-3.088029 -1.518912,-0.48974 -3.5701817,0.899793 -5.0497327,0.353999 -1.7940147,-0.661791 -3.3530518,-2.330176 -2.9776704,-3.786382 0.3188211,-1.23679 2.2812724,-2.291365 4.0026634,-2.500869 2.1173147,-0.257688 4.1071917,0.9031 5.8323227,1.767069 0.864402,0.432901 1.166775,1.39074 2.157139,1.658458 1.304399,0.352606 2.996648,-0.744645 4.223104,-0.274721 1.374814,0.526774 2.702027,1.874381 2.204145,2.966349 -0.406978,0.892592 -2.346942,0.837544 -3.495957,1.291183 z"
         id="path39291"
         sodipodi:nodetypes="sssssssssss" />
      <path
         style="opacity:1;fill:#0ebb2e;fill-opacity:0.650947;stroke:none;stroke-width:0.0807087px;stroke-linecap:butt;stroke-linejoin:miter;stroke-opacity:1;filter:url(#filter39509)"
         d="m 105.66641,103.15129 c -1.29639,0.51184 -2.41146,1.81615 -3.83083,1.61295 -1.73976,-0.24905 -1.4562,-2.56925 -3.065185,-3.08803 -1.51892,-0.48974 -3.57019,0.89979 -5.049737,0.354 -1.794014,-0.66179 -3.353051,-2.330179 -2.97767,-3.786385 0.318821,-1.23679 2.281272,-2.291365 4.002663,-2.500869 2.117314,-0.257688 4.107194,0.9031 5.832319,1.767069 0.86441,0.432901 1.16678,1.39074 2.15714,1.658458 1.3044,0.352606 2.99666,-0.744645 4.22311,-0.274721 1.37482,0.526774 2.70203,1.874378 2.20415,2.966348 -0.40698,0.89259 -2.34694,0.83754 -3.49596,1.29118 z"
         id="path39891"
         sodipodi:nodetypes="sssssssssss"
         transform="matrix(0.87575919,-0.43912944,0.53069964,0.87575919,-40.779168,56.357918)" />
      <path
         style="opacity:1;fill:#0ebb2e;fill-opacity:0.650947;stroke:none;stroke-width:0.0807087px;stroke-linecap:butt;stroke-linejoin:miter;stroke-opacity:1;filter:url(#filter39509)"
         d="m 105.66641,103.15129 c -1.29639,0.51184 -2.41146,1.81615 -3.83083,1.61295 -1.73976,-0.24905 -1.4562,-2.56925 -3.065185,-3.08803 -1.51892,-0.48974 -3.57019,0.89979 -5.049737,0.354 -1.794014,-0.66179 -3.353051,-2.330179 -2.97767,-3.786385 0.318821,-1.23679 2.281272,-2.291365 4.002663,-2.500869 2.117314,-0.257688 4.107194,0.9031 5.832319,1.767069 0.86441,0.432901 1.16678,1.39074 2.15714,1.658458 1.3044,0.352606 2.99666,-0.744645 4.22311,-0.274721 1.37482,0.526774 2.70203,1.874378 2.20415,2.966348 -0.40698,0.89259 -2.34694,0.83754 -3.49596,1.29118 z"
         id="path39893"
         sodipodi:nodetypes="sssssssssss"
         transform="matrix(0.31022092,-0.86476709,1.0450941,0.31022092,-56.183488,160.71809)" />
    </g>
    <path
       id="path26971"
       style="opacity:1;fill:#e3df00;fill-opacity:1;stroke:none;stroke-width:0.11399"
       d="M 0.03668788,0.42633012 V 38.503807 A 36.625919,34.446897 0 0 0 6.7865956,39.118455 36.625919,34.446897 0 0 0 43.412545,4.6715743 36.625919,34.446897 0 0 0 43.131461,0.42633012 Z" />
    <g
       id="g38944"
       transform="matrix(0.71951935,0.240153,-0.25255603,0.68418375,103.31283,-30.83392)">
      <path
         style="fill:#fffff9;fill-opacity:1;stroke:none;stroke-width:0.34805px;stroke-linecap:butt;stroke-linejoin:miter;stroke-opacity:1"
         d="m 276.02209,21.625116 c -6.24165,-3.270877 -13.09054,-3.546778 -17.86692,-2.949224 -6.72988,0.982368 -6.21278,5.664488 -12.67747,7.702448 -7.59823,2.395303 -12.27522,-6.015392 -20.12328,-4.6118 -6.49072,1.160838 -12.20136,4.848197 -13.03197,9.82605 -0.60232,3.60969 3.36075,9.748136 4.63279,11.571757 0,0 0.0754,0.107825 0.10922,0.155442 0,0 0.1179,0.320713 0.26614,0.37557 4.78481,1.770018 1.33397,13.901902 5.92627,16.1867 15.40383,7.663833 22.9433,-6.447331 29.02437,-7.084765 15.71686,-0.05631 19.33504,-8.221335 29.15903,-10.277433 6.15059,-1.635507 10.97259,-7.579382 13.0343,-13.305228 1.46114,-4.057932 -1.59896,-6.814241 -5.37319,-9.182354 -5.02476,-3.152749 -7.10139,2.324821 -13.07931,1.592846 z"
         id="path28136"
         sodipodi:nodetypes="ccsssssssccsssc" />
      <path
         id="path33126"
         style="fill:#d6d6d4;fill-opacity:1;stroke:none;stroke-width:0.999999px;stroke-linecap:butt;stroke-linejoin:miter;stroke-opacity:1"
         d="m 1108.8223,120.06641 c -16.6867,8.21421 -43.5193,21.36769 -60.3321,29.26953 -25.3886,11.93245 -49.36878,28.20204 -76.6445,34.75976 -27.3236,6.56925 -53.40543,24.30501 -76.68554,28.23047 -17.39683,2.63768 -35.36953,-8.65915 -52.5586,-4.89844 -2.35255,0.51471 -5.0831,1.66375 -7.86718,3.09766 1.39528,7.24144 3.85783,13.2045 9.07226,15.79883 58.2192,28.96567 86.71369,-24.36619 109.69727,-26.77539 59.40229,-0.21283 73.07889,-31.07463 110.20899,-38.84571 19.7905,-5.26251 35.9366,-22.32613 45.1094,-40.63671 z"
         transform="scale(0.26458333)" />
      <path
         style="opacity:1;fill:#f4f4f4;fill-opacity:1;stroke:none;stroke-width:0.14908px;stroke-linecap:butt;stroke-linejoin:miter;stroke-opacity:1"
         d="m 265.75125,24.65099 c -3.4857,-0.394754 -7.06742,0.288081 -9.50733,1.030371 -3.42752,1.093183 -2.8151,2.611706 -6.02727,4.030406 -3.7754,1.667462 -6.82457,-0.635781 -10.80263,0.725935 -3.29007,1.126208 -5.98911,3.015072 -6.05581,4.785861 -0.0484,1.28409 2.46284,2.902828 3.25811,3.373002 0,0 0.0471,0.02778 0.0682,0.04 0,0 0.0849,0.09466 0.16595,0.09636 2.61801,0.05423 1.71365,4.531528 4.26932,4.780959 8.57241,0.836659 11.45767,-4.770441 14.57312,-5.673948 8.16876,-1.799198 9.45118,-4.95928 14.40888,-6.764596 3.07837,-1.247566 5.14974,-3.795843 5.80175,-5.958027 0.46207,-1.532347 -1.33144,-2.11415 -3.46781,-2.484308 -2.84423,-0.492801 -3.52221,1.587444 -6.68448,2.018004 z"
         id="path35129"
         sodipodi:nodetypes="ccsssssssccsssc" />
    </g>
    <g
       id="g38952"
       transform="matrix(-0.4904576,0.22054972,0.23154139,0.4510451,203.28446,22.193909)">
      <path
         style="fill:#fffff9;fill-opacity:1;stroke:none;stroke-width:0.34805px;stroke-linecap:butt;stroke-linejoin:miter;stroke-opacity:1"
         d="m 276.02209,21.625116 c -6.24165,-3.270877 -13.09054,-3.546778 -17.86692,-2.949224 -6.72988,0.982368 -6.21278,5.664488 -12.67747,7.702448 -7.59823,2.395303 -12.27522,-6.015392 -20.12328,-4.6118 -6.49072,1.160838 -12.20136,4.848197 -13.03197,9.82605 -0.60232,3.60969 3.36075,9.748136 4.63279,11.571757 0,0 0.0754,0.107825 0.10922,0.155442 0,0 0.1179,0.320713 0.26614,0.37557 4.78481,1.770018 1.33397,13.901902 5.92627,16.1867 15.40383,7.663833 22.9433,-6.447331 29.02437,-7.084765 15.71686,-0.05631 19.33504,-8.221335 29.15903,-10.277433 6.15059,-1.635507 10.97259,-7.579382 13.0343,-13.305228 1.46114,-4.057932 -1.59896,-6.814241 -5.37319,-9.182354 -5.02476,-3.152749 -7.10139,2.324821 -13.07931,1.592846 z"
         id="path38946"
         sodipodi:nodetypes="ccsssssssccsssc" />
      <path
         id="path38948"
         style="fill:#d6d6d4;fill-opacity:1;stroke:none;stroke-width:0.999999px;stroke-linecap:butt;stroke-linejoin:miter;stroke-opacity:1"
         d="m 1108.8223,120.06641 c -16.6867,8.21421 -43.5193,21.36769 -60.3321,29.26953 -25.3886,11.93245 -49.36878,28.20204 -76.6445,34.75976 -27.3236,6.56925 -53.40543,24.30501 -76.68554,28.23047 -17.39683,2.63768 -35.36953,-8.65915 -52.5586,-4.89844 -2.35255,0.51471 -5.0831,1.66375 -7.86718,3.09766 1.39528,7.24144 3.85783,13.2045 9.07226,15.79883 58.2192,28.96567 86.71369,-24.36619 109.69727,-26.77539 59.40229,-0.21283 73.07889,-31.07463 110.20899,-38.84571 19.7905,-5.26251 35.9366,-22.32613 45.1094,-40.63671 z"
         transform="scale(0.26458333)" />
      <path
         style="opacity:1;fill:#f4f4f4;fill-opacity:1;stroke:none;stroke-width:0.14908px;stroke-linecap:butt;stroke-linejoin:miter;stroke-opacity:1"
         d="m 265.75125,24.65099 c -3.4857,-0.394754 -7.06742,0.288081 -9.50733,1.030371 -3.42752,1.093183 -2.8151,2.611706 -6.02727,4.030406 -3.7754,1.667462 -6.82457,-0.635781 -10.80263,0.725935 -3.29007,1.126208 -5.98911,3.015072 -6.05581,4.785861 -0.0484,1.28409 2.46284,2.902828 3.25811,3.373002 0,0 0.0471,0.02778 0.0682,0.04 0,0 0.0849,0.09466 0.16595,0.09636 2.61801,0.05423 1.71365,4.531528 4.26932,4.780959 8.57241,0.836659 11.45767,-4.770441 14.57312,-5.673948 8.16876,-1.799198 9.45118,-4.95928 14.40888,-6.764596 3.07837,-1.247566 5.14974,-3.795843 5.80175,-5.958027 0.46207,-1.532347 -1.33144,-2.11415 -3.46781,-2.484308 -2.84423,-0.492801 -3.52221,1.587444 -6.68448,2.018004 z"
         id="path38950"
         sodipodi:nodetypes="ccsssssssccsssc" />
    </g>
    <g
       id="g38960"
       transform="matrix(-0.66006658,0.14838049,0.31161254,0.30345218,319.99775,17.074522)">
      <path
         style="fill:#fffff9;fill-opacity:1;stroke:none;stroke-width:0.34805px;stroke-linecap:butt;stroke-linejoin:miter;stroke-opacity:1"
         d="m 276.02209,21.625116 c -6.24165,-3.270877 -13.09054,-3.546778 -17.86692,-2.949224 -6.72988,0.982368 -6.21278,5.664488 -12.67747,7.702448 -7.59823,2.395303 -12.27522,-6.015392 -20.12328,-4.6118 -6.49072,1.160838 -12.20136,4.848197 -13.03197,9.82605 -0.60232,3.60969 3.36075,9.748136 4.63279,11.571757 0,0 0.0754,0.107825 0.10922,0.155442 0,0 0.1179,0.320713 0.26614,0.37557 4.78481,1.770018 1.33397,13.901902 5.92627,16.1867 15.40383,7.663833 22.9433,-6.447331 29.02437,-7.084765 15.71686,-0.05631 19.33504,-8.221335 29.15903,-10.277433 6.15059,-1.635507 10.97259,-7.579382 13.0343,-13.305228 1.46114,-4.057932 -1.59896,-6.814241 -5.37319,-9.182354 -5.02476,-3.152749 -7.10139,2.324821 -13.07931,1.592846 z"
         id="path38954"
         sodipodi:nodetypes="ccsssssssccsssc" />
      <path
         id="path38956"
         style="fill:#d6d6d4;fill-opacity:1;stroke:none;stroke-width:0.999999px;stroke-linecap:butt;stroke-linejoin:miter;stroke-opacity:1"
         d="m 1108.8223,120.06641 c -16.6867,8.21421 -43.5193,21.36769 -60.3321,29.26953 -25.3886,11.93245 -49.36878,28.20204 -76.6445,34.75976 -27.3236,6.56925 -53.40543,24.30501 -76.68554,28.23047 -17.39683,2.63768 -35.36953,-8.65915 -52.5586,-4.89844 -2.35255,0.51471 -5.0831,1.66375 -7.86718,3.09766 1.39528,7.24144 3.85783,13.2045 9.07226,15.79883 58.2192,28.96567 86.71369,-24.36619 109.69727,-26.77539 59.40229,-0.21283 73.07889,-31.07463 110.20899,-38.84571 19.7905,-5.26251 35.9366,-22.32613 45.1094,-40.63671 z"
         transform="scale(0.26458333)" />
      <path
         style="opacity:1;fill:#f4f4f4;fill-opacity:1;stroke:none;stroke-width:0.121422px;stroke-linecap:butt;stroke-linejoin:miter;stroke-opacity:1"
         d="m 260.50501,28.548887 c -2.58334,-0.835988 -5.0973,-0.675262 -6.77405,-0.306135 -2.34895,0.565788 -1.70796,2.070341 -3.85843,2.969895 -2.52753,1.057288 -5.04015,-1.508318 -7.75439,-0.764576 -2.24483,0.615111 -2.93095,3.363067 -3.78162,3.673838 -4.06949,1.486682 -0.74852,3.250118 2.80253,3.595769 0,0 0.0378,0.03233 0.0547,0.04659 0,0 0.0739,0.100037 0.13301,0.112469 1.90899,0.400924 1.83006,4.474604 3.71897,5.050068 6.33589,1.930259 7.70806,-2.93698 9.85478,-3.366802 5.70231,-0.593165 6.22597,-3.382232 9.59465,-4.410556 2.07536,-0.757119 3.25118,-2.867498 3.4457,-4.805977 0.13784,-1.373808 -1.24027,-2.158732 -2.84014,-2.791226 -2.12996,-0.842058 -2.35392,1.016182 -4.59572,0.996655 z"
         id="path38958"
         sodipodi:nodetypes="ccsssssssccsssc" />
    </g>
    <g
       id="g41171"
       transform="matrix(-0.51369971,0,0,0.64844922,199.95886,68.066915)">
      <path
         style="fill:#864a0b;fill-opacity:1;stroke:none;stroke-width:0.264583px;stroke-linecap:butt;stroke-linejoin:miter;stroke-opacity:1"
         d="M 60.409047,170.07086 56.100535,116.8809 c 0,0 15.93726,-9.32704 23.620127,-14.92529 2.69902,-1.966686 5.56696,-8.329586 5.56696,-8.329586 0,0 -21.357796,15.631576 -35.110736,16.009486 -13.79309,3.12895 -33.377576,-2.8062 -33.377576,-2.8062 l -17.24522698,0.16458 50.18457998,9.03886 0.942126,14.07474 -2.137104,11.18269 -2.480457,15.77279 -4.449009,13.67807 c 6.88901,-1.65059 11.908715,-1.20476 18.792235,-0.6672 l 0.0019,0.003"
         id="path41153"
         sodipodi:nodetypes="ccsccccccccccc" />
      <path
         style="fill:#0a962c;fill-opacity:1;stroke:none;stroke-width:0.264583px;stroke-linecap:butt;stroke-linejoin:miter;stroke-opacity:1"
         d="m 71.232921,95.669685 c 1.945277,-3.556476 1.745443,-9.379601 5.530477,-10.830856 4.639409,-1.778838 9.00072,6.063011 13.916658,5.340591 4.640737,-0.681977 6.462217,-8.163679 11.131694,-8.608092 5.66194,-0.538869 12.95218,2.490118 15.22426,7.704093 1.92973,4.428354 -0.40854,10.707059 -4.01065,13.925599 -4.4306,3.95881 -11.63574,3.19139 -17.573617,2.98155 -2.975257,-0.10514 -5.764087,-2.72155 -8.678089,-2.11181 -3.837998,0.80309 -5.44706,6.81831 -9.355714,7.13072 -4.381453,0.3502 -10.430028,-1.9958 -11.623902,-6.22598 -0.975891,-3.45782 3.714745,-6.153635 5.438883,-9.305815 z"
         id="path41155"
         sodipodi:nodetypes="sssssssssss" />
      <path
         style="fill:#0a962c;fill-opacity:1;stroke:none;stroke-width:0.17369px;stroke-linecap:butt;stroke-linejoin:miter;stroke-opacity:1"
         d="m 21.445319,114.00049 c -2.800299,0.89308 -5.41485,3.57955 -8.298845,2.86215 -3.5349829,-0.87932 -2.396246,-5.97711 -5.5967787,-7.4307 -3.0213587,-1.37223 -7.59040835,1.32779 -10.517088,-0.16148 -3.548722,-1.8058 -6.3721084,-5.80223 -5.2495555,-8.96468 0.9534108,-2.685938 5.2591355,-4.658988 8.8654492,-4.801148 4.4357725,-0.17485 8.2702322,2.7755 11.628464,5.017218 1.682691,1.12324 2.079138,3.30645 4.061431,4.0866 2.610857,1.02753 6.368515,-1.09095 8.790387,0.18241 2.714828,1.42739 5.135702,4.66815 3.846862,6.99899 -1.05352,1.90527 -5.048363,1.41909 -7.530326,2.21064 z"
         id="path41157"
         sodipodi:nodetypes="sssssssssss" />
      <path
         id="path41161"
         style="fill:#196d1f;fill-opacity:1;stroke:none;stroke-width:0.264583px;stroke-linecap:butt;stroke-linejoin:miter;stroke-opacity:1"
         d="m -8.0471602,101.20272 c -0.09173,0.001 -0.23065,0.005 -0.383956,0.0114 -0.372825,2.98371 2.2475375,6.41976 5.4637485,8.05636 2.92668065,1.48927 7.4958283,-1.21049 10.517187,0.16174 3.2005327,1.4536 2.0615738,6.55124 5.5965567,7.43056 2.883995,0.7174 5.49842,-1.96928 8.29872,-2.86236 2.038059,-0.64998 5.095036,-0.43939 6.707084,-1.39784 -0.911659,-0.78296 -2.019925,-1.57888 -2.930054,-1.75545 -3.834601,-0.74394 -7.699369,4.3058 -11.349696,2.91558 -2.325905,-0.88582 -1.987825,-4.99043 -4.1640869,-6.19807 -2.6480908,-1.46947 -6.2116724,0.66106 -9.0805811,-0.30903 -3.2983767,-1.11531 -8.5126584,-6.05286 -8.5126584,-6.05286 0,0 -0.05831,-10e-4 -0.1622638,0 z" />
      <path
         id="path41163"
         style="fill:#603508;fill-opacity:1;stroke:none;stroke-width:0.264583px;stroke-linecap:butt;stroke-linejoin:miter;stroke-opacity:1"
         d="m 69.75459,106.68393 2.094445,0.56689 c -7.49336,4.79649 -15.748392,9.6299 -15.748392,9.6299 l 4.308264,53.19003 -5.16e-4,0.006 -0.0021,-0.003 c -1.015941,-0.0793 -3.749203,-0.17035 -4.695949,-0.23925 0,0 0.397903,-4.28196 0.0664,-9.4765 -0.422855,-6.62595 0.198183,-14.80491 -0.101259,-19.94642 -0.299992,-5.15094 0.772484,-9.59538 -0.05696,-14.59645 -0.55687,-3.35761 -1.047638,-6.42555 -1.279429,-10.09785 l -0.08333,-1.32023 15.287439,-7.68532 z"
         sodipodi:nodetypes="cccccccssssccc" />
      <path
         id="path41159"
         style="fill:#196d1f;fill-opacity:1;stroke:none;stroke-width:0.264583px;stroke-linecap:butt;stroke-linejoin:miter;stroke-opacity:1"
         d="m 117.60161,91.236616 c -0.85198,0.578326 -1.66787,1.199081 -2.3549,1.659849 -3.96073,2.65633 -5.19803,8.648065 -9.50691,10.691845 -2.42576,1.15059 -5.4202,0.88873 -8.047577,0.33642 -3.287637,-0.69111 -5.705837,-4.785675 -9.047505,-4.44004 -5.057335,0.5231 -6.943944,9.3565 -12.028207,9.3803 -3.546564,0.0166 -4.912111,-6.22563 -8.450646,-6.46472 -0.704548,-0.0476 -1.510067,0.17402 -2.330608,0.53847 -0.200748,0.65404 -0.240985,1.32918 -0.04134,2.03657 1.193874,4.23018 7.242643,6.57618 11.624098,6.22598 3.908652,-0.31242 5.517501,-6.32723 9.3555,-7.13032 2.914001,-0.60974 5.702761,2.00636 8.678018,2.1115 5.937877,0.20984 13.143007,0.9776 17.573607,-2.98121 3.09659,-2.76685 5.25642,-7.794435 4.57647,-11.964644 z" />
      <path
         style="opacity:1;mix-blend-mode:normal;fill:#0ebb2e;fill-opacity:0.650947;stroke:none;stroke-width:0.0807087px;stroke-linecap:butt;stroke-linejoin:miter;stroke-opacity:1;filter:url(#filter39509)"
         d="m 10.0186,105.11291 c -1.2963858,0.51183 -2.4114577,1.81615 -3.8308296,1.61295 -1.7397558,-0.24906 -1.4561968,-2.56925 -3.0651837,-3.08803 -1.5189118,-0.48974 -3.57018165,0.89979 -5.0497325,0.354 -1.7940147,-0.6618 -3.3530518,-2.33018 -2.9776704,-3.78639 0.3188211,-1.23679 2.2812724,-2.291362 4.00266325,-2.500866 2.11731485,-0.257688 4.10719165,0.903096 5.83232245,1.767066 0.864402,0.4329 1.1667749,1.39074 2.1571388,1.65846 1.3043989,0.35261 2.9966477,-0.74464 4.2231037,-0.27472 1.374814,0.52677 2.702027,1.87438 2.204145,2.96635 -0.406978,0.89259 -2.346942,0.83754 -3.495957,1.29118 z"
         id="path41165"
         sodipodi:nodetypes="sssssssssss" />
      <path
         style="opacity:1;fill:#0ebb2e;fill-opacity:0.650947;stroke:none;stroke-width:0.0807087px;stroke-linecap:butt;stroke-linejoin:miter;stroke-opacity:1;filter:url(#filter39509)"
         d="m 105.66641,103.15129 c -1.29639,0.51184 -2.41146,1.81615 -3.83083,1.61295 -1.73976,-0.24905 -1.4562,-2.56925 -3.065185,-3.08803 -1.51892,-0.48974 -3.57019,0.89979 -5.049737,0.354 -1.794014,-0.66179 -3.353051,-2.330179 -2.97767,-3.786385 0.318821,-1.23679 2.281272,-2.291365 4.002663,-2.500869 2.117314,-0.257688 4.107194,0.9031 5.832319,1.767069 0.86441,0.432901 1.16678,1.39074 2.15714,1.658458 1.3044,0.352606 2.99666,-0.744645 4.22311,-0.274721 1.37482,0.526774 2.70203,1.874378 2.20415,2.966348 -0.40698,0.89259 -2.34694,0.83754 -3.49596,1.29118 z"
         id="path41167"
         sodipodi:nodetypes="sssssssssss"
         transform="matrix(0.87575919,-0.43912944,0.53069964,0.87575919,-40.779168,49.013473)" />
      <path
         style="opacity:1;fill:#0ebb2e;fill-opacity:0.650947;stroke:none;stroke-width:0.0807087px;stroke-linecap:butt;stroke-linejoin:miter;stroke-opacity:1;filter:url(#filter39509)"
         d="m 105.66641,103.15129 c -1.29639,0.51184 -2.41146,1.81615 -3.83083,1.61295 -1.73976,-0.24905 -1.4562,-2.56925 -3.065185,-3.08803 -1.51892,-0.48974 -3.57019,0.89979 -5.049737,0.354 -1.794014,-0.66179 -3.353051,-2.330179 -2.97767,-3.786385 0.318821,-1.23679 2.281272,-2.291365 4.002663,-2.500869 2.117314,-0.257688 4.107194,0.9031 5.832319,1.767069 0.86441,0.432901 1.16678,1.39074 2.15714,1.658458 1.3044,0.352606 2.99666,-0.744645 4.22311,-0.274721 1.37482,0.526774 2.70203,1.874378 2.20415,2.966348 -0.40698,0.89259 -2.34694,0.83754 -3.49596,1.29118 z"
         id="path41169"
         sodipodi:nodetypes="sssssssssss"
         transform="matrix(0.31022092,-0.86476709,1.0450941,0.31022092,-56.183488,153.37364)" />
    </g>
    <g
       id="g41290"
       transform="matrix(-0.38924286,0,0,0.45651194,310.63465,95.450076)">
      <path
         style="fill:#864a0b;fill-opacity:1;stroke:none;stroke-width:0.264583px;stroke-linecap:butt;stroke-linejoin:miter;stroke-opacity:1"
         d="M 60.409047,170.07086 56.100535,116.8809 c 0,0 15.93726,-9.32704 23.620127,-14.92529 2.69902,-1.966686 5.56696,-8.329586 5.56696,-8.329586 0,0 -21.357796,15.631576 -35.110736,16.009486 -13.79309,3.12895 -33.377576,-2.8062 -33.377576,-2.8062 l -17.24522698,0.16458 50.18457998,9.03886 0.942126,14.07474 -2.137104,11.18269 -2.480457,15.77279 -4.449009,13.67807 c 6.88901,-1.65059 11.908715,-1.20476 18.792235,-0.6672 l 0.0019,0.003"
         id="path41272"
         sodipodi:nodetypes="ccsccccccccccc" />
      <path
         style="fill:#0a962c;fill-opacity:1;stroke:none;stroke-width:0.264583px;stroke-linecap:butt;stroke-linejoin:miter;stroke-opacity:1"
         d="m 71.232921,95.669685 c 1.945277,-3.556476 1.745443,-9.379601 5.530477,-10.830856 4.639409,-1.778838 9.00072,6.063011 13.916658,5.340591 4.640737,-0.681977 6.462217,-8.163679 11.131694,-8.608092 5.66194,-0.538869 12.95218,2.490118 15.22426,7.704093 1.92973,4.428354 -0.40854,10.707059 -4.01065,13.925599 -4.4306,3.95881 -11.63574,3.19139 -17.573617,2.98155 -2.975257,-0.10514 -5.764087,-2.72155 -8.678089,-2.11181 -3.837998,0.80309 -5.44706,6.81831 -9.355714,7.13072 -4.381453,0.3502 -10.430028,-1.9958 -11.623902,-6.22598 -0.975891,-3.45782 3.714745,-6.153635 5.438883,-9.305815 z"
         id="path41274"
         sodipodi:nodetypes="sssssssssss" />
      <path
         style="fill:#0a962c;fill-opacity:1;stroke:none;stroke-width:0.17369px;stroke-linecap:butt;stroke-linejoin:miter;stroke-opacity:1"
         d="m 21.445319,114.00049 c -2.800299,0.89308 -5.41485,3.57955 -8.298845,2.86215 -3.5349829,-0.87932 -2.396246,-5.97711 -5.5967787,-7.4307 -3.0213587,-1.37223 -7.59040835,1.32779 -10.517088,-0.16148 -3.548722,-1.8058 -6.3721084,-5.80223 -5.2495555,-8.96468 0.9534108,-2.685938 5.2591355,-4.658988 8.8654492,-4.801148 4.4357725,-0.17485 8.2702322,2.7755 11.628464,5.017218 1.682691,1.12324 2.079138,3.30645 4.061431,4.0866 2.610857,1.02753 6.368515,-1.09095 8.790387,0.18241 2.714828,1.42739 5.135702,4.66815 3.846862,6.99899 -1.05352,1.90527 -5.048363,1.41909 -7.530326,2.21064 z"
         id="path41276"
         sodipodi:nodetypes="sssssssssss" />
      <path
         id="path41278"
         style="fill:#196d1f;fill-opacity:1;stroke:none;stroke-width:0.264583px;stroke-linecap:butt;stroke-linejoin:miter;stroke-opacity:1"
         d="m -8.0471602,101.20272 c -0.09173,0.001 -0.23065,0.005 -0.383956,0.0114 -0.372825,2.98371 2.2475375,6.41976 5.4637485,8.05636 2.92668065,1.48927 7.4958283,-1.21049 10.517187,0.16174 3.2005327,1.4536 2.0615738,6.55124 5.5965567,7.43056 2.883995,0.7174 5.49842,-1.96928 8.29872,-2.86236 2.038059,-0.64998 5.095036,-0.43939 6.707084,-1.39784 -0.911659,-0.78296 -2.019925,-1.57888 -2.930054,-1.75545 -3.834601,-0.74394 -7.699369,4.3058 -11.349696,2.91558 -2.325905,-0.88582 -1.987825,-4.99043 -4.1640869,-6.19807 -2.6480908,-1.46947 -6.2116724,0.66106 -9.0805811,-0.30903 -3.2983767,-1.11531 -8.5126584,-6.05286 -8.5126584,-6.05286 0,0 -0.05831,-10e-4 -0.1622638,0 z" />
      <path
         id="path41280"
         style="fill:#603508;fill-opacity:1;stroke:none;stroke-width:0.264583px;stroke-linecap:butt;stroke-linejoin:miter;stroke-opacity:1"
         d="m 69.75459,106.68393 2.094445,0.56689 c -7.49336,4.79649 -15.748392,9.6299 -15.748392,9.6299 l 4.308264,53.19003 -5.16e-4,0.006 -0.0021,-0.003 c -1.015941,-0.0793 -3.749203,-0.17035 -4.695949,-0.23925 0,0 0.397903,-4.28196 0.0664,-9.4765 -0.422855,-6.62595 0.198183,-14.80491 -0.101259,-19.94642 -0.299992,-5.15094 0.772484,-9.59538 -0.05696,-14.59645 -0.55687,-3.35761 -1.047638,-6.42555 -1.279429,-10.09785 l -0.08333,-1.32023 15.287439,-7.68532 z"
         sodipodi:nodetypes="cccccccssssccc" />
      <path
         id="path41282"
         style="fill:#196d1f;fill-opacity:1;stroke:none;stroke-width:0.264583px;stroke-linecap:butt;stroke-linejoin:miter;stroke-opacity:1"
         d="m 117.60161,91.236616 c -0.85198,0.578326 -1.66787,1.199081 -2.3549,1.659849 -3.96073,2.65633 -5.19803,8.648065 -9.50691,10.691845 -2.42576,1.15059 -5.4202,0.88873 -8.047577,0.33642 -3.287637,-0.69111 -5.705837,-4.785675 -9.047505,-4.44004 -5.057335,0.5231 -6.943944,9.3565 -12.028207,9.3803 -3.546564,0.0166 -4.912111,-6.22563 -8.450646,-6.46472 -0.704548,-0.0476 -1.510067,0.17402 -2.330608,0.53847 -0.200748,0.65404 -0.240985,1.32918 -0.04134,2.03657 1.193874,4.23018 7.242643,6.57618 11.624098,6.22598 3.908652,-0.31242 5.517501,-6.32723 9.3555,-7.13032 2.914001,-0.60974 5.702761,2.00636 8.678018,2.1115 5.937877,0.20984 13.143007,0.9776 17.573607,-2.98121 3.09659,-2.76685 5.25642,-7.794435 4.57647,-11.964644 z" />
      <path
         style="opacity:1;mix-blend-mode:normal;fill:#0ebb2e;fill-opacity:0.650947;stroke:none;stroke-width:0.0807087px;stroke-linecap:butt;stroke-linejoin:miter;stroke-opacity:1;filter:url(#filter39509)"
         d="m 10.0186,105.11291 c -1.2963858,0.51183 -2.4114577,1.81615 -3.8308296,1.61295 -1.7397558,-0.24906 -1.4561968,-2.56925 -3.0651837,-3.08803 -1.5189118,-0.48974 -3.57018165,0.89979 -5.0497325,0.354 -1.7940147,-0.6618 -3.3530518,-2.33018 -2.9776704,-3.78639 0.3188211,-1.23679 2.2812724,-2.291362 4.00266325,-2.500866 2.11731485,-0.257688 4.10719165,0.903096 5.83232245,1.767066 0.864402,0.4329 1.1667749,1.39074 2.1571388,1.65846 1.3043989,0.35261 2.9966477,-0.74464 4.2231037,-0.27472 1.374814,0.52677 2.702027,1.87438 2.204145,2.96635 -0.406978,0.89259 -2.346942,0.83754 -3.495957,1.29118 z"
         id="path41284"
         sodipodi:nodetypes="sssssssssss" />
      <path
         style="opacity:1;fill:#0ebb2e;fill-opacity:0.650947;stroke:none;stroke-width:0.0807087px;stroke-linecap:butt;stroke-linejoin:miter;stroke-opacity:1;filter:url(#filter39509)"
         d="m 105.66641,103.15129 c -1.29639,0.51184 -2.41146,1.81615 -3.83083,1.61295 -1.73976,-0.24905 -1.4562,-2.56925 -3.065185,-3.08803 -1.51892,-0.48974 -3.57019,0.89979 -5.049737,0.354 -1.794014,-0.66179 -3.353051,-2.330179 -2.97767,-3.786385 0.318821,-1.23679 2.281272,-2.291365 4.002663,-2.500869 2.117314,-0.257688 4.107194,0.9031 5.832319,1.767069 0.86441,0.432901 1.16678,1.39074 2.15714,1.658458 1.3044,0.352606 2.99666,-0.744645 4.22311,-0.274721 1.37482,0.526774 2.70203,1.874378 2.20415,2.966348 -0.40698,0.89259 -2.34694,0.83754 -3.49596,1.29118 z"
         id="path41286"
         sodipodi:nodetypes="sssssssssss"
         transform="matrix(0.87575919,-0.43912944,0.53069964,0.87575919,-40.779168,49.013473)" />
      <path
         style="opacity:1;fill:#0ebb2e;fill-opacity:0.650947;stroke:none;stroke-width:0.0807087px;stroke-linecap:butt;stroke-linejoin:miter;stroke-opacity:1;filter:url(#filter39509)"
         d="m 105.66641,103.15129 c -1.29639,0.51184 -2.41146,1.81615 -3.83083,1.61295 -1.73976,-0.24905 -1.4562,-2.56925 -3.065185,-3.08803 -1.51892,-0.48974 -3.57019,0.89979 -5.049737,0.354 -1.794014,-0.66179 -3.353051,-2.330179 -2.97767,-3.786385 0.318821,-1.23679 2.281272,-2.291365 4.002663,-2.500869 2.117314,-0.257688 4.107194,0.9031 5.832319,1.767069 0.86441,0.432901 1.16678,1.39074 2.15714,1.658458 1.3044,0.352606 2.99666,-0.744645 4.22311,-0.274721 1.37482,0.526774 2.70203,1.874378 2.20415,2.966348 -0.40698,0.89259 -2.34694,0.83754 -3.49596,1.29118 z"
         id="path41288"
         sodipodi:nodetypes="sssssssssss"
         transform="matrix(0.31022092,-0.86476709,1.0450941,0.31022092,-56.183488,153.37364)" />
    </g>
    <g
       id="g41310"
       transform="matrix(-0.38924286,0,0,0.45651194,156.11788,103.91673)">
      <path
         style="fill:#864a0b;fill-opacity:1;stroke:none;stroke-width:0.264583px;stroke-linecap:butt;stroke-linejoin:miter;stroke-opacity:1"
         d="M 60.409047,170.07086 56.100535,116.8809 c 0,0 15.93726,-9.32704 23.620127,-14.92529 2.69902,-1.966686 5.56696,-8.329586 5.56696,-8.329586 0,0 -21.357796,15.631576 -35.110736,16.009486 -13.79309,3.12895 -33.377576,-2.8062 -33.377576,-2.8062 l -17.24522698,0.16458 50.18457998,9.03886 0.942126,14.07474 -2.137104,11.18269 -2.480457,15.77279 -4.449009,13.67807 c 6.88901,-1.65059 11.908715,-1.20476 18.792235,-0.6672 l 0.0019,0.003"
         id="path41292"
         sodipodi:nodetypes="ccsccccccccccc" />
      <path
         style="fill:#0a962c;fill-opacity:1;stroke:none;stroke-width:0.264583px;stroke-linecap:butt;stroke-linejoin:miter;stroke-opacity:1"
         d="m 71.232921,95.669685 c 1.945277,-3.556476 1.745443,-9.379601 5.530477,-10.830856 4.639409,-1.778838 9.00072,6.063011 13.916658,5.340591 4.640737,-0.681977 6.462217,-8.163679 11.131694,-8.608092 5.66194,-0.538869 12.95218,2.490118 15.22426,7.704093 1.92973,4.428354 -0.40854,10.707059 -4.01065,13.925599 -4.4306,3.95881 -11.63574,3.19139 -17.573617,2.98155 -2.975257,-0.10514 -5.764087,-2.72155 -8.678089,-2.11181 -3.837998,0.80309 -5.44706,6.81831 -9.355714,7.13072 -4.381453,0.3502 -10.430028,-1.9958 -11.623902,-6.22598 -0.975891,-3.45782 3.714745,-6.153635 5.438883,-9.305815 z"
         id="path41294"
         sodipodi:nodetypes="sssssssssss" />
      <path
         style="fill:#0a962c;fill-opacity:1;stroke:none;stroke-width:0.17369px;stroke-linecap:butt;stroke-linejoin:miter;stroke-opacity:1"
         d="m 21.445319,114.00049 c -2.800299,0.89308 -5.41485,3.57955 -8.298845,2.86215 -3.5349829,-0.87932 -2.396246,-5.97711 -5.5967787,-7.4307 -3.0213587,-1.37223 -7.59040835,1.32779 -10.517088,-0.16148 -3.548722,-1.8058 -6.3721084,-5.80223 -5.2495555,-8.96468 0.9534108,-2.685938 5.2591355,-4.658988 8.8654492,-4.801148 4.4357725,-0.17485 8.2702322,2.7755 11.628464,5.017218 1.682691,1.12324 2.079138,3.30645 4.061431,4.0866 2.610857,1.02753 6.368515,-1.09095 8.790387,0.18241 2.714828,1.42739 5.135702,4.66815 3.846862,6.99899 -1.05352,1.90527 -5.048363,1.41909 -7.530326,2.21064 z"
         id="path41296"
         sodipodi:nodetypes="sssssssssss" />
      <path
         id="path41298"
         style="fill:#196d1f;fill-opacity:1;stroke:none;stroke-width:0.264583px;stroke-linecap:butt;stroke-linejoin:miter;stroke-opacity:1"
         d="m -8.0471602,101.20272 c -0.09173,0.001 -0.23065,0.005 -0.383956,0.0114 -0.372825,2.98371 2.2475375,6.41976 5.4637485,8.05636 2.92668065,1.48927 7.4958283,-1.21049 10.517187,0.16174 3.2005327,1.4536 2.0615738,6.55124 5.5965567,7.43056 2.883995,0.7174 5.49842,-1.96928 8.29872,-2.86236 2.038059,-0.64998 5.095036,-0.43939 6.707084,-1.39784 -0.911659,-0.78296 -2.019925,-1.57888 -2.930054,-1.75545 -3.834601,-0.74394 -7.699369,4.3058 -11.349696,2.91558 -2.325905,-0.88582 -1.987825,-4.99043 -4.1640869,-6.19807 -2.6480908,-1.46947 -6.2116724,0.66106 -9.0805811,-0.30903 -3.2983767,-1.11531 -8.5126584,-6.05286 -8.5126584,-6.05286 0,0 -0.05831,-10e-4 -0.1622638,0 z" />
      <path
         id="path41300"
         style="fill:#603508;fill-opacity:1;stroke:none;stroke-width:0.264583px;stroke-linecap:butt;stroke-linejoin:miter;stroke-opacity:1"
         d="m 69.75459,106.68393 2.094445,0.56689 c -7.49336,4.79649 -15.748392,9.6299 -15.748392,9.6299 l 4.308264,53.19003 -5.16e-4,0.006 -0.0021,-0.003 c -1.015941,-0.0793 -3.749203,-0.17035 -4.695949,-0.23925 0,0 0.397903,-4.28196 0.0664,-9.4765 -0.422855,-6.62595 0.198183,-14.80491 -0.101259,-19.94642 -0.299992,-5.15094 0.772484,-9.59538 -0.05696,-14.59645 -0.55687,-3.35761 -1.047638,-6.42555 -1.279429,-10.09785 l -0.08333,-1.32023 15.287439,-7.68532 z"
         sodipodi:nodetypes="cccccccssssccc" />
      <path
         id="path41302"
         style="fill:#196d1f;fill-opacity:1;stroke:none;stroke-width:0.264583px;stroke-linecap:butt;stroke-linejoin:miter;stroke-opacity:1"
         d="m 117.60161,91.236616 c -0.85198,0.578326 -1.66787,1.199081 -2.3549,1.659849 -3.96073,2.65633 -5.19803,8.648065 -9.50691,10.691845 -2.42576,1.15059 -5.4202,0.88873 -8.047577,0.33642 -3.287637,-0.69111 -5.705837,-4.785675 -9.047505,-4.44004 -5.057335,0.5231 -6.943944,9.3565 -12.028207,9.3803 -3.546564,0.0166 -4.912111,-6.22563 -8.450646,-6.46472 -0.704548,-0.0476 -1.510067,0.17402 -2.330608,0.53847 -0.200748,0.65404 -0.240985,1.32918 -0.04134,2.03657 1.193874,4.23018 7.242643,6.57618 11.624098,6.22598 3.908652,-0.31242 5.517501,-6.32723 9.3555,-7.13032 2.914001,-0.60974 5.702761,2.00636 8.678018,2.1115 5.937877,0.20984 13.143007,0.9776 17.573607,-2.98121 3.09659,-2.76685 5.25642,-7.794435 4.57647,-11.964644 z" />
      <path
         style="opacity:1;mix-blend-mode:normal;fill:#0ebb2e;fill-opacity:0.650947;stroke:none;stroke-width:0.0807087px;stroke-linecap:butt;stroke-linejoin:miter;stroke-opacity:1;filter:url(#filter39509)"
         d="m 10.0186,105.11291 c -1.2963858,0.51183 -2.4114577,1.81615 -3.8308296,1.61295 -1.7397558,-0.24906 -1.4561968,-2.56925 -3.0651837,-3.08803 -1.5189118,-0.48974 -3.57018165,0.89979 -5.0497325,0.354 -1.7940147,-0.6618 -3.3530518,-2.33018 -2.9776704,-3.78639 0.3188211,-1.23679 2.2812724,-2.291362 4.00266325,-2.500866 2.11731485,-0.257688 4.10719165,0.903096 5.83232245,1.767066 0.864402,0.4329 1.1667749,1.39074 2.1571388,1.65846 1.3043989,0.35261 2.9966477,-0.74464 4.2231037,-0.27472 1.374814,0.52677 2.702027,1.87438 2.204145,2.96635 -0.406978,0.89259 -2.346942,0.83754 -3.495957,1.29118 z"
         id="path41304"
         sodipodi:nodetypes="sssssssssss" />
      <path
         style="opacity:1;fill:#0ebb2e;fill-opacity:0.650947;stroke:none;stroke-width:0.0807087px;stroke-linecap:butt;stroke-linejoin:miter;stroke-opacity:1;filter:url(#filter39509)"
         d="m 105.66641,103.15129 c -1.29639,0.51184 -2.41146,1.81615 -3.83083,1.61295 -1.73976,-0.24905 -1.4562,-2.56925 -3.065185,-3.08803 -1.51892,-0.48974 -3.57019,0.89979 -5.049737,0.354 -1.794014,-0.66179 -3.353051,-2.330179 -2.97767,-3.786385 0.318821,-1.23679 2.281272,-2.291365 4.002663,-2.500869 2.117314,-0.257688 4.107194,0.9031 5.832319,1.767069 0.86441,0.432901 1.16678,1.39074 2.15714,1.658458 1.3044,0.352606 2.99666,-0.744645 4.22311,-0.274721 1.37482,0.526774 2.70203,1.874378 2.20415,2.966348 -0.40698,0.89259 -2.34694,0.83754 -3.49596,1.29118 z"
         id="path41306"
         sodipodi:nodetypes="sssssssssss"
         transform="matrix(0.87575919,-0.43912944,0.53069964,0.87575919,-40.779168,49.013473)" />
      <path
         style="opacity:1;fill:#0ebb2e;fill-opacity:0.650947;stroke:none;stroke-width:0.0807087px;stroke-linecap:butt;stroke-linejoin:miter;stroke-opacity:1;filter:url(#filter39509)"
         d="m 105.66641,103.15129 c -1.29639,0.51184 -2.41146,1.81615 -3.83083,1.61295 -1.73976,-0.24905 -1.4562,-2.56925 -3.065185,-3.08803 -1.51892,-0.48974 -3.57019,0.89979 -5.049737,0.354 -1.794014,-0.66179 -3.353051,-2.330179 -2.97767,-3.786385 0.318821,-1.23679 2.281272,-2.291365 4.002663,-2.500869 2.117314,-0.257688 4.107194,0.9031 5.832319,1.767069 0.86441,0.432901 1.16678,1.39074 2.15714,1.658458 1.3044,0.352606 2.99666,-0.744645 4.22311,-0.274721 1.37482,0.526774 2.70203,1.874378 2.20415,2.966348 -0.40698,0.89259 -2.34694,0.83754 -3.49596,1.29118 z"
         id="path41308"
         sodipodi:nodetypes="sssssssssss"
         transform="matrix(0.31022092,-0.86476709,1.0450941,0.31022092,-56.183488,153.37364)" />
    </g>
    <g
       id="g41330"
       transform="matrix(-0.23322925,0,0,0.29440804,269.00856,129.04547)">
      <path
         style="fill:#864a0b;fill-opacity:1;stroke:none;stroke-width:0.264583px;stroke-linecap:butt;stroke-linejoin:miter;stroke-opacity:1"
         d="M 60.409047,170.07086 56.100535,116.8809 c 0,0 15.93726,-9.32704 23.620127,-14.92529 2.69902,-1.966686 5.56696,-8.329586 5.56696,-8.329586 0,0 -21.357796,15.631576 -35.110736,16.009486 -13.79309,3.12895 -33.377576,-2.8062 -33.377576,-2.8062 l -17.24522698,0.16458 50.18457998,9.03886 0.942126,14.07474 -2.137104,11.18269 -2.480457,15.77279 -4.449009,13.67807 c 6.88901,-1.65059 11.908715,-1.20476 18.792235,-0.6672 l 0.0019,0.003"
         id="path41312"
         sodipodi:nodetypes="ccsccccccccccc" />
      <path
         style="fill:#0a962c;fill-opacity:1;stroke:none;stroke-width:0.264583px;stroke-linecap:butt;stroke-linejoin:miter;stroke-opacity:1"
         d="m 71.232921,95.669685 c 1.945277,-3.556476 1.745443,-9.379601 5.530477,-10.830856 4.639409,-1.778838 9.00072,6.063011 13.916658,5.340591 4.640737,-0.681977 6.462217,-8.163679 11.131694,-8.608092 5.66194,-0.538869 12.95218,2.490118 15.22426,7.704093 1.92973,4.428354 -0.40854,10.707059 -4.01065,13.925599 -4.4306,3.95881 -11.63574,3.19139 -17.573617,2.98155 -2.975257,-0.10514 -5.764087,-2.72155 -8.678089,-2.11181 -3.837998,0.80309 -5.44706,6.81831 -9.355714,7.13072 -4.381453,0.3502 -10.430028,-1.9958 -11.623902,-6.22598 -0.975891,-3.45782 3.714745,-6.153635 5.438883,-9.305815 z"
         id="path41314"
         sodipodi:nodetypes="sssssssssss" />
      <path
         style="fill:#0a962c;fill-opacity:1;stroke:none;stroke-width:0.17369px;stroke-linecap:butt;stroke-linejoin:miter;stroke-opacity:1"
         d="m 21.445319,114.00049 c -2.800299,0.89308 -5.41485,3.57955 -8.298845,2.86215 -3.5349829,-0.87932 -2.396246,-5.97711 -5.5967787,-7.4307 -3.0213587,-1.37223 -7.59040835,1.32779 -10.517088,-0.16148 -3.548722,-1.8058 -6.3721084,-5.80223 -5.2495555,-8.96468 0.9534108,-2.685938 5.2591355,-4.658988 8.8654492,-4.801148 4.4357725,-0.17485 8.2702322,2.7755 11.628464,5.017218 1.682691,1.12324 2.079138,3.30645 4.061431,4.0866 2.610857,1.02753 6.368515,-1.09095 8.790387,0.18241 2.714828,1.42739 5.135702,4.66815 3.846862,6.99899 -1.05352,1.90527 -5.048363,1.41909 -7.530326,2.21064 z"
         id="path41316"
         sodipodi:nodetypes="sssssssssss" />
      <path
         id="path41318"
         style="fill:#196d1f;fill-opacity:1;stroke:none;stroke-width:0.264583px;stroke-linecap:butt;stroke-linejoin:miter;stroke-opacity:1"
         d="m -8.0471602,101.20272 c -0.09173,0.001 -0.23065,0.005 -0.383956,0.0114 -0.372825,2.98371 2.2475375,6.41976 5.4637485,8.05636 2.92668065,1.48927 7.4958283,-1.21049 10.517187,0.16174 3.2005327,1.4536 2.0615738,6.55124 5.5965567,7.43056 2.883995,0.7174 5.49842,-1.96928 8.29872,-2.86236 2.038059,-0.64998 5.095036,-0.43939 6.707084,-1.39784 -0.911659,-0.78296 -2.019925,-1.57888 -2.930054,-1.75545 -3.834601,-0.74394 -7.699369,4.3058 -11.349696,2.91558 -2.325905,-0.88582 -1.987825,-4.99043 -4.1640869,-6.19807 -2.6480908,-1.46947 -6.2116724,0.66106 -9.0805811,-0.30903 -3.2983767,-1.11531 -8.5126584,-6.05286 -8.5126584,-6.05286 0,0 -0.05831,-10e-4 -0.1622638,0 z" />
      <path
         id="path41320"
         style="fill:#603508;fill-opacity:1;stroke:none;stroke-width:0.264583px;stroke-linecap:butt;stroke-linejoin:miter;stroke-opacity:1"
         d="m 69.75459,106.68393 2.094445,0.56689 c -7.49336,4.79649 -15.748392,9.6299 -15.748392,9.6299 l 4.308264,53.19003 -5.16e-4,0.006 -0.0021,-0.003 c -1.015941,-0.0793 -3.749203,-0.17035 -4.695949,-0.23925 0,0 0.397903,-4.28196 0.0664,-9.4765 -0.422855,-6.62595 0.198183,-14.80491 -0.101259,-19.94642 -0.299992,-5.15094 0.772484,-9.59538 -0.05696,-14.59645 -0.55687,-3.35761 -1.047638,-6.42555 -1.279429,-10.09785 l -0.08333,-1.32023 15.287439,-7.68532 z"
         sodipodi:nodetypes="cccccccssssccc" />
      <path
         id="path41322"
         style="fill:#196d1f;fill-opacity:1;stroke:none;stroke-width:0.264583px;stroke-linecap:butt;stroke-linejoin:miter;stroke-opacity:1"
         d="m 117.60161,91.236616 c -0.85198,0.578326 -1.66787,1.199081 -2.3549,1.659849 -3.96073,2.65633 -5.19803,8.648065 -9.50691,10.691845 -2.42576,1.15059 -5.4202,0.88873 -8.047577,0.33642 -3.287637,-0.69111 -5.705837,-4.785675 -9.047505,-4.44004 -5.057335,0.5231 -6.943944,9.3565 -12.028207,9.3803 -3.546564,0.0166 -4.912111,-6.22563 -8.450646,-6.46472 -0.704548,-0.0476 -1.510067,0.17402 -2.330608,0.53847 -0.200748,0.65404 -0.240985,1.32918 -0.04134,2.03657 1.193874,4.23018 7.242643,6.57618 11.624098,6.22598 3.908652,-0.31242 5.517501,-6.32723 9.3555,-7.13032 2.914001,-0.60974 5.702761,2.00636 8.678018,2.1115 5.937877,0.20984 13.143007,0.9776 17.573607,-2.98121 3.09659,-2.76685 5.25642,-7.794435 4.57647,-11.964644 z" />
      <path
         style="opacity:1;mix-blend-mode:normal;fill:#0ebb2e;fill-opacity:0.650947;stroke:none;stroke-width:0.0807087px;stroke-linecap:butt;stroke-linejoin:miter;stroke-opacity:1;filter:url(#filter39509)"
         d="m 10.0186,105.11291 c -1.2963858,0.51183 -2.4114577,1.81615 -3.8308296,1.61295 -1.7397558,-0.24906 -1.4561968,-2.56925 -3.0651837,-3.08803 -1.5189118,-0.48974 -3.57018165,0.89979 -5.0497325,0.354 -1.7940147,-0.6618 -3.3530518,-2.33018 -2.9776704,-3.78639 0.3188211,-1.23679 2.2812724,-2.291362 4.00266325,-2.500866 2.11731485,-0.257688 4.10719165,0.903096 5.83232245,1.767066 0.864402,0.4329 1.1667749,1.39074 2.1571388,1.65846 1.3043989,0.35261 2.9966477,-0.74464 4.2231037,-0.27472 1.374814,0.52677 2.702027,1.87438 2.204145,2.96635 -0.406978,0.89259 -2.346942,0.83754 -3.495957,1.29118 z"
         id="path41324"
         sodipodi:nodetypes="sssssssssss" />
      <path
         style="opacity:1;fill:#0ebb2e;fill-opacity:0.650947;stroke:none;stroke-width:0.0807087px;stroke-linecap:butt;stroke-linejoin:miter;stroke-opacity:1;filter:url(#filter39509)"
         d="m 105.66641,103.15129 c -1.29639,0.51184 -2.41146,1.81615 -3.83083,1.61295 -1.73976,-0.24905 -1.4562,-2.56925 -3.065185,-3.08803 -1.51892,-0.48974 -3.57019,0.89979 -5.049737,0.354 -1.794014,-0.66179 -3.353051,-2.330179 -2.97767,-3.786385 0.318821,-1.23679 2.281272,-2.291365 4.002663,-2.500869 2.117314,-0.257688 4.107194,0.9031 5.832319,1.767069 0.86441,0.432901 1.16678,1.39074 2.15714,1.658458 1.3044,0.352606 2.99666,-0.744645 4.22311,-0.274721 1.37482,0.526774 2.70203,1.874378 2.20415,2.966348 -0.40698,0.89259 -2.34694,0.83754 -3.49596,1.29118 z"
         id="path41326"
         sodipodi:nodetypes="sssssssssss"
         transform="matrix(0.87575919,-0.43912944,0.53069964,0.87575919,-40.779168,49.013473)" />
      <path
         style="opacity:1;fill:#0ebb2e;fill-opacity:0.650947;stroke:none;stroke-width:0.0807087px;stroke-linecap:butt;stroke-linejoin:miter;stroke-opacity:1;filter:url(#filter39509)"
         d="m 105.66641,103.15129 c -1.29639,0.51184 -2.41146,1.81615 -3.83083,1.61295 -1.73976,-0.24905 -1.4562,-2.56925 -3.065185,-3.08803 -1.51892,-0.48974 -3.57019,0.89979 -5.049737,0.354 -1.794014,-0.66179 -3.353051,-2.330179 -2.97767,-3.786385 0.318821,-1.23679 2.281272,-2.291365 4.002663,-2.500869 2.117314,-0.257688 4.107194,0.9031 5.832319,1.767069 0.86441,0.432901 1.16678,1.39074 2.15714,1.658458 1.3044,0.352606 2.99666,-0.744645 4.22311,-0.274721 1.37482,0.526774 2.70203,1.874378 2.20415,2.966348 -0.40698,0.89259 -2.34694,0.83754 -3.49596,1.29118 z"
         id="path41328"
         sodipodi:nodetypes="sssssssssss"
         transform="matrix(0.31022092,-0.86476709,1.0450941,0.31022092,-56.183488,153.37364)" />
    </g>
  </g>
</svg>
