<svg width="105" height="61" viewBox="0 0 105 61" fill="none" xmlns="http://www.w3.org/2000/svg">
<g clip-path="url(#clip0)">
<path d="M11.467 57.8062C11.467 59.5701 25.7954 61 43.4704 61C61.1453 61 75.4737 59.5701 75.4737 57.8062C75.4737 56.0423 61.1453 54.6124 43.4704 54.6124C25.7954 54.6124 11.467 56.0423 11.467 57.8062V57.8062Z" fill="url(#paint0_radial)"/>
<path fill-rule="evenodd" clip-rule="evenodd" d="M103.201 21.4532C107.692 25.3195 102.694 31.3074 99.9381 35.2547C97.7531 38.3844 81.605 55.764 54.3929 57.7601C26.4606 59.8091 3.28576 44.5724 3.28576 25.6733C3.28576 23.2193 8.27588 14.6642 3.61421 10.0947C2.7509 9.24842 2.11753 9.08813 1.04477 7.07299C-0.0658698 4.98667 0.380713 1.343 0.380713 1.343C0.380713 1.343 3.23437 0.821147 4.64955 0.85393C7.33195 0.916057 9.78728 2.20606 10.4322 2.81741C11.3923 6.60944 10.3643 11.2061 13.2629 14.4375C17.1951 18.8208 31.32 34.9322 55.2816 33.4958C76.6477 32.2149 94.4114 15.1702 103.201 21.4532V21.4532Z" fill="url(#paint1_radial)"/>
<g filter="url(#filter0_f)">
<path fill-rule="evenodd" clip-rule="evenodd" d="M6.56634 19.3618C6.06134 19.5693 5.71492 25.5959 7.55621 32.0871C9.39749 38.5783 18.1969 55.6868 48.9518 53.5652C70.4096 52.0849 84.5919 36.4005 90.1089 30.0842C82.5223 36.7399 68.1137 46.2224 48.8922 46.7156C21.4832 47.419 11.783 30.2899 6.56634 19.3618Z" fill="url(#paint2_linear)"/>
</g>
<path fill-rule="evenodd" clip-rule="evenodd" d="M10.4023 2.90652C11.1716 6.63353 10.3426 11.0144 13.1226 14.1373C17.0607 18.5612 31.209 34.8202 55.207 33.3705C74.249 32.2201 92.7284 17.6787 99.9747 20.498C100.793 20.8163 102.036 22.0564 101.992 22.1967C99.9603 28.5481 82.1629 45.2886 56.8441 46.3463C17.0824 48.0073 12.897 23.3042 9.33141 8.96441C9.05899 7.8688 9.75484 5.58513 10.4023 2.90652V2.90652Z" fill="url(#paint3_radial)"/>
<g filter="url(#filter1_f)">
<path d="M2.67541 1.01938C2.22679 1.07821 1.82139 1.14199 1.49109 1.19229C1.34427 1.2162 1.15164 1.24662 1.0365 1.26639C0.958197 1.27947 0.821726 1.29466 0.77332 1.30343C0.788147 2.7211 0.913022 5.54646 1.67053 7.07108C2.67175 9.08622 3.25734 9.25069 4.06309 10.0969C4.71345 10.8578 5.13186 11.8513 5.379 12.9746C5.38246 12.9873 5.3876 12.9989 5.39097 13.0116C5.39539 13.0321 5.39862 13.0528 5.40293 13.0734C5.44363 13.232 5.47985 13.3934 5.5106 13.555C5.51134 13.559 5.50985 13.5635 5.5106 13.5674C5.54434 13.7468 5.57208 13.9282 5.59434 14.1108C5.61522 14.2821 5.63066 14.456 5.64219 14.6295C5.64301 14.6419 5.6414 14.6541 5.64219 14.6665C5.64682 14.7404 5.6511 14.8147 5.65415 14.8889C5.65892 15.0037 5.66502 15.1191 5.66611 15.2347C5.66694 15.3258 5.66741 15.4149 5.66611 15.5064C5.77397 19.2732 4.72563 23.5555 4.1588 25.572C4.95025 23.3578 7.11371 19.1042 11.7193 20.5206C11.7334 20.4258 11.7501 20.3299 11.7671 20.2366C12.8025 15.1647 14.9373 17.6502 15.2842 16.8526C14.3816 15.8804 13.6461 15.0356 13.1189 14.4319C10.2975 11.2006 11.3021 6.60215 10.3675 2.81012C9.97517 2.42803 8.88919 1.78726 7.49642 1.34042C6.03332 1.3469 4.86095 1.3601 4.56554 1.35275C4.04132 1.33975 3.33567 1.19144 2.67541 1.01929L2.67541 1.01938Z" fill="url(#paint4_radial)"/>
</g>
<g filter="url(#filter2_f)">
<path fill-rule="evenodd" clip-rule="evenodd" d="M91.1856 26.108C82.5684 31.0557 68.5906 36.66 51.3756 35.7482C36.5981 34.9655 23.874 29.5722 15.6072 21.912C18.1405 35.5063 28.1924 43.6247 47.3101 45.5702C74.9524 48.3833 88.402 30.2307 90.3463 27.1836C90.5781 26.8203 90.8996 26.4812 91.1856 26.108V26.108Z" fill="#F5CC68"/>
</g>
<g opacity="0.246637" filter="url(#filter3_f)">
<path fill-rule="evenodd" clip-rule="evenodd" d="M9.36056 5.44419C8.35071 24.9321 30.8255 45.3058 54.24 43.4073C73.4606 40.5516 85.9545 38.648 99.633 20.6652C90.2233 25.0615 67.2604 34.4494 53.0971 35.1974C38.5015 35.0305 10.3857 23.9232 10.3432 3.55008C10.4367 1.79468 9.4554 5.59133 9.36056 5.44419V5.44419Z" fill="url(#paint5_radial)"/>
</g>
<g filter="url(#filter4_f)">
<path fill-rule="evenodd" clip-rule="evenodd" d="M8.67682 7.54302C8.81765 8.23253 11.2766 16.4282 11.2766 16.4282C13.4648 23.5213 18.365 47.807 58.0906 45.1261C70.6137 44.0082 78.3705 40.4245 88.4344 35.2924C81.0569 40.6781 70.2196 45.0726 56.8264 45.9765C17.1009 48.6574 13.7337 25.6751 9.58134 13.6183C9.46501 13.2805 8.53598 6.85351 8.67682 7.54302V7.54302Z" fill="#F8E2A9" fill-opacity="0.888393"/>
</g>
<g opacity="0.309417" filter="url(#filter5_f)">
<path d="M4.66766 24.2007C4.5216 24.9361 4.51138 25.7038 4.54086 26.4616C5.45031 24.1933 6.00641 20.9425 9.19445 20.0609C10.0999 19.8128 11.6628 20.1886 12.2123 19.8599C5.9251 16.7258 5.50373 21.4799 4.66766 24.2007Z" fill="url(#paint6_radial)"/>
</g>
<g filter="url(#filter6_f)">
<path d="M7.56787 1.3652C7.42031 2.63036 8.00152 6.11862 8.55109 10.1093C9.21521 14.9319 14.7085 26.8195 14.7085 26.8195C14.7085 26.8195 11.4616 18.2546 10.0997 13.6292C8.97435 9.80739 8.50753 3.56365 8.05948 1.53811C7.89771 1.47825 7.73997 1.42025 7.56787 1.3652Z" fill="#E6D7B3" fill-opacity="0.890196"/>
</g>
<path opacity="0.596413" fill-rule="evenodd" clip-rule="evenodd" d="M4.65506 0.846494C4.5592 0.844273 4.44323 0.85631 4.33551 0.858844C3.64792 0.890419 2.8288 0.979403 2.11096 1.0688C2.0224 1.08111 1.95027 1.09348 1.86515 1.10585C1.05375 1.22381 0.407323 1.33741 0.390314 1.34051C0.388288 1.35526 0.366517 1.52366 0.353443 1.64927C0.344039 1.73963 0.339168 1.73474 0.328862 1.87158C0.325837 1.91262 0.331844 1.90017 0.328862 1.94568C0.317515 2.10667 0.298287 2.28332 0.291991 2.4891C0.290613 2.52988 0.293116 2.55791 0.291991 2.60026C0.287222 2.80602 0.285782 3.02088 0.291991 3.25483C0.321046 4.34951 0.495244 5.68909 1.09086 6.66355C1.87702 7.94973 2.44531 8.42411 3.02044 8.84958C3.91175 8.80778 4.83219 8.93996 5.60141 8.26911C7.0234 7.51524 8.64658 8.20506 10.0874 7.61453C10.381 7.38116 10.6699 7.14493 10.96 6.89821C10.8602 5.50089 10.7597 4.10619 10.4315 2.81021C9.79162 2.20361 7.37448 0.926955 4.71651 0.846494C4.6957 0.845864 4.6759 0.846976 4.65506 0.846494Z" fill="url(#paint7_radial)"/>
<path fill-rule="evenodd" clip-rule="evenodd" d="M4.21261 1.26639C3.38377 1.26735 2.56153 1.35761 1.74225 1.46399C1.25343 1.54327 0.23513 1.47985 0.537802 2.19267C1.17404 3.93753 2.87147 3.94041 2.87147 3.94041C2.87147 3.94041 3.4289 4.98344 5.245 5.55199C5.65314 5.99326 6.47161 5.47888 6.99022 5.39143C7.41008 5.74345 7.8617 5.92294 8.35445 5.86075C8.61863 5.36272 9.20248 4.4528 9.20248 4.4528C9.20248 4.4528 9.91322 4.41028 9.84158 3.93408C9.71094 3.46016 9.4609 2.94227 9.03042 2.58788C7.59161 1.78353 5.90687 1.31484 4.21261 1.26639Z" fill="url(#paint8_radial)"/>
<path fill-rule="evenodd" clip-rule="evenodd" d="M1.61125 1.66114C1.46267 1.67311 1.35911 1.75171 1.33628 1.93813C1.2985 2.24665 1.95883 2.67579 2.62276 3.17983C3.32334 3.428 3.10207 3.75774 3.61462 3.89619C4.96607 4.26126 6.24145 5.04223 7.15979 4.10632C8.09192 2.59899 6.8155 2.29341 5.40193 2.23423L4.6163 2.3202L4.06636 2.12916L2.94683 2.11007C2.49379 1.93071 1.93812 1.63483 1.61125 1.66116V1.66114Z" fill="#FADF9F"/>
<g opacity="0.8" filter="url(#filter7_f)">
<path fill-rule="evenodd" clip-rule="evenodd" d="M0.245123 2.46681C0.0698756 4.85635 0.765571 7.59249 2.89337 9.03753C4.71181 9.79202 6.66927 8.99269 8.50762 8.73602C9.49276 8.60394 11.5108 7.46246 10.7767 6.61449C9.61717 7.32011 8.43645 7.70265 6.95108 7.68325C5.47844 7.78426 3.80488 8.77665 2.54602 7.709C0.865126 6.48608 0.263828 4.4126 0.245123 2.4668V2.46681Z" fill="url(#paint9_radial)"/>
</g>
<g filter="url(#filter8_f)">
<path d="M77.3322 46.9743C77.1301 48.0588 78.6097 49.3586 82.3939 48.1236C88.9469 45.9851 104.053 28.2541 99.8749 29.3039C99.8749 29.3039 78.2456 42.0743 77.3322 46.9743Z" fill="url(#paint10_linear)"/>
</g>
<path d="M100.769 20.2954C100.518 20.3131 100.551 20.6084 100.49 20.7562C100.426 21.1107 100.33 21.5851 100.891 21.7247C101.495 21.8579 100.958 22.2333 101.013 22.5052C101.481 22.8184 101.576 23.3179 101.864 23.7182C102.123 23.9735 102.639 23.4381 102.923 23.7934C103.309 23.9916 103.323 24.4078 103.543 24.6491C103.817 24.265 104.179 24.792 104.505 24.5551C104.764 24.092 104.585 23.2956 104.407 22.8316C104.292 22.3763 103.836 22.2932 103.775 21.8282C103.598 21.5096 102.86 21.232 102.627 20.9435C102.325 20.6974 101.847 20.6814 101.581 20.3977C101.194 20.3742 101.161 20.3524 100.769 20.2954V20.2954ZM103.86 21.8376C103.85 21.8399 103.863 21.8453 103.86 21.847C103.878 21.8462 103.895 21.8434 103.86 21.8376Z" fill="url(#paint11_linear)"/>
<g filter="url(#filter9_f)">
<path d="M100.655 20.2984C100.279 20.4829 100.127 20.982 100.298 21.3729C100.419 21.7331 100.653 22.0378 100.913 22.2992C100.978 23.0621 101.362 23.7892 101.933 24.2629C102.422 24.2489 103.001 24.2683 103.322 24.7199C103.336 25.0449 103.871 25.2183 103.715 24.7816C103.583 24.4471 103.304 24.0457 102.916 24.1024C102.465 24.3191 101.963 24.0005 101.736 23.5836C101.513 23.2284 101.378 22.8254 101.196 22.4474C101.227 21.7819 100.396 21.4717 100.483 20.7924C100.493 20.6084 100.613 20.4722 100.655 20.2984Z" fill="url(#paint12_linear)"/>
</g>
<path d="M101.84 20.8292C102.038 20.8862 102.138 21.2092 102.386 21.0766C102.666 20.9721 102.824 21.2408 103.02 21.3775C103.233 21.4861 103.306 21.6737 103.458 21.8206C103.433 22.1134 103.813 22.1496 103.742 22.4491C103.826 22.8008 103.435 22.8321 103.195 22.7746C102.922 22.885 102.813 22.433 102.541 22.5406C102.273 22.6804 102.072 22.3998 101.881 22.2623C101.681 22.1556 101.637 21.9537 101.461 21.8502C101.475 21.546 101.131 21.4983 101.167 21.2008C101.092 20.8513 101.448 20.8012 101.694 20.8612C101.747 20.869 101.79 20.8184 101.84 20.8292V20.8292Z" fill="url(#paint13_linear)"/>
<g opacity="0.237668" filter="url(#filter10_f)">
<path d="M14.303 16.5592C11.9775 16.5622 12.2993 18.4232 12.2505 19.6105C12.2757 19.9673 12.3795 20.3259 12.4963 20.6713C12.6499 19.5138 12.4943 17.9403 13.9834 17.1389C14.4067 16.9123 15.2376 16.8991 15.4706 16.6795C15.0216 16.5966 14.6352 16.5588 14.303 16.5592Z" fill="url(#paint14_radial)"/>
</g>
</g>
<defs>
<filter id="filter0_f" x="-1.15115" y="12.0465" width="98.5754" height="49.0149" filterUnits="userSpaceOnUse" color-interpolation-filters="sRGB">
<feFlood flood-opacity="0" result="BackgroundImageFix"/>
<feBlend mode="normal" in="SourceGraphic" in2="BackgroundImageFix" result="shape"/>
<feGaussianBlur stdDeviation="3.65765" result="effect1_foregroundBlur"/>
</filter>
<filter id="filter1_f" x="-0.176178" y="0.0697933" width="16.4099" height="26.4517" filterUnits="userSpaceOnUse" color-interpolation-filters="sRGB">
<feFlood flood-opacity="0" result="BackgroundImageFix"/>
<feBlend mode="normal" in="SourceGraphic" in2="BackgroundImageFix" result="shape"/>
<feGaussianBlur stdDeviation="0.474747" result="effect1_foregroundBlur"/>
</filter>
<filter id="filter2_f" x="10.5606" y="16.8654" width="85.6716" height="34.0463" filterUnits="userSpaceOnUse" color-interpolation-filters="sRGB">
<feFlood flood-opacity="0" result="BackgroundImageFix"/>
<feBlend mode="normal" in="SourceGraphic" in2="BackgroundImageFix" result="shape"/>
<feGaussianBlur stdDeviation="2.52327" result="effect1_foregroundBlur"/>
</filter>
<filter id="filter3_f" x="7.77131" y="1.52917" width="93.4181" height="43.5579" filterUnits="userSpaceOnUse" color-interpolation-filters="sRGB">
<feFlood flood-opacity="0" result="BackgroundImageFix"/>
<feBlend mode="normal" in="SourceGraphic" in2="BackgroundImageFix" result="shape"/>
<feGaussianBlur stdDeviation="0.778231" result="effect1_foregroundBlur"/>
</filter>
<filter id="filter4_f" x="5.77843" y="4.60741" width="85.5399" height="44.4686" filterUnits="userSpaceOnUse" color-interpolation-filters="sRGB">
<feFlood flood-opacity="0" result="BackgroundImageFix"/>
<feBlend mode="normal" in="SourceGraphic" in2="BackgroundImageFix" result="shape"/>
<feGaussianBlur stdDeviation="1.44194" result="effect1_foregroundBlur"/>
</filter>
<filter id="filter5_f" x="1.91962" y="16.2204" width="12.9006" height="12.849" filterUnits="userSpaceOnUse" color-interpolation-filters="sRGB">
<feFlood flood-opacity="0" result="BackgroundImageFix"/>
<feBlend mode="normal" in="SourceGraphic" in2="BackgroundImageFix" result="shape"/>
<feGaussianBlur stdDeviation="1.30396" result="effect1_foregroundBlur"/>
</filter>
<filter id="filter6_f" x="5.564" y="-0.615402" width="11.1252" height="29.4155" filterUnits="userSpaceOnUse" color-interpolation-filters="sRGB">
<feFlood flood-opacity="0" result="BackgroundImageFix"/>
<feBlend mode="normal" in="SourceGraphic" in2="BackgroundImageFix" result="shape"/>
<feGaussianBlur stdDeviation="0.990303" result="effect1_foregroundBlur"/>
</filter>
<filter id="filter7_f" x="-0.216355" y="2.03122" width="11.586" height="7.7581" filterUnits="userSpaceOnUse" color-interpolation-filters="sRGB">
<feFlood flood-opacity="0" result="BackgroundImageFix"/>
<feBlend mode="normal" in="SourceGraphic" in2="BackgroundImageFix" result="shape"/>
<feGaussianBlur stdDeviation="0.217789" result="effect1_foregroundBlur"/>
</filter>
<filter id="filter8_f" x="70.4019" y="22.3469" width="37.1045" height="33.1909" filterUnits="userSpaceOnUse" color-interpolation-filters="sRGB">
<feFlood flood-opacity="0" result="BackgroundImageFix"/>
<feBlend mode="normal" in="SourceGraphic" in2="BackgroundImageFix" result="shape"/>
<feGaussianBlur stdDeviation="3.4561" result="effect1_foregroundBlur"/>
</filter>
<filter id="filter9_f" x="100.027" y="20.0976" width="3.91707" height="5.14629" filterUnits="userSpaceOnUse" color-interpolation-filters="sRGB">
<feFlood flood-opacity="0" result="BackgroundImageFix"/>
<feBlend mode="normal" in="SourceGraphic" in2="BackgroundImageFix" result="shape"/>
<feGaussianBlur stdDeviation="0.100427" result="effect1_foregroundBlur"/>
</filter>
<filter id="filter10_f" x="10.8636" y="15.1723" width="5.99384" height="6.88583" filterUnits="userSpaceOnUse" color-interpolation-filters="sRGB">
<feFlood flood-opacity="0" result="BackgroundImageFix"/>
<feBlend mode="normal" in="SourceGraphic" in2="BackgroundImageFix" result="shape"/>
<feGaussianBlur stdDeviation="0.693444" result="effect1_foregroundBlur"/>
</filter>
<radialGradient id="paint0_radial" cx="0" cy="0" r="1" gradientUnits="userSpaceOnUse" gradientTransform="translate(43.4704 57.8062) rotate(180) scale(32.0034 3.19382)">
<stop stop-color="#1A1A1A"/>
<stop offset="1" stop-color="#1A1A1A" stop-opacity="0"/>
</radialGradient>
<radialGradient id="paint1_radial" cx="0" cy="0" r="1" gradientUnits="userSpaceOnUse" gradientTransform="translate(55.5353 26.635) rotate(180) scale(32.4438 21.5331)">
<stop stop-color="#594C06"/>
<stop offset="0.467429" stop-color="#908200"/>
<stop offset="0.58514" stop-color="#FFCA2F"/>
<stop offset="0.746475" stop-color="#FFC44A"/>
<stop offset="1" stop-color="#CDA942"/>
</radialGradient>
<linearGradient id="paint2_linear" x1="5.58914" y1="136.848" x2="25.8234" y2="36.9443" gradientUnits="userSpaceOnUse">
<stop stop-color="#594C06"/>
<stop offset="0.467429" stop-color="#908200"/>
<stop offset="0.58514" stop-color="#FFCA2F"/>
<stop offset="0.746475" stop-color="#FFC44A"/>
<stop offset="1" stop-color="#CDA942"/>
</linearGradient>
<radialGradient id="paint3_radial" cx="0" cy="0" r="1" gradientUnits="userSpaceOnUse" gradientTransform="translate(58.2708 6.21089) rotate(180) scale(77.9017 38.1447)">
<stop stop-color="#594C06"/>
<stop offset="0.467429" stop-color="#908200"/>
<stop offset="0.58514" stop-color="#FFCA2F"/>
<stop offset="0.746475" stop-color="#FFC44A"/>
<stop offset="1" stop-color="#CDA942"/>
</radialGradient>
<radialGradient id="paint4_radial" cx="0" cy="0" r="1" gradientUnits="userSpaceOnUse" gradientTransform="translate(-30.3902 -20.0796) rotate(149.879) scale(55.7221 125.265)">
<stop stop-color="#594C06"/>
<stop offset="0.467429" stop-color="#908200"/>
<stop offset="0.58514" stop-color="#FFCA2F"/>
<stop offset="0.746475" stop-color="#FFC44A"/>
<stop offset="1" stop-color="#CDA942"/>
</radialGradient>
<radialGradient id="paint5_radial" cx="0" cy="0" r="1" gradientUnits="userSpaceOnUse" gradientTransform="translate(28.3993 32.7454) rotate(180) scale(43.3168 20.9923)">
<stop stop-color="white"/>
<stop offset="1" stop-color="#F6D480" stop-opacity="0"/>
</radialGradient>
<radialGradient id="paint6_radial" cx="0" cy="0" r="1" gradientUnits="userSpaceOnUse" gradientTransform="translate(18.8591 32.9903) rotate(180) scale(40.4324 50.1343)">
<stop stop-color="#594C06"/>
<stop offset="0.467429" stop-color="#908200"/>
<stop offset="0.58514" stop-color="#FFCA2F"/>
<stop offset="0.746475" stop-color="#FFC44A"/>
<stop offset="1" stop-color="#CDA942"/>
</radialGradient>
<radialGradient id="paint7_radial" cx="0" cy="0" r="1" gradientUnits="userSpaceOnUse" gradientTransform="translate(4.82936 6.84403) rotate(-30.1212) scale(15.1742 11.3517)">
<stop stop-color="#594C06"/>
<stop offset="0.467429" stop-color="#908200"/>
<stop offset="0.58514" stop-color="#FFCA2F"/>
<stop offset="0.746475" stop-color="#FFC44A"/>
<stop offset="1" stop-color="#CDA942"/>
</radialGradient>
<radialGradient id="paint8_radial" cx="0" cy="0" r="1" gradientUnits="userSpaceOnUse" gradientTransform="translate(8.59769 -3.66912) rotate(180) scale(20.0252 10.444)">
<stop stop-color="#594C06"/>
<stop offset="0.467429" stop-color="#908200"/>
<stop offset="0.58514" stop-color="#FFCA2F"/>
<stop offset="0.746475" stop-color="#FFC44A"/>
<stop offset="1" stop-color="#CDA942"/>
</radialGradient>
<radialGradient id="paint9_radial" cx="0" cy="0" r="1" gradientUnits="userSpaceOnUse" gradientTransform="translate(2.53375 8.10601) rotate(180) scale(18.1473 11.9146)">
<stop stop-color="#594C06"/>
<stop offset="0.467429" stop-color="#908200"/>
<stop offset="0.58514" stop-color="#FFCA2F"/>
<stop offset="0.746475" stop-color="#FFC44A"/>
<stop offset="1" stop-color="#CDA942"/>
</radialGradient>
<linearGradient id="paint10_linear" x1="114.341" y1="53.6805" x2="77.0951" y2="4.35727" gradientUnits="userSpaceOnUse">
<stop stop-color="white"/>
<stop offset="1" stop-color="#F6D480" stop-opacity="0"/>
</linearGradient>
<linearGradient id="paint11_linear" x1="104.402" y1="20.3111" x2="99.3903" y2="24.0961" gradientUnits="userSpaceOnUse">
<stop stop-color="#1A1A1A"/>
<stop offset="1" stop-color="#1A1A1A" stop-opacity="0"/>
</linearGradient>
<linearGradient id="paint12_linear" x1="122.63" y1="25.6894" x2="83.2336" y2="30.485" gradientUnits="userSpaceOnUse">
<stop stop-color="#594C06"/>
<stop offset="0.467429" stop-color="#908200"/>
<stop offset="0.58514" stop-color="#FFCA2F"/>
<stop offset="0.746475" stop-color="#FFC44A"/>
<stop offset="1" stop-color="#CDA942"/>
</linearGradient>
<linearGradient id="paint13_linear" x1="103.753" y1="21.8126" x2="101.157" y2="21.8126" gradientUnits="userSpaceOnUse">
<stop stop-color="#1A1A1A"/>
<stop offset="1" stop-color="#1A1A1A" stop-opacity="0"/>
</linearGradient>
<radialGradient id="paint14_radial" cx="0" cy="0" r="1" gradientUnits="userSpaceOnUse" gradientTransform="translate(20.5913 21.8996) rotate(166.184) scale(20.9971 24.033)">
<stop stop-color="#594C06"/>
<stop offset="0.467429" stop-color="#908200"/>
<stop offset="0.58514" stop-color="#FFCA2F"/>
<stop offset="0.746475" stop-color="#FFC44A"/>
<stop offset="1" stop-color="#CDA942"/>
</radialGradient>
<clipPath id="clip0">
<rect width="105" height="61" fill="white"/>
</clipPath>
</defs>
</svg>
