<svg width="60" height="80" viewBox="0 0 60 80" fill="none" xmlns="http://www.w3.org/2000/svg">
<rect x="0.5" y="0.5" width="59" height="79" fill="white" stroke="#9F9F9F"/>
<path d="M40.0854 43.355C40.0854 48.1157 39.2725 51.6533 37.6465 53.9678C36.0205 56.2822 33.479 57.4395 30.022 57.4395C26.6089 57.4395 24.082 56.3115 22.4414 54.0557C20.8008 51.7852 19.9512 48.4014 19.8926 43.9043V38.4771C19.8926 33.7749 20.7056 30.2812 22.3315 27.9961C23.9575 25.7109 26.5063 24.5684 29.978 24.5684C33.4204 24.5684 35.9546 25.6743 37.5806 27.8862C39.2065 30.0835 40.0415 33.4819 40.0854 38.0815V43.355ZM36.0205 37.7959C36.0205 34.3535 35.5371 31.8486 34.5703 30.2812C33.6035 28.6992 32.0728 27.9082 29.978 27.9082C27.8979 27.9082 26.3818 28.6919 25.4297 30.2593C24.4775 31.8267 23.9868 34.2363 23.9575 37.4883V43.9922C23.9575 47.4492 24.4556 50.0054 25.4517 51.6606C26.4624 53.3013 27.9858 54.1216 30.022 54.1216C32.0288 54.1216 33.5156 53.3452 34.4824 51.7925C35.4639 50.2397 35.9766 47.7935 36.0205 44.4536V37.7959Z" fill="black"/>
</svg>
