<svg width="60" height="80" viewBox="0 0 60 80" fill="none" xmlns="http://www.w3.org/2000/svg">
<rect x="0.5" y="0.5" width="59" height="79" fill="white" stroke="#9F9F9F"/>
<path d="M40.9863 57H20.0244V54.0776L31.0986 41.7729C32.7393 39.9126 33.8672 38.4038 34.4824 37.2466C35.1123 36.0747 35.4272 34.8662 35.4272 33.6211C35.4272 31.9512 34.9219 30.5815 33.9111 29.5122C32.9004 28.4429 31.5527 27.9082 29.8682 27.9082C27.8467 27.9082 26.272 28.4868 25.144 29.644C24.0308 30.7866 23.4741 32.3833 23.4741 34.4341H19.4092C19.4092 31.4897 20.354 29.1094 22.2437 27.293C24.1479 25.4766 26.6895 24.5684 29.8682 24.5684C32.8418 24.5684 35.1929 25.3521 36.9214 26.9194C38.6499 28.4722 39.5142 30.5449 39.5142 33.1377C39.5142 36.2871 37.5073 40.0371 33.4937 44.3877L24.9243 53.6821H40.9863V57Z" fill="black"/>
</svg>
