<svg width="60" height="80" viewBox="0 0 60 80" fill="none" xmlns="http://www.w3.org/2000/svg">
<rect x="0.5" y="0.5" width="59" height="79" fill="white" stroke="#9F9F9F"/>
<path d="M25.9351 39.0264H28.9893C30.9082 38.9971 32.417 38.4917 33.5156 37.5103C34.6143 36.5288 35.1636 35.2031 35.1636 33.5332C35.1636 29.7832 33.2959 27.9082 29.5605 27.9082C27.8027 27.9082 26.3965 28.4136 25.3418 29.4243C24.3018 30.4204 23.7817 31.7461 23.7817 33.4014H19.7168C19.7168 30.8672 20.6396 28.7651 22.4854 27.0952C24.3457 25.4106 26.7041 24.5684 29.5605 24.5684C32.5781 24.5684 34.9438 25.3667 36.6577 26.9634C38.3716 28.5601 39.2285 30.7793 39.2285 33.6211C39.2285 35.0127 38.7744 36.3604 37.8662 37.6641C36.9727 38.9678 35.7495 39.9419 34.1968 40.5864C35.9546 41.1431 37.3096 42.0659 38.2617 43.355C39.2285 44.644 39.7119 46.2188 39.7119 48.0791C39.7119 50.9502 38.7744 53.228 36.8994 54.9126C35.0244 56.5972 32.5854 57.4395 29.5825 57.4395C26.5796 57.4395 24.1333 56.6265 22.2437 55.0005C20.3687 53.3745 19.4312 51.2285 19.4312 48.5625H23.5181C23.5181 50.2471 24.0674 51.5947 25.166 52.6055C26.2646 53.6162 27.7368 54.1216 29.5825 54.1216C31.5454 54.1216 33.0469 53.6089 34.0869 52.5835C35.127 51.5581 35.647 50.0859 35.647 48.167C35.647 46.3066 35.0757 44.8784 33.9331 43.8823C32.7905 42.8862 31.1426 42.3735 28.9893 42.3442H25.9351V39.0264Z" fill="black"/>
</svg>
