<svg width="60" height="80" viewBox="0 0 60 80" fill="none" xmlns="http://www.w3.org/2000/svg">
<rect x="0.5" y="0.5" width="59" height="79" fill="white" stroke="#9F9F9F"/>
<path d="M21.8921 40.96L23.5181 25.0078H39.9097V28.7651H26.9678L26.001 37.4883C27.5684 36.5654 29.3481 36.104 31.3403 36.104C34.2554 36.104 36.5698 37.0708 38.2837 39.0044C39.9976 40.9233 40.8545 43.5234 40.8545 46.8047C40.8545 50.1006 39.9609 52.7007 38.1738 54.605C36.4014 56.4946 33.9185 57.4395 30.7251 57.4395C27.8979 57.4395 25.5908 56.6558 23.8037 55.0884C22.0166 53.521 20.9985 51.353 20.7495 48.5845H24.5947C24.8438 50.4155 25.4956 51.7998 26.5503 52.7373C27.605 53.6602 28.9966 54.1216 30.7251 54.1216C32.6147 54.1216 34.0942 53.4771 35.1636 52.188C36.2476 50.8989 36.7896 49.1191 36.7896 46.8486C36.7896 44.71 36.2036 42.9961 35.0317 41.707C33.8745 40.4033 32.3291 39.7515 30.3955 39.7515C28.623 39.7515 27.2314 40.1396 26.2207 40.916L25.144 41.7949L21.8921 40.96Z" fill="black"/>
</svg>
