<svg width="60" height="80" viewBox="0 0 60 80" fill="none" xmlns="http://www.w3.org/2000/svg">
<rect x="0.5" y="0.5" width="59" height="79" fill="white" stroke="#9F9F9F"/>
<path d="M35.9766 24.9858V28.4355H35.2295C32.0654 28.4941 29.5459 29.4316 27.6709 31.248C25.7959 33.0645 24.7119 35.6206 24.4189 38.9165C26.1035 36.9829 28.4033 36.0161 31.3184 36.0161C34.1016 36.0161 36.3208 36.9976 37.9761 38.9604C39.646 40.9233 40.481 43.4575 40.481 46.563C40.481 49.8589 39.5801 52.4956 37.7783 54.4731C35.9912 56.4507 33.5889 57.4395 30.5713 57.4395C27.5098 57.4395 25.0269 56.2676 23.1226 53.9238C21.2183 51.5654 20.2661 48.5332 20.2661 44.8271V43.2671C20.2661 37.3784 21.5186 32.8813 24.0234 29.7759C26.543 26.6558 30.2856 25.0591 35.2515 24.9858H35.9766ZM30.6372 39.3999C29.2456 39.3999 27.9639 39.8174 26.792 40.6523C25.6201 41.4873 24.8071 42.5347 24.353 43.7944V45.2886C24.353 47.9253 24.9463 50.0493 26.1328 51.6606C27.3193 53.272 28.7988 54.0776 30.5713 54.0776C32.4023 54.0776 33.8379 53.4038 34.8779 52.0562C35.9326 50.7085 36.46 48.9434 36.46 46.7607C36.46 44.5635 35.9253 42.791 34.856 41.4434C33.8013 40.0811 32.395 39.3999 30.6372 39.3999Z" fill="black"/>
</svg>
