<svg width="60" height="80" viewBox="0 0 60 80" fill="none" xmlns="http://www.w3.org/2000/svg">
<rect x="0.5" y="0.5" width="59" height="79" fill="white" stroke="#9F9F9F"/>
<path d="M39.4263 33.3574C39.4263 34.9541 39.0015 36.375 38.1519 37.6201C37.3169 38.8652 36.1816 39.8394 34.7461 40.5425C36.416 41.2603 37.7344 42.3076 38.7012 43.6846C39.6826 45.0615 40.1733 46.6216 40.1733 48.3647C40.1733 51.1333 39.2358 53.3379 37.3608 54.9785C35.5005 56.6191 33.0469 57.4395 30 57.4395C26.9238 57.4395 24.4556 56.6191 22.5952 54.9785C20.7495 53.3232 19.8267 51.1187 19.8267 48.3647C19.8267 46.6362 20.2954 45.0762 21.2329 43.6846C22.1851 42.293 23.4961 41.2383 25.166 40.5205C23.7451 39.8174 22.6245 38.8433 21.8042 37.5981C20.9839 36.353 20.5737 34.9395 20.5737 33.3574C20.5737 30.6621 21.438 28.5234 23.1665 26.9414C24.895 25.3594 27.1729 24.5684 30 24.5684C32.8125 24.5684 35.083 25.3594 36.8115 26.9414C38.5547 28.5234 39.4263 30.6621 39.4263 33.3574ZM36.1084 48.2769C36.1084 46.4897 35.5371 45.0322 34.3945 43.9043C33.2666 42.7764 31.7871 42.2124 29.9561 42.2124C28.125 42.2124 26.6528 42.769 25.5396 43.8823C24.4409 44.9956 23.8916 46.4604 23.8916 48.2769C23.8916 50.0933 24.4263 51.5215 25.4956 52.5615C26.5796 53.6016 28.0811 54.1216 30 54.1216C31.9043 54.1216 33.3984 53.6016 34.4824 52.5615C35.5664 51.5068 36.1084 50.0786 36.1084 48.2769ZM30 27.9082C28.4033 27.9082 27.1069 28.4062 26.1108 29.4023C25.1294 30.3838 24.6387 31.7241 24.6387 33.4233C24.6387 35.0493 25.1221 36.3677 26.0889 37.3784C27.0703 38.3745 28.374 38.8726 30 38.8726C31.626 38.8726 32.9224 38.3745 33.8892 37.3784C34.8706 36.3677 35.3613 35.0493 35.3613 33.4233C35.3613 31.7974 34.856 30.4717 33.8452 29.4463C32.8345 28.4209 31.5527 27.9082 30 27.9082Z" fill="black"/>
</svg>
