<svg width="60" height="80" viewBox="0 0 60 80" fill="none" xmlns="http://www.w3.org/2000/svg">
<rect x="0.5" y="0.5" width="59" height="79" fill="white" stroke="#9F9F9F"/>
<path d="M35.603 42.9375C34.7534 43.9482 33.7354 44.7612 32.5488 45.3765C31.377 45.9917 30.0879 46.2993 28.6816 46.2993C26.8359 46.2993 25.2246 45.8452 23.8477 44.937C22.4854 44.0288 21.4307 42.7544 20.6836 41.1138C19.9365 39.4585 19.563 37.6348 19.563 35.6426C19.563 33.5039 19.9658 31.5776 20.7715 29.8638C21.5918 28.1499 22.749 26.8389 24.2432 25.9307C25.7373 25.0225 27.4805 24.5684 29.4727 24.5684C32.6367 24.5684 35.127 25.7549 36.9434 28.1279C38.7744 30.4863 39.6899 33.709 39.6899 37.7959V38.9824C39.6899 45.208 38.4595 49.7563 35.9985 52.6274C33.5376 55.4839 29.8242 56.9487 24.8584 57.022H24.0674V53.5942H24.9243C28.2788 53.5356 30.8569 52.6641 32.6587 50.9795C34.4604 49.2803 35.4419 46.5996 35.603 42.9375ZM29.3408 42.9375C30.7031 42.9375 31.9556 42.52 33.0981 41.6851C34.2554 40.8501 35.0977 39.8174 35.625 38.5869V36.9609C35.625 34.2949 35.0464 32.127 33.8892 30.457C32.7319 28.7871 31.2671 27.9521 29.4946 27.9521C27.7075 27.9521 26.272 28.6406 25.188 30.0176C24.104 31.3799 23.562 33.1816 23.562 35.4229C23.562 37.6055 24.082 39.4072 25.1221 40.8281C26.1768 42.2344 27.583 42.9375 29.3408 42.9375Z" fill="black"/>
</svg>
