<?xml version="1.0" encoding="UTF-8" standalone="no"?>
<!-- Created with Inkscape (http://www.inkscape.org/) -->

<svg
   xmlns:dc="http://purl.org/dc/elements/1.1/"
   xmlns:cc="http://creativecommons.org/ns#"
   xmlns:rdf="http://www.w3.org/1999/02/22-rdf-syntax-ns#"
   xmlns:svg="http://www.w3.org/2000/svg"
   xmlns="http://www.w3.org/2000/svg"
   xmlns:sodipodi="http://sodipodi.sourceforge.net/DTD/sodipodi-0.dtd"
   xmlns:inkscape="http://www.inkscape.org/namespaces/inkscape"
   width="270"
   height="90"
   viewBox="0 0 71.4375 23.8125"
   version="1.1"
   id="svg4615"
   inkscape:version="0.92.3 (2405546, 2018-03-11)"
   sodipodi:docname="card-memory.svg">
  <defs
     id="defs4609" />
  <sodipodi:namedview
     id="base"
     pagecolor="#ffffff"
     bordercolor="#666666"
     borderopacity="1.0"
     inkscape:pageopacity="0.0"
     inkscape:pageshadow="2"
     inkscape:zoom="2.8284271"
     inkscape:cx="61.797776"
     inkscape:cy="-4.9752756"
     inkscape:document-units="px"
     inkscape:current-layer="layer1"
     showgrid="false"
     inkscape:window-width="1680"
     inkscape:window-height="988"
     inkscape:window-x="-8"
     inkscape:window-y="-8"
     inkscape:window-maximized="1"
     units="px" />
  <metadata
     id="metadata4612">
    <rdf:RDF>
      <cc:Work
         rdf:about="">
        <dc:format>image/svg+xml</dc:format>
        <dc:type
           rdf:resource="http://purl.org/dc/dcmitype/StillImage" />
        <dc:title></dc:title>
      </cc:Work>
    </rdf:RDF>
  </metadata>
  <g
     inkscape:label="Layer 1"
     inkscape:groupmode="layer"
     id="layer1"
     transform="translate(-60.665179,-107.44494)">
    <rect
       style="opacity:1;fill:none;fill-opacity:1;stroke:none;stroke-width:0.24303584;stroke-linejoin:miter;stroke-miterlimit:4;stroke-dasharray:none;stroke-dashoffset:0;stroke-opacity:1"
       id="rect4598"
       width="23.569464"
       height="23.569464"
       x="60.786697"
       y="107.56646" />
    <rect
       style="opacity:1;fill:none;fill-opacity:1;stroke:none;stroke-width:0.24303585;stroke-linejoin:miter;stroke-miterlimit:4;stroke-dasharray:none;stroke-dashoffset:0;stroke-opacity:1"
       id="rect4598-6"
       width="23.569464"
       height="23.569464"
       x="84.599197"
       y="107.56646" />
    <rect
       style="opacity:1;fill:none;fill-opacity:1;stroke:none;stroke-width:0.24303587;stroke-linejoin:miter;stroke-miterlimit:4;stroke-dasharray:none;stroke-dashoffset:0;stroke-opacity:1"
       id="rect4598-6-8"
       width="23.569464"
       height="23.569464"
       x="108.4117"
       y="107.56646" />
    <g
       transform="matrix(0.14547033,0,0,0.14547033,4.0115419,107.68074)"
       id="g389">
      <path
         style="fill:#d19ac1;stroke:#ffffff"
         inkscape:connector-curvature="0"
         d="m 472.868,81.849 c 0,0 17.592,-31.889 21.99,-37.386 4.4,-5.499 -1.1,-23.092 -21.99,-27.49 -20.893,-4.399 -34.088,9.896 -27.49,27.49 6.598,17.593 14.295,29.688 27.49,37.386 z"
         id="path367" />
      <path
         style="fill:#d19ac1;stroke:#ffffff"
         inkscape:connector-curvature="0"
         d="m 476.583,78.216 c 0,0 -27.584,-24.964 -32.021,-30.626 -4.436,-5.663 -23.215,-4.322 -32.49,15.424 -9.27,19.746 1.855,36.216 20.896,33.779 19.039,-2.438 32.871,-7.258 43.615,-18.577 z"
         id="path369" />
      <path
         style="fill:#d19ac1;stroke:#ffffff"
         inkscape:connector-curvature="0"
         d="m 473.032,80.319 c 0,0 36.99,4.26 43.9,6.282 6.91,2.031 21.414,-10 17.465,-31.47 C 530.446,33.66 511.8,26.731 497.72,39.8 483.64,52.874 475.187,64.851 473.032,80.319 Z"
         id="path371" />
      <path
         style="fill:#d19ac1;stroke:#ffffff"
         inkscape:connector-curvature="0"
         d="m 471.388,79.405 c 0,0 2.545,36.477 1.838,43.51 -0.717,7.038 13.506,18.875 33.523,11.198 20.016,-7.681 23.35,-26.928 8.197,-38.169 -15.154,-11.237 -28.24,-17.243 -43.558,-16.539 z"
         id="path373" />
      <path
         style="fill:#d19ac1;stroke:#ffffff"
         inkscape:connector-curvature="0"
         d="m 469.206,79.92 c 0,0 -30.213,17.012 -36.527,19.266 -6.318,2.249 -10.676,19.247 4.035,33.273 14.721,14.026 32.564,9.055 36.033,-8.497 3.467,-17.55 3.293,-31.202 -3.541,-44.042 z"
         id="path375" />
      <path
         style="fill:none;stroke:#e0accc"
         inkscape:connector-curvature="0"
         d="m 458.081,78.558 c 0,0 -20.656,-13.197 -32.707,-10.328"
         id="path377" />
      <path
         style="fill:none;stroke:#e0accc"
         inkscape:connector-curvature="0"
         d="m 470.13,67.655 c 0,0 -3.441,-26.968 0.574,-33.854"
         id="path379" />
      <path
         style="fill:none;stroke:#e0accc"
         inkscape:connector-curvature="0"
         d="m 479.312,73.967 c 0,0 27.541,-17.788 37.869,-16.066"
         id="path381" />
      <path
         style="fill:none;stroke:#e0accc"
         inkscape:connector-curvature="0"
         d="m 484.476,88.886 c 0,0 17.787,16.066 17.787,24.673"
         id="path383" />
      <path
         style="fill:none;stroke:#e0accc"
         inkscape:connector-curvature="0"
         d="m 462.671,94.05 c 0,0 -9.754,18.935 -14.918,22.952"
         id="path385" />
      <ellipse
         style="fill:#ffe36b;stroke:#ffffff"
         cx="471.54501"
         cy="80.801003"
         rx="18.847"
         ry="16.752001"
         id="ellipse387" />
    </g>
    <g
       transform="matrix(0.11719204,0,0,0.11719204,86.529511,67.842944)"
       id="g519">
      <circle
         style="fill:#f6a82b"
         cx="88.530998"
         cy="437.97101"
         r="47.383999"
         id="circle425" />
      <g
         id="g431">
        <path
           style="fill:#c85e9b;stroke:#ffffff"
           inkscape:connector-curvature="0"
           d="m 98.74,413.468 18.583,-45.021 -10.755,9.341 0.059,-14.119 -7.188,10.934 -5.338,-14.558 -3.963,14.021 -8.016,-9.669 4.829,47.046 c 2.34,-0.24 4.76,-0.117 7.184,0.431 1.624,0.369 3.16,0.911 4.605,1.594 z"
           id="path427" />
        <path
           style="fill:#ffdb03"
           inkscape:connector-curvature="0"
           d="m 98.74,413.468 c -1.445,-0.684 -2.981,-1.226 -4.606,-1.596 -2.424,-0.548 -4.844,-0.671 -7.184,-0.431 l 2.514,24.499 z"
           id="path429" />
      </g>
      <g
         id="g437">
        <path
           style="fill:#c85e9b;stroke:#ffffff"
           inkscape:connector-curvature="0"
           d="m 110.539,421.188 37.437,-31.154 -13.869,3.245 6.639,-12.46 -11.46,6.317 2.069,-15.368 -10.044,10.555 -2.581,-12.292 -17.674,43.866 c 2.184,0.879 4.265,2.116 6.152,3.731 1.265,1.083 2.371,2.282 3.331,3.56 z"
           id="path433" />
        <path
           style="fill:#ffdb03"
           inkscape:connector-curvature="0"
           d="m 110.539,421.188 c -0.96,-1.278 -2.066,-2.477 -3.331,-3.56 -1.888,-1.615 -3.969,-2.853 -6.152,-3.731 l -9.205,22.843 z"
           id="path435" />
      </g>
      <g
         id="g443">
        <path
           style="fill:#c85e9b;stroke:#ffffff"
           inkscape:connector-curvature="0"
           d="m 116.36,435.984 48.383,-5.577 -13.383,-4.877 12.377,-6.794 -13.048,-0.987 10.145,-11.727 -14.184,3.333 4.569,-11.698 -38.805,27.032 c 1.346,1.932 2.41,4.107 3.104,6.493 0.467,1.599 0.739,3.206 0.842,4.802 z"
           id="path439" />
        <path
           style="fill:#ffdb03"
           inkscape:connector-curvature="0"
           d="m 116.36,435.984 c -0.104,-1.596 -0.375,-3.203 -0.841,-4.802 -0.694,-2.386 -1.759,-4.562 -3.104,-6.493 l -20.207,14.079 z"
           id="path441" />
      </g>
      <g
         id="g449">
        <path
           style="fill:#c85e9b;stroke:#ffffff"
           inkscape:connector-curvature="0"
           d="m 64.939,432.094 -47.258,-11.777 10.816,9.268 -13.975,2.014 11.871,5.507 -13.618,7.416 14.45,1.861 -8.388,9.349 45.828,-11.678 c -0.581,-2.28 -0.814,-4.692 -0.626,-7.17 0.125,-1.661 0.436,-3.261 0.9,-4.79 z"
           id="path445" />
        <path
           style="fill:#ffdb03"
           inkscape:connector-curvature="0"
           d="m 64.939,432.094 c -0.464,1.528 -0.775,3.129 -0.9,4.789 -0.188,2.478 0.045,4.89 0.626,7.17 l 23.865,-6.082 z"
           id="path447" />
      </g>
      <g
         id="g455">
        <path
           style="fill:#c85e9b;stroke:#ffffff"
           inkscape:connector-curvature="0"
           d="m 72.377,419.923 -34.571,-34.303 4.549,13.498 -13.037,-5.423 7.38,10.806 -15.495,-0.598 11.463,8.995 -11.991,3.739 45.348,13.422 c 0.666,-2.26 1.702,-4.448 3.13,-6.48 0.959,-1.363 2.043,-2.579 3.224,-3.656 z"
           id="path451" />
        <path
           style="fill:#ffdb03"
           inkscape:connector-curvature="0"
           d="m 72.377,419.923 c -1.182,1.077 -2.266,2.293 -3.225,3.655 -1.429,2.032 -2.464,4.221 -3.13,6.48 l 23.615,6.987 z"
           id="path453" />
      </g>
      <g
         id="g461">
        <path
           style="fill:#c85e9b;stroke:#ffffff"
           inkscape:connector-curvature="0"
           d="m 85.076,413.307 -8.66,-47.929 -4.01,13.668 -7.573,-11.918 -0.149,13.085 -12.352,-9.373 4.234,13.941 -11.968,-3.812 29.458,36.997 c 1.842,-1.467 3.945,-2.668 6.281,-3.514 1.567,-0.568 3.154,-0.939 4.739,-1.145 z"
           id="path457" />
        <path
           style="fill:#ffdb03"
           inkscape:connector-curvature="0"
           d="m 85.076,413.307 c -1.585,0.206 -3.172,0.577 -4.739,1.146 -2.336,0.846 -4.439,2.047 -6.281,3.514 l 15.343,19.265 z"
           id="path459" />
      </g>
      <g
         id="g467">
        <path
           style="fill:#c85e9b;stroke:#ffffff"
           inkscape:connector-curvature="0"
           d="m 113.978,450.993 43.035,22.804 -8.268,-11.599 14.048,1.411 -10.194,-8.204 15.001,-3.92 -13.578,-5.285 10.393,-7.056 -47.291,0.306 c 0.015,2.354 -0.339,4.749 -1.118,7.108 -0.524,1.582 -1.211,3.061 -2.028,4.435 z"
           id="path463" />
        <path
           style="fill:#ffdb03"
           inkscape:connector-curvature="0"
           d="m 113.978,450.993 c 0.817,-1.374 1.505,-2.853 2.027,-4.435 0.779,-2.359 1.133,-4.755 1.118,-7.108 l -24.628,0.157 z"
           id="path465" />
      </g>
      <g
         id="g473">
        <path
           style="fill:#c85e9b;stroke:#ffffff"
           inkscape:connector-curvature="0"
           d="m 104.587,461.2 26.027,41.168 -1.418,-14.173 11.494,8.199 -4.775,-12.183 14.967,4.049 -9.157,-11.331 12.521,-0.962 -41.197,-23.224 c -1.156,2.05 -2.653,3.954 -4.5,5.614 -1.237,1.115 -2.569,2.059 -3.962,2.843 z"
           id="path469" />
        <path
           style="fill:#ffdb03"
           inkscape:connector-curvature="0"
           d="m 104.587,461.2 c 1.394,-0.784 2.725,-1.728 3.962,-2.842 1.847,-1.66 3.344,-3.564 4.5,-5.614 L 91.595,440.649 Z"
           id="path471" />
      </g>
      <g
         id="g479">
        <path
           style="fill:#c85e9b;stroke:#ffffff"
           inkscape:connector-curvature="0"
           d="m 88.842,465.213 -0.854,48.696 6.599,-12.622 5.103,13.165 2.699,-12.804 10.286,11.603 -1.433,-14.501 10.993,6.073 -21.678,-42.031 c -2.091,1.08 -4.39,1.849 -6.846,2.223 -1.645,0.25 -3.273,0.306 -4.869,0.198 z"
           id="path475" />
        <path
           style="fill:#ffdb03"
           inkscape:connector-curvature="0"
           d="m 88.842,465.213 c 1.597,0.107 3.225,0.052 4.87,-0.198 2.456,-0.374 4.755,-1.143 6.846,-2.223 L 89.269,440.904 Z"
           id="path477" />
      </g>
      <g
         id="g485">
        <path
           style="fill:#c85e9b;stroke:#ffffff"
           inkscape:connector-curvature="0"
           d="m 74.255,459.449 -27.621,40.114 12.476,-6.873 -3.022,13.791 9.324,-9.179 2.162,15.353 6.819,-12.875 5.807,11.136 5.158,-47.01 c -2.34,-0.258 -4.678,-0.886 -6.933,-1.931 -1.511,-0.701 -2.9,-1.555 -4.17,-2.526 z"
           id="path481" />
        <path
           style="fill:#ffdb03"
           inkscape:connector-curvature="0"
           d="m 74.255,459.449 c 1.27,0.972 2.659,1.825 4.169,2.526 2.255,1.045 4.593,1.673 6.933,1.931 l 2.687,-24.481 z"
           id="path483" />
      </g>
      <g
         id="g491">
        <path
           style="fill:#c85e9b;stroke:#ffffff"
           inkscape:connector-curvature="0"
           d="m 64.633,446.966 -45.483,17.418 14.175,1.399 -10.3,9.656 12.883,-2.285 -6.914,13.879 12.913,-6.752 -1.522,12.467 30.875,-35.821 c -1.782,-1.538 -3.354,-3.38 -4.62,-5.519 -0.848,-1.433 -1.511,-2.923 -2.007,-4.442 z"
           id="path487" />
        <path
           style="fill:#ffdb03"
           inkscape:connector-curvature="0"
           d="m 64.633,446.966 c 0.496,1.519 1.158,3.009 2.006,4.442 1.266,2.139 2.837,3.98 4.62,5.519 l 16.078,-18.656 z"
           id="path489" />
      </g>
      <circle
         style="fill:#772a5a;stroke:#ffffff"
         cx="89.976997"
         cy="438.44699"
         r="18.378"
         id="circle493" />
      <circle
         style="fill:#4c213e"
         cx="89.976997"
         cy="438.44699"
         r="12.252"
         id="circle495" />
      <polygon
         style="fill:#d689b5"
         points="88.093,378.199 94.489,393.494 106.642,381.363 92.57,408.261 "
         id="polygon497" />
      <polygon
         style="fill:#d689b5"
         points="57.275,388.567 70.752,398.221 74.72,381.515 76.876,411.793 "
         id="polygon499" />
      <polygon
         style="fill:#d689b5"
         points="36.646,416.365 53.188,415.283 45.663,399.85 66.531,421.893 "
         id="polygon501" />
      <polygon
         style="fill:#d689b5"
         points="31.129,447.93 45.049,438.926 30.958,429.115 59.922,438.2 "
         id="polygon503" />
      <polygon
         style="fill:#d689b5"
         points="44.125,477.302 51.482,462.447 34.356,461.22 63.892,454.215 "
         id="polygon505" />
      <polygon
         style="fill:#d689b5"
         points="78.582,495.934 74.668,479.826 60.761,489.896 78.882,465.544 "
         id="polygon507" />
      <polygon
         style="fill:#d689b5"
         points="110.805,494.139 99.317,482.186 92.365,497.886 95.774,467.724 "
         id="polygon509" />
      <polygon
         style="fill:#d689b5"
         points="140.197,474.389 124.106,470.401 126.596,487.39 113.398,460.054 "
         id="polygon511" />
      <polygon
         style="fill:#d689b5"
         points="151.011,445.074 135.198,450.054 146.174,463.258 120.668,446.799 "
         id="polygon513" />
      <polygon
         style="fill:#d689b5"
         points="141.825,410.284 131.83,423.507 148.43,427.902 118.104,429.284 "
         id="polygon515" />
      <polygon
         style="fill:#d689b5"
         points="118.203,385.825 116.166,402.276 132.736,397.775 107.171,414.143 "
         id="polygon517" />
    </g>
  </g>
</svg>
