<svg width="60" height="80" viewBox="0 0 60 80" fill="none" xmlns="http://www.w3.org/2000/svg">
<rect x="0.5" y="0.5" width="59" height="79" fill="white" stroke="#9F9F9F"/>
<path d="M27.2095 47.9912C27.2388 46.248 27.4365 44.8711 27.8027 43.8604C28.1689 42.8496 28.916 41.729 30.0439 40.4985L32.9224 37.5322C34.1528 36.1406 34.7681 34.6465 34.7681 33.0498C34.7681 31.5117 34.3652 30.3105 33.5596 29.4463C32.7539 28.5674 31.582 28.1279 30.0439 28.1279C28.5498 28.1279 27.3486 28.5234 26.4404 29.3145C25.5322 30.1055 25.0781 31.1675 25.0781 32.5005H21.0132C21.0425 30.1274 21.8848 28.2158 23.54 26.7656C25.21 25.3008 27.3779 24.5684 30.0439 24.5684C32.8125 24.5684 34.9658 25.3154 36.5039 26.8096C38.0566 28.2891 38.833 30.3252 38.833 32.918C38.833 35.4814 37.6465 38.0083 35.2734 40.4985L32.8784 42.8716C31.8091 44.0581 31.2744 45.7646 31.2744 47.9912H27.2095ZM27.0337 54.9565C27.0337 54.2974 27.2314 53.748 27.627 53.3086C28.0371 52.8545 28.6377 52.6274 29.4287 52.6274C30.2197 52.6274 30.8203 52.8545 31.2305 53.3086C31.6406 53.748 31.8457 54.2974 31.8457 54.9565C31.8457 55.6157 31.6406 56.165 31.2305 56.6045C30.8203 57.0293 30.2197 57.2417 29.4287 57.2417C28.6377 57.2417 28.0371 57.0293 27.627 56.6045C27.2314 56.165 27.0337 55.6157 27.0337 54.9565Z" fill="black"/>
</svg>
