<?xml version="1.0" encoding="UTF-8" standalone="no"?>
<!-- Created with Inkscape (http://www.inkscape.org/) -->

<svg
   width="168"
   height="457"
   viewBox="0 0 44.45 120.91458"
   version="1.1"
   id="svg1"
   inkscape:version="1.4.2 (2aeb623e1d, 2025-05-12)"
   sodipodi:docname="compass.svg"
   xmlns:inkscape="http://www.inkscape.org/namespaces/inkscape"
   xmlns:sodipodi="http://sodipodi.sourceforge.net/DTD/sodipodi-0.dtd"
   xmlns="http://www.w3.org/2000/svg"
   xmlns:svg="http://www.w3.org/2000/svg">
  <sodipodi:namedview
     id="namedview1"
     pagecolor="#ffffff"
     bordercolor="#999999"
     borderopacity="1"
     inkscape:showpageshadow="2"
     inkscape:pageopacity="0"
     inkscape:pagecheckerboard="0"
     inkscape:deskcolor="#d1d1d1"
     inkscape:document-units="px"
     inkscape:zoom="1.3344978"
     inkscape:cx="40.464661"
     inkscape:cy="198.95125"
     inkscape:window-width="1920"
     inkscape:window-height="954"
     inkscape:window-x="0"
     inkscape:window-y="27"
     inkscape:window-maximized="1"
     inkscape:current-layer="g11" />
  <defs
     id="defs1" />
  <g
     inkscape:label="Layer 1"
     inkscape:groupmode="layer"
     id="layer1"
     transform="translate(-65.339264,-77.635468)">
    <g
       id="g15"
       transform="matrix(0.50637863,0,0,0.45995253,41.036217,64.013187)">
      <g
         id="g11"
         transform="translate(15.875,10.583333)">
        <path
           style="fill:#333333;fill-opacity:1;stroke-width:1.45824;stroke-linejoin:round"
           d="M 62.317506,273.41476 49.396307,217.49203 c 10.482377,-0.93574 15.124437,-3.1249 21.64483,-2.85714 z"
           id="path1"
           sodipodi:nodetypes="cccc" />
        <path
           style="fill:#333333;fill-opacity:1;stroke-width:1.32292;stroke-linejoin:round"
           d="m 50.144424,216.35372 11.102802,-95.56342 13.085448,-1.18958 -1.982642,95.16689 z"
           id="path2"
           sodipodi:nodetypes="ccccc" />
        <path
           style="fill:#333333;fill-opacity:1;stroke-width:1.32292;stroke-linejoin:round"
           d="M 82.333386,122.33733 98.987592,240.10635 111.27998,281.34533 112.8661,235.348 95.022302,120.75121 Z"
           id="path3"
           sodipodi:nodetypes="cccccc" />
        <path
           style="fill:#4d4d4d;fill-opacity:1;stroke:none;stroke-width:1.52786;stroke-linejoin:round;stroke-opacity:1"
           d="m 51.945259,57.100718 c 3.161746,21.419037 7.822662,43.038032 7.534047,63.996852 12.424566,6.94534 24.849132,5.9787 37.273698,1.58669 -2.443303,-18.71006 3.271506,-43.820996 6.740986,-67.170243 z"
           id="path7"
           sodipodi:nodetypes="ccccc" />
        <path
           style="fill:#392309;fill-opacity:1;stroke:none;stroke-width:1.32292;stroke-linejoin:round;stroke-opacity:1"
           d="m 87.236313,19.033378 -25.774364,1.982643 -2.775701,34.101469 -26.567423,1.586113 2.379173,2.379173 85.253672,-3.568758 -6.34446,-2.775701 -21.809082,-0.396529 z"
           id="path8" />
        <path
           style="fill:#000000;fill-opacity:0.150882;stroke:none;stroke-width:1.32292;stroke-linejoin:round;stroke-opacity:1"
           d="m 82.743305,126.10914 1.569418,-0.27988 14.975245,95.73319 -2.243106,3.08427 z"
           id="path13"
           sodipodi:nodetypes="ccccc" />
        <ellipse
           style="fill:#c8c4b7;fill-opacity:1;stroke:none;stroke-width:1.32292;stroke-linejoin:round;stroke-opacity:1"
           id="path9"
           cx="60.003963"
           cy="220.12347"
           rx="9.7149534"
           ry="10.309746" />
        <ellipse
           style="fill:#c8c4b7;fill-opacity:1;stroke:none;stroke-width:1.32292;stroke-linejoin:round;stroke-opacity:1"
           id="path9-6"
           cx="103.59294"
           cy="229.35368"
           rx="9.7149534"
           ry="10.309746" />
      </g>
      <path
         style="fill:#000000;fill-opacity:0.150882;stroke:none;stroke-width:1.32292;stroke-linejoin:round;stroke-opacity:1"
         d="m 88.710585,136.18599 -4.662956,84.0939 3.965287,5.74967 1.886009,-89.4341 z"
         id="path12"
         sodipodi:nodetypes="ccccc" />
      <path
         style="fill:#000000;fill-opacity:0.150882;stroke:none;stroke-width:1.32292;stroke-linejoin:round;stroke-opacity:1"
         d="m 67.994122,69.115675 0.841166,2.243105 50.189472,-2.523492 -0.14019,-2.102911 z"
         id="path14" />
      <path
         style="fill:#ffffff;fill-opacity:0.150882;stroke:none;stroke-width:1.32292;stroke-linejoin:round;stroke-opacity:1"
         d="M 79.910619,32.104441 77.246931,66.872569 48.927728,68.414703 48.086565,67.57354 74.583244,65.470629 77.387124,31.824054 Z"
         id="path15" />
    </g>
    <path
       d="m 86.100434,94.020598 c 0,0 -6.21937,1.665631 -6.58363,3.071797 -0.36426,1.406138 -0.24157,1.953892 0.64697,1.97776 3.69653,0.0993 9.49018,-4.498472 5.93666,-5.049557 z"
       fill="#0f0f0f"
       stroke="#000000"
       stroke-opacity="0.956956"
       stroke-width="0.607264"
       id="path3-8"
       inkscape:transform-center-x="-2.9475973"
       inkscape:transform-center-y="-0.13711902" />
    <path
       d="m 97.439244,97.924398 c 1.60769,-0.237104 -4.15557,-4.788792 -5.07581,-4.105757 -2.45724,2.403605 3.52431,5.59774 5.07581,4.105757 z"
       fill="#0f0f0f"
       stroke="#000000"
       stroke-opacity="0.956956"
       stroke-width="0.607264"
       id="path4-4" />
    <path
       d="m 88.539634,101.90988 c -0.12079,2.09183 -0.0803,5.01966 -2.63149,4.98554 -2.64544,-0.0354 -5.62876,0.92871 -6.50388,-3.50929 -0.39835,-2.02016 2.67836,-4.080144 5.32413,-4.080144 2.64574,0 3.9294,0.558144 3.81124,2.603894 z"
       fill="#ffffff"
       id="path9-8"
       style="stroke-width:0.303633" />
    <path
       d="m 87.317464,104.03229 c 0.12079,2.09184 0.88065,3.8188 3.43188,3.78466 2.64539,-0.0354 5.53248,0.9143 6.50383,-3.50927 0.46424,-2.11408 -2.2068,-4.752322 -5.32408,-4.08016 -2.56413,0.55288 -4.72975,1.75903 -4.61163,3.80477 z"
       fill="#ffffff"
       id="path10-0"
       style="stroke-width:0.303633" />
    <path
       d="m 91.629784,104.63264 c 0.83152,0 1.50563,-0.50724 1.50563,-1.13294 0,-0.62574 -0.67411,-1.13298 -1.50563,-1.13298 -0.83152,0 -1.50563,0.50724 -1.50563,1.13298 0,0.6257 0.67411,1.13294 1.50563,1.13294 z"
       fill="#0f0f0f"
       stroke="#000000"
       stroke-opacity="0.956956"
       stroke-width="0.607264"
       id="path12-1" />
    <path
       d="m 85.818504,103.98817 c 0.83152,0 1.50563,-0.50722 1.50563,-1.13293 0,-0.62574 -0.67411,-1.13297 -1.50563,-1.13297 -0.83152,0 -1.50563,0.50723 -1.50563,1.13297 0,0.62571 0.67411,1.13293 1.50563,1.13293 z"
       fill="#0f0f0f"
       stroke="#000000"
       stroke-opacity="0.956956"
       stroke-width="0.607264"
       id="path12-3" />
    <path
       style="fill:#ffffff;fill-opacity:1;stroke:none;stroke-width:0.10599;stroke-linejoin:round"
       d="m 81.769628,110.33232 c -0.544278,3.82408 3.84692,6.74869 6.966238,6.53181 3.983594,-0.27697 7.130706,-5.65749 6.355922,-5.05487 -4.916959,3.82437 -10.5618,3.49628 -13.32216,-1.47694 z"
       id="path1-0"
       sodipodi:nodetypes="cssc" />
  </g>
</svg>
