<?xml version="1.0" encoding="UTF-8" standalone="no"?>
<svg
   width="399.99994"
   height="381.88208"
   version="1.1"
   id="svg84"
   sodipodi:docname="fox.svg"
   inkscape:version="1.3.1 (9b9bdc1480, 2023-11-25, custom)"
   xmlns:inkscape="http://www.inkscape.org/namespaces/inkscape"
   xmlns:sodipodi="http://sodipodi.sourceforge.net/DTD/sodipodi-0.dtd"
   xmlns="http://www.w3.org/2000/svg"
   xmlns:svg="http://www.w3.org/2000/svg">
  <sodipodi:namedview
     id="namedview84"
     pagecolor="#ffffff"
     bordercolor="#999999"
     borderopacity="1"
     inkscape:showpageshadow="2"
     inkscape:pageopacity="0"
     inkscape:pagecheckerboard="0"
     inkscape:deskcolor="#d1d1d1"
     inkscape:zoom="0.73632812"
     inkscape:cx="526.25995"
     inkscape:cy="104.57294"
     inkscape:window-width="1920"
     inkscape:window-height="954"
     inkscape:window-x="0"
     inkscape:window-y="27"
     inkscape:window-maximized="1"
     inkscape:current-layer="svg84" />
  <path
     id="path29"
     style="stroke-width:0.460549"
     d="M 153.9082 0 C 152.79644 5.5247448 149.90259 14.011073 147.75781 19.335938 C 145.25612 19.458907 137.82627 19.903705 136.125 21.945312 C 136.0734 22.007912 136.03741 22.084184 135.99414 22.152344 C 136.95991 23.087713 140.70806 23.985535 142.20898 24.677734 C 135.52135 26.430123 129.57471 28.695161 123.67969 32.398438 C 127.99641 31.048109 132.09274 29.204876 136.46289 27.960938 C 133.17734 29.845496 130.12191 32.130812 127.17578 34.505859 C 124.16425 36.933407 116.83065 44.343198 113.67773 45.242188 C 111.09176 45.979527 107.66429 45.495486 104.99219 45.347656 C 102.45088 45.229443 99.922494 44.97617 97.408203 44.585938 C 94.894226 44.195698 92.408969 43.671031 89.951172 43.013672 C 87.626324 42.380423 84.463917 41.825857 82.380859 40.798828 L 82.626953 40.71875 C 82.908343 40.62435 83.173583 40.515877 83.445312 40.398438 C 84.559841 36.787741 83.497692 30.469185 81.683594 27.167969 C 81.013034 25.9466 80.012759 24.870011 78.619141 24.519531 C 77.478822 24.232612 76.310683 24.497266 75.339844 25.140625 C 73.987675 26.036854 73.157883 27.557631 72.876953 29.130859 C 72.372184 31.960007 73.640138 34.422383 75.253906 36.644531 C 77.611454 39.890938 79.358581 43.345424 81.542969 46.681641 C 83.819916 50.159697 86.64323 53.2333 89.654297 56.085938 C 94.815662 60.976043 100.78601 65.145152 106.58984 69.242188 C 116.0122 75.893431 131.77898 85.327125 134.65234 97.125 C 131.06329 98.371699 127.47548 99.714791 124.61133 102.30078 C 126.78266 103.96428 128.96652 105.61092 131.16211 107.24219 C 130.42753 109.35519 129.60007 111.49165 129.06445 113.66406 C 128.6541 115.32941 128.5377 117.14855 127.94727 118.75586 C 127.21224 120.75649 125.97827 122.63695 125.13086 124.61133 C 122.96782 120.91987 120.82866 117.21487 118.71289 113.49609 C 113.20658 111.73036 107.04175 111.10387 101.35352 110.03125 C 91.920095 108.25215 82.712319 106.2627 73.142578 105.27344 C 70.78825 105.03027 68.269873 104.59086 65.916016 104.65625 C 64.120337 104.70595 61.758629 105.52285 60.150391 106.33203 C 59.856561 106.47987 59.662102 106.64055 59.451172 106.89062 C 60.105611 108.03094 62.492415 109.23128 63.615234 110.03125 C 65.587302 111.43639 67.442657 113.21419 69.109375 114.96289 C 75.586079 121.7569 80.091679 130.44697 84.265625 138.76172 C 81.968407 139.3374 78.382837 140.55957 77.142578 142.72461 C 76.750649 143.40853 76.764426 143.97222 76.947266 144.71094 C 77.392615 145.17655 77.802809 145.42373 78.355469 145.73828 C 78.841808 146.63727 78.260647 147.71202 78.535156 148.6543 C 78.755296 149.41144 80.094368 150.13481 79.861328 150.86523 C 79.832828 150.95413 79.566137 151.41117 79.529297 151.47656 C 79.257567 151.96705 79.115876 152.26231 79.134766 152.83984 C 79.406485 153.62554 79.923869 153.98636 80.548828 154.50586 C 81.257157 156.33055 79.499421 158.24222 82.173828 159.35352 C 84.025236 160.12309 87.452681 159.85991 89.261719 159.02539 C 89.825888 158.76518 90.277965 158.36773 90.734375 157.95508 C 90.405075 163.35409 90.018748 168.54602 88.886719 173.85938 C 90.453817 173.96407 92.017787 174.10646 93.578125 174.28516 C 95.138463 174.46354 96.693936 174.67731 98.244141 174.92969 C 99.794346 175.18176 101.3383 175.47173 102.875 175.79688 C 104.41139 176.12233 105.93949 176.48356 107.45898 176.88086 C 108.97849 177.27847 110.4874 177.71085 111.98633 178.17969 C 113.48526 178.64853 114.97228 179.15226 116.44727 179.69141 C 117.92256 180.23056 119.38407 180.80552 120.83203 181.41406 C 122.28 182.02229 123.71329 182.66376 125.13086 183.33984 C 127.19535 184.307 129.20684 185.37387 131.16602 186.53906 C 132.19395 187.14191 133.2914 187.97791 134.39258 188.42188 C 134.89135 188.62313 135.05165 188.62537 135.55273 188.50977 C 137.61 186.16235 137.08974 175.91527 136.86914 172.52148 C 136.80681 171.58259 136.72467 170.64616 136.62305 169.71094 C 137.6008 170.67718 138.52965 171.24573 139.75195 171.83984 C 143.29357 184.30091 148.51212 196.5129 153.93555 208.25781 C 155.08968 210.75721 156.42723 213.17202 157.57031 215.67188 C 155.22919 220.95836 152.79724 226.20286 150.27344 231.4043 C 147.81963 236.36993 145.14077 241.35532 143.0918 246.50195 C 142.73717 247.39265 141.91908 249.1039 142.20508 249.99414 C 143.33665 250.05724 144.74924 248.75858 145.63672 248.08203 C 144.7474 250.14989 143.29884 253.05557 143.39648 255.37305 L 143.70703 255.69922 C 145.28211 254.7726 146.51427 252.33878 147.52148 250.79688 C 147.63385 256.71446 149.48119 260.64539 153.74219 264.73828 C 158.30852 269.12455 164.11702 272.78439 170.13086 274.79883 C 162.62162 280.91353 155.20634 286.44034 145.69141 289.07422 C 144.04126 289.53109 141.98338 290.14294 140.25586 289.97852 C 138.26859 289.78969 136.15796 288.54158 134.3457 287.74805 C 128.31436 285.10634 121.84227 283.67757 116.22266 288.08594 C 115.23064 288.86427 114.36836 289.828 113.50391 290.74219 C 103.43816 291.04892 90.621571 292.16634 82.699219 298.91016 C 81.64133 306.25498 79.808934 313.42656 74.730469 319.10742 C 70.411443 320.31406 66.03115 321.47268 61.958984 323.38672 C 49.994386 329.01001 41.39073 340.2198 35.035156 351.49219 C 33.286918 354.59306 31.529244 357.75193 30.109375 361.01953 C 25.28236 358.10425 18.431795 354.11239 12.587891 354.57617 L 12.199219 354.80469 C 12.442849 355.9929 14.771565 357.24762 15.802734 357.92969 C 17.854022 359.28601 20.017784 360.50632 22.007812 361.94922 C 14.67265 361.61394 6.6291334 360.93743 0 364.71484 C 2.4164976 365.26059 15.001878 368.75839 16.216797 368.59766 C 12.134501 366.45795 7.1340781 365.67856 2.6953125 364.54883 C 9.5975556 362.84526 20.06065 362.02526 26.751953 364.8125 C 23.446596 361.30818 19.523192 358.73104 15.416016 356.27539 C 17.877643 356.94503 28.089812 360.12671 29.119141 362.10938 C 29.31303 362.48287 29.345824 362.79278 29.396484 363.20312 C 32.008712 364.3895 34.83613 365.18097 37.523438 366.19141 C 73.436092 379.69469 117.99644 382.5958 156.11328 381.74609 C 169.32182 381.4518 183.61936 381.52034 196.13477 376.81445 C 202.37888 374.46658 208.01285 371.39312 213.90234 368.30469 C 215.77724 367.32142 217.84374 366.58163 219.61133 365.43164 L 219.82227 365.45117 C 218.2214 366.78262 216.34514 367.4647 214.51953 368.38672 C 211.25884 370.03364 208.30221 373.89161 206.35547 376.9082 C 207.20703 376.18237 208.06934 375.39568 209.05859 374.86328 C 214.49399 371.93649 224.63823 370.67232 230.77734 370.51758 C 227.84089 371.41519 218.54329 374.29587 217.21875 377.01172 C 217.15845 377.13561 217.13923 377.27602 217.09961 377.4082 C 219.04359 376.71231 220.86766 375.68965 222.83789 375.01172 C 223.42417 375.07522 223.956 375.14464 224.54688 375.09766 C 235.47477 375.24365 246.41971 374.51977 257.31445 373.71289 C 266.82201 373.00871 276.30298 372.29094 285.76172 371.04102 C 296.40561 369.56449 306.9665 367.63254 317.44336 365.24414 C 323.14081 363.96151 331.03599 362.28157 336.26367 359.78125 C 340.50686 358.41219 344.72689 356.97318 348.92188 355.46289 C 351.67457 354.44416 354.38825 353.25995 357.20312 352.42773 C 352.4498 355.56269 348.09343 358.71367 344.07422 362.78906 C 351.84322 357.8506 358.74861 356.05493 368.00195 356.90234 C 363.19705 358.132 358.35758 359.1568 354.27344 362.10938 L 354.21094 362.36328 C 356.05175 362.45858 357.87254 362.10951 359.71289 362.10352 C 365.84785 362.08322 372.17606 363.86118 377.61523 366.59961 C 371.1139 366.55171 364.18703 366.49396 357.93555 368.50195 C 362.53735 368.33891 367.13017 368.00348 371.72852 367.82617 C 373.6905 367.75017 375.71135 367.95385 377.66016 367.77148 C 378.41832 367.70058 379.04265 367.57108 379.74023 367.26758 L 380.04297 366.89258 C 379.66127 365.83101 378.41382 365.32394 377.43359 364.86523 C 371.66075 362.16596 365.80912 361.3541 359.52539 360.86914 C 361.54997 360.07193 363.57938 359.24328 365.66797 358.62891 C 368.30599 357.85288 371.01473 357.3184 373.62305 356.44336 C 370.41026 353.73533 366.72744 352.10844 362.94727 350.34961 C 340.62631 339.96331 314.45 335.21967 290.25 331.31836 C 283.7945 330.27751 277.10364 328.99452 270.57812 328.55469 C 267.47956 314.96206 264.0921 300.96885 257.91016 288.41016 C 259.57964 289.07335 262.97403 290.60741 264.74023 290.08008 L 264.89062 289.77148 C 263.59741 288.7569 262.17258 288.38116 260.93555 287.16992 C 255.58627 281.93349 253.76404 272.08883 252.89453 264.91211 C 251.72888 255.29078 251.49597 245.51135 250.69922 235.84766 C 254.51762 239.26769 258.9089 241.47718 263.55859 243.53906 C 275.88702 249.00578 289.53479 252.13164 303.07031 251.39844 C 311.339 250.95079 322.23164 248.61191 329.38672 244.22656 C 322.315 243.77891 314.88404 244.04608 307.89844 242.9707 C 327.4736 240.53624 347.92074 230.14546 360.21094 214.47852 C 368.9715 203.31113 372.7127 189.68477 370.96289 175.61133 C 370.82012 174.46333 370.65172 173.31805 370.45703 172.17773 C 370.26234 171.03742 370.04308 169.90362 369.79688 168.77344 C 369.55066 167.64294 369.27774 166.5183 368.98047 165.40039 C 368.68326 164.28249 368.36123 163.17184 368.01367 162.06836 C 367.6658 160.96519 367.29378 159.86979 366.89648 158.7832 C 366.49918 157.69692 366.07698 156.61998 365.63086 155.55273 C 365.18444 154.48519 364.71472 153.42856 364.2207 152.38281 C 363.72638 151.33675 363.20896 150.30366 362.66797 149.28125 C 360.44352 145.02577 357.91494 140.90171 355.31055 136.86914 C 349.35933 127.65587 338.99313 113.71692 338.44922 102.48828 C 338.25302 98.433152 339.60368 94.507523 342.0957 91.324219 C 345.83444 86.547864 352.06154 83.035659 357.9082 81.625 C 352.57182 80.605341 347.4294 80.877182 342.10547 81.837891 C 343.98865 80.616972 346.28427 79.872435 348.41016 79.197266 C 357.60916 76.276469 366.49458 76.415717 375.86523 78.421875 C 384.04371 80.172413 393.26162 83.472021 400 88.472656 C 399.08447 86.243138 398.18408 84.041228 396.93945 81.96875 C 390.27817 70.875521 378.39563 62.175696 366.59375 57.244141 C 365.12675 56.629461 363.64056 56.064534 362.13672 55.546875 C 360.63287 55.029222 359.11462 54.560758 357.58008 54.142578 C 356.04583 53.724399 354.49795 53.356222 352.93945 53.039062 C 351.38096 52.721589 349.81428 52.456807 348.23828 52.242188 C 355.60475 51.719008 364.64435 51.831351 371.64648 54.236328 C 361.31412 44.250258 344.52661 40.701864 330.48633 40.964844 C 326.68634 41.035744 322.98994 41.563528 319.2793 42.367188 C 328.2973 37.420892 333.93676 35.027628 343.74414 32.275391 C 338.50402 31.544961 333.33067 30.984539 328.0293 31.230469 C 314.02309 31.879388 299.18431 37.667011 288.05469 46.132812 C 284.71709 48.67182 281.89596 51.755983 278.82227 54.587891 C 281.40548 48.460297 284.96937 42.623611 287.29883 36.429688 C 275.90531 43.227851 265.95568 59.748932 262.73828 72.380859 C 260.23566 82.20713 259.57085 92.495258 261.72852 102.45508 C 263.73374 111.71073 267.24026 121.10434 271.28711 129.64844 C 281.4049 151.00869 303.52859 183.94617 293.11328 208.24609 C 290.63967 214.01769 286.85006 218.46241 281.45703 221.68164 C 274.69618 225.71697 265.91949 228.09177 258.04688 227.94531 C 261.79205 224.12875 271.20133 213.59033 271.17969 208.39258 C 271.14979 201.19006 260.80492 186.84993 255.61914 181.99805 C 249.5597 176.32869 242.92972 173.79977 234.62695 174.10742 C 233.17868 174.16082 231.73211 174.25562 230.28906 174.39258 C 220.70739 157.0161 206.5465 140.49382 191.85547 127.22266 C 189.08204 124.72955 186.18153 122.39438 183.15234 120.21875 C 180.49084 118.27523 177.06908 116.29403 174.91602 113.82227 C 173.29857 111.9658 172.13524 109.53409 170.78906 107.46484 C 171.4412 106.97252 172.04212 106.62966 172.27148 105.79883 C 172.19968 104.53001 171.59426 103.62659 170.66211 102.78516 C 169.52041 101.75445 168.29618 100.7504 166.96289 99.978516 C 167.52061 97.651358 167.23964 96.103726 165.96484 94.080078 C 165.90264 93.981078 165.83849 93.885209 165.77539 93.787109 C 167.26711 93.912379 177.82329 95.721311 178.04297 95.650391 C 178.19265 95.601991 178.28513 95.448516 178.40625 95.347656 C 178.36805 94.086208 176.65972 92.805768 175.79297 91.980469 C 177.9313 92.082709 180.0282 92.246613 182.14258 92.595703 C 186.10007 93.248759 201.00632 96.972372 203.625 94.802734 C 204.04456 94.455015 204.04138 94.286356 204.13672 93.779297 C 203.01574 91.096143 200.04367 88.861627 198.32812 86.474609 C 196.00052 83.237413 194.00452 79.85818 192.01172 76.408203 C 196.00836 79.68916 200.94195 81.866853 205.45117 84.375 L 206.27148 86.84375 C 210.79223 89.257948 217.83612 91.552925 222.93945 89.966797 C 225.12982 89.286108 226.84799 87.808987 227.86719 85.755859 C 229.53346 82.400303 229.056 78.358917 227.8457 74.9375 C 224.17744 64.56917 213.52951 56.355434 203.91602 51.830078 C 202.8936 51.348349 201.8604 50.937588 200.79102 50.574219 C 199.63688 38.150911 194.4648 26.305016 188.33398 15.566406 C 186.45633 12.27809 184.47133 8.8346678 181.87891 6.0566406 C 177.30704 10.781406 173.89201 16.176792 170.46875 21.748047 C 166.2515 13.819235 161.37278 5.271905 153.9082 0 z M 184.03125 253.28125 C 193.55217 264.04749 204.01174 273.89074 216.08594 281.75 C 220.49339 284.62044 225.07683 287.17808 229.83398 289.42188 C 232.79255 290.79292 236.40993 291.94134 239.13086 293.68359 C 240.95832 294.8543 242.5803 296.69361 244.02734 298.28711 C 251.54718 306.56685 254.05329 316.51103 255.07617 327.36523 C 245.30701 325.29922 234.16247 324.33062 224.16211 323.27734 C 214.58945 322.2798 205.00832 321.38807 195.41602 320.59961 C 191.22042 320.24775 186.97146 319.73992 182.76758 319.56445 C 181.29382 315.76125 180.12489 311.84026 178.89062 307.95508 C 178.03677 305.26593 177.29608 302.34634 175.84766 299.9082 C 171.60186 296.97129 163.4185 295.92831 158.35938 295.5 C 162.70787 293.11021 167.237 290.70986 171.35938 287.95117 C 175.84512 284.94931 179.93631 281.48317 184.07617 278.0332 C 186.25088 276.22094 188.56513 274.50721 190.60352 272.54297 C 187.07157 269.30992 183.52183 266.38306 181.49219 261.93555 C 182.01676 259.12481 182.66572 255.81473 184.03125 253.28125 z " />
  <path
     fill="#a76857"
     d="m 254.95214,289.32798 c -0.66734,0.19942 -1.01966,0.22383 -1.50139,0.74011 -0.007,1.13064 0.4039,2.4165 0.63279,3.52964 0.53654,-1.44934 0.81932,-2.72506 0.8686,-4.26975 z"
     id="path30"
     style="stroke-width:0.460549" />
  <path
     fill="#a76857"
     d="m 251.99772,201.56069 -0.50476,0.64661 c -0.008,0.0511 -0.0249,0.10132 -0.0249,0.15336 4.6e-4,0.43292 0.0456,0.72951 -0.0175,1.17302 -0.55635,-0.10915 -0.3445,-0.053 -0.87321,-0.21278 -0.48403,-0.14599 -0.37995,-0.10408 -0.79813,0.0958 -0.009,0.0764 -0.0263,0.1529 -0.0276,0.23027 -0.0166,0.89163 0.57062,1.46501 1.16289,2.03793 0.8207,-1.48619 1.22506,-2.39393 1.08321,-4.12421 z"
     id="path31"
     style="stroke-width:0.460549" />
  <path
     fill="#7e3f3d"
     d="m 136.3193,166.2619 c -0.0272,0.21278 -0.0488,0.27357 -0.006,0.50661 0.30903,1.65383 1.9518,3.18331 3.25285,4.11638 l 0.12573,-0.7926 c -0.51443,-1.73121 -2.04437,-2.7154 -3.37306,-3.83039 z"
     id="path32"
     style="stroke-width:0.460549" />
  <path
     fill="#7e3f3d"
     d="m 223.00984,185.99275 c -2.54776,1.05511 -5.40362,7.43878 -8.60766,8.45291 -0.53562,-0.29705 -0.36246,-0.88932 -0.69313,-1.43184 -0.62727,0.27034 -1.00492,0.88932 -1.42033,1.40974 -0.10685,0.70326 -0.0663,1.23611 0.24363,1.87581 0.42278,0.12896 0.40206,0.17731 0.87089,0.0382 2.27926,-0.67378 8.43082,-8.09001 9.6066,-10.34485 z"
     id="path33"
     style="stroke-width:0.460549" />
  <path
     fill="#7e3f3d"
     d="m 82.68376,155.80513 -0.74517,-0.0267 -0.24041,0.37397 c -0.0143,0.61023 -0.0557,1.08413 0.23396,1.64508 1.26974,0.93906 3.49695,0.0792 5.09874,0.41081 0.11007,0.023 0.21968,0.0488 0.32929,0.0728 0.81425,-0.13172 1.79891,-0.3514 2.31012,-1.02519 l -0.17041,-0.36521 c -1.7685,-1.07999 -4.76668,-0.96025 -6.81612,-1.08552 z"
     id="path34"
     style="stroke-width:0.460549" />
  <path
     fill="#fefefe"
     d="m 79.4507,27.31517 c -0.18974,0.01 -0.35969,0.01 -0.54667,0.0631 -0.52364,0.14968 -0.70234,0.51812 -0.95011,0.96025 -0.23074,2.02365 1.79153,4.47884 2.82409,6.12898 l 0.33113,0.48082 0.39009,-0.008 c 0.29383,-0.57108 0.41034,-1.00907 0.4039,-1.65752 -0.023,-2.3465 -0.84281,-4.30107 -2.45243,-5.96779 z"
     id="path35"
     style="stroke-width:0.460549" />
  <path
     fill="#bc7855"
     d="m 253.4116,203.75244 c -0.7203,0.65858 -1.65797,1.48159 -1.60962,2.54914 0.0976,2.13971 3.53334,4.53456 5.03288,5.8766 l 0.59181,0.45733 0.24593,-0.28186 c -0.035,-2.86738 -2.56802,-6.41867 -4.261,-8.60121 z"
     id="path36"
     style="stroke-width:0.460549" />
  <path
     fill="#7e3f3d"
     d="m 89.17704,150.31861 c -2.20235,0.32423 -6.34821,0.42417 -8.17797,1.39777 -0.50753,0.26988 -0.52088,0.34127 -0.65536,0.86307 0.52318,0.97084 1.9016,1.49218 2.88488,1.89286 3.11469,0.27264 6.04286,0.91419 8.77208,-0.99663 -1.03854,-0.99939 -1.93984,-2.01859 -2.82363,-3.15707 z"
     id="path37"
     style="stroke-width:0.460549" />
  <path
     fill="#de9d61"
     d="m 134.72811,98.173867 c -2.94982,0.8101 -5.65739,2.191293 -8.19271,3.871373 0.90129,0.85202 1.90207,1.57692 2.88994,2.32439 1.10993,0.89807 2.24426,1.73397 3.41405,2.55283 0.92341,-2.86324 1.85187,-5.7168 1.88872,-8.748593 z"
     id="path38"
     style="stroke-width:0.460549" />
  <path
     fill="#fefefe"
     d="m 360.94383,351.15808 c -1.29875,0.12251 -5.44968,3.86999 -6.73692,4.76714 -0.87964,0.61345 -1.84542,1.11868 -2.79553,1.61331 3.01798,-0.97314 5.92589,-1.74456 9.0742,-2.15998 3.46747,-0.15244 6.68395,0.2206 10.12006,0.63372 -2.9051,-2.09734 -6.40389,-3.39517 -9.66181,-4.85419 z"
     id="path39"
     style="stroke-width:0.460549" />
  <path
     fill="#bf584a"
     d="m 245.88347,193.96531 c -1.4604,1.52534 -2.94015,3.0364 -4.37982,4.58108 q 3.45504,2.07478 6.86126,4.22876 l -0.0124,0.1985 0.20264,-0.28186 0.28462,0.22844 -0.12066,0.29567 c 0.44903,-0.36199 0.46515,-0.32469 0.54575,-0.88978 -0.46746,-0.93676 -1.52119,-1.49909 -2.35801,-2.09182 0.63325,-0.89622 1.2071,-1.84449 2.09504,-2.50769 l 0.56647,0.10501 c -0.18376,0.98926 -0.56371,1.56264 -1.13894,2.37828 0.9211,0.78892 1.83944,1.73212 3.06358,1.9974 l 0.50476,-0.64661 c -0.60148,-1.36553 -1.29553,-2.60257 -2.26038,-3.74565 -1.14722,-1.45073 -2.42387,-2.67809 -3.85387,-3.84973 z"
     id="path40"
     style="stroke-width:0.460549" />
  <path
     fill="#7e3f3d"
     d="m 80.44871,26.33742 c -1.66995,-0.286 -3.26345,-0.71385 -4.78602,0.29613 -0.76267,0.50523 -1.09933,1.29599 -1.21355,2.1761 -0.4495,3.45872 2.27926,6.42282 4.21218,8.99544 0.39976,0.48035 0.70326,0.82945 1.23473,1.17394 0.75162,0.11514 1.12605,0.13172 1.84957,-0.099 0.32469,-0.2685 0.57062,-0.47022 0.72352,-0.88149 0.22659,-0.61022 0.23626,-1.3296 -0.0778,-1.88733 -0.94274,0.0576 -2.13695,1.26329 -2.90929,1.83944 l -0.56786,-0.37719 c 0.0442,-0.0548 0.0829,-0.11422 0.13218,-0.16442 0.59918,-0.60931 1.46731,-0.64707 1.99326,-1.38441 -1.38119,-2.70527 -3.42511,-4.69346 -4.18731,-7.71926 1.18959,-1.25408 2.05635,-1.35125 3.59642,-1.96793 z"
     id="path41"
     style="stroke-width:0.460549" />
  <path
     fill="#7e3f3d"
     d="m 88.19837,140.07048 c -1.51106,-0.0765 -3.0585,-0.11606 -4.55022,0.18145 -2.55467,0.50937 -4.34897,1.82332 -5.79187,3.95934 1.68653,0.10777 3.39563,-0.005 5.08354,-0.0635 2.30459,-0.33298 8.17659,0.33436 9.77838,-0.90268 l 0.0461,-0.48496 c -0.97499,-1.62297 -2.84574,-2.20142 -4.56589,-2.6896 z"
     id="path42"
     style="stroke-width:0.460549" />
  <path
     fill="#de9d61"
     d="m 132.89052,162.55264 c -0.33528,1.55804 0.63878,4.24626 0.823,5.91115 0.6549,5.9268 0.7447,11.74538 -0.56464,17.59435 l 1.78785,1.74687 c 0.087,-0.1004 0.19067,-0.18791 0.26068,-0.30074 1.79936,-2.90699 0.51074,-18.62967 -0.18837,-22.46144 z"
     id="path43"
     style="stroke-width:0.460549" />
  <path
     fill="#bc7855"
     d="m 163.08089,93.822137 c -0.65997,0.005 -1.31947,0.018 -1.97622,0.0907 -3.20219,0.35462 -4.8703,1.98266 -6.78296,4.38028 3.6084,0.45778 7.65893,0.77925 10.94679,2.439533 0.40574,-0.899923 0.86307,-1.905303 0.75576,-2.918963 -0.18514,-1.74917 -1.71232,-2.9162 -2.94337,-3.99158 z"
     id="path44"
     style="stroke-width:0.460549" />
  <path
     fill="#7e3f3d"
     d="m 89.80062,144.98315 q -5.335,-0.13494 -10.62256,0.58628 c 0.40344,1.39869 0.89024,2.76652 1.897,3.85986 0.56509,0.61345 0.98327,0.83544 1.80858,0.88978 2.84527,-0.34909 8.6399,-0.47666 10.63684,-2.66381 0.1354,-0.59825 0.18928,-0.71892 -0.20541,-1.25316 -0.78708,-1.06479 -2.3138,-1.28907 -3.51445,-1.41895 z"
     id="path45"
     style="stroke-width:0.460549" />
  <path
     fill="#bc7855"
     d="m 225.65984,180.39846 c -0.22107,-0.83498 -0.40805,-1.96425 -1.07354,-2.55283 -1.31349,-1.16242 -3.80045,-0.74977 -5.4483,-0.71109 0.29521,0.90729 0.53286,1.91727 1.06295,2.71678 l 1.01597,-0.14323 0.26251,0.21232 c -0.28692,2.15306 -8.00434,10.82382 -9.92483,12.77839 l 0.53286,0.72813 c 0.3408,-0.44443 0.70418,-0.82208 1.09841,-1.21723 0.7553,-0.17501 0.99524,-0.0295 1.71876,0.20494 2.74534,-1.4604 6.304,-6.9985 8.06192,-9.73969 -0.0276,0.53608 -0.0774,1.06755 4.6e-4,1.60087 1.10117,-0.61299 2.11161,-2.75316 2.69283,-3.87736 z"
     id="path46"
     style="stroke-width:0.460549" />
  <path
     fill="#fefefe"
     d="m 194.36046,140.75255 c 0.052,0.79675 2.98712,4.38765 3.70972,5.37322 6.99943,9.54488 14.16143,18.75679 19.95606,29.11868 l 3.7134,0.0157 -0.007,-0.33804 c -2.85862,-4.37752 -6.19576,-8.46075 -9.36756,-12.61398 -5.60166,-7.33471 -11.30602,-15.18108 -18.00425,-21.55554 z"
     id="path47"
     style="stroke-width:0.460549" />
  <path
     fill="#de9d61"
     d="m 132.37931,107.71414 c -2.5952,2.32992 -2.04945,8.92636 -2.74994,12.00697 -0.62635,2.75455 -1.73029,5.54225 -2.53348,8.27008 1.98312,3.8548 3.82532,7.68749 5.48237,11.69565 l 3.39609,0.75023 c -3.21279,-7.72617 -4.80629,-16.86438 -4.42818,-25.25421 0.11238,-2.5017 0.55957,-4.98083 0.83314,-7.46872 z"
     id="path48"
     style="stroke-width:0.460549" />
  <defs
     id="defs49">
    <linearGradient
       id="gradient_0"
       gradientUnits="userSpaceOnUse"
       x1="674.21057"
       y1="402.37906"
       x2="691.97028"
       y2="436.60147"
       gradientTransform="matrix(-0.46054908,0,0,0.46054908,415.34573,-77.340928)">
      <stop
         offset="0"
         stop-color="#EB9B5A"
         id="stop48" />
      <stop
         offset="1"
         stop-color="#FFC087"
         id="stop49" />
    </linearGradient>
  </defs>
  <path
     fill="url(#gradient_0)"
     d="m 68.51681,106.05294 c -2.38749,-0.32331 -4.1408,0.21001 -6.32749,1.08091 5.30323,0.95287 10.78192,1.11222 16.12935,1.82746 8.30739,1.1113 16.45542,2.71263 24.70708,4.11731 4.23475,0.72029 8.8886,1.109 12.96354,2.41419 3.88979,5.50356 8.52982,14.65606 11.28897,20.86103 0.35601,1.00769 0.77142,2.00155 1.15829,2.99864 l 2.6371,0.0958 c -3.10733,-8.51923 -8.23508,-17.54231 -13.17493,-25.12894 -4.20988,-1.47513 -9.1594,-1.87167 -13.5687,-2.69467 -11.88861,-2.21938 -23.7109,-4.8003 -35.81321,-5.57172 z"
     id="path49"
     style="fill:url(#gradient_0);stroke-width:0.460549" />
  <path
     fill="#fefefe"
     d="m 146.09077,45.22039 c -1.06617,-0.13494 -2.09688,-0.17869 -3.16673,-0.0341 -2.83054,0.38226 -5.14249,2.03977 -6.84745,4.25778 0.0746,0.13632 2.7131,-0.4518 3.64663,0.10731 0.32239,0.46745 0.48035,0.81425 0.48496,1.39454 0.0147,1.89562 -0.81794,4.03349 -2.1609,5.37276 -0.64338,0.64155 -1.59027,1.36001 -2.56065,1.22553 -0.83083,-0.11514 -1.28355,-0.76221 -1.72982,-1.39086 l -0.14461,-0.20817 -0.25699,0.30811 c 0.099,1.4102 0.34495,2.59105 0.75392,3.93585 l 0.82853,2.08583 c 2.86507,0.85708 5.81903,1.36322 8.76332,1.85693 2.62836,-1.70633 5.26869,-3.77328 6.66507,-6.65724 1.12466,-2.32255 1.26927,-5.20006 0.37304,-7.62623 -0.85523,-2.3138 -2.48143,-3.64064 -4.64832,-4.62806 z"
     id="path50"
     style="stroke-width:0.460549" />
  <path
     fill="#7e3f3d"
     d="m 154.93147,2.05083 c -0.79997,0.73227 -1.83851,5.9747003 -2.25761,7.3581903 -1.00906,3.3343697 -2.0826,6.7000697 -3.49096,9.8893697 5.65324,1.11038 10.70224,3.0737 15.57531,6.1709 l 1.76252,1.31118 3.03824,-3.7019 C 165.64108,15.56472 161.3156,7.7524203 154.93147,2.05083 Z"
     id="path51"
     style="stroke-width:0.460549" />
  <path
     fill="#de9d61"
     d="m 181.97169,7.7436703 c -2.19359,1.47146 -7.81137,10.8542197 -9.76364,13.5272497 -1.5304,2.0955 -3.21924,3.96579 -5.02229,5.82134 3.33162,2.15767 6.31045,4.76208 9.24507,7.41945 2.55835,2.23228 4.75194,4.86892 6.96626,7.43234 1.05604,-9.87371 2.06464,-24.85768 -1.4254,-34.2003797 z"
     id="path52"
     style="stroke-width:0.460549" />
  <path
     fill="#de9d61"
     d="m 171.47163,157.4014 c -0.74424,-0.0539 -1.58336,0.0484 -2.31057,0.21415 -1.55343,0.35463 -3.62176,1.44751 -4.35541,2.9535 -0.2616,0.53747 -0.27633,0.6632 -0.0894,1.18362 0.16902,-0.1787 0.24363,-0.26528 0.44213,-0.43522 0.54068,-0.46286 1.0763,-0.683 1.79844,-0.62635 2.0803,0.16257 4.37936,2.08675 5.69791,3.63373 1.86246,2.18439 3.77052,6.01615 3.43432,8.9365 -0.10593,0.91879 -0.49555,1.97483 -1.33191,2.47038 -0.81563,0.48358 -1.62758,0.25008 -2.48697,0.0562 l -0.29383,-0.0686 -0.17639,0.24086 c 0.14277,0.30074 0.14968,0.3514 0.37627,0.64293 1.0413,1.33744 4.13435,1.75285 5.70068,1.85601 4.34021,0.43753 8.65924,0.46746 13.01788,0.46976 0.11283,-5.12729 -1.60409,-10.384 -4.92327,-14.33367 -3.76867,-4.48482 -8.73063,-6.72447 -14.49993,-7.19377 z"
     id="path53"
     style="stroke-width:0.460549" />
  <path
     fill="#7e3f3d"
     d="m 256.77085,340.46689 c -3.49142,-0.31962 -7.04272,0.16442 -10.19702,1.74641 -3.68531,1.84818 -6.02076,4.7022 -7.2845,8.60766 2.19267,1.53363 4.86478,2.21017 7.42128,2.87152 0.32515,-1.10532 0.67333,-2.19405 1.13434,-3.25148 1.88963,-4.33699 5.24105,-6.70973 9.50665,-8.39396 -4.32548,3.45273 -7.96059,6.0378 -9.23032,11.744 2.41558,0.61575 4.87813,0.84372 7.35681,1.03209 l 3.65261,0.10593 c 0.61898,-3.64617 2.24886,-6.28558 5.31151,-8.37325 0.65076,-0.44351 1.11085,-0.6747 1.89378,-0.53884 l -0.49601,0.2335 0.2137,0.0189 c -3.298,2.42756 -5.14526,4.66674 -6.23584,8.69056 1.51889,-0.009 3.02765,-0.0465 4.54055,-0.19113 3.68348,-0.35139 10.27439,-1.29782 12.76366,-4.30613 0.1027,-0.77925 -0.38271,-1.46224 -0.85155,-2.07109 -4.29739,-5.57817 -12.964,-7.18917 -19.49965,-7.92467 z"
     id="path54"
     style="stroke-width:0.460549" />
  <path
     fill="#7e3f3d"
     d="m 166.58429,101.33461 c -6.62454,7.04594 -11.00206,15.17187 -13.59311,24.46483 -2.65184,9.51172 -3.25562,16.88511 -0.51674,26.4567 0.86077,3.00739 1.84773,5.88075 3.3878,8.61181 1.74088,0.3712 3.50294,0.66319 5.25487,0.98143 0.77418,0.14001 1.70863,0.42278 2.46946,0.19481 -0.22244,-1.79061 -1.7837,-3.80137 -2.53486,-5.46625 -3.05851,-6.77837 -4.50417,-14.49026 -3.62867,-21.88023 1.25684,-10.60506 5.21572,-22.53144 13.86299,-29.3904 -1.50277,-1.4125 -3.01567,-2.78126 -4.70174,-3.9727 z"
     id="path55"
     style="stroke-width:0.460549" />
  <path
     fill="#7e3f3d"
     d="m 183.54953,10.12149 c -0.13033,2.2507 1.01183,5.11071 1.26743,7.41346 0.88794,8.00756 0.93031,17.13242 -0.56785,25.05571 4.57878,5.44737 8.74352,11.90888 11.54919,18.46019 0.86306,2.0149 1.12143,4.32547 2.03977,6.26346 0.0585,0.12389 0.12066,0.24594 0.18053,0.36844 0.35555,-1.14446 0.59549,-2.34097 0.80274,-3.52043 3.03732,-17.26184 -5.31105,-39.82691 -15.27181,-54.04083 z"
     id="path56"
     style="stroke-width:0.460549" />
  <path
     fill="#7e3f3d"
     d="m 177.74569,118.14189 c 0.17225,2.19175 4.19008,7.8321 5.66522,9.66508 3.6434,4.5272 8.51601,8.18028 12.42699,12.5122 3.60933,3.99757 7.23431,8.04764 10.58757,12.26212 3.58998,4.51246 6.92757,9.22158 10.5019,13.75292 1.9168,2.42939 3.65998,4.98038 5.50678,7.46135 1.13019,1.51843 2.62743,3.09674 3.43984,4.79248 0.28739,0.59963 0.43891,1.25039 0.37811,1.91588 -0.16672,1.81687 -1.94904,3.02489 -2.14616,4.68701 l 0.33621,0.0742 c 0.71385,-0.40943 0.8778,-1.1044 1.16426,-1.8293 0.3468,-0.69727 0.68392,-1.4254 1.0915,-2.08859 0.65813,-1.0694 1.31671,-1.48343 2.53349,-1.73351 0.5872,-0.12112 1.05005,-0.22198 1.58613,-0.48404 0.076,-0.24547 0.17224,-0.52272 0.11744,-0.78385 -0.22705,-1.07999 -1.7243,-2.21524 -2.20511,-3.31411 -6.48499,-14.83014 -28.20955,-38.68659 -40.62872,-49.27369 -3.26483,-2.78264 -6.81797,-5.19914 -10.35545,-7.6161 z"
     id="path57"
     style="stroke-width:0.460549" />
  <path
     fill="#7e3f3d"
     d="m 163.24254,173.45936 -0.21185,0.1506 c 0.0534,0.12988 0.0935,0.2662 0.16027,0.39009 1.03485,1.92233 5.39948,6.16767 7.24674,7.92973 8.94524,8.53213 20.16238,16.40154 31.3003,21.72686 5.17058,2.47223 10.67552,4.47194 16.05197,6.4523 5.79878,2.13556 11.29912,4.21586 17.42304,5.2369 l 0.19159,-0.21093 c -0.50753,-0.83866 -1.64647,-1.57232 -2.42111,-2.19912 -7.45399,-6.03274 -16.21455,-8.58372 -24.68635,-12.69135 q -7.73446,-3.82394 -15.17648,-8.18995 c -5.67028,-3.39563 -11.11903,-7.55945 -15.53386,-12.4993 -5.25118,-0.60792 -6.14188,-2.45657 -10.38538,-4.70082 -1.21447,-0.64247 -2.64816,-0.99433 -3.95888,-1.39501 z"
     id="path58"
     style="stroke-width:0.460549" />
  <path
     fill="#7e3f3d"
     d="m 149.81431,20.82925 c -3.60149,-0.37765 -7.15785,-0.25192 -10.57144,1.0063 3.37352,1.46685 6.77514,2.57447 10.063,4.27758 17.01636,8.81399 30.62375,23.18911 42.9508,37.58127 1.86338,2.06142 3.46333,4.32225 5.06466,6.58723 -2.43446,-8.31567 -6.06497,-15.34826 -11.08449,-22.35551 -6.54118,-9.13131 -17.61923,-19.8073 -27.83098,-24.53437 -2.78172,-1.2877 -5.57495,-2.06004 -8.59155,-2.5625 z"
     id="path59"
     style="stroke-width:0.460549" />
  <path
     fill="#a76857"
     d="m 206.15881,206.82799 -0.16672,0.0364 0.0147,0.28692 c 5.46441,6.73139 10.5392,13.9224 15.49379,21.03834 2.08214,2.98989 4.05651,6.09076 6.22432,9.01709 0.52825,0.71339 1.31855,1.82148 2.10747,2.21571 2.04254,1.02011 9.08479,-1.9053 11.47781,-2.6979 l 4.27665,-1.15322 c -3.10824,-3.4753 -15.18982,-19.3776 -17.83844,-20.87116 -2.61822,-1.47652 -5.92266,-2.21432 -8.78267,-3.18009 -4.29508,-1.45073 -8.60767,-2.98482 -12.80695,-4.69207 z"
     id="path60"
     style="stroke-width:0.460549" />
  <path
     fill="#7e3f3d"
     d="m 256.14634,287.57513 c -0.55404,1.67778 -0.45272,4.14587 -1.4452,5.61502 -0.34219,0.5066 -0.43292,0.55082 -0.98972,0.64845 -0.55634,-0.38686 -0.79306,-0.8755 -1.11821,-1.45027 l -0.14646,-0.26205 c -0.68391,0.969 -0.90037,2.07846 -1.53961,3.03087 l -0.71431,0.13218 c -0.67655,-0.18468 -0.83083,-0.3735 -1.24901,-0.89761 -1.67502,0.58628 -3.32286,1.04038 -5.05637,1.42264 2.60072,2.77665 4.82379,5.72554 6.71757,9.02952 5.1821,9.0438 7.91131,24.33542 5.16183,34.47486 l 3.1672,0.33206 c 4.38028,0.19988 8.68964,1.85693 12.69918,3.50938 -0.46976,-4.68977 -1.5387,-9.37816 -2.52703,-13.98503 -1.44429,-6.73046 -2.94337,-13.53876 -5.00755,-20.10987 -2.30137,-7.32504 -5.18947,-14.34427 -7.95231,-21.49015 z"
     id="path61"
     style="stroke-width:0.460549" />
  <path
     fill="#7e3f3d"
     d="m 133.87425,141.02934 c -2.90192,-0.0972 -9.28697,-0.61115 -11.56807,1.40559 -0.48404,0.42785 -0.467,0.61346 -0.55312,1.22092 1.00722,2.61546 8.31982,4.20343 10.93389,5.56574 l 0.28324,0.15013 c -2.23689,0.082 -9.83733,0.56418 -11.17292,2.24426 -0.33712,0.42371 -0.49877,0.78708 -0.31732,1.32684 0.86537,2.56987 4.83807,0.81333 6.73691,1.93108 -1.61975,-0.0221 -4.06388,-0.20586 -5.39579,0.91696 -0.49279,0.41541 -0.52917,0.55312 -0.59227,1.14769 0.16258,0.31179 0.3187,0.57706 0.58951,0.8101 2.06602,1.78002 5.68732,1.27526 8.19363,1.02703 l -0.12896,-0.0935 c 3.44215,2.64171 6.3063,7.97856 10.62947,9.00512 1.41573,0.3362 2.9862,0.2487 4.43417,0.43798 1.41803,0.1856 2.81948,0.59595 4.20205,0.95334 7.92513,1.65521 15.74756,3.73045 23.6667,5.39625 0.49371,-0.30212 0.65674,-0.58628 0.82162,-1.14538 0.46331,-1.56955 -0.88334,-5.10979 -1.80397,-6.41775 -0.84695,-1.20388 -2.05866,-2.05866 -3.43017,-2.56803 -3.62683,-1.34618 -8.33963,-1.52856 -12.17692,-2.0803 -4.19699,-0.60331 -8.35666,-1.36644 -12.53799,-2.06372 -2.46071,-5.29355 -3.39977,-11.84071 -6.85665,-16.60371 -1.14124,-1.57278 -2.04945,-2.25485 -3.95704,-2.56664 z"
     id="path62"
     style="stroke-width:0.460549" />
  <path
     fill="#de9d61"
     d="m 154.32171,98.293147 c -7.30017,10.722963 -10.96476,18.358403 -14.64915,30.661053 -1.17071,3.90914 -2.31242,7.82657 -3.09581,11.83473 4.64418,4.17718 6.4942,12.53983 8.79004,18.32249 q 4.37291,0.73549 8.73431,1.53593 c -4.64371,-10.70915 -6.55453,-18.34413 -3.98605,-29.99925 q 1.18499,-5.5837 3.24964,-10.90488 c 1.77725,-4.51706 4.01783,-8.81767 6.99574,-12.66187 1.62113,-2.09228 3.55221,-4.0754 4.90807,-6.34867 -3.28786,-1.660283 -7.33839,-1.981753 -10.94679,-2.439533 z"
     id="path63"
     style="stroke-width:0.460549" />
  <path
     fill="#7e3f3d"
     d="m 201.0048,51.62617 c -0.4914,0.70879 -0.0566,5.61962 -0.15566,6.92389 -0.31179,4.11225 -1.54284,8.26962 -2.53901,12.25568 1.81963,2.56894 7.16246,8.87386 8.03059,11.66709 0.18791,0.60516 0.1437,1.35493 0.14001,1.98634 l -0.005,0.34956 c 0.42831,0.71708 1.1417,1.19236 1.87075,1.57462 3.93585,2.06556 10.30432,3.0235 14.5796,1.74548 1.54929,-0.69543 2.79415,-1.58429 3.58952,-3.13081 1.39316,-2.71033 0.92248,-6.69086 -0.0267,-9.50896 C 222.95188,64.9867 210.65292,56.34357 201.00487,51.62617 Z"
     id="path64"
     style="stroke-width:0.460549" />
  <path
     fill="#a76857"
     d="m 260.04858,189.49568 c -1.17809,4.57464 -4.07402,8.64359 -6.93587,12.30587 2.52657,3.18562 4.78188,5.57403 5.68225,9.70884 0.22475,1.03255 0.34772,1.78186 -0.2404,2.69237 l -0.60701,0.11421 c -2.92725,-0.89438 -6.76777,-5.52382 -8.58095,-7.92328 -3.35602,3.48129 -7.34069,8.30738 -11.87203,10.16984 -2.48052,-0.41449 -4.93755,-0.82162 -7.37385,-1.45441 2.24886,2.44091 4.37521,4.96518 6.49005,7.52261 q 5.0094,6.31643 10.18551,12.497 c 0.47851,-0.27035 0.93399,-0.59457 1.38072,-0.91465 5.23414,-3.74979 20.19738,-18.56197 21.07749,-24.83649 0.84465,-6.02491 -5.61133,-15.23497 -9.20591,-19.88191 z"
     id="path65"
     style="stroke-width:0.460549" />
  <path
     fill="#7e3f3d"
     d="m 184.41214,268.01377 c -1.96516,0.84833 -3.75301,2.99173 -5.62791,4.16475 -2.56526,1.60501 -5.64311,2.25531 -8.12224,3.86354 -2.09688,1.36047 -3.94599,3.19069 -5.93003,4.71833 -5.37922,4.14126 -11.58972,7.68334 -18.18386,9.42928 -2.01076,0.5324 -4.29416,1.03808 -6.37815,0.77188 -5.97562,-0.76405 -12.01434,-6.67013 -19.2468,-3.63097 -3.09812,1.30197 -6.84146,4.43048 -7.99099,7.66216 -0.24363,0.68437 -0.23488,1.16703 0.0893,1.8316 0.56141,0.53101 0.99156,0.64845 1.71462,0.823 1.66719,-1.79291 2.16366,-4.7676 4.1933,-6.28004 1.58199,-1.17901 3.33806,-2.53763 5.25118,-3.1147 0.58029,-0.17501 1.58613,-0.45548 2.13234,-0.17869 -0.72536,0.70188 -1.65659,1.1265 -2.53302,1.6133 -3.3224,1.84634 -5.10426,3.39149 -6.94323,6.78988 -0.18146,0.49555 -0.30719,0.85524 -0.29337,1.38671 1.20295,1.55343 4.95596,1.70864 6.8479,2.01628 1.15736,-3.05436 2.92541,-5.12499 5.7914,-6.70467 1.93661,-1.06709 3.96441,-1.84266 6.18748,-1.11775 0.45318,0.14737 0.32607,0.023 0.49371,0.36291 -0.18698,0.15751 -3.36984,0.34173 -4.2435,0.66872 -3.3924,1.27157 -5.7016,3.60794 -7.14726,6.89718 10.66217,0.55819 21.6214,-0.19297 31.47162,-4.61194 2.92725,-1.31302 5.68133,-3.00922 8.4368,-4.64417 3.55037,-2.10609 7.08923,-4.20297 10.32781,-6.77698 4.2587,-3.38504 10.0759,-8.82182 14.7279,-11.14299 l 0.32008,-0.15797 c -1.90575,-1.33651 -3.58629,-3.10548 -5.34513,-4.63865 z"
     id="path66"
     style="stroke-width:0.460549" />
  <path
     fill="#de9d61"
     d="m 186.29671,132.65011 c -0.0834,1.08413 5.38658,10.16294 6.25978,11.87894 2.70987,5.32533 7.99836,16.46601 7.85789,22.34953 -0.0903,3.77558 -1.86476,8.83609 -4.70589,11.39951 -3.61623,3.26345 -11.58742,1.86016 -16.07593,1.55297 6.17182,6.17734 13.84687,10.51203 21.36349,14.80619 l 3.87368,2.21939 c 1.39685,-2.0909 3.91881,-3.10825 5.7016,-4.85143 3.24042,-3.16765 6.26024,-6.91929 8.91577,-10.58894 -1.47146,-3.03456 -2.71218,-6.07004 -4.39272,-9.02124 -5.07249,-8.90563 -11.57222,-16.90537 -17.56718,-25.19111 -3.57755,-4.94399 -6.85666,-10.26564 -11.23049,-14.55381 z"
     id="path67"
     style="stroke-width:0.460549" />
  <path
     fill="#a76857"
     d="m 237.5572,175.59309 q -3.31273,0.14092 -6.61763,0.40574 c 0.16119,1.06663 0.47022,2.35709 0.38134,3.42418 -0.0497,0.59918 -0.25469,0.82899 -0.67148,1.22829 -0.90084,0.32422 -1.81134,0.62082 -2.66198,1.06479 -0.0548,0.0737 -0.11145,0.14599 -0.16533,0.22014 -0.9188,1.26329 -1.56449,4.19422 -3.07095,4.55161 -0.27402,0.0645 -0.59641,0.0797 -0.8732,0.10869 -3.24779,3.16489 -6.16675,6.87553 -9.23309,10.23708 q -1.92463,-0.16119 -3.85479,-0.23856 c 0.3993,-1.06756 0.76267,-2.15998 1.29737,-3.16812 l -0.53286,-0.72813 c -1.94628,1.75515 -4.14172,3.0995 -6.40071,4.41252 3.23674,1.72107 6.57203,3.16259 9.95615,4.56635 9.29572,3.5126 14.73204,7.12147 22.00181,13.92976 4.1127,-3.0212 7.86618,-6.84514 11.32813,-10.58249 -2.78448,-2.24564 -5.93234,-3.86309 -8.73017,-6.04701 1.38211,-2.21064 3.94875,-4.32318 5.69929,-6.32472 3.37399,1.80857 5.38658,4.34666 7.19148,7.67597 2.7048,-3.65446 4.78971,-7.48945 6.84191,-11.52847 -0.55404,-0.7774 -1.11176,-1.55527 -1.71784,-2.29353 -5.12545,-6.24459 -11.37004,-10.04734 -19.4559,-10.8989 -5.405,5.76378 -10.10353,12.31785 -15.34688,18.25939 -2.22215,2.51783 -4.75148,5.47962 -7.5705,7.34208 1.83206,-2.40453 4.3135,-4.44799 6.3611,-6.69178 3.07969,-3.37537 5.83516,-7.06528 8.85728,-10.4996 q 3.5536,-4.1629 6.98745,-8.42528 z"
     id="path68"
     style="stroke-width:0.460549" />
  <path
     fill="#de9d61"
     d="m 169.80306,108.58688 c -3.73919,3.70972 -6.35834,8.94755 -8.06513,13.87542 -4.41022,12.7328 -4.16014,24.71076 1.80673,36.94939 1.19513,-1.32546 2.61961,-2.13464 4.12882,-3.05344 0.65076,-1.04913 0.95841,-2.91527 1.90714,-3.63096 0.0847,-0.0636 0.19849,-0.0926 0.26527,-0.17455 0.32101,-0.39608 0.018,-1.09335 -0.13125,-1.5212 -0.75484,-2.16458 -1.95503,-4.17073 -2.71171,-6.34544 -1.84496,-5.30415 -3.22569,-10.83073 -4.67734,-16.25416 1.91174,4.20205 3.29062,8.6551 4.78741,13.01742 q 1.84357,5.24888 3.8092,10.45354 c 2.69513,-0.18237 5.24519,-0.0456 7.87585,0.61207 6.37446,1.5935 12.67062,5.99221 16.05658,11.6611 1.87582,3.14141 2.45611,6.19623 1.57646,9.78483 l -0.28416,-0.0622 c 0.0359,-1.06065 0.24593,-2.08951 0.20218,-3.15338 -0.14737,-3.56327 -2.26037,-6.51125 -4.60779,-9.05394 -4.44015,-4.80997 -11.74308,-8.61733 -18.34505,-8.81767 -0.9188,-0.0276 -1.70403,-0.0166 -2.52657,0.44167 -0.64846,0.87182 -1.04039,1.81456 -1.55666,2.75915 5.63896,-0.61484 10.24307,1.04452 14.63901,4.59489 4.40101,3.55498 6.98239,7.79572 7.59215,13.45034 0.16488,1.52856 0.0433,2.97192 -0.20126,4.48713 0.25791,0.19113 0.35785,0.36568 0.70418,0.32745 1.29415,-0.14323 3.16628,-2.10333 3.87552,-3.14279 0.35693,-0.52364 0.65583,-1.09196 0.95104,-1.65199 0.87734,-1.60869 1.48619,-3.48129 1.82423,-5.27927 0.29521,-1.57139 0.39239,-3.23674 0.1529,-4.82149 -0.44489,-2.94751 -1.681,-5.84206 -2.81487,-8.58509 q -3.82118,-9.04289 -8.65924,-17.58561 c -1.98543,-3.44537 -4.16705,-6.77606 -6.16307,-10.2159 -3.70466,-6.38321 -7.21773,-12.98656 -11.41057,-19.06535 z"
     id="path69"
     style="stroke-width:0.460549" />
  <path
     fill="#de9d61"
     d="m 144.84821,169.10303 c -0.82991,0.0769 -0.45732,0.42002 -0.99985,0.80366 -0.55036,0.3887 -1.93339,0.10408 -2.65322,0.5218 -0.1985,0.1156 -0.21738,0.13448 -0.25653,0.3514 -0.30673,1.71739 1.38303,5.25164 1.98911,6.95751 q 4.93525,13.83352 11.02094,27.20141 c 2.15537,4.80031 4.30337,9.63331 6.84883,14.24202 0.4366,0.79031 1.06617,2.18623 1.98957,2.42249 6.74704,1.72798 18.81896,-4.06112 24.51411,-7.52123 4.49219,-2.9429 8.36955,-6.56512 12.70194,-9.701 -10.15511,-4.66675 -24.12034,-15.19996 -32.01875,-23.03206 -2.0757,-2.05866 -5.48653,-7.2426 -7.57696,-8.4718 -2.75823,-1.62159 -11.92776,-3.00048 -15.55919,-3.7742 z"
     id="path70"
     style="stroke-width:0.460549" />
  <path
     fill="#fae9ca"
     d="m 81.71753,44.29883 c 0.0461,0.13817 0.0783,0.28186 0.13816,0.4145 0.40943,0.90958 1.35125,1.97944 1.95872,2.8029 4.73859,6.42236 13.82199,15.15345 21.48047,17.66436 6.25425,2.05082 13.67139,2.81395 19.9344,0.36798 2.21708,-0.86583 4.29048,-2.20511 6.42144,-3.27404 -1.43415,1.60869 -3.27451,2.9756 -5.18579,3.96532 -6.74243,3.49143 -14.60078,2.39532 -21.55692,0.19896 9.06315,5.76469 30.62652,20.13797 30.92495,31.705577 0.0801,3.098573 -1.81456,6.305383 -2.41189,9.354673 -1.7289,8.81768 -0.14139,22.23531 2.76053,30.75823 1.70173,-7.39227 3.59735,-14.78316 6.52276,-21.7941 2.37873,-5.74443 9.73324,-20.132903 14.63947,-23.072133 5.49527,-3.292457 13.25875,-0.945497 18.95159,0.61576 -5.70159,-4.794317 -9.78528,-11.491157 -15.77841,-15.818937 -2.74625,-1.98313 -6.07372,-2.5473 -8.8757,-4.28817 -0.0599,-0.0368 -0.11836,-0.076 -0.17731,-0.11422 6.06819,0.47621 10.93896,2.71448 15.66373,6.48591 -1.9647,-3.80966 -5.19084,-8.31291 -8.9913,-10.45584 -6.01661,-3.39287 -12.82997,-3.76085 -19.3928,-5.35066 -3.87736,-0.93952 -7.553,-2.59612 -11.43819,-3.5688 C 115.65631,57.97898 103.80454,56.12896 92.8992,50.82343 89.02828,48.94025 85.3706,46.5652 81.71753,44.29883 Z"
     id="path71"
     style="stroke-width:0.460549" />
  <path
     fill="#806766"
     d="m 131.29517,342.53061 c -0.40298,-0.0778 -0.78201,-0.14231 -1.19512,-0.11375 -1.56863,0.10823 -3.89026,1.67271 -5.28572,2.42985 -9.98563,5.41883 -14.88541,14.58375 -20.22824,24.1056 -1.78877,3.18839 -3.4251,6.24827 -5.82687,9.03367 5.20651,0.6807 10.44065,1.03163 15.67019,1.48435 0.99432,-1.65199 1.78278,-3.41589 2.73335,-5.09413 3.11746,-5.5031 6.62961,-10.75566 10.96338,-15.38648 1.45901,-1.55896 2.99587,-3.21602 4.85971,-4.29278 -1.48435,1.57323 -3.10364,3.00508 -4.53595,4.6299 -4.61332,5.23368 -8.14849,11.0693 -11.62334,17.08821 -0.58674,1.03992 -1.24302,2.043 -1.87812,3.05436 16.81788,1.43323 33.87247,1.10486 50.7258,0.56187 6.10182,-0.19619 13.48672,-0.0594 19.40754,-1.24762 -3.5932,-3.90224 -7.79249,-7.26056 -11.66249,-10.8814 -7.75702,-7.25779 -16.14685,-15.75262 -22.42735,-24.31515 -6.61487,0.53931 -13.14361,-0.2335 -19.69677,-1.0565 z"
     id="path72"
     style="stroke-width:0.460549" />
  <path
     fill="#806766"
     d="m 84.04146,300.77954 c -0.52825,0.67332 -0.56556,3.57202 -0.75991,4.55391 -1.07768,5.45198 -3.63281,10.90211 -7.68518,14.75507 5.22401,2.4515 9.74337,6.35419 14.96738,8.92268 14.77856,7.26608 31.66551,11.27147 47.9731,13.02386 4.12053,0.44305 8.26455,0.48404 12.39015,0.85064 0.49417,-3.3551 1.39592,-6.5596 2.33682,-9.80878 3.02812,-9.69409 7.17582,-19.68525 12.38325,-28.42417 q -2.33729,0.95196 -4.7501,1.69298 c -18.55138,5.76516 -45.92366,5.8697 -64.41654,-0.0405 -4.38489,-1.40145 -8.37601,-3.40069 -12.43897,-5.52566 z"
     id="path73"
     style="stroke-width:0.460549" />
  <path
     fill="#fae9ca"
     d="m 63.49222,108.11942 -0.0567,0.0299 c 0.0184,0.40344 0.41081,0.53516 0.72536,0.77004 9.67798,7.23246 16.38496,18.94514 21.58318,29.64094 2.31656,0.16533 4.90484,0.85017 6.80967,2.22721 0.84511,0.61115 1.6414,1.49126 1.75055,2.57815 0.052,0.51812 -0.0751,0.74471 -0.36061,1.14631 -0.24225,0.33989 -0.35416,0.47529 -0.3339,0.91695 0.36522,0.52365 0.89807,1.15828 1.0344,1.78924 0.44765,2.07431 -1.71232,1.97023 -2.5146,3.18654 0.1658,0.18744 0.32929,0.37719 0.49785,0.56233 0.2464,0.27126 0.56832,0.54621 0.75853,0.8603 0.28277,0.46608 0.44443,0.96577 0.27541,1.50323 -0.40483,1.29046 -1.95826,1.90438 -3.06404,2.45796 2.35157,4.65707 0.71017,12.31922 -0.47114,17.1817 13.65758,-0.32791 29.94905,6.22248 41.91273,12.43298 0.79583,-2.87889 1.00031,-5.74489 1.0542,-8.71911 0.0318,-2.55421 -0.41772,-14.72974 -2.16136,-16.25508 -0.26758,-0.23396 -1.98819,0.0686 -2.47821,0.0976 -2.12221,0.12389 -5.33408,-0.3187 -6.94278,-1.88272 -0.47253,-0.45917 -0.68944,-1.00584 -0.68161,-1.65475 0.0106,-0.89623 0.37857,-1.28494 0.98327,-1.88964 0.0613,-0.0612 0.12389,-0.12112 0.18606,-0.18145 -0.80734,-0.82669 -1.53593,-1.50554 -1.52027,-2.74303 0.008,-0.65168 0.27448,-1.15552 0.73688,-1.60548 1.7441,-1.69758 6.1907,-1.32822 8.51417,-1.36645 -2.09688,-0.67885 -4.38858,-1.31578 -6.31874,-2.39209 -1.08597,-0.60516 -2.54545,-1.68653 -2.77803,-3.01107 -0.11514,-0.65398 -0.001,-1.09058 0.38226,-1.62896 1.2269,-1.72153 4.24027,-2.27189 6.18195,-2.65507 -1.53686,-3.46379 -3.28003,-6.85389 -4.94584,-10.25734 -2.12221,-4.337 -4.23705,-8.97703 -7.03443,-12.92624 -4.15369,-1.1265 -8.65786,-1.54191 -12.90366,-2.26359 -7.31168,-1.24211 -14.55151,-2.63895 -21.89911,-3.69729 -5.63067,-0.81103 -11.32306,-1.25131 -16.92149,-2.25209 z"
     id="path74"
     style="stroke-width:0.460549" />
  <path
     fill="#fcddac"
     d="m 115.08339,159.13951 -0.42417,-0.12389 c -0.4214,1.05604 -1.73351,1.31855 -2.30735,2.24426 -0.17455,0.28139 -0.0341,0.56371 0.0184,0.87136 0.89761,0.0741 1.26421,0.19527 2.08491,-0.2114 0.56739,-0.77418 0.53654,-1.8514 0.62819,-2.78033 z"
     id="path75"
     style="stroke-width:0.460549" />
  <path
     fill="#bf584a"
     d="m 144.32963,25.56047 c -5.47408,0.55036 -15.26167,8.72833 -19.4978,12.46062 -2.59197,2.2834 -5.21342,5.08584 -8.19455,6.84468 -7.96566,4.6999 -27.72782,-0.90222 -36.41792,-3.11792 1.99832,1.72568 4.4314,3.03825 6.71388,4.35864 10.32505,5.9724 20.85182,8.97196 32.34897,11.80203 4.82748,1.18822 9.93266,2.02688 14.4442,4.14817 -0.9782,-2.73014 -1.65291,-5.47962 -0.92386,-8.37647 0.8359,-3.32286 3.34957,-6.40808 6.27176,-8.16047 2.04345,-1.22506 4.65477,-1.96516 7.01831,-1.34526 q 0.41265,0.10776 0.8124,0.25606 0.39976,0.1483 0.78248,0.33528 0.38317,0.18744 0.74563,0.41173 0.36245,0.22429 0.70095,0.48312 0.3385,0.25929 0.64984,0.55081 0.31087,0.29153 0.5918,0.61253 0.28048,0.32101 0.52779,0.66826 0.24732,0.34679 0.45917,0.71708 c 1.35862,2.41373 1.70035,5.65139 0.85524,8.2862 -1.2223,3.81104 -4.15692,6.12161 -7.56636,7.8413 10.98778,2.94015 14.93192,2.6173 21.94286,12.56655 q 0.98373,1.78048 1.79568,3.64524 c 0.26988,0.61345 0.59917,1.23289 0.35278,1.87259 -0.98788,-0.053 -5.62515,-3.72584 -7.11917,-4.54193 4.74964,3.89947 8.63161,8.66431 13.03032,12.92945 q 2.84665,-0.035 5.68317,0.20265 2.83698,0.2381 5.63804,0.74655 c 5.81996,1.06156 11.22957,2.736577 17.21993,2.324387 -6.37031,-6.378607 -13.0865,-16.178627 -15.46201,-25.023017 5.32671,7.68104 9.27546,9.36159 17.42718,13.61384 C 201.0679,76.48845 196.53702,70.97614 191.75606,65.32935 178.56409,49.74759 163.29504,33.9351 144.32963,25.56047 Z"
     id="path76"
     style="stroke-width:0.460549" />
  <path
     d="m 145.30416,34.68257 c -0.43799,-0.0258 -0.75531,-0.0258 -1.17809,0.0972 1.32776,0.80872 3.0714,1.17347 4.54654,1.68008 5.40362,1.85601 7.90026,6.81935 10.20807,11.62334 l 0.36568,0.61022 0.24409,-0.28369 c -0.0111,-3.22109 -1.80167,-6.77376 -3.88243,-9.16539 -2.80198,-3.22154 -6.21695,-4.26883 -10.30386,-4.56174 z"
     id="path77"
     style="stroke-width:0.460549" />
  <path
     fill="#806766"
     d="m 113.14632,291.67172 c -9.73647,0.60332 -21.08855,1.72153 -29.21125,7.58524 0.82346,0.57983 1.71601,1.07953 2.60901,1.54468 19.75019,10.28821 49.20967,10.495 70.52342,5.42067 5.54639,-1.32086 10.6898,-3.76545 16.09665,-5.48837 -2.1655,1.40191 -4.57924,2.33683 -6.83501,3.58307 -0.90682,2.03701 -1.60639,4.15738 -2.48374,6.20867 -4.48114,10.47657 -8.91393,21.00103 -11.88585,32.02428 6.30354,7.72248 12.91334,14.99409 19.95974,22.04924 4.12421,4.12975 10.96475,9.69364 14.12688,14.26874 4.4466,-0.91742 8.7099,-2.65691 12.84794,-4.49174 -9.4256,-5.53488 -21.70246,-17.32493 -28.50339,-25.93075 -2.45334,-3.10457 -4.58154,-6.40302 -6.5596,-9.8249 -0.33205,-0.68345 -0.68299,-1.38026 -0.91188,-2.10609 -1.68331,-5.34283 0.35692,-15.51452 2.08168,-20.74727 0.84971,-2.57816 1.99325,-5.01078 3.18377,-7.44386 l 0.10731,0.16119 -0.18284,0.17685 c -0.52318,2.15629 -1.59165,4.04501 -2.29906,6.14603 -1.9624,5.83009 -3.72584,14.52019 -2.47499,20.62753 0.58536,2.85955 2.24196,5.09552 3.84973,7.45583 7.75887,11.39399 20.64227,23.73854 32.22554,31.28234 3.02351,-1.34895 5.99727,-2.7633 8.87847,-4.39686 3.39977,-1.9274 6.63052,-4.03027 10.22465,-5.60074 -2.55052,-1.98405 -5.19638,-3.88151 -7.62163,-6.018 -10.92699,-9.62639 -24.55832,-25.02946 -29.93937,-38.59355 -0.78017,-1.96608 -1.53041,-3.97822 -2.11761,-6.01062 -0.95656,-3.30905 -1.88779,-10.84271 -4.0579,-13.17723 -1.78831,-1.92372 -14.61967,-4.34759 -17.45803,-4.0031 -3.07785,0.37305 -6.24919,2.35848 -9.27408,3.21371 -6.72632,1.90115 -14.36176,2.06787 -21.33079,1.85279 -5.35572,-0.16487 -11.83473,-1.01689 -15.69091,-5.1061 0.47115,-1.69713 1.26191,-3.14003 2.12314,-4.66168 z"
     id="path78"
     style="stroke-width:0.460549" />
  <path
     fill="#806766"
     d="m 74.7204,320.3234 -2.50907,0.80596 c -5.95996,1.94444 -11.81677,4.33837 -16.91827,8.05132 -10.19149,7.41714 -18.90738,22.45315 -24.54358,33.56021 6.89212,2.14938 13.62903,4.61562 20.59345,6.55131 1.51843,-1.66396 2.82962,-3.60564 4.24995,-5.36402 4.10395,-5.08031 10.9887,-13.36697 16.81971,-16.17402 -7.87354,6.31367 -14.04398,13.98365 -20.48338,21.67482 1.53225,0.41818 3.14141,0.97498 4.70866,1.21033 0.13217,0.0203 0.71246,0.0755 0.78707,0.0714 0.80412,-0.0461 1.95273,-2.70434 2.32624,-3.41175 3.34589,-6.33992 8.46167,-11.49807 14.02372,-15.91842 1.37566,-0.96254 3.04284,-2.17102 4.65154,-2.65967 -2.70941,2.26867 -5.6362,4.09889 -8.23277,6.55638 -3.07325,2.90975 -5.7974,6.35558 -8.08172,9.91286 -1.20111,1.87029 -2.23873,3.83729 -3.543,5.6408 l -0.18192,0.24732 c 12.92255,3.48267 26.32406,5.32993 39.6086,6.76546 5.30921,-10.04457 11.87526,-23.36503 20.96742,-30.25807 3.01153,-2.28294 6.37262,-3.83776 9.77884,-5.42158 -20.58148,-4.08369 -36.94893,-9.13131 -54.02149,-21.84062 z"
     id="path79"
     style="stroke-width:0.460549" />
  <path
     fill="#94947d"
     d="m 255.16722,328.51104 q -21.57719,-2.80152 -43.24004,-4.83853 c -9.60383,-0.96531 -19.367,-1.63172 -28.89254,-3.16305 5.77528,12.77287 15.76874,23.5732 25.69127,33.27467 q 4.12882,3.975 8.63483,7.51708 c 1.37152,1.0846 3.01153,2.05589 4.28633,3.2326 0.38134,0.35278 0.53839,0.74609 0.70464,1.22552 -0.85339,1.23151 -5.81996,3.32056 -7.38582,4.29876 -1.12098,0.69958 -2.16136,1.51291 -3.16213,2.37321 l 0.42739,-0.0585 c 3.00047,-0.42923 5.84897,-1.44013 8.79648,-2.10056 3.26576,-0.73181 6.61027,-0.788 9.94372,-0.71938 1.00446,0.0207 2.76191,-0.0143 3.58123,0.5522 0.0553,0.0382 0.0995,0.0898 0.14922,0.13494 -0.69543,1.13341 -6.77053,2.57861 -8.27469,3.06956 -1.26651,0.47529 -2.47729,0.90774 -3.5886,1.70219 0.58628,0.0635 1.1173,0.13218 1.70818,0.0852 10.92791,0.14599 21.87332,-0.57661 32.76807,-1.38349 9.50757,-0.70418 18.98844,-1.42171 28.44719,-2.67164 q 15.96586,-2.21479 31.68117,-5.7974 c 5.69746,-1.28263 13.59311,-2.96271 18.8208,-5.46303 0.69958,-0.82024 15.72085,-6.5467 18.0959,-7.42313 1.76344,-0.65029 3.76729,-0.94827 5.43448,-1.78094 -7.97994,-4.0556 -17.01775,-6.44401 -25.64246,-8.71728 q -15.6255,-4.04224 -31.48958,-7.0137 -15.86407,-2.97146 -31.89348,-4.85833 c 0.95794,4.53641 1.87443,9.0286 1.78693,13.69074 2.12958,1.26697 5.46902,3.48175 6.10227,6.03596 0.17824,0.71753 0.0419,1.31118 -0.34725,1.92924 -1.57324,2.4994 -7.5857,3.69729 -10.30248,4.08 -8.94939,1.26191 -22.48309,0.90728 -30.23459,-4.07079 0.83774,-4.20527 2.8006,-7.26424 6.35742,-9.67614 3.13864,-2.12865 6.80507,-2.9733 10.56407,-2.95258 q 0.49832,-5.24473 0.47207,-10.51341 z"
     id="path81"
     style="stroke-width:0.460549" />
  <path
     fill="#7c7863"
     d="m 226.42711,373.30957 c -1.26651,0.47529 -2.47729,0.90774 -3.5886,1.70219 0.58628,0.0635 1.1173,0.13218 1.70818,0.0852 1.01459,-0.27587 2.44137,0.0341 3.30398,-0.38686 -0.28094,-0.64661 -0.87689,-0.99064 -1.42356,-1.40053 z"
     id="path82"
     style="stroke-width:0.460549" />
  <path
     fill="#fae9ca"
     d="m 337.05883,32.84912 c -4.38212,-0.16856 -8.90287,-0.16165 -13.25875,0.36798 q -0.87182,0.1133 -1.73995,0.24824 -0.8686,0.13448 -1.73397,0.2906 -0.86491,0.15567 -1.72568,0.33252 -0.86122,0.17685 -1.71738,0.37489 -0.85663,0.19803 -1.70772,0.41679 -0.85109,0.21877 -1.69712,0.45825 -0.84557,0.23949 -1.68515,0.4997 -0.83958,0.25975 -1.67226,0.54068 -0.83313,0.28048 -1.65889,0.58121 -0.82623,0.30074 -1.64416,0.62175 -0.8184,0.32054 -1.62851,0.66134 -0.8101,0.34081 -1.61192,0.70142 -0.80181,0.36015 -1.59442,0.7401 -0.7926,0.37996 -1.57554,0.77925 -0.78293,0.3993 -1.55619,0.81748 -0.7728,0.41818 -1.53547,0.85524 -0.76267,0.4366 -1.51475,0.89208 -0.75161,0.45548 -1.49172,0.92939 -0.74056,0.47344 -1.46915,0.96531 -0.72859,0.4914 -1.44474,1.00077 -0.71662,0.50937 -1.42033,1.03578 -0.70372,0.52686 -1.39409,1.07031 -0.69082,0.54391 -1.36783,1.10394 -0.67747,0.56049 -1.34066,1.13709 -0.66319,0.57707 -1.3121,1.1698 -0.64891,0.59273 -1.28355,1.20111 -0.63418,0.60839 -1.25315,1.23197 -0.61944,0.62404 -1.22322,1.26283 -0.60378,0.63832 -1.1919,1.29184 -0.58812,0.65305 -1.16013,1.32039 -0.57154,0.6678 -1.12696,1.34895 -0.55542,0.68115 -1.09427,1.37566 c 2.01859,-7.90026 4.80722,-14.13149 8.68228,-21.29211 -3.95382,4.04086 -7.70453,8.61688 -10.99792,13.20487 -10.5217,14.65835 -13.50928,32.9486 -10.56453,50.51762 0.22567,1.34757 0.4845,2.62145 1.09472,3.85941 2.51368,5.0992 8.97703,11.12364 13.58252,14.39768 -1.89654,-4.91774 -5.01815,-10.85238 -5.4156,-16.08882 1.46178,2.30182 2.71356,4.74273 4.16336,7.05791 5.16138,8.24383 11.02002,15.89033 18.19676,22.49 -1.13387,-3.04147 -2.56204,-5.94984 -3.62775,-9.02953 -4.60687,-13.31217 -6.48038,-27.779403 -2.8904,-41.57284 0.66319,4.14448 1.08551,8.22817 2.73198,12.145597 1.92279,4.575093 4.75839,8.859583 7.67689,12.862213 10.02799,13.75062 23.48155,25.57061 39.32398,32.06896 -2.1959,-2.6454 -4.10303,-5.37277 -5.71772,-8.41193 -2.35386,-4.44845 -3.51951,-8.90978 -4.31534,-13.83536 1.61607,2.00201 2.8029,4.33838 4.40745,6.36571 5.3327,6.7383 13.13993,10.81093 21.36165,12.7434 -4.78741,-7.82934 -10.07221,-15.17141 -13.81094,-23.61742 -2.57678,-5.82134 -4.57464,-12.68122 -2.15123,-18.870083 2.9208,-7.459967 8.44785,-10.595387 15.36392,-13.676927 -7.23845,-0.11099 -12.02171,0.57523 -18.57855,3.58906 4.91222,-4.4816 11.20332,-7.55761 17.66574,-9.0111 15.70012,-3.53195 32.49478,1.34388 45.78411,9.77884 -10.19191,-16.3214 -25.66963,-26.44335 -44.07916,-31.25793 -5.23414,-1.36921 -10.57697,-2.06556 -15.82354,-3.33345 10.57282,-0.60654 18.50486,-0.89577 29.08229,0.70556 -2.62375,-1.74778 -5.29493,-3.16075 -8.22264,-4.34574 -12.44312,-5.03657 -28.49463,-7.13022 -41.55673,-3.67104 -2.04253,0.54115 -3.97684,1.38718 -5.91759,2.21064 3.7438,-4.05928 13.13348,-9.37955 18.35564,-11.29543 1.48159,-0.54345 6.21419,-1.65199 7.02798,-2.31242 z"
     id="path83"
     style="stroke-width:0.460549" />
  <path
     fill="#bf584a"
     d="m 288.03108,89.89273 c -1.44705,11.84394 0.95241,24.48786 4.58522,35.74828 1.25684,3.89625 2.84297,7.69071 4.06527,11.5934 -2.15629,-1.97207 -4.47147,-3.79262 -6.56328,-5.82963 -5.61456,-5.46856 -10.74231,-12.35653 -14.56118,-19.18279 1.11867,3.53518 2.55789,6.98101 3.91098,10.43236 -6.21143,-3.50984 -10.77777,-8.07573 -14.85547,-13.9118 2.13833,7.2518 6.05069,16.6622 9.4256,23.4378 10.77178,21.62554 32.6847,54.821 19.25739,79.2955 -4.35863,7.94401 -11.7615,12.91702 -20.35719,15.37128 -5.18532,1.48067 -10.32873,2.25485 -15.71577,1.97714 -2.60671,2.24794 -5.26638,4.90024 -8.17521,6.72263 -2.24241,1.40514 -15.89125,5.77022 -18.5242,5.65877 -1.40468,-0.0594 -2.59382,-1.39823 -3.42971,-2.39347 -2.93969,-3.50202 -5.3479,-7.65249 -7.93849,-11.43129 -3.16904,-4.62207 -6.53473,-9.09631 -9.80831,-13.64239 -1.72522,-2.39623 -3.26299,-5.11946 -5.37092,-7.20206 -0.75945,-0.75024 -1.7699,-1.21309 -2.71034,-1.6939 -9.24368,8.88491 -22.80408,18.67849 -36.14849,18.28748 -1.23243,-0.0359 -2.85034,-0.21876 -3.73506,-1.18591 -1.3973,-1.52764 -2.05451,-3.89855 -3.29569,-5.60765 -2.66335,8.08448 -6.70237,15.92763 -10.42084,23.57965 -1.40882,2.89916 -3.00923,5.77207 -4.16889,8.77945 2.05221,-2.12497 4.12974,-4.40745 6.48039,-6.20267 -1.69943,3.58813 -4.23798,5.92864 -4.82241,10.04964 0.0507,-0.0534 0.10224,-0.10593 0.15244,-0.15981 1.1394,-1.22092 1.78969,-3.08338 3.02995,-4.14126 0.99893,2.26774 0.46976,5.38244 1.14032,7.80815 2.24011,8.10566 14.3788,15.10969 21.62877,17.93424 q 0.31317,0.12527 0.63141,0.23672 c 4.42818,-1.49908 8.19731,-4.07079 11.81493,-6.99482 -1.68423,-1.75423 -2.8614,-3.27404 -2.83468,-5.84252 0.0313,-3.01476 1.34848,-6.26808 2.59565,-8.97012 -5.45843,-6.45736 -14.42394,-14.90429 -17.86378,-22.26985 4.15692,5.06604 8.56253,9.88062 12.92577,14.76567 11.40642,12.76964 23.38024,25.67929 37.90918,34.95936 3.49465,2.23182 7.04686,4.42449 10.74277,6.30998 5.41191,2.76145 11.90795,4.77405 16.33798,8.99452 1.65106,-0.5218 4.39548,-1.82469 6.03687,-1.76758 -0.01,0.0852 -0.0207,0.16994 -0.0285,0.2556 -0.0364,0.39423 -0.0299,0.24271 0.0203,0.67655 0.47529,0.14 0.65721,0.0889 1.13388,0.005 1.3471,-1.22598 1.14814,-3.24733 2.20649,-4.64095 0.2708,0.11007 0.47252,0.20034 0.71661,0.36706 0.48173,-0.51628 0.83405,-0.54069 1.50139,-0.74011 -0.0493,-1.40605 -0.0626,-2.76145 0.0603,-4.16428 1.17532,0.96946 2.19774,1.83022 3.64847,2.36584 -2.23366,-3.92158 -4.22047,-7.77131 -5.50402,-12.12672 -2.77297,-9.40855 -4.04178,-30.49019 -2.78402,-40.37357 3.78479,1.90529 7.37846,4.10671 11.22082,5.91253 15.03831,7.06712 31.87184,11.16831 48.48707,8.44923 5.65001,-0.92478 11.93098,-2.84251 17.49303,-4.36647 -3.02396,-0.047 -6.05207,0.0313 -9.07235,-0.13402 -5.99129,-0.32791 -11.90197,-1.09748 -17.85411,-1.79936 -4.14955,-0.48956 -8.86096,-0.7401 -12.7503,-2.34604 l 0.28093,0.0534 c 1.67963,0.30166 3.3703,0.3035 5.06006,0.50982 3.64248,0.44489 7.54609,1.33974 11.20562,1.13986 2.42525,-0.13264 4.86846,-0.70326 7.23798,-1.21999 q 2.2917,-0.51305 4.55437,-1.14032 2.26314,-0.62727 4.49174,-1.36737 2.2286,-0.73964 4.41759,-1.58982 2.18853,-0.85017 4.33238,-1.80903 2.1434,-0.95887 4.23659,-2.02366 2.09274,-1.06525 4.12975,-2.2332 2.037,-1.16841 4.01276,-2.43722 1.97622,-1.26882 3.88611,-2.63481 c 11.91855,-8.38153 20.94255,-20.95452 23.38761,-35.47333 3.0101,-17.87437 -4.76162,-37.57067 -14.81771,-52.09961 -8.11718,-0.22705 -15.06824,-4.28357 -20.57088,-10.14129 -1.541,-1.64002 -2.72093,-3.42419 -3.96533,-5.28526 2.38104,8.06145 5.92865,12.55272 10.0372,19.44023 -3.14048,-0.6093 -6.09951,-1.89976 -8.96458,-3.29523 -13.95556,-6.79632 -26.26972,-18.84152 -34.91101,-31.61116 -3.76084,-5.55837 -6.31182,-11.118583 -7.90716,-17.63443 z"
     id="path84"
     style="stroke-width:0.460549" />
</svg>
