<?xml version="1.0" encoding="UTF-8" standalone="no"?>
<svg
   width="299.94159"
   height="344.246"
   version="1.1"
   id="svg67"
   sodipodi:docname="owl.svg"
   inkscape:version="1.3.1 (9b9bdc1480, 2023-11-25, custom)"
   xmlns:inkscape="http://www.inkscape.org/namespaces/inkscape"
   xmlns:sodipodi="http://sodipodi.sourceforge.net/DTD/sodipodi-0.dtd"
   xmlns="http://www.w3.org/2000/svg"
   xmlns:svg="http://www.w3.org/2000/svg">
  <sodipodi:namedview
     id="namedview67"
     pagecolor="#ffffff"
     bordercolor="#999999"
     borderopacity="1"
     inkscape:showpageshadow="2"
     inkscape:pageopacity="0"
     inkscape:pagecheckerboard="0"
     inkscape:deskcolor="#d1d1d1"
     inkscape:zoom="0.42075893"
     inkscape:cx="1151.4907"
     inkscape:cy="717.75066"
     inkscape:window-width="1920"
     inkscape:window-height="954"
     inkscape:window-x="0"
     inkscape:window-y="27"
     inkscape:window-maximized="1"
     inkscape:current-layer="svg67" />
  <defs
     id="defs10">
    <linearGradient
       id="gradient_0"
       gradientUnits="userSpaceOnUse"
       x1="489.75156"
       y1="826.62946"
       x2="491.52795"
       y2="742.30402">
      <stop
         offset="0"
         stop-color="black"
         id="stop9" />
      <stop
         offset="1"
         stop-color="#2F0A03"
         id="stop10" />
    </linearGradient>
  </defs>
  <defs
     id="defs13">
    <linearGradient
       id="gradient_1"
       gradientUnits="userSpaceOnUse"
       x1="644.47736"
       y1="826.87543"
       x2="642.68719"
       y2="743.55432">
      <stop
         offset="0"
         stop-color="black"
         id="stop12" />
      <stop
         offset="1"
         stop-color="#2E0903"
         id="stop13" />
    </linearGradient>
  </defs>
  <defs
     id="defs15">
    <linearGradient
       id="gradient_2"
       gradientUnits="userSpaceOnUse"
       x1="898.78107"
       y1="620.99066"
       x2="742.34082"
       y2="550.63147">
      <stop
         offset="0"
         stop-color="#3C1906"
         id="stop14" />
      <stop
         offset="1"
         stop-color="#5D3309"
         id="stop15" />
    </linearGradient>
  </defs>
  <defs
     id="defs24">
    <linearGradient
       id="gradient_3"
       gradientUnits="userSpaceOnUse"
       x1="786.77875"
       y1="628.07446"
       x2="790.29187"
       y2="629.625">
      <stop
         offset="0"
         stop-color="#2A0B00"
         id="stop23" />
      <stop
         offset="1"
         stop-color="#462005"
         id="stop24" />
    </linearGradient>
  </defs>
  <defs
     id="defs38">
    <linearGradient
       id="gradient_4"
       gradientUnits="userSpaceOnUse"
       x1="265.80621"
       y1="648.98132"
       x2="408.08841"
       y2="595.32727">
      <stop
         offset="0"
         stop-color="#2D0C04"
         id="stop37" />
      <stop
         offset="1"
         stop-color="#5C3008"
         id="stop38" />
    </linearGradient>
  </defs>
  <g
     id="g67"
     transform="matrix(0.44500707,0,0,0.44500707,-107.82602,-24.693897)">
    <path
       fill="#330f03"
       d="m 816.296,302.801 0.836,-1.422 1.365,-0.106 c -0.314,6.17 -0.908,12.3 -1.515,18.447 -0.201,-1.83 -0.416,-3.348 -1.121,-5.056 l -1.319,-0.374 -0.012,-1.901 c 0.755,-3.158 1.645,-6.33 1.766,-9.588 z"
       id="path1" />
    <path
       fill="#1b0501"
       d="m 716.476,721.121 c 2.795,-2.197 5.574,-4.41 8.475,-6.467 1.124,1.551 1.246,1.794 3.033,2.418 -1.15,0.977 -2.287,1.976 -3.474,2.908 -2.9,-0.407 -7.582,3.664 -10.011,5.394 0.27,-1.638 1.124,-2.854 1.977,-4.253 z"
       id="path2" />
    <path
       fill="#1b0501"
       fill-opacity="0.988235"
       d="m 814.542,314.29 1.319,0.374 c 0.705,1.708 0.92,3.226 1.121,5.056 l -0.493,5.753 c -0.264,1.287 -0.381,2.664 -1.077,3.789 l 0.007,-0.3 -0.79,1.609 -0.774,-0.053 c -0.405,-1.55 -0.511,-2.973 -0.58,-4.571 -0.068,-3.848 0.749,-7.845 1.267,-11.657 z"
       id="path3" />
    <path
       fill="#330f03"
       d="m 813.275,325.947 c 0.069,1.598 0.175,3.021 0.58,4.571 l 0.774,0.053 0.79,-1.609 -0.007,0.3 c 0.696,-1.125 0.813,-2.502 1.077,-3.789 l 0.36,19.546 c -1.268,0.956 -2.154,1.501 -2.591,3.074 -0.839,-6.712 -2.013,-15.498 -0.983,-22.146 z"
       id="path4" />
    <path
       d="m 559.37,755.87 c 10.767,-0.04 21.205,-0.17 31.924,-1.341 l 1.473,0.714 -0.131,0.782 c -0.224,-0.062 -0.446,-0.131 -0.671,-0.187 -2.814,-0.7 -9.127,0.353 -12.075,0.925 2.894,0.106 7.123,-0.25 9.706,0.978 l 0.472,0.797 c -0.78,1.148 -1.352,1.442 -2.555,2.038 0.368,-0.916 0.66,-1.444 0.405,-2.428 -9.218,-0.981 -24.034,0.111 -33.899,0.167 l -1.125,-0.398 -0.114,-1.684 q 3.293,-0.212 6.59,-0.363 z"
       id="path5" />
    <path
       fill="#1b0501"
       d="m 814.258,348.093 c 0.437,-1.573 1.323,-2.118 2.591,-3.074 0.901,7.951 1.008,15.986 2.429,23.88 1.28,7.107 4.027,14.183 4.45,21.408 l -1.535,2.321 c -3.493,-8.69 -7.448,-35.022 -7.935,-44.535 z"
       id="path6" />
    <path
       d="m 839.977,174.855 c 1.254,-0.573 1.5,-0.541 2.884,-0.392 l 0.464,0.71 c -1.051,2.413 -3.634,3.708 -5.972,4.654 -7.833,3.166 -18.409,4.553 -26.808,5.745 -0.044,8.521 -0.24,17.069 0.578,25.561 0.808,8.397 2.513,16.687 3.584,25.052 -2.178,-4.074 -2.761,-7.496 -3.59,-11.948 -0.433,-6.898 -2.105,-13.759 -2.926,-20.627 -0.722,-6.046 -0.5,-12.293 -0.511,-18.374 6.667,-1.588 28.483,-5.219 32.297,-10.381 z"
       id="path7" />
    <path
       fill="#4f2707"
       d="m 811.117,224.237 c 0.829,4.452 1.412,7.874 3.59,11.948 2.746,7.592 6.262,58.653 3.79,65.088 l -1.365,0.106 -0.836,1.422 c 0.611,-7.466 -1.721,-10.097 -1.804,-16.599 0.399,-11.442 0.096,-26.74 -3.156,-37.735 3.299,-3.993 0.321,-12.285 -0.167,-17.072 -0.242,-2.372 -0.131,-4.779 -0.052,-7.158 z"
       id="path8" />
    <path
       fill="#a85c17"
       d="m 836.379,174.239 3.598,0.616 c -3.814,5.162 -25.63,8.793 -32.297,10.381 0.011,6.081 -0.211,12.328 0.511,18.374 0.821,6.868 2.493,13.729 2.926,20.627 -0.079,2.379 -0.19,4.786 0.052,7.158 0.488,4.787 3.466,13.079 0.167,17.072 -2.926,-16.559 -12.306,-36.458 -23.473,-49.111 -4.193,-4.751 -9.439,-8.448 -13.503,-13.363 l -0.355,-0.438 c 0.766,-0.65 1.312,-1.051 2.307,-1.266 9.324,-2.02 18.996,-3.39 28.391,-5.251 6.383,-1.264 12.803,-3.224 19.238,-4.095 3.562,-0.483 9.359,0.798 12.438,-0.704 z"
       id="path9" />
    <path
       fill="url(#gradient_0)"
       d="m 490.752,738.902 c 5.352,1.402 9.852,4.325 15.05,5.841 5.534,1.613 11.328,2.341 16.913,3.783 6.772,1.748 13.411,4.358 20.293,5.596 5.429,0.976 10.994,0.84 16.362,1.748 q -3.297,0.151 -6.59,0.363 l 0.114,1.684 1.125,0.398 c -0.363,0.798 -0.321,1.098 0.133,1.918 0.959,1.731 2.761,3.476 3.946,5.104 4.637,6.369 10.441,15.583 9.699,23.834 -0.483,5.385 -3.519,7.859 -7.4,11.128 -5.072,0.155 -10.005,-0.048 -14.952,-1.279 -3.947,-0.983 -14.442,-6.753 -17.2,-6.34 -1.639,4.318 3.162,9.561 4.562,13.468 1.874,5.229 1.637,13.275 -0.949,18.24 -1.281,2.458 -3.704,3.795 -6.271,4.605 -0.638,0.202 -0.752,-0.053 -1.314,-0.354 1.696,-6.36 2.948,-11.115 1.802,-17.755 -0.454,-2.631 -0.651,-4.143 -2.961,-5.755 -3.409,0.021 -5.77,2.954 -8.2,5.109 -6.516,0.805 -12.896,0.702 -18.428,-3.254 -5.996,-4.287 -8.643,-11.255 -9.78,-18.266 -1.463,1.161 -2.937,2.319 -4.486,3.365 -10.2,6.885 -22.876,11.674 -35.255,9.345 -1.329,1.422 -2.444,3.113 -3.606,4.676 -0.177,3.199 -0.303,6.38 -0.316,9.583 l -0.639,0.596 c -1.44,-0.18 -2.431,-1.173 -3.384,-2.195 -3.437,-3.682 -2.717,-6.226 -2.507,-10.98 2.054,-2.435 4.177,-4.369 6.684,-6.331 -1.922,-2.316 -4.251,-4.246 -6.494,-6.241 l -1.072,-5.895 c -3.41,-0.026 -6.757,0.143 -10.078,0.976 -9.131,2.291 -4.869,6.891 -8.288,12.716 -1.424,0.184 -1.398,0.315 -2.53,-0.534 -0.67,-1.526 -0.894,-2.745 -0.878,-4.423 0.037,-3.921 1.411,-7.57 4.242,-10.307 5.566,-5.381 12.102,-4.958 19.286,-4.689 7.627,-9.333 18.638,-16.217 28.416,-23.134 -4.101,-2.294 -8.191,-4.53 -12.027,-7.257 l 0.992,-1.561 12.28,7.681 c 8.977,-6.593 16.355,-9.37 27.396,-10.19 0.94,-0.146 1.588,-0.314 2.428,-0.766 -1.062,-1.988 -4.095,-2.161 -5.698,-3.799 -0.144,-0.147 -0.28,-0.301 -0.42,-0.452 z"
       id="path10"
       style="fill:url(#gradient_0)" />
    <path
       fill="#1b0501"
       d="m 521.066,772.813 c 2.837,-0.079 3.866,1.888 6.388,2.376 0.753,0.145 1.024,0.224 1.636,0.662 -2.42,-0.203 -6.06,0.342 -8.072,-1.095 z"
       id="path11" />
    <path
       fill="#1b0501"
       d="m 492.23,781.559 1.287,1.777 c 2.061,0.713 3.22,1.039 4.514,2.901 -0.25,1.538 -0.351,2.346 0.315,3.778 0.755,0.599 1.371,1.049 2.346,1.193 4.045,0.598 8.141,-0.607 11.329,-3.029 -0.502,1.392 -1.434,2.374 -2.749,3.015 -4.527,2.205 -10.123,-0.126 -14.605,-1.5 -1.023,-2.679 -1.749,-5.354 -2.437,-8.135 z"
       id="path12" />
    <path
       fill="url(#gradient_1)"
       d="m 647.942,741.982 c 6.778,2.965 14.342,7.566 21.551,9.033 10.093,2.053 25.213,-10.358 32.292,-16.816 4.502,-4.108 9.208,-9.647 14.322,-12.857 0.121,-0.076 0.246,-0.148 0.369,-0.221 -0.853,1.399 -1.707,2.615 -1.977,4.253 -18.095,14.86 -19.448,20.58 -43.258,29.487 5.027,4.068 10.993,7.871 15.118,12.871 3.475,4.213 5.708,9.542 9.817,13.207 5.9,5.264 19.537,5.191 20.897,17.29 0.307,2.735 -0.234,6.181 -2.105,8.285 -0.68,0.765 -0.944,0.871 -1.9,1.219 -2.586,-2.721 -2.137,-15.718 -9.198,-15.93 -1.698,-0.051 -4.19,1.393 -5.258,2.688 -1.154,1.4 -2.019,3.267 -2.89,4.861 3.344,2.438 5.683,5.004 6.401,9.278 0.661,3.942 -0.778,7.582 -3.184,10.634 -0.489,0.62 -0.97,0.988 -1.668,1.361 l -0.647,-0.02 c -2.29,-3.466 2.807,-14.558 -8.801,-16.903 -3.975,-0.803 -7.414,0.461 -11.146,1.62 -8.207,-2.924 -12.345,-8.827 -19.006,-13.849 -2.074,8.16 -5.514,15.117 -12.981,19.586 -4.551,2.724 -9.619,3.704 -14.812,4.366 l -5.888,-2.476 c -0.511,1.543 -1.112,3.162 -1.37,4.769 -0.496,3.079 0.609,8.866 -1.769,11.013 -1.976,-1.214 -3.136,-3.711 -3.649,-5.91 -1.138,-4.885 -0.039,-8.564 1.88,-13.043 -4.972,-7.548 -5.63,-12.903 -5.324,-21.801 l -0.561,0.369 c -11.375,7.636 -12.362,14.976 -27.578,17.765 0.415,2.737 1.607,6.93 -0.14,9.355 -0.511,0.71 -0.605,0.678 -1.321,1.016 -1.925,-0.686 -2.893,-2.4 -3.732,-4.175 -1.735,-3.675 -1.278,-6.859 -0.992,-10.794 -2.235,-1.503 -4.45,-3.054 -6.727,-4.493 -0.124,-3.957 -1.027,-7.548 -1.749,-11.406 3.316,-7.087 9.749,-21.27 16.555,-25.038 1.203,-0.596 1.775,-0.89 2.555,-2.038 l -0.472,-0.797 c -2.583,-1.228 -6.812,-0.872 -9.706,-0.978 2.948,-0.572 9.261,-1.625 12.075,-0.925 0.225,0.056 0.447,0.125 0.671,0.187 l 0.131,-0.782 -1.473,-0.714 c 0.176,-0.055 0.344,-0.152 0.528,-0.165 5.749,-0.381 11.745,-2.649 17.438,-3.966 17.988,-4.16 28.371,-5.14 45.276,-13.769 l 1.152,1.172 c -2.468,1.671 -5.056,2.913 -7.746,4.181 z"
       id="path13"
       style="fill:url(#gradient_1)" />
    <path
       fill="url(#gradient_2)"
       d="m 822.193,392.628 1.535,-2.321 c 0.331,2.34 0.388,4.68 2.354,6.29 1.584,1.297 4.446,1.892 6.399,2.508 26.407,10.449 39.674,26.296 53.013,50.475 2.601,4.715 5.803,9.407 7.981,14.298 1.341,3.011 1.903,6.288 1.362,9.565 -1.166,2.471 -2.485,4.435 -1.596,7.234 7.838,4.054 17.581,25.666 20.343,34.223 1.867,5.784 4.34,15.128 1.313,20.936 -0.962,1.846 -2.592,2.832 -4.408,3.696 -2.626,0.549 -5.306,0.682 -7.977,0.882 7.095,8.284 12.034,35.831 11.276,46.602 -0.375,5.329 -2.118,10.286 -6.255,13.863 -0.81,0.7 -1.64,1.294 -2.618,1.739 -5.66,0.366 -8.632,-0.578 -13.74,-2.973 2.072,6.298 4.186,12.757 0.771,19.078 -1.582,2.927 -4.761,5.713 -7.994,6.63 q -1.029,0.292 -2.076,0.514 c -5.043,0.274 -8.524,-2.498 -12.611,-5.025 -0.839,1.766 -0.745,3.293 -0.701,5.186 5.202,16.633 5.778,35.093 -2.545,50.902 -2.724,5.175 -7.155,9.86 -12.857,11.648 -4.218,1.324 -8.078,0.456 -12.168,-0.778 -4.277,-2.186 -6.897,-4.429 -10.001,-8.103 l -0.908,-0.124 c 0.248,5.241 0.747,10.59 0.732,15.828 0.163,7.089 0.05,13.782 -1.718,20.691 -1.668,6.62 -4.939,13.408 -11.11,16.93 -4.044,2.308 -9.496,3.032 -14.025,1.806 q -0.631,-0.166 -1.242,-0.394 -0.612,-0.229 -1.196,-0.518 -0.585,-0.289 -1.138,-0.636 -0.553,-0.347 -1.068,-0.748 -0.515,-0.401 -0.986,-0.852 -0.472,-0.451 -0.896,-0.947 -0.424,-0.496 -0.795,-1.032 -0.372,-0.537 -0.687,-1.108 c -3.046,-5.455 -1.795,-12.759 -3.472,-18.732 l -0.305,0.724 c -5.699,13.746 -6.891,31.036 -22.679,37.661 -4.497,1.887 -10.357,3.092 -15.016,1.11 -2.848,-1.212 -4.758,-3.814 -5.848,-6.632 -3.51,-9.076 1.17,-17.274 -0.38,-24.211 -5.288,-0.032 -14.228,12.89 -21.354,5.353 -1.083,-1.145 -1.767,-2.458 -2.392,-3.886 1.187,-0.932 2.324,-1.931 3.474,-2.908 -1.787,-0.624 -1.909,-0.867 -3.033,-2.418 15.706,-13.395 28.28,-29.742 40.333,-46.403 1.151,-3.315 9.346,-15.344 11.857,-20.149 3.373,-7.833 8.005,-15.06 11.6,-22.785 2.775,-5.963 4.655,-12.348 7.289,-18.39 5.449,-15.651 8.497,-29.069 11.438,-45.271 4.223,-23.262 6.244,-40.215 2.326,-63.705 -0.022,-0.049 -0.046,-0.096 -0.064,-0.146 -6.214,-17.685 -13.99,-44.363 -13.59,-63.146 q 0.052,-2.653 0.36,-5.289 0.308,-2.636 0.869,-5.23 0.56,-2.594 1.368,-5.122 0.808,-2.528 1.856,-4.966 c 3.053,-7.005 7.585,-11.1 14.621,-13.894 0.817,-0.595 1.596,-0.801 2.543,-1.113 1.426,-0.614 2.684,-1.253 3.986,-2.1 0.793,-1.727 0.596,-2.455 0.45,-4.317 z"
       id="path15"
       style="fill:url(#gradient_2)" />
    <path
       d="m 865.75,620.325 c 0.942,-1.216 0.889,-1.189 2.4,-1.472 l 0.937,0.688 0.178,1.301 c -0.839,1.766 -0.745,3.293 -0.701,5.186 -1.485,-1.751 -2.083,-3.576 -2.814,-5.703 z"
       id="path16" />
    <path
       fill="#330f03"
       d="m 830.993,679.697 c 1.952,-0.075 4.257,-0.079 5.847,1.252 2.104,1.762 2.48,4.764 4.154,6.851 -4.277,-2.186 -6.897,-4.429 -10.001,-8.103 z"
       id="path17" />
    <path
       d="m 822.193,392.628 1.535,-2.321 c 0.331,2.34 0.388,4.68 2.354,6.29 1.584,1.297 4.446,1.892 6.399,2.508 -3.783,0.943 -11.096,1.083 -14.724,-0.06 1.426,-0.614 2.684,-1.253 3.986,-2.1 0.793,-1.727 0.596,-2.455 0.45,-4.317 z"
       id="path18" />
    <path
       fill="#1b0501"
       d="m 862.685,611.58 c 5.654,5.46 11.63,11.672 19.191,14.287 -5.043,0.274 -8.524,-2.498 -12.611,-5.025 l -0.178,-1.301 -0.937,-0.688 c -1.511,0.283 -1.458,0.256 -2.4,1.472 -1.014,-2.916 -1.993,-5.85 -3.065,-8.745 z"
       id="path19" />
    <path
       d="m 829.164,692.821 c -0.804,-3.793 -3.5,-8.496 -2.879,-12.28 1.403,-1.189 2.004,-0.928 3.8,-0.968 0.248,5.241 0.747,10.59 0.732,15.828 -0.626,-0.805 -1.123,-1.709 -1.653,-2.58 z"
       id="path20" />
    <path
       fill="#330f03"
       d="m 829.164,692.821 c 0.53,0.871 1.027,1.775 1.653,2.58 0.163,7.089 0.05,13.782 -1.718,20.691 -0.265,-2.088 0.12,-4.195 -0.443,-6.249 -1.384,-5.047 0.28,-11.825 0.508,-17.022 z"
       id="path21" />
    <path
       fill="#1b0501"
       d="m 777.141,648.102 1.417,-0.174 c 0.863,-1.023 1.289,-1.529 2.583,-2.014 -4.86,9.217 -9.218,17.942 -16.25,25.783 0.261,-1.14 0.305,-2.282 0.393,-3.446 1.151,-3.315 9.346,-15.344 11.857,-20.149 z"
       id="path22" />
    <path
       d="m 862.368,468.887 c 0.158,0.066 0.314,0.135 0.474,0.197 5.703,2.217 10.236,6.643 15.936,8.561 9.521,3.203 9.007,-2 14.791,-4.802 l 1.268,0.6 c -1.166,2.471 -2.485,4.435 -1.596,7.234 -14.594,0.2 -19.736,-2.91 -30.873,-11.79 z"
       id="path23" />
    <path
       fill="url(#gradient_3)"
       d="m 777.141,648.102 c 3.373,-7.833 8.005,-15.06 11.6,-22.785 2.775,-5.963 4.655,-12.348 7.289,-18.39 0.915,0.68 1.589,1.327 2.792,1.307 -1.273,4.387 -2.406,8.96 -4.075,13.212 -1.269,3.236 -11.667,22.686 -13.606,24.468 -1.294,0.485 -1.72,0.991 -2.583,2.014 z"
       id="path24"
       style="fill:url(#gradient_3)" />
    <path
       d="m 765.284,668.251 c -0.088,1.164 -0.132,2.306 -0.393,3.446 -7.452,12.893 -17.091,23.566 -26.887,34.613 -3.294,3.714 -6.157,7.586 -10.02,10.762 -1.787,-0.624 -1.909,-0.867 -3.033,-2.418 15.706,-13.395 28.28,-29.742 40.333,-46.403 z"
       id="path25" />
    <path
       d="m 814.081,493.249 c 1.49,2.353 2.877,4.699 3.957,7.271 2.893,6.887 10.287,31.899 17.802,33.41 2.224,0.447 4.34,-0.76 6.04,-2.063 6.141,-4.706 13.263,-17.175 14.151,-24.875 0.434,-3.771 -2.165,-9.643 0.713,-12.299 1.335,0.027 1.522,0.236 2.65,0.992 1.884,2.908 0.973,6.805 0.286,10.028 -1.741,8.168 -9.841,23.956 -16.978,28.723 -2.238,1.495 -4.71,2.188 -7.374,1.575 -3.668,-0.845 -6.025,-3.956 -7.802,-7.051 -5.281,-9.197 -8.94,-19.744 -12.705,-29.647 -0.547,-2.13 -0.826,-3.841 -0.74,-6.064 z"
       id="path26" />
    <path
       fill="#330f03"
       d="m 815.214,400.158 c -0.177,0.231 -0.351,0.465 -0.531,0.693 -2.292,2.913 -5.791,4.845 -8.145,7.738 -7.507,9.224 -9.19,24.728 -8.041,36.117 0.685,6.8 7.645,41.844 12.439,45.169 0.577,0.4 0.51,0.451 1.15,0.312 1.129,-0.245 2.004,-0.976 2.926,-1.633 l 0.575,0.359 c -0.622,1.432 -1.29,2.779 -1.506,4.336 -0.086,2.223 0.193,3.934 0.74,6.064 l -1.089,0.402 c -0.365,1.734 -0.379,3.333 -0.366,5.101 q -0.263,-1.28 -0.553,-2.555 c -0.174,-0.796 -0.299,-1.757 -0.663,-2.49 -0.542,-1.092 -1.275,-1.438 -2.356,-1.82 -0.022,-0.049 -0.046,-0.096 -0.064,-0.146 -6.214,-17.685 -13.99,-44.363 -13.59,-63.146 q 0.052,-2.653 0.36,-5.289 0.308,-2.636 0.869,-5.23 0.56,-2.594 1.368,-5.122 0.808,-2.528 1.856,-4.966 c 3.053,-7.005 7.585,-11.1 14.621,-13.894 z"
       id="path27" />
    <path
       d="m 809.794,497.951 c 1.081,0.382 1.814,0.728 2.356,1.82 0.364,0.733 0.489,1.694 0.663,2.49 q 0.29,1.275 0.553,2.555 c 3.011,21.232 -0.089,38.649 -4.058,59.393 -1.521,7.948 -2.831,15.99 -4.754,23.851 -1.643,6.721 -4.477,13.414 -5.732,20.174 -1.203,0.02 -1.877,-0.627 -2.792,-1.307 5.449,-15.651 8.497,-29.069 11.438,-45.271 4.223,-23.262 6.244,-40.215 2.326,-63.705 z"
       id="path28" />
    <path
       fill="#1b0501"
       d="m 416.067,101.142 -0.362,-0.793 c -5.145,-11.1154 -17.608,-24.4888 -13.13,-37.8201 0.936,-2.7857 2.834,-5.2466 5.592,-6.4037 2.399,-1.0068 5.187,-0.7429 7.53,0.2858 9.012,3.9569 14.489,16.2376 20.622,23.6011 8.653,10.3881 22.681,20.2249 35.643,24.4079 6.451,2.082 13.579,2.82 20.264,3.936 11.287,1.885 22.122,3.752 33.623,3.977 6.048,0.118 12.115,-0.635 18.148,-1.013 11.047,-0.693 22.26,-1.383 33.321,-1.749 q 29.528,-0.771 59.023,0.817 c 13.875,0.74 27.101,3.661 40.676,6.31 5.469,1.067 10.945,1.723 16.331,3.215 14.679,4.065 29.383,9.41 44.224,12.736 9.754,2.186 20.53,3.004 30.496,4.185 17.801,2.111 37.618,1.9 54.763,-4.06 4.768,-1.657 9.474,-4.028 13.697,-6.792 6.186,-4.051 25.268,-21.104 32.753,-17.032 1.787,0.973 3.216,3.302 3.6,5.264 1.065,5.428 -3.114,11.754 -6.147,15.926 -6.615,9.1 -15.2,16.053 -24.667,21.979 2.905,-0.137 6.138,-0.097 8.961,-0.811 4.471,-1.131 8.622,-3.977 13.414,-3.499 0.65,0.72 0.677,0.676 0.602,1.662 -0.385,5.03 -7.033,10.023 -10.644,12.968 -3.567,2.909 -7.27,5.113 -11.341,7.22 -1.552,0.803 -5.646,2.375 -6.624,3.593 -0.146,0.182 -0.115,0.453 -0.172,0.68 l 0.116,0.307 c -3.079,1.502 -8.876,0.221 -12.438,0.704 -6.435,0.871 -12.855,2.831 -19.238,4.095 -9.395,1.861 -19.067,3.231 -28.391,5.251 -0.995,0.215 -1.541,0.616 -2.307,1.266 -0.104,-0.085 -0.199,-0.182 -0.312,-0.255 -1.968,-1.283 -5.696,-1.101 -7.962,-0.871 -6.04,0.612 -12.26,2.742 -18.2,4.099 -6.768,1.546 -13.651,2.591 -20.428,4.133 -33.169,7.546 -60.503,19.507 -77.382,50.795 -4.282,7.939 -6.451,17.346 -11.298,24.859 l -0.382,0.58 c -5.349,-1.518 -10.063,-3.765 -15.673,-4.526 -3.307,-0.449 -6.941,0.061 -10.133,-0.504 -4.602,-0.815 -2.414,-15.079 -3.141,-19.128 -2.547,-14.201 -9.781,-27.893 -17.396,-39.964 -2.176,-3.449 -4.432,-6.909 -7.46,-9.681 -4.901,-4.485 -11.006,-7.622 -16.775,-10.841 -21.665,-12.091 -43.225,-20.23 -67.47,-25.726 -16.828,-6.492 -35.542,-8.369 -52.031,-15.505 -5.212,-2.256 -10.307,-5.093 -15.094,-8.14 -3.332,-2.12 -7.21,-5.328 -10.883,-6.664 -1.56,-0.568 -3.4,-0.694 -5.044,-0.867 l -2.786,0.9 c -0.655,-1.55 -1.261,-2.832 -1.277,-4.534 1.093,-1.24 1.508,-1.009 3.106,-1.158 -0.054,-0.246 -0.099,-0.494 -0.163,-0.737 -1.469,-5.6 -16.006,-15.852 -11.701,-24.5255 0.643,-1.2957 0.72,-1.3879 2.083,-1.8637 3.531,0.7684 6.929,3.6866 9.864,5.7112 z"
       id="path29" />
    <path
       d="m 414.155,128.249 c -0.655,-1.55 -1.261,-2.832 -1.277,-4.534 1.093,-1.24 1.508,-1.009 3.106,-1.158 0.075,0.205 0.143,0.413 0.225,0.616 0.565,1.383 2.248,2.36 3.544,2.944 -0.694,0.551 -0.837,0.864 -1.738,0.928 -0.787,0.055 -0.492,-0.038 -1.074,0.304 z"
       id="path30" />
    <path
       fill="#775f25"
       d="m 667.2,171.921 q 2.938,1.672 5.61,3.743 2.672,2.071 5.024,4.499 c -5.638,-1.078 -11.114,-1.989 -16.87,-1.976 2.778,-0.935 6.502,0.107 8.76,-1.246 -0.219,-1.908 -1.497,-3.446 -2.524,-5.02 z"
       id="path31" />
    <path
       fill="#917636"
       d="m 620.073,129.339 c 1.857,0.074 3.596,0.288 5.407,0.692 2.832,0.632 6.931,1.711 8.437,4.415 0.428,0.769 0.421,1.321 0.034,2.149 -0.328,0.702 -1.186,0.519 -1.84,0.586 -0.405,-0.096 -0.809,-0.196 -1.207,-0.317 -2.484,-0.761 -10.708,-2.946 -12.39,-4.292 -0.338,-0.271 -0.861,-1.576 -1.103,-2.018 l -0.549,0.393 -0.07,0.57 c 0.461,-0.969 2.297,-1.649 3.281,-2.178 z"
       id="path32" />
    <path
       fill="#917636"
       d="m 658.087,133.933 c 7.92,-0.493 16.397,-0.595 22.899,4.764 1.415,1.167 2.068,2.085 2.28,3.865 l -0.883,0.856 c -3.513,0.434 -5.995,-1.192 -8.951,-2.83 -8.783,-4.254 -14.096,-1.295 -22.874,-0.397 -1.929,0.197 -4.237,0.47 -5.791,-0.795 1.745,-3.006 10.031,-4.485 13.32,-5.463 z"
       id="path33" />
    <path
       fill="#917636"
       d="m 581.436,131.301 c 7.292,-0.439 16.042,0.581 22.416,4.37 1.06,0.629 1.537,0.676 1.831,1.895 -3.552,1.936 -10.607,-0.009 -14.354,-0.673 -7.339,-0.983 -15.687,2.152 -22.647,0.428 -1.329,-0.329 -1.457,-0.469 -2.185,-1.603 0.752,-1.701 1.786,-2.242 3.216,-3.333 3.839,-0.798 7.816,-0.866 11.723,-1.084 z"
       id="path34" />
    <path
       fill="#917636"
       d="m 669.716,152.022 c 2.2,-0.386 4.766,-0.369 6.993,-0.255 5.41,0.277 11.308,2.696 14.913,6.82 1.466,1.678 2.235,3.203 2.131,5.437 -0.534,0.856 -0.517,1.205 -1.518,1.561 -2.489,0.884 -5.78,-1.414 -7.946,-2.517 -12.291,-6.833 -20.218,-0.409 -30.216,-7.71 5.2,-1.25 10.377,-2.399 15.643,-3.336 z"
       id="path35" />
    <path
       fill="#917636"
       d="m 614.808,144.786 c 0.177,-0.019 0.353,-0.049 0.531,-0.057 5.922,-0.264 17.131,4.684 21.115,9.104 1.025,1.138 1.12,1.753 0.973,3.222 -0.663,0.698 -1.489,1.716 -2.596,1.653 -1.007,-0.058 -3.307,-1.723 -4.322,-2.158 -4.263,-1.833 -8.449,-1.981 -13.008,-1.788 -10.282,1.934 -16.356,3.938 -26.225,-0.994 1.139,-2.271 2.258,-4.098 3.93,-6.023 6.507,-1.107 13.028,-2.343 19.602,-2.959 z"
       id="path36" />
    <path
       fill="#917636"
       d="m 637.437,177.335 c 9.288,-3.251 19.845,-8.291 29.763,-5.414 1.027,1.574 2.305,3.112 2.524,5.02 -2.258,1.353 -5.982,0.311 -8.76,1.246 -11.753,2.748 -12.507,5.846 -22.112,11.434 l -0.538,0.31 c -4.987,-3.812 -11.513,-9.758 -16.943,-12.519 -2.228,-1.132 -4.572,0.286 -6.821,-1.28 l 0.006,-1.094 c 1.443,-1.516 3.253,-2.381 5.293,-2.857 6.713,-1.567 12.198,1.633 17.588,5.154 z"
       id="path37" />
    <path
       fill="url(#gradient_4)"
       d="m 416.941,127.349 c 1.644,0.173 3.484,0.299 5.044,0.867 3.673,1.336 7.551,4.544 10.883,6.664 4.787,3.047 9.882,5.884 15.094,8.14 16.489,7.136 35.203,9.013 52.031,15.505 l -2.651,0.117 c -1.658,-0.656 -1.588,-0.627 -3.184,0.072 -3.665,1.607 -7.217,4.045 -10.634,6.133 -21.493,13.135 -34.434,28.719 -45.44,51.257 -2.311,4.732 -4.924,9.45 -6.744,14.394 -5.626,15.281 -8.825,35.462 -6.364,51.669 1.436,12.431 4.626,26.168 10.623,37.242 1.527,2.817 3.76,5.146 5.358,7.907 2.654,4.586 3.897,9.146 8.249,12.565 3.414,2.681 19.79,13.116 23.422,14.009 l 0.256,0.064 c -40.103,18.266 -57.592,39.376 -72.859,80.171 -5.617,15.009 -9.481,30.601 -12.479,46.326 -10.695,56.089 -3.462,100.378 16.165,153.31 3.546,9.562 6.689,18.974 10.933,28.275 13,28.49 33.581,51.504 59.558,68.781 5.436,3.066 11.072,5.259 16.55,8.085 0.14,0.151 0.276,0.305 0.42,0.452 1.603,1.638 4.636,1.811 5.698,3.799 -0.84,0.452 -1.488,0.62 -2.428,0.766 -11.041,0.82 -18.419,3.597 -27.396,10.19 l -12.28,-7.681 -0.992,1.561 c -14.076,-8.619 -25.668,-18.63 -37.387,-30.109 -0.697,1.759 -1.259,3.328 -2.512,4.785 -1.531,0.929 -2.673,0.675 -4.4,0.478 -3.847,-2.19 -5.53,-7.139 -9.766,-8.652 -2.203,1.342 -0.962,15.9 -5.988,22.402 -2.973,3.846 -8.18,6.394 -12.971,6.971 -3.832,0.461 -7.425,-0.685 -10.468,-3.021 -8.228,-6.316 -11.755,-18.457 -13.06,-28.25 -0.44,-3.647 -0.468,-7.34 -3.133,-10.138 -1.887,4.727 -4.101,9.185 -7.558,12.962 -3.39,3.705 -7.713,6.661 -12.909,6.73 -3.994,0.054 -7.751,-1.363 -10.559,-4.232 -12.556,-12.834 -3.314,-34.98 -3.492,-50.563 -5.033,8.636 -8.693,15.653 -17.998,20.178 -2.557,-0.179 -5.315,-0.258 -7.726,-1.202 -4.128,-1.616 -7.141,-4.937 -8.814,-8.977 -6.88,-16.607 2.113,-38.69 8.476,-54.225 0.103,-0.799 0.067,-1.324 -0.028,-2.113 -1.895,-0.441 -3.673,0.754 -5.457,1.483 -4.601,2.286 -8.49,5.984 -13.516,7.433 -4.3,1.24 -10.204,1.151 -14.088,-1.15 -3.649,-2.162 -5.837,-6.134 -6.745,-10.184 -3.055,-13.632 6.881,-39.994 14.34,-51.623 2.126,-4.387 8.577,-10.905 9.188,-15.019 l -0.817,-0.254 -2.865,1.547 c -5.304,3.757 -10.765,5.692 -17.13,6.833 -3.527,0.633 -7.761,0.795 -10.749,-1.498 -2.096,-1.608 -2.991,-4.224 -3.243,-6.765 -0.372,-3.75 0.395,-7.716 1.098,-11.385 2.676,-13.979 8.224,-24.726 17.116,-35.758 q 3.747,-4.038 7.26,-8.281 l -0.698,-0.89 c -3.027,0.956 -8.095,1.509 -11.006,0.19 -0.721,-0.797 -1.232,-1.181 -1.53,-2.252 -3.044,-10.927 24.476,-40.054 30.043,-50.101 l 0.34,-0.626 c 1.66,-0.824 3.038,-1.202 4.051,-2.814 -0.551,-2.081 -1.004,-3.55 -0.236,-5.676 0.052,-0.145 0.114,-0.286 0.171,-0.43 3.445,-4.374 5.938,-9.78 9.099,-14.42 14.041,-20.613 28.87,-40.57 52.766,-50.261 4.263,-1.729 8.669,-2.573 13.033,-3.949 2.763,-5.629 6.572,-10.668 9.266,-16.326 6.848,-14.378 11.35,-29.453 16.402,-44.5 2.348,-17.407 7.362,-34.476 12.305,-51.284 4.784,-16.264 9.628,-32.582 16.408,-48.152 4.098,-9.412 9.16,-18.421 13.566,-27.695 q 5.896,-12.679 10.371,-25.927 c -10.831,-6.156 -21.994,-11.625 -28.069,-23.03 z"
       id="path38"
       style="fill:url(#gradient_4)" />
    <path
       fill="#1b0501"
       d="m 314.704,577.23 2.234,-0.821 c -0.3,1.858 -0.437,4.013 -1.111,5.766 l -2.433,0.11 0.944,-3.586 z"
       id="path39" />
    <path
       fill="#330f03"
       d="m 312.393,575.405 -0.834,-0.546 -0.066,-0.736 c 1.051,-0.993 1.252,-1.087 2.712,-1.111 0.972,-0.016 1.54,0.334 2.372,0.786 0.604,1.191 0.567,1.281 0.361,2.611 l -2.234,0.821 z"
       id="path40" />
    <path
       fill="#4f2707"
       d="m 312.393,575.405 2.311,1.825 -0.366,1.469 c -2.387,0.66 -4.169,1.927 -6.626,0.99 0.669,-1.976 2.891,-3.28 4.681,-4.284 z"
       id="path41" />
    <path
       d="m 354.089,702.455 c 0.225,-2.312 3.519,-5.165 4.923,-7.088 0.054,4.843 0.81,11.088 -1.121,15.595 -0.231,0.539 -0.442,1.09 -0.669,1.631 -0.44,-3.647 -0.468,-7.34 -3.133,-10.138 z"
       id="path42" />
    <path
       fill="#1b0501"
       d="m 365.884,639.424 c 0.686,1.302 1.308,2.54 2.269,3.661 l 0.592,-0.592 c 7.71,17.266 16.061,33.096 27.693,48.076 l -1.309,0.406 c -0.433,-0.183 -0.533,-0.202 -0.902,-0.435 -5.76,-3.638 -20.837,-30.858 -23.906,-37.716 -1.938,-4.329 -3.358,-8.788 -4.437,-13.4 z"
       id="path43" />
    <path
       d="m 313.394,582.285 2.433,-0.11 c -2.298,9.993 -8.226,22.259 -14.939,30.045 -2.878,3.338 -2.412,8.594 -5.934,11.65 l -0.88,-0.036 -0.565,-0.708 c 0.103,-0.799 0.067,-1.324 -0.028,-2.113 -1.895,-0.441 -3.673,0.754 -5.457,1.483 3.166,-6.632 10.192,-12.235 14.603,-18.203 4.765,-6.445 7.706,-14.632 10.767,-22.008 z"
       id="path44" />
    <path
       d="m 371.161,364.542 c 7.466,-0.283 14.355,3.609 19.74,8.578 6.457,5.958 8.746,14.386 8.997,22.941 0.657,22.421 -14.472,47.499 -25.341,66.243 -15.503,26.733 -21.254,53.348 -22.629,83.846 -0.416,9.21 -0.733,18.622 0.354,27.799 0.907,7.656 2.786,15.235 4.461,22.751 q 4.944,23.174 12.002,45.793 l -0.592,0.592 c -0.961,-1.121 -1.583,-2.359 -2.269,-3.661 -6.727,-18.365 -15.092,-48.615 -16.52,-67.931 -0.657,-8.892 -0.016,-17.745 0.189,-26.639 0.409,-17.687 2.152,-34.247 7.376,-51.289 2.451,-7.998 6.535,-15.759 9.591,-23.587 -8.304,9.727 -22.631,27.336 -34.17,32.128 -2.752,1.143 -5.63,0.122 -8.444,0.583 -1.877,0.308 -3.91,1.437 -5.641,2.229 -1.939,3.391 -3.368,7.055 -5.403,10.382 -6.387,10.441 -20.983,28.925 -29.518,37.481 -1.173,1.176 -2.707,3.124 -4.404,3.128 l -0.412,-2.27 c -4.246,2.529 -5.766,11.426 -10.513,13.333 2.126,-4.387 8.577,-10.905 9.188,-15.019 l -0.817,-0.254 -2.865,1.547 c 0.02,-0.71 0.169,-1.694 0.643,-2.257 1.796,-2.129 8.612,-6.159 11.258,-8.132 10.178,-7.586 25.393,-27.138 29.401,-39.134 q -2.171,-4.879 -4.435,-9.715 c 1.82,-5.606 4.293,-11.112 6.489,-16.587 0.861,-0.526 1.531,-0.705 2.519,-0.891 l 0.7,0.588 c 0.075,4.944 -4.827,10.946 -4.768,17.272 0.031,3.335 1.672,4.854 3.91,7.004 3.463,-0.149 7.135,-0.131 10.534,-0.865 4.1,-0.886 7.621,-2.91 10.88,-5.499 9.521,-7.562 33.27,-35.603 39.794,-46.075 8.945,-14.359 20.727,-42.712 16.794,-59.373 -2.472,-10.472 -7.767,-16.754 -17.463,-21.237 -2.736,-1.266 -5.722,-1.98 -8.286,-3.588 -0.112,-0.07 -0.22,-0.144 -0.33,-0.215 z"
       id="path45" />
    <path
       fill="#330f03"
       d="m 297.625,482.538 c 6.446,-1.737 12.757,-3.561 19.252,-5.117 -2.196,5.475 -4.669,10.981 -6.489,16.587 q 2.264,4.836 4.435,9.715 c -4.008,11.996 -19.223,31.548 -29.401,39.134 -2.646,1.973 -9.462,6.003 -11.258,8.132 -0.474,0.563 -0.623,1.547 -0.643,2.257 -5.304,3.757 -10.765,5.692 -17.13,6.833 -3.527,0.633 -7.761,0.795 -10.749,-1.498 -2.096,-1.608 -2.991,-4.224 -3.243,-6.765 -0.372,-3.75 0.395,-7.716 1.098,-11.385 2.676,-13.979 8.224,-24.726 17.116,-35.758 10.765,-1.741 18.162,-13.666 27.792,-18.733 2.971,-1.563 6.035,-1.796 9.173,-2.78 z"
       id="path46" />
    <path
       fill="#4f2707"
       d="m 389.574,304.337 0.832,0.888 c -1.292,9.838 -9.597,32.174 -14.063,41.054 -2.874,5.716 -7.235,12.061 -9.04,18.122 1.256,0.631 2.519,0.305 3.858,0.141 0.11,0.071 0.218,0.145 0.33,0.215 2.564,1.608 5.55,2.322 8.286,3.588 9.696,4.483 14.991,10.765 17.463,21.237 3.933,16.661 -7.849,45.014 -16.794,59.373 -6.524,10.472 -30.273,38.513 -39.794,46.075 -3.259,2.589 -6.78,4.613 -10.88,5.499 -3.399,0.734 -7.071,0.716 -10.534,0.865 -2.238,-2.15 -3.879,-3.669 -3.91,-7.004 -0.059,-6.326 4.843,-12.328 4.768,-17.272 l -0.7,-0.588 c -0.988,0.186 -1.658,0.365 -2.519,0.891 -6.495,1.556 -12.806,3.38 -19.252,5.117 l -0.047,0.622 c -3.138,0.984 -6.202,1.217 -9.173,2.78 -9.63,5.067 -17.027,16.992 -27.792,18.733 q 3.747,-4.038 7.26,-8.281 l -0.698,-0.89 c -3.027,0.956 -8.095,1.509 -11.006,0.19 -0.721,-0.797 -1.232,-1.181 -1.53,-2.252 -3.044,-10.927 24.476,-40.054 30.043,-50.101 l 0.34,-0.626 c 1.66,-0.824 3.038,-1.202 4.051,-2.814 -0.551,-2.081 -1.004,-3.55 -0.236,-5.676 0.052,-0.145 0.114,-0.286 0.171,-0.43 3.445,-4.374 5.938,-9.78 9.099,-14.42 14.041,-20.613 28.87,-40.57 52.766,-50.261 4.263,-1.729 8.669,-2.573 13.033,-3.949 2.763,-5.629 6.572,-10.668 9.266,-16.326 6.848,-14.378 11.35,-29.453 16.402,-44.5 z"
       id="path47" />
    <path
       fill="#330f03"
       d="m 317.721,427.73 c 4.878,-2.971 8.962,-4.039 14.658,-4.414 -4.649,14.26 -14.857,36.327 -25.051,47.47 -2.045,2.236 -11.587,9.695 -11.965,10.46 0.673,0.869 1.23,0.989 2.262,1.292 l -0.047,0.622 c -3.138,0.984 -6.202,1.217 -9.173,2.78 -9.63,5.067 -17.027,16.992 -27.792,18.733 q 3.747,-4.038 7.26,-8.281 l -0.698,-0.89 c -3.027,0.956 -8.095,1.509 -11.006,0.19 -0.721,-0.797 -1.232,-1.181 -1.53,-2.252 -3.044,-10.927 24.476,-40.054 30.043,-50.101 l 0.34,-0.626 c 1.66,-0.824 3.038,-1.202 4.051,-2.814 -0.551,-2.081 -1.004,-3.55 -0.236,-5.676 0.052,-0.145 0.114,-0.286 0.171,-0.43 0.751,1.424 1.188,2.298 2.614,3.103 9.183,0.996 18.214,-5.385 26.099,-9.166 z"
       id="path48" />
    <path
       d="m 317.721,427.73 c 4.878,-2.971 8.962,-4.039 14.658,-4.414 -4.649,14.26 -14.857,36.327 -25.051,47.47 -2.045,2.236 -11.587,9.695 -11.965,10.46 0.673,0.869 1.23,0.989 2.262,1.292 l -0.047,0.622 c -3.138,0.984 -6.202,1.217 -9.173,2.78 -9.63,5.067 -17.027,16.992 -27.792,18.733 q 3.747,-4.038 7.26,-8.281 l -0.698,-0.89 0.491,-1.109 c 4.284,-2.305 8.362,-5.075 12.428,-7.741 7.86,-5.154 18.907,-13.05 25.426,-19.646 9.648,-9.763 19.34,-27.228 22.122,-40.635 -2.512,-1.767 -5.885,2.423 -9.921,1.359 z"
       id="path49" />
    <path
       fill="#a85c17"
       d="m 416.941,127.349 c 1.644,0.173 3.484,0.299 5.044,0.867 3.673,1.336 7.551,4.544 10.883,6.664 4.787,3.047 9.882,5.884 15.094,8.14 16.489,7.136 35.203,9.013 52.031,15.505 l -2.651,0.117 c -1.658,-0.656 -1.588,-0.627 -3.184,0.072 -3.665,1.607 -7.217,4.045 -10.634,6.133 -21.493,13.135 -34.434,28.719 -45.44,51.257 -2.311,4.732 -4.924,9.45 -6.744,14.394 -5.626,15.281 -8.825,35.462 -6.364,51.669 1.436,12.431 4.626,26.168 10.623,37.242 1.527,2.817 3.76,5.146 5.358,7.907 2.654,4.586 3.897,9.146 8.249,12.565 3.414,2.681 19.79,13.116 23.422,14.009 l 0.256,0.064 c -40.103,18.266 -57.592,39.376 -72.859,80.171 -5.617,15.009 -9.481,30.601 -12.479,46.326 -10.695,56.089 -3.462,100.378 16.165,153.31 3.546,9.562 6.689,18.974 10.933,28.275 13,28.49 33.581,51.504 59.558,68.781 5.436,3.066 11.072,5.259 16.55,8.085 0.14,0.151 0.276,0.305 0.42,0.452 1.603,1.638 4.636,1.811 5.698,3.799 -0.84,0.452 -1.488,0.62 -2.428,0.766 -11.041,0.82 -18.419,3.597 -27.396,10.19 l -12.28,-7.681 -0.992,1.561 c -14.076,-8.619 -25.668,-18.63 -37.387,-30.109 -0.697,1.759 -1.259,3.328 -2.512,4.785 -1.531,0.929 -2.673,0.675 -4.4,0.478 1.678,-0.464 2.506,-0.407 3.59,-1.811 -0.109,-5.763 -6.574,-11.635 -8.785,-16.969 -0.531,-1.279 -0.735,-2.46 -0.222,-3.792 -1.811,-3.272 -4.89,-7.458 -7.62,-10.002 -11.632,-14.98 -19.983,-30.81 -27.693,-48.076 Q 361.687,619.874 356.743,596.7 c -1.675,-7.516 -3.554,-15.095 -4.461,-22.751 -1.087,-9.177 -0.77,-18.589 -0.354,-27.799 1.375,-30.498 7.126,-57.113 22.629,-83.846 10.869,-18.744 25.998,-43.822 25.341,-66.243 -0.251,-8.555 -2.54,-16.983 -8.997,-22.941 -5.385,-4.969 -12.274,-8.861 -19.74,-8.578 -1.339,0.164 -2.602,0.49 -3.858,-0.141 1.805,-6.061 6.166,-12.406 9.04,-18.122 4.466,-8.88 12.771,-31.216 14.063,-41.054 l -0.832,-0.888 c 2.348,-17.407 7.362,-34.476 12.305,-51.284 4.784,-16.264 9.628,-32.582 16.408,-48.152 4.098,-9.412 9.16,-18.421 13.566,-27.695 q 5.896,-12.679 10.371,-25.927 c -10.831,-6.156 -21.994,-11.625 -28.069,-23.03 z"
       id="path50" />
    <path
       fill="#78471f"
       d="m 474.202,730.817 c 5.436,3.066 11.072,5.259 16.55,8.085 0.14,0.151 0.276,0.305 0.42,0.452 1.603,1.638 4.636,1.811 5.698,3.799 -0.84,0.452 -1.488,0.62 -2.428,0.766 l -0.1,-0.855 c -1.906,-2.221 -7.088,-3.919 -9.877,-4.985 -3.051,-1.165 -5.542,-1.988 -8.625,-0.633 l -0.814,-0.865 c -0.503,-1.864 -1.314,-3.847 -0.824,-5.764 z"
       id="path51" />
    <path
       fill="#330f03"
       d="m 409.475,723.143 c 1.678,-0.464 2.506,-0.407 3.59,-1.811 -0.109,-5.763 -6.574,-11.635 -8.785,-16.969 -0.531,-1.279 -0.735,-2.46 -0.222,-3.792 9.992,11.613 20.207,23.665 32.265,33.198 5.809,4.591 12.278,8.556 18.443,12.659 l -0.992,1.561 c -14.076,-8.619 -25.668,-18.63 -37.387,-30.109 -0.697,1.759 -1.259,3.328 -2.512,4.785 -1.531,0.929 -2.673,0.675 -4.4,0.478 z"
       id="path52" />
    <path
       fill="#c4bb90"
       d="m 424.976,282.167 c -2.461,-16.207 0.738,-36.388 6.364,-51.669 1.82,-4.944 4.433,-9.662 6.744,-14.394 11.006,-22.538 23.947,-38.122 45.44,-51.257 3.417,-2.088 6.969,-4.526 10.634,-6.133 1.596,-0.699 1.526,-0.728 3.184,-0.072 l 2.651,-0.117 c 24.245,5.496 45.805,13.635 67.47,25.726 5.769,3.219 11.874,6.356 16.775,10.841 3.028,2.772 5.284,6.232 7.46,9.681 7.615,12.071 14.849,25.763 17.396,39.964 0.727,4.049 -1.461,18.313 3.141,19.128 3.192,0.565 6.826,0.055 10.133,0.504 5.61,0.761 10.324,3.008 15.673,4.526 l 0.382,-0.58 c 4.847,-7.513 7.016,-16.92 11.298,-24.859 16.879,-31.288 44.213,-43.249 77.382,-50.795 6.777,-1.542 13.66,-2.587 20.428,-4.133 5.94,-1.357 12.16,-3.487 18.2,-4.099 2.266,-0.23 5.994,-0.412 7.962,0.871 0.113,0.073 0.208,0.17 0.312,0.255 l 0.355,0.438 c 4.064,4.915 9.31,8.612 13.503,13.363 11.167,12.653 20.547,32.552 23.473,49.111 3.252,10.995 3.555,26.293 3.156,37.735 0.083,6.502 2.415,9.133 1.804,16.599 -0.121,3.258 -1.011,6.43 -1.766,9.588 -0.175,-2.607 -0.627,-5.46 0.696,-7.834 -0.745,0.533 -0.735,0.383 -1.065,1.325 -2.067,5.9 -4.887,11.591 -7.427,17.303 -10.861,24.413 -23.441,43.049 -48.407,54.812 -6.05,2.85 -14.534,4.236 -21.194,4.567 l -0.296,-0.838 c -2.542,0.395 -5.225,0.663 -7.714,1.288 l 0.326,1.033 c -10.279,1.167 -19.787,1.211 -29.923,-1.247 -7.253,-1.759 -15.15,-3.902 -21.789,-7.328 -14.019,-7.232 -29.181,-23.957 -37.368,-37.498 -1.248,2.064 -2.693,5.016 -4.565,6.561 -1.061,0.875 -1.71,0.856 -3.01,0.7 -0.875,-0.831 -1.294,-1.377 -2.503,-1.686 -6.763,7.053 -16.566,27.014 -21.323,36.222 -1.434,2.775 -2.638,7.42 -4.947,9.435 -1.288,1.124 -2.01,0.941 -3.564,0.801 l -0.324,-0.225 c -1.969,-1.375 -2.022,-3.411 -2.326,-5.683 -0.568,-4.243 -0.627,-8.641 -1.474,-12.832 -2.498,-12.363 -6.934,-24.846 -10.656,-36.905 -1.761,0.952 -3.441,2.127 -5.491,2.151 -1.174,-1.25 -1.329,-3.041 -1.749,-4.692 -0.978,-0.102 -0.871,-0.046 -1.641,0.51 -2.767,1.997 -4.533,5.179 -7.062,7.472 -10.529,9.546 -28.962,21.11 -43.202,22.614 -14.994,1.846 -27.569,1.868 -41.801,-3.911 -3.709,-1.507 -7.867,-4.266 -11.847,-4.55 l -0.256,-0.064 c -3.632,-0.893 -20.008,-11.328 -23.422,-14.009 -4.352,-3.419 -5.595,-7.979 -8.249,-12.565 -1.598,-2.761 -3.831,-5.09 -5.358,-7.907 -5.997,-11.074 -9.187,-24.811 -10.623,-37.242 z"
       id="path53" />
    <path
       fill="#78471f"
       d="m 814.492,286.202 c 0.083,6.502 2.415,9.133 1.804,16.599 -0.121,3.258 -1.011,6.43 -1.766,9.588 -0.175,-2.607 -0.627,-5.46 0.696,-7.834 -0.745,0.533 -0.735,0.383 -1.065,1.325 -2.067,5.9 -4.887,11.591 -7.427,17.303 -10.861,24.413 -23.441,43.049 -48.407,54.812 -6.05,2.85 -14.534,4.236 -21.194,4.567 l -0.296,-0.838 c 2.868,-1.224 6.734,-1.642 9.829,-2.521 8.99,-2.553 18.113,-6.735 25.792,-12.094 21.61,-15.08 34.814,-43.715 40.491,-68.724 0.875,-3.858 0.708,-7.778 1.437,-11.652 z"
       id="path54" />
    <path
       fill="#4f2707"
       d="m 424.976,282.167 c -2.461,-16.207 0.738,-36.388 6.364,-51.669 1.82,-4.944 4.433,-9.662 6.744,-14.394 11.006,-22.538 23.947,-38.122 45.44,-51.257 3.417,-2.088 6.969,-4.526 10.634,-6.133 1.596,-0.699 1.526,-0.728 3.184,-0.072 -32.532,16.246 -53.835,40.946 -65.346,75.63 -3.552,10.705 -5.331,21.399 -5.427,32.672 -0.034,4.012 0.357,8.111 0.237,12.096 3.647,25.874 10.982,48.488 32.772,64.896 q 0.892,0.669 1.801,1.315 0.908,0.646 1.832,1.27 0.924,0.624 1.863,1.225 0.94,0.601 1.893,1.179 0.954,0.578 1.921,1.132 0.968,0.554 1.949,1.084 0.981,0.53 1.975,1.036 0.993,0.505 1.999,0.987 1.006,0.481 2.023,0.937 1.018,0.456 2.046,0.888 1.028,0.431 2.067,0.836 1.038,0.406 2.086,0.786 1.049,0.38 2.106,0.734 1.057,0.354 2.123,0.682 1.065,0.328 2.139,0.63 1.073,0.302 2.154,0.577 1.08,0.275 2.167,0.524 1.087,0.248 2.18,0.47 1.093,0.222 2.19,0.417 1.098,0.194 2.201,0.362 1.102,0.168 2.208,0.308 1.106,0.141 2.215,0.254 1.11,0.113 2.221,0.199 1.112,0.086 2.225,0.145 1.114,0.059 2.228,0.09 1.115,0.031 2.23,0.035 1.115,0.004 2.23,-0.02 1.114,-0.024 2.228,-0.075 1.114,-0.051 2.226,-0.129 1.113,-0.079 2.222,-0.185 1.11,-0.106 2.218,-0.239 1.107,-0.133 2.21,-0.293 l -0.422,1.318 c -14.994,1.846 -27.569,1.868 -41.801,-3.911 -3.709,-1.507 -7.867,-4.266 -11.847,-4.55 l -0.256,-0.064 c -3.632,-0.893 -20.008,-11.328 -23.422,-14.009 -4.352,-3.419 -5.595,-7.979 -8.249,-12.565 -1.598,-2.761 -3.831,-5.09 -5.358,-7.907 -5.997,-11.074 -9.187,-24.811 -10.623,-37.242 z"
       id="path55" />
    <path
       d="m 518.803,190.741 c 4.191,-1.834 8.511,-3.003 13.086,-3.301 13.613,-0.885 30.067,5.783 40.09,14.825 12.331,11.124 23.104,31.222 23.87,47.913 0.353,7.687 -3.655,31.669 -8.78,37.278 4.621,-13.709 9.528,-30.708 6.365,-45.143 -1.424,-6.496 -4.758,-13.528 -7.741,-19.481 -5.139,-10.259 -15.859,-17.5 -26.63,-20.943 -16.728,-5.349 -39.499,-3.03 -55.008,5.07 -13.071,6.828 -23.074,21.148 -27.286,35.109 -5.003,16.585 -3.412,40.589 4.936,55.682 6.856,12.395 17.979,23.238 31.837,27.175 14.435,4.102 34.277,3.676 47.445,-3.883 6.309,-3.622 11.4,-10.307 17.171,-13.401 l 0.253,0.785 c -2.646,5.727 -16.552,14.04 -22.645,16.293 -14.439,5.338 -35.035,5.586 -49.096,-1.085 -13.443,-6.378 -24.913,-19.174 -29.849,-33.186 -6.027,-17.11 -5.919,-41.731 2.053,-58.149 9.403,-19.362 25.934,-33.762 47.45,-37.715 6.473,-1.19 12.779,-0.206 19.165,-2.392 l -0.38,-0.908 c -6.218,-3.118 -19.32,-1.241 -26.306,-0.543 z"
       id="path56" />
    <path
       d="m 526.954,361.097 c 16.408,-3.021 28.563,-12.168 41.062,-22.544 3.94,-3.271 7.188,-6.467 11.64,-9.124 l 0.397,-1.29 c -0.407,-0.665 -1.725,-2.126 -1.945,-2.781 -1.109,-3.297 1.034,-13.707 1.963,-17.572 0.365,-1.514 0.884,-2.754 1.674,-4.098 4.806,-8.162 13.16,-19.55 22.948,-21.979 2.956,-0.734 5.948,10e-4 8.478,1.636 2.359,1.524 4.294,4.064 6.145,6.149 4.004,-2.905 8.773,-6.975 14.112,-5.959 3.047,0.579 5.313,2.661 6.894,5.241 5.355,8.739 5.289,30.064 2.664,39.691 -0.618,2.263 -1.47,4.521 -2.437,6.657 7.542,12.527 23.57,31.16 36.251,38.286 6.145,3.454 12.941,5.342 19.74,7.029 11.075,2.749 21.247,3.147 32.583,2.573 l 0.326,1.033 c -10.279,1.167 -19.787,1.211 -29.923,-1.247 -7.253,-1.759 -15.15,-3.902 -21.789,-7.328 -14.019,-7.232 -29.181,-23.957 -37.368,-37.498 -1.248,2.064 -2.693,5.016 -4.565,6.561 -1.061,0.875 -1.71,0.856 -3.01,0.7 -0.875,-0.831 -1.294,-1.377 -2.503,-1.686 -6.763,7.053 -16.566,27.014 -21.323,36.222 -1.434,2.775 -2.638,7.42 -4.947,9.435 -1.288,1.124 -2.01,0.941 -3.564,0.801 l -0.324,-0.225 c -1.969,-1.375 -2.022,-3.411 -2.326,-5.683 -0.568,-4.243 -0.627,-8.641 -1.474,-12.832 -2.498,-12.363 -6.934,-24.846 -10.656,-36.905 -1.761,0.952 -3.441,2.127 -5.491,2.151 -1.174,-1.25 -1.329,-3.041 -1.749,-4.692 -0.978,-0.102 -0.871,-0.046 -1.641,0.51 -2.767,1.997 -4.533,5.179 -7.062,7.472 -10.529,9.546 -28.962,21.11 -43.202,22.614 z"
       id="path57" />
    <path
       fill="#e6e8d1"
       d="m 578.158,307.641 c -5.771,3.094 -10.862,9.779 -17.171,13.401 -13.168,7.559 -33.01,7.985 -47.445,3.883 -13.858,-3.937 -24.981,-14.78 -31.837,-27.175 -8.348,-15.093 -9.939,-39.097 -4.936,-55.682 4.212,-13.961 14.215,-28.281 27.286,-35.109 15.509,-8.1 38.28,-10.419 55.008,-5.07 10.771,3.443 21.491,10.684 26.63,20.943 2.983,5.953 6.317,12.985 7.741,19.481 3.163,14.435 -1.744,31.434 -6.365,45.143 -1.575,2.328 -8.241,17.537 -8.911,20.185 z"
       id="path58" />
    <path
       fill="#a85c17"
       d="m 534.238,224.084 c 9.117,0.392 17.828,2.541 24.715,8.87 6.582,6.048 10.295,15.612 10.53,24.459 0.269,10.174 -3.953,20.748 -11.017,28.054 -8.306,8.59 -18.464,11.466 -30.099,11.572 -8.909,-0.156 -16.937,-2.75 -23.868,-8.49 -7.436,-6.159 -11.18,-14.154 -12.046,-23.71 -0.845,-9.324 3.019,-18.459 9.027,-25.465 8.883,-10.359 19.376,-14.357 32.758,-15.29 z"
       id="path59" />
    <path
       d="m 528.116,238.025 c 6.077,-0.441 11.838,-0.062 17.151,3.224 4.786,2.96 7.818,7.696 9.011,13.155 1.562,7.149 0.074,15.231 -3.995,21.322 -3.968,5.94 -9.308,8.663 -16.162,9.965 -4.998,0.084 -10.027,-0.761 -14.46,-3.158 -5.748,-3.107 -9.76,-8.448 -11.504,-14.709 -1.63,-5.854 -1.364,-12.101 1.714,-17.438 4.074,-7.062 10.675,-10.277 18.245,-12.361 z"
       id="path60" />
    <path
       d="m 720.878,204.936 c 1.153,-0.284 2.428,-0.321 3.611,-0.241 8.941,0.609 24.742,12.673 30.546,19.417 12.477,14.496 18.577,38.418 17.176,57.186 -1.368,18.338 -9.701,36.006 -23.735,48.058 -12.082,10.376 -30.869,16.796 -46.757,15.567 -10.009,-0.241 -24.329,-7.998 -32.362,-13.74 -11.391,-8.142 -17.944,-21.653 -20.076,-35.238 -3.112,-19.827 4.611,-44.984 16.528,-60.934 7.884,-10.552 22.701,-23.433 35.653,-27.165 6.208,-1.788 13.004,-2.01 19.416,-2.91 z"
       id="path61" />
    <path
       fill="#e6e8d1"
       d="m 707.083,211.106 c 15.112,-0.173 28.559,5.605 41.052,13.642 13.778,8.864 18.002,20.04 21.335,35.571 4.224,19.673 0.688,37.775 -10.294,54.598 -10.352,15.857 -24.896,24.31 -43.122,28.065 q -0.708,0.131 -1.421,0.237 c -16.585,2.566 -31.869,-3.603 -45.036,-13.395 -10.266,-7.634 -16.742,-21.386 -18.438,-33.836 -2.638,-19.362 3.812,-44.61 15.713,-60.126 9.832,-12.819 23.949,-22.65 40.211,-24.756 z"
       id="path62" />
    <path
       fill="#a85c17"
       d="m 706.627,239.806 c 9.877,-0.182 19.154,1.759 26.787,8.328 8.147,7.01 12.352,16.405 13.025,27.046 0.66,10.417 -1.921,20.089 -9.029,27.933 -7.012,7.736 -16.172,11.664 -26.481,12.157 -10.096,-0.302 -18.216,-2.351 -26.203,-8.809 -7.894,-6.383 -12.321,-15.32 -13.333,-25.391 -0.961,-9.57 1.978,-20.034 8.134,-27.491 6.333,-7.671 17.325,-12.789 27.1,-13.773 z"
       id="path63" />
    <path
       d="m 706.518,253.277 c 5.188,-0.337 9.869,-0.203 14.503,2.414 5.495,3.104 9.376,8.596 10.956,14.655 1.782,6.833 0.981,14.051 -2.647,20.148 -4.091,6.876 -10.076,10.473 -17.7,12.328 -5.757,-0.018 -11.229,-1.52 -16.061,-4.694 q -0.517,-0.337 -1.016,-0.699 -0.5,-0.362 -0.981,-0.748 -0.481,-0.386 -0.942,-0.795 -0.462,-0.409 -0.903,-0.84 -0.441,-0.431 -0.86,-0.884 -0.419,-0.452 -0.816,-0.925 -0.396,-0.472 -0.769,-0.963 -0.373,-0.492 -0.721,-1.001 -0.349,-0.509 -0.671,-1.034 -0.323,-0.526 -0.62,-1.066 -0.297,-0.541 -0.566,-1.096 -0.27,-0.554 -0.512,-1.122 -0.243,-0.567 -0.457,-1.145 -0.214,-0.579 -0.399,-1.167 -0.186,-0.588 -0.342,-1.185 -0.156,-0.596 -0.283,-1.2 c -1.297,-6.338 0.43,-12.683 4.065,-17.956 4.304,-6.242 10.365,-9.738 17.742,-11.025 z"
       id="path64" />
    <path
       fill="#c4bb90"
       d="m 736.837,381.724 0.296,0.838 c 6.66,-0.331 15.144,-1.717 21.194,-4.567 24.966,-11.763 37.546,-30.399 48.407,-54.812 2.54,-5.712 5.36,-11.403 7.427,-17.303 0.33,-0.942 0.32,-0.792 1.065,-1.325 -1.323,2.374 -0.871,5.227 -0.696,7.834 l 0.012,1.901 c -0.518,3.812 -1.335,7.809 -1.267,11.657 -1.03,6.648 0.144,15.434 0.983,22.146 0.487,9.513 4.442,35.845 7.935,44.535 0.146,1.862 0.343,2.59 -0.45,4.317 -1.302,0.847 -2.56,1.486 -3.986,2.1 -0.947,0.312 -1.726,0.518 -2.543,1.113 -7.036,2.794 -11.568,6.889 -14.621,13.894 q -1.048,2.438 -1.856,4.966 -0.808,2.528 -1.368,5.122 -0.561,2.594 -0.869,5.23 -0.308,2.636 -0.36,5.289 c -0.4,18.783 7.376,45.461 13.59,63.146 0.018,0.05 0.042,0.097 0.064,0.146 3.918,23.49 1.897,40.443 -2.326,63.705 -2.941,16.202 -5.989,29.62 -11.438,45.271 -2.634,6.042 -4.514,12.427 -7.289,18.39 -3.595,7.725 -8.227,14.952 -11.6,22.785 -2.511,4.805 -10.706,16.834 -11.857,20.149 -12.053,16.661 -24.627,33.008 -40.333,46.403 -2.901,2.057 -5.68,4.27 -8.475,6.467 -0.123,0.073 -0.248,0.145 -0.369,0.221 -5.114,3.21 -9.82,8.749 -14.322,12.857 -7.079,6.458 -22.199,18.869 -32.292,16.816 -7.209,-1.467 -14.773,-6.068 -21.551,-9.033 2.69,-1.268 5.278,-2.51 7.746,-4.181 l -1.152,-1.172 c -16.905,8.629 -27.288,9.609 -45.276,13.769 -5.693,1.317 -11.689,3.585 -17.438,3.966 -0.184,0.013 -0.352,0.11 -0.528,0.165 -10.719,1.171 -21.157,1.301 -31.924,1.341 -5.368,-0.908 -10.933,-0.772 -16.362,-1.748 -6.882,-1.238 -13.521,-3.848 -20.293,-5.596 -5.585,-1.442 -11.379,-2.17 -16.913,-3.783 -5.198,-1.516 -9.698,-4.439 -15.05,-5.841 -5.478,-2.826 -11.114,-5.019 -16.55,-8.085 -25.977,-17.277 -46.558,-40.291 -59.558,-68.781 -4.244,-9.301 -7.387,-18.713 -10.933,-28.275 -19.627,-52.932 -26.86,-97.221 -16.165,-153.31 2.998,-15.725 6.862,-31.317 12.479,-46.326 15.267,-40.795 32.756,-61.905 72.859,-80.171 3.98,0.284 8.138,3.043 11.847,4.55 14.232,5.779 26.807,5.757 41.801,3.911 14.24,-1.504 32.673,-13.068 43.202,-22.614 2.529,-2.293 4.295,-5.475 7.062,-7.472 0.77,-0.556 0.663,-0.612 1.641,-0.51 0.42,1.651 0.575,3.442 1.749,4.692 2.05,-0.024 3.73,-1.199 5.491,-2.151 3.722,12.059 8.158,24.542 10.656,36.905 0.847,4.191 0.906,8.589 1.474,12.832 0.304,2.272 0.357,4.308 2.326,5.683 l 0.324,0.225 c 1.554,0.14 2.276,0.323 3.564,-0.801 2.309,-2.015 3.513,-6.66 4.947,-9.435 4.757,-9.208 14.56,-29.169 21.323,-36.222 1.209,0.309 1.628,0.855 2.503,1.686 1.3,0.156 1.949,0.175 3.01,-0.7 1.872,-1.545 3.317,-4.497 4.565,-6.561 8.187,13.541 23.349,30.266 37.368,37.498 6.639,3.426 14.536,5.569 21.789,7.328 10.136,2.458 19.644,2.414 29.923,1.247 l -0.326,-1.033 c 2.489,-0.625 5.172,-0.893 7.714,-1.288 z"
       id="path65" />
    <path
       fill="#a85c17"
       d="m 736.837,381.724 0.296,0.838 c 6.66,-0.331 15.144,-1.717 21.194,-4.567 24.966,-11.763 37.546,-30.399 48.407,-54.812 2.54,-5.712 5.36,-11.403 7.427,-17.303 0.33,-0.942 0.32,-0.792 1.065,-1.325 -1.323,2.374 -0.871,5.227 -0.696,7.834 l 0.012,1.901 c -0.518,3.812 -1.335,7.809 -1.267,11.657 -1.03,6.648 0.144,15.434 0.983,22.146 0.487,9.513 4.442,35.845 7.935,44.535 0.146,1.862 0.343,2.59 -0.45,4.317 -1.302,0.847 -2.56,1.486 -3.986,2.1 -0.947,0.312 -1.726,0.518 -2.543,1.113 -7.036,2.794 -11.568,6.889 -14.621,13.894 q -1.048,2.438 -1.856,4.966 -0.808,2.528 -1.368,5.122 -0.561,2.594 -0.869,5.23 -0.308,2.636 -0.36,5.289 c -0.4,18.783 7.376,45.461 13.59,63.146 0.018,0.05 0.042,0.097 0.064,0.146 3.918,23.49 1.897,40.443 -2.326,63.705 -2.941,16.202 -5.989,29.62 -11.438,45.271 -2.634,6.042 -4.514,12.427 -7.289,18.39 -3.595,7.725 -8.227,14.952 -11.6,22.785 -2.511,4.805 -10.706,16.834 -11.857,20.149 -12.053,16.661 -24.627,33.008 -40.333,46.403 -2.901,2.057 -5.68,4.27 -8.475,6.467 -0.123,0.073 -0.248,0.145 -0.369,0.221 -5.114,3.21 -9.82,8.749 -14.322,12.857 -7.079,6.458 -22.199,18.869 -32.292,16.816 -7.209,-1.467 -14.773,-6.068 -21.551,-9.033 2.69,-1.268 5.278,-2.51 7.746,-4.181 l -1.152,-1.172 c 7.144,-3.69 14.442,-6.268 21.724,-9.536 l 22.205,-13.151 0.568,-0.546 c 6.959,-6.796 13.282,-14.927 19.554,-22.383 4.678,-5.562 9.928,-11.098 13.907,-17.181 14.354,-21.94 23.977,-47.379 32.924,-71.885 3.883,-10.634 7.96,-21.204 10.639,-32.223 3.342,-13.753 6.695,-39.627 6.888,-54.01 0.263,-19.493 -5.647,-49.301 -11.701,-67.535 -6.117,-18.425 -18.494,-46.009 -32.155,-59.687 -3.067,-3.072 -5.242,-4.456 -9.64,-4.447 l -0.326,-1.033 c 2.489,-0.625 5.172,-0.893 7.714,-1.288 z"
       id="path66" />
    <path
       fill="#4f2707"
       d="m 698.465,713.942 c -1.415,3.641 -12.897,10.121 -16.583,13.177 -7.971,6.104 -17.483,6.634 -26.194,10.682 l -1.152,-1.172 c 7.144,-3.69 14.442,-6.268 21.724,-9.536 z"
       id="path67" />
  </g>
</svg>
