<?xml version="1.0" encoding="UTF-8" standalone="no"?>
<svg
   width="350"
   height="350"
   version="1.1"
   id="svg125"
   sodipodi:docname="panda2.svg"
   inkscape:version="1.3.1 (9b9bdc1480, 2023-11-25, custom)"
   xmlns:inkscape="http://www.inkscape.org/namespaces/inkscape"
   xmlns:sodipodi="http://sodipodi.sourceforge.net/DTD/sodipodi-0.dtd"
   xmlns="http://www.w3.org/2000/svg"
   xmlns:svg="http://www.w3.org/2000/svg">
  <sodipodi:namedview
     id="namedview125"
     pagecolor="#ffffff"
     bordercolor="#999999"
     borderopacity="1"
     inkscape:showpageshadow="2"
     inkscape:pageopacity="0"
     inkscape:pagecheckerboard="0"
     inkscape:deskcolor="#d1d1d1"
     inkscape:zoom="1.0413252"
     inkscape:cx="556.50242"
     inkscape:cy="321.70545"
     inkscape:window-width="1920"
     inkscape:window-height="954"
     inkscape:window-x="0"
     inkscape:window-y="27"
     inkscape:window-maximized="1"
     inkscape:current-layer="svg125" />
  <path
     fill="#2c2824"
     d="m 90.616846,243.82354 c 1.034961,0.10595 2.054541,0.25805 3.081299,0.42417 l -0.210206,0.85961 c -0.918066,-0.32641 -1.937304,-0.49799 -2.88374,-0.73896 z"
     id="path2"
     style="stroke-width:0.341797" />
  <path
     fill="#2c2824"
     d="m 52.700977,213.50684 c -0.725635,-2.68413 -1.798877,-7.29361 -0.395118,-9.9104 1.000782,-1.86519 3.343116,-2.73438 5.278711,-3.25665 5.221289,-1.40922 13.156787,-2.0559 18.05166,0.76187 1.894922,1.09067 2.849903,2.82769 3.361231,4.90479 0.609082,2.47255 0.537305,5.05107 0.454248,7.57661 1.334717,0.34316 3.318506,0.72392 4.090967,1.99096 1.424267,2.33584 1.109472,6.96377 0.877392,9.6086 -0.04478,0.50893 -0.338037,1.89355 -0.219091,2.31567 0.01162,0.0403 0.252929,0.24541 0.29873,0.27446 2.028906,0.31206 4.696973,1.03462 5.9271,2.8024 1.903125,2.73471 0.559521,9.59594 -0.02598,12.75825 -0.04922,0.26489 -0.06904,0.28848 0.216016,0.49014 l -0.01265,0.54482 c 0.946436,0.24097 1.965674,0.41255 2.88374,0.73896 l 0.210206,-0.85961 c 1.568847,0.27343 2.930908,0.54243 3.941259,1.90927 1.900391,2.57031 1.12417,9.4647 0.581055,12.47149 -0.161328,0.89243 -0.363672,1.777 -0.662744,2.63388 1.945508,-0.0414 4.156931,0.58311 5.574361,1.96294 1.76094,1.71446 1.91919,4.27417 1.89766,6.58677 -0.026,2.75112 -0.22491,6.0416 -0.93721,8.70147 -0.15278,0.37871 -0.26729,0.59199 -0.2396,1.01171 -0.67026,1.90757 -1.88467,2.75557 -3.6668,3.6022 -4.620062,2.19536 -10.163665,3.31611 -15.13681,4.42969 -5.265722,1.17886 -10.722168,2.51494 -16.084619,3.08335 -8.647119,0.91636 -18.474804,-0.58174 -26.649218,-3.5229 -3.868116,-1.3918 -7.413917,-2.99278 -9.657779,-6.58301 -0.806196,0.38999 -1.621792,0.83398 -2.450888,1.16792 0.418496,-0.69521 1.34145,-0.99155 2.052456,-1.33437 -0.169463,0.0243 -0.320093,-0.0844 -0.475372,-0.15142 l 0.05923,0.20166 c -0.402568,0.0622 -0.791909,0.12236 -1.200698,0.10151 -0.09458,-0.004 -0.189048,-0.0113 -0.283555,-0.0171 0.763369,-0.29531 1.582588,-0.45117 2.377778,-0.64018 -0.545952,-3.54239 -2.647182,-10.75122 -1.1281,-13.91558 1.017871,-2.12051 4.659853,-2.94834 6.737978,-3.65928 -0.292236,-0.7393 -0.576611,-1.481 -0.79707,-2.24594 -0.884229,-3.06866 -2.167676,-8.80469 -0.47168,-11.73628 1.307715,-2.26065 4.835059,-2.84956 7.181494,-3.48531 -0.899951,-3.36191 -2.402148,-8.42426 -1.004541,-11.78618 0.898584,-2.16084 2.957569,-3.15376 4.965625,-4.03969 -0.250195,-0.62549 -0.445361,-1.26431 -0.630615,-1.91167 -0.815185,-2.85127 -2.123584,-7.81246 -0.504834,-10.5458 0.820313,-1.38565 2.256543,-2.1564 3.779248,-2.54195 0.608057,-0.1832 1.209961,-0.37905 1.836817,-0.48808 z"
     id="path18"
     style="stroke-width:0.341797" />
  <path
     fill="#cd72ab"
     d="m 64.451953,200.53428 c 1.581836,-0.20371 3.382422,-0.175 4.975537,-0.0369 2.997901,0.25943 5.405518,1.10025 7.388965,3.46377 -3.297314,1.44785 -7.413574,1.54185 -10.977832,1.73223 -4.278271,0.0653 -8.689502,0.2396 -12.599316,-1.73735 2.866992,-2.91451 7.381103,-3.0625 11.212646,-3.42173 z"
     id="path19"
     style="stroke-width:0.341797" />
  <path
     fill="#86afc7"
     d="m 51.236377,214.76328 c 0.6125,-0.21055 1.237988,-0.40127 1.814941,-0.69897 1.907911,2.45717 4.917774,3.52631 7.922168,3.90742 4.156934,0.52705 13.486963,0.27139 16.828028,-2.27705 0.433056,-0.33052 0.799121,-0.72359 1.152197,-1.13545 1.20791,0.22524 3.037549,0.50073 3.750195,1.64062 0.214649,0.34283 0.243018,0.82613 0.09775,1.20039 -0.179785,0.46348 -0.710596,0.79331 -1.105713,1.05684 q -1.461523,0.54756 -2.979443,0.90952 c -7.723926,1.89971 -24.036865,2.369 -30.85332,-1.77085 0.989502,-1.32514 1.948242,-2.01523 3.373193,-2.83247 z"
     id="path20"
     style="stroke-width:0.341797" />
  <path
     fill="#cd72ab"
     d="m 53.234863,204.62866 c 1.15083,0.71333 2.233643,1.53809 3.574854,1.8481 5.337842,1.23388 15.610547,1.252 20.311621,-1.66592 0.854492,2.65166 1.433838,6.71494 0.70957,9.43462 -0.168164,0.15928 -0.335986,0.31684 -0.522265,0.45596 -2.472217,1.84262 -14.902344,1.92944 -18.046192,1.44682 -1.683008,-0.25805 -4.254004,-0.82886 -5.265039,-2.31054 -1.599267,-2.34336 -1.203467,-6.55977 -0.762549,-9.20904 z"
     id="path21"
     style="stroke-width:0.341797" />
  <path
     fill="#86afc7"
     d="m 81.575635,219.18784 1.597217,-1.02847 c 0.113134,3.13257 0.544482,9.61133 -1.541163,11.98648 -2.370019,2.69883 -10.170507,3.02251 -13.751171,3.12881 -4.89043,0.14526 -13.935401,0.0407 -17.658252,-3.47095 q -0.40503,-0.3876 -0.782373,-0.80254 c -0.121338,-0.86304 -0.539014,-1.86894 -0.7417,-2.74258 -0.601562,-2.5915 -1.019238,-5.17002 -1.057861,-7.83261 1.198682,0.87739 2.338916,1.51416 3.75498,1.97763 7.395459,2.42129 23.265772,2.26885 30.180323,-1.21577 z"
     id="path22"
     style="stroke-width:0.341797" />
  <path
     fill="#f2ec90"
     d="m 84.133301,228.21094 c 1.854248,0.83091 4.341162,1.64746 5.631103,3.25835 0.681543,2.16152 -0.139453,11.26152 -1.11289,13.23437 -0.504834,1.02334 -1.677881,1.39488 -2.703955,1.69702 -9.28833,2.73472 -30.809913,5.09038 -39.447461,0.52432 -0.114161,-0.0602 -0.223877,-0.12852 -0.333936,-0.19551 -0.610107,-2.22954 -2.507764,-10.33354 -1.490576,-12.25239 0.04067,-0.0769 0.111768,-0.13364 0.16748,-0.20029 l 0.277539,-0.59029 -0.156884,-0.1145 c 0.0065,-0.29941 -0.02427,-0.32573 0.147314,-0.60019 0.651465,-1.04146 2.690625,-2.69063 3.864356,-2.87144 0.304541,-0.0472 0.52124,0.20576 0.763232,0.36709 0.196875,0.5937 0.984033,1.1293 1.492969,1.45366 5.791406,3.68867 19.847803,3.41455 26.608887,1.80777 2.385058,-0.56704 4.367822,-1.08316 5.41748,-3.51709 0.256689,-0.59473 0.412891,-1.33985 0.773486,-1.87237 0.03076,-0.0455 0.06802,-0.0858 0.101856,-0.12851 z"
     id="path23"
     style="stroke-width:0.341797" />
  <defs
     id="defs24">
    <linearGradient
       id="gradient_0"
       gradientUnits="userSpaceOnUse"
       x1="190.69411"
       y1="682.79047"
       x2="191.07098"
       y2="692.63135"
       gradientTransform="scale(0.34179688)">
      <stop
         offset="0"
         stop-color="#25230D"
         id="stop23" />
      <stop
         offset="1"
         stop-color="#2F2A25"
         id="stop24" />
    </linearGradient>
  </defs>
  <path
     fill="url(#gradient_0)"
     d="m 45.120605,233.68652 c 11.051661,3.66748 33.388086,2.61783 44.096241,-2.00976 -5.796192,5.29546 -22.519287,5.74595 -30.232959,5.38843 -4.773535,-0.22115 -9.842383,-0.54859 -14.140821,-2.78838 z"
     id="path24"
     style="fill:url(#gradient_0);stroke-width:0.341797" />
  <path
     fill="#b7cb73"
     d="m 45.660986,247.35532 c 9.79043,4.76021 26.262647,3.98023 36.722998,1.5169 1.772901,-0.41734 5.316651,-1.13955 6.581641,-2.5628 0.451855,-0.50791 0.763916,-1.24926 1.126221,-1.8351 l 0.512353,-0.10596 c 0.946436,0.24097 1.965674,0.41255 2.88374,0.73896 0.797071,0.25259 1.693946,0.50279 2.381641,0.99053 0.782031,0.5544 1.1146,1.43486 1.223975,2.35601 0.304199,2.55595 0.374951,10.84863 -1.204834,12.65263 -3.833936,4.37876 -21.506543,6.61822 -27.368701,7.03453 -7.748536,0.54995 -22.864161,-0.61456 -28.89961,-5.85191 l -0.105615,-0.28164 c -1.024707,-2.75181 -2.604834,-10.25459 -1.244482,-12.95752 0.933105,-1.85493 4.390722,-2.8 6.20498,-3.43711 z"
     id="path25"
     style="stroke-width:0.341797" />
  <path
     fill="#232112"
     d="m 70.704443,252.48228 c -0.984716,-0.0342 -3.450781,0.11928 -4.224609,-0.37906 1.034619,-0.24951 2.098975,-0.21362 3.157861,-0.23105 l 1.743164,0.23345 -0.07007,0.29907 0.324365,-0.21294 -0.06289,0.14321 q -0.434766,0.068 -0.867823,0.14732 z"
     id="path26"
     style="stroke-width:0.341797" />
  <path
     fill="#2c2824"
     d="m 69.637695,251.87217 c 10.20503,-0.97959 17.277832,-1.29063 27.251465,-4.24102 -6.072705,3.85889 -18.91333,5.38159 -26.184717,4.85113 q 0.433057,-0.0793 0.867823,-0.14732 l 0.06289,-0.14321 -0.324365,0.21294 0.07007,-0.29907 z"
     id="path27"
     style="stroke-width:0.341797" />
  <path
     fill="#2c2824"
     d="m 38.659277,250.01553 c 1.459131,0.24336 4.420118,1.59926 6.35708,2.04155 4.549317,1.03906 17.295264,1.71958 20.224463,4.22358 1.231494,1.05274 1.847412,2.59732 1.944483,4.19248 0.153808,2.53067 0.0499,4.90376 -1.673096,6.89576 l -0.471338,0.3435 -0.144238,-0.0591 c 0.57456,-1.1539 0.930029,-2.02412 1.043506,-3.32226 0.181152,-2.07232 0.360254,-5.32452 -1.119043,-6.97881 -2.89502,-3.23819 -21.58208,-1.89834 -26.161817,-7.33667 z"
     id="path28"
     style="stroke-width:0.341797" />
  <path
     fill="#b7cb73"
     d="m 97.13252,261.65166 c 1.211669,0.4416 4.09131,1.24448 4.72637,2.43804 l 0.28095,0.35205 c 0.32539,0.04 0.39615,0.15893 0.59576,0.42998 1.73803,2.36181 0.16064,12.25342 -0.33086,15.43828 -6.73101,3.79976 -28.119974,8.82998 -35.956693,9.04907 -6.498584,0.18184 -13.4521,-0.79057 -19.728858,-2.48554 -3.177343,-0.85826 -10.725244,-3.26929 -12.333056,-6.40904 -0.79167,-1.5456 -1.826802,-9.72036 -1.824649,-11.74004 6.5e-4,-0.58139 0.0713,-1.17509 0.285537,-1.71924 0.849673,-2.15776 4.158301,-3.04541 6.133545,-3.86469 5.566504,4.58896 15.421534,6.34135 22.585596,6.65888 8.328223,0.36914 23.911768,-1.64336 31.392676,-5.25854 1.594824,-0.77075 2.865283,-1.70044 4.173682,-2.88921 z"
     id="path29"
     style="stroke-width:0.341797" />
  <path
     fill="#2c2824"
     d="m 101.85889,264.0897 0.28095,0.35205 c -0.94541,1.24619 -2.472555,1.91645 -3.904,2.45171 -2.094531,0.78305 -4.294678,1.31113 -6.487988,1.73359 -3.056348,0.58892 -18.833008,2.81641 -20.904297,1.86792 l 0.417675,0.1292 -0.476123,-0.0759 c 1.63003,-0.54961 5.960596,-0.94233 7.90337,-1.20278 2.466064,-0.33086 4.901709,-0.87774 7.353759,-1.29746 5.375098,-0.91944 10.934424,-1.29986 15.816654,-3.95835 z"
     id="path30"
     style="stroke-width:0.341797" />
  <path
     fill="#2c2824"
     d="m 35.085449,267.59893 c 2.54502,0.68017 4.908545,1.96396 7.519531,2.60141 4.244092,1.03633 8.639942,1.72744 12.95,2.45137 2.331055,0.39136 4.741749,0.66514 7.00752,1.3436 1.06333,0.31822 2.212793,0.76563 3.006445,1.56475 1.7917,1.80537 1.923975,5.34741 1.896289,7.73896 -0.02598,2.24287 -0.725976,3.66167 -2.298925,5.18267 l -0.495606,0.38144 c 0.02529,-0.77758 1.1146,-1.77836 1.31626,-2.67661 0.489453,-2.18134 0.409814,-7.59677 -0.830567,-9.43427 -0.480566,-0.71197 -1.205859,-1.11495 -1.993359,-1.41436 -2.014551,-0.76597 -4.381152,-0.94712 -6.503711,-1.27251 q -4.774902,-0.69282 -9.523144,-1.55107 C 43.953369,271.9083 36.998145,270.4167 35.085449,267.59893 Z"
     id="path31"
     style="stroke-width:0.341797" />
  <defs
     id="defs32">
    <linearGradient
       id="gradient_1"
       gradientUnits="userSpaceOnUse"
       x1="190.38728"
       y1="806.07343"
       x2="215.88426"
       y2="984.37152"
       gradientTransform="scale(0.34179688)">
      <stop
         offset="0"
         stop-color="#272826"
         id="stop31" />
      <stop
         offset="1"
         stop-color="#3D353A"
         id="stop32" />
    </linearGradient>
  </defs>
  <path
     fill="url(#gradient_1)"
     d="m 103.85293,279.52524 c -0.0277,-0.41972 0.0868,-0.633 0.2396,-1.01171 2.61611,0.56225 6.16738,1.30395 7.71128,3.73891 1.77563,2.80034 1.08008,12.13413 0.93071,15.66182 2.87622,0.44775 7.38931,0.76152 9.26646,3.24638 2.56108,3.39029 1.91303,14.26626 1.24277,18.20445 -0.30591,1.79751 -0.76631,4.19282 -2.38096,5.27051 -5.90966,3.94262 -50.255075,13.31401 -58.534421,13.57207 -5.238037,0.16337 -11.51582,-1.41709 -16.610986,-2.56895 q -7.697266,-1.71787 -15.217276,-4.09541 c -2.648789,-0.81382 -5.410336,-1.56953 -7.890654,-2.82017 -1.294966,-0.65283 -2.862275,-1.63344 -3.612041,-2.8957 -1.856128,-3.12505 -2.746235,-16.44556 -1.628525,-20.03237 0.409131,-1.31319 1.231494,-1.98208 2.452563,-2.56177 2.273496,-1.07974 4.83752,-1.32446 7.228594,-2.02959 -1.72457,-3.85376 -3.109736,-12.88437 -1.614273,-16.90425 0.594625,-1.59824 1.735953,-2.62055 3.289385,-3.25971 0.470655,-0.1938 1.136406,-0.47442 1.633721,-0.53697 0.09451,0.006 0.188979,0.0127 0.283555,0.0171 0.408789,0.0208 0.79813,-0.0393 1.200698,-0.10151 l -0.05923,-0.20166 c 0.155279,0.067 0.305909,0.17568 0.475372,0.15142 -0.711006,0.34282 -1.63396,0.63916 -2.052456,1.33437 0.829096,-0.33394 1.644692,-0.77793 2.450888,-1.16792 2.243862,3.59023 5.789663,5.19121 9.657779,6.58301 8.174414,2.94116 18.002099,4.43926 26.649218,3.5229 5.362451,-0.56841 10.818897,-1.90449 16.084619,-3.08335 4.973145,-1.11358 10.516748,-2.23433 15.13681,-4.42969 1.78213,-0.84663 2.99654,-1.69463 3.6668,-3.6022 z"
     id="path32"
     style="fill:url(#gradient_1);stroke-width:0.341797" />
  <path
     fill="#f2ec90"
     d="m 103.85293,279.52524 c 1.17681,0.43067 4.53462,1.36309 5.22505,2.38164 l -0.30557,0.21636 0.008,0.65694 c 0.47988,-0.20132 0.94882,-0.48262 1.47963,-0.37085 1.43521,1.61567 0.94405,13.05527 0.78545,15.61191 q -0.0547,0.99805 -0.19174,1.98823 c -2.66875,1.5145 -5.69742,2.44864 -8.63003,3.32534 -6.301371,1.88365 -12.805766,3.19375 -19.233256,4.57427 -4.234522,0.90952 -12.592822,2.96167 -16.694043,2.69268 l -0.806641,-0.10904 c -1.252685,0.81622 -12.01997,-0.86679 -14.129199,-1.2479 -5.438672,-0.98266 -20.192573,-4.3644 -23.142451,-8.93833 -1.484903,-2.30234 -2.302378,-12.37783 -1.600532,-15.03325 0.500937,-1.89526 1.993256,-2.70156 3.589004,-3.57075 0.829096,-0.33394 1.644692,-0.77793 2.450888,-1.16792 2.243862,3.59023 5.789663,5.19121 9.657779,6.58301 8.174414,2.94116 18.002099,4.43926 26.649218,3.5229 5.362451,-0.56841 10.818897,-1.90449 16.084619,-3.08335 4.973145,-1.11358 10.516748,-2.23433 15.136814,-4.42969 1.78213,-0.84663 2.99654,-1.69463 3.6668,-3.6022 z"
     id="path33"
     style="stroke-width:0.341797" />
  <defs
     id="defs34">
    <linearGradient
       id="gradient_2"
       gradientUnits="userSpaceOnUse"
       x1="190.5797"
       y1="886.64838"
       x2="197.32953"
       y2="886.96448"
       gradientTransform="scale(0.34179688)">
      <stop
         offset="0"
         stop-color="#292717"
         id="stop33" />
      <stop
         offset="1"
         stop-color="#242226"
         id="stop34" />
    </linearGradient>
  </defs>
  <path
     fill="url(#gradient_2)"
     d="m 62.789111,294.15894 c 1.488184,0.34077 2.693701,1.09067 3.48291,2.41855 1.844678,3.1042 1.872706,8.5979 0.865088,11.98682 -0.210205,0.70683 -0.525341,1.37231 -0.840478,2.03745 l -0.806641,-0.10904 c 1.219873,-3.4142 1.406494,-10.27373 -0.124756,-13.56933 -0.629589,-1.35523 -1.447168,-1.58355 -2.764795,-2.05625 l 0.132618,-0.1627 0.799121,0.0978 0.02974,-0.12339 -0.655566,-0.25806 z"
     id="path34"
     style="fill:url(#gradient_2);stroke-width:0.341797" />
  <path
     fill="#2c2824"
     d="m 108.78062,282.78018 c -8.09888,3.82299 -16.739849,5.65981 -25.530864,7.11142 -2.331055,0.38486 -4.915039,0.9813 -7.284717,0.84321 0.872607,-0.53798 3.326025,-0.85927 4.45874,-1.14194 7.185938,-1.79136 14.407764,-3.35952 21.554051,-5.32417 2.29414,-0.63061 4.51377,-1.47656 6.79458,-2.14546 z"
     id="path35"
     style="stroke-width:0.341797" />
  <path
     fill="#2c2824"
     d="m 29.079224,285.4021 c 1.7406,0.55952 3.448115,1.34087 5.163354,1.98516 q 4.020557,1.50288 8.19458,2.50263 c 3.993555,0.94234 8.062305,1.63653 12.097901,2.37891 2.655078,0.48808 5.769531,0.81245 8.254052,1.89014 l 0.117237,0.26181 0.655566,0.25806 -0.02974,0.12339 -0.799121,-0.0978 -0.132618,0.1627 C 51.922359,293.32765 38.016012,291.7735 29.07922,285.40206 Z"
     id="path36"
     style="stroke-width:0.341797" />
  <path
     fill="#c05059"
     d="m 112.72358,298.49429 c 2.45,1.40239 5.47969,1.82588 8.02403,3.15649 1.63515,4.15112 1.70864,16.23535 -0.0615,20.30103 -0.56601,1.29951 -1.93662,1.77085 -3.18828,2.22475 -6.06587,2.20015 -12.70459,3.45591 -18.970066,5.01348 q -11.906152,3.00542 -23.910058,5.59214 c -3.483252,0.76015 -8.161084,2.1188 -11.677149,2.0853 l -0.366748,-0.0106 c -6.182422,0.20884 -36.947217,-7.23447 -41.40435,-11.39414 -0.501416,-0.46792 -0.817066,-0.95839 -1.037832,-1.60747 -1.017632,-2.99277 -1.523799,-10.70576 -1.55627,-13.9894 -0.01606,-1.6249 -0.03835,-3.57315 1.230195,-4.78413 1.211875,-1.15664 5.876036,-2.57783 7.616568,-3.06558 1.582178,1.29199 3.148701,2.4271 4.975195,3.35132 9.047637,4.57871 26.282061,7.80493 36.397881,6.7604 8.159375,-0.84219 38.373194,-6.50918 43.397954,-11.28613 0.23276,-0.77896 0.38828,-1.54937 0.53046,-2.34746 z"
     id="path37"
     style="stroke-width:0.341797" />
  <path
     fill="#2f2327"
     d="m 120.0312,301.98062 0.43921,0.0294 -0.01,0.22012 c -0.77349,0.76357 -1.78042,1.31933 -2.77608,1.74555 -2.19399,0.93892 -4.54726,1.54356 -6.84174,2.19263 -7.30249,2.06685 -14.757084,3.48838 -22.211674,4.87437 -4.808057,0.89414 -9.572705,1.91474 -14.408447,2.65815 l -0.257373,-0.0407 c 1.390087,-1.16553 33.455424,-8.07393 37.925094,-9.19912 q 4.13575,-1.02574 8.14092,-2.48042 z"
     id="path38"
     style="stroke-width:0.341797" />
  <path
     fill="#2f2327"
     d="m 62.573779,336.85688 c 2.638672,-4.37705 2.699854,-8.99062 1.49878,-13.88549 -0.510645,-2.08086 -1.390088,-4.6898 -3.327393,-5.83653 -2.19707,-1.30122 -5.772266,-1.52783 -8.269092,-1.97661 -7.968994,-1.43247 -23.56915,-3.76831 -29.646572,-8.91987 7.953545,3.82915 17.241738,5.43867 25.858096,7.06767 3.547851,0.67061 9.807519,1.24756 12.77705,2.90562 1.751709,0.97788 2.942872,3.28672 3.584766,5.13003 1.351807,3.88144 1.732227,9.30713 -0.125781,13.09355 -0.507227,1.0336 -1.072217,1.73257 -1.983106,2.43223 z"
     id="path39"
     style="stroke-width:0.341797" />
  <defs
     id="defs40">
    <linearGradient
       id="gradient_3"
       gradientUnits="userSpaceOnUse"
       x1="399.18225"
       y1="340.07684"
       x2="996.80798"
       y2="809.49359"
       gradientTransform="scale(0.34179688)">
      <stop
         offset="0"
         stop-color="#312F30"
         id="stop39"
         style="stop-color:#201e1f;stop-opacity:1;" />
      <stop
         offset="1"
         stop-color="#676467"
         id="stop40" />
    </linearGradient>
  </defs>
  <path
     fill="url(#gradient_3)"
     d="m 236.06577,31.001763 c 3.14795,-0.386778 6.67051,0.08579 9.74634,0.769487 4.97895,1.106772 9.92817,3.610195 12.71929,8.050137 1.81631,2.888867 2.30234,6.09082 1.53603,9.405566 5.4127,2.596973 10.06216,6.382031 14.4833,10.386524 q -1.29746,-2.137256 -2.4958,-4.331592 c -1.41914,-2.618848 -6.16089,-11.269385 -4.95332,-13.946338 0.14902,-0.330859 0.19859,-0.362305 0.53047,-0.482276 0.27583,0.05264 0.49902,0.106641 0.73896,0.26045 0.97037,0.621386 1.83511,1.73872 2.54366,2.637988 4.53017,5.753809 7.67436,13.867383 9.16938,21.005127 0.69317,-2.987305 1.62798,-5.342285 3.41455,-7.879443 1.59927,-2.271582 5.01758,-5.838575 7.95533,-6.157129 0.40742,-0.04443 0.58208,0.03042 0.89516,0.273437 0.40674,1.202783 -2.04565,5.484815 -2.60586,6.936426 q -2.04463,5.322119 -3.68628,10.782324 c -0.42519,1.411621 -0.71845,2.858447 -1.18022,4.258106 6.13354,5.939404 12.24453,16.666357 14.73349,24.817187 4.11592,-3.702685 8.62456,-7.298047 14.01094,-8.91167 4.78926,-1.435205 10.26895,-0.960107 14.66651,1.467676 5.81054,3.207764 9.48076,8.908936 11.24101,15.19561 2.24321,8.01171 1.29712,17.41113 -2.83179,24.6603 -3.21186,5.6393 -8.52065,10.45727 -14.86919,12.1813 -8.07905,2.19399 -14.61386,-0.20508 -21.58925,-4.16275 -0.009,2.92442 -0.0735,5.8813 0.0991,8.80025 0.19175,3.24775 0.67402,6.58882 0.53594,9.83759 -0.0687,1.61739 -0.41666,5.06236 -1.79512,6.09458 -0.37598,0.2813 -0.6959,0.31993 -1.14741,0.29566 -1.02539,-0.44878 -1.29986,-1.24517 -1.70249,-2.21314 -1.33643,4.27691 -3.08164,7.72666 -6.69102,10.52666 -1.08521,0.84185 -3.123,2.15845 -4.53018,1.79546 -0.37768,-0.0974 -0.69213,-0.31069 -0.85722,-0.67094 -0.48194,-1.05274 0.2331,-2.27569 0.6477,-3.22964 -4.9875,3.09975 -8.52304,4.4126 -14.14697,5.87378 0.88252,2.38164 2.30474,4.72431 3.56768,6.92549 3.04609,5.30844 6.43603,10.41181 9.59628,15.65224 13.96446,23.15606 29.08521,51.67901 29.12623,79.33311 1.74179,-1.81119 3.55878,-3.42105 5.75107,-4.671 1.38291,-0.78852 3.52051,-1.94175 5.13242,-1.42769 0.73589,0.23448 1.01787,0.88492 1.32583,1.52818 l 0.14321,0.30454 c 1.96978,-0.22183 3.62955,-1.64404 5.70289,-1.38838 q 0.19174,0.0222 0.37973,0.0646 0.18833,0.0424 0.37119,0.10425 0.18252,0.0619 0.35786,0.14253 0.175,0.081 0.34078,0.17978 0.16577,0.0988 0.31992,0.21465 0.15449,0.11553 0.29565,0.24712 0.14151,0.13125 0.26831,0.27686 0.12647,0.1456 0.23721,0.30351 c 1.45503,2.09214 1.0688,5.74082 0.57148,8.11323 -1.78588,8.51827 -7.21464,13.85679 -14.23105,18.41329 0.40776,0.25224 0.78989,0.47168 1.05786,0.88627 0.33257,0.51441 0.43613,1.16553 0.2437,1.74419 -0.39204,1.17784 -2.32456,2.20767 -3.40942,2.72242 -5.14883,2.44316 -11.39175,2.48759 -16.70327,0.60429 -2.48931,1.99405 -5.06612,3.96485 -7.80972,5.59795 -7.44229,4.43003 -15.6437,7.1709 -23.96201,9.42197 q -4.69971,1.25508 -9.44829,2.31089 -4.74859,1.05581 -9.53716,1.91065 -4.78892,0.85483 -9.60928,1.50698 -4.8207,0.65249 -9.66431,1.10093 c -7.16679,0.70718 -14.32846,1.0811 -21.50278,1.61465 -5.45918,0.40605 -6.59565,3.06762 -13.02075,1.43759 -6.44219,-1.6102 -11.02295,-8.2978 -13.6541,-13.9518 -0.71436,-1.53535 -1.07632,-3.2669 -1.93115,-4.72808 -0.75367,-1.28857 -2.08086,-2.50469 -3.06968,-3.62612 -4.6105,-0.0834 -10.00611,0.54824 -14.54859,1.37129 -3.99902,0.72461 -11.10156,3.78095 -14.89243,2.76855 -5.19292,-1.38667 -9.06479,-7.13603 -11.58315,-11.48984 -4.846,-8.37744 -8.62832,-19.48823 -5.98076,-29.08452 0.95361,-3.45489 2.65029,-6.46817 5.88574,-8.23936 2.59082,-1.41846 5.45234,-1.4082 8.23252,-0.62309 4.94614,1.39726 8.13989,5.33169 10.52358,9.64755 4.22666,-2.9791 8.53228,-5.67314 13.38648,-7.52944 q 2.15708,-0.81963 4.39277,-1.39043 c 0.98882,-0.24848 2.09658,-0.41152 3.04575,-0.7728 0.39307,-0.14937 0.60703,-0.35274 0.84287,-0.69111 0.039,-0.39922 0.066,-0.43443 -0.13979,-0.77178 -2.80923,-1.57671 -10.01704,-2.40933 -13.31948,-2.9145 q -8.72745,-1.41265 -17.48975,-2.58946 c -3.58647,-0.48706 -7.26455,-0.78134 -10.81309,-1.48374 q -0.0383,-0.24609 -0.079,-0.4915 c -0.73316,-4.39483 -2.24732,-8.83716 -3.7044,-13.04092 q -0.95634,-2.74668 -2.03027,-5.44927 -1.07392,-2.70293 -2.26304,-5.35732 -1.18911,-2.65405 -2.49135,-5.25444 -1.30225,-2.60074 -2.71524,-5.14268 -1.41299,-2.54194 -2.93398,-5.021 -1.52134,-2.47871 -3.14761,-4.88974 -1.62627,-2.41138 -3.35508,-4.74995 -1.72881,-2.33892 -3.55639,-4.60127 c -2.04839,-2.58535 -4.26836,-5.05176 -6.42271,-7.54927 -4.04414,-4.68843 -9.984912,-11.11626 -14.95498,-14.67471 0.773486,-1.42768 1.792041,-2.67524 2.891602,-3.86401 1.136816,-1.22944 2.570996,-2.82769 4.120361,-3.5311 3.248437,-1.47486 17.358837,-1.86553 21.842527,-2.02994 0.51441,-1.43213 1.03701,-2.83999 1.86143,-4.12788 1.34018,-2.09384 3.34653,-3.66611 5.82114,-4.15351 2.61133,-0.51441 6.16704,0.19721 8.3812,1.65874 1.80366,-0.66958 3.5376,-0.91636 5.44278,-0.64224 2.39086,0.34385 4.73935,1.57979 6.17319,3.55947 1.11802,1.5439 1.15732,2.78291 0.89038,4.57564 1.22397,0.0123 3.95391,-0.27515 5.01211,0.32334 0.37222,0.2102 4.8501,7.41221 6.56626,8.76777 0.76597,0.60532 1.81904,0.96968 2.73164,1.3002 15.82109,5.73364 27.73032,0.4604 41.89131,-6.06621 2.23979,-1.03257 4.57632,-1.82862 6.80449,-2.87622 -2.55459,-1.28619 -5.27837,-2.27295 -7.84663,-3.56495 -6.5936,-3.31679 -12.5648,-8.08247 -17.73003,-13.33383 -3.92759,-3.9939 -7.26045,-8.12862 -10.49146,-12.68921 -7.39716,-10.44121 -11.51171,-19.30879 -11.33432,-32.39278 0.0728,-5.36997 1.87715,-11.17607 5.77226,-14.992233 -0.82236,0.237891 -1.74589,0.584473 -2.60004,0.639844 -0.55918,0.03657 -1.00489,-0.04888 -1.44136,-0.41289 -0.0878,-0.288135 -0.16338,-0.395118 -0.095,-0.7 0.2748,-1.227735 1.8727,-2.402491 2.89433,-3.067627 3.91597,-2.550147 13.81441,-4.413965 18.31348,-3.441895 3.19307,-3.455566 6.79937,-6.481494 9.83179,-10.103174 2.01592,-2.407617 3.54546,-5.158056 5.37441,-7.704101 4.33057,-6.028272 9.598,-12.063037 17.30552,-13.337256 -1.67446,-1.766406 -2.60142,-4.192481 -2.80547,-6.604883 -0.31103,-3.679102 1.1457,-7.230713 3.50376,-10.008154 4.61187,-5.431802 12.34399,-7.787603 19.2083,-8.361958 z"
     id="path40"
     style="fill:url(#gradient_3);stroke-width:0.341797" />
  <path
     fill="#636063"
     d="m 182.85654,231.53081 c 0.70752,0.17261 1.54698,0.0813 2.19502,0.39512 l -0.20063,0.20576 c -0.28916,0.17534 -0.58413,0.33701 -0.88047,0.49902 -0.58379,-0.15551 -0.76152,-0.62241 -1.11392,-1.0999 z"
     id="path41"
     style="stroke-width:0.341797" />
  <path
     fill="#636063"
     d="m 291.46729,306.75791 c 0.38793,0.0978 0.59267,0.26523 0.91157,0.49253 0.15688,0.33804 0.15996,0.33086 0.0612,0.6894 l 0.1063,-0.12065 c -0.36094,0.59131 -0.65454,0.65933 -1.26157,0.96934 l -0.26797,-0.175 -0.0369,-0.32642 c 0.27891,-0.24678 0.46861,-0.43682 0.64942,-0.76392 -0.33804,0.16372 -0.59644,0.39615 -0.96592,0.28814 l -0.0396,-0.19722 q 0.41665,-0.4334 0.84356,-0.8562 z"
     id="path42"
     style="stroke-width:0.341797" />
  <path
     fill="#636063"
     d="m 282.93262,311.05122 c 0.026,-0.003 0.0526,-0.002 0.0776,-0.008 0.8832,-0.23413 1.45161,-0.0444 2.275,0.35 l 0.0567,0.28608 0.0725,-0.0793 c -0.30454,0.50791 -0.79502,0.59063 -1.32924,0.82476 -0.31582,0.15347 -0.45562,0.22183 -0.81416,0.24609 -0.0841,-0.40297 -0.11861,-0.47646 0.0253,-0.85517 -0.37871,-0.002 -0.24678,-0.0338 -0.58106,0.0793 -0.0738,0.0249 -0.14663,0.0543 -0.21977,0.0813 l -0.23926,-0.16987 -0.0168,-0.26489 c 0.22696,-0.18047 0.45015,-0.33291 0.69317,-0.49014 z"
     id="path43"
     style="stroke-width:0.341797" />
  <path
     fill="#636063"
     d="m 274.76128,260.53467 q 4.4314,-0.0461 8.82554,0.5291 l 0.23379,0.24917 0.20781,-0.14048 -0.0133,0.0943 c -0.498,0.0602 -0.79092,-0.0878 -1.25781,-0.13365 -0.51749,-0.0509 -0.61045,0.0803 -1.02916,0.36573 -1.90688,-1.16861 -4.36508,-0.65489 -6.48354,-0.46758 -1.48135,-0.8398 -2.31602,0.17842 -3.7085,0.30864 -0.67299,0.0625 -1.3624,-0.11484 -2.033,-0.13877 -0.63643,-0.0229 -1.32037,0.0793 -1.96158,0.10254 -2.19604,0.68052 -5.0685,0.36777 -7.10014,1.38906 -0.18902,0.095 -0.20747,0.11553 -0.42383,0.19107 -0.59507,0.20781 -1.54424,0.53012 -2.10068,0.24507 l 0.0892,0.20918 -0.13569,-0.0386 c 0.18628,-0.0649 0.37495,-0.12509 0.55645,-0.202 2.76411,-1.1751 5.63965,-0.96865 8.43862,-1.8105 2.43804,-0.73349 5.35767,-0.38554 7.89585,-0.75229 z"
     id="path44"
     style="stroke-width:0.341797" />
  <path
     fill="#fefffe"
     d="m 184.47017,220.96929 0.1726,0.0342 c 0.28848,0.59677 -0.25395,3.5229 -0.31753,4.44301 -1.31523,-0.0342 -2.46298,0.24473 -3.74951,0.4293 l -0.18388,-0.17568 -1.15186,-3.43814 c 1.86313,-0.1873 3.47061,-0.6583 5.23018,-1.29267 z"
     id="path45"
     style="stroke-width:0.341797" />
  <path
     fill="#636063"
     d="m 123.82207,161.83843 0.19619,-0.0243 0.0639,0.17603 q -0.46724,0.45971 -0.9167,0.93686 c -1.9961,2.1147 -3.94434,5.13345 -4.13848,8.13853 -0.0759,1.17783 0.0219,2.41069 0.0561,3.59194 -0.22491,0.42519 -0.619,0.41904 -1.06402,0.55918 -0.38999,-0.22422 -0.59609,-0.47066 -0.71162,-0.91602 -0.66001,-2.55288 0.34043,-6.28906 1.68711,-8.51689 1.15049,-1.90381 2.61885,-3.38926 4.82754,-3.94536 z"
     id="path46"
     style="stroke-width:0.341797" />
  <path
     fill="#636063"
     d="m 277.65356,312.4061 c 0.58003,0.20884 1.47998,0.65284 2.08702,0.52295 0.12578,-0.29223 0.15141,-0.3729 0.40981,-0.57593 0.4334,0.38418 0.77212,0.75879 1.11973,1.22159 -0.66275,0.67641 -10.08267,3.35849 -11.65288,3.77788 -0.79947,0.13296 -1.9397,0.77109 -2.71079,0.58618 0.25087,-0.35718 0.32846,-0.32642 0.71743,-0.48125 -0.28335,0.22353 -0.32368,0.37529 -0.69659,0.33325 -0.0933,-0.49731 0.20201,-0.97959 0.4023,-1.42119 1.40718,-1.07769 3.36055,-0.98472 4.99092,-1.53604 2.00259,-0.67675 3.00063,-1.97182 5.33305,-2.42744 z"
     id="path47"
     style="stroke-width:0.341797" />
  <path
     fill="#fefffe"
     d="m 268.15435,42.676758 c 0.0995,0.05503 0.20302,0.102881 0.29838,0.165088 3.12369,2.037109 8.79341,16.302685 9.61475,20.247705 -2.29038,-2.43291 -9.37241,-17.082666 -9.91313,-20.412793 z"
     id="path48"
     style="stroke-width:0.341797" />
  <path
     fill="#f2ec90"
     d="m 185.42583,251.59531 c 0.59233,0.38384 1.26226,3.74746 1.77017,4.70757 -1.00523,1.72573 -2.60621,3.85479 -4.06602,5.22163 l -0.26763,-0.0906 c -0.67812,-3.02046 -1.68266,-5.95752 -2.34609,-8.98345 1.70659,-0.0916 3.26929,-0.37598 4.90957,-0.85518 z"
     id="path49"
     style="stroke-width:0.341797" />
  <path
     fill="#f2ec90"
     d="m 144.25366,170.73608 c 1.50391,0.23482 3.04507,0.31719 4.56162,0.44947 -1.57295,1.66865 -2.8687,3.57998 -4.19248,5.4455 -1.45674,-0.52705 -2.91689,-0.73315 -4.44609,-0.93481 -1.75889,-0.19482 -3.5834,-0.31103 -5.3522,-0.25395 l 1.9544,-1.79786 c 2.87588,-0.41084 5.02544,-1.3706 7.47475,-2.90835 z"
     id="path50"
     style="stroke-width:0.341797" />
  <path
     fill="#636063"
     d="m 211.43145,66.539648 c 1.13852,-0.136718 2.8,-0.179443 3.73276,0.569434 0.65591,0.526367 1.00693,1.26123 1.0999,2.089404 0.57593,5.126953 -6.42646,14.769727 -9.50742,18.817969 -0.6853,0.900293 -4.2834,5.454053 -5.1273,5.567871 0.45665,-0.588916 0.95293,-1.085888 1.46802,-1.619775 4.73799,-4.912305 11.35039,-14.27002 12.7709,-20.864307 0.19995,-0.92832 0.16167,-1.882275 0.14731,-2.826318 l -0.17021,-0.171582 c -0.054,-0.05469 -0.10664,-0.110742 -0.16064,-0.165088 -0.95601,-0.963184 -2.04156,-1.239014 -3.38619,-1.225684 -3.65756,0.03691 -8.37983,1.87544 -10.98022,4.467627 -1.05479,1.043848 -2.39429,2.731983 -3.06763,4.062598 -0.23174,0.458008 -0.37837,0.906103 -0.21567,1.41333 l 0.34077,0.0099 c 0.60908,-0.371533 1.22603,-0.720166 1.73701,-1.224316 0.25772,-0.254297 0.4669,-0.433741 0.79058,-0.610791 0.24131,0.05947 0.46108,0.114843 0.70923,0.136718 0.12099,-0.06357 0.53081,-0.202343 0.52944,-0.359912 -0.003,-0.331201 -0.0738,-0.461767 -0.013,-0.81792 0.79194,-0.276855 1.57569,-0.303173 2.36626,0.01401 1.16074,0.465869 2.01489,1.513135 2.50161,2.637305 0.5438,1.256787 0.88628,2.634228 0.32813,3.922119 -0.0297,0.0687 -0.0622,0.136377 -0.0933,0.204394 0.16816,0.449463 0.28027,0.812793 0.33701,1.294385 -0.50552,0.473047 -1.00693,0.79126 -1.60747,1.132373 l -0.28164,-0.354785 c -0.23003,0.156543 -0.26626,1.882959 -0.51646,2.352246 -1.02949,1.929443 -1.15732,4.302881 -2.46401,6.136963 -0.2396,0.335986 -0.4252,0.645654 -0.60156,1.01958 -0.0998,0.211914 -0.0133,0.1104 -0.28233,0.248145 0.32266,-0.984375 0.98711,-1.935596 1.43316,-2.881348 1.39897,-2.966455 2.78632,-7.055029 1.78247,-10.301758 -0.44742,-1.44751 -1.2315,-2.471191 -2.56109,-3.181787 l -0.20234,-0.105615 c -2.67114,0.108691 -4.43174,1.170996 -6.66607,2.505371 1.51861,-1.840576 2.73506,-3.924512 4.18018,-5.823193 2.89092,-3.797364 7.03008,-5.420899 11.64981,-6.067579 z"
     id="path51"
     style="stroke-width:0.341797" />
  <path
     fill="#636063"
     d="m 126.35034,161.85791 q 1.0001,-0.0373 1.99917,0.0181 c 0.94199,0.0571 2.80445,0.19174 3.44087,0.92148 -0.10664,0.37427 -0.17329,0.32573 -0.48125,0.52227 -3.72183,2.37685 -6.03032,6.54882 -6.95454,10.78403 -0.0277,0.10083 -0.0496,0.20371 -0.0834,0.30249 -0.13125,0.38179 -0.23242,0.55063 -0.63198,0.68804 -0.62993,0.21635 -1.73052,0.13671 -2.34678,-0.11451 -0.54995,-0.22421 -0.90508,-0.59233 -1.11426,-1.14433 -0.6812,-1.79717 0.39204,-4.98545 1.15596,-6.67632 1.03394,-2.28799 2.6103,-4.38936 5.01621,-5.30127 z"
     id="path52"
     style="stroke-width:0.341797" />
  <path
     fill="#636063"
     d="m 249.03081,266.42759 0.36538,0.0147 c -0.23686,0.2895 -5.44995,2.78872 -6.16123,3.14487 -6.49551,3.25185 -16.30542,11.65185 -21.14116,17.05942 -1.41846,1.58594 -7.9919,9.11162 -7.84971,10.69278 0.0321,0.35341 -0.0202,0.23071 0.25464,0.44536 0.33086,-0.10118 0.66104,-0.19551 0.99634,-0.28096 l 0.0731,0.22627 c -0.13979,0.38965 -0.45288,0.77383 -0.67881,1.12417 0.005,0.0526 0.0137,0.10493 0.014,0.15757 0.005,0.56362 -0.2273,0.95224 -0.57969,1.36719 l -0.23276,-0.0643 -0.1128,-0.51953 c 0.41768,3.31884 0.7646,6.73681 0.55303,10.08574 -0.0738,1.1727 -0.83911,3.25835 -0.48467,4.28511 0.23892,0.69213 0.49151,0.98129 0.40196,1.77187 -0.0906,0.79844 -0.87329,1.13442 -1.4564,1.61157 l -0.0349,0.37119 0.41972,-0.50278 0.24234,0.10869 c 0.85039,1.26397 0.64326,2.61988 0.85278,4.07149 0.14834,1.02915 0.33325,1.53125 1.17886,2.14716 2.48794,1.81119 1.92534,0.43545 4.09541,0.96968 0.0776,0.0191 0.15381,0.0417 0.23105,0.0625 l -0.26045,-0.0947 0.23174,0.0612 -0.0171,0.12065 c -0.72632,0.40845 -1.59277,0.43066 -2.3102,0.8856 0.41323,0.11928 0.47475,0.20781 0.76152,0.49834 l 0.10527,0.108 c 0.40401,0.0233 0.66856,-0.17021 1.01377,-0.35512 l -0.0516,-0.42315 0.11006,-0.13569 0.57559,0.10561 -0.002,0.36846 c 0.3059,0.16714 0.79809,0.20064 1.14604,0.15894 0.57935,-0.0697 0.6648,-0.26045 0.97959,-0.70752 l 0.12749,-0.18355 0.38555,-0.0191 -0.33633,0.46826 0.12646,0.25191 c 1.74761,-0.26455 3.50581,-0.49493 5.24932,-0.78135 0.35513,-0.0584 1.454,-0.0772 1.71138,-0.22149 0.5144,-0.28881 0.53423,-1.03359 1.20278,-1.28857 l 0.17979,0.1897 c 0.0304,0.43271 0.11894,0.48501 -0.14664,0.85176 -0.23071,0.0458 -0.45527,0.0694 -0.68872,0.0933 l 0.22696,-0.10152 -0.24302,0.0188 0.48638,-0.1251 -0.40845,0.14219 1.77085,-0.10561 0.10049,-0.17056 -0.46929,-0.22422 c 0.0287,-0.0776 0.12612,-0.3312 0.13364,-0.40469 0.0735,-0.73008 -0.12202,0.11211 0.055,-0.55542 q 0.98438,-0.18457 1.96465,-0.39067 c 0.48193,-0.10357 0.85381,-0.19961 1.34907,-0.0984 0.56328,0.11519 0.76529,0.11655 1.07222,0.59234 -0.15313,0.31206 -0.067,0.19209 -0.31958,0.46313 -0.0615,0.0663 -0.12544,0.13023 -0.18799,0.19517 l 0.0479,0.0854 0.42827,0.0485 c 0.36504,-0.16543 0.47339,-0.44023 0.65831,-0.77451 l 0.082,-0.15142 c 0.3541,-0.0725 0.56089,-0.0813 0.91294,0.002 l -0.15928,0.41904 c 0.86201,0.24951 1.82246,-0.25874 2.72822,-0.11279 -4.98716,0.9396 -10.0813,1.50698 -15.11323,2.18374 -5.60752,0.75434 -11.22085,1.60131 -16.85059,2.1663 l -0.0998,-0.0926 -0.46348,0.13159 c 0.39204,-1.01069 1.37949,-2.01763 1.97354,-2.94868 0.4334,-0.67847 0.72734,-1.47656 1.06367,-2.20869 2.78223,-6.0563 4.1019,-12.40176 3.40737,-19.07227 -0.19858,-1.90757 -0.61968,-3.77822 -0.87226,-5.6769 6.82431,-11.2376 16.88032,-20.76211 28.12099,-27.55635 2.4565,-1.48477 5.06851,-2.5874 7.56465,-3.97954 z"
     id="path53"
     style="stroke-width:0.341797" />
  <path
     fill="#587D82"
     d="m 186.84224,87.913574 c 0.67436,-0.308642 1.34565,-0.59165 2.0436,-0.843554 -0.0704,0.06802 -0.1398,0.136718 -0.21089,0.20371 -0.26011,0.245411 -1.30293,1.124512 -1.61499,1.121094 0.41323,-0.182178 0.66616,-0.219092 1.11358,-0.239258 0.36264,-0.01641 0.72221,-0.05503 1.08588,-0.05366 1.11802,0.02051 2.39976,-0.0027 3.26143,0.834326 0.48159,0.467579 0.64394,1.111524 0.61694,1.767774 -0.0338,0.812793 -0.23447,1.711035 -0.49048,2.48042 -0.79365,1.997461 -2.58466,4.480273 -4.58794,5.386035 -0.88217,0.399219 -1.80502,0.415283 -2.70019,0.04341 -0.86099,-0.357519 -1.53091,-1.027783 -1.86279,-1.900732 -0.62036,-1.631055 -0.0759,-3.25835 0.57832,-4.771143 l -0.3565,-0.289502 c 0.48535,-0.887304 1.34976,-1.717529 1.64029,-2.671826 0.52944,-0.219775 1.03598,-0.706836 1.48374,-1.06709 z"
     id="path54"
     style="fill:#0eb5cc;fill-opacity:1;stroke-width:0.341797" />
  <path
     fill="#fefffe"
     d="m 188.50029,89.299219 c 0.72803,-0.484326 1.28687,-0.783399 2.17657,-0.675049 0.46074,0.320605 0.64633,0.523975 0.73076,1.093066 0.17636,1.191162 -0.21773,1.664551 -0.72803,2.66875 -0.30522,0.144239 -0.59199,0.284375 -0.92559,0.350342 -0.54653,0.107666 -1.07973,0.132276 -1.55449,-0.204053 -0.29599,-0.209863 -0.44194,-0.586523 -0.49697,-0.936865 -0.16065,-1.019922 0.21909,-1.50664 0.79775,-2.296191 z"
     id="path55"
     style="stroke-width:0.341797" />
  <path
     fill="#3d3b3d"
     d="m 186.84224,87.913574 c 0.67436,-0.308642 1.34565,-0.59165 2.0436,-0.843554 -0.0704,0.06802 -0.1398,0.136718 -0.21089,0.20371 -0.26011,0.245411 -1.30293,1.124512 -1.61499,1.121094 0.41323,-0.182178 0.66616,-0.219092 1.11358,-0.239258 0.36264,-0.01641 0.72221,-0.05503 1.08588,-0.05366 -0.41801,0.281299 -0.85688,0.44502 -1.03803,0.924561 l 0.2789,0.272754 c -0.57866,0.789551 -0.9584,1.276269 -0.79775,2.296191 0.055,0.350342 0.20098,0.727002 0.49697,0.936865 0.47476,0.336329 1.00796,0.311719 1.55449,0.204053 0.3336,-0.06597 0.62037,-0.206103 0.92559,-0.350342 -0.0359,0.270362 -0.005,0.194825 -0.10356,0.416309 -0.80904,1.81665 -1.9691,3.912549 -3.96485,4.607422 -0.60293,0.209863 -1.28208,0.223877 -1.85903,-0.07656 -0.84527,-0.440234 -1.0336,-1.363427 -1.29131,-2.199121 0.49014,-2.444189 1.27046,-3.200928 2.41274,-5.219238 l -0.16372,-0.03931 c -0.65522,0.610449 -1.12793,1.335059 -1.63515,2.066504 l -0.3565,-0.289502 c 0.48535,-0.887304 1.34976,-1.717529 1.64029,-2.671826 0.52944,-0.219775 1.03598,-0.706836 1.48374,-1.06709 z"
     id="path56"
     style="stroke-width:0.341797" />
  <path
     fill="#e9a4c4"
     d="m 196.61421,156.35874 c 2.63047,-3.61382 6.07783,-5.40107 10.46992,-6.06895 2.54536,-0.38725 5.27256,-0.37426 7.69077,0.60191 -2.35361,3.33423 -5.81806,6.02554 -9.90288,6.74946 -2.9063,0.51543 -5.70527,-0.0796 -8.5104,-0.83398 z"
     id="path57"
     style="stroke-width:0.341797" />
  <path
     fill="#693a44"
     d="m 218.30669,141.66284 c 0.0239,0.005 0.0496,0.005 0.0714,0.0168 0.20577,0.10596 0.3917,0.18423 0.45665,0.41802 0.3312,1.19424 -2.38575,6.05254 -3.03003,7.3541 -3.39712,-0.57764 -6.18892,-1.17202 -9.62774,-0.48057 -4.05747,0.81587 -7.32949,2.39771 -9.64721,5.91275 -0.72325,-1.23286 -1.61944,-2.38916 -2.4459,-3.55572 -1.32515,-1.74316 -2.45035,-3.65073 -3.65894,-5.47627 1.82144,0.65079 3.67671,1.28789 5.57984,1.65088 2.11196,0.40298 4.25297,0.41084 6.39365,0.30557 6.65068,-0.3271 10.51299,-2.50845 15.90825,-6.14551 z"
     id="path58"
     style="stroke-width:0.341797" />
  <path
     fill="#f2ec90"
     d="m 113.21509,170.31465 c 1.01753,-0.0974 2.05864,-0.0896 3.08095,-0.11758 -0.1374,1.81187 -0.39545,3.69722 0.42212,5.38774 -7.57114,-0.55405 -16.853658,0.79024 -24.33525,2.10513 l -3.22998,0.71367 c 1.549707,-2.49272 3.915966,-4.658 6.088427,-6.61479 2.310206,-0.005 4.705518,-0.44536 7.009913,-0.67437 q 5.47353,-0.5144 10.96382,-0.7998 z"
     id="path59"
     style="stroke-width:0.341797" />
  <path
     fill="#636063"
     d="m 136.18008,163.25552 c 0.68667,-0.0345 1.37026,-0.0666 2.05591,0.0109 1.83305,0.20781 3.80146,1.07187 4.9205,2.5727 0.47339,0.63472 0.84493,1.30566 0.67027,2.12119 -0.54483,2.54605 -6.13662,3.1336 -7.98335,4.42969 -1.56509,1.09853 -2.77368,2.66943 -4.40303,3.796 -1.22056,0.84663 -3.59639,2.0894 -5.09687,1.77221 -0.47066,-0.0995 -0.62549,-0.27138 -0.90235,-0.6436 -0.26147,-2.86939 1.47656,-6.45005 3.02696,-8.77666 1.87407,-2.81265 4.38286,-4.62486 7.71196,-5.28247 z"
     id="path60"
     style="stroke-width:0.341797" />
  <path
     fill="#fefffe"
     d="m 186.84224,87.913574 c 2.98901,-3.108642 8.45673,-9.728564 13.04194,-9.840332 0.78511,-0.01914 1.55688,0.186963 2.12803,0.749561 1.1187,1.101269 1.19492,3.070361 1.14912,4.551367 -0.17671,5.711084 -3.15889,10.592969 -7.2666,14.385205 -1.43623,1.32583 -3.10352,2.611325 -4.84976,3.502395 l -2.9374,-1.585256 c 2.24219,-1.484082 4.25058,-3.391651 5.09175,-6.028955 l -0.55201,-0.463135 c 0.25601,-0.769385 0.45665,-1.667627 0.49048,-2.48042 0.027,-0.65625 -0.13535,-1.300195 -0.61694,-1.767774 -0.86167,-0.83706 -2.14341,-0.813818 -3.26143,-0.834326 -0.36367,-0.0014 -0.72324,0.03726 -1.08588,0.05366 -0.44742,0.02017 -0.70035,0.05708 -1.11358,0.239258 0.31206,0.0034 1.35488,-0.875683 1.61499,-1.121094 0.0711,-0.06699 0.14048,-0.135693 0.21089,-0.20371 -0.69795,0.251904 -1.36924,0.534912 -2.0436,0.843554 z"
     id="path61"
     style="stroke-width:0.341797" />
  <path
     fill="#2c2824"
     d="m 188.88584,87.07002 c 1.00215,-0.30625 2.22441,-0.497657 3.17734,0.06186 0.89004,0.522949 1.3812,1.567822 1.57535,2.54331 0.26215,1.315918 0.0509,2.733008 -0.43921,3.972364 l -0.55201,-0.463135 c 0.25601,-0.769385 0.45665,-1.667627 0.49048,-2.48042 0.027,-0.65625 -0.13535,-1.300195 -0.61694,-1.767774 -0.86167,-0.83706 -2.14341,-0.813818 -3.26143,-0.834326 -0.36367,-0.0014 -0.72324,0.03726 -1.08588,0.05366 -0.44742,0.02017 -0.70035,0.05708 -1.11358,0.239258 0.31206,0.0034 1.35488,-0.875683 1.61499,-1.121094 0.0711,-0.06699 0.14048,-0.135693 0.21089,-0.20371 z"
     id="path62"
     style="stroke-width:0.341797" />
  <path
     fill="#fefffe"
     d="m 206.56938,201.05586 q 3.0126,-0.066 6.01563,0.18252 3.00303,0.24883 5.96367,0.80903 c -2.45513,2.08633 -4.80669,4.30972 -7.24712,6.41861 q -8.09614,7.07143 -16.74668,13.45312 l -5.68921,4.30357 c -0.8309,-0.28165 -1.63276,-0.46929 -2.49238,-0.63199 1.0565,-7.54824 2.71729,-15.35317 5.34297,-22.51689 4.9564,-1.13237 9.773,-1.81289 14.85312,-2.01797 z"
     id="path63"
     style="stroke-width:0.341797" />
  <path
     fill="#fbf9d0"
     d="m 152.45713,234.12847 0.49287,-0.19825 0.41289,0.23038 c 0.23687,-0.11416 0.39751,-0.15415 0.66172,-0.12749 4.57256,0.46245 9.17588,1.36342 13.72895,2.03608 2.93775,0.43408 6.34512,0.5708 9.16495,1.46699 -0.51748,0.53696 -1.06675,1.0606 -1.53091,1.64404 -0.8104,0.73589 -1.41573,1.69976 -1.97388,2.63526 l -0.0489,0.33462 -0.25156,0.18696 c -0.39477,2.30679 -0.88559,4.55171 0.62515,6.61274 0.0667,0.0913 0.14868,0.17022 0.22285,0.25567 l 0.39512,0.57627 c 1.45981,1.18262 2.86494,1.9561 4.66211,2.52417 0.89687,2.71421 1.61362,5.49131 2.84511,8.08281 -5.65537,-1.94722 -11.14087,-3.11309 -17.02011,-4.14497 -1.4441,-0.25361 -3.16163,-0.74136 -4.60743,-0.71812 -0.43408,-0.0745 -0.51303,-0.0383 -0.79878,-0.36298 -2.09589,-7.11143 -4.20854,-14.148 -6.98017,-21.03418 z"
     id="path64"
     style="stroke-width:0.341797" />
  <path
     fill="#2f2327"
     d="m 162.78076,242.71885 c 0.0701,-1.13135 0.35376,-2.25552 1.077,-3.1565 0.67813,-0.84492 1.67105,-1.22807 2.73199,-1.28823 2.80068,-0.15859 4.91811,1.76607 6.82397,3.54136 l -0.0489,0.33462 -0.25156,0.18696 c -1.82554,-1.60644 -3.84453,-3.49897 -6.46885,-3.34141 -0.81894,0.0489 -1.57055,0.37735 -2.11845,0.99634 -0.73384,0.82886 -1.00215,1.81734 -1.15699,2.88443 -0.22114,-0.003 -0.38281,-0.0817 -0.58823,-0.15757 z"
     id="path65"
     style="stroke-width:0.341797" />
  <path
     fill="#2f2327"
     d="m 162.78076,242.71885 c 0.20542,0.0759 0.36709,0.15483 0.58823,0.15757 0.25943,2.70737 1.45332,4.94853 3.55093,6.68657 1.11768,0.92627 2.66978,1.86963 4.17403,1.74658 0.97548,-0.0796 1.70693,-0.56055 2.3102,-1.30669 0.20542,-0.2543 0.39272,-0.51475 0.55713,-0.79741 l 0.39512,0.57627 c -0.28711,0.5168 -0.5667,1.03325 -1.01753,1.42768 -0.7335,0.64224 -1.70762,0.90371 -2.66944,0.82442 -2.18203,-0.17979 -4.31723,-1.80196 -5.7039,-3.43062 -1.40205,-1.64643 -2.3772,-3.68047 -2.18477,-5.88437 z"
     id="path66"
     style="stroke-width:0.341797" />
  <path
     fill="#232112"
     d="m 152.45713,234.12847 0.49287,-0.19825 0.41289,0.23038 q 3.14453,7.79331 5.37954,15.89423 c 0.51304,1.80093 1.12383,3.6398 1.49365,5.4708 -0.43408,-0.0745 -0.51303,-0.0383 -0.79878,-0.36298 -2.09589,-7.11143 -4.20854,-14.148 -6.98017,-21.03418 z"
     id="path67"
     style="stroke-width:0.341797" />
  <path
     fill="#cd72ab"
     d="m 163.36899,242.87642 c 0.15484,-1.06709 0.42315,-2.05557 1.15699,-2.88443 0.5479,-0.61899 1.29951,-0.94746 2.11845,-0.99634 2.62432,-0.15756 4.64331,1.73497 6.46885,3.34141 -0.39477,2.30679 -0.88559,4.55171 0.62515,6.61274 0.0667,0.0913 0.14868,0.17022 0.22285,0.25567 -0.16441,0.28266 -0.35171,0.54311 -0.55713,0.79741 -0.60327,0.74614 -1.33472,1.22705 -2.3102,1.30669 -1.50425,0.12305 -3.05635,-0.82031 -4.17403,-1.74658 -2.09761,-1.73804 -3.2915,-3.9792 -3.55093,-6.68657 z"
     id="path68"
     style="stroke-width:0.341797" />
  <path
     fill="#fefffe"
     d="m 322.80527,273.30728 0.11348,0.19858 c -0.75024,1.28857 -2.66123,2.42778 -3.72661,3.55195 -1.98652,2.0959 -3.67261,4.39961 -5.22881,6.82398 4.09609,-3.81241 8.14194,-7.39512 13.49346,-9.36045 1.15049,-0.42246 2.57612,-0.83843 3.74643,-0.30352 0.25738,0.28096 0.41597,0.50484 0.53115,0.87329 1.00215,3.20025 -0.55849,8.00215 -1.99199,10.8794 -3.64936,7.3247 -10.43369,12.26504 -18.06601,14.83569 -1.93491,0.55303 -3.83736,0.93482 -5.84165,1.13135 3.04677,0.61797 5.93393,0.49424 8.95542,-0.19688 1.15288,-0.26386 2.35361,-0.63574 3.52392,-0.77246 0.38999,-0.0458 0.52774,-0.0492 0.84082,0.21226 -0.12236,0.30044 -0.10561,0.31821 -0.37973,0.55166 -4.09097,3.48223 -11.8607,3.62851 -16.90801,3.23306 1.5979,-1.8211 3.30552,-3.65245 4.69526,-5.63794 4.13369,-5.90489 5.59112,-13.10996 6.40459,-20.13423 2.75967,-2.51597 6.24155,-4.80703 9.83828,-5.88574 z"
     id="path69"
     style="stroke-width:0.341797" />
  <path
     fill="#fbf9d0"
     d="m 130.42832,231.8562 q 7.60772,0.38247 15.18057,1.20449 c 2.18134,0.2232 4.49565,0.32163 6.62607,0.8128 l 0.22217,0.25498 c 2.77163,6.88618 4.88428,13.92275 6.98017,21.03418 -0.32368,0.10493 -0.59096,0.0943 -0.92421,0.0537 -2.85162,-0.34761 -5.69024,-0.89859 -8.53809,-1.29404 -4.19453,-0.58243 -8.41709,-1.00284 -12.62598,-1.47144 -1.07392,-4.47651 -2.55117,-8.89526 -4.15522,-13.20703 -0.37393,-1.00591 -2.93125,-6.78877 -2.76548,-7.3876 z"
     id="path70"
     style="stroke-width:0.341797" />
  <path
     d="m 148.01069,240.51562 0.3565,-0.54311 c 1.85117,1.60371 3.31474,3.89272 3.46924,6.39399 0.0735,1.18433 -0.21089,2.49341 -1.01788,3.4002 -0.62651,0.7041 -1.47861,1.07427 -2.41445,1.1187 q -0.38862,0.0154 -0.77656,-0.014 -0.38794,-0.0291 -0.76973,-0.10254 -0.38178,-0.0738 -0.75298,-0.19038 -0.37085,-0.1169 -0.72597,-0.27549 c 0.20405,-0.15313 0.47031,-0.2707 0.69248,-0.39102 0.56738,0.16065 1.13408,0.31206 1.72607,0.33838 0.87534,0.039 1.84365,-0.16714 2.47837,-0.80835 0.67163,-0.67846 0.89824,-1.71274 0.90098,-2.63799 0.006,-2.50161 -1.47725,-4.59819 -3.16607,-6.28838 z"
     id="path71"
     style="stroke-width:0.341797" />
  <path
     fill="#232112"
     d="m 145.37886,250.30298 c -0.87842,-0.24746 -1.79649,-0.83159 -2.51289,-1.39829 -1.8939,-1.49878 -3.32056,-3.9416 -3.53555,-6.36289 -0.11108,-1.24961 0.12817,-2.62193 1.00693,-3.5687 0.76836,-0.82784 1.87954,-1.13648 2.98286,-1.117 1.83853,0.0325 3.76421,0.77862 5.04698,2.11641 l -0.3565,0.54311 c -1.39419,-1.08588 -3.22041,-2.29755 -5.07705,-2.04667 q -0.15962,0.0215 -0.3165,0.0591 -0.15654,0.0379 -0.30864,0.0913 -0.15176,0.0537 -0.29771,0.12236 -0.1456,0.069 -0.28335,0.15244 -0.13808,0.0834 -0.2666,0.18047 -0.12886,0.0971 -0.24678,0.20679 -0.11792,0.10971 -0.22422,0.23105 -0.10595,0.121 -0.19926,0.25259 c -0.76597,1.06401 -0.86236,2.45 -0.59234,3.69756 0.52671,2.43496 2.21963,4.44643 4.31963,5.71142 0.48911,0.29463 1.02915,0.5168 1.55347,0.73794 -0.22217,0.12032 -0.48843,0.23789 -0.69248,0.39102 z"
     id="path72"
     style="stroke-width:0.341797" />
  <path
     fill="#54c7ce"
     d="m 146.07134,249.91196 c -0.52432,-0.22114 -1.06436,-0.44331 -1.55347,-0.73794 -2.1,-1.26499 -3.79292,-3.27646 -4.31963,-5.71142 -0.27002,-1.24756 -0.17363,-2.63355 0.59234,-3.69756 q 0.0933,-0.13159 0.19926,-0.25259 0.1063,-0.12134 0.22422,-0.23105 0.11792,-0.10972 0.24678,-0.20679 0.12852,-0.0971 0.26626,-0.18047 0.13809,-0.0834 0.28369,-0.15244 0.14595,-0.0687 0.29771,-0.12236 0.1521,-0.0533 0.30864,-0.0913 0.15688,-0.0376 0.3165,-0.0591 c 1.85664,-0.25088 3.68286,0.96079 5.07705,2.04667 1.68882,1.69019 3.17256,3.78677 3.16607,6.28838 -0.003,0.92525 -0.22935,1.95953 -0.90098,2.63799 -0.63472,0.64121 -1.60303,0.84732 -2.47837,0.80835 -0.59199,-0.0263 -1.15869,-0.17773 -1.72607,-0.33838 z"
     id="path73"
     style="stroke-width:0.341797" />
  <path
     fill="#fbf9d0"
     d="m 90.76792,178.83188 c 6.792187,-1.19047 18.88394,-2.23706 25.77935,-1.85732 0.94882,0.052 1.32788,0.0919 1.98344,0.81484 5.3604,5.87959 10.49898,11.73389 14.88081,18.40713 -5.94658,0.10152 -18.85009,0.0595 -24.02422,1.78555 -1.94379,-1.7876 -3.5499,-4.22734 -5.29819,-6.23369 -4.05405,-4.6522 -8.43828,-9.13042 -13.32119,-12.91651 z"
     id="path74"
     style="stroke-width:0.341797" />
  <path
     fill="#2c2824"
     d="m 119.36641,189.1856 0.87807,0.1644 c 0.19517,1.37334 0.36641,2.76616 -0.54961,3.94399 -0.32881,0.42247 -0.7916,0.76665 -1.27319,0.99224 0.12852,-0.27412 0.30215,-0.51611 0.46758,-0.76938 -0.35684,0.13535 -0.23482,0.11928 -0.56636,0.14834 -0.069,0.006 -0.13843,0.008 -0.20781,0.0123 0.42519,-0.39785 0.84902,-0.79399 1.14844,-1.29917 0.62617,-1.05649 0.3811,-2.06582 0.10288,-3.19272 z"
     id="path75"
     style="stroke-width:0.341797" />
  <path
     fill="#232112"
     d="m 110.28281,192.66885 c -1.87236,-1.18228 -3.44975,-2.86768 -4.37295,-4.89146 -0.57968,-1.2708 -0.99087,-2.90493 -0.41289,-4.25024 0.36846,-0.85723 1.12349,-1.40034 1.97764,-1.71753 2.07778,-0.77109 4.35825,-0.26626 6.30478,0.63779 3.07242,1.42666 5.29068,3.72183 6.46509,6.90259 l -0.87807,-0.1644 q -0.1063,-0.26011 -0.22559,-0.51475 -0.11895,-0.25464 -0.2502,-0.50313 -0.13124,-0.24848 -0.2748,-0.49013 -0.14321,-0.24199 -0.29805,-0.47647 -0.15483,-0.23447 -0.32094,-0.46108 -0.16646,-0.22661 -0.34317,-0.44502 -0.17705,-0.21841 -0.3647,-0.42759 -0.18764,-0.20952 -0.38486,-0.40947 -0.19756,-0.19995 -0.40469,-0.38999 -0.20678,-0.19038 -0.4228,-0.37017 -0.21601,-0.17978 -0.44057,-0.34863 -0.22457,-0.16919 -0.45733,-0.3271 -0.23242,-0.15791 -0.47236,-0.3042 -0.23994,-0.14629 -0.48672,-0.28061 -0.24678,-0.13467 -0.50005,-0.25669 -0.25293,-0.12237 -0.51167,-0.23208 c -1.59551,-0.6795 -3.6145,-1.13887 -5.26948,-0.43955 -0.83125,0.35102 -1.54458,1.00488 -1.83101,1.87543 -0.39067,1.18672 0.0485,2.44214 0.62583,3.48633 1.05342,1.90552 2.71421,3.35816 4.54453,4.49258 2.58194,1.38599 3.88623,1.76983 6.83731,1.31421 0.0694,-0.004 0.13877,-0.006 0.20781,-0.0123 0.33154,-0.0291 0.20952,-0.013 0.56636,-0.14834 -0.16543,0.25327 -0.33906,0.49526 -0.46758,0.76938 -0.22935,0.10596 -0.45493,0.19482 -0.70068,0.25601 -2.60689,0.64907 -5.25889,-0.54175 -7.43819,-1.87339 z"
     id="path76"
     style="stroke-width:0.341797" />
  <path
     fill="#f2ec90"
     d="m 111.27778,192.36328 c -1.83032,-1.13442 -3.49111,-2.58706 -4.54453,-4.49258 -0.57729,-1.04419 -1.0165,-2.29961 -0.62583,-3.48633 0.28643,-0.87055 0.99976,-1.52441 1.83101,-1.87543 1.65498,-0.69932 3.67397,-0.23995 5.26948,0.43955 q 0.25874,0.10971 0.51167,0.23208 0.25327,0.12202 0.50005,0.25669 0.24678,0.13432 0.48672,0.28061 0.23994,0.14629 0.47236,0.3042 0.23276,0.15791 0.45733,0.3271 0.22456,0.16885 0.44057,0.34863 0.21602,0.17979 0.4228,0.37017 0.20713,0.19004 0.40469,0.38999 0.19722,0.19995 0.38486,0.40947 0.18765,0.20918 0.3647,0.42759 0.17671,0.21841 0.34317,0.44502 0.16611,0.22661 0.32094,0.46108 0.15484,0.23448 0.29805,0.47647 0.14356,0.24165 0.2748,0.49013 0.13125,0.24849 0.2502,0.50313 0.11929,0.25464 0.22559,0.51475 c 0.27822,1.1269 0.52329,2.13623 -0.10288,3.19272 -0.29942,0.50518 -0.72325,0.90132 -1.14844,1.29917 -2.95108,0.45562 -4.25537,0.0718 -6.83731,-1.31421 z"
     id="path77"
     style="stroke-width:0.341797" />
  <path
     fill="#636063"
     d="m 236.30674,33.228604 q 0.87637,-0.05322 1.75444,-0.06416 c 6.08467,-0.03432 12.88574,1.531353 17.29595,5.98565 2.72993,2.757275 3.96963,5.898388 3.93271,9.763769 -3.13427,-1.502539 -7.10937,-2.747363 -10.61245,-2.698144 -0.8063,0.01128 -1.75307,0.131591 -2.31567,0.774511 -0.24268,0.277198 -0.32334,0.562256 -0.27583,0.935157 0.31582,2.475293 4.95195,5.055517 6.81372,6.542675 -2.47119,-0.712646 -5.05552,-1.242089 -7.61968,-1.461865 -4.16377,-0.530127 -8.67959,-0.425537 -12.78149,0.46416 -1.15972,0.251905 -2.21382,0.852784 -3.37149,1.093067 -2.77299,0.575586 -5.57436,0.738965 -8.01889,2.327295 -1.06231,-0.423487 -2.01729,-0.655567 -3.16641,-0.670264 -1.20791,-2.11709 -2.23125,-4.218457 -2.4606,-6.679053 -0.30249,-3.245019 0.92286,-6.341699 3.01055,-8.794092 4.22085,-4.959472 11.56846,-7.030659 17.81514,-7.51871 z"
     id="path78"
     style="fill:#1b1a1b;fill-opacity:1;stroke-width:0.341797" />
  <path
     fill="#636063"
     d="m 206.24946,172.61973 0.0215,0.0226 c 0.0964,0.40161 -0.0636,0.37495 -0.31685,0.65385 -2.66499,2.93159 -4.88052,6.27232 -6.95796,9.63491 -6.85234,11.09234 -10.98774,23.66465 -13.8209,36.32105 -2.09316,0.6125 -4.16513,1.4082 -6.31059,1.81289 -2.44248,-5.5853 -4.61734,-11.2 -7.27207,-16.70293 -2.61646,-5.24145 -5.55796,-10.24707 -8.61602,-15.24038 -1.71753,-2.80444 -3.63262,-5.58872 -5.14165,-8.50767 1.76504,0.68702 3.53828,1.40718 5.34536,1.97491 10.92383,3.43095 22.34702,0.59472 32.3586,-4.25879 3.63774,-1.76367 7.12475,-3.84283 10.71054,-5.7104 z"
     id="path79"
     style="fill:#1a191a;fill-opacity:1;stroke-width:0.341797" />
  <path
     fill="#fefffe"
     d="m 209.19302,171.32363 c 3.18794,0.63335 6.32597,2.04429 9.50981,2.83008 q 3.25596,0.80493 6.54644,1.454 3.29048,0.64908 6.6083,1.14024 3.31748,0.4915 6.65478,0.82407 3.33765,0.33257 6.68692,0.50586 c -4.0438,2.63799 -7.5961,6.09561 -11.11592,9.37446 q -5.50464,5.0668 -10.91187,10.23785 -1.7083,1.70795 -3.49282,3.33559 c -8.29985,-2.63559 -19.26059,-1.66113 -27.47876,0.73316 4.22188,-11.08619 9.00908,-21.50791 16.99312,-30.43531 z"
     id="path80"
     style="stroke-width:0.341797" />
  <path
     fill="#f2ec90"
     d="m 133.76973,176.48203 -0.0892,-0.17192 c 0.10117,-0.0444 0.19585,-0.10733 0.30317,-0.13296 0.46245,-0.11074 6.12876,0.80732 7.07759,0.91123 1.29097,0.14116 2.59936,0.053 3.87529,0.31855 l 0.11006,0.23072 c 0.0499,-0.83433 3.58955,-5.05279 4.38423,-6.11338 l 0.30386,0.0735 c 1.0083,1.53604 1.91372,3.12847 2.96201,4.63955 2.59116,3.73687 5.32212,7.29532 7.73281,11.16583 6.35913,10.21083 11.58384,21.1726 16.16836,32.27211 0.49663,1.20245 2.73335,5.77261 2.51016,6.90122 -0.1897,0.95772 -0.46827,1.36548 0.0588,2.30508 0.51372,0.91568 1.49296,1.61431 2.36591,2.16324 0.29497,0.83193 0.57251,1.66626 0.96148,2.46025 -0.93482,0.61182 -3.9481,2.31499 -4.45259,3.24228 -0.12715,0.35274 -0.0762,0.3876 -0.40435,0.60157 -0.7434,0.48501 -1.40751,1.63208 -2.2497,1.83134 0.46416,-0.58344 1.01343,-1.10708 1.53091,-1.64404 -2.81983,-0.89619 -6.2272,-1.03291 -9.16495,-1.46699 -4.55307,-0.67266 -9.15639,-1.57363 -13.72895,-2.03608 -0.26421,-0.0267 -0.42485,0.0133 -0.66172,0.12749 l -0.41289,-0.23038 -0.49287,0.19825 -0.22217,-0.25498 c -2.13042,-0.49117 -4.44473,-0.5896 -6.62607,-0.8128 q -7.57285,-0.82202 -15.18057,-1.20449 l -0.25156,-0.0578 -0.0923,-0.21397 c 1.08555,-0.39648 2.86939,-0.12749 4.07422,-0.21396 2.26201,0.0174 16.95552,1.28618 17.62476,1.13135 0.0178,-0.38282 -0.0632,-0.62071 -0.19893,-0.97652 q -2.43906,-6.50644 -5.35732,-12.8126 c 0.0694,-0.37905 0.19482,-0.68051 0.33906,-1.03427 -0.21226,-0.57559 -0.43716,-1.1334 -0.69692,-1.68882 4.40507,0.33564 8.83613,0.57593 13.22719,1.0582 2.746,0.30147 5.5002,0.848 8.2503,1.05889 0.36264,-0.27583 0.47338,-0.15996 0.90986,-0.1169 l -0.20166,-0.22627 c -0.35547,-0.10629 -0.62036,-0.18901 -0.94233,-0.38349 -0.0762,-0.0458 -0.14903,-0.0971 -0.22354,-0.14561 0.44194,0.0769 0.81758,0.11553 1.26978,0.10254 0.18559,-1.22773 -9.08873,-18.14087 -10.24366,-20.08467 -0.81074,-0.0359 -1.62114,-0.0923 -2.4312,-0.14013 0.53355,-0.2502 0.82305,-0.32984 1.41436,-0.2878 0.053,0.004 0.10595,0.009 0.15859,0.014 -0.51304,-0.0602 -1.03564,-0.0954 -1.5063,-0.32505 -0.0919,-0.0448 -0.18183,-0.0937 -0.27275,-0.14048 l 2.21723,0.026 q -4.54589,-7.24712 -9.63525,-14.12373 c -1.11665,-1.5292 -2.09829,-3.16128 -3.31406,-4.61802 -3.60664,-0.1439 -7.18526,-0.84766 -10.77617,-1.1751 z"
     id="path81"
     style="stroke-width:0.341797" />
  <path
     fill="#2c2824"
     d="m 133.76973,176.48203 -0.0892,-0.17192 c 0.10117,-0.0444 0.19585,-0.10733 0.30317,-0.13296 0.46245,-0.11074 6.12876,0.80732 7.07759,0.91123 1.29097,0.14116 2.59936,0.053 3.87529,0.31855 l 0.11006,0.23072 c 0.0499,-0.83433 3.58955,-5.05279 4.38423,-6.11338 l 0.30386,0.0735 c -1.28892,1.95782 -2.7959,4.06875 -4.4126,5.76236 3.00132,3.04131 5.56343,6.75527 7.96831,10.27749 q 2.70327,3.90434 5.18267,7.95464 2.47939,4.05029 4.72739,8.23354 2.24765,4.18325 4.25674,8.48613 2.00908,4.30323 3.77275,8.71241 1.99814,4.9663 3.75464,10.02319 c 0.69487,1.98208 1.26772,4.18906 2.1793,6.06382 0.37563,-0.041 0.56533,-0.15825 0.87773,-0.36402 -0.12715,0.35274 -0.0762,0.3876 -0.40435,0.60157 -0.7434,0.48501 -1.40751,1.63208 -2.2497,1.83134 0.46416,-0.58344 1.01343,-1.10708 1.53091,-1.64404 -2.81983,-0.89619 -6.2272,-1.03291 -9.16495,-1.46699 -4.55307,-0.67266 -9.15639,-1.57363 -13.72895,-2.03608 -0.26421,-0.0267 -0.42485,0.0133 -0.66172,0.12749 l -0.41289,-0.23038 -0.49287,0.19825 -0.22217,-0.25498 c -2.13042,-0.49117 -4.44473,-0.5896 -6.62607,-0.8128 q -7.57285,-0.82202 -15.18057,-1.20449 l -0.25156,-0.0578 -0.0923,-0.21397 c 1.08555,-0.39648 2.86939,-0.12749 4.07422,-0.21396 2.26201,0.0174 16.95552,1.28618 17.62476,1.13135 0.0178,-0.38282 -0.0632,-0.62071 -0.19893,-0.97652 l 0.78374,-0.0855 c 0.11006,0.30181 0.21738,0.72564 0.39409,0.98848 0.0414,0.0615 0.21192,0.23857 0.30967,0.26797 1.74556,0.52568 4.1354,0.48603 5.97769,0.74512 5.49199,0.7728 10.96484,1.68403 16.477,2.30644 -2.41616,-5.73228 -4.34492,-11.66108 -6.78228,-17.39302 -0.48227,-0.0526 -0.92866,-0.11347 -1.3976,-0.24814 0.36264,-0.27583 0.47338,-0.15996 0.90986,-0.1169 l -0.20166,-0.22627 c -0.35547,-0.10629 -0.62036,-0.18901 -0.94233,-0.38349 -0.0762,-0.0458 -0.14903,-0.0971 -0.22354,-0.14561 0.44194,0.0769 0.81758,0.11553 1.26978,0.10254 0.18559,-1.22773 -9.08873,-18.14087 -10.24366,-20.08467 -0.81074,-0.0359 -1.62114,-0.0923 -2.4312,-0.14013 0.53355,-0.2502 0.82305,-0.32984 1.41436,-0.2878 0.053,0.004 0.10595,0.009 0.15859,0.014 -0.51304,-0.0602 -1.03564,-0.0954 -1.5063,-0.32505 -0.0919,-0.0448 -0.18183,-0.0937 -0.27275,-0.14048 l 2.21723,0.026 q -4.54589,-7.24712 -9.63525,-14.12373 c -1.11665,-1.5292 -2.09829,-3.16128 -3.31406,-4.61802 -3.60664,-0.1439 -7.18526,-0.84766 -10.77617,-1.1751 z"
     id="path82"
     style="stroke-width:0.341797" />
  <path
     fill="#fbf9d0"
     d="m 145.86934,215.98965 c 4.40507,0.33564 8.83613,0.57593 13.22719,1.0582 2.746,0.30147 5.5002,0.848 8.2503,1.05889 0.46894,0.13467 0.91533,0.19551 1.3976,0.24814 2.43736,5.73194 4.36612,11.66074 6.78228,17.39302 -5.51216,-0.62241 -10.98501,-1.53364 -16.477,-2.30644 -1.84229,-0.25909 -4.23213,-0.21944 -5.97769,-0.74512 -0.0978,-0.0294 -0.26831,-0.20645 -0.30967,-0.26797 -0.17671,-0.26284 -0.28403,-0.68667 -0.39409,-0.98848 l -0.78374,0.0855 q -2.43906,-6.50644 -5.35732,-12.8126 c 0.0694,-0.37905 0.19482,-0.68051 0.33906,-1.03427 -0.21226,-0.57559 -0.43716,-1.1334 -0.69692,-1.68882 z"
     id="path83"
     style="stroke-width:0.341797" />
  <path
     fill="#232112"
     d="m 146.56626,217.67847 c 2.34883,4.36132 4.02397,9.14409 5.802,13.76142 l -0.78374,0.0855 q -2.43906,-6.50644 -5.35732,-12.8126 c 0.0694,-0.37905 0.19482,-0.68051 0.33906,-1.03427 z"
     id="path84"
     style="stroke-width:0.341797" />
  <path
     fill="#2f2327"
     d="m 158.26494,218.61431 c 0.91807,-0.0742 1.777,0.002 2.65029,0.30796 2.5792,0.90336 4.94888,3.04951 6.09458,5.53095 0.54107,1.17168 0.98062,2.70567 0.45733,3.9604 -0.444,1.06402 -1.32822,1.6666 -2.36079,2.07847 -1.33745,0.25532 -2.34815,0.26147 -3.63638,-0.22798 -2.31807,-0.88047 -4.30869,-2.91382 -5.27837,-5.18472 -0.55781,-1.30566 -0.93515,-2.98422 -0.34863,-4.34663 0.50552,-1.17509 1.28345,-1.6413 2.42197,-2.11845 z"
     id="path85"
     style="stroke-width:0.341797" />
  <path
     fill="#cd72ab"
     d="m 158.20991,219.45444 c 0.70376,-0.0489 1.43999,-0.13022 2.13213,0.0458 2.25039,0.57354 4.40303,2.37242 5.59829,4.34903 0.68086,1.12588 1.26363,2.53442 0.91055,3.86777 -0.29121,1.09956 -0.93858,1.669 -1.88843,2.22407 -0.83467,0.16475 -1.60576,0.20508 -2.43804,-0.013 -2.24629,-0.58857 -4.26904,-2.34711 -5.35459,-4.37363 -0.66616,-1.24311 -1.22739,-2.87827 -0.73349,-4.27553 0.33257,-0.94097 0.90644,-1.38975 1.77358,-1.82452 z"
     id="path86"
     style="stroke-width:0.341797" />
  <path
     fill="#636063"
     d="m 193.75542,281.03975 c 0.10493,-0.004 0.21021,-0.0103 0.31514,-0.0133 3.6292,-0.1022 7.07246,1.75102 9.60654,4.23315 5.84062,5.71997 8.73394,14.43784 8.80435,22.48135 0.0489,5.58838 -1.48443,10.75976 -3.81617,15.78965 -0.71196,1.53672 -1.48169,3.29423 -2.71181,4.49599 -1.64712,1.60987 -4.08345,1.43487 -6.21592,1.41914 -2.65474,-0.1791 -5.04629,-1.22431 -7.11655,-2.86836 -7.07144,-5.61504 -10.61109,-15.94174 -11.54966,-24.6791 -0.619,-5.76235 0.29565,-11.9957 4.04345,-16.61577 2.34678,-2.89263 5.0087,-3.88589 8.64063,-4.24272 z"
     id="path87"
     style="fill:#242324;fill-opacity:1;stroke-width:0.341797" />
  <path
     fill="#3d3b3d"
     d="m 195.64214,282.58911 0.18183,0.0878 c 0.28301,0.52774 -0.35581,1.1416 -0.6665,1.5709 -2.42744,3.35098 -3.02183,6.33657 -3.11685,10.42241 -0.73041,-0.95429 -0.62309,-3.38891 -0.47475,-4.55683 0.37324,-2.94116 1.69497,-5.69605 4.07627,-7.52432 z"
     id="path88"
     style="stroke-width:0.341797" />
  <path
     fill="#3d3b3d"
     d="m 187.775,283.15889 0.0913,0.12304 c 0.13911,0.74546 -1.80503,4.36543 -2.13828,5.46465 -0.59473,1.96192 -0.76426,4.25811 -0.68941,6.29761 0.0338,0.92456 0.34624,1.99644 0.0995,2.89058 -0.64634,-2.3731 -1.0753,-4.63648 -0.83638,-7.10733 0.26558,-2.74497 1.27251,-5.86797 3.47334,-7.66855 z"
     id="path89"
     style="stroke-width:0.341797" />
  <path
     fill="#3d3b3d"
     d="m 192.28022,297.05942 c 0.0489,0 0.0974,-10e-4 0.14595,-6.8e-4 1.88091,0.0116 3.45933,0.89858 4.75405,2.22168 3.66475,3.74438 4.9482,10.04165 4.8378,15.10195 -0.0598,2.75489 -0.51304,6.24463 -2.67115,8.19561 -1.04042,0.94097 -2.11777,1.24414 -3.49316,1.17954 -0.85723,-0.30523 -1.69634,-0.60874 -2.46367,-1.10947 -3.8377,-2.50401 -6.27881,-7.95806 -7.19175,-12.28316 -0.69009,-3.26894 -0.73452,-7.44638 1.22056,-10.31782 1.17817,-1.73052 2.84033,-2.63115 4.86137,-2.98765 z"
     id="path90"
     style="stroke-width:0.341797" />
  <path
     fill="#979595"
     d="m 191.63901,298.57598 c 1.22876,-0.0697 2.05318,-0.041 3.13531,0.61694 2.85332,1.73496 4.24135,5.90283 4.90171,8.99028 0.75708,3.54068 1.35454,9.55733 -0.81929,12.71519 -0.69077,1.00351 -1.3624,1.36992 -2.54195,1.55996 -0.32368,-0.0547 -0.65385,-0.11074 -0.96728,-0.21021 -2.60142,-0.82441 -4.56948,-4.11626 -5.63042,-6.45996 -1.78794,-3.9498 -3.14795,-9.86015 -1.45093,-14.05639 0.70034,-1.73189 1.73052,-2.45923 3.37285,-3.15581 z"
     id="path91"
     style="fill:#e64646;fill-opacity:1;stroke-width:0.341797" />
  <path
     fill="#636063"
     d="m 175.6207,264.39561 c 0.13604,0.005 0.0458,-0.0103 0.23618,0.14218 -2.14101,4.52232 -3.90297,9.33892 -4.83574,14.2649 -1.77871,9.39292 -0.54858,19.07021 4.8877,27.06621 -5.28555,0.11689 -11.02158,0.62719 -16.09761,2.17075 -2.2521,0.68496 -4.36167,1.78349 -6.65786,2.33891 -2.1957,0.5315 -4.28887,0.65079 -6.27368,-0.6142 -7.07007,-4.50625 -12.09927,-17.64664 -13.92925,-25.52334 q -0.23516,-1.24346 -0.38076,-2.50059 c -0.52432,-4.52778 -0.23858,-10.78232 2.80342,-14.48467 1.28652,-1.56577 3.08847,-2.42744 5.09619,-2.58364 3.00952,-0.23413 6.09936,1.1105 8.3583,3.03379 6.97505,5.93804 9.02275,17.25014 9.6667,25.97964 l -0.1398,-0.42588 0.2854,-6.9e-4 c 0.60225,-6.34409 -0.094,-13.57343 -2.71899,-19.4144 6.40288,-3.71567 12.6458,-7.11348 19.6998,-9.44897 z"
     id="path92"
     style="fill:#242324;fill-opacity:1;stroke-width:0.341797" />
  <path
     fill="#3d3b3d"
     d="m 144.72637,266.04888 c 0.42451,-0.005 0.22456,-0.0458 0.60224,0.11416 -0.1104,0.85141 -1.68642,2.06274 -2.21518,2.81299 -0.36675,0.52055 -0.67061,1.10263 -0.93174,1.68369 -0.9666,2.14922 -1.1563,4.45156 -1.40615,6.76416 l -0.20782,-0.0106 c -0.0379,-0.0759 -0.0786,-0.15073 -0.11416,-0.22832 -0.82338,-1.7958 -0.20644,-5.34468 0.44878,-7.14902 0.71607,-1.97217 1.95953,-3.11377 3.82403,-3.98706 z"
     id="path93"
     style="stroke-width:0.341797" />
  <path
     fill="#3d3b3d"
     d="m 139.17422,265.72759 0.1791,0.14458 c -0.33257,1.41367 -1.45571,2.71284 -2.05146,4.04824 -0.88492,1.98447 -0.75093,4.17095 -0.3688,6.26411 0.1268,0.69453 0.34179,1.37129 0.33222,2.08086 l -0.33154,0.0571 q -0.13193,-0.20405 -0.25327,-0.41426 -0.12134,-0.21054 -0.23208,-0.42656 -0.11074,-0.21602 -0.21055,-0.4375 -0.0998,-0.22148 -0.18833,-0.44775 -0.0885,-0.22593 -0.16577,-0.4563 -0.0769,-0.23037 -0.14253,-0.46416 -0.0656,-0.23413 -0.11929,-0.471 -0.0537,-0.23686 -0.0954,-0.47612 -0.0417,-0.23926 -0.0714,-0.48023 -0.0297,-0.24096 -0.0472,-0.4833 -0.0178,-0.24233 -0.0232,-0.48501 -0.005,-0.24267 0.001,-0.48569 0.007,-0.24268 0.0256,-0.48467 0.0188,-0.24233 0.0499,-0.48296 0.0311,-0.24096 0.0738,-0.48022 0.0431,-0.23892 0.0981,-0.47544 c 0.49322,-2.16733 1.67959,-3.93579 3.54068,-5.1437 z"
     id="path94"
     style="stroke-width:0.341797" />
  <path
     fill="#3d3b3d"
     d="m 139.29248,278.7562 c 0.8562,-0.0694 1.67651,-0.0926 2.48794,0.23755 2.95723,1.20312 4.62485,4.92974 5.69878,7.7106 1.64336,4.25503 4.00962,11.13471 1.90723,15.55004 -0.46929,0.98506 -0.92183,1.42359 -1.94449,1.77769 -0.5021,0.006 -1.03359,-0.006 -1.5268,-0.10869 -2.22578,-0.46245 -3.99732,-2.7354 -5.10166,-4.59854 -2.47666,-4.17778 -5.55386,-12.35048 -4.17163,-17.25185 0.45629,-1.61841 1.18808,-2.5228 2.65063,-3.3168 z"
     id="path95"
     style="stroke-width:0.341797" />
  <path
     fill="#979595"
     d="m 139.36118,280.61353 c 0.25874,-0.009 0.51817,-0.0219 0.77656,0.006 1.26329,0.13911 2.28868,1.12109 3.05909,2.0542 2.97465,3.6039 6.09355,12.50635 5.53745,17.1917 -0.16953,1.42939 -0.54107,2.34643 -1.67857,3.24023 -0.26181,0.041 -0.52363,0.0673 -0.78921,0.0636 -1.0811,-0.0157 -2.17314,-0.95191 -2.86528,-1.70215 -3.32602,-3.60391 -5.95444,-11.68638 -5.79995,-16.55664 0.056,-1.76197 0.4457,-3.08711 1.75991,-4.29741 z"
     id="path96"
     style="fill:#e64646;fill-opacity:1;stroke-width:0.341797" />
  <path
     fill="#fbf9d0"
     d="m 133.76973,176.48203 c 3.59091,0.32744 7.16953,1.0312 10.77617,1.1751 1.21577,1.45674 2.19741,3.08882 3.31406,4.61802 q 5.08936,6.87661 9.63525,14.12373 l -2.21723,-0.026 c 0.0909,0.0468 0.18081,0.0957 0.27275,0.14048 0.47066,0.22969 0.99326,0.26489 1.5063,0.32505 -0.0526,-0.005 -0.10561,-0.0103 -0.15859,-0.014 -0.59131,-0.042 -0.88081,0.0376 -1.41436,0.2878 0.81006,0.0478 1.62046,0.10425 2.4312,0.14013 1.15493,1.9438 10.42925,18.85694 10.24366,20.08467 -0.4522,0.013 -0.82784,-0.0256 -1.26978,-0.10254 0.0745,0.0485 0.14731,0.0998 0.22354,0.14561 0.32197,0.19448 0.58686,0.2772 0.94233,0.38349 l 0.20166,0.22627 c -0.43648,-0.0431 -0.54722,-0.15893 -0.90986,0.1169 -2.7501,-0.21089 -5.5043,-0.75742 -8.2503,-1.05889 -4.39106,-0.48227 -8.82212,-0.72256 -13.22719,-1.0582 0.25976,0.55542 0.48466,1.11323 0.69692,1.68882 -0.14424,0.35376 -0.26968,0.65522 -0.33906,1.03427 q 2.91826,6.30616 5.35732,12.8126 c 0.13569,0.35581 0.2167,0.5937 0.19893,0.97652 -0.66924,0.15483 -15.36275,-1.11392 -17.62476,-1.13135 -1.35249,-0.19038 -2.82392,-0.10767 -4.19316,-0.13296 -2.62774,-5.56856 -5.36177,-10.87871 -8.45469,-16.2104 l -0.1644,-0.50005 c -0.67676,-0.35513 -2.33653,-3.39268 -2.85982,-4.18291 -2.7207,-4.10874 -5.74526,-7.94028 -8.70591,-11.87402 l -0.39341,-0.48809 c 5.17413,-1.72607 18.07764,-1.68403 24.02422,-1.78555 -4.38183,-6.67324 -9.52041,-12.52754 -14.88081,-18.40713 l 0.48741,-0.42587 -0.14048,-0.21431 0.0745,-0.21021 c 1.57397,-0.35854 3.54443,0.0779 5.21445,-0.10595 0.0106,0.0489 0.0202,0.0981 0.0318,0.14697 0.0191,0.0814 0.04,0.16201 0.0595,0.24336 0.095,0.39477 0.16953,0.80083 0.42212,1.13203 0.47783,0.6272 1.31387,0.93379 2.07402,0.99463 2.43736,0.19482 5.2066,-1.34839 7.01573,-2.86802 z"
     id="path97"
     style="stroke-width:0.341797" />
  <path
     fill="#2c2824"
     d="m 122.47061,206.26006 c -0.29839,-0.57661 -0.5438,-1.17818 -0.69419,-1.81221 -0.2355,-0.9936 -0.27583,-2.17964 0.33393,-3.05361 0.50825,-0.72837 1.13887,-0.89483 1.97593,-1.03804 l -0.24302,0.75195 c -0.65796,0.32232 -1.15151,0.62686 -1.38735,1.35796 -0.33838,1.05069 0.14697,2.31739 0.54927,3.28775 z"
     id="path98"
     style="stroke-width:0.341797" />
  <path
     fill="#2f2327"
     d="m 124.08628,200.3562 c 2.68481,0.18081 5.10884,1.669 6.85166,3.68423 0.47954,0.55439 0.94165,1.21304 1.26567,1.87031 0.50894,1.04282 0.98233,2.24834 0.73076,3.4313 -0.13159,0.61968 -0.55473,1.14981 -1.10537,1.45264 -1.15048,0.63266 -2.68925,0.51167 -3.90229,0.14492 -2.45342,-0.7417 -4.23794,-2.49546 -5.4561,-4.67954 l 0.53457,-0.5062 c 1.45708,2.26098 3.05874,4.1436 5.84506,4.70312 0.83399,0.16782 1.9086,0.19141 2.62671,-0.34282 0.42212,-0.31411 0.64942,-0.81313 0.68941,-1.32788 0.0639,-0.82612 -0.24439,-1.55791 -0.55303,-2.30542 l -0.14321,-0.23106 c -0.34727,-0.57011 -0.68531,-1.0999 -1.12964,-1.59858 -1.68164,-1.88843 -3.91631,-3.39233 -6.49722,-3.54307 z"
     id="path99"
     style="stroke-width:0.341797" />
  <path
     fill="#e47777"
     d="m 123.84326,201.10815 c 2.58091,0.15074 4.81558,1.65464 6.49722,3.54307 0.44433,0.49868 0.78237,1.02847 1.12964,1.59858 l 0.14321,0.23106 c 0.30864,0.74751 0.61694,1.4793 0.55303,2.30542 -0.04,0.51475 -0.26729,1.01377 -0.68941,1.32788 -0.71811,0.53423 -1.79272,0.51064 -2.62671,0.34282 -2.78632,-0.55952 -4.38798,-2.44214 -5.84506,-4.70312 -0.4023,-0.97036 -0.88765,-2.23706 -0.54927,-3.28775 0.23584,-0.7311 0.72939,-1.03564 1.38735,-1.35796 z"
     id="path100"
     style="stroke-width:0.341797" />
  <path
     fill="#2c2824"
     d="m 119.01812,177.36353 c 5.34057,5.62631 11.34116,12.05004 15.14672,18.82822 l 3.08267,-0.0116 -0.14185,0.73213 -2.33242,0.0663 q 5.81944,8.79478 10.66099,18.16343 7.13125,0.49014 14.25054,1.13032 c 2.31943,0.2232 4.95537,0.35206 7.20439,0.96216 0.0745,0.0485 0.14731,0.0998 0.22354,0.14561 0.32197,0.19448 0.58686,0.2772 0.94233,0.38349 l 0.20166,0.22627 c -0.43648,-0.0431 -0.54722,-0.15893 -0.90986,0.1169 -2.7501,-0.21089 -5.5043,-0.75742 -8.2503,-1.05889 -4.39106,-0.48227 -8.82212,-0.72256 -13.22719,-1.0582 0.25976,0.55542 0.48466,1.11323 0.69692,1.68882 -0.14424,0.35376 -0.26968,0.65522 -0.33906,1.03427 -0.4334,-0.929 -0.93106,-1.83715 -1.39829,-2.75044 -5.27701,-0.49321 -10.62749,-0.70922 -15.92261,-0.94165 -0.029,-0.0164 -0.0615,-0.0284 -0.0875,-0.0492 -0.7417,-0.60464 -1.09102,-0.62378 -2.04155,-0.68702 4.45839,-0.5185 12.90966,0.42896 17.63945,0.75367 -2.85469,-6.2771 -6.68247,-12.27837 -10.52632,-17.98775 -5.36587,-0.0291 -10.82778,0.11382 -16.17451,0.55576 -2.65303,0.21944 -5.28316,0.63882 -7.93516,0.86407 l -0.39341,-0.48809 c 5.17413,-1.72607 18.07764,-1.68403 24.02422,-1.78555 -4.38183,-6.67324 -9.52041,-12.52754 -14.88081,-18.40713 z"
     id="path101"
     style="stroke-width:0.341797" />
  <path
     fill="#fbf9d0"
     d="m 121.34644,214.5271 c 1.78964,-0.24268 3.6268,-0.27378 5.43081,-0.24268 0.95053,0.0632 1.29985,0.0824 2.04155,0.68702 0.026,0.0208 0.0584,0.0328 0.0875,0.0492 5.29512,0.23243 10.6456,0.44844 15.92261,0.94165 0.46723,0.91329 0.96489,1.82144 1.39829,2.75044 q 2.91826,6.30616 5.35732,12.8126 c 0.13569,0.35581 0.2167,0.5937 0.19893,0.97652 -0.66924,0.15483 -15.36275,-1.11392 -17.62476,-1.13135 -1.35249,-0.19038 -2.82392,-0.10767 -4.19316,-0.13296 -2.62774,-5.56856 -5.36177,-10.87871 -8.45469,-16.2104 z"
     id="path102"
     style="stroke-width:0.341797" />
  <path
     d="m 121.34644,214.5271 c 1.78964,-0.24268 3.6268,-0.27378 5.43081,-0.24268 0.95053,0.0632 1.29985,0.0824 2.04155,0.68702 0.026,0.0208 0.0584,0.0328 0.0875,0.0492 -2.46196,-0.0571 -4.93247,-0.006 -7.39546,0.007 z"
     id="path103"
     style="stroke-width:0.341797" />
  <path
     fill="#54c7ce"
     d="m 133.25259,217.92251 c 1.26465,-0.14663 2.85161,0.47954 3.90571,1.12759 1.91133,1.17544 3.6603,3.16914 4.12651,5.39834 0.17603,0.84048 0.1398,1.7811 -0.3705,2.50571 -0.62686,0.89038 -1.57261,1.20107 -2.59971,1.36582 -1.53193,0.0813 -3.04063,-0.49219 -4.30288,-1.32173 -1.83853,-1.20825 -3.32739,-3.04404 -3.72901,-5.24658 -0.15483,-0.84868 -0.14458,-1.86074 0.4023,-2.57783 0.6583,-0.86304 1.52817,-1.15288 2.56758,-1.25132 z"
     id="path104"
     style="stroke-width:0.341797" />
  <path
     fill="#fbf9d0"
     d="m 137.24751,196.18013 c 5.99683,-0.0403 12.04731,-0.24678 18.03047,0.19277 0.0909,0.0468 0.18081,0.0957 0.27275,0.14048 0.47066,0.22969 0.99326,0.26489 1.5063,0.32505 -0.0526,-0.005 -0.10561,-0.0103 -0.15859,-0.014 -0.59131,-0.042 -0.88081,0.0376 -1.41436,0.2878 0.81006,0.0478 1.62046,0.10425 2.4312,0.14013 1.15493,1.9438 10.42925,18.85694 10.24366,20.08467 -0.4522,0.013 -0.82784,-0.0256 -1.26978,-0.10254 -2.24902,-0.6101 -4.88496,-0.73896 -7.20439,-0.96216 q -7.11929,-0.64018 -14.25054,-1.13032 -4.84155,-9.36865 -10.66099,-18.16343 l 2.33242,-0.0663 z"
     id="path105"
     style="stroke-width:0.341797" />
  <path
     d="m 137.24751,196.18013 c 5.99683,-0.0403 12.04731,-0.24678 18.03047,0.19277 0.0909,0.0468 0.18081,0.0957 0.27275,0.14048 0.47066,0.22969 0.99326,0.26489 1.5063,0.32505 -0.0526,-0.005 -0.10561,-0.0103 -0.15859,-0.014 -0.59131,-0.042 -0.88081,0.0376 -1.41436,0.2878 -6.098,-0.43955 -12.27085,-0.25327 -18.37842,-0.19995 z"
     id="path106"
     style="stroke-width:0.341797" />
  <path
     fill="#2c2824"
     d="m 148.68848,199.9686 c 0.7728,-0.004 1.48613,0.0403 2.22578,0.28438 2.47871,0.8186 4.63681,3.13359 5.71826,5.46909 0.58892,1.27183 1.03599,2.94868 0.46177,4.30459 -0.47066,1.11152 -1.14981,1.54731 -2.24014,1.96089 -0.82783,0.0267 -1.62832,-0.008 -2.41855,-0.27925 -2.40523,-0.82612 -4.53599,-3.05088 -5.56788,-5.35903 -0.57148,-1.27832 -1.02675,-2.94834 -0.44809,-4.3063 0.46894,-1.10093 1.19595,-1.62935 2.26885,-2.07437 z"
     id="path107"
     style="stroke-width:0.341797" />
  <path
     fill="#d5bd51"
     d="m 148.66729,200.81079 c 0.72666,-0.042 1.43076,-0.0396 2.12939,0.19448 2.17041,0.72803 4.02363,2.71626 5.06372,4.72056 0.59609,1.14878 1.06231,2.53169 0.60874,3.8083 -0.30762,0.86577 -0.78955,1.29336 -1.59072,1.70112 -0.36607,0.0304 -0.7229,0.0455 -1.08965,0.0144 -1.93525,-0.16338 -3.84385,-1.68916 -5.01143,-3.18315 -1.03701,-1.32652 -2.03813,-3.16197 -1.76435,-4.90855 0.17739,-1.13066 0.74136,-1.72197 1.6543,-2.34712 z"
     id="path108"
     style="stroke-width:0.341797" />
  <path
     fill="#fbf9d0"
     d="m 133.76973,176.48203 c 3.59091,0.32744 7.16953,1.0312 10.77617,1.1751 1.21577,1.45674 2.19741,3.08882 3.31406,4.61802 q 5.08936,6.87661 9.63525,14.12373 l -2.21723,-0.026 c -5.98316,-0.43955 -12.03364,-0.23311 -18.03047,-0.19277 l -3.08267,0.0116 c -3.80556,-6.77818 -9.80615,-13.20191 -15.14672,-18.82822 l -0.14048,-0.21431 0.0745,-0.21021 c 1.57397,-0.35854 3.54443,0.0779 5.21445,-0.10595 0.0106,0.0489 0.0202,0.0981 0.0318,0.14697 0.0191,0.0814 0.04,0.16201 0.0595,0.24336 0.095,0.39477 0.16953,0.80083 0.42212,1.13203 0.47783,0.6272 1.31387,0.93379 2.07402,0.99463 2.43736,0.19482 5.2066,-1.34839 7.01573,-2.86802 z"
     id="path109"
     style="stroke-width:0.341797" />
  <path
     fill="#2f2327"
     d="m 135.15879,181.18687 c 1.22261,-0.12134 2.24697,-0.10289 3.44087,0.24711 2.73882,0.80254 5.35801,2.81914 6.69238,5.35425 0.58276,1.10708 1.07803,2.54605 0.62515,3.7854 -0.41939,1.1481 -1.3419,1.77495 -2.42061,2.22647 -1.27387,0.19175 -2.30063,0.19858 -3.5393,-0.19654 -2.68858,-0.85825 -5.25,-2.88066 -6.51773,-5.41782 -0.56772,-1.13613 -1.00078,-2.55493 -0.5332,-3.80044 0.42622,-1.13647 1.19116,-1.7018 2.25244,-2.19843 z"
     id="path110"
     style="stroke-width:0.341797" />
  <path
     fill="#cd72ab"
     d="m 135.50708,181.85439 c 0.85381,-0.0297 1.68848,-0.0646 2.52349,0.15552 2.63149,0.69351 5.13037,2.47837 6.50849,4.83814 0.59746,1.02265 1.06538,2.23364 0.69112,3.41694 -0.32539,1.02813 -0.92764,1.44854 -1.8375,1.952 -1.26089,0.1063 -2.31192,0.0971 -3.51983,-0.32744 -2.51255,-0.88286 -4.76841,-2.80068 -5.87344,-5.24111 -0.43203,-0.9543 -0.73212,-2.05078 -0.33188,-3.06695 0.35205,-0.89311 0.99429,-1.34223 1.83955,-1.7271 z"
     id="path111"
     style="stroke-width:0.341797" />
  <path
     fill="#636063"
     d="m 294.9061,102.402 0.24986,0.16748 c 0.87705,-0.66206 3.09428,-2.646873 3.50581,-3.586472 -0.36162,-4.031836 -8.40069,-16.925781 -10.82676,-20.584717 -0.72632,-1.095459 -1.4376,-2.225439 -2.22783,-3.274072 -0.28985,-0.384522 -0.69488,-0.695899 -0.93311,-1.112207 -0.18183,-0.318213 -0.25122,-0.569434 -0.1914,-0.929688 0.35239,0.04341 0.54106,0.386914 0.75879,0.657617 1.04521,1.297803 2.24902,2.481446 3.25493,3.801123 4.0144,5.267432 7.69008,11.594092 9.87041,17.822657 0.29565,0.84458 0.67299,1.4 0.85757,2.296533 0.0219,0.105957 0.0677,0.20542 0.10151,0.307959 0.53354,0.01982 0.58618,0.03384 1.00591,-0.331543 0.042,-0.03623 0.23139,-0.24917 0.26386,-0.284375 0.4939,-0.53252 1.13101,-0.898242 1.67686,-1.376416 4.54556,-3.979199 10.01943,-7.364697 16.21929,-7.564649 5.70459,-0.184228 10.28979,1.902784 14.37358,5.795508 4.97656,4.743799 7.4064,12.656742 7.51851,19.367582 0.13672,8.16963 -2.31499,16.07231 -8.12041,21.98505 -4.55445,4.63853 -9.99619,7.33018 -16.56519,7.33667 -4.18599,0.004 -7.55952,-1.09101 -11.34629,-2.78359 -1.01924,-0.45561 -3.4518,-2.26201 -4.35757,-2.1188 -0.30522,1.06299 -0.13227,9.8188 0.1668,10.99219 0.24644,0.96728 0.20986,2.1499 0.26626,3.1541 0.17124,3.04951 0.61831,7.30215 -1.08623,10.0061 -0.21089,0.33497 -0.43853,0.50723 -0.76836,0.71607 -0.50142,0.0506 -0.58413,0.0328 -1.04385,-0.17637 -0.3917,-0.58447 -0.65659,-1.2667 -1.24961,-1.66592 l -0.33598,0.0352 c -0.64053,0.84766 -0.7229,2.28662 -1.17715,3.29526 -1.39795,3.10591 -3.26553,5.34263 -6.00947,7.33052 -0.80562,0.58379 -1.64781,1.20757 -2.66568,1.33472 -0.57251,0.0714 -0.97412,-0.0554 -1.49673,-0.27481 -0.26797,-0.30522 -0.47578,-0.46006 -0.4187,-0.90781 0.0591,-0.46177 0.32539,-0.77656 0.64668,-1.08657 l 0.17671,0.0168 c -0.079,0.34726 -0.17705,0.68291 -0.28232,1.02299 0.25395,0.36949 0.26181,0.3418 0.70205,0.45118 2.56792,-0.5274 5.59145,-3.82437 6.99145,-5.93736 1.63789,-2.47221 1.98311,-4.86719 2.91416,-7.53047 0.52124,-1.49057 -0.16987,-2.47597 -0.20063,-3.89443 -0.0215,-0.98677 -0.50415,-1.85493 -0.43921,-2.85674 l -0.0837,0.40059 0.3189,0.0239 c 0.16508,0.85176 0.29531,1.6584 0.65693,2.45171 0.12475,0.2731 0.11382,0.35103 0.1374,0.63472 0.1398,1.70215 1.04009,3.38618 1.45503,5.0415 0.11724,0.46724 0.29224,0.92627 0.7041,1.21714 0.17432,0.12305 0.19551,0.0731 0.45391,0.0759 l 0.11074,-0.23789 -0.0964,-0.13843 c 2.08838,-4.11216 0.55406,-10.5417 0.40811,-15.09101 -0.095,-2.97227 0.0301,-5.88745 0.57114,-8.81905 -3.10556,-3.05293 -5.6,-5.27324 -7.64463,-9.2292 -2.51357,-4.86411 -2.95483,-10.06352 -2.8041,-15.44614 0.0554,-1.97661 0.14185,-4.03354 0.7458,-5.92983 1.56919,-1.65259 3.54033,-3.09702 5.28828,-4.57017 z"
     id="path112"
     style="fill:#000000;fill-opacity:1;stroke-width:0.341797" />
  <path
     fill="#636063"
     d="m 269.13872,175.60669 c 0.0892,0.1022 2.7853,6.76245 3.28604,7.75913 3.18418,6.34136 6.98188,12.42739 10.53588,18.56538 -6.24257,0.65523 -10.50478,1.73667 -15.9414,4.96563 1.42632,-4.28614 2.5539,-9.40899 1.28891,-13.85542 -0.26147,9.24799 -5.87993,21.2249 -11.18598,28.82954 -2.69405,3.86128 -5.92984,7.53423 -9.25655,10.85991 -12.06713,12.06509 -28.97958,20.64829 -46.05712,22.0353 -4.77217,0.3876 -9.40284,-0.1644 -14.15996,-0.15962 -0.27891,-1.14673 -0.78956,-2.52485 -0.7646,-3.6979 l 0.33393,-0.28642 c 2.74566,-1.92842 5.03535,-4.32168 6.11475,-7.55371 -3.28604,3.13017 -6.93745,6.44082 -11.7438,6.66572 -1.94278,0.0909 -4.05337,-0.3353 -5.51182,-1.70762 -0.87124,-0.81997 -1.35591,-1.90825 -1.36274,-3.10659 -0.0383,-6.56216 10.07173,-9.975 13.86875,-13.9853 0.0492,-0.0516 0.0964,-0.10493 0.14458,-0.15723 -2.26577,-0.0393 -6.17661,-0.35376 -7.89927,-2.01899 -0.34487,-0.33326 -0.35957,-0.55371 -0.37324,-1.01275 0.21977,-0.46177 0.4269,-0.78203 0.93447,-0.95908 2.15776,-0.75264 4.79233,0.30488 6.71187,1.17339 2.40966,-1.19116 4.83847,-2.14854 7.16919,-3.53076 4.30664,-2.55357 8.28208,-5.66426 12.16352,-8.81221 q 9.87349,-7.99497 18.7585,-17.07583 c 6.71972,-6.84448 13.06655,-13.93267 20.12431,-20.448 7.7605,0.0567 15.25918,-0.79126 22.82178,-2.48657 z"
     id="path113"
     style="fill:#222122;fill-opacity:1;stroke-width:0.341797" />
  <path
     fill="#fefffe"
     d="m 281.6895,203.60532 c 0.6959,-0.10185 1.45366,-0.0861 2.15913,-0.12612 q 4.91265,8.89219 9.43223,17.99014 c 9.56724,19.23974 18.61118,41.06723 16.12461,63.0082 q -0.27686,-0.79058 -0.56157,-1.57842 c -3.34175,-9.22202 -9.12598,-16.8499 -18.17574,-21.04853 -11.60776,-5.38501 -26.34023,-4.14737 -38.12129,0.13842 -4.40063,1.60064 -8.85322,3.53897 -12.89838,5.90249 -10.44737,6.10415 -21.82271,16.64038 -26.9958,27.68863 -1.7982,-5.12012 -4.00962,-9.19058 -8.03257,-12.90078 -0.85415,-0.72427 -1.73428,-1.40342 -2.68242,-2.00191 -3.17803,-2.006 -6.7293,-2.79419 -10.41866,-1.92124 -3.99048,0.94439 -6.87524,3.63706 -8.95508,7.07485 -4.58417,7.57662 -3.75942,16.81163 -1.76333,25.05748 -2.00258,-2.22339 -3.54682,-5.07398 -4.76396,-7.78921 -6.46509,-14.42144 -2.08052,-27.44458 3.09976,-41.18106 1.09238,0.30864 3.23374,1.09102 4.31757,0.64702 1.5022,-0.61523 4.44781,-4.89487 4.9294,-6.43056 13.36802,3.24126 27.448,0.35854 39.67065,-5.46739 14.40298,-6.86499 26.93394,-17.93203 34.28838,-32.22426 1.64541,-3.19717 2.94971,-6.57207 4.14702,-9.95791 q 0.88321,-0.47681 1.78726,-0.91226 0.90439,-0.43545 1.82759,-0.82886 0.92319,-0.39341 1.86382,-0.74375 0.94028,-0.35034 1.89594,-0.65727 0.95567,-0.30659 1.92432,-0.56909 0.96865,-0.2625 1.94824,-0.48023 0.97993,-0.21738 1.96841,-0.38965 0.98882,-0.17226 1.98447,-0.29873 z"
     id="path114"
     style="stroke-width:0.341797" />
  <path
     fill="#fefffe"
     d="m 264.81807,61.211377 c -3.54615,-3.072754 -15.35249,-9.426416 -17.069,-13.14209 0.2314,-0.1104 0.40982,-0.155859 0.66856,-0.152441 1.99336,0.02495 4.19692,0.664111 6.09424,1.237988 11.88564,3.595703 19.9124,13.037842 28.32334,21.57251 -0.59268,-1.379151 -1.42461,-2.662256 -2.1899,-3.951514 1.70796,-6.756299 4.49224,-11.322021 10.41045,-15.024707 -3.68115,6.764844 -6.24941,13.125684 -6.37759,20.926514 -0.7458,-0.589258 -1.56816,-1.032227 -2.39531,-1.493653 1.47315,1.676856 2.67593,3.630225 3.93579,5.473877 5.01792,7.342823 8.75445,14.035547 12.35357,22.131006 L 294.9061,102.402 c -1.74795,1.47315 -3.71909,2.91758 -5.28828,4.57017 -0.60395,1.89629 -0.69043,3.95322 -0.7458,5.92983 -0.15073,5.38262 0.29053,10.58203 2.8041,15.44614 2.04463,3.95596 4.53907,6.17627 7.64463,9.2292 -0.54106,2.9316 -0.66616,5.84678 -0.57114,8.81905 0.14595,4.54931 1.68027,10.97885 -0.40811,15.09101 -0.12578,0.028 -0.27514,0.003 -0.404,-0.003 -1.40581,-2.11402 -2.42437,-9.01011 -3.85649,-12.07603 -0.039,1.24654 0.16816,2.36865 0.40195,3.58306 0.84424,4.38901 0.94062,5.97768 -0.84629,10.1647 -1.72676,4.04585 -4.52813,7.23276 -8.64473,8.87578 0.54756,-1.99507 1.77154,-3.71773 2.78531,-5.5002 1.05512,-1.85561 1.94004,-3.6562 2.63012,-5.67724 -0.94643,1.10742 -1.62148,2.4893 -2.46538,3.68525 -2.17348,3.07891 -5.66528,4.97896 -9.04975,6.45142 -4.24136,1.8457 -8.94175,3.04643 -13.4815,3.90092 -15.49228,2.91519 -28.60498,1.36514 -43.79067,-2.558 -4.60127,-1.18877 -9.32798,-2.45103 -13.74365,-4.22735 q -0.85894,-0.33838 -1.70933,-0.69795 -0.85005,-0.35957 -1.69087,-0.74033 -0.84116,-0.38076 -1.67241,-0.78237 -0.83091,-0.40161 -1.65191,-0.82407 -0.82065,-0.42247 -1.63071,-0.86509 -0.81006,-0.44263 -1.60884,-0.90576 -0.79878,-0.4628 -1.58559,-0.94541 -0.78682,-0.48262 -1.56133,-0.98506 -0.77485,-0.5021 -1.53638,-1.02368 -0.76186,-0.52124 -1.5104,-1.06163 -0.74853,-0.54038 -1.48305,-1.09921 -0.73487,-0.55884 -1.45538,-1.13614 -0.7205,-0.57695 -1.42631,-1.17202 -0.70581,-0.59472 -1.39659,-1.20722 -0.69077,-0.6125 -1.36616,-1.24175 -0.67505,-0.62959 -1.33437,-1.27593 -0.65933,-0.646 -1.30225,-1.3084 -0.64292,-0.6624 -1.26909,-1.34087 -0.62617,-0.67847 -1.23491,-1.37197 -0.60908,-0.69385 -1.20074,-1.40274 -0.5913,-0.70888 -1.16484,-1.43212 -0.57353,-0.72325 -1.12861,-1.46084 -0.55542,-0.7376 -1.09204,-1.48853 -0.53662,-0.75127 -1.0541,-1.51553 -0.51783,-0.7646 -1.01617,-1.5415 -0.49834,-0.7769 -0.97719,-1.56611 -0.47886,-0.78955 -0.93789,-1.59038 -0.4587,-0.80118 -0.89756,-1.61329 -0.43887,-0.81211 -0.85689,-1.63515 -0.41836,-0.82305 -0.81587,-1.65601 -0.39751,-0.8333 -0.77417,-1.67583 -0.37666,-0.84287 -0.73213,-1.69497 c -3.04746,-7.25806 -6.13012,-19.82285 -2.98559,-27.28769 1.55825,-3.699614 4.13882,-6.082621 7.81006,-7.590971 -2.53374,-0.426221 -4.48745,-0.567041 -7.02085,-0.06084 3.88349,-3.172217 9.91347,-3.847265 14.75639,-3.917676 1.92876,-0.02803 3.8647,0.114844 5.79038,0.0021 l 0.20577,-0.01333 c -0.29053,0.954297 -1.15494,1.784522 -1.64029,2.671826 -0.82544,2.282178 -1.56167,4.223242 -0.53662,6.585742 l 0.0978,0.229688 c -3.17051,-0.427588 -7.10938,-0.904053 -9.88682,1.119385 -3.15957,2.301656 -5.19155,8.176806 -5.67588,11.925636 q -0.0461,0.37017 -0.0834,0.74102 -0.0369,0.37119 -0.0649,0.74306 -0.028,0.37188 -0.0465,0.74444 -0.0188,0.37255 -0.0284,0.74511 -0.01,0.3729 -0.01,0.7458 -3.5e-4,0.3729 0.009,0.7458 0.009,0.3729 0.027,0.74512 0.0181,0.37256 0.0455,0.74443 0.0274,0.37222 0.0639,0.74307 0.0362,0.37119 0.082,0.74136 0.0458,0.37016 0.10049,0.73896 0.0547,0.36914 0.1186,0.73658 0.0639,0.36709 0.13706,0.73315 0.0728,0.36572 0.15484,0.72939 0.082,0.36368 0.17295,0.7253 0.0909,0.36196 0.19072,0.72119 0.0998,0.35923 0.20849,0.71606 0.1087,0.35684 0.22593,0.7106 0.11758,0.3541 0.2437,0.70478 0.12613,0.35103 0.26114,0.69898 0.13466,0.34761 0.27788,0.6918 0.14355,0.34419 0.29531,0.68496 0.15176,0.34077 0.31206,0.67744 0.15996,0.33667 0.32847,0.66958 0.1685,0.33257 0.34521,0.66103 0.17637,0.32847 0.36128,0.65249 0.18457,0.32403 0.37734,0.64327 0.19244,0.31923 0.39307,0.63369 0.20029,0.31479 0.40845,0.62412 0.20815,0.30932 0.42383,0.61352 0.21601,0.3042 0.43921,0.60293 0.22319,0.29873 0.45356,0.59199 c 4.00859,5.1003 9.15469,8.54698 14.95327,11.30391 2.28457,3.971 4.81011,7.60327 7.72051,11.14087 l -0.25259,0.44844 c -1.9561,-0.14697 -3.87427,-0.44673 -5.7979,-0.82544 1.70283,0.92251 3.51982,1.55996 5.371,2.11709 4.75678,1.43213 9.14272,1.81289 13.63222,-0.64497 5.66426,-3.10113 8.77325,-8.6126 10.56494,-14.61148 1.20723,0.99395 5.12662,5.09449 6.30718,5.27222 -0.0164,-0.33804 0.0246,-0.28335 -0.0978,-0.53936 -2.7853,-5.8208 -11.18906,-9.80683 -17.02149,-11.78823 2.38951,1.81973 5.12388,3.35303 7.6542,4.98203 -1.11425,0.77964 -2.2685,1.51211 -3.41967,2.2357 -5.53506,3.47983 -12.20523,3.94775 -18.49668,2.48896 -8.9168,-2.06753 -17.17906,-7.47407 -22.01206,-15.34258 -3.81617,-6.21284 -5.19087,-13.87148 -3.42891,-20.9959 0.73042,-2.95346 2.31807,-6.90703 5.102,-8.48032 2.81094,-1.588329 6.96343,-0.52978 9.8564,0.34385 8.75615,2.64448 15.12212,7.45322 19.45063,15.5292 -0.22627,-1.0811 -0.47851,-2.13828 -0.88115,-3.1688 -1.88193,-4.81694 -6.00674,-9.32935 -10.7543,-11.42114 9.85332,-5.471829 19.32144,-16.51221 23.51563,-26.97222 0.84971,-2.119141 2.07471,-5.305713 1.03188,-7.525684 -0.46347,-0.986425 -1.33198,-1.567138 -2.35361,-1.868945 -3.84043,-1.134424 -8.54082,0.769727 -11.84429,2.622608 q 0.47032,-0.614893 0.95122,-1.221583 c 3.19854,-4.02705 7.97925,-8.362402 13.35264,-8.879882 1.36206,-0.130909 2.72241,0.02666 3.8001,0.943017 1.76094,1.497754 2.10888,4.193506 2.29756,6.360498 q 0.11963,-0.376318 0.22285,-0.757422 c 0.65215,-2.434619 0.37085,-4.470703 -0.88902,-6.638037 2.31431,-0.64497 4.60708,-1.12417 6.99146,-1.426318 3.45625,2.574756 9.35122,2.620557 13.4873,3.319189 -1.03564,0.455616 -2.04702,0.914307 -2.95039,1.608497 -0.89174,0.685302 -2.27397,2.017285 -2.29277,3.219042 -0.006,0.405372 0.15757,0.761866 0.43408,1.051709 0.73111,0.765967 2.0002,0.99668 3.00679,1.094776 2.01523,0.195849 4.09131,0.0523 6.1144,0.0089 3.22759,-0.0687 6.47159,-0.144239 9.69917,-0.05811 2.48418,0.06631 5.1208,0.190039 7.57867,0.543799 0.99633,0.143555 1.97045,0.606689 2.95893,0.662402 -0.0687,-0.08408 -0.12202,-0.183545 -0.20576,-0.251904 -0.60977,-0.499023 -1.94995,-0.856201 -2.7166,-1.070508 -7.04068,-1.966357 -14.27071,-1.255078 -21.46997,-1.189111 -0.9461,0.0085 -3.09497,0.150732 -3.7854,-0.527051 -0.0489,-0.442969 -0.0407,-0.634033 0.21977,-1.009668 1.91748,-2.764453 5.43594,-3.39541 8.48237,-3.912891 l 0.15552,-0.219775 c -0.35615,-0.432031 -0.76391,-0.541406 -1.3101,-0.676074 -2.12667,-0.525342 -4.37945,-0.68667 -6.54917,-0.994287 -3.06832,-0.435449 -6.04434,-1.069483 -9.01045,-1.973877 7.90576,-2.381299 18.20546,-0.799121 25.81557,1.864502 2.53101,0.885937 4.87949,2.282519 7.44365,3.055664 z"
     id="path115"
     style="stroke-width:0.341797" />
  <path
     fill="#3d3b3d"
     d="m 253.54834,81.419775 c 3.74849,-0.185254 7.47886,1.501514 10.31338,3.852051 3.36465,2.789746 5.46807,6.43501 5.85395,10.821631 0.148,1.684033 0.003,7.128173 -1.03667,8.364113 l -0.0762,-1.44785 c -0.31342,-5.089017 -2.14648,-10.305179 -5.37065,-14.282669 -3.41626,-4.214697 -7.73726,-6.274365 -13.05869,-6.843799 1.13135,-0.267627 2.21587,-0.387256 3.3749,-0.463477 z"
     id="path116"
     style="stroke-width:0.341797" />
  <path
     fill="#3D3B3D"
     d="m 177.32285,101.01875 c 2.37822,-0.0168 4.76841,1.16382 6.8209,2.24868 4.92461,2.60313 9.85879,7.34282 11.45361,12.8355 0.28745,0.99053 0.37427,2.07607 -0.18183,2.99209 -0.84082,1.38462 -2.4688,1.79922 -3.92759,2.19365 -3.94126,0.71572 -8.4834,0.57525 -12.05176,-1.43213 -3.00097,-1.68779 -4.76943,-4.62143 -5.66802,-7.87739 -0.75913,-2.75146 -0.88662,-6.19473 0.60704,-8.72676 0.73418,-1.24448 1.55825,-1.87749 2.94765,-2.23364 z"
     id="path117"
     style="fill:#141314;fill-opacity:1;stroke-width:0.341797" />
  <path
     fill="#3d3b3d"
     d="m 241.41147,89.621533 c 2.72789,-0.229345 5.65093,-0.05161 8.25884,0.829199 4.78482,1.616016 8.09136,5.211036 10.24844,9.672508 4.54248,9.396 5.08047,23.75489 1.61328,33.60342 -1.39248,3.95527 -3.96006,8.46528 -7.91738,10.32773 -5.67827,2.67217 -13.21387,1.21236 -18.8395,-0.81928 -4.45567,-1.71719 -8.45127,-4.04175 -12.63077,-6.32154 -2.79692,-1.52578 -5.91923,-2.93535 -8.36479,-4.99296 -2.62773,-2.21075 -3.70132,-5.39356 -3.96143,-8.73565 -0.57968,-7.44468 3.34346,-15.56953 8.08008,-21.09399 5.94009,-6.927542 14.35684,-11.729447 23.51323,-12.469437 z"
     id="path118"
     style="stroke-width:0.341797" />
  <path
     fill="#636063"
     d="m 242.56504,90.648291 c 2.39634,0.07827 4.68296,0.231055 6.9542,1.06333 4.52129,1.657031 7.27856,4.934863 9.22715,9.238089 4.18701,9.24731 4.81523,24.11513 1.13989,33.60341 -1.33745,3.45147 -3.4501,6.80962 -6.96172,8.33951 -6.04023,2.63183 -13.74673,0.69863 -19.58394,-1.54014 -4.36269,-1.80947 -15.57944,-7.6542 -19.03056,-10.69619 -2.16734,-1.9103 -3.11787,-4.82549 -3.29356,-7.65523 -0.4351,-7.0041 3.22076,-15.23833 7.79707,-20.40869 6.24224,-7.052634 14.28506,-11.391403 23.75147,-11.944089 z"
     id="path119"
     style="fill:#191819;fill-opacity:1;stroke-width:0.341797" />
  <path
     fill="#2c2824"
     d="m 238.37222,100.55562 c 1.02299,-0.08 1.91953,-0.0574 2.91894,0.19653 2.98867,0.75913 5.37613,2.93432 6.91011,5.55386 2.80752,4.7937 2.73267,10.01157 1.36206,15.24619 l -0.15518,0.0178 c -0.12441,-0.80391 0.23892,-1.77939 0.36812,-2.5833 0.73144,-4.55137 -0.0858,-9.652 -2.83931,-13.40972 -2.26098,-3.08574 -4.80737,-4.44096 -8.56474,-5.02133 z"
     id="path120"
     style="stroke-width:0.341797" />
  <path
     fill="#3d3b3d"
     d="m 233.21621,102.9458 c 0.82407,-0.16133 1.85254,-0.11894 2.69404,-0.0858 3.36329,0.13228 6.50918,1.70044 8.76744,4.17676 2.71626,2.97773 4.29262,7.9249 4.07763,11.92324 -0.23208,4.3186 -2.61338,8.05376 -5.80234,10.84897 -3.76387,3.29937 -8.89356,5.79825 -13.99009,5.48516 -3.79839,-0.32573 -9.51084,-1.87373 -12.57129,-4.20171 -2.02207,-1.53808 -3.18965,-3.74917 -3.4918,-6.24634 -0.5479,-4.53017 2.04498,-9.17417 4.75987,-12.60205 3.83496,-4.84258 9.34267,-8.61259 15.55654,-9.29824 z"
     id="path121"
     style="stroke-width:0.341797" />
  <path
     fill="#587D82"
     d="m 220.43232,114.71455 c 1.35523,-0.0909 2.55015,-0.0971 3.81001,0.51816 1.47178,0.7188 2.43086,2.05762 2.90494,3.59878 0.87397,2.84273 0.39682,6.27164 -1.04454,8.85015 -1.1874,2.12393 -2.83828,3.61006 -5.2083,4.2752 -1.02881,-0.079 -2.01181,-0.38453 -2.92236,-0.86885 -1.93594,-1.02949 -3.23477,-2.86494 -3.80454,-4.95845 -0.70684,-2.59595 -0.38452,-5.55317 1.03838,-7.85586 1.24482,-2.01352 2.99311,-3.00576 5.22641,-3.55913 z"
     id="path122"
     style="fill:#0eb5cc;fill-opacity:1;stroke-width:0.341797" />
  <path
     fill="#3d3b3d"
     d="m 225.03462,120.9814 c 0.0284,0.26591 0.0294,0.50893 -3.4e-4,0.77519 -0.27993,2.50777 -0.67744,5.05825 -2.83179,6.68965 -1.14023,0.86372 -2.58262,1.3043 -4.00825,1.0688 -1.19287,-0.19722 -2.19605,-0.84356 -2.87998,-1.83716 -1.00933,-1.46562 -1.19322,-3.4248 -0.88867,-5.13926 0.39135,-2.20185 1.54458,-4.21469 3.43676,-5.46704 1.10469,-0.7311 2.35259,-1.00727 3.64732,-0.7393 1.05547,0.0373 2.4312,0.029 3.23511,0.83774 0.57866,0.58276 0.6812,1.39829 0.65932,2.18887 -0.0106,0.39306 -0.10937,0.74511 -0.21875,1.11836 l -0.0882,0.30556 c -0.0198,0.0666 -0.0417,0.13228 -0.0626,0.19859 z"
     id="path123"
     style="stroke-width:0.341797" />
  <path
     fill="#fefffe"
     d="m 221.50967,116.33228 c 1.05547,0.0373 2.4312,0.029 3.23511,0.83774 0.57866,0.58276 0.6812,1.39829 0.65932,2.18887 -0.0106,0.39306 -0.10937,0.74511 -0.21875,1.11836 l -0.0882,0.30556 c -0.0198,0.0666 -0.0417,0.13228 -0.0626,0.19859 -0.35957,0.5144 -0.70479,1.04795 -1.25508,1.37675 -0.61284,0.36573 -1.33335,0.44195 -2.01626,0.24165 -0.94883,-0.27822 -1.71445,-1.07836 -2.12358,-1.95815 -0.38145,-0.82031 -0.48228,-1.75752 -0.14903,-2.61133 0.36402,-0.93174 1.15459,-1.31762 2.019,-1.69804 z"
     id="path124"
     style="stroke-width:0.341797" />
  <path
     fill="#fefffe"
     d="m 232.05342,104.83389 c 1.05649,0.008 2.10547,0.0684 3.14658,0.25942 3.52632,0.64839 6.58027,2.48008 8.58389,5.479 2.11298,3.16163 3.07719,7.70684 2.30815,11.44712 -0.79365,3.86094 -4.04346,7.19312 -7.25361,9.2627 -4.14395,2.67183 -8.88194,3.03721 -13.60659,2.00976 l -2.86392,-0.70854 c 2.61714,-1.15801 4.39893,-3.14966 5.44517,-5.77739 1.13886,-2.85982 1.36308,-6.4439 0.0817,-9.29346 -0.75264,-1.67378 -2.07129,-3.09702 -3.83018,-3.71089 -2.40625,-0.83979 -4.74175,-0.16064 -6.93062,0.89961 0.67437,-0.92559 1.36206,-1.83647 2.10513,-2.70874 3.4436,-4.0438 7.44912,-6.72519 12.81431,-7.15859 z"
     id="path125"
     style="stroke-width:0.341797" />
  <path
     style="fill:#242324;fill-opacity:1;stroke:#606060;stroke-width:2.58366;stroke-opacity:1"
     d="m 211.05344,296.19458 c 71.4693,-96.31131 180.99762,27.5692 -4.65897,32.76531"
     id="path126"
     sodipodi:nodetypes="cc" />
</svg>
