<?xml version="1.0" encoding="UTF-8" standalone="no"?>
<svg
   width="350"
   height="350"
   version="1.1"
   id="svg93"
   sodipodi:docname="panda.svg"
   inkscape:version="1.3.1 (9b9bdc1480, 2023-11-25, custom)"
   xmlns:inkscape="http://www.inkscape.org/namespaces/inkscape"
   xmlns:sodipodi="http://sodipodi.sourceforge.net/DTD/sodipodi-0.dtd"
   xmlns="http://www.w3.org/2000/svg"
   xmlns:svg="http://www.w3.org/2000/svg">
  <sodipodi:namedview
     id="namedview93"
     pagecolor="#ffffff"
     bordercolor="#999999"
     borderopacity="1"
     inkscape:showpageshadow="2"
     inkscape:pageopacity="0"
     inkscape:pagecheckerboard="0"
     inkscape:deskcolor="#d1d1d1"
     inkscape:clip-to-page="false"
     inkscape:zoom="1.0413252"
     inkscape:cx="547.85958"
     inkscape:cy="230.47555"
     inkscape:window-width="1920"
     inkscape:window-height="954"
     inkscape:window-x="0"
     inkscape:window-y="27"
     inkscape:window-maximized="1"
     inkscape:current-layer="svg93" />
  <path
     style="fill:#fffcfb;stroke:none;stroke-width:1;stroke-dasharray:none;fill-opacity:1"
     d="m 253.69509,32.606266 c -10.81655,-3.082995 -20.09756,-10.387501 -35.24451,-7.166476 -5.66084,4.592401 3.13357,8.670001 19.24175,12.487131 -20.30756,-6.144101 -29.25927,-1.45827 -39.10396,2.375938 -8.379,6.841036 1.43904,6.774432 9.91889,7.215806 -7.07778,-0.174255 -1.80408,4.782332 -2.07856,7.434189 l -5.82268,4.813132 -31.41229,31.844866 c -23.61925,31.413508 -4.55249,55.317828 34.56408,75.695058 6.91029,11.68102 -9.72501,21.77804 22.45492,17.73206 8.8424,-1.11175 27.80302,-19.72054 46.44882,-22.38775 3.8555,-2.7589 5.15591,-3.37877 9.43245,-7.72903 0.52536,-0.53441 0.0713,4.60655 2.30101,3.86668 2.28684,-0.75882 6.25029,-9.91232 6.26518,-10.55134 0.0376,-1.61217 1.66963,2.26233 2.6086,1.05062 6.21918,-8.02561 9.21794,-22.1429 10.48931,-39.12363 1.61949,-10.892887 4.40256,-20.755244 -21.66735,-56.171446 z"
     id="path1"
     sodipodi:nodetypes="cccccccccscssssccc" />
  <path
     fill="#232122"
     d="m 207.75542,59.854785 c 2.08496,6.568994 -1.83853,17.144873 -4.90684,23.031641 -3.59262,6.893017 -8.30566,12.711426 -14.52295,17.408054 -0.14116,-0.202 -0.31992,-0.391013 -0.47919,-0.579343 0.76938,-0.992237 3.01567,-2.451709 4.08208,-3.414209 2.59628,-2.343701 4.62758,-4.978614 6.61035,-7.840137 q 0.8562,-1.244824 1.64131,-2.535107 0.78544,-1.290625 1.49741,-2.623291 0.71196,-1.332325 1.34839,-2.702247 0.63642,-1.370263 1.19526,-2.773681 0.55884,-1.40376 1.03838,-2.836231 0.47954,-1.43247 0.87842,-2.88955 0.39887,-1.45708 0.71572,-2.934327 0.31685,-1.476904 0.55063,-2.969531 c 0.20884,-1.367529 0.60601,-2.969189 0.3483,-4.328857 -0.11827,-0.624121 -0.3254,-1.442725 0.003,-2.013184 z"
     id="path2"
     style="stroke-width:0.341797" />
  <path
     fill="#232122"
     d="m 144.17095,68.601709 c 2.62397,-0.420752 5.79892,0.230713 8.42256,0.577637 -6.90259,1.568847 -13.01119,1.905859 -19.84781,4.421484 q -3.26211,1.298828 -6.39126,2.89126 0.16475,-0.20542 0.33496,-0.406397 c 4.26426,-5.006298 11.18736,-6.981884 17.48155,-7.483984 z"
     id="path3"
     style="stroke-width:0.341797" />
  <path
     fill="#232122"
     d="m 136.63535,35.582422 c 2.93638,0.716406 6.04912,2.5375 8.43179,4.373974 6.00058,4.624854 9.62124,11.612891 10.61279,19.051075 -0.99873,-0.918067 -3.35747,-5.942481 -4.23862,-7.494239 -1.09888,-1.93457 -2.2856,-3.87666 -3.6104,-5.664941 -2.22988,-3.009521 -5.00083,-5.509082 -7.94883,-7.792969 -0.98437,-0.762549 -2.08599,-1.438623 -3.01294,-2.261328 z"
     id="path4"
     style="stroke-width:0.341797" />
  <path
     fill="#232122"
     d="m 131.34023,54.585303 c 0.95772,-0.101172 1.95166,-0.06289 2.91211,-0.0075 8.26773,0.476465 14.91158,4.05918 20.36324,10.168115 -1.29952,-0.864404 -2.56621,-1.688134 -3.97749,-2.365918 -8.91714,-4.311767 -15.64336,-6.283935 -25.62725,-6.360498 2.1082,-0.796728 4.079,-1.25747 6.32939,-1.434179 z"
     id="path5"
     style="stroke-width:0.341797" />
  <path
     fill="#232122"
     d="m 245.59473,50.105371 c 0.65044,-0.04854 1.31728,-0.112793 1.96977,-0.08682 4.14155,0.165771 7.67471,2.996875 10.35508,5.929492 5.45542,5.968457 7.31377,13.432275 6.9231,21.331201 q -0.76119,-2.010791 -1.55997,-4.006885 C 260.09033,65.682422 253.05103,57.78999 244.85679,55.62915 c -1.02539,-0.270703 -4.54966,-0.577295 -5.11021,-1.087255 -0.069,-0.438184 -0.0803,-0.546875 0.14629,-0.95669 0.9396,-1.696338 3.92485,-3.023877 5.70186,-3.479834 z"
     id="path6"
     style="stroke-width:0.341797" />
  <path
     fill="#232122"
     d="m 218.21304,72.692676 c 4.5688,-4.24751 10.90127,-7.764942 17.30244,-7.544483 6.83628,0.235157 12.95068,5.03125 17.42617,9.873145 8.07939,8.74043 12.33989,22.168945 11.85283,33.966062 -0.25669,6.21763 -1.78452,13.48457 -6.55464,17.87974 -5.47797,5.04697 -14.03315,5.82012 -21.12475,5.47285 -5.49268,-0.26934 -11.09986,-1.34805 -16.3461,-2.98833 0.6795,0.8938 1.74078,2.0231 1.91851,3.16162 l -0.18833,0.28301 c -0.44058,-0.10151 -2.89229,-3.05293 -3.56357,-3.6398 -3.25186,-2.84306 -6.98838,-5.00493 -10.14624,-7.99121 -1.55484,-1.47041 -2.98902,-3.09189 -4.11968,-4.91469 -3.30073,-5.3211 -3.95391,-11.41978 -2.49239,-17.435404 0.98951,-4.07251 5.18541,-14.199268 8.08829,-17.268604 l 0.7957,-0.54585 c -0.0831,0.269678 -0.14629,0.388965 -0.2854,0.623438 -0.18594,0.313086 -0.27378,0.566016 -0.34111,0.927295 -3.60425,6.178662 -7.57422,13.060742 -8.14434,20.333835 -0.44536,5.6752 1.7394,11.10635 5.39971,15.36514 1.79409,2.08735 8.75547,8.20928 11.20102,9.30576 0.89688,0.40195 1.96431,0.54995 2.90493,0.84561 4.70415,1.47827 8.44922,2.22954 13.3899,2.6209 6.54985,0.5185 16.67627,-0.22012 21.88491,-4.72876 4.66997,-4.04244 6.14346,-10.15992 6.55737,-16.09727 0.81519,-11.686719 -2.96201,-25.046192 -10.76387,-33.886084 -4.50214,-5.101319 -10.50957,-9.88169 -17.56357,-10.291504 -5.60376,-0.325733 -11.99399,3.220752 -16.03335,6.846533 -0.76733,0.267627 -1.56987,0.760156 -2.12632,1.355566 -0.29292,0.313428 -0.66787,0.879444 -1.07085,1.00044 0.62515,-0.897217 1.86485,-1.512451 2.14273,-2.528955 z"
     id="path7"
     style="stroke-width:0.341797" />
  <path
     fill="#232122"
     d="m 204.59482,168.95737 c -0.91157,-0.53183 -2.09384,-0.80083 -3.09257,-1.12895 -15.21578,-5.00152 -30.46846,-16.95552 -37.71319,-31.35371 -4.981,-9.89947 -7.55747,-20.96514 -3.90913,-31.7878 1.3959,-4.14018 3.51333,-7.772799 6.34717,-11.087887 3.72114,-4.353125 8.98379,-6.845507 13.05698,-10.83496 6.85987,-6.719043 16.04873,-21.177735 23.97329,-25.008936 0.85142,-0.411523 2.07813,-0.913281 3.01363,-0.474072 0.87021,0.409131 1.15698,1.543213 1.45229,2.374804 -0.0793,-0.0376 -0.1603,-0.07144 -0.23755,-0.113134 -0.94575,-0.508252 -0.71914,-1.677198 -2.00464,-1.88501 -5.98896,1.876123 -10.56494,8.797851 -14.29975,13.483545 -3.49351,4.383203 -6.8626,9.056933 -10.80864,13.048095 -3.45113,3.49043 -7.94371,5.757227 -11.21812,9.440772 1.94482,0.807324 3.7102,1.968408 4.59785,3.969971 0.11724,0.26455 0.0834,0.211914 0.13877,0.549951 l -0.10596,0.08818 -0.10903,-0.219775 c -0.91909,-1.811182 -2.14204,-3.114453 -4.06055,-3.831885 l -0.22627,0.08066 c 0.26182,0.244385 0.0954,0.129883 0.43853,0.27583 1.077,0.458008 2.16016,1.577735 2.74155,2.55835 0.1251,0.210889 0.2625,0.374268 0.41905,0.560889 0.27822,0.332226 0.35444,0.557812 0.4498,0.976513 -1.53979,-1.693261 -2.63799,-3.318164 -4.72295,-4.427636 -5.48686,5.295117 -8.37778,13.889935 -8.49878,21.384515 -0.20234,12.51387 6.92344,24.13326 15.41504,32.82515 10.09019,10.32808 23.26885,16.60757 36.9438,20.677 q 2.54058,0.75264 5.15395,1.18809 c 1.31592,0.2167 3.16333,0.19585 4.37603,0.70239 -1.28447,0.75742 -9.33857,-0.49526 -11.12788,-0.84116 -1.48613,-0.28677 -3.68525,-1.0876 -5.15942,-0.95772 l -0.2273,-0.24848 c -0.28369,0.0543 -0.49663,0.0906 -0.78784,0.0526 -0.0697,-0.009 -0.13877,-0.0239 -0.20816,-0.0362 z"
     id="path8"
     style="stroke-width:0.341797" />
  <path
     fill="#515151"
     d="m 169.15459,93.630127 c 3.27441,-3.683545 7.76699,-5.950342 11.21812,-9.440772 3.94604,-3.991162 7.31513,-8.664892 10.80864,-13.048095 3.73481,-4.685694 8.31079,-11.607422 14.29975,-13.483545 1.2855,0.207812 1.05889,1.376758 2.00464,1.88501 0.0773,0.0417 0.15825,0.07554 0.23755,0.113134 l 0.0321,0.198926 c -0.32813,0.570459 -0.121,1.389063 -0.003,2.013184 0.25771,1.359668 -0.13946,2.961328 -0.3483,4.328857 q -0.23378,1.492627 -0.55063,2.969531 -0.31685,1.477247 -0.71572,2.934327 -0.39888,1.45708 -0.87842,2.88955 -0.47954,1.432471 -1.03838,2.836231 -0.55884,1.403418 -1.19526,2.773681 -0.63643,1.369922 -1.34839,2.702247 -0.71196,1.332666 -1.49741,2.623291 -0.78511,1.290283 -1.64131,2.535107 c -1.98277,2.861523 -4.01407,5.496436 -6.61035,7.840137 -1.06641,0.9625 -3.3127,2.421972 -4.08208,3.414209 -0.71641,0.337693 -1.65601,0.530813 -2.43121,0.266943 -0.29702,-0.101172 -0.18867,-0.03555 -0.33701,-0.358545 0.45391,-1.034961 1.51211,-1.814941 2.13521,-2.770947 3.41762,-5.242822 8.40273,-12.447901 10.55332,-18.141553 0.85039,-2.251758 2.20288,-5.887793 1.04419,-8.214746 -0.31104,-0.624463 -0.86509,-1.03667 -1.52578,-1.237305 -0.8938,-0.271045 -1.83033,0.02085 -2.61099,0.473389 -1.51245,0.876025 -2.64482,2.376856 -3.77549,3.673633 -4.5435,5.21206 -8.82007,11.080371 -10.53281,17.913232 -0.76939,3.068994 -0.60498,5.776026 1.06059,8.523389 -1.53193,-0.513037 -3.05532,-0.853125 -4.6539,-1.090674 -0.69385,-0.103223 -1.93013,0.01025 -2.51528,-0.244385 -0.15621,-0.06802 -0.24405,-0.238232 -0.36607,-0.357519 -0.0554,-0.338037 -0.0215,-0.285401 -0.13877,-0.549951 -0.88765,-2.001563 -2.65303,-3.162647 -4.59785,-3.969971 z"
     id="path9"
     style="stroke-width:0.341797;fill:#4b4b4b;fill-opacity:1" />
  <defs
     id="defs10">
    <linearGradient
       id="gradient_0"
       gradientUnits="userSpaceOnUse"
       x1="640.84015"
       y1="413.58591"
       x2="511.54895"
       y2="250.44586"
       gradientTransform="scale(0.34179688)">
      <stop
         offset="0"
         stop-color="#191714"
         id="stop9" />
      <stop
         offset="1"
         stop-color="#2F2E30"
         id="stop10" />
    </linearGradient>
  </defs>
  <path
     fill="url(#gradient_0)"
     d="m 181.42646,99.842627 c -1.66557,-2.747363 -1.82998,-5.454395 -1.06059,-8.523389 1.71274,-6.832861 5.98931,-12.701172 10.53281,-17.913232 1.13067,-1.296777 2.26304,-2.797608 3.77549,-3.673633 0.78066,-0.452539 1.71719,-0.744434 2.61099,-0.473389 0.66069,0.200635 1.21474,0.612842 1.52578,1.237305 1.15869,2.326953 -0.1938,5.962988 -1.04419,8.214746 -2.15059,5.693653 -7.1357,12.898731 -10.55332,18.141553 -0.6231,0.956006 -1.6813,1.735986 -2.13521,2.770947 0.14834,0.322998 0.04,0.257373 0.33701,0.358545 0.7752,0.26387 1.7148,0.07075 2.43121,-0.266943 0.15927,0.18833 0.33803,0.377343 0.47919,0.579343 0.31753,0.51099 2.25689,1.12281 2.89502,1.45059 2.87281,1.47622 4.41294,3.86948 5.37613,6.8438 -1.08794,-0.93994 -1.98448,-2.21485 -2.96953,-3.27237 -3.26929,-3.51093 -6.86499,-4.11386 -11.4396,-4.52812 1.56611,1.44375 3.07412,2.80547 4.3309,4.54761 1.40752,1.95131 2.96167,4.77968 2.47769,7.26045 -0.296,1.51723 -1.3313,2.77915 -2.5833,3.63432 -2.22988,1.52339 -5.23599,1.97866 -7.85244,1.40889 -4.00244,-0.87193 -6.76758,-3.76524 -8.88911,-7.09981 q -0.15039,1.46221 -0.13365,2.93194 c 0.027,4.49428 1.25713,10.76284 4.60093,14.02837 4.23111,4.13232 12.29102,5.41782 17.94331,5.24384 5.21206,-0.16064 12.34365,-1.36547 16.09761,-5.36142 -1.45708,-1.08589 -3.18076,-1.98892 -4.41431,-3.32979 4.65288,1.35967 8.53741,4.18907 10.98467,8.41094 -1.82622,-1.59311 -3.61689,-3.23135 -5.69297,-4.49736 l -1.07768,1.55278 c 0.8456,6.20703 1.83134,12.80474 -0.45528,18.83779 -1.08486,2.86221 -3.11889,5.92744 -6.04433,7.14629 -1.78965,0.7458 -3.55196,0.56192 -5.30264,-0.19414 -7.9167,-3.4207 -11.56265,-14.90679 -14.47476,-22.39897 -1.08554,-0.24781 -2.19877,-0.55132 -3.23818,-0.95122 -3.79634,-1.46153 -6.60146,-3.81617 -8.23935,-7.57764 -1.50152,-3.44805 -2.16187,-7.57627 -1.93184,-11.32441 0.0858,-1.39966 0.33872,-2.81197 0.35718,-4.21197 0.0308,-2.36421 -0.60635,-4.41943 0.34795,-6.73784 0.82954,-2.01557 2.54331,-2.722411 4.44028,-3.468212 -0.0954,-0.418701 -0.17158,-0.644287 -0.4498,-0.976513 -0.15655,-0.186621 -0.29395,-0.35 -0.41905,-0.560889 -0.58139,-0.980615 -1.66455,-2.100342 -2.74155,-2.55835 -0.34316,-0.145947 -0.17671,-0.03144 -0.43853,-0.27583 l 0.22627,-0.08066 c 1.91851,0.717432 3.14146,2.020703 4.06055,3.831885 l 0.10903,0.219775 0.10596,-0.08818 c 0.12202,0.119287 0.20986,0.289502 0.36607,0.357519 0.58515,0.254639 1.82143,0.141162 2.51528,0.244385 1.59858,0.237549 3.12197,0.577637 4.6539,1.090674 z"
     id="path10"
     style="fill:url(#gradient_0);stroke-width:0.341797" />
  <path
     fill="#fefefd"
     d="m 189.80493,82.518311 c 0.34282,-0.0082 0.66582,0.02222 1.00625,0.06084 0.2314,0.220801 0.33667,0.264551 0.42998,0.584815 0.36265,1.24209 -0.82544,3.07583 -1.38564,4.151123 -0.1145,0.09741 -0.0274,0.03691 -0.30489,0.09092 -0.59643,-0.759815 -0.79946,-1.85083 -0.75468,-2.799658 0.0441,-0.932764 0.34282,-1.45503 1.00898,-2.088037 z"
     id="path11"
     style="stroke-width:0.341797" />
  <path
     fill="#fefefd"
     d="m 175.7123,101.33184 c 0.77383,-0.0246 1.48956,3.4e-4 2.22339,0.2748 1.82486,0.68325 4.4502,2.31089 5.18233,4.19351 0.24131,0.6207 0.24096,0.93994 -0.0103,1.53808 -1.04384,0.0482 -1.90517,-0.08 -2.88818,-0.45083 -1.72676,-0.6518 -3.87734,-1.90141 -4.62075,-3.65722 -0.31172,-0.73555 -0.19824,-1.18706 0.11347,-1.89834 z"
     id="path12"
     style="stroke-width:0.341797" />
  <path
     fill="#fefefd"
     d="m 196.48193,70.746826 c 0.30352,0.02461 0.52022,0.0916 0.80733,0.185254 0.29326,0.27002 0.4915,0.487744 0.59404,0.884912 1.0999,4.26836 -4.3562,13.279151 -6.57549,16.94458 l -0.11211,-0.07964 -0.0417,0.273779 c 0.0164,-0.03965 0.0455,-0.07588 0.0485,-0.118262 0.0253,-0.347607 0.0332,-0.524316 0.13569,-0.867822 0.67266,-1.929102 1.36138,-3.89751 1.54834,-5.944873 0.14629,-1.603369 0.0964,-3.688672 -1.01616,-4.952295 -0.56157,-0.637793 -1.06538,-0.746143 -1.88774,-0.751953 -0.0687,-6.84e-4 -0.13706,0.0038 -0.20577,0.0055 0.0407,-0.109034 0.0725,-0.221485 0.12168,-0.326758 0.6836,-1.463574 5.02579,-4.668946 6.58335,-5.252393 z"
     id="path13"
     style="stroke-width:0.341797;fill:#35d1eb;fill-opacity:1" />
  <path
     fill="#7a3130"
     d="m 207.00552,130.06089 0.11177,0.0919 c 0.59746,2.69097 0.65864,5.65947 0.86167,8.40445 -2.03472,-0.49253 -4.09747,-0.9608 -6.20499,-0.83672 -2.975,0.175 -5.73945,1.34497 -7.70991,3.62646 -2.4476,2.83418 -2.37549,5.96914 -2.08769,9.44487 -1.27525,-1.49809 -2.2938,-3.13051 -3.27989,-4.82822 -2.44863,-3.99629 -4.17744,-8.58559 -6.04843,-12.87514 8.40547,1.88501 16.8916,1.61704 24.35747,-3.02764 z"
     id="path14"
     style="stroke-width:0.341797" />
  <path
     fill="#c66b77"
     d="m 201.59761,138.83174 c 2.04907,-0.27276 4.20957,0.0304 6.22378,0.41767 -0.0246,4.35039 -0.74204,9.41753 -3.66441,12.86182 -1.33506,1.57329 -2.83725,2.44214 -4.89692,2.61133 -2.42608,-0.43306 -4.19966,-1.64473 -6.07578,-3.17324 -0.444,-3.1794 -0.65283,-6.39263 1.40854,-9.11778 1.72095,-2.27534 4.27212,-3.26552 7.00479,-3.5998 z"
     id="path15"
     style="stroke-width:0.341797" />
  <path
     fill="#515151"
     d="m 219.26748,72.865625 c 4.03936,-3.625781 10.42959,-7.172266 16.03335,-6.846533 7.054,0.409814 13.06143,5.190185 17.56357,10.291504 7.80186,8.839892 11.57906,22.199365 10.76387,33.886084 -0.41391,5.93735 -1.8874,12.05483 -6.55737,16.09727 -5.20864,4.50864 -15.33506,5.24726 -21.88491,4.72876 -4.94068,-0.39136 -8.68575,-1.14263 -13.3899,-2.6209 -0.94062,-0.29566 -2.00805,-0.44366 -2.90493,-0.84561 -2.44555,-1.09648 -9.40693,-7.21841 -11.20102,-9.30576 -3.66031,-4.25879 -5.84507,-9.68994 -5.39971,-15.36514 0.57012,-7.273093 4.54009,-14.155173 8.14434,-20.333835 0.0673,-0.361279 0.15517,-0.614209 0.34111,-0.927295 0.13911,-0.234473 0.20234,-0.35376 0.2854,-0.623438 l -0.7957,0.54585 c 1.83305,-3.251514 5.07739,-6.494824 7.94746,-8.853906 -0.27788,1.016504 -1.51758,1.631738 -2.14273,2.528955 0.40298,-0.120996 0.77793,-0.687012 1.07085,-1.00044 0.55645,-0.59541 1.35899,-1.087939 2.12632,-1.355566 z"
     id="path16"
     style="stroke-width:0.341797;fill:#4b4b4b;fill-opacity:1" />
  <path
     fill="#232122"
     d="m 237.58916,70.741016 c 2.19536,0.207129 4.39858,1.714795 5.86353,3.30039 q 0.28403,0.31001 0.55234,0.633692 0.26831,0.323681 0.52056,0.660009 0.2519,0.336329 0.4874,0.684961 0.23515,0.348291 0.45322,0.707862 0.21807,0.35957 0.41802,0.729394 0.19995,0.369824 0.38144,0.748877 0.1815,0.379395 0.34419,0.766992 0.1627,0.387598 0.30625,0.782715 0.14356,0.395117 0.26729,0.797071 0.12407,0.401611 0.22798,0.809033 0.1039,0.407422 0.18799,0.819287 0.0837,0.412207 0.14731,0.82749 0.0636,0.415625 0.10664,0.833984 0.0431,0.41836 0.0653,0.838086 0.0226,0.419727 0.0243,0.840137 0.002,0.42041 -0.0171,0.840479 c -0.16953,-0.138428 -0.2977,-0.303174 -0.40093,-0.498682 -0.48159,-0.911572 -0.78818,-2.055566 -1.16074,-3.025244 -0.7499,-1.950977 -1.62832,-3.91084 -2.70293,-5.706299 -1.57192,-2.627051 -4.17436,-3.953564 -5.97632,-6.262402 -0.0328,-0.04204 -0.0639,-0.08511 -0.0957,-0.127832 z"
     id="path17"
     style="stroke-width:0.341797" />
  <path
     fill="#232122"
     d="m 228.27451,76.282568 c 0.0516,-0.0065 0.10322,-0.01572 0.15518,-0.01948 3.08745,-0.211231 6.55053,1.42666 8.81767,3.44668 3.5899,3.198535 5.76304,8.506982 5.98623,13.263086 0.29942,6.376562 -2.64004,13.668456 -6.95283,18.312446 -3.49624,3.7649 -7.33838,5.26128 -12.39082,5.45987 -3.97202,-0.003 -7.72222,-0.2044 -10.98125,-2.73096 -2.72549,-2.11299 -4.17983,-5.26948 -4.58828,-8.64575 -0.98711,-8.164503 3.23511,-15.513136 8.10537,-21.66172 3.03345,-3.829492 6.8626,-6.850293 11.84873,-7.42417 z"
     id="path18"
     style="stroke-width:0.341797" />
  <path
     fill="#fefefd"
     d="m 215.84575,94.517432 c 1.17168,-0.03247 2.05147,0.04751 2.9251,0.909863 0.54072,0.533545 0.8292,1.208594 0.79297,1.971826 -0.0482,1.009668 -0.62036,1.591065 -1.319,2.250733 -1.14604,0.0092 -2.07641,-0.182862 -2.91792,-1.02129 -0.5267,-0.525 -0.83877,-1.218164 -0.7916,-1.969091 0.0591,-0.946094 0.62993,-1.552784 1.31045,-2.142041 z"
     id="path19"
     style="stroke-width:0.341797" />
  <path
     fill="#fefefd"
     d="m 228.10327,78.504248 c 0.21875,-0.01367 0.42486,-0.02358 0.64429,-0.0075 3.29971,0.245068 6.68247,2.325927 8.76025,4.841552 3.10352,3.757715 4.32681,9.075733 3.87359,13.85918 -0.52808,5.56753 -3.13428,11.28135 -7.51851,14.85005 -3.1541,2.56724 -5.96401,3.23989 -9.94458,2.8188 l -4.15522,-0.28779 c 0.51645,-0.65489 0.98095,-1.29747 1.35044,-2.04976 2.50092,-5.09448 3.1083,-12.573341 1.20756,-17.949122 -0.7663,-2.166993 -2.28388,-4.859326 -4.47172,-5.816358 -1.44581,-0.632324 -2.41993,-0.442627 -3.8295,0.106641 q 0.59815,-0.842529 1.23286,-1.657715 c 3.16231,-4.110449 7.52569,-8.026074 12.85054,-8.707959 z"
     id="path20"
     style="stroke-width:0.341797;fill:#35d1eb;fill-opacity:1" />
  <path
     fill="#232122"
     d="m 111.67427,238.32539 c 0.1521,-2.50605 -0.30591,-5.14165 -0.58345,-7.63711 -0.8832,-7.94507 -2.13794,-15.99746 -3.83872,-23.80957 -2.275,-10.45112 -4.75815,-20.88994 -8.799903,-30.82358 -3.929638,-9.65884 -9.273291,-18.82891 -14.362988,-27.90943 -0.682227,-1.21748 -4.163428,-7.8685 -4.946826,-8.32583 -0.231397,-0.13501 -0.315479,-0.18935 -0.478516,-0.3958 0.390332,-2.07197 2.110254,-4.11968 3.512647,-5.63076 0.953955,-1.02812 2.274658,-2.46709 3.629882,-2.91587 3.478125,-1.15151 8.284473,-1.3624 11.99502,-1.8146 l 15.885014,-2.04326 q 7.54174,-0.96489 15.07324,-2.00806 c 3.85991,-0.52329 7.75263,-1.11801 11.64844,-1.27387 1.22158,0.69589 3.46206,2.41377 4.07592,3.65517 -0.0126,0.27344 -0.0567,0.60293 0.0427,0.86646 0.29599,0.78545 0.86748,1.60918 1.26123,2.36489 q 1.22329,2.39839 2.37173,4.83369 4.12275,8.79238 8.02881,17.68355 c 4.97485,11.3039 9.76889,22.81665 13.54917,34.5789 7.07861,-1.83442 13.7351,-3.82744 19.856,-8.00967 4.64194,-3.17153 9.84307,-9.09145 15.00112,-10.75327 0.0694,0.0123 0.13843,0.0274 0.20816,0.0362 0.29121,0.0379 0.50415,0.002 0.78784,-0.0526 l 0.2273,0.24848 c 0.35888,0.60293 0.76835,1.20894 1.04008,1.8563 l -0.10561,0.0496 c -0.42725,-0.14492 -0.56192,-0.70307 -0.76289,-1.10093 l -0.11758,0.0103 -0.0243,0.89004 c 1.76607,5.06953 4.52403,9.24287 7.00957,13.93779 q -9.32729,6.95933 -19.0521,13.35195 c -2.51972,1.66763 -5.03535,3.49454 -7.64565,5.0104 l -0.20337,-0.0697 c -0.33872,0.23344 -0.45493,0.33154 -0.87261,0.38896 l -0.0431,0.30796 c -1.39556,0.9772 -7.61524,4.75508 -8.9462,5.04527 -0.37255,0.17807 -0.72255,0.31787 -1.03667,0.59062 -0.08,0.0649 -0.15859,0.13091 -0.2396,0.19482 -0.70854,0.55782 -1.68164,0.9396 -2.48623,1.34873 -2.97671,1.51348 -6.06757,3.06592 -7.99223,5.9189 -0.90098,1.33574 -1.22124,3.03277 -2.05625,4.31895 -0.0793,0.51235 -0.11758,1.10844 -0.29771,1.59072 -2.35019,1.17954 -5.08423,1.95303 -7.58823,2.74155 l -9.65371,3.02866 q -9.94766,3.19341 -19.93325,6.26651 c -4.23008,1.30566 -8.72539,3.00849 -13.13628,3.45864 z"
     id="path21"
     style="stroke-width:0.341797" />
  <path
     fill="#fefefd"
     d="m 148.80093,193.20479 c 0.25156,0.30146 0.53525,0.68461 0.68906,1.04555 0.21431,0.50313 0.0564,0.83945 -0.12031,1.31968 -0.22832,-0.13569 -0.38692,-0.25054 -0.54107,-0.47715 -0.4122,-0.60566 -0.18286,-1.2373 -0.0277,-1.88808 z"
     id="path22"
     style="stroke-width:0.341797" />
  <path
     fill="#a47d57"
     d="m 82.644775,135.47051 c 0.90542,-0.99395 2.037793,-2.43325 3.270655,-3.01055 0.411523,0.91226 0.795361,1.84878 1.34292,2.6896 -1.540137,-0.3606 -3.106934,-0.0208 -4.613575,0.32095 z"
     id="path23"
     style="stroke-width:0.341797" />
  <path
     fill="#7f6142"
     d="m 174.05493,207.44336 c 2.53032,-2.25894 5.04971,-4.23213 7.97652,-5.96948 1.03735,0.6395 2.0395,1.36069 3.05224,2.04018 l -0.0431,0.30796 c -1.39555,0.9772 -7.61523,4.75508 -8.94619,5.04527 z"
     id="path24"
     style="stroke-width:0.341797" />
  <path
     fill="#a47d57"
     d="m 160.04331,187.81533 c 0.37837,-0.0246 0.80801,-0.0461 1.171,0.0827 0.42041,0.1497 0.66855,0.53662 0.79194,0.94404 0.74717,2.4647 -0.87739,11.14326 -2.2439,13.40391 -0.56567,0.93584 -1.11733,1.24687 -2.15844,1.50766 -0.66309,-0.24541 -1.14502,-0.6207 -1.5292,-1.21782 -1.25918,-1.9561 -1.07906,-5.10439 -0.61729,-7.30522 0.61284,-2.91861 2.0583,-5.73912 4.58589,-7.41529 z"
     id="path25"
     style="stroke-width:0.341797" />
  <path
     fill="#a47d57"
     d="m 171.25425,196.20337 c 2.64858,0.6125 7.96489,3.51572 10.29287,5.11841 -2.31841,1.18706 -4.30869,2.55322 -6.22754,4.31655 l -1.62695,1.52715 c -2.31875,-1.4957 -4.72876,-2.60689 -6.84961,-4.41773 0.0543,-0.79365 0.16987,-1.50629 0.46006,-2.25175 0.75947,-1.9503 2.006,-3.47129 3.95117,-4.29263 z"
     id="path26"
     style="stroke-width:0.341797" />
  <path
     fill="#a47d57"
     d="m 86.626709,132.11987 c 5.326562,-0.23823 11.867187,-1.43315 17.280571,-2.22099 7.44126,-1.08282 14.88935,-2.05967 22.32036,-3.22349 4.63613,-0.72563 9.44043,-1.72539 14.11928,-1.99336 q 1.61294,1.24312 3.00132,2.73301 c -6.95762,0.39853 -13.98086,1.85083 -20.85952,2.95791 -7.16782,1.15322 -14.37324,2.07607 -21.55371,3.14966 -4.228028,0.63232 -8.599268,1.4875 -12.867627,1.74282 -0.07656,-0.0181 -0.151416,-0.0585 -0.230371,-0.0547 -0.558496,0.0263 -0.137744,0.20235 -0.578662,-0.0612 -0.547559,-0.84082 -0.931397,-1.77734 -1.34292,-2.6896 0.230371,-0.18286 0.437158,-0.24165 0.711279,-0.34009 z"
     id="path27"
     style="stroke-width:0.341797" />
  <path
     fill="#050404"
     d="m 85.91543,132.45996 c 0.230371,-0.18286 0.437158,-0.24165 0.711279,-0.34009 0.473389,0.94336 1.243799,2.12359 1.440674,3.14556 -0.07656,-0.0181 -0.151416,-0.0585 -0.230371,-0.0547 -0.558496,0.0263 -0.137744,0.20235 -0.578662,-0.0612 -0.547559,-0.84082 -0.931397,-1.77734 -1.34292,-2.6896 z"
     id="path28"
     style="stroke-width:0.341797" />
  <path
     fill="#dbc381"
     d="m 104.17148,165.91504 0.40332,0.0127 c 1.39112,1.81049 8.24961,24.78061 9.58125,28.81552 -3.09975,1.84195 -4.61049,5.32827 -6.36425,8.32857 -1.39248,-5.40176 -2.56553,-10.81582 -4.16992,-16.16939 -1.23799,-4.13027 -2.80958,-8.14399 -4.330913,-12.1748 -0.214307,-0.56704 -0.641211,-1.29063 -0.342139,-1.86109 0.116553,-0.22182 0.320606,-0.44126 0.47749,-0.63813 1.036332,-1.75513 2.063772,-3.49111 3.410792,-5.02886 z"
     id="path29"
     style="stroke-width:0.341797" />
  <path
     fill="#dbc381"
     d="m 114.2562,195.62437 c 0.0567,0.0403 0.11997,0.0721 0.16953,0.12065 0.39785,0.39067 4.91778,27.37622 5.30572,29.75615 -2.50572,2.96748 -4.63374,6.421 -6.61207,9.75762 l -0.17534,0.11963 c -0.41391,-0.7564 -0.633,-6.38545 -0.82612,-7.85005 -1.03018,-7.80527 -2.26304,-15.7565 -4.1542,-23.39702 2.1082,-2.91382 3.18145,-6.39195 6.29248,-8.50698 z"
     id="path30"
     style="stroke-width:0.341797" />
  <path
     fill="#dbc381"
     d="m 79.940137,138.43081 c 2.458545,-2.12153 4.712353,-2.41514 7.868164,-2.20527 4.462158,7.04614 8.221924,14.59677 12.284179,21.88423 0.71606,1.28413 3.41899,5.48584 3.76763,6.5977 0.0478,0.1521 0.0297,0.21602 0.0147,0.35718 0.19722,0.33838 0.28609,0.44844 0.29668,0.85039 l -1.33437,1.28447 c -1.34702,1.53775 -2.37446,3.27373 -3.410792,5.02886 l -0.883203,-0.12612 c -0.170898,0.108 -0.05024,0.0458 -0.392724,0.10835 -1.077344,-1.56338 -1.78418,-3.63741 -2.617481,-5.35664 q -2.339941,-4.79576 -4.842236,-9.50879 c -2.162891,-4.07559 -4.467627,-8.10332 -6.796289,-12.08628 -1.322071,-2.26133 -2.77334,-4.49224 -3.954248,-6.82808 z"
     id="path31"
     style="stroke-width:0.341797" />
  <path
     fill="#050404"
     d="m 102.29946,166.44243 c 0.47476,-0.53457 1.01172,-0.94575 1.57534,-1.37778 0.19722,0.33838 0.28609,0.44844 0.29668,0.85039 l -1.33437,1.28447 c -1.34702,1.53775 -2.37446,3.27373 -3.410792,5.02886 l -0.883203,-0.12612 c 0.892432,-2.05933 2.216895,-4.02876 3.756345,-5.65982 z"
     id="path32"
     style="stroke-width:0.341797" />
  <path
     fill="#a47d57"
     d="m 121.34473,226.0918 c 2.80136,-1.04043 5.77158,-1.80879 8.629,-2.69336 7.41221,-2.29517 14.89243,-4.44986 22.27251,-6.83355 5.43765,-1.75649 10.90503,-3.47368 16.28047,-5.41098 1.04248,-0.37564 2.12427,-0.73863 3.11992,-1.225 0.60669,-0.29634 1.1751,-0.79502 1.81904,-0.9854 0.55577,-0.16441 1.12588,0.25293 1.59209,0.5144 -0.08,0.0649 -0.15859,0.13091 -0.2396,0.19482 -0.70854,0.55782 -1.68164,0.9396 -2.48623,1.34873 -2.97671,1.51348 -6.06757,3.06592 -7.99223,5.9189 -0.90098,1.33574 -1.22124,3.03277 -2.05625,4.31895 l -31.8271,10.35371 c -5.7357,1.89492 -11.44986,3.91904 -17.23477,5.65434 2.13145,-3.44975 5.58701,-7.9102 8.12315,-11.15556 z"
     id="path33"
     style="stroke-width:0.341797" />
  <path
     fill="#fefefd"
     d="m 164.7437,179.73013 c 0.77246,0.68598 5.02373,13.60591 5.65093,15.50664 q -0.20132,0.10425 -0.3999,0.21396 c -2.43326,1.35215 -3.40943,3.41763 -4.14224,5.97495 -1.2937,-0.77143 -2.60996,-1.45981 -3.95972,-2.12734 q 0.60874,-2.49854 1.17134,-5.00801 c 0.47612,-2.1875 0.90064,-5.03945 -0.45288,-7.00137 -0.35615,-0.51645 -0.84492,-0.88046 -1.48169,-0.96455 -1.04453,-0.13808 -2.17588,0.36026 -2.99619,0.97173 -2.72036,2.02754 -3.94399,5.60376 -4.36509,8.82862 -0.90986,-0.31719 -1.85322,-0.53218 -2.78633,-0.76973 0.0666,-1.04453 -0.13945,-1.87612 -0.80835,-2.69165 -0.42075,-0.51338 -0.76596,-0.75742 -1.42905,-0.82339 -0.38623,0.18457 -0.5896,0.39717 -0.74751,0.79365 -0.31445,0.79058 -0.47783,1.79102 -0.0694,2.57818 0.7728,1.48818 4.18222,1.81562 5.84028,2.38916 0.12339,1.92363 0.28232,4.62793 1.49536,6.19404 0.56226,0.72563 1.33574,1.21269 2.2586,1.30054 3.42856,0.3271 2.87758,-2.92168 4.39892,-4.17471 l 0.50278,0.19653 q 1.57056,0.73042 3.09087,1.56031 c 1.46255,3.02421 3.94742,4.09404 6.74878,5.61879 -2.43188,1.10914 -5.07397,1.89117 -7.60669,2.74908 q -7.41596,2.53442 -14.92934,4.76225 L 140.64326,188.502 c 8.00249,-3.01054 16.20664,-5.44961 24.10044,-8.77187 z"
     id="path34"
     style="stroke-width:0.341797" />
  <path
     fill="#515151"
     d="m 170.15981,188.87866 c 6.41998,-1.34394 12.57847,-2.89604 18.21607,-6.40698 2.13486,-1.32959 4.17402,-2.87793 6.1144,-4.47754 2.29278,-1.89048 8.05171,-7.65659 10.59536,-8.41299 0.44263,0.3042 0.57149,0.83364 0.76221,1.31353 1.76607,5.06953 4.52403,9.24287 7.00957,13.93779 q -9.32729,6.95933 -19.0521,13.35195 c -2.51972,1.66763 -5.03535,3.49454 -7.64565,5.0104 l -0.20337,-0.0697 c -2.64893,-2.82085 -10.56836,-6.94361 -14.24815,-8.24004 q -0.70717,-3.02046 -1.54834,-6.0064 z"
     id="path35"
     style="stroke-width:0.341797;fill:#222222;fill-opacity:1" />
  <path
     fill="#fefefd"
     d="m 143.7061,128.23843 c 0.18286,0.16782 9.07027,22.18911 10.35474,24.56015 -3.51025,0.9919 -7.12681,1.73565 -10.66372,2.65303 -4.37022,1.1334 -8.76675,2.45547 -13.18516,3.36875 -0.74785,-1.71103 -1.32104,-3.55605 -1.9667,-5.31118 -2.43188,-6.61343 -5.3792,-15.63208 -8.90039,-21.5144 2.14273,-0.40708 4.35279,-0.63096 6.51328,-0.95601 5.94727,-0.89414 11.93282,-1.7189 17.84795,-2.80034 z"
     id="path36"
     style="stroke-width:0.341797" />
  <path
     fill="#a0ca74"
     d="m 140.58481,140.03384 c 0.86373,-0.0598 1.85733,-0.16919 2.70874,0.007 0.63028,0.13022 0.9167,0.45595 1.22911,1.00078 0.31274,0.54585 0.59643,1.17749 0.41665,1.80844 -1.50528,1.2544 -9.69234,3.2146 -12.14336,3.66954 -1.31421,0.20918 -2.7812,0.41186 -4.00655,-0.24747 -0.37426,-0.20097 -0.68632,-0.52294 -0.75434,-0.95839 -0.0783,-0.50074 0.18218,-1.03599 0.49082,-1.41641 1.82485,-2.24834 9.08906,-3.60767 12.05893,-3.86367 z"
     id="path37"
     style="stroke-width:0.341797" />
  <path
     fill="#fefefd"
     d="m 154.06802,154.16543 c 0.33769,-0.0813 0.3001,-0.0543 0.59848,0.0591 1.09341,2.2333 1.98482,4.604 2.94937,6.9002 2.40898,5.73569 4.65391,11.483 6.80347,17.32226 -7.78853,3.06763 -15.80948,5.55864 -23.64312,8.50938 -0.36435,0.0926 -0.17432,0.093 -0.56909,-0.0325 -1.05239,-1.57637 -3.23818,-8.87818 -4.00757,-11.06431 -1.82007,-5.1707 -3.84556,-10.26314 -5.59932,-15.45742 7.70035,-2.39839 15.67857,-4.12002 23.46778,-6.23677 z"
     id="path38"
     style="stroke-width:0.341797" />
  <path
     fill="#c66b77"
     d="m 152.72305,166.51865 c 0.51064,-0.0626 0.84218,-0.13261 1.31181,0.13706 0.85996,0.99873 0.74922,2.42608 0.84458,3.67876 -3.08881,2.02378 -9.68344,3.39986 -13.40732,4.08482 -0.42178,0.0267 -0.97036,-0.0168 -1.31489,-0.28575 -0.40093,-0.31308 -0.5961,-0.98813 -0.68462,-1.46835 -0.13672,-0.73897 -0.0297,-1.44717 0.42246,-2.05899 1.63037,-2.20561 9.9791,-3.71055 12.82798,-4.08755 z"
     id="path39"
     style="stroke-width:0.341797" />
  <path
     fill="#fefefd"
     d="m 129.35371,160.68384 0.10527,0.0318 c 0.44537,0.33906 8.52373,24.14179 9.29927,26.89394 -7.76528,2.28731 -15.75786,4.05747 -23.36352,6.84072 -2.38814,-9.46845 -5.67998,-20.20498 -9.85025,-29.0312 8.00762,-1.16518 15.925,-2.92305 23.80923,-4.73525 z"
     id="path40"
     style="stroke-width:0.341797" />
  <path
     fill="#050404"
     d="m 118.98906,165.64126 c 2.16187,-0.21772 4.59649,-0.12852 6.3335,1.35693 1.39761,1.19458 1.98857,3.1565 2.12461,4.93487 0.33154,4.33842 -2.51187,9.00224 -5.24112,12.14814 1.73086,-0.62412 4.08038,-1.45674 5.91583,-1.48579 0.88115,-0.014 1.76743,-0.0109 2.64311,0.0984 1.72847,0.21601 4.11558,0.87329 5.20454,2.29448 0.0878,0.40913 0.15894,0.59131 -0.0902,0.97344 -1.06812,1.63857 -8.34771,2.73095 -10.31031,3.1688 -1.83066,0.35512 -6.33144,1.6396 -7.9143,0.87876 -1.36035,-0.65386 -1.72334,-2.57271 -2.12461,-3.87017 3.09429,-2.8106 5.78901,-5.98315 7.27549,-9.95859 0.57627,-1.54117 0.85756,-3.26382 0.0919,-4.79405 -0.41494,-0.83022 -1.14331,-1.38154 -2.02378,-1.65224 -2.01147,-0.619 -3.89307,0.8145 -5.62393,1.64814 -0.55029,0.26489 -1.09887,0.30899 -1.66933,0.053 -0.4187,-0.18799 -0.6501,-0.42554 -0.78716,-0.86714 -0.19995,-0.64326 0.11758,-1.41025 0.46177,-1.94106 1.20996,-1.86519 3.68115,-2.53955 5.73398,-2.98594 z"
     id="path41"
     style="stroke-width:0.341797" />
  <path
     fill="#c66b77"
     d="m 119.96079,166.34126 c 1.44819,-0.069 3.0813,0.21978 4.34663,0.94814 1.31387,0.75606 1.86997,1.90621 2.21006,3.33628 1.346,5.65982 -3.36807,10.36055 -5.9835,14.79912 2.75523,-1.28925 6.40562,-2.24492 9.46983,-2.04941 1.22568,0.0783 4.16411,0.65147 4.89624,1.66455 0.13398,0.1856 0.0554,0.29429 0.0178,0.49902 -1.47759,1.43863 -6.79355,2.17417 -9.0084,2.67422 -2.75556,0.5438 -5.44516,0.996 -8.25473,1.18228 -0.49492,-0.97822 -0.8979,-2.01182 -1.32447,-3.02217 2.37891,-2.0583 4.18121,-4.23931 5.72613,-6.99316 1.32378,-2.35977 2.64072,-5.0521 1.8081,-7.81245 -0.27412,-0.90918 -0.77348,-1.73086 -1.63994,-2.17349 -2.7542,-1.4082 -5.21855,0.65215 -7.71401,1.43486 -0.4833,-0.20268 -0.78819,-0.32983 -1.11802,-0.76323 -0.0369,-0.39409 0.001,-0.58105 0.25601,-0.89995 1.31762,-1.64849 4.32509,-2.57236 6.3123,-2.82461 z"
     id="path42"
     style="stroke-width:0.341797" />
  <path
     fill="#fefefd"
     d="m 139.10449,188.86362 c 0.35034,0.30454 0.45528,0.71367 0.60738,1.13545 1.26328,3.5041 2.29038,7.1333 3.42856,10.68286 q 2.52417,7.79434 5.20659,15.5357 c -8.19424,2.43086 -16.34233,5.11943 -24.45181,7.82133 l -2.69165,0.84322 c -0.72085,-3.39917 -1.0271,-6.89439 -1.57602,-10.32569 -1.03189,-6.44799 -2.29688,-13.00878 -3.92656,-19.33237 3.07548,-0.94678 6.32597,-1.53979 9.45102,-2.3355 q 7.03145,-1.82075 13.95249,-4.025 z"
     id="path43"
     style="stroke-width:0.341797" />
  <path
     fill="#050404"
     d="m 126.9895,196.08135 c 1.25132,0.01 2.36182,0.28506 3.44326,0.93174 1.62149,0.96967 2.52212,2.58261 2.94629,4.38457 0.9895,4.2041 -1.01821,8.12314 -3.17085,11.58452 0.0342,-0.014 0.068,-0.0287 0.10186,-0.0427 2.87964,-1.17031 8.3689,-3.56938 11.44643,-2.18408 0.46177,0.20781 0.94541,0.56465 1.08008,1.0794 0.11724,0.44707 -0.0417,0.90097 -0.26421,1.28549 -1.61806,2.79864 -6.39262,3.98228 -9.27705,4.83916 -1.94414,0.51202 -3.91084,1.09546 -5.89941,1.40411 -1.11528,0.17294 -2.97056,0.37973 -3.90811,-0.37906 -0.4686,-0.37939 -0.44297,-0.91806 -0.31172,-1.45298 0.3712,-1.5104 1.59039,-2.7142 2.55391,-3.88452 2.6585,-3.22964 4.31108,-7.02221 3.94229,-11.23623 -0.26797,-0.45425 -0.63267,-1.06914 -1.1211,-1.32002 -1.60097,-0.82202 -3.2187,0.69317 -4.72534,1.11939 -0.54517,0.15449 -1.04829,0.12407 -1.54492,-0.16885 -0.46587,-0.2748 -0.92695,-1.04556 -1.0042,-1.57363 -0.082,-0.56123 0.16475,-1.06949 0.49595,-1.49981 1.23696,-1.60747 3.25356,-2.60073 5.21684,-2.88647 z"
     id="path44"
     style="stroke-width:0.341797" />
  <path
     fill="#c66b77"
     d="m 126.56191,196.92866 c 1.09034,-0.0595 2.03985,0.0321 3.02491,0.53833 1.55175,0.79707 2.61167,2.45991 3.07617,4.10362 1.21953,4.31586 -1.58218,8.8122 -3.60562,12.41713 3.16162,-1.11323 8.81358,-3.57656 12.09107,-2.85844 0.51543,0.11313 0.65454,0.29052 0.9167,0.70581 0.0133,0.30625 0.0407,0.59917 -0.10083,0.88491 -1.02061,2.06035 -5.63828,3.40908 -7.68052,4.03867 -2.48555,0.66138 -6.82192,2.39395 -9.29858,1.93355 -0.55337,-0.10254 -0.75914,-0.30454 -1.0753,-0.75332 -0.19414,-1.79136 2.48418,-4.01988 3.49419,-5.4479 0.70513,-0.99634 1.30908,-2.08531 1.82315,-3.19136 1.04589,-2.24971 1.85903,-5.09756 0.88217,-7.50723 -0.29292,-0.72222 -0.93413,-1.30395 -1.66284,-1.56748 -1.59209,-0.57627 -2.96338,0.50654 -4.348,1.14605 -0.46108,0.21328 -0.98916,0.32949 -1.45879,0.0591 -0.18798,-0.10835 -0.36367,-0.33052 -0.41186,-0.54209 -0.13159,-0.5773 0.14219,-1.1481 0.44741,-1.62388 0.88423,-1.37778 2.33653,-2.03711 3.88657,-2.3355 z"
     id="path45"
     style="stroke-width:0.341797" />
  <path
     fill="#fefefd"
     d="m 117.75825,132.17285 c 0.31856,-0.0708 0.52398,-0.0742 0.84561,-0.0198 2.04975,2.5416 9.03198,22.80742 10.41694,26.87993 -7.89961,1.74624 -16.11811,3.05532 -23.84443,5.45337 -0.38247,-0.98062 -0.89107,-1.92637 -1.35386,-2.87212 -4.559229,-8.66318 -9.280469,-17.28843 -14.762891,-25.40679 q 14.370171,-1.86963 28.698631,-4.03457 z"
     id="path46"
     style="stroke-width:0.341797" />
  <path
     fill="#050404"
     d="m 108.86367,136.26245 c 1.75991,-0.17773 3.4419,0.44468 4.87368,1.4458 1.38872,0.97105 2.16187,2.57818 2.43326,4.21538 0.71538,4.31109 -1.4793,9.35088 -3.9604,12.75825 2.30952,-0.94882 6.19575,-2.50947 8.69941,-1.5832 0.6207,0.22969 1.18945,0.69419 1.454,1.31113 0.32915,0.76802 0.56944,1.62832 0.21944,2.41788 -2.08702,2.09179 -8.21988,3.19545 -11.24683,3.77412 -1.45571,0.27856 -2.95654,0.55883 -4.42798,0.22456 -0.6894,-0.15655 -1.47485,-0.48501 -1.78589,-1.17271 -0.90678,-2.00532 3.5253,-5.72886 4.61597,-7.30488 1.00591,-1.45366 1.80298,-3.12505 2.21792,-4.84702 0.40264,-1.67139 0.52363,-4.01475 -0.44297,-5.52583 -0.47783,-0.74683 -1.22842,-1.46802 -2.12837,-1.63653 -2.27329,-0.42519 -4.31108,1.30464 -6.0228,2.54742 -0.48193,-0.52603 -1.52817,-1.46358 -1.66011,-2.15401 -0.0752,-0.39375 0.13194,-0.88423 0.35615,-1.20141 1.31695,-1.86348 4.62759,-2.96304 6.80552,-3.26895 z"
     id="path47"
     style="stroke-width:0.341797" />
  <path
     fill="#c66b77"
     d="m 108.78608,136.94365 c 1.58321,-0.0759 3.49248,0.3917 4.7397,1.40239 1.28242,1.03907 1.7999,2.62706 1.95474,4.22051 0.4874,5.02271 -2.19981,9.74634 -5.23975,13.50816 2.48111,-1.05205 7.47818,-3.24639 10.17153,-2.34165 0.6313,0.21225 1.12725,0.64497 1.4024,1.25371 0.18388,0.40674 0.21362,0.79707 -0.004,1.20449 -0.94678,1.76914 -6.85987,2.87178 -8.89185,3.30996 q -1.36206,0.29463 -2.74019,0.49971 c -1.28686,0.1832 -2.87622,0.47851 -3.98261,-0.35615 -0.92627,-1.97012 3.35132,-5.65982 4.47925,-7.42999 1.27319,-1.9978 2.18203,-4.39995 2.35361,-6.77407 0.12099,-1.67207 -0.27378,-3.28945 -1.42598,-4.55068 -0.74067,-0.81108 -1.70591,-1.2937 -2.80991,-1.32275 -2.08667,-0.0554 -3.84385,1.22329 -5.29067,2.58364 l -1.373,-1.79136 c 1.82519,-1.9397 4.04277,-3.02764 6.65683,-3.41592 z"
     id="path48"
     style="stroke-width:0.341797" />
  <path
     fill="#232122"
     d="m 49.073145,186.31963 c 4.513427,-6.91694 9.754541,-13.70298 15.301562,-19.81602 3.085059,4.30835 5.866602,8.88946 8.761621,13.32974 0.931397,1.42837 1.795801,3.00405 2.822217,4.35688 0.281299,0.37051 0.51543,0.58448 0.931055,0.79947 0.298388,0.15381 0.441601,0.19448 0.612841,0.50483 q -3.134619,3.33526 -6.20498,6.7293 c 1.096143,0.0171 2.280469,0.0212 3.332178,0.34966 1.737353,0.25805 3.143164,0.67778 4.503173,1.84672 1.923975,4.84737 1.9896,10.91153 0.180811,15.81905 4.64707,1.11596 9.978418,2.64414 12.572314,7.05981 1.16792,1.98755 1.311133,4.31143 0.711963,6.50645 -0.559521,2.04873 -1.699755,3.71533 -3.036865,5.32929 2.354297,1.7066 3.278174,4.92666 3.713965,7.67881 q 0.07554,0.49014 0.133984,0.98267 0.05845,0.49253 0.100147,0.98677 0.04136,0.49423 0.06562,0.98984 0.02427,0.49526 0.03145,0.99121 0.0068,0.49595 -0.0031,0.9919 -0.01025,0.49594 -0.03726,0.99121 -0.02734,0.49492 -0.07178,0.98916 -0.04443,0.49389 -0.105957,0.98608 -0.06152,0.49219 -0.139795,0.98198 -0.07861,0.4898 -0.173975,0.97652 -0.09536,0.48672 -0.20747,0.96967 -0.11211,0.48331 -0.240967,0.96216 -0.128858,0.47886 -0.274463,0.95327 -0.145264,0.47408 -0.306934,0.94302 -0.16167,0.46895 -0.339746,0.93208 -0.177734,0.4628 -0.371533,0.91944 c 4.233154,0.21088 8.125195,1.90825 10.993899,5.05756 4.14668,4.5524 5.59863,11.53462 5.26538,17.52564 q -0.0444,0.80117 -0.13433,1.59858 -0.0899,0.79741 -0.2249,1.58833 -0.13501,0.79126 -0.31479,1.57329 -0.17945,0.78204 -0.40332,1.55279 -0.22354,0.77041 -0.49082,1.52715 -0.26695,0.75673 -0.57662,1.49707 -0.30932,0.74033 -0.66069,1.46186 -0.35102,0.72188 -0.74238,1.42222 c 4.52573,1.59038 13.60351,6.89336 15.62763,11.40576 1.34805,3.00474 0.70171,18.92153 -0.54174,22.30088 -2.77061,2.24048 -6.44971,3.69038 -9.72686,5.0562 -18.033545,7.5168 -41.380322,10.88623 -60.779004,8.81802 -12.273584,-1.3084 -24.830312,-3.89546 -35.936011,-9.46743 -1.089511,-0.54654 -3.2410886,-1.38873 -3.9298435,-2.31499 -1.9159423,-2.57613 -1.7492822,-17.98809 -0.9572021,-21.53936 0.794917,-3.56426 4.5910836,-6.64385 7.5549076,-8.48989 1.427959,-0.8897 2.989047,-1.67241 4.618564,-2.11299 -3.50041,-7.19585 -4.263745,-16.35806 -1.645718,-23.98696 1.950157,-5.68306 6.343545,-9.86426 11.696324,-12.43423 q 1.136713,-0.5479 2.346264,-0.90747 c -1.417739,-5.01758 -2.536509,-11.86138 0.115459,-16.68106 1.136919,-2.06616 2.747363,-3.56391 4.717481,-4.81933 -2.307129,-2.7084 -4.036314,-5.44585 -3.686143,-9.15332 0.28957,-3.06592 2.040391,-5.57163 4.37999,-7.47203 2.425733,-1.97011 5.251367,-3.00849 8.132715,-4.11352 -0.952588,-3.34688 -1.393506,-10.84522 0.463477,-13.87593 0.03965,-0.0643 0.08613,-0.12441 0.129199,-0.18696 0.140137,-0.37085 0.31001,-0.68394 0.559521,-0.99531 1.757862,-2.19605 5.190528,-3.49351 7.906788,-3.81993 -1.88501,-2.18852 -3.947413,-4.05542 -6.017334,-6.05561 z"
     id="path49"
     style="stroke-width:0.341797" />
  <path
     fill="#a0ca74"
     d="m 47.797559,197.34258 c 1.893896,-2.4999 4.917773,-3.45215 7.741015,-4.50147 1.296094,1.32344 6.23916,7.39956 7.612842,7.33599 1.3354,-0.0615 6.284277,-6.00606 7.497314,-7.23071 1.226026,0.25566 2.50503,0.38349 3.746094,0.56328 1.061963,0.38725 3.284326,0.7499 3.889649,1.75718 0.240283,0.3999 0.15791,0.59882 0.05947,1.01684 -2.101367,2.58604 -9.535791,4.48609 -12.790039,4.8272 -5.959228,0.62412 -12.849511,-0.0185 -17.756347,-3.76831 z"
     id="path50"
     style="stroke-width:0.341797" />
  <path
     fill="#a0ca74"
     d="m 78.717871,196.51133 c 0.741699,4.71304 0.4375,9.2521 -0.709228,13.87593 -4.324756,3.21699 -8.959522,5.05004 -14.347608,5.45063 -6.214551,0.46245 -11.728076,-0.72803 -16.517676,-4.8166 -0.0048,-0.006 -0.01094,-0.012 -0.01435,-0.0191 -0.952588,-2.10923 -0.05264,-10.78609 0.424512,-12.95991 0.06699,0.0701 0.1333,0.14116 0.20166,0.2102 3.654834,3.7085 9.601074,4.79849 14.603955,4.71851 5.914795,-0.0947 12.190869,-2.1294 16.35874,-6.45962 z"
     id="path51"
     style="stroke-width:0.341797" />
  <path
     fill="#050404"
     d="m 49.073145,186.31963 c 4.513427,-6.91694 9.754541,-13.70298 15.301562,-19.81602 3.085059,4.30835 5.866602,8.88946 8.761621,13.32974 0.931397,1.42837 1.795801,3.00405 2.822217,4.35688 0.281299,0.37051 0.51543,0.58448 0.931055,0.79947 0.298388,0.15381 0.441601,0.19448 0.612841,0.50483 q -3.134619,3.33526 -6.20498,6.7293 c 1.096143,0.0171 2.280469,0.0212 3.332178,0.34966 l -0.290186,0.25464 c -0.99873,-0.1521 -2.355664,-0.15757 -3.260058,-0.54996 1.017187,-1.92158 4.574951,-4.30322 4.900683,-6.21694 -1.033935,0.89448 -1.921582,1.98037 -2.860498,2.97466 q -3.087451,3.2334 -6.081934,6.55293 c -0.949511,1.07016 -1.878515,2.356 -2.941162,3.30005 -0.330859,0.29394 -0.60498,0.404 -1.04624,0.4792 -1.287207,-0.29634 -2.295508,-1.94278 -3.120605,-2.89878 -1.968067,-2.28081 -4.023291,-4.56094 -6.147901,-6.69751 -0.993945,-0.99942 -2.613379,-1.97285 -3.375927,-3.10489 -0.211231,-0.31308 -0.306934,-0.6477 -0.406739,-1.00693 -0.326758,0.24678 -0.347949,0.23687 -0.442285,0.63096 0.730078,1.01753 2.037793,1.85425 2.933301,2.77607 1.692236,1.74248 9.133838,10.49453 10.573486,10.9939 3.929639,-1.90449 5.461914,-8.72949 10.597071,-6.98975 0.288134,0.0974 0.500732,0.24541 0.734179,0.43853 -1.241064,-0.17979 -2.520068,-0.30762 -3.746094,-0.56328 -1.213037,1.22465 -6.161914,7.16919 -7.497314,7.23071 -1.373682,0.0636 -6.316748,-6.01255 -7.612842,-7.33599 -2.823242,1.04932 -5.847119,2.00157 -7.741015,4.50147 l -0.01436,0.13227 -0.110058,-0.0379 c -0.0099,-0.29873 0.05674,-0.49389 0.209863,-0.74511 1.038037,-1.70215 4.550342,-3.19512 6.419629,-3.61451 l 0.222168,-0.0482 -0.08955,-0.067 c -0.489453,-0.0284 -0.99668,-0.0653 -1.476563,0.0557 -2.390185,0.60225 -4.769433,2.27637 -6.072705,4.32852 l -0.261816,-0.15586 c 0.140137,-0.37085 0.31001,-0.68394 0.559521,-0.99531 1.757862,-2.19605 5.190528,-3.49351 7.906788,-3.81993 -1.88501,-2.18852 -3.947413,-4.05542 -6.017334,-6.05561 z"
     id="path52"
     style="stroke-width:0.341797" />
  <path
     fill="#c66b77"
     d="m 64.167236,167.43262 c 1.064014,1.2831 1.892871,3.20092 2.759668,4.64365 2.136231,3.55503 6.305127,10.49316 9.075733,13.40288 -1.476905,1.56782 -12.233594,13.47979 -12.940088,13.87935 l -0.370166,-0.17876 c -3.913916,-4.66895 -8.020947,-9.03267 -12.514893,-13.14722 2.399756,-2.85298 4.596485,-5.84644 6.839014,-8.82178 2.430517,-3.22417 4.896924,-6.4268 7.150732,-9.77812 z"
     id="path53"
     style="stroke-width:0.341797" />
  <path
     fill="#dbc381"
     d="m 90.939844,253.09307 c 3.605615,1.2978 7.565674,2.99824 10.021826,6.08808 0.525,0.66035 1.06982,1.4188 0.97378,2.27603 0.24985,0.29463 0.54824,0.59131 0.75093,0.91875 -4.286478,7.43681 -14.676419,10.60014 -22.556204,12.71894 -2.61167,0.7024 -5.364502,1.53535 -8.055469,1.84502 l -0.128174,-0.0745 -0.02051,-0.15107 c 1.817334,-0.36231 3.628174,-0.72427 5.425,-1.17989 -0.408789,-0.36709 -5.210009,0.88902 -6.418945,0.59541 -0.09775,-0.0236 -0.194141,-0.0516 -0.290869,-0.0776 -1.168945,-0.15039 -2.56792,0.0359 -3.759766,0.0725 -2.557666,0.0786 -5.113623,0.15654 -7.672656,0.0827 -10.958008,-0.31548 -21.284033,-2.12597 -31.455771,-6.24941 -2.59024,-1.05 -5.387676,-2.21245 -7.726353,-3.74199 0.05151,-0.15723 0.106401,-0.31343 0.168608,-0.4669 2.073409,-5.11191 7.459649,-9.26611 12.407022,-11.36611 1.31708,2.50742 2.513574,4.75473 5.045605,6.24155 2.343018,1.37539 5.045264,2.23091 7.65044,2.94937 9.091797,2.50742 19.068506,3.12539 28.246777,0.74682 6.751172,-1.75 13.743653,-5.03911 17.394727,-11.22768 z"
     id="path54"
     style="stroke-width:0.341797" />
  <path
     fill="#050404"
     d="m 101.93545,261.45718 c 0.24985,0.29463 0.54824,0.59131 0.75093,0.91875 -4.286478,7.43681 -14.676419,10.60014 -22.556204,12.71894 -2.61167,0.7024 -5.364502,1.53535 -8.055469,1.84502 l -0.128174,-0.0745 -0.02051,-0.15107 c 1.817334,-0.36231 3.628174,-0.72427 5.425,-1.17989 -0.408789,-0.36709 -5.210009,0.88902 -6.418945,0.59541 -0.09775,-0.0236 -0.194141,-0.0516 -0.290869,-0.0776 5.715185,-0.69146 11.383203,-1.67447 16.787695,-3.72627 5.40791,-2.05352 12.007666,-5.28965 14.506546,-10.8688 z"
     id="path55"
     style="stroke-width:0.341797" />
  <path
     fill="#a0bbdd"
     d="m 78.933545,210.85859 c 4.148047,1.42085 9.500244,3.45967 11.697998,7.58413 0.987109,1.85289 1.060254,3.81822 0.42793,5.80098 -1.265332,3.96929 -4.472754,6.31299 -8.060596,8.1105 -11.463867,5.74355 -26.38125,5.9852 -38.436768,2.01694 -3.399853,-1.22226 -6.889599,-3.03174 -8.609179,-6.37212 -1.085205,-2.10786 -1.39419,-4.58896 -0.613867,-6.85097 1.699072,-4.92598 6.844824,-7.0482 11.179833,-9.05899 3.346192,3.46582 7.368116,5.42056 12.186768,5.84268 7.82168,0.6853 14.354102,-2.10069 20.227881,-7.07315 z"
     id="path56"
     style="stroke-width:0.341797" />
  <path
     fill="#c66b77"
     d="m 103.5125,287.96113 c 3.28672,2.31055 12.90762,7.87329 14.69111,10.87256 l -0.12783,0.2919 -0.24302,0.11142 c -3.35268,1.55552 -6.47021,3.63672 -9.81845,5.24317 -9.117777,4.37465 -18.978275,6.7539 -28.955326,8.15664 -1.654297,0.0359 -3.343798,0.30078 -4.996386,0.43681 q -4.087549,0.33872 -8.18877,0.39136 c -14.421094,0.17773 -29.436572,-1.66216 -43.072456,-6.49414 -4.764717,-1.68848 -9.246392,-3.76387 -13.8284863,-5.86899 2.9267723,-4.28511 7.0808693,-7.06529 11.6578713,-9.34576 0.685234,0.77315 1.369067,1.53091 2.170649,2.18682 10.196382,8.34258 32.091172,9.93979 44.755772,8.65293 q 1.877148,-0.18355 3.742334,-0.4645 1.865185,-0.28096 3.713281,-0.6583 1.848096,-0.37769 3.673975,-0.85074 1.82622,-0.47304 3.625097,-1.04043 1.798535,-0.56738 3.565625,-1.22773 1.766748,-0.66001 3.497266,-1.41128 1.730176,-0.75093 3.418994,-1.59106 1.688818,-0.84014 3.331494,-1.76709 c 2.623291,-1.49263 5.463966,-3.26211 7.387256,-5.62359 z"
     id="path57"
     style="stroke-width:0.341797" />
  <path
     fill="#a47d57"
     d="m 88.786865,229.7897 c 0.86543,0.44946 1.328565,1.05786 1.659082,1.96909 1.940381,5.34946 0.680518,17.33525 -1.798877,22.46665 -1.550049,3.20708 -6.246679,4.8166 -9.377539,5.89531 -12.185742,4.19761 -30.708398,4.09849 -42.423144,-1.59175 -0.34419,-0.73896 -0.58584,-1.54253 -0.858252,-2.31088 -1.880122,-5.5378 -3.419712,-12.42261 -2.012022,-18.22974 0.553916,-2.28457 1.764219,-4.13848 3.783213,-5.37271 5.255127,4.40884 12.531983,6.23438 19.235645,6.74878 11.331933,0.86988 23.078808,-2.07334 31.791894,-9.57475 z"
     id="path58"
     style="stroke-width:0.341797" />
  <path
     fill="#dbc381"
     d="m 102.68638,262.37593 0.12544,-0.10117 c 0.32129,0.34077 0.34043,0.44467 0.46518,0.87089 0.28745,0.9837 0.6583,1.90039 0.8897,2.91109 1.77358,7.74888 0.11997,14.76631 -2.2668,22.13203 -12.308103,10.89102 -34.566257,12.7104 -50.273875,11.7626 -9.79624,-0.59097 -20.627851,-2.54434 -29.127348,-7.6607 -0.538501,-2.08256 -1.265435,-4.10976 -1.790982,-6.19404 -1.507153,-5.97837 -2.470063,-13.01699 -0.920561,-19.0415 1.591133,1.49536 3.835781,2.62944 5.74769,3.68457 10.633096,5.86865 22.082608,7.84048 34.121719,7.45732 3.955615,-0.12612 8.601318,-0.21055 12.418164,-1.25713 2.690967,-0.30967 5.443799,-1.14262 8.055469,-1.84502 7.879785,-2.1188 18.269726,-5.28213 22.556204,-12.71894 z"
     id="path59"
     style="stroke-width:0.341797" />
  <path
     fill="#c66b77"
     d="m 118.07578,299.12559 c 0.25054,0.16713 0.44707,0.28608 0.64121,0.51987 0.17569,4.79336 -0.0489,9.59253 -0.20781,14.38281 -0.0701,2.11641 0.0137,4.25947 -0.11758,6.3687 -9.59355,4.28135 -20.069969,7.03418 -30.37993,8.92637 -6.715283,1.23218 -13.387158,2.27329 -20.20874,2.71489 -17.589893,1.13853 -36.502539,-1.30908 -53.002613,-7.60669 q -2.68601,-1.04555 -5.3546578,-2.13452 c -0.085073,-2.90083 -0.4927344,-5.79858 -0.6906348,-8.69531 -0.2716601,-3.97681 -0.2312939,-7.86372 0.045698,-11.83779 17.8248786,11.06977 36.3407326,14.86645 57.2074316,13.57583 3.247412,-0.20098 9.953467,-0.65899 12.891895,-1.58663 0.06118,-0.0191 0.116553,-0.0533 0.175,-0.08 -0.149365,-0.081 -0.06563,-0.0188 -0.20918,-0.23276 2.018311,-0.45596 5.226758,-0.78613 7.020166,-1.39248 -1.260889,-0.58071 -4.847021,1.00112 -6.690332,0.62139 -0.04614,-0.009 -0.09126,-0.0215 -0.136719,-0.0325 9.977051,-1.40274 19.837549,-3.78199 28.955326,-8.15664 3.34824,-1.60645 6.46577,-3.68765 9.81845,-5.24317 z"
     id="path60"
     style="stroke-width:0.341797" />
  <path
     fill="#050404"
     d="m 118.07578,299.12559 c 0.25054,0.16713 0.44707,0.28608 0.64121,0.51987 -9.81606,6.09492 -28.279588,12.60444 -39.641941,14.02768 -0.149365,-0.081 -0.06563,-0.0188 -0.20918,-0.23276 2.018311,-0.45596 5.226758,-0.78613 7.020166,-1.39248 -1.260889,-0.58071 -4.847021,1.00112 -6.690332,0.62139 -0.04614,-0.009 -0.09126,-0.0215 -0.136719,-0.0325 9.977051,-1.40274 19.837549,-3.78199 28.955326,-8.15664 3.34824,-1.60645 6.46577,-3.68765 9.81845,-5.24317 z"
     id="path61"
     style="stroke-width:0.341797" />
  <path
     fill="#232122"
     d="m 242.28032,27.839185 c -0.066,-5.00001 0.71367,-9.848365 4.37979,-13.56315 2.52007,-2.553769 5.6875,-3.759697 9.25722,-3.748896 5.10474,0.01548 9.87486,2.772417 13.38409,6.325532 3.74951,3.796133 6.46748,9.041074 6.42168,14.454966 -0.0284,3.376884 -1.16143,6.788017 -3.60801,9.189824 -0.63301,0.621728 -1.36822,1.137842 -2.08428,1.657715 9.975,7.51167 19.57437,16.789404 24.38789,28.536963 0.7376,-3.015674 1.64131,-5.964014 2.58501,-8.920557 1.82964,-5.730908 3.90332,-12.664258 9.3396,-16.02002 3.19888,-1.974902 7.19961,-1.973876 10.7519,-1.080419 8.01993,2.016943 15.29507,8.71582 19.41338,15.696337 4.39244,7.445362 6.4128,16.945264 4.14463,25.414991 -1.58628,5.926758 -5.04834,10.687988 -10.38242,13.75459 -6.56763,3.775489 -14.75298,4.914359 -22.09204,2.886819 q -1.1751,-0.31856 -2.29688,-0.79229 -1.12177,-0.47373 -2.16972,-1.09375 c 1.87612,12.97529 -0.66309,26.84063 -4.82002,39.1583 -1.01001,2.99278 -2.06069,6.41348 -3.99902,8.94038 -0.64634,0.84287 -1.51485,1.72881 -2.61612,1.89458 -0.57319,0.0865 -0.79604,-0.0615 -1.25542,-0.38144 -0.98779,0.71948 -1.93799,6.84995 -5.39492,9.26201 -0.56226,0.39272 -1.28379,0.79707 -1.99883,0.71299 q -0.0844,-0.01 -0.16748,-0.0284 -0.0831,-0.0188 -0.16338,-0.0465 -0.0803,-0.0277 -0.15722,-0.0639 -0.0769,-0.0366 -0.14937,-0.081 -0.0725,-0.0444 -0.13979,-0.0967 -0.0673,-0.052 -0.12818,-0.11108 -0.0612,-0.0591 -0.11553,-0.12476 -0.0543,-0.0653 -0.10117,-0.13637 c -0.79878,-1.18809 -0.50073,-2.43701 -0.23857,-3.74268 -2.81948,2.56416 -5.69878,4.82686 -8.73496,7.11963 6.09184,2.57134 10.70097,7.50415 15.05102,12.33853 13.00708,14.45424 24.28706,32.86342 31.594,50.84467 5.85053,14.39751 8.87715,29.39078 6.47944,44.88238 1.65361,-0.97447 4.79883,-2.66431 6.80142,-2.16973 0.18217,0.0451 0.25942,0.10938 0.40366,0.20405 0.19858,0.48775 0.17978,0.76084 -0.0451,1.24312 -0.81929,1.75615 -3.00268,3.33628 -4.40644,4.64604 2.44248,-0.33051 5.82797,-0.36606 7.87089,1.20757 0.81861,0.63062 1.33301,1.53023 1.42461,2.56348 0.14663,1.64814 -0.69008,3.2187 -1.76469,4.40918 -1.76914,1.9602 -4.07559,2.98594 -6.56592,3.70234 1.93013,0.39409 3.99458,0.80459 5.17139,2.58057 0.43305,0.65351 0.57661,1.38325 0.39716,2.14785 -0.43886,1.87373 -2.21587,3.43198 -3.82812,4.36167 -2.06582,1.19185 -4.30767,1.64233 -6.6312,2.04018 0.80151,0.55201 1.6437,0.96797 1.8146,2.01797 0.0749,0.46143 -0.0434,0.89995 -0.34659,1.25679 -1.49023,1.75513 -5.66118,2.27842 -7.8374,2.36592 -2.53955,0.1022 -4.8959,-0.36231 -7.19721,-1.43794 -3.12539,3.60288 -6.38648,7.09878 -10.14659,10.04917 -14.58139,11.44199 -36.02744,20.65889 -54.22846,24.20674 -2.26919,0.44228 -4.6375,1.03701 -6.9378,1.21372 -7.19072,0.55166 -14.35171,-2.26406 -19.7333,-6.96035 -2.92236,-2.55015 -5.09516,-5.4438 -7.66206,-8.29029 -8.49331,-2.80034 -15.08418,-5.53881 -22.07529,-11.3039 -1.70215,-1.40376 -3.17188,-3.05533 -4.85454,-4.46387 -5.94487,2.22612 -17.81138,5.59248 -23.74155,2.91519 -7.13433,-3.22041 -11.74004,-12.11807 -14.31617,-19.10406 -4.09506,-11.10429 -5.13994,-23.98217 -2.19262,-35.46416 0.47954,-1.86758 0.89277,-3.76899 1.71035,-5.52343 2.00361,-4.29981 5.84507,-7.50518 10.27749,-9.09112 3.86504,-1.38257 7.86953,-1.21953 11.56811,0.57935 5.69981,2.77265 9.53955,8.32617 12.42876,13.76621 l 0.0978,-0.11382 c 2.45136,-2.88818 3.99321,-5.28281 6.91797,-7.9666 -8.56372,-1.69292 -18.95367,-3.59878 -24.18726,-11.40235 q -0.34419,-0.51713 -0.65112,-1.05683 -0.30694,-0.54004 -0.5749,-1.10059 -0.26832,-0.5602 -0.49595,-1.13818 -0.22798,-0.57798 -0.41426,-1.17031 -0.18628,-0.59268 -0.33052,-1.19663 -0.14389,-0.6043 -0.24507,-1.21714 -0.10117,-0.61284 -0.15859,-1.2315 -0.0574,-0.61831 -0.0711,-1.23935 c -0.0243,-0.96558 0.096,-1.92466 0.0848,-2.8834 0.18013,-0.48228 0.21841,-1.07837 0.29771,-1.59072 0.83501,-1.28619 1.15527,-2.98321 2.05625,-4.31895 1.92466,-2.85298 5.01552,-4.40542 7.99223,-5.9189 0.80459,-0.40913 1.77769,-0.79091 2.48623,-1.34873 0.081,-0.0639 0.15962,-0.12988 0.2396,-0.19482 0.31411,-0.27275 0.66411,-0.41255 1.03667,-0.59062 1.33096,-0.29019 7.55064,-4.06807 8.94619,-5.04527 l 0.0431,-0.30796 c 0.41768,-0.0574 0.53389,-0.15552 0.87261,-0.38896 l 0.20337,0.0697 c 2.6103,-1.51586 5.12593,-3.34277 7.64565,-5.0104 q 9.72481,-6.39262 19.0521,-13.35195 c -2.48555,-4.69492 -5.2435,-8.86826 -7.00957,-13.93779 l 0.0243,-0.89004 0.11758,-0.0103 c 0.20097,0.39786 0.33564,0.95601 0.76289,1.10093 l 0.10561,-0.0496 c 2.67969,4.03423 4.65015,8.80264 6.77954,13.16533 3.95083,-3.03242 7.88457,-6.08466 12.04424,-8.82998 9.09829,-6.00503 22.53501,-12.91274 33.452,-14.27959 q 2.09214,-0.24336 4.1983,-0.21499 2.10581,0.0284 4.19077,0.32779 c 1.37573,0.18798 2.73266,0.50825 4.08242,0.82954 3.80283,-2.17315 8.94619,-6.25147 11.31348,-9.88545 1.1809,-1.81289 1.95234,-3.87085 3.12197,-5.68716 l -0.0578,0.31514 c -0.53867,2.87246 -3.2269,9.02993 -2.75112,11.39619 0.30557,0.32197 0.32676,0.35513 0.75776,0.44297 1.46324,-0.43511 2.81265,-2.73916 3.50616,-4.03355 1.61533,-3.01362 2.83486,-6.43159 3.66235,-9.74155 0.30693,-1.22842 0.71709,-5.11773 1.16484,-5.90215 l -0.0543,0.21841 0.12168,0.007 c 0.16509,3.37285 -0.6002,6.55976 -0.49492,9.79726 0.34214,0.11177 0.24882,0.15449 0.54243,0.0171 2.49238,-1.1645 5.18266,-10.92177 6.01597,-13.65547 0.95429,-3.1312 1.66352,-6.34887 2.33959,-9.5498 1.87339,-8.86416 2.68858,-17.14966 1.65054,-26.182667 -1.55928,-1.872705 -2.22646,-3.276807 -2.54946,-5.720654 1.49741,2.058984 2.93057,3.320556 5.04868,4.69834 -2.69165,-7.310694 -4.71782,-14.739649 -9.48691,-21.067334 -0.10767,1.388378 -0.25533,2.622949 -0.77862,3.931005 -0.5062,-2.919287 -0.87739,-5.911035 -1.99575,-8.674804 -1.14775,-2.836914 -2.9374,-5.404151 -4.71645,-7.876709 q -1.03838,-1.469727 -2.13965,-2.892969 -1.10093,-1.423242 -2.26236,-2.797949 -1.16142,-1.374707 -2.38095,-2.697803 -1.21953,-1.323096 -2.49512,-2.592187 -1.27559,-1.269434 -2.60483,-2.482129 -1.32925,-1.213037 -2.70977,-2.367627 -1.38018,-1.15459 -2.80923,-2.24834 -1.42871,-1.09375 -2.90356,-2.124951 c -11.47105,-8.095459 -25.30664,-14.8198 -39.28955,-16.828575 -2.98355,-0.428613 -6.35025,-0.782338 -9.33755,-0.225107 -0.43682,0.08148 -0.85791,0.220903 -1.27627,0.368389 3.80864,5.763003 14.34555,7.904873 20.37519,10.916103 l -0.27822,-0.03726 c -3.17187,-0.443994 -6.25317,-1.498437 -9.4165,-2.035742 -2.94732,-0.500732 -5.95069,-0.852783 -8.94346,-0.784082 -6.86396,0.15791 -14.76631,2.420264 -20.29727,6.552588 -0.95429,0.71333 -1.87544,1.477588 -2.56928,2.454785 4.13403,1.52749 9.27671,1.996436 13.69341,1.892188 2.9309,-2.003272 5.82353,-3.293555 9.40795,-3.545459 -5.18232,1.919531 -9.40419,4.248877 -11.75439,9.5375 -0.21499,0.484326 -0.37598,0.883545 -0.40537,1.414013 0.18115,0.406739 0.20815,0.469287 0.65796,0.630957 0.62173,0.223877 1.58525,0.0916 2.24013,0.04854 4.87095,-0.319581 9.63355,-1.985157 13.77476,-4.533594 q 1.22842,-0.762549 2.42505,-1.573291 c -3.7625,4.580078 -10.37354,7.438183 -16.19502,8.029492 -1.35386,0.137402 -2.86187,0.159277 -3.95664,-0.774854 -1.00283,-0.855517 -0.91567,-1.759228 -1.05308,-2.982861 -3.59092,0.493897 -6.28188,1.627295 -8.53432,4.595117 -0.86031,1.133399 -1.60303,2.380957 -2.32491,3.605957 1.78145,-5.285888 4.496,-10.28706 9.49136,-13.108252 -2.23638,-0.312744 -7.07793,-0.782714 -8.53672,-2.754541 -0.3476,-0.46997 -0.46894,-1.010351 -0.35171,-1.583203 0.40948,-1.998828 3.43506,-3.830859 5.06783,-4.805664 6.94531,-4.147021 14.91977,-4.743457 22.81494,-4.58042 -2.40078,-1.380107 -6.30889,-3.543545 -7.1357,-6.383193 -0.15825,-0.543081 -0.13671,-1.085239 0.13775,-1.586997 0.51509,-0.941548 1.73906,-1.351021 2.70976,-1.594893 6.39981,-1.607368 17.16675,0.694121 23.48008,2.825362 z"
     id="path62"
     style="stroke-width:0.341797" />
  <path
     fill="#232122"
     d="m 218.29883,265.5707 c 0.84902,1.18775 1.58183,2.2791 3.13393,2.50777 0.29053,0.0427 0.53697,0.0236 0.82613,-0.0137 -0.08,0.68292 -0.15689,1.36446 -0.27378,2.04258 -1.0647,-1.02094 -2.34473,-1.97387 -3.70371,-2.55869 0.30556,-0.15381 0.17534,-0.0314 0.32846,-0.42383 -0.13432,-0.41938 -0.27241,-0.82578 -0.29839,-1.26875 -0.005,-0.095 -0.008,-0.19038 -0.0126,-0.2854 z"
     id="path63"
     style="stroke-width:0.341797" />
  <path
     fill="#515151"
     d="m 332.40532,269.52563 c 0.20166,0.0444 0.0861,-0.003 0.30113,0.22217 -0.0208,0.0543 -0.0373,0.1104 -0.0632,0.1627 -0.57251,1.14809 -4.16377,4.42798 -5.30263,5.1167 -0.47544,0.28745 -1.05,0.46621 -1.57295,0.64804 l -0.24234,-0.0605 c -0.0386,-1.05957 0.64497,-2.59527 1.05103,-3.58716 1.87339,-0.94063 3.77378,-2.02993 5.829,-2.50196 z"
     id="path64"
     style="stroke-width:0.341797;fill:#222222;fill-opacity:1" />
  <path
     fill="#fefefd"
     d="m 205.1998,281.20996 c 0.66309,0.0496 1.06231,0.22627 1.52134,0.69624 1.32993,1.36069 2.35327,3.83462 2.30542,5.73023 -0.0232,0.92456 -0.3312,1.38837 -0.96968,2.02753 -0.72324,0.15962 -1.41127,0.11587 -2.03471,-0.31582 -0.99326,-0.68803 -1.43999,-1.90312 -1.66524,-3.04165 -0.36709,-1.85356 -0.24062,-3.52871 0.84287,-5.09653 z"
     id="path65"
     style="stroke-width:0.341797" />
  <path
     fill="#515151"
     d="m 218.2814,267.54868 q -0.18184,-0.0359 -0.36504,-0.0649 -0.18321,-0.029 -0.36743,-0.0513 -0.18389,-0.0222 -0.3688,-0.0379 -0.18457,-0.0154 -0.36983,-0.0243 -0.18525,-0.009 -0.37085,-0.0106 -0.18525,-0.002 -0.37085,0.003 -0.18525,0.005 -0.37016,0.0168 -0.18526,0.0116 -0.36983,0.0301 -0.18423,0.0185 -0.36811,0.0438 -0.18355,0.0253 -0.36641,0.0571 -0.18252,0.0321 -0.36401,0.0707 -0.18115,0.0386 -0.36094,0.0841 -0.17978,0.0455 -0.35786,0.0971 -0.17808,0.052 -0.3541,0.11041 -0.17603,0.0584 -0.34966,0.12338 -0.17398,0.0646 -0.34487,0.13604 -0.17124,0.0711 -0.33975,0.14834 -0.16851,0.0776 -0.33428,0.16099 -0.16543,0.0837 -0.32778,0.17329 -0.16235,0.0895 -0.32129,0.18491 -0.15893,0.0957 -0.31445,0.19687 -0.15518,0.10118 -0.30659,0.20816 -0.15176,0.10698 -0.29908,0.21909 -0.14765,0.11245 -0.29087,0.23037 -0.14321,0.11758 -0.28198,0.24063 -0.13911,0.1227 -0.27309,0.25087 -0.13433,0.12784 -0.26387,0.2608 -0.1292,0.13261 -0.25396,0.27001 -0.12441,0.13741 -0.2437,0.27959 -0.11928,0.14185 -0.23344,0.28814 -0.11382,0.14595 -0.22251,0.29634 -0.1087,0.15039 -0.21158,0.30454 c -0.47441,0.72119 -1.15698,3.50137 -1.76435,3.77036 q 0.22422,-1.16484 0.56225,-2.30166 c 1.21407,-4.13027 3.05669,-7.60703 6.9771,-9.68345 1.25166,-0.66308 4.3897,-2.25141 5.82149,-1.82178 l 0.067,0.25464 -0.12339,0.13433 c -0.89824,0.99565 -1.2855,1.82075 -1.19971,3.18281 0.004,0.0636 0.01,0.12681 0.014,0.19038 0.004,0.095 0.007,0.19038 0.0126,0.2854 0.026,0.44297 0.16407,0.84937 0.29839,1.26875 -0.15312,0.39239 -0.0229,0.27002 -0.32846,0.42383 z"
     id="path67"
     style="stroke-width:0.341797;fill:#222222;fill-opacity:1" />
  <path
     fill="#515151"
     d="m 176.76709,293.56079 c 1.05239,1.25645 1.81357,2.93262 2.73198,4.31006 1.61944,2.42881 3.42993,4.72568 5.26983,6.98872 -2.59117,0.90269 -5.31768,1.50732 -7.97686,2.18169 q -3.28398,0.70752 -6.60351,1.225 c 0.37016,-0.24131 0.76049,-0.48604 1.10058,-0.77007 3.66577,-3.06113 5.00801,-9.4435 5.47798,-13.9354 z"
     id="path68"
     style="stroke-width:0.341797;fill:#222222;fill-opacity:1" />
  <path
     fill="#515151"
     d="m 161.14663,241.3667 q 0.76255,-0.0889 1.53057,-0.10288 0.76767,-0.014 1.53296,0.0472 0.76562,0.0615 1.52133,0.19721 0.75572,0.13604 1.49468,0.34522 c 6.83662,2.00361 10.29561,8.91201 13.45347,14.71367 -2.6021,4.146 -4.28613,7.89004 -5.87412,12.51318 -0.6272,-3.68081 -2.17144,-7.34008 -3.56016,-10.79531 -1.85561,-3.99868 -4.3374,-7.98232 -8.19321,-10.33389 -2.31089,-1.40957 -4.76294,-1.97421 -7.43477,-1.29404 -3.67876,0.93652 -5.83174,3.33526 -7.72529,6.47227 -0.1104,-1.87237 0.21533,-3.09702 1.34224,-4.66416 2.84033,-3.95152 7.15141,-6.31607 11.9123,-7.09844 z"
     id="path69"
     style="stroke-width:0.341797;fill:#222222;fill-opacity:1" />
  <path
     fill="#515151"
     d="m 328.62573,275.72412 c 1.85357,-0.0588 3.56289,0.0191 5.3898,0.33975 1.11084,0.19482 1.97934,0.49424 2.76411,1.35283 0.45049,0.49321 0.6624,1.04932 0.61421,1.71719 -0.0499,0.69624 -0.60054,1.56235 -1.00249,2.10923 -1.70728,2.3225 -5.05279,3.71054 -7.77144,4.38115 -1.09546,0.27036 -2.55766,0.41802 -3.45796,1.12929 l 0.0424,0.24439 c 1.53159,1.23662 5.69638,0.53662 7.96557,1.82964 0.58584,0.33359 1.08726,0.8104 1.20176,1.50254 0.10869,0.65591 -0.18901,1.34189 -0.56772,1.86176 -1.65396,2.2709 -5.78492,3.65586 -8.47247,3.98399 -1.52954,0.18696 -3.0854,0.0653 -4.60571,0.33564 -0.0574,0.0103 -0.11484,0.0219 -0.17192,0.0332 0.17671,1.32378 2.88066,1.34531 4.18393,2.0084 0.56089,0.28505 1.01514,0.81074 1.44409,1.26157 q -0.19174,0.10117 -0.38554,0.19892 c -3.6709,1.85083 -9.33926,2.25039 -13.2354,0.97207 6.05561,-7.68393 9.90322,-15.44135 12.74253,-24.77788 z"
     id="path70"
     style="stroke-width:0.341797;fill:#222222;fill-opacity:1" />
  <path
     fill="#515151"
     d="m 255.39165,12.881641 q 0.68052,-0.0523 1.36138,-0.005 c 4.47138,0.265747 9.17383,3.366836 12.03364,6.665996 3.09258,3.567608 5.2312,8.670875 4.83984,13.444273 -0.30932,3.769917 -2.02924,6.057222 -4.83437,8.443989 -1.16279,-0.891406 -2.40488,-1.648486 -3.64766,-2.420605 q -2.46367,-1.6396 -5.02544,-3.120606 -2.56211,-1.481006 -5.2124,-2.797744 -2.65029,-1.31667 -5.37817,-2.46374 -2.72788,-1.14707 -5.52276,-2.119995 c 0.0304,-4.045952 1.14707,-8.696782 3.73482,-11.903111 2.01592,-2.498022 4.57563,-3.394111 7.65112,-3.723466 z"
     id="path71"
     style="stroke-width:0.341797;fill:#222222;fill-opacity:1" />
  <path
     fill="#fefefd"
     d="m 156.8041,247.51357 c 0.30933,-0.0335 0.6207,-0.0619 0.93208,-0.0588 2.70874,0.026 5.08696,1.47075 6.93403,3.34721 4.37671,4.44507 8.9127,14.6002 9.18238,20.92959 0.0547,1.28858 -0.1586,2.63013 -0.25977,3.91494 q -0.14013,1.58252 -0.11997,3.17119 0.0198,1.58868 0.19961,3.16709 c 0.38384,3.20093 2.27124,7.38145 2.21108,10.18179 -0.0882,4.12857 -2.07539,11.49395 -5.19975,14.40435 -1.47144,1.37026 -2.76309,1.62422 -4.68501,1.5914 -1.80776,-0.404 -3.36123,-1.12724 -4.84839,-2.23672 -8.27729,-6.17592 -12.88096,-20.40869 -14.35752,-30.40146 -1.15527,-7.82031 -1.47417,-17.38276 3.51265,-24.0085 1.66523,-2.21245 3.71806,-3.60151 6.49858,-4.0021 z"
     id="path72"
     style="stroke-width:0.341797" />
  <path
     fill="#050404"
     d="m 150.352,256.03765 c 0.2167,0.0301 0.50928,0.0516 0.71914,0.13159 0.80562,0.30693 1.3836,1.3935 1.69121,2.14306 0.59302,1.44512 0.89619,3.51573 0.22251,4.96836 -0.41015,0.88423 -1.10161,1.16519 -1.96157,1.51758 -0.35991,-0.0174 -0.73623,-0.0386 -1.08691,-0.12851 -0.6812,-0.17466 -1.16861,-0.75606 -1.48477,-1.35489 -0.73315,-1.38838 -0.6935,-3.24023 -0.19585,-4.69834 0.38965,-1.1416 0.99053,-2.06274 2.09624,-2.57885 z"
     id="path73"
     style="stroke-width:0.341797" />
  <path
     fill="#fefefd"
     d="m 150.30449,256.7749 c 0.46177,0.0831 0.73213,0.23174 0.99463,0.63609 0.76528,1.17851 1.30191,3.36943 0.8562,4.74277 -0.22969,0.70718 -0.57934,0.95293 -1.18535,1.30874 -0.4792,-0.0687 -0.89927,-0.15244 -1.27388,-0.48501 -0.60874,-0.54038 -0.86543,-1.38975 -0.8938,-2.18135 -0.055,-1.53877 0.46006,-2.90971 1.5022,-4.02124 z"
     id="path74"
     style="stroke-width:0.341797" />
  <path
     fill="#050404"
     d="m 166.10645,256.8542 c 0.37153,0.0133 0.77827,0.0174 1.12792,0.15552 0.98028,0.38828 1.7107,1.4834 2.10479,2.41206 0.68428,1.61191 0.86816,3.66919 0.18525,5.3122 -0.40366,0.97037 -0.89311,1.44854 -1.8539,1.84707 -0.26319,-0.004 -0.52808,-0.003 -0.78887,-0.042 -0.9126,-0.13774 -1.65771,-0.78066 -2.14375,-1.53672 -0.90952,-1.41401 -1.0459,-3.35131 -0.69932,-4.9622 0.30455,-1.41607 0.84937,-2.4001 2.06788,-3.18589 z"
     id="path75"
     style="stroke-width:0.341797" />
  <path
     fill="#fefefd"
     d="m 166.32007,257.45098 c 0.40332,0.0615 0.82305,0.22182 1.13169,0.4956 1.07905,0.95669 1.44853,2.67114 1.44306,4.04893 -0.006,1.49912 -0.3206,2.47495 -1.40957,3.51128 -0.40468,-0.11724 -0.81108,-0.23687 -1.14365,-0.50689 -0.82544,-0.67026 -1.2291,-1.75615 -1.35112,-2.78359 -0.20986,-1.76777 0.20132,-3.3937 1.32959,-4.76533 z"
     id="path76"
     style="stroke-width:0.341797" />
  <path
     fill="#050404"
     d="m 156.74668,250.03262 c 0.89414,-0.0581 1.70181,-0.0807 2.52998,0.31206 1.69019,0.80117 2.74224,2.55493 3.37251,4.24853 0.63882,1.71753 1.07461,3.81685 0.22422,5.53199 -0.58721,1.18466 -1.45606,1.65703 -2.67012,2.05078 -0.57934,0.0646 -1.13032,0.11347 -1.70522,-0.0171 -1.58184,-0.35923 -2.93877,-1.5169 -3.75464,-2.89058 -1.0001,-1.68437 -1.3689,-3.82642 -0.85005,-5.72954 0.4563,-1.67344 1.36309,-2.68516 2.85332,-3.50615 z"
     id="path77"
     style="stroke-width:0.341797" />
  <path
     fill="#fefefd"
     d="m 156.89946,250.70493 c 0.71128,-0.0598 1.23252,-0.11929 1.87237,0.25498 1.64233,0.96079 2.47085,3.10078 2.93569,4.8607 0.32402,1.22739 0.61489,2.89707 -0.12305,4.02944 -0.42964,0.65932 -1.00249,0.77314 -1.7206,0.92148 -0.0991,-0.005 -0.19825,-0.008 -0.29737,-0.0147 -1.35317,-0.0988 -2.42812,-0.63096 -3.3144,-1.66831 -1.08008,-1.26465 -1.52852,-2.98423 -1.36582,-4.62349 0.15654,-1.575 0.80664,-2.76206 2.01318,-3.76011 z"
     id="path78"
     style="stroke-width:0.341797" />
  <path
     fill="#232122"
     d="m 157.74438,262.89341 c 2.22989,0.0345 4.02056,0.94609 5.69229,2.35635 5.42021,4.57358 7.36094,13.29521 7.93823,20.05903 0.40093,4.70039 0.38042,12.00493 -2.96133,15.78828 -1.23012,1.39248 -2.74941,1.93696 -4.56333,2.05147 -1.49126,-0.19654 -2.72412,-0.66377 -3.95561,-1.52237 -5.57539,-3.88623 -8.60816,-12.45337 -9.76582,-18.83779 -0.91773,-5.0627 -1.36548,-12.06611 1.82485,-16.49819 1.43111,-1.98824 3.41113,-3.03858 5.79072,-3.39678 z"
     id="path79"
     style="stroke-width:0.341797" />
  <path
     fill="#fefefd"
     d="m 157.40942,263.72534 c 1.53877,-0.0711 3.03482,0.54517 4.28477,1.40274 4.671,3.204 6.48628,9.52485 7.48638,14.78818 1.04384,5.49609 1.91953,14.72017 -1.53057,19.52583 -1.05649,1.47178 -2.16733,1.94243 -3.87598,2.23535 -0.84799,-0.16611 -1.56816,-0.41084 -2.31054,-0.86201 -5.07124,-3.08027 -7.91363,-10.51333 -9.28902,-15.96089 -1.29814,-5.14267 -2.42641,-13.26172 0.57866,-18.05371 1.12349,-1.79204 2.66534,-2.60278 4.6563,-3.07549 z"
     id="path80"
     style="stroke-width:0.341797" />
  <path
     fill="#515151"
     d="m 295.01514,71.901074 q 1.7018,-3.820947 3.15341,-7.74375 c 2.17076,-5.793457 4.59239,-14.627539 10.97305,-17.103174 3.46035,-1.342578 7.40469,-0.269336 10.62066,1.241748 7.68427,3.610743 13.78364,11.463526 16.57065,19.362793 2.31465,6.560108 2.81743,14.412549 -0.29531,20.81167 -2.52691,5.194971 -7.2003,8.560987 -12.58667,10.370118 -5.38399,1.808451 -12.45987,2.377881 -17.79292,0.116552 -0.3418,-1.658398 -0.72666,-3.281933 -1.19766,-4.908886 2.36934,-1.808106 4.88325,-3.560499 6.95112,-5.714844 -2.66977,-2.232276 -6.00537,-3.640821 -8.82177,-5.704248 l -0.37085,-0.2625 -0.24131,0.05503 c -1.86895,-1.253369 -6.04263,-5.031934 -6.47774,-7.263525 -0.21054,-1.08042 -0.23173,-2.184424 -0.48466,-3.256984 z"
     id="path81"
     style="stroke-width:0.341797;fill:#222222;fill-opacity:1" />
  <path
     fill="#232122"
     d="m 302.21885,82.366553 c 1.31318,-5.726465 5.17036,-14.742383 10.32055,-17.957324 1.9233,-1.200391 4.21265,-1.688135 6.43741,-1.153565 4.05781,0.975488 7.20097,4.990576 9.21723,8.404102 2.2251,3.767627 3.88008,8.367529 2.72242,12.757226 -0.96592,3.663037 -3.83975,6.683838 -7.06666,8.530908 -1.87817,1.07461 -7.02187,3.087793 -9.11401,2.505713 -0.0567,-0.01572 -0.10937,-0.04307 -0.16406,-0.0646 l 0.041,-0.106641 0.14048,0.144238 0.12407,0.03179 -0.25703,-0.182519 c 4.70039,-0.467236 9.46778,-2.280127 12.56685,-6.015967 2.00293,-2.414453 3.06045,-5.566504 2.73164,-8.703174 -0.52466,-5.001855 -4.15146,-10.695508 -8.03872,-13.774756 -1.60303,-1.269775 -3.44907,-2.0354 -5.52275,-1.816992 -2.94629,0.31001 -5.30196,2.631153 -7.03145,4.863086 -2.8229,3.643213 -5.34775,8.415039 -6.73613,12.800977 z"
     id="path82"
     style="stroke-width:0.341797" />
  <path
     fill="#fefefd"
     d="m 214.47002,268.85879 c 1.22021,-0.0964 2.41377,-0.10322 3.5875,0.296 2.97021,1.01069 4.2376,3.8958 5.53164,6.48559 0.80391,-0.34795 1.61021,-0.84936 2.44624,-1.10059 0.82715,-0.24848 1.64678,-0.12202 2.40454,0.27208 5.64683,2.93842 13.27949,20.52763 15.45879,27.00639 2.63218,7.82407 6.04912,21.2461 2.17212,28.86304 -0.89141,1.75171 -2.275,3.09668 -4.17437,3.68286 -4.47924,1.38291 -10.34209,-0.61421 -14.31958,-2.65405 -2.1687,-1.16724 -4.17983,-2.7918 -5.9811,-4.45977 -9.86938,-9.13896 -16.83384,-24.74883 -17.39473,-38.17837 0.48194,0.48296 1.02129,0.98404 1.62867,1.3043 0.83877,0.44228 2.11298,0.54482 3.00576,0.2167 0.6248,-0.22935 1.05581,-0.68428 1.3019,-1.2978 0.59473,-1.48169 0.23482,-3.37525 -0.40263,-4.78003 -0.76597,-1.68677 -2.05796,-3.38618 -3.83633,-4.03628 -0.49253,-0.003 -0.72154,0.21157 -1.09307,0.49629 l -0.15039,0.11757 -0.11689,-0.19755 c 0.008,-1.46631 0.84799,-3.44497 1.25337,-4.89659 0.3435,1.61534 0.98916,3.42686 2.47392,4.33946 0.33975,0.20884 0.60566,0.31992 0.99395,0.20405 -0.0311,-1.16895 -1.17544,-1.7876 -1.38189,-2.82871 -0.32231,-1.62456 0.19859,-3.36192 1.0189,-4.76021 1.31387,-2.23911 3.12915,-3.4166 5.57368,-4.09438 z"
     id="path83"
     style="stroke-width:0.341797" />
  <path
     fill="#050404"
     d="m 226.127,277.71885 c 0.50381,-0.0253 0.99737,-0.0509 1.48272,0.11142 1.18159,0.39546 2.09111,1.38155 2.64414,2.46812 0.93618,1.83921 1.23969,4.28921 0.5209,6.25044 -0.53799,1.46904 -1.28619,2.12461 -2.67286,2.76616 -0.37358,0.0116 -0.70444,-0.004 -1.07016,-0.0909 -1.32378,-0.31308 -2.42676,-1.20688 -3.09634,-2.37822 -0.97686,-1.7083 -1.06811,-3.85957 -0.52056,-5.72271 0.47476,-1.61669 1.25508,-2.5956 2.71216,-3.40429 z"
     id="path84"
     style="stroke-width:0.341797" />
  <path
     fill="#fefefd"
     d="m 226.25654,278.54019 c 0.22251,0.002 0.47818,-0.009 0.7,0.0311 0.86646,0.15552 1.46905,0.71914 1.92637,1.44717 0.9543,1.51928 1.26772,3.89956 0.78169,5.62221 -0.32197,1.14195 -0.84697,1.77871 -1.87065,2.34576 -0.21158,-0.002 -0.18047,0.003 -0.42896,-0.0236 -0.90508,-0.0974 -1.6314,-0.5937 -2.17827,-1.3084 -0.996,-1.3019 -1.13784,-3.15102 -0.85894,-4.71406 0.24951,-1.39932 0.73555,-2.58467 1.92876,-3.40019 z"
     id="path85"
     style="stroke-width:0.341797" />
  <path
     fill="#050404"
     d="m 215.22095,272.09834 c 0.77451,0.0424 1.46426,0.15654 2.14819,0.54209 1.9479,1.09785 3.09634,3.41968 3.61997,5.5231 0.49937,2.00532 0.64053,4.32338 -0.50825,6.13798 -0.80972,1.27935 -1.93389,1.88365 -3.37935,2.18579 -1.03462,-0.027 -1.96225,-10e-4 -2.91963,-0.45766 -1.5415,-0.73486 -2.62636,-2.16631 -3.15,-3.76934 -0.75366,-2.30542 -0.38452,-5.26606 0.79776,-7.37221 0.79263,-1.41197 1.84639,-2.3208 3.39131,-2.78975 z"
     id="path86"
     style="stroke-width:0.341797" />
  <path
     fill="#fefefd"
     d="m 214.88804,272.91045 c 0.42656,-0.003 0.84424,-0.006 1.23559,0.18628 1.70899,0.84082 2.74976,3.04199 3.28535,4.79062 0.53628,1.75069 0.85347,3.88179 -0.10048,5.54292 -0.54722,0.95327 -1.28106,1.32276 -2.31568,1.575 -0.46006,-0.0195 -0.93789,-0.028 -1.39009,-0.11963 -1.11904,-0.22661 -2.14785,-1.07221 -2.75795,-2.01352 -1.12178,-1.73018 -1.28174,-4.08037 -0.7858,-6.04331 0.43511,-1.723 1.31114,-3.00098 2.82906,-3.91836 z"
     id="path87"
     style="stroke-width:0.341797" />
  <path
     fill="#232122"
     d="m 218.07085,290.06421 c 3.4043,-0.21397 6.31265,0.40742 9.24185,2.17041 7.42246,4.46694 12.31835,12.73809 14.33188,20.99692 1.03052,4.227 1.6772,9.69131 -0.80698,13.5649 -1.27217,1.98378 -3.06968,3.00029 -5.3105,3.52255 -3.49556,0.31343 -6.5167,-0.5226 -9.47598,-2.41958 -7.47578,-4.79267 -12.86284,-13.69272 -14.72837,-22.25986 -0.85141,-3.9105 -1.1997,-8.68677 1.14297,-12.18608 1.3607,-2.03335 3.27202,-2.9545 5.60513,-3.38926 z"
     id="path88"
     style="stroke-width:0.341797" />
  <path
     fill="#fefefd"
     d="m 217.70513,291.06602 c 2.55014,-0.17124 4.93418,0.16884 7.25498,1.28481 6.87353,3.30518 11.73012,11.13677 14.10561,18.12104 1.45982,4.29195 2.80855,10.71294 0.58653,14.9813 -0.90235,1.73326 -2.2104,2.5669 -4.00415,3.16026 -2.50264,0.3353 -4.78755,-0.19927 -7.02461,-1.34463 -7.25567,-3.71567 -12.48892,-12.05484 -14.86885,-19.61572 -1.24551,-3.95699 -2.40112,-9.59458 -0.28745,-13.4668 0.96694,-1.77153 2.36626,-2.58774 4.23794,-3.12026 z"
     id="path89"
     style="stroke-width:0.341797" />
  <path
     fill="#515151"
     d="m 247.07744,277.20854 0.0766,-0.1832 c 0.74683,-1.83511 1.15254,-3.78677 1.97867,-5.59316 2.68515,-5.87173 8.21201,-9.73369 13.98496,-12.20454 6.63086,-2.83794 14.78545,-2.92989 21.50859,-0.25874 7.67847,3.05088 13.24019,10.14282 16.40044,17.57724 3.32671,7.82613 3.98296,15.85733 2.51494,24.16607 -0.35205,1.99301 -0.76562,4.09541 -1.44546,6.00161 -12.7145,10.45864 -27.66196,17.7748 -43.22124,22.97798 -4.11865,1.3771 -8.18398,2.68276 -12.41201,3.68696 4.21743,-6.1978 3.26724,-14.74922 1.92363,-21.76289 -2.1,-10.96484 -6.24497,-21.89414 -12.5976,-31.11958 -1.59927,-2.32217 -3.46788,-4.86069 -5.84371,-6.45039 -1.11528,-0.74649 -2.50468,-1.32173 -3.87324,-1.08042 -0.77075,0.13569 -1.41811,0.62993 -2.02651,1.09409 -0.50586,-1.427 -1.20039,-2.70703 -2.06035,-3.9522 0.11689,-0.67812 0.1938,-1.35966 0.27378,-2.04258 -0.56055,-1.53979 -2.10957,-3.67568 -1.28413,-5.32656 0.2666,-0.53354 0.73144,-0.87363 1.29199,-1.0541 2.3748,-0.76392 5.31357,0.85552 7.32402,1.96841 12.93633,7.16099 20.33076,22.10913 24.20606,35.80459 q 1.13339,3.99014 1.83852,8.07803 c 0.42212,2.36421 0.673,4.80669 1.43657,7.09126 1.32515,-11.98716 -3.9351,-27.10039 -9.99448,-37.41788 z"
     id="path90"
     style="stroke-width:0.341797;fill:#222222;fill-opacity:1" />
  <path
     fill="#515151"
     d="m 168.6166,216.42544 c 3.66475,-3.44805 8.91167,-5.07124 13.34341,-7.30762 3.38755,-1.70932 6.73921,-3.62236 9.95859,-5.6311 9.89024,-6.1708 18.83096,-13.32324 28.18218,-20.22344 11.59033,-8.55244 34.11885,-22.31831 49.05298,-19.99033 8.01069,1.24892 13.06895,7.22388 17.89819,13.1831 q 3.45489,4.18531 6.65547,8.56851 c -1.73462,1.0394 -3.50718,2.05386 -5.0979,3.30859 -6.14722,4.84839 -10.61211,11.97076 -15.4957,17.99527 -2.3232,2.86562 -4.99605,5.38535 -7.38692,8.18056 -0.0461,0.0978 -0.0906,0.1962 -0.13877,0.29292 -0.24711,0.49766 -0.63984,0.89209 -1.01137,1.29815 l 0.094,0.10356 0.74444,-0.31787 c -1.02437,1.09444 -2.22339,2.2791 -3.42857,3.1729 l -0.52295,-0.40879 c -5.12456,2.72925 -9.70224,6.24224 -14.68735,9.19468 -14.52739,8.6044 -31.52393,15.13818 -48.56489,15.51758 -8.99576,0.20029 -22.13169,-1.19971 -28.794,-7.66514 -2.68447,-2.60517 -4.66655,-6.24018 -4.71474,-10.0396 -0.0414,-3.26621 1.05,-6.06245 3.33867,-8.38906 q 0.52842,0.12339 1.04829,0.27788 0.52021,0.15415 1.03017,0.33941 0.50997,0.18491 1.00796,0.39956 0.498,0.21499 0.98267,0.45903 0.48433,0.24404 0.95361,0.51645 0.46929,0.27242 0.92149,0.57217 0.45219,0.29942 0.88559,0.62549 0.43374,0.32607 0.84732,0.6771 c 0.67915,0.57354 1.2373,1.39453 2.04531,1.77564 0.18867,-0.20748 0.1979,-0.3876 0.26284,-0.65455 -0.0865,-0.50141 -0.21294,-0.82817 -0.52705,-1.23422 -1.56235,-2.02173 -4.37363,-4.00928 -6.96445,-4.30733 -0.64463,-0.0742 -1.27866,-0.18183 -1.91851,-0.2895 z"
     id="path91"
     style="stroke-width:0.341797;fill:#222222;fill-opacity:1" />
  <path
     fill="#232122"
     d="m 265.7269,214.50898 c -0.0461,0.0978 -0.0906,0.1962 -0.13877,0.29292 -0.24711,0.49766 -0.63984,0.89209 -1.01137,1.29815 l 0.094,0.10356 0.74444,-0.31787 c -1.02437,1.09444 -2.22339,2.2791 -3.42857,3.1729 l -0.52295,-0.40879 c 1.35078,-1.42973 2.81299,-2.81128 4.26323,-4.14087 z"
     id="path92"
     style="stroke-width:0.341797" />
  <path
     fill="#fefefd"
     d="m 294.21978,185.84897 c 15.66318,22.78658 33.8789,56.23174 28.63266,84.76324 -2.62432,14.27207 -9.28081,24.39677 -19.09448,34.75083 3.42207,-10.03824 2.39189,-21.76118 -2.28628,-31.24092 -3.90469,-7.91157 -9.91724,-14.83091 -18.48164,-17.71157 -8.08589,-2.72002 -16.8981,-1.68199 -24.42891,2.13725 -5.95854,3.02183 -10.93066,7.92559 -13.03408,14.37393 q -0.27617,0.87192 -0.51372,1.75513 c -4.59819,-5.92437 -11.52231,-13.04195 -19.30366,-14.07862 -1.45469,-0.1938 -3.08233,-0.17363 -4.40816,0.5103 -2.92578,-0.85209 -5.2247,-0.16918 -7.82885,1.26773 -3.21665,1.77427 -6.03238,4.6522 -7.04102,8.2602 -0.33633,1.20381 -0.43135,2.53682 -0.86235,3.69927 -0.30078,0.81143 -0.85757,1.5357 -1.2086,2.33208 -0.80014,1.81597 -1.39692,4.00894 -1.76914,5.96094 -2.19536,11.51343 2.66841,26.01006 8.31524,35.96387 -3.13291,-1.0312 -5.97632,-2.59082 -8.80708,-4.25742 -9.16084,-5.39322 -17.22588,-12.52754 -22.11324,-22.14229 q -0.17876,-0.35137 -0.34863,-0.70684 -0.16987,-0.35581 -0.33086,-0.71538 -0.16098,-0.35991 -0.31308,-0.72358 -0.1521,-0.36367 -0.29497,-0.7311 -0.14253,-0.36744 -0.27618,-0.73829 -0.13364,-0.37085 -0.25805,-0.74477 -0.12442,-0.37393 -0.23926,-0.75093 -0.11484,-0.377 -0.22046,-0.75708 -0.10527,-0.37974 -0.20132,-0.76186 -0.096,-0.38247 -0.18252,-0.767 -0.0861,-0.38452 -0.16303,-0.77109 -0.0766,-0.38657 -0.1439,-0.7752 -0.067,-0.38828 -0.12442,-0.77827 -0.0571,-0.38999 -0.10493,-0.78134 -0.0475,-0.39136 -0.0851,-0.78374 -0.0379,-0.39239 -0.066,-0.78545 -0.028,-0.39307 -0.0461,-0.78682 -0.0181,-0.39375 -0.0263,-0.78784 -0.009,-0.39409 -0.007,-0.78819 0.001,-0.39409 0.0127,-0.78818 0.0116,-0.39409 0.0328,-0.7875 0.0212,-0.39375 0.0523,-0.78682 0.0308,-0.39272 0.0718,-0.78476 0.0407,-0.39204 0.0913,-0.78306 0.0506,-0.39067 0.11109,-0.78032 0.0605,-0.38965 0.13056,-0.77759 0.0701,-0.3876 0.14971,-0.77383 0.0796,-0.38588 0.16919,-0.76972 0.0892,-0.38418 0.18833,-0.76563 0.0988,-0.38144 0.20713,-0.7605 0.10835,-0.37871 0.22627,-0.75503 0.11792,-0.37597 0.24507,-0.74921 c 2.0084,-6.03511 5.80713,-11.29126 9.27773,-16.55459 0.98848,-1.49878 2.07744,-2.97774 2.93023,-4.55752 7.11518,0.33667 14.01811,0.16679 21.05263,-1.08589 13.26958,-2.36284 27.95078,-9.20835 38.92075,-16.96304 3.48804,-2.46572 8.16006,-6.38613 11.37432,-9.30405 l 0.18833,-0.17227 c 1.20518,-0.8938 2.4042,-2.07846 3.42857,-3.1729 2.00293,-1.47007 3.65175,-3.58169 5.29409,-5.44072 7.14082,-8.08418 13.75527,-19.55454 23.5105,-24.59605 z"
     id="path93"
     style="stroke-width:0.341797" />
</svg>
