<svg width="108" height="348" viewBox="0 0 108 348" fill="none" xmlns="http://www.w3.org/2000/svg">
<g clip-path="url(#clip0_401_558)">
<path d="M34.6054 122.075L30.0928 141.385L40.1305 143.817L43.6818 123.211L34.6054 122.075Z" fill="#919191"/>
<path d="M33.2221 6.98393C41.1461 7.8278 10.5624 178.211 9.49216 184.599C-8.33206 290.974 -3.82487 473.902 66.5672 193.779C76.4486 152.328 101.007 61.0475 108 25.7724C108 25.7724 106.178 8.34038 104.119 6.84866C99.5742 5.3131 91.3404 22.1655 91.3404 22.1655C91.3404 22.1655 87.8468 5.27176 85.3275 5.27176C82.531 5.06698 77.1387 16.7334 77.1387 16.7334C77.1387 16.7334 68.5733 0.16032 65.8953 0C64.6649 7.6684 62.9405 14.6234 55.5084 13.3378C54.1887 7.9071 50.5562 3.49472 45.971 0.0945644C45.6886 9.30306 43.123 13.3425 40.3461 19.1056C37.3854 9.45387 35.1272 6.52808 33.2221 6.98393Z" fill="#FFCC00"/>
<path d="M65.484 18.5933C65.484 18.5933 46.0913 15.8115 43.4723 19.988C40.8533 24.1644 40.5778 26.1446 43.0516 27.4103C53.3432 32.6758 74.861 25.166 65.484 18.5933Z" fill="#0F0F0F" stroke="black" stroke-opacity="0.956956" stroke-width="2"/>
<path d="M93.4612 32.6044C98.3392 31.7568 80.8523 15.4853 78.0601 17.927C70.6043 26.5195 88.7536 37.938 93.4612 32.6044Z" fill="#0F0F0F" stroke="black" stroke-opacity="0.956956" stroke-width="2"/>
<path d="M61.1679 65.5112C53.2187 71.7355 51.8983 69.2894 51.8456 73.2673C51.793 77.2453 52.018 76.5107 56.165 77.9429C60.312 79.3751 62.5586 80.8092 65.0986 79.9312C67.6386 79.0532 67.3126 77.869 67.3126 76.3535C67.3126 74.838 67.4755 74.739 67.4755 74.739" fill="#919191"/>
<path d="M74.8822 88.9405C74.8822 88.9405 75.0246 89.1578 72.6777 91.6471C70.3308 94.1365 62.2356 96.4392 56.3473 97.2733C50.4592 98.1075 49.2108 93.3956 43.6329 86.7204C38.0551 80.0452 42.7144 83.4107 42.7144 83.4107C48.519 91.7136 54.9365 99.2115 74.8822 88.9405Z" fill="#4D4D4D"/>
<path d="M68.0695 40.193C67.703 47.6709 67.8258 58.1374 60.0849 58.0154C52.0582 57.8888 43.0062 61.3354 40.3509 45.4704C39.1422 38.2486 48.4776 30.8844 56.5053 30.8844C64.5331 30.8844 68.428 32.8797 68.0695 40.193Z" fill="#E6E6E6"/>
<path d="M93.092 44.3667C92.7255 51.8447 92.8483 62.3112 85.1074 62.1892C77.0807 62.0626 68.0287 65.5092 65.3734 49.6441C64.1647 42.4223 73.5001 35.0582 81.5278 35.0582C89.5556 35.0582 93.4504 37.0535 93.092 44.3667Z" fill="#E6E6E6"/>
<path d="M67.734 42.3413C67.3675 49.8193 67.4904 60.2858 59.7495 60.1638C51.7227 60.0372 42.6707 63.4838 40.0154 47.6187C38.8067 40.3969 48.1421 33.0328 56.1699 33.0328C64.1976 33.0328 68.0925 35.0281 67.734 42.3413Z" fill="white"/>
<path d="M64.0257 49.9286C64.3922 57.4066 66.6978 63.5802 74.4387 63.4581C82.4654 63.3315 91.2254 66.7266 94.1727 50.9131C95.5813 43.3556 87.4768 33.9243 78.0183 36.3271C70.2382 38.3036 63.6673 42.6154 64.0257 49.9286Z" fill="white"/>
<path d="M58.4419 49.9139C60.6486 49.9139 62.4374 47.9693 62.4374 45.5706C62.4374 43.1719 60.6486 41.2274 58.4419 41.2274C56.2352 41.2274 54.4463 43.1719 54.4463 45.5706C54.4463 47.9693 56.2352 49.9139 58.4419 49.9139Z" fill="#0F0F0F" stroke="black" stroke-opacity="0.956956" stroke-width="2"/>
<path d="M70.7295 51.5736C73.2525 51.5736 75.2979 49.7603 75.2979 47.5235C75.2979 45.2866 73.2525 43.4733 70.7295 43.4733C68.2065 43.4733 66.1611 45.2866 66.1611 47.5235C66.1611 49.7603 68.2065 51.5736 70.7295 51.5736Z" fill="#0F0F0F" stroke="black" stroke-opacity="0.956956" stroke-width="2"/>
<path d="M0 301.241C0.323136 316.505 0.04886 331.649 5.8399 348C23.0917 340.103 28.532 315.769 38.1094 297.192L27.0751 302.021L24.0903 292.87L17.6652 302.54L11.2294 292.789L9.41517 302.566L0.434503 290.87L0 301.241Z" fill="#FFB380"/>
<path d="M1.32178 328.704C2.12324 334.953 3.46815 341.31 5.78846 347.861C12.2493 344.904 17.0535 339.641 21.0389 333.239L1.32178 328.704Z" fill="#1A1A1A"/>
<path d="M28.1738 299.627L32.3873 298.116L87.6161 91.1419C55.5309 174.904 51.8773 210.369 28.1738 299.627Z" fill="#1A1A1A" fill-opacity="0.108052"/>
<path d="M59.5526 102.89L17.9847 297.823L15.4717 296.922L54.0049 105.645L59.5526 102.89Z" fill="#1A1A1A" fill-opacity="0.108052"/>
<path d="M5.62519 294.607L38.1291 104.19L34.0586 102.293L0.947754 296.746L5.62519 294.607Z" fill="#1A1A1A" fill-opacity="0.108052"/>
</g>
<defs>
<clipPath id="clip0_401_558">
<rect width="108" height="348" fill="white"/>
</clipPath>
</defs>
<script xmlns=""/></svg>