<?xml version="1.0" encoding="UTF-8" standalone="no"?>
<svg
   width="350"
   height="350"
   version="1.1"
   id="svg115"
   sodipodi:docname="a-cartoon-penguin-wearing-square-glasses-and-headp(1).svg"
   inkscape:version="1.3.1 (9b9bdc1480, 2023-11-25, custom)"
   xmlns:inkscape="http://www.inkscape.org/namespaces/inkscape"
   xmlns:sodipodi="http://sodipodi.sourceforge.net/DTD/sodipodi-0.dtd"
   xmlns="http://www.w3.org/2000/svg"
   xmlns:svg="http://www.w3.org/2000/svg">
  <defs
     id="defs115" />
  <sodipodi:namedview
     id="namedview115"
     pagecolor="#ffffff"
     bordercolor="#999999"
     borderopacity="1"
     inkscape:showpageshadow="2"
     inkscape:pageopacity="0"
     inkscape:pagecheckerboard="0"
     inkscape:deskcolor="#d1d1d1"
     inkscape:zoom="1.0413252"
     inkscape:cx="367.3204"
     inkscape:cy="238.15807"
     inkscape:window-width="1920"
     inkscape:window-height="954"
     inkscape:window-x="0"
     inkscape:window-y="27"
     inkscape:window-maximized="1"
     inkscape:current-layer="svg115" />
  <path
     fill="#fdfdfd"
     d="M 0,0 H 350 V 350 H 0 Z"
     id="path1"
     style="stroke-width:0.341797" />
  <path
     fill="#fcd579"
     d="m 80.314746,125.21899 c 0.198926,-0.01 0.317188,-0.0198 0.525342,-0.006 0.719824,0.0492 1.329248,0.35547 1.788281,0.91636 q 0.0769,0.094 0.143555,0.19585 0.06699,0.10151 0.122363,0.20952 0.05571,0.10835 0.0998,0.22149 0.04409,0.11347 0.07588,0.23071 0.03179,0.11724 0.05127,0.23755 0.01948,0.11997 0.02598,0.24131 0.0068,0.12133 6.83e-4,0.24267 -0.0062,0.12168 -0.02495,0.24165 c -0.132959,0.9044 -0.553369,1.34156 -1.254394,1.88125 -0.257715,0.0202 -0.515772,0.04 -0.77417,0.0403 -0.573535,0.001 -0.961475,-0.24712 -1.328565,-0.66309 -0.466552,-0.5291 -0.642236,-1.17476 -0.596777,-1.87202 0.06597,-1.00694 0.405713,-1.46358 1.145703,-2.11778 z"
     id="path2"
     style="stroke-width:0.341797" />
  <path
     fill="#fcd579"
     d="m 288.14194,100.1376 c 0.26592,0.003 0.30318,-0.002 0.59268,0.0335 0.80801,0.0991 1.5603,0.63267 1.99849,1.30464 q 0.0902,0.13604 0.16543,0.28096 0.0755,0.14458 0.135,0.29634 0.0598,0.1521 0.10323,0.30932 0.0434,0.15723 0.0704,0.31822 0.0267,0.16098 0.0362,0.32402 0.01,0.1627 0.002,0.32573 -0.008,0.16304 -0.0321,0.32437 -0.0243,0.16133 -0.0656,0.31924 c -0.23345,0.89858 -0.77007,1.44135 -1.55518,1.88911 -0.97822,-0.1938 -1.91748,-0.36709 -2.56689,-1.19492 -0.47681,-0.60806 -0.68872,-1.32037 -0.55918,-2.08667 0.18457,-1.09444 0.8104,-1.80538 1.67514,-2.44385 z"
     id="path3"
     style="stroke-width:0.341797" />
  <path
     fill="#fcd579"
     d="m 288.81152,184.24595 c 0.41665,-0.0178 0.91363,-0.0731 1.31866,0.0335 0.52021,0.13638 1.03256,0.69624 1.29848,1.14536 0.51782,0.87466 0.57388,1.98687 0.29771,2.95108 -0.29053,1.01377 -0.89175,1.75239 -1.79888,2.26714 -1.13203,-0.2854 -2.06035,-0.67198 -2.68242,-1.71548 -0.42075,-0.70547 -0.55918,-1.53159 -0.35376,-2.33037 0.29429,-1.14434 0.94097,-1.76128 1.92021,-2.35122 z"
     id="path4"
     style="stroke-width:0.341797" />
  <path
     fill="#fcd579"
     d="m 300.3687,57.581836 c 0.40195,0.01435 0.83467,0.02632 1.20518,0.202344 0.63095,0.299414 1.04692,0.869189 1.27695,1.515185 0.39443,1.106739 0.23584,2.452735 -0.27104,3.496924 -0.44571,0.917725 -0.90816,1.196631 -1.85186,1.528174 q -0.2502,-0.07451 -0.49834,-0.156201 c -1.00215,-0.333594 -1.61021,-0.832276 -2.05112,-1.807422 -0.4211,-0.931055 -0.46314,-1.999512 -0.0427,-2.938428 0.47271,-1.05581 1.1833,-1.467676 2.23296,-1.840576 z"
     id="path5"
     style="stroke-width:0.341797" />
  <path
     fill="#fcd579"
     d="m 145.62974,202.00913 c 0.3018,-0.0144 0.61557,-0.0332 0.91635,0.001 0.71094,0.0807 1.4793,0.67231 1.8751,1.24345 1.04761,1.51245 0.76904,3.41831 0.45972,5.10747 -0.69453,0.80459 -1.21612,1.21372 -2.24082,1.54253 -0.20269,-0.0208 -0.40537,-0.0434 -0.60635,-0.0789 -0.97446,-0.17056 -1.76401,-0.64087 -2.30781,-1.47554 -0.63335,-0.97207 -0.76392,-2.26372 -0.48672,-3.3749 0.36333,-1.4564 1.12041,-2.23262 2.39053,-2.96509 z"
     id="path6"
     style="stroke-width:0.341797" />
  <path
     fill="#fcd579"
     d="m 162.4957,99.295752 c 0.69351,0.0048 1.32242,0.09707 1.94619,0.42041 0.91329,0.473048 1.5856,1.414358 1.88467,2.382328 0.35103,1.13681 0.27823,2.42846 -0.29121,3.48462 -0.52158,0.96728 -1.28891,1.58422 -2.33003,1.90688 -0.66137,0.0109 -1.4123,-0.0482 -2.02446,-0.31069 -0.996,-0.42725 -1.75752,-1.37095 -2.0894,-2.38711 -0.39375,-1.20518 -0.3271,-2.5939 0.31445,-3.702 0.61694,-1.06641 1.44785,-1.459819 2.58979,-1.794438 z"
     id="path7"
     style="stroke-width:0.341797" />
  <path
     fill="#fcd579"
     d="m 49.024951,60.199658 c 0.632324,-0.07212 1.412647,-0.216015 2.02207,0.0188 0.923536,0.355811 1.662159,1.248926 2.011133,2.152637 0.478516,1.238672 0.456299,2.715576 -0.09365,3.92622 -0.525684,1.156641 -1.358984,1.789649 -2.514258,2.25586 -0.490478,-0.0089 -0.992236,-0.0048 -1.467334,-0.143555 -1.093408,-0.318896 -1.984131,-1.054443 -2.481103,-2.081543 -0.522608,-1.080762 -0.55542,-2.393603 -0.144239,-3.515722 0.503467,-1.375049 1.379151,-2.025489 2.667383,-2.612696 z"
     id="path8"
     style="stroke-width:0.341797" />
  <path
     fill="#fcd579"
     d="m 225.53159,49.074854 c 0.66104,-0.04751 1.24107,-0.02427 1.85733,0.250195 0.98471,0.438867 1.66899,1.284472 2.00669,2.296191 0.40981,1.227735 0.29189,2.651319 -0.28746,3.805225 -0.58549,1.166211 -1.37094,1.699072 -2.59218,2.068213 -0.81724,-0.01128 -1.49776,-0.08818 -2.23638,-0.463477 -1.05615,-0.536279 -1.81802,-1.445117 -2.13589,-2.588428 -0.30591,-1.099902 -0.12681,-2.358398 0.45322,-3.338671 0.70205,-1.186036 1.65157,-1.663868 2.93467,-2.029248 z"
     id="path9"
     style="stroke-width:0.341797" />
  <path
     fill="#fcd579"
     d="m 133.71982,25.482529 c 0.56021,0.05763 1.19014,0.153023 1.71446,0.361348 1.02436,0.40708 1.82485,1.404067 2.19638,2.417939 0.44605,1.216455 0.41324,2.60063 -0.17739,3.762432 -0.62378,1.227734 -1.48579,1.760356 -2.75078,2.184834 -0.2666,0.02256 -0.53765,0.04443 -0.80527,0.02974 -0.87774,-0.04888 -1.81358,-0.536826 -2.39634,-1.186342 -1.18843,-1.325113 -1.18296,-2.92503 -1.08008,-4.582334 0.88286,-1.474751 1.6061,-2.417461 3.29902,-2.987613 z"
     id="path10"
     style="stroke-width:0.341797" />
  <path
     fill="#fcd579"
     d="m 307.03989,155.0189 c 0.80698,-0.0284 1.56817,0.0971 2.30371,0.44502 1.07461,0.50825 1.79786,1.47553 2.14683,2.5956 0.42178,1.3542 0.34897,2.95005 -0.35547,4.19761 -0.74853,1.32549 -1.78555,1.90825 -3.20434,2.33516 -0.75503,0.0564 -1.41949,0.0438 -2.13145,-0.24644 -1.10674,-0.45117 -1.94141,-1.2937 -2.34644,-2.42163 -0.48877,-1.36206 -0.31103,-3.00645 0.31822,-4.29468 0.72563,-1.48476 1.74077,-2.11811 3.26894,-2.61064 z"
     id="path11"
     style="stroke-width:0.341797" />
  <path
     fill="#fdfdfd"
     d="m 264.49746,45.420703 c 0.0191,0.01982 0.042,0.03657 0.0574,0.05947 0.52398,0.778955 -1.02231,8.042822 -1.28447,9.388476 q -2.32559,-0.0051 -4.65117,-0.03931 l -0.10186,-0.08784 c -0.0195,-0.09536 -0.0632,-0.189014 -0.0581,-0.286084 0.0205,-0.385205 3.20674,-4.406104 3.67055,-5.077393 0.87535,-1.267041 1.62286,-2.610644 2.36763,-3.957324 z"
     id="path16"
     style="stroke-width:0.341797" />
  <path
     fill="#fcd579"
     d="m 272.68726,289.67593 c 0.0608,0.0301 0.12099,0.0608 0.18217,0.0902 2.30987,1.11563 4.94239,1.25884 7.42076,1.78623 3.29765,0.70137 6.56865,1.50288 9.88305,2.12974 4.53155,0.85654 40.14439,6.88242 41.14312,8.78623 -0.0427,0.35376 -0.0236,0.47851 -0.31104,0.72495 -1.80024,1.5439 -39.05063,9.36318 -43.73462,10.31577 -5.32348,1.08247 -10.68696,1.99199 -16.01626,3.05874 -2.1957,0.43989 -4.4061,1.30601 -6.61479,1.5627 -3.88418,0.45185 -8.09614,-0.0755 -11.96631,-0.5667 -5.35356,-0.67949 -10.59023,-1.73462 -15.89971,-2.64893 -4.63271,-0.79775 -9.28286,-1.47143 -13.91284,-2.29482 4.67373,-1.73086 9.45137,-3.22041 14.1668,-4.84292 4.38867,-1.50972 10.16845,-2.90562 13.61377,-6.11885 8.91714,-1.53706 15.87851,-5.35117 22.0459,-11.98237 z"
     id="path19"
     style="stroke-width:0.341797" />
  <path
     d="m 99.96123,148.90859 c 0.91191,0.0684 4.85693,3.52701 5.74116,4.34629 0.48228,3.09702 1.33267,6.13902 2.11709,9.17041 l 4.36714,16.21929 12.94966,50.56919 c 2.53476,9.87554 5.59726,19.68237 7.52671,29.70283 0.17329,0.89995 0.44365,2.02241 0.10596,2.9063 -0.10049,0.26387 -0.23311,0.28745 -0.47066,0.42451 -1.94448,1.12007 -4.17641,1.9021 -6.24941,2.76377 l -10.79361,4.48711 q -14.38554,6.07202 -28.6436,12.43867 -2.174854,8.51245 -4.856934,16.8793 14.490479,1.83306 28.921824,4.08345 c 5.57471,0.88662 11.32613,1.63208 16.74224,3.27578 0.38452,2.62978 0.95122,5.52925 0.7417,8.18262 -3.36738,1.48305 -7.1627,2.37788 -10.68662,3.43608 -4.17027,1.252 -8.29439,2.65405 -12.44722,3.96279 -4.3186,1.36104 -8.753418,2.61236 -12.905566,4.42456 -11.850098,-1.95644 -23.773682,-3.41113 -35.612158,-5.45678 -3.510254,-0.62857 -18.579737,-2.16905 -20.727588,-3.69244 -0.672998,-1.26328 -0.143555,-6.08261 -0.161328,-7.81381 3.498632,-2.02242 8.04248,-3.10044 11.88291,-4.31724 5.99375,-1.89937 12.059277,-3.96484 18.230078,-5.20864 1.331982,-3.44258 2.315674,-7.05435 3.575879,-10.53316 -3.044043,1.0377 -6.062793,2.53135 -9.030957,3.78916 -4.088916,1.73223 -8.318653,3.33116 -12.265381,5.36587 -1.406153,0.72461 -5.567871,3.54478 -6.752539,3.46582 -0.220801,-0.0147 -0.365381,-0.18696 -0.509278,-0.33735 -1.317627,-1.37778 -2.683447,-6.92822 -3.341748,-8.91851 -5.36163,-16.21347 -8.888701,-33.03706 -11.891831,-49.82851 -2.333515,-13.04776 -4.39667,-26.07979 -5.777119,-39.26631 -0.780049,-7.45083 -1.806157,-15.43521 -1.794604,-22.90894 1.727749,-0.88628 3.608076,-1.54868 5.411328,-2.26782 l 9.234941,-3.64936 q 15.443408,-6.1356 30.996533,-11.98682 l 19.877881,-7.70376 c 2.766162,-1.10264 5.549756,-2.14546 8.326856,-3.21802 2.685498,-1.03735 5.343652,-2.18511 8.168261,-2.78633 z"
     id="path22"
     style="stroke-width:0.341797" />
  <path
     fill="#fdfdfd"
     d="m 125.2166,308.69009 c 0.69351,0.77964 0.71607,2.80068 0.79981,3.823 -3.8647,1.39726 -7.94507,2.41206 -11.87471,3.63432 -6.77988,2.10889 -13.5249,4.36851 -20.279493,6.55908 l -0.186621,0.0356 -0.212598,-0.17671 c -0.178076,-1.09204 -0.08066,-2.22475 -0.05024,-3.32773 5.061328,-1.59961 9.993112,-3.46992 15.005562,-5.19668 3.06387,-1.05547 6.17388,-1.96773 9.25962,-2.95552 2.50435,-0.80151 4.99434,-1.73462 7.53867,-2.39531 z"
     id="path23"
     style="stroke-width:0.341797" />
  <path
     fill="#fdfdfd"
     d="m 38.124023,311.50718 c 3.828125,0.0448 10.392334,1.49502 14.385889,2.12016 l 23.171436,3.45933 c 4.999121,0.7376 10.030371,1.64199 15.070507,2.03984 0.202002,1.41197 0.184571,2.86495 0.223194,4.28955 -3.85376,-0.36503 -7.692481,-1.08725 -11.52334,-1.65156 q -9.973291,-1.37436 -19.911035,-2.98764 l -13.399463,-2.0959 c -2.588428,-0.39922 -5.199072,-0.72017 -7.760498,-1.26807 -0.149707,-1.31011 -0.253613,-2.58672 -0.25669,-3.90571 z"
     id="path24"
     style="stroke-width:0.341797" />
  <path
     fill="#fdfdfd"
     d="m 83.671191,283.19204 0.13877,0.22319 c -1.565772,5.04253 -2.900488,10.16573 -4.427979,15.22261 -0.655566,2.17007 -1.204834,4.82207 -2.381298,6.76245 -0.607373,1.00215 -1.612598,1.57705 -2.743946,1.80811 -1.983789,0.40503 -3.853418,-0.0738 -5.509765,-1.17373 -0.367432,-0.37256 -0.736914,-0.7752 -1.01753,-1.21817 -0.401953,-0.63335 -0.579345,-1.18501 -0.515771,-1.93662 0.142529,-1.68882 0.938916,-3.42959 1.504248,-5.01758 1.08042,-3.03447 2.330029,-6.21694 2.981836,-9.37514 L 71.75,288.23765 c 3.887256,-1.81529 7.974463,-3.34175 11.921191,-5.04561 z"
     id="path25"
     style="stroke-width:0.341797" />
  <path
     fill="#fdfdfd"
     d="m 125.38203,258.80791 c 1.46118,0.51509 3.00337,1.00181 4.31245,1.84229 -1.98379,1.01513 -4.13882,1.80332 -6.19575,2.66362 -4.83574,2.02309 -9.71147,3.93852 -14.51406,6.04194 q -27.603518,12.33032 -55.618557,23.69439 c -1.013769,0.45219 -2.078467,0.82236 -3.115136,1.22226 1.124511,-1.49433 2.135888,-2.99824 3.097363,-4.60195 4.03833,-1.55928 7.941308,-3.46445 11.952978,-5.09277 Q 95.51958,272.10723 125.38203,258.80791 Z"
     id="path26"
     style="stroke-width:0.341797" />
  <path
     fill="#fdfdfd"
     d="m 103.61128,156.36523 0.12544,0.0455 c 0.2437,0.35035 3.83633,14.93653 4.30527,16.74224 l 22.20347,85.43384 -1.63345,-0.81724 -2.57202,-1.05786 c -0.58755,-4.06021 -1.84536,-8.07051 -2.85024,-12.04355 L 118.6835,226.50093 101.08608,157.5834 Z"
     id="path27"
     style="stroke-width:0.341797" />
  <path
     fill="#fdfdfd"
     d="m 99.303613,151.60059 c 1.240377,0.58686 2.330717,1.62387 3.347557,2.52656 -2.871775,1.32207 -5.924022,2.38813 -8.87407,3.53008 q -6.857129,2.63969 -13.666065,5.40107 -26.589062,10.80864 -53.484443,20.83013 c -0.215982,0.0793 -0.349282,0.0718 -0.568408,0.0133 -1.336529,-0.81314 -2.722276,-1.55005 -4.091172,-2.30713 3.895971,-1.84331 8.020879,-3.20571 12.038086,-4.7585 q 9.037724,-3.59331 18.115849,-7.08237 l 26.490967,-10.14932 c 6.879004,-2.68173 13.725879,-5.56479 20.691699,-8.00385 z"
     id="path28"
     style="stroke-width:0.341797" />
  <path
     fill="#fdfdfd"
     d="m 81.164111,301.36675 c 13.268555,1.629 26.421579,3.79018 39.649119,5.68647 -4.20957,1.52442 -8.47417,2.86153 -12.70732,4.31621 -3.43677,1.18125 -13.800392,5.2107 -16.576467,5.30469 -1.834423,0.0619 -3.86914,-0.48945 -5.690576,-0.77895 l -9.063086,-1.36343 Q 65.52417,312.89966 54.29375,311.12778 c -4.093359,-0.63095 -8.229785,-1.14126 -12.292383,-1.93628 7.790576,-1.88535 15.448535,-4.45771 23.109912,-6.80586 0.05366,1.0917 0.178418,2.2586 0.637793,3.26177 0.744776,1.62559 2.088721,2.67354 3.74336,3.28706 2.239453,0.83023 5.030566,0.80288 7.183203,-0.29292 2.876904,-1.4646 3.548535,-4.46933 4.488476,-7.2748 z"
     id="path29"
     style="stroke-width:0.341797" />
  <path
     fill="#fdfdfd"
     d="m 20.627441,183.58013 c 1.443101,0.69692 2.767051,1.78623 4.038946,2.7542 0.660283,3.32124 1.132783,6.69375 1.719648,10.03003 q 2.118184,12.42739 4.758667,24.75429 c 3.395239,15.25337 7.373755,30.59322 12.150366,45.47471 2.449317,7.63027 5.356641,15.05034 7.986768,22.60815 -1.322412,1.95542 -2.704297,3.63296 -4.370899,5.30059 -1.42871,1.40786 -2.941845,2.99175 -4.608447,4.11216 -2.376513,-4.02193 -5.323486,-16.00977 -6.565918,-20.99761 Q 32.261797,264.08354 29.5252,250.38228 26.788638,236.68101 24.79832,222.85156 c -1.989668,-12.95923 -3.749033,-26.15874 -4.170879,-39.27143 z"
     id="path30"
     style="stroke-width:0.341797" />
  <path
     fill="#fdfdfd"
     d="m 98.523291,158.39585 0.393408,0.0373 c 0.775196,0.83501 2.190231,7.74135 2.595951,9.29072 l 10.77788,42.65078 c 1.76025,6.98086 3.78301,13.89985 5.4896,20.89438 0.85654,3.50992 1.56748,7.0564 2.40249,10.57247 1.18842,5.0039 2.4852,9.99755 3.48598,15.04248 -4.85693,1.97934 -9.63764,4.16001 -14.45903,6.22651 q -21.128174,9.22988 -42.49082,17.90298 -3.57041,1.39043 -7.042383,3.01123 c -1.766406,0.81758 -3.64458,1.86382 -5.50498,2.43428 -0.500049,0.15346 -0.648047,0.15107 -1.10708,-0.094 -1.428028,-3.05498 -2.399414,-6.39536 -3.479834,-9.58911 q -2.417188,-6.91865 -4.585889,-13.91934 -4.068066,-13.05527 -7.484326,-26.2958 -3.416568,-13.24052 -6.173023,-26.63418 c -1.58686,-7.80459 -2.683276,-15.73291 -4.141484,-23.56928 3.260811,-1.43589 6.707285,-2.56143 10.046196,-3.80557 l 14.084766,-5.37407 c 6.463721,-2.45615 12.839941,-5.11568 19.275976,-7.63677 9.338233,-3.65825 18.689795,-7.20679 27.916602,-11.14497 z"
     id="path31"
     style="stroke-width:0.341797" />
  <path
     d="m 97.52627,167.85337 c 0.457666,-0.0308 0.804248,-0.14458 1.179199,0.20234 1.718211,1.58902 17.825051,72.86494 18.561961,80.02525 -2.34062,2.33925 -9.39258,5.31152 -12.68852,7.00102 l -15.018558,7.77212 c -8.344288,4.39653 -16.51836,9.22339 -24.986377,13.3793 -2.007373,0.98506 -4.115577,2.12597 -6.329053,2.51631 L 57.75752,277.42183 C 50.58833,256.16787 45.474023,234.28228 40.756543,212.3748 c -1.027783,-4.77251 -2.077783,-9.52929 -3.023877,-14.32026 -0.714014,-3.61792 -1.458789,-7.27651 -1.68335,-10.9645 1.591748,-0.848 3.491455,-1.35317 5.20044,-1.94448 q 6.23916,-2.13794 12.528223,-4.12481 c 14.445019,-4.70825 28.902343,-9.85537 43.748291,-13.16738 z"
     id="path32"
     style="stroke-width:0.341797" />
  <path
     fill="#e5858a"
     d="m 102.82412,189.0769 c 0.56192,0.72906 3.85479,15.61021 4.36372,17.76319 -4.13813,1.05547 -8.163133,2.59253 -12.133445,4.14839 -0.530127,0.20781 -1.591749,0.7851 -2.112647,0.80254 -0.105273,0.003 -0.202002,-0.0588 -0.302832,-0.0882 -1.586621,-6.31982 -3.180762,-12.61435 -4.940332,-18.89043 4.655273,-1.63208 10.266895,-2.82905 15.125536,-3.7355 z"
     id="path33"
     style="stroke-width:0.341797" />
  <path
     fill="#b21d36"
     d="m 94.693457,194.33613 c 0.582764,-0.0708 1.338477,-0.17671 1.900049,0.053 0.450488,0.18389 0.472363,0.269 0.624463,0.69248 -0.310352,0.58037 -1.082813,0.55508 -1.475537,1.05786 -0.343164,0.43921 -0.663428,1.56714 -0.592676,2.13418 0.256689,2.06582 3.833594,1.36446 5.180274,2.49717 0.54038,0.45459 0.73144,1.0688 0.7564,1.75581 0.0376,1.04317 -0.35137,1.64678 -1.02266,2.40454 -1.059571,0.67403 -2.385059,1.07666 -3.64629,0.7916 -0.695898,-0.15722 -1.566796,-0.67504 -1.873388,-1.34873 -0.244385,-0.53696 -0.176026,-0.88833 0.0017,-1.42426 0.162012,-0.4898 0.292578,-0.96695 0.40708,-1.46973 -0.220801,-0.49937 -0.675733,-0.75469 -1.098194,-1.08657 -0.433398,-1.19253 -0.858935,-2.67012 -0.633007,-3.94126 0.187646,-1.05547 0.619336,-1.50801 1.471777,-2.11607 z"
     id="path34"
     style="stroke-width:0.341797" />
  <path
     fill="#e5858a"
     d="m 97.253174,201.79756 c 0.406738,0.009 0.731103,0.0793 1.121777,0.19038 0.354785,0.34863 0.379395,0.34692 0.440235,0.83603 -0.174659,0.53902 -0.433741,0.79707 -0.824073,1.1816 -0.349658,0.0232 -0.606347,-0.0188 -0.951904,-0.0694 -0.29873,-0.23105 -0.476807,-0.30488 -0.483984,-0.72392 -0.0096,-0.54039 0.393408,-1.00591 0.697949,-1.4147 z"
     id="path35"
     style="stroke-width:0.341797" />
  <path
     fill="#f5eba7"
     d="m 81.059863,173.64409 c 0.0099,0.003 0.02187,0.003 0.02974,0.01 0.378369,0.30728 0.328808,0.60977 0.41289,1.06743 l 0.463135,-0.29394 -0.416992,0.2167 q 2.313623,8.69975 4.820019,17.34585 c -4.670312,1.84126 -9.399756,3.51435 -14.054345,5.40381 l -0.220118,-0.0431 c -0.607373,-0.64258 -1.291992,-4.78106 -1.528857,-5.79448 -1.049316,-4.49087 -2.37583,-8.89253 -3.626465,-13.32871 4.473779,-1.92432 9.454785,-3.15 14.120996,-4.58316 z"
     id="path36"
     style="stroke-width:0.341797" />
  <path
     fill="#ca6231"
     d="m 75.365186,179.30083 c 0.622753,-0.0311 1.153906,-0.014 1.718554,0.29634 1.849805,1.01753 0.613867,3.08164 1.2896,4.48916 0.584131,1.21714 2.036426,1.67514 2.473584,3.20195 0.188672,0.65967 0.06597,1.32754 -0.289844,1.90723 -0.611475,0.99668 -1.913379,1.89184 -3.061133,2.11025 -0.738965,0.14048 -1.440674,-0.0191 -2.041211,-0.47783 -0.53833,-0.41152 -1.172021,-1.2773 -1.188427,-1.98276 -0.0099,-0.44673 0.14663,-0.59781 0.42417,-0.89585 0.479199,0.0191 0.517138,0.0721 0.906103,0.36333 0.558838,0.4375 1.230127,0.82954 1.974902,0.77246 0.445704,-0.0342 0.715381,-0.14971 0.997022,-0.50347 0.291894,-0.36675 0.30625,-0.91431 0.274463,-1.35352 -0.664795,-1.01308 -1.566114,-0.65864 -2.570655,-0.98437 -0.423144,-0.1374 -0.421777,-0.25566 -0.618652,-0.63301 -0.03179,-0.70683 0.344873,-1.2062 0.638818,-1.82348 0.233448,-0.48946 0.288819,-0.92798 0.06528,-1.44239 -0.173291,-0.39853 -0.461768,-0.67026 -0.856885,-0.83603 -1.156641,0.33393 -1.371973,1.99165 -2.131104,2.86289 l -0.276855,-0.0157 c -0.138428,-0.21123 -0.171924,-0.24781 -0.288135,-0.498 -0.28164,-0.60703 -0.201318,-1.35796 0.03213,-1.96363 0.496289,-1.28652 1.28584,-2.06958 2.528272,-2.59355 z"
     id="path37"
     style="stroke-width:0.341797" />
  <path
     fill="#fdfdfd"
     d="m 111.80654,228.30801 0.0964,-0.0684 c 0.70205,0.84936 3.78677,16.95005 4.20068,19.40381 -1.71958,1.03291 -11.15317,6.0956 -12.49404,6.18037 l -0.24336,-0.39204 c -0.73008,-2.76992 -1.78315,-5.4503 -2.60962,-8.19322 -1.083836,-3.59843 -1.933885,-7.27138 -2.738133,-10.94057 q 6.800053,-3.21153 13.788083,-5.98999 z"
     id="path38"
     style="stroke-width:0.341797" />
  <path
     fill="#fcd579"
     d="m 106.00762,235.75405 c 0.28027,0.0503 0.40263,0.1104 0.64565,0.24575 1.12725,1.6543 2.44077,6.63223 2.60894,8.66866 0.052,0.62583 0.0731,1.25781 -0.34077,1.74692 l -0.34385,-0.11894 c -0.56157,-0.52227 -0.71333,-1.21065 -0.94917,-1.91851 q -0.92354,-2.80615 -1.81392,-5.6229 c -0.38999,0.55815 -0.70786,1.04556 -1.27524,1.43418 -0.35137,0.0649 -0.59815,0.1333 -0.95259,0.0455 -0.27549,-0.0684 -0.25327,-0.16646 -0.38076,-0.39478 0.20132,-1.45947 1.85185,-2.98491 2.80171,-4.08584 z"
     id="path39"
     style="stroke-width:0.341797" />
  <path
     fill="#f5eba7"
     d="m 106.5791,208.3481 c 0.28472,-0.0468 0.45972,-0.0506 0.74068,-0.0294 0.99018,1.57295 3.78471,15.66934 4.38593,18.62861 q -6.86225,2.86529 -13.604196,6.00332 l 0.0072,-0.15175 -0.172265,0.17226 c -0.827149,-1.13579 -4.471045,-17.52358 -4.990235,-20.0081 4.496338,-1.74966 8.946876,-3.44292 13.632906,-4.61494 z"
     id="path40"
     style="stroke-width:0.341797" />
  <path
     fill="#fcd579"
     d="m 99.99165,213.97817 c 0.44605,-0.0116 0.9061,-0.004 1.33438,0.1398 0.72085,0.24165 1.39863,0.75981 1.70249,1.47041 0.84218,1.97012 -0.32334,4.27759 -1.06094,6.11133 1.05068,-0.12339 2.83965,-0.96284 3.82197,-0.52979 0.32607,0.1439 0.47954,0.323 0.63472,0.62925 0.21191,0.41733 0.2895,0.89448 0.0796,1.33472 -0.56704,1.18979 -3.04815,1.17851 -4.19112,1.47007 l -0.15551,0.0407 c -0.41973,0.12886 -0.85621,0.26831 -1.29166,0.32983 -0.42724,0.0605 -0.78715,-0.0273 -1.12895,-0.30283 -1.536377,-1.2397 1.74111,-5.50156 1.45605,-7.19346 -0.0848,-0.50312 -0.20883,-0.56567 -0.58686,-0.86098 -1.399659,-0.10767 -1.318995,1.69087 -2.467774,2.06924 -0.39375,-0.13501 -0.605322,-0.21705 -0.835693,-0.6043 -0.260791,-0.43716 -0.189356,-0.97344 -0.01162,-1.42222 0.514063,-1.2978 1.42837,-2.17383 2.700879,-2.68174 z"
     id="path41"
     style="stroke-width:0.341797" />
  <path
     fill="#fdfdfd"
     d="m 97.622656,169.2373 c 0.110401,0.002 0.273438,0.0769 0.379737,0.11211 0.740673,1.76333 1.083154,3.98501 1.547656,5.85601 1.035301,4.16958 2.100681,8.34395 2.978421,12.5501 -2.02583,0.6019 -4.128226,1.03838 -6.176956,1.56509 l -8.897998,2.37788 c -1.721631,-6.14312 -3.552637,-12.28111 -5.068164,-18.47823 4.016113,-1.56543 10.940918,-3.20161 15.237304,-3.98296 z"
     id="path42"
     style="stroke-width:0.341797" />
  <path
     fill="#fcd579"
     d="m 90.577197,174.65786 c 0.774854,-0.0451 2.065479,0.0892 2.63833,0.67471 1.119727,1.14399 -0.522265,3.58408 -0.421435,5.00288 0.432715,0.59678 1.625244,0.67812 2.294824,1.10879 0.468945,0.30112 0.78374,0.74101 0.862695,1.30361 0.143897,1.02368 -0.527734,2.56963 -1.177832,3.33286 -0.350683,0.41118 -0.820996,0.72222 -1.378125,0.7335 -0.714355,0.0147 -1.346679,-0.41289 -1.788965,-0.94165 -0.331884,-0.39683 -0.482617,-0.77041 -0.418701,-1.29473 0.301123,-0.38042 0.303516,-0.39512 0.772461,-0.51064 0.326074,0.15859 0.638819,0.26113 0.98711,0.36025 0.36914,-0.1104 0.64873,-0.17432 0.956689,-0.41665 0.243018,-0.19106 0.188672,-0.2977 0.230371,-0.58345 -0.764941,-2.22304 -2.563818,-0.63608 -3.854785,-1.68779 -0.607031,-1.24243 1.175781,-2.49888 1.458789,-3.80933 0.137744,-0.63745 -0.05879,-1.06264 -0.392041,-1.58115 l -0.259082,-0.0273 c -0.608057,0.67744 -0.594385,1.56201 -0.997363,2.34951 l -0.3271,0.10391 c -0.434082,-0.18013 -0.66958,-0.41597 -0.859277,-0.84493 q -0.04375,-0.0974 -0.07759,-0.19892 -0.03418,-0.10117 -0.05811,-0.20542 -0.02393,-0.10425 -0.0376,-0.21021 -0.01401,-0.10595 -0.01743,-0.21259 -0.0034,-0.10699 0.0034,-0.21363 0.0068,-0.10664 0.02427,-0.21225 0.01709,-0.10528 0.04443,-0.2085 0.02734,-0.10356 0.0646,-0.20371 c 0.31582,-0.83125 0.967969,-1.22739 1.727441,-1.60713 z"
     id="path43"
     style="stroke-width:0.341797" />
  <path
     fill="#bedbec"
     d="m 70.800488,199.41899 c 0.101172,0.0215 0.193457,0.0728 0.28916,0.1128 0.906446,2.22544 1.298829,4.89145 1.830664,7.24404 0.934473,4.13335 1.86211,8.25474 2.978077,12.34399 -4.721582,1.8481 -9.394287,3.71089 -13.941211,5.96265 -0.19961,-0.0403 -0.07246,0.004 -0.316846,-0.25122 -1.135107,-6.6377 -3.194775,-13.23916 -4.863428,-19.7668 4.622803,-2.02412 9.354297,-3.73857 14.023584,-5.64546 z"
     id="path44"
     style="stroke-width:0.341797" />
  <path
     d="m 65.154346,205.09248 c 0.899951,0.0578 1.630029,0.27515 2.309179,0.89995 0.526368,0.48433 0.80083,1.10435 0.793653,1.82075 -0.0089,0.86714 -0.479883,1.25132 -1.064698,1.81084 0.954639,0.40913 1.701465,0.82784 2.357374,1.65464 0.754687,0.95191 1.150146,2.16392 0.995312,3.37901 q -0.02358,0.1873 -0.06597,0.37153 -0.04238,0.18389 -0.103222,0.36265 -0.06084,0.17876 -0.139454,0.35068 -0.07861,0.17158 -0.173974,0.33462 -0.09536,0.16304 -0.206787,0.31548 -0.111426,0.15244 -0.237549,0.29292 -0.126465,0.14048 -0.26626,0.26762 -0.139795,0.12715 -0.291553,0.23926 c -0.733496,0.5397 -1.660791,0.7916 -2.561425,0.61797 -1.435547,-0.27651 -2.127686,-1.2438 -2.9292,-2.35088 0.338721,-0.37734 0.603272,-0.72973 1.098194,-0.90234 l 0.198242,0.21191 c 0.420752,0.36914 0.868164,0.72632 1.430078,0.84766 q 0.09844,0.0208 0.198584,0.0318 0.100147,0.0109 0.200635,0.012 0.10083,6.8e-4 0.200976,-0.009 0.100147,-0.01 0.198926,-0.0291 0.09878,-0.0195 0.195166,-0.0489 0.09605,-0.0294 0.189014,-0.068 0.09263,-0.039 0.181152,-0.0872 0.08853,-0.0482 0.171582,-0.10493 c 0.452197,-0.3083 0.786817,-0.80904 0.882178,-1.34942 0.09023,-0.51201 -0.03862,-1.06709 -0.388623,-1.46084 -0.449121,-0.50552 -1.852539,-0.4457 -2.52041,-0.57729 -0.586524,-0.11587 -0.817578,-0.34385 -1.138526,-0.82852 -0.126123,-1.38872 1.281055,-2.04941 1.573975,-3.28193 -0.181836,-0.40845 -0.253613,-0.47407 -0.611133,-0.74717 -1.025732,0.0943 -1.460156,1.19731 -2.121875,1.87715 -0.328467,0.33735 -0.475098,0.3958 -0.937549,0.38828 -0.120654,-0.0988 -0.385547,-0.28506 -0.468261,-0.43203 -0.241309,-0.4293 -0.243018,-0.84014 -0.03691,-1.28687 0.564648,-1.22568 1.889111,-2.04736 3.08916,-2.5228 z"
     id="path45"
     style="stroke-width:0.341797" />
  <path
     fill="#fdfdfd"
     d="m 86.576807,193.29092 c 0.766308,1.31865 1.085205,3.648 1.476562,5.15464 q 1.847754,7.00717 3.512305,14.06049 c -4.758496,2.13829 -9.597998,4.21539 -14.429981,6.18174 -0.990185,-1.66079 -4.009619,-16.59936 -4.786523,-19.79892 4.631006,-2.127 9.542969,-3.59605 14.227637,-5.59795 z"
     id="path46"
     style="stroke-width:0.341797" />
  <path
     fill="#fcd579"
     d="m 80.573145,200.01406 c 0.952587,0.0595 1.573974,0.42178 2.384033,0.90508 -0.363672,1.75957 -0.318555,3.52358 -0.773145,5.28521 1.126563,-0.001 2.216895,-0.0663 3.062158,0.80664 0.41084,0.42451 0.610791,0.95463 0.597461,1.54458 -0.02051,0.90713 -0.492529,1.79306 -1.163476,2.38916 q -0.126123,0.11416 -0.263184,0.21533 -0.13706,0.10117 -0.283691,0.18799 -0.146289,0.0868 -0.300781,0.15859 -0.154151,0.0721 -0.315137,0.12817 -0.160645,0.0561 -0.326416,0.0961 -0.16543,0.04 -0.333936,0.0629 -0.168847,0.0232 -0.339062,0.0294 -0.170215,0.007 -0.340088,-0.004 c -1.141943,-0.0834 -1.880908,-0.64668 -2.603809,-1.48511 -0.02222,-0.0485 -0.04512,-0.0964 -0.06665,-0.14526 -1.079395,-2.42881 0.356152,-4.57495 1.132715,-6.82603 0.154492,-0.44775 0.20747,-0.63266 -0.0027,-1.05786 -1.537744,-0.90234 -2.464013,2.12871 -3.875293,2.42163 -0.248486,-0.2625 -0.286767,-0.4645 -0.328125,-0.81279 -0.107666,-0.91157 0.0065,-1.8146 0.626172,-2.52861 0.906446,-1.04419 2.222022,-1.23765 3.512989,-1.37061 z"
     id="path47"
     style="stroke-width:0.341797" />
  <path
     fill="#fdfdfd"
     d="m 82.664258,208.10337 c 0.150732,0.005 0.327783,0.004 0.472705,0.0441 0.471338,0.13193 0.569092,0.2355 0.792969,0.63096 -0.02632,0.16748 -0.03315,0.28061 -0.115186,0.44126 -0.271387,0.52978 -0.800146,0.74887 -1.309766,0.98813 -0.06016,-0.008 -0.120996,-0.0137 -0.181152,-0.0243 -0.50415,-0.0899 -0.809033,-0.21909 -1.11665,-0.63061 l 0.06494,-0.404 c 0.376318,-0.54722 0.810742,-0.74717 1.392139,-1.04556 z"
     id="path48"
     style="stroke-width:0.341797" />
  <path
     fill="#f5eba7"
     d="m 81.635449,242.16206 c 0.69419,0.64053 4.566748,15.83408 4.968018,17.58374 q 0.339404,1.42393 0.468603,2.88169 c -2.833838,1.63823 -5.702539,3.17051 -8.602685,4.68809 -1.253369,0.65556 -2.543311,1.45639 -3.869141,1.94482 l -0.283008,-0.30557 c -1.615673,-6.26958 -4.17539,-13.35913 -6.249072,-19.58427 4.476856,-2.48965 8.958838,-4.9687 13.567285,-7.2085 z"
     id="path49"
     style="stroke-width:0.341797" />
  <path
     d="m 77.133301,249.01646 c 0.36914,-0.0164 0.696582,-0.0273 1.064013,0.0301 0.535938,0.0834 1.196973,0.35889 1.457422,0.85723 0.470313,0.89927 -0.261474,2.42197 -0.561572,3.30073 0.291895,0.53013 1.218848,0.70718 1.740772,1.06675 0.877734,0.6043 1.244824,1.86963 1.425976,2.86699 0.233106,1.28242 0.127149,2.72583 -0.653857,3.81411 -0.531494,0.74068 -1.31626,1.2045 -2.220655,1.32002 -0.998046,0.12784 -2.572363,-0.15346 -3.342089,-0.83569 -0.382813,-0.3394 -0.378028,-0.81006 -0.407764,-1.28071 1.418457,-0.0622 2.662256,1.23867 4.151123,0.5896 0.53081,-0.23174 0.858594,-0.58413 1.03291,-1.12998 0.376318,-1.17852 0.132959,-2.47085 -0.417676,-3.55401 -0.257031,-0.50552 -0.523291,-0.78921 -1.074951,-0.97412 -1.261914,0.0492 -1.832373,0.93789 -2.780859,1.60884 -0.3271,0.2314 -0.340772,0.31924 -0.752979,0.24267 -0.265918,-1.22944 -0.675049,-5.83652 -0.166797,-6.87456 0.337696,-0.69008 0.826807,-0.84253 1.506983,-1.04794 z"
     id="path50"
     style="stroke-width:0.341797" />
  <path
     fill="#f5eba7"
     d="m 77.612158,250.26265 c 0.369141,0.27617 0.596436,0.36982 0.666846,0.86235 0.133642,0.93174 -0.609082,1.88877 -1.119043,2.58706 l -0.219434,0.0246 -0.209863,-0.26284 c -0.06973,-0.70821 -0.127148,-1.44888 0.02905,-2.15127 0.134668,-0.60669 0.379736,-0.72393 0.852441,-1.05991 z"
     id="path51"
     style="stroke-width:0.341797" />
  <path
     fill="#e5858a"
     d="m 49.63916,183.72163 0.153125,0.006 0.0106,0.0373 c 0.250537,0.22798 5.131396,18.71646 5.582226,20.46441 -4.380468,1.75307 -8.543554,4.0831 -12.729882,6.24907 -0.314112,0.13637 -0.639161,0.23413 -0.964209,0.34043 -0.137745,-0.22354 -0.194141,-0.35581 -0.176709,-0.62173 0.0981,-1.51724 -1.71958,-8.40205 -2.153321,-10.50274 -0.803564,-3.8893 -1.535351,-7.77246 -2.066845,-11.70961 z"
     id="path52"
     style="stroke-width:0.341797" />
  <path
     fill="#b21d36"
     d="m 42.5896,190.22773 c 0.28916,-0.0243 0.61831,-0.0701 0.906103,-0.0386 0.683936,0.0748 1.412647,0.66069 1.8146,1.19971 1.701806,2.28115 0.77622,6.01699 0.378027,8.61225 1.136133,-0.63198 2.296875,-1.2103 3.626465,-1.19047 0.542432,0.008 0.965576,0.10048 1.364453,0.49321 l -0.0147,0.41836 c -0.775879,1.18535 -1.743848,1.35625 -3.032422,1.79136 -0.493213,0.21225 -0.971729,0.45424 -1.458789,0.67983 -0.653174,0.30283 -1.177832,0.58823 -1.90586,0.31958 -1.435546,-1.81939 1.094434,-6.90498 0.151758,-9.24356 -1.031543,-0.77451 -2.078808,-0.0608 -3.235791,-0.0256 -0.469287,0.014 -0.499023,-0.0458 -0.825097,-0.34863 0.01128,-0.1979 0.02188,-0.37051 0.08647,-0.56021 0.42041,-1.23081 1.058887,-1.57158 2.144776,-2.10718 z"
     id="path53"
     style="stroke-width:0.341797" />
  <path
     fill="#f5eba7"
     d="m 96.859082,234.82129 c 0.661719,0.82715 1.831348,7.85552 2.273291,9.46777 0.957717,3.49351 2.327637,6.83081 3.231007,10.35645 q -6.821241,3.83974 -13.877296,7.229 c -1.59585,-6.74228 -3.679443,-13.48218 -5.583594,-20.15097 4.618018,-2.36695 9.32627,-4.55718 13.956592,-6.90225 z"
     id="path54"
     style="stroke-width:0.341797" />
  <path
     d="m 92.330615,241.50068 c 0.321289,-0.0167 0.657959,-0.0386 0.977881,0.002 0.616943,0.0769 1.401025,0.40093 1.74419,0.94199 0.775878,1.22432 -0.08271,3.46377 -0.339405,4.7814 0.04102,0.0328 0.08237,0.0649 0.123047,0.0981 0.06802,0.0554 0.134326,0.11245 0.202002,0.16748 0.218408,0.17739 0.444678,0.34658 0.633691,0.55747 0.655567,0.73144 0.921143,1.76401 0.859961,2.72822 -0.07861,1.23286 -0.643603,2.66362 -1.645068,3.43574 -0.539355,0.41597 -1.189453,0.59781 -1.862451,0.46724 -1.034277,-0.20029 -1.970801,-1.02334 -2.536475,-1.88159 -0.325732,-0.49424 -0.496289,-0.97617 -0.360254,-1.57056 0.662403,-0.21807 2.311231,1.82793 3.269287,1.87202 0.529786,0.0246 0.707178,-0.1938 1.097168,-0.50244 0.187989,-0.45869 0.393409,-0.92934 0.486719,-1.41743 0.140479,-0.73657 0.139795,-1.4687 -0.269678,-2.1147 -1.115625,-0.59575 -1.575,0.31275 -2.646875,0.28779 -0.32163,-1.08247 1.247217,-2.62944 1.677198,-3.60322 0.266943,-0.60498 0.478857,-1.50493 0.115185,-2.1164 -0.223535,-0.37598 -0.563965,-0.58072 -0.99292,-0.64292 -0.385205,-0.0554 -0.813134,0.12475 -1.135107,0.3247 -1.683691,1.04624 -1.427686,2.78257 -1.852881,4.40645 l -0.39375,0.15278 c -0.443652,-0.14731 -0.48706,-0.1897 -0.785791,-0.55234 -0.150049,-0.89688 -0.09775,-1.70181 0.244043,-2.55425 0.653174,-1.62866 1.832373,-2.56929 3.390283,-3.26724 z"
     id="path55"
     style="stroke-width:0.341797" />
  <path
     fill="#e5858a"
     d="m 91.537988,213.77241 c 0.198926,-0.0297 0.07041,-0.0297 0.369483,0.11074 0.760156,2.81607 1.310107,5.7087 1.982422,8.54869 0.882861,3.72968 1.878515,7.43613 2.793164,11.15898 -4.655616,2.20391 -9.394971,4.46421 -13.954541,6.85645 -0.379395,-0.54825 -4.502149,-17.89512 -5.199756,-20.623 4.746191,-1.84981 9.37959,-3.92793 14.009228,-6.05186 z"
     id="path56"
     style="stroke-width:0.341797" />
  <path
     fill="#b21d36"
     d="m 83.44834,221.6416 c 1.008642,-0.0304 2.119824,0.25122 2.876562,0.95806 0.926612,0.86543 1.170996,1.94482 1.241407,3.15581 1.76333,1.03906 2.556982,1.86929 3.094287,3.86333 -0.185596,0.81313 -0.337354,1.55073 -0.870557,2.21758 -0.873633,1.09306 -2.288672,1.93388 -3.693457,2.06718 -0.591309,0.0561 -1.18501,-0.0178 -1.649512,-0.41733 -0.491504,-0.4228 -0.711621,-1.12075 -0.722558,-1.75376 -0.0085,-0.47339 -0.05742,-0.97685 0.288818,-1.30942 l 0.537305,0.11552 c 0.253955,0.24815 0.520556,0.53799 0.8104,0.74205 0.396485,0.2789 1.003516,0.20883 1.458106,0.11928 0.555761,-0.10937 1.060937,-0.42485 1.349072,-0.92011 q 0.0499,-0.0872 0.09023,-0.17876 0.04033,-0.0919 0.07075,-0.18765 0.03042,-0.0957 0.05024,-0.19414 0.01983,-0.0984 0.02871,-0.19824 0.0092,-0.0998 0.0079,-0.2003 -0.0017,-0.10014 -0.01401,-0.19995 -0.0123,-0.0995 -0.0352,-0.19721 -0.02324,-0.0978 -0.0564,-0.19244 c -0.181494,-0.52705 -0.556103,-0.89824 -1.053418,-1.13169 -0.747168,-0.35034 -1.267041,0.13536 -1.972168,0.33291 -0.401611,0.11246 -0.778613,-0.0489 -1.133398,-0.22387 -0.390674,-0.93687 1.053418,-1.80161 1.233887,-2.74497 0.07246,-0.3794 -0.027,-0.75674 -0.325049,-1.01582 -0.187305,-0.16338 -0.490479,-0.29942 -0.741358,-0.28301 -0.637109,0.042 -1.030859,0.44297 -1.461865,0.86474 -0.316162,0.30933 -0.596435,0.57627 -0.961474,0.82476 -0.27583,-0.14048 -0.521241,-0.38999 -0.643262,-0.68428 -0.157227,-0.37871 -0.139111,-0.73862 -0.0021,-1.12075 0.400586,-1.11733 1.191162,-1.5938 2.198096,-2.10752 z"
     id="path57"
     style="stroke-width:0.341797" />
  <path
     fill="#f5eba7"
     d="m 55.415869,205.57817 0.28335,0.1856 c 0.804931,2.36045 1.351123,4.86924 1.97251,7.28643 1.089306,4.23623 2.195361,8.4434 2.842382,12.775 -1.798193,0.96557 -3.712939,1.7582 -5.543603,2.67011 -2.634229,1.31216 -5.218213,2.73985 -7.811426,4.13164 l -0.192773,0.0588 -0.287452,-0.17329 c -0.824414,-2.56587 -1.30498,-5.31562 -1.892187,-7.94814 q -1.445459,-6.24976 -2.679346,-12.54497 c 4.452588,-2.11812 8.751367,-4.55035 13.308545,-6.44117 z"
     id="path58"
     style="stroke-width:0.341797" />
  <path
     fill="#68a142"
     d="m 51.486572,213.32056 c 0.509961,-0.0345 1.06128,-0.0431 1.568164,0.0191 0.467237,0.0571 0.720508,0.26216 1.00044,0.62993 0.280957,2.02583 -0.879444,4.43276 -1.157324,6.47021 -0.189356,1.38907 0.01094,3.52598 -0.486377,4.77627 -0.132959,0.33394 -0.384864,0.50894 -0.739649,0.57593 -0.44331,0.0834 -0.641894,-0.0372 -0.995312,-0.25327 -0.387256,-1.18501 -0.223535,-2.32012 -0.09263,-3.53213 0.333593,-2.25278 0.955322,-4.4355 1.371972,-6.67256 -1.174755,0.52671 -2.702588,2.22066 -3.995263,1.9961 -0.07109,-0.0123 -0.139453,-0.0373 -0.20918,-0.0561 l 0.03589,0.0191 -0.327442,-0.31479 C 47.346729,216.5772 47.41167,216.25181 47.6,215.8854 c 0.689404,-1.34155 2.52793,-2.11777 3.886572,-2.56484 z"
     id="path59"
     style="stroke-width:0.341797" />
  <path
     fill="#fdfdfd"
     d="m 65.413086,178.61006 c 0.439551,-0.0742 0.237891,-0.11553 0.607715,0.11211 q 2.595605,9.53305 4.674756,19.19189 -7.191065,2.74395 -14.250196,5.81226 c -0.885595,-2.54297 -1.412304,-5.32315 -2.112988,-7.93071 -1.125879,-4.19146 -2.435303,-8.31661 -3.242285,-12.5877 4.828223,-1.29165 9.569971,-3.04917 14.322998,-4.59785 z"
     id="path60"
     style="stroke-width:0.341797" />
  <path
     fill="#fcd579"
     d="m 60.760205,196.323 c -0.341455,0.15791 -0.678809,0.27754 -1.037012,0.39238 -0.405371,-0.0875 -0.535595,-0.1292 -0.844922,-0.43066 -2.300976,-2.24322 1.378467,-5.09893 1.287549,-7.48467 -0.217383,-0.41734 -0.262158,-0.54961 -0.740674,-0.71128 -0.423486,-0.14287 -0.971728,-0.12988 -1.367529,0.0656 q -0.16748,0.22388 -0.341797,0.44297 c -0.328466,0.40537 -0.497998,0.59986 -1.027783,0.65352 -0.379394,-0.26182 -0.532519,-0.55474 -0.626514,-0.99942 -0.157226,-0.7458 0.08374,-1.45468 0.535596,-2.05112 0.396485,-0.52261 0.967969,-0.83569 1.619434,-0.90337 1.00249,-0.10459 2.058301,0.377 2.785644,1.04146 0.772119,0.70512 1.306006,1.72641 1.323096,2.78359 q 0.0058,0.29497 -0.01709,0.58926 -0.02256,0.29394 -0.07383,0.58481 -0.05093,0.29053 -0.129883,0.57491 -0.07896,0.28403 -0.185254,0.55952 -0.105957,0.27514 -0.238232,0.53901 -0.131934,0.26387 -0.28916,0.51372 -0.156885,0.24951 -0.337354,0.48296 -0.180469,0.23345 -0.382812,0.44844 c -0.04512,0.0485 -0.0916,0.0964 -0.137061,0.14424 1.160401,-0.11143 2.388818,-0.40093 3.546143,-0.23208 0.375976,0.35683 0.459375,0.86645 0.479541,1.36923 0.0092,0.22969 0.06323,0.41324 -0.117237,0.58824 -0.719824,0.69897 -2.681054,0.85073 -3.682861,1.03872 z"
     id="path61"
     style="stroke-width:0.341797" />
  <path
     fill="#f9dadb"
     d="m 66.739941,249.99229 0.03555,0.008 0.06939,-0.0308 c 0.979248,0.90234 5.720654,17.36191 6.511914,19.93906 -4.54248,2.59082 -9.14375,4.92734 -13.833887,7.23652 -0.283691,0.0865 -0.131591,0.0885 -0.449804,-0.0748 -2.260645,-6.27608 -4.372608,-13.54268 -6.077832,-19.98418 l 0.12749,-0.0513 c 4.676807,-1.92329 9.1646,-4.64946 13.617187,-7.04272 z"
     id="path62"
     style="stroke-width:0.341797" />
  <path
     fill="#b21d36"
     d="m 63.198242,257.1772 c 0.250537,0.0564 0.436817,0.14697 0.667188,0.25703 0.611816,0.929 -0.02188,2.87246 -0.230713,3.92998 1.1604,0.13774 1.912695,0.33872 2.697119,1.26977 0.73042,0.86783 1.125537,2.02378 0.961133,3.15889 -0.146973,1.0165 -0.744434,1.82144 -1.583887,2.38916 -0.626172,0.42349 -1.296094,0.66138 -2.050439,0.46758 -0.818946,-0.20986 -1.489893,-0.88389 -1.880567,-1.61055 -0.372217,-0.69282 -0.442969,-1.21577 -0.208496,-1.96054 0.385205,-0.40948 0.384863,-0.39512 0.945752,-0.46246 0.523975,0.91602 0.605322,1.80025 1.692578,2.18545 0.383838,-0.0482 0.664111,-0.11689 0.971387,-0.36948 0.422119,-0.34726 0.720508,-0.90679 0.728369,-1.45776 0.0068,-0.45733 -0.234814,-0.8627 -0.581738,-1.14434 -1.021631,-0.82988 -2.203907,-0.63745 -3.421387,-0.55268 q 0.325049,-1.64234 0.590283,-3.29527 c -0.73247,0.34248 -1.888086,1.06333 -2.697461,0.82783 -0.521582,-0.15175 -0.806982,-0.8456 -1.05957,-1.28447 1.331982,-0.88354 2.96167,-1.79272 4.460449,-2.34814 z"
     id="path63"
     style="stroke-width:0.341797" />
  <path
     fill="#f5eba7"
     d="m 76.226514,220.48872 c 1.237646,1.72232 4.583838,17.41489 5.225048,20.33657 -1.915429,0.97447 -12.642382,7.06392 -13.745019,7.09502 q -3.246729,-10.59365 -5.707666,-21.39682 c 4.642627,-2.26783 9.439746,-4.10328 14.227637,-6.03477 z"
     id="path64"
     style="stroke-width:0.341797" />
  <path
     fill="#fcd579"
     d="m 70.48877,227.12949 c 0.06938,-0.004 0.138427,-0.0133 0.207812,-0.0133 0.721191,0.001 1.876807,0.3312 2.356689,0.848 -0.0099,1.10127 -1.458789,1.91475 -2.164599,2.67388 -0.373926,0.40195 -0.750928,0.91806 -0.689746,1.4957 0.03897,0.36777 3.301758,0.31035 4.29331,1.25098 0.683594,0.64873 0.976856,1.60952 0.990186,2.53134 0.01709,1.18228 -0.4146,2.39156 -1.280371,3.2146 -0.802539,0.76358 -1.551074,0.82544 -2.617822,0.81553 -0.05298,-0.0144 -0.106299,-0.028 -0.158936,-0.0427 l -0.261816,-0.0759 c -0.453223,-0.12818 -0.992579,-0.22183 -1.259522,-0.66035 -0.231738,-0.37974 -0.207129,-0.55201 -0.108691,-0.94712 0.638134,-0.49048 1.889111,-0.36231 2.662597,-0.37837 0.283008,-0.15586 0.442969,-0.26934 0.63335,-0.54038 0.316162,-0.44912 0.396826,-1.45401 0.228662,-1.97388 -0.168848,-0.52056 -0.6125,-1.00317 -1.140918,-1.18057 -0.541064,-0.18217 -0.957715,0.0349 -1.43042,0.27276 -0.378369,0.19038 -0.661719,0.323 -1.077344,0.39648 -0.442968,-0.20644 -0.593701,-0.34145 -0.812109,-0.78647 -0.493555,-1.00694 -1.260889,-4.16206 -0.788525,-5.17891 0.441601,-0.95054 1.521338,-1.33437 2.418213,-1.72129 z"
     id="path65"
     style="stroke-width:0.341797" />
  <path
     fill="#fdfdfd"
     d="m 60.655615,227.10728 c 0.524317,0.35717 1.010694,3.29458 1.187061,4.02363 1.434179,5.92334 2.990039,11.70312 4.86001,17.50307 -2.073682,0.92456 -4.043799,2.07574 -6.048438,3.13941 -2.575098,1.36684 -5.177197,2.67627 -7.730762,4.08481 l -0.10083,-0.0291 c -0.08887,-0.0875 -0.202685,-0.15552 -0.266601,-0.26284 -0.386573,-0.64873 -0.963184,-3.92759 -1.224659,-4.93726 -1.434863,-5.53711 -3.072412,-10.99629 -4.330908,-16.58193 4.491211,-2.40352 9.089063,-4.68125 13.655127,-6.93984 z"
     id="path66"
     style="stroke-width:0.341797" />
  <path
     d="m 56.382471,234.51982 0.458691,0.23106 c 0.183203,0.27754 0.267969,0.47099 0.345899,0.80049 0.270019,1.14262 1.523046,8.6748 1.330957,9.40727 -0.04922,0.18833 -0.199952,0.33394 -0.299756,0.50073 -0.203028,-0.0752 -0.399561,-0.17021 -0.597461,-0.25839 -0.81416,-1.48169 -1.021973,-4.644 -1.295752,-6.35469 -0.216699,-1.35488 -0.782715,-3.16777 0.05742,-4.32647 z"
     id="path67"
     style="stroke-width:0.341797" />
  <path
     d="m 219.75659,93.111963 c -2.15674,-1.644727 -5.57915,-3.378662 -6.59394,-6.008789 -0.19483,-0.504492 -0.242,-1.046924 0.0338,-1.536035 0.51817,-0.918409 2.03472,-1.367871 2.98765,-1.570215 5.09927,-1.082813 9.275,1.895947 13.30444,4.537695 -0.38076,-0.623437 -0.95224,-1.41333 -0.9666,-2.173486 -0.0109,-0.589258 0.27036,-1.335401 0.72188,-1.724365 0.34726,-0.299073 0.80425,-0.354102 1.24243,-0.286426 3.18862,0.490478 5.83857,4.013721 7.60566,6.425781 q 0.67915,-0.08784 1.36241,-0.136377 c 8.32651,-0.638818 16.97978,2.432568 23.26713,7.853809 9.69883,8.362065 15.17749,22.376755 16.07129,34.970265 4.04517,4.33193 6.5167,9.37275 7.24644,15.28926 0.96763,7.84355 -0.61729,17.09428 -5.58189,23.43769 -2.07197,2.64722 -5.39253,5.34024 -8.83134,5.76133 l -0.10801,0.22353 c -1.02881,2.14786 -1.59277,4.54761 -2.12803,6.86192 -3.88862,16.82119 1.17134,34.74468 5.03125,51.1188 l 2.44111,10.52802 c 0.45459,2.00191 0.79434,4.16036 1.48135,6.09117 1.75308,-5.72681 6.67735,-15.88433 12.00015,-18.76875 0.91704,-0.49698 1.94277,-0.8169 2.96919,-0.47168 0.66343,0.22319 1.17305,0.68633 1.4687,1.31899 1.67002,3.5752 -1.47451,10.25391 -2.78906,13.59292 3.41933,-2.54365 8.10024,-6.27163 12.65844,-5.69365 1.02984,0.13091 2.00088,0.54311 2.60484,1.4229 0.82339,1.19868 0.80801,2.88682 0.50107,4.25059 -1.22021,5.42568 -6.39331,9.76342 -10.84966,12.60273 1.09307,0.33257 2.32559,0.71538 3.19751,1.48442 0.68428,0.60362 1.00694,1.40171 1.0295,2.30645 0.0431,1.70727 -0.81861,3.18008 -1.97525,4.36987 -4.58144,4.71236 -13.46098,6.30718 -19.71484,6.44356 -1.39317,6.25078 -2.9832,8.96499 -6.75698,14.04204 -6.16739,6.6312 -13.12876,10.44531 -22.0459,11.98237 -3.44532,3.21323 -9.2251,4.60913 -13.61377,6.11885 -4.71543,1.62251 -9.49307,3.11206 -14.1668,4.84292 -2.44077,0.89722 -6.40117,2.85024 -9.01523,2.13247 -0.65899,-0.18081 -1.24449,-0.55713 -1.55689,-1.18125 -0.59096,-1.18159 -0.11142,-2.71011 0.27686,-3.88316 -1.61773,-0.28984 -3.25835,-0.21499 -4.89453,-0.20405 -0.0988,1.43111 -0.22969,2.8417 -0.42862,4.26221 -3.48051,1.25405 -7.12441,2.04497 -10.70473,2.95586 -6.07852,1.54629 -12.2418,3.07275 -18.21299,4.98989 -4.9523,-1.38428 -9.81948,-3.45078 -14.6689,-5.17275 -7.27241,-2.58228 -14.61899,-4.98477 -21.93345,-7.44776 L 122.0488,302.4229 c -2.92852,-0.96968 -6.29146,-1.6249 -9.02139,-3.06934 -0.22729,-2.56826 -0.11894,-5.26264 0.35103,-7.79912 0.5684,-0.38965 1.1563,-0.69624 1.78999,-0.96421 3.04677,-1.28891 23.58227,-8.20312 25.38252,-8.04794 3.47607,0.29975 12.52583,4.0602 16.16972,5.55761 1.32925,-0.35444 3.24878,-0.61318 4.4461,-1.23901 -0.0584,-0.0444 -0.10699,-0.10664 -0.17534,-0.1333 -0.16373,-0.0643 -0.3524,-0.0356 -0.51954,-0.0902 -0.40263,-0.13159 -0.85107,-0.60224 -1.00761,-0.97412 -0.23243,-0.55166 -0.13706,-1.18774 0.0639,-1.73359 0.54414,-1.47554 2.01148,-2.43701 3.38448,-3.05908 5.72646,-2.59424 11.43037,-1.37471 17.0478,0.70512 -3.56289,-8.52065 -3.37764,-15.86587 -2.719,-24.81582 -4.22802,4.23999 -13.8872,10.87325 -19.78696,11.12344 -1.07358,0.0455 -2.15024,-0.17944 -2.93262,-0.96182 -2.04497,-2.0436 -1.05957,-6.3393 -0.4187,-8.80639 4.46968,-17.20811 18.39961,-33.08799 30.25142,-45.78882 4.0831,-4.37568 8.05137,-8.72949 11.7144,-13.47227 0.96455,-1.24858 2.09658,-2.52177 2.90152,-3.87734 1.16416,-1.96055 1.42837,-4.57871 1.5039,-6.81406 -2.74941,-2.12188 -5.47763,-4.16035 -7.91943,-6.64453 -1.64302,-0.15142 -3.27886,-0.20132 -4.90786,-0.49732 -4.34697,-0.78955 -9.43906,-3.03721 -12.58325,-6.18413 -3.35884,-0.20747 -7.54961,-0.16133 -10.43028,1.88535 -1.22602,0.87124 -2.73369,3.67158 -4.22905,3.79087 -0.296,-0.17978 -0.45493,-0.29941 -0.63643,-0.606 -0.81689,-1.38155 -0.0807,-4.9024 0.28951,-6.39742 1.60302,-6.47431 7.23652,-13.26821 12.88574,-16.66704 -1.20415,-3.97817 -1.52373,-7.93447 -1.59688,-12.06474 q -0.20029,3.4e-4 -0.40058,-0.003 c -0.75811,-0.0164 -1.38155,-0.0776 -1.91201,-0.67949 -0.34248,-0.38828 -0.60396,-0.91294 -0.51783,-1.44478 0.0691,-0.42759 0.35992,-0.80083 0.72017,-1.0271 0.7229,-0.45459 1.50527,-0.18696 2.27602,-0.0273 0.62037,-4.25777 1.1792,-8.55552 3.61075,-12.2271 1.70898,-2.58057 4.28305,-4.72569 7.38725,-5.30845 2.62398,-0.49287 4.58213,0.38486 6.69785,1.81904 7.50962,-13.10654 11.90171,-18.55717 25.34971,-26.368941 -0.85723,-0.01982 -1.71582,-0.03999 -2.56894,-0.130909 -1.79683,-0.191064 -4.31143,-0.606347 -5.45918,-2.142041 -0.41495,-0.555078 -0.63575,-1.236621 -0.51236,-1.928759 0.16304,-0.914649 0.84766,-1.634131 1.602,-2.125293 3.43609,-2.237745 8.4376,-0.800489 12.13721,-0.07109 z"
     id="path68"
     style="stroke-width:0.341797" />
  <path
     fill="#f5eba7"
     d="m 195.53105,150.6791 0.20679,-0.028 0.37393,3.20401 c -0.17432,0.27788 -0.12852,0.35137 -0.46826,0.42554 -0.26558,0.0578 -0.50826,0.0844 -0.77793,0.10185 l -0.22012,-1.45093 c 0.0779,-0.0684 0.15791,-0.13432 0.23413,-0.20439 0.6231,-0.57149 0.61455,-1.25986 0.65146,-2.04805 z"
     id="path69"
     style="stroke-width:0.341797" />
  <path
     fill="#f5eba7"
     d="m 161.98984,176.04419 c 0.40606,-1.96055 1.23321,-3.83872 2.26783,-5.54531 l 0.67778,0.12612 c -0.90474,1.17988 -1.16792,2.27021 -0.9919,3.74541 0.01,0.0776 0.0209,0.15518 0.0311,0.23276 z"
     id="path70"
     style="stroke-width:0.341797" />
  <path
     fill="#fdfdfd"
     d="m 208.10747,96.277686 c -3.4e-4,-0.04956 -0.005,-0.09878 -0.001,-0.147998 0.0332,-0.404004 0.22216,-0.621045 0.54619,-0.850049 2.35156,-1.659766 8.91543,-0.446045 11.62519,0.156884 -1.03838,0.482959 -3.6022,-0.01709 -4.80464,-0.07246 -2.53715,-0.116552 -4.9205,0.249512 -7.36572,0.913624 z"
     id="path71"
     style="stroke-width:0.341797" />
  <path
     fill="#fdfdfd"
     d="m 195.53105,150.6791 c -0.47441,-0.0796 -1.16245,-0.10561 -1.5333,-0.40127 -0.0431,-1.36035 -3.4e-4,-4.90615 0.85108,-5.9729 0.2396,-0.30044 0.41186,-0.24883 0.7499,-0.23105 0.32573,0.62036 0.11245,5.44448 0.13911,6.57719 z"
     id="path72"
     style="stroke-width:0.341797" />
  <path
     fill="#fdfdfd"
     d="m 224.18423,94.57998 c -1.71787,-1.154589 -3.01841,-2.857421 -4.55855,-4.225976 -0.99257,-0.882178 -2.11435,-1.610889 -3.08608,-2.518359 -0.26558,-0.248487 -0.43853,-0.465528 -0.62617,-0.772803 l 0.10801,-0.290528 c 0.29531,-0.156543 0.53491,-0.261474 0.87021,-0.308984 4.32202,-0.613525 9.32114,2.04292 12.62358,4.560938 -1.12109,0.02837 -6.15371,-2.479395 -7.95703,-2.980811 -1.37744,-0.382812 -2.62807,-0.456982 -4.05029,-0.450146 1.30908,1.040087 6.55156,5.417822 6.84277,6.815087 z"
     id="path73"
     style="stroke-width:0.341797" />
  <path
     fill="#fcd579"
     d="m 207.671,309.48408 c -0.002,-0.0598 -0.002,-0.11997 -0.005,-0.18012 -0.0273,-0.68189 -0.079,-1.11871 -0.59233,-1.6003 -0.33052,-0.31001 -0.67539,-0.56909 -0.97891,-0.90986 1.46768,-0.65796 6.87798,-0.70103 8.66421,-0.66445 -0.90337,1.11699 -1.63447,2.22919 -2.19365,3.55878 -1.61773,-0.28984 -3.25835,-0.21499 -4.89453,-0.20405 z"
     id="path74"
     style="stroke-width:0.341797" />
  <path
     fill="#fdfdfd"
     d="m 154.7376,290.07104 c 1.61362,0.39273 3.22827,1.10743 4.80498,1.65806 2.73471,0.95532 5.49096,1.85425 8.23901,2.77095 l -1.79306,0.58481 c -1.43008,0.50928 -10.70337,-3.00029 -12.81431,-3.71191 0.48432,-0.48159 1.02368,-0.88594 1.56338,-1.30191 z"
     id="path75"
     style="stroke-width:0.341797" />
  <path
     fill="#fdfdfd"
     d="m 140.35,284.99194 c 4.50557,1.56133 9.02002,3.0502 13.48696,4.72466 -0.67573,0.3917 -1.39931,1.07837 -2.1605,1.21817 -4.55854,-1.91099 -9.53032,-3.4959 -14.2895,-4.83916 z"
     id="path76"
     style="stroke-width:0.341797" />
  <path
     fill="#fdfdfd"
     d="m 192.68594,297.54204 c 0.9478,0.13399 2.51596,1.46631 3.46719,1.9291 1.41367,0.68736 3.36054,0.68257 4.62246,1.60679 l -0.30865,0.81621 c 0.0202,0.57593 0.27002,0.98506 0.53184,1.48374 l 0.12339,0.2314 -3.69243,-1.37232 c -3.28433,-1.18227 -6.74024,-2.71079 -10.16162,-3.36806 1.831,-0.3753 3.6186,-0.82305 5.41782,-1.32686 z"
     id="path77"
     style="stroke-width:0.341797" />
  <path
     fill="#fdfdfd"
     d="m 151.0667,292.25273 c 3.76113,1.31216 7.58686,2.43941 11.34731,3.7625 -2.02685,0.58379 -4.02602,1.20791 -6.00092,1.95098 -0.26011,0.12373 -0.40708,0.0916 -0.69932,0.0325 -1.29815,-0.2625 -2.76104,-0.97275 -4.02808,-1.42495 q -3.29218,-1.16313 -6.62881,-2.19263 c 1.95235,-0.8374 3.99117,-1.47348 6.00982,-2.12837 z"
     id="path78"
     style="stroke-width:0.341797" />
  <path
     fill="#fdfdfd"
     d="m 155.76538,299.89326 c 1.23662,0.1169 4.38081,1.59619 5.78833,2.09624 1.80606,0.64121 3.64048,1.21065 5.46602,1.79341 q -2.96817,1.12622 -5.79961,2.56245 l -0.23926,0.16919 c -0.83159,0.0656 -9.09556,-3.12778 -10.6832,-3.67842 q 2.74394,-1.45298 5.46772,-2.94287 z"
     id="path79"
     style="stroke-width:0.341797" />
  <path
     fill="#fdfdfd"
     d="m 177.57783,301.49561 q 5.29683,1.96533 10.43609,4.31142 c -2.2063,0.59917 -4.33912,1.46494 -6.55533,2.01489 -3.70234,-1.13784 -7.37768,-2.71284 -10.9956,-4.10771 2.31157,-0.9314 4.72329,-1.53193 7.11484,-2.2186 z"
     id="path80"
     style="stroke-width:0.341797" />
  <path
     fill="#fdfdfd"
     d="m 168.50073,304.52393 c 0.90235,0.18183 1.91406,0.73691 2.79556,1.06196 q 4.27314,1.52783 8.50151,3.17529 c -1.16552,0.43306 -4.84599,2.6585 -5.72099,2.45 -3.89239,-1.49433 -7.93584,-2.65132 -11.85762,-4.079 2.11777,-0.80425 4.1959,-1.72334 6.28154,-2.60825 z"
     id="path81"
     style="stroke-width:0.341797" />
  <path
     fill="#fdfdfd"
     d="m 163.98013,296.5269 c 3.41933,0.69966 8.26977,2.77164 11.62212,4.0479 q -3.3397,1.08692 -6.64864,2.26475 c -2.57441,-0.37666 -8.76811,-2.83076 -11.58281,-3.82573 q 3.27647,-1.31865 6.60933,-2.48692 z"
     id="path82"
     style="stroke-width:0.341797" />
  <path
     fill="#fdfdfd"
     d="m 142.52485,295.47588 c 1.93765,-0.16235 9.54126,2.87451 11.83335,3.67363 -1.93662,0.95669 -3.74267,2.14273 -5.56821,3.29219 -4.05576,-1.59107 -8.30327,-2.66294 -12.36997,-4.21196 1.94141,-1.09068 4.05474,-1.89356 6.10483,-2.75386 z"
     id="path83"
     style="stroke-width:0.341797" />
  <path
     fill="#fdfdfd"
     d="m 204.91201,309.53979 0.19585,0.0564 c 0.28643,0.56226 0.15552,1.43555 0.14424,2.05864 -4.16582,1.48443 -8.4981,2.34234 -12.78594,3.38995 -4.12378,1.00761 -8.21167,2.18544 -12.30058,3.32636 -0.19893,-0.0253 -0.0667,0.003 -0.37085,-0.16543 -0.15723,-0.79638 0.0362,-1.60029 0.15825,-2.3936 2.29209,-0.8644 4.82514,-1.38701 7.19175,-2.01934 5.90966,-1.57978 11.78549,-2.97397 17.76728,-4.25298 z"
     id="path84"
     style="stroke-width:0.341797" />
  <path
     fill="#fdfdfd"
     d="m 135.40044,286.76689 c 4.58384,1.41915 9.22031,3.1189 13.70366,4.83438 -1.44853,0.4727 -5.91958,2.41103 -7.13706,2.12598 -4.80874,-1.36001 -9.52314,-3.38892 -14.40845,-4.41055 q 3.92793,-1.25303 7.84185,-2.54981 z"
     id="path85"
     style="stroke-width:0.341797" />
  <path
     fill="#fdfdfd"
     d="m 189.32163,131.03911 c 0.36812,0.39649 0.61455,0.94234 0.81655,1.44068 1.88604,4.64672 1.59893,10.71362 1.16621,15.64335 -0.0451,0.51304 0.0786,1.37403 -0.14321,1.80708 -0.0995,0.1938 -0.3124,0.17193 -0.50654,0.21705 -0.11177,-0.0338 -0.24507,-0.0277 -0.33565,-0.10152 -0.61728,-0.50312 1.05992,-6.95762 -0.38896,-8.30532 -0.3312,-0.3083 -0.5168,-0.27959 -0.9208,-0.23311 -0.95054,0.63472 -1.30156,1.63379 -1.74111,2.64141 -0.6542,2.08462 -0.65181,4.26016 -0.75401,6.42441 -1.14092,0.23106 -2.24116,0.55235 -3.35542,0.88731 1.22944,-7.10527 3.74097,-13.66265 6.16294,-20.42134 z"
     id="path86"
     style="stroke-width:0.341797" />
  <path
     fill="#fdfdfd"
     d="m 125.34512,289.84033 c 0.34521,-0.0311 0.27104,-0.0649 0.54004,0.0239 1.96806,0.65112 3.90263,1.47964 5.86045,2.17246 2.92304,1.03393 5.87719,1.94448 8.83408,2.87383 -1.17168,0.47133 -4.89795,2.62055 -5.75005,2.71831 -0.1979,0.0226 -0.61831,-0.12271 -0.83023,-0.16475 -5.2582,-1.83613 -10.60869,-4.02466 -16.03095,-5.26811 2.41992,-0.86441 4.93349,-1.54117 7.37666,-2.35567 z"
     id="path87"
     style="stroke-width:0.341797" />
  <path
     fill="#fdfdfd"
     d="m 164.25767,170.49888 q 0.58789,-1.18125 1.28139,-2.30371 0.69351,-1.12246 1.48682,-2.17657 0.79297,-1.05444 1.67959,-2.03164 0.88628,-0.97719 1.85835,-1.86928 c 7.66308,-7.12613 13.63598,-9.56246 24.08164,-9.18614 l 0.22012,1.45093 c -2.91382,0.44092 -5.92779,0.8668 -8.74146,1.75615 -5.96504,1.88535 -12.65469,6.03614 -17.28296,10.28501 -1.42529,1.30806 -2.63081,2.75591 -3.90571,4.20137 z"
     id="path88"
     style="stroke-width:0.341797" />
  <path
     fill="#fcd579"
     d="m 204.01001,167.54473 c 1.09956,0.26113 2.29893,1.08725 3.36602,1.55586 -1.86177,3.46103 -4.6751,6.54028 -8.25166,8.252 -4.9834,2.38506 -10.06148,1.95576 -15.11392,0.16098 -1.82793,-0.69453 -3.54854,-1.61191 -5.26983,-2.53134 4.62486,0.0209 9.35328,0.62924 13.94737,-0.15552 4.36987,-0.74649 8.79648,-3.66475 11.32202,-7.28198 z"
     id="path89"
     style="stroke-width:0.341797" />
  <path
     fill="#fdfdfd"
     d="m 263.44438,134.52749 c 0.21773,-0.0164 0.3688,0.0198 0.58038,0.0653 -0.54449,1.02847 -2.03301,1.90962 -2.82632,2.81709 -4.54419,5.20147 -6.2231,12.98213 -5.64956,19.72134 0.65078,7.64429 3.79121,14.27686 9.65781,19.20864 -0.72017,-0.18183 -1.42974,-0.42109 -2.13999,-0.63916 -0.91397,-0.3059 -1.81699,-0.68051 -2.62705,-1.20825 -4.02534,-2.62329 -6.24429,-7.51201 -7.20303,-12.06133 -1.45332,-6.89814 -1.17954,-16.94731 2.8229,-23.03164 1.76265,-2.68003 4.26494,-4.23965 7.38486,-4.87197 z"
     id="path90"
     style="stroke-width:0.341797" />
  <path
     fill="#fdfdfd"
     d="m 169.39282,295.04692 c 4.39585,0.73418 10.51607,3.56324 14.8374,5.15464 5.37852,1.98072 10.96348,3.68765 16.22032,5.95991 0.84526,0.36539 1.58423,0.77383 2.33276,1.31148 -7.05024,1.40889 -13.89131,3.28843 -20.81816,5.19668 l -2.9791,0.71709 c -1.01822,-0.40025 -1.98414,-0.8627 -2.95894,-1.35933 1.52373,-0.95805 4.39004,-2.625 6.22173,-2.50503 0.37768,0.0246 0.59814,0.042 0.97002,-0.0844 l 0.0632,-0.56123 c 1.89834,-1.23833 5.19634,-1.82793 7.41221,-2.33071 q 1.53432,0.59917 3.09736,1.11836 c -3.19341,-1.89493 -6.44697,-3.72046 -9.83452,-5.24864 -5.62222,-2.53613 -11.52949,-4.5124 -17.25357,-6.81543 0.89927,-0.25156 1.76504,-0.42417 2.68926,-0.55337 z"
     id="path91"
     style="stroke-width:0.341797" />
  <path
     fill="#fdfdfd"
     d="m 239.60747,93.468457 c 3.7167,0.131934 7.60874,2.495459 10.44395,4.72876 10.52529,8.292673 14.55986,20.992143 16.13042,33.775343 -0.9625,0.0451 -1.92876,0.0236 -2.89229,0.0198 -0.45322,-1.81562 -0.69624,-3.69687 -1.08452,-5.52959 -0.44263,-2.09179 -1.07666,-4.14975 -1.77188,-6.17046 -3.59741,-10.45146 -9.33344,-18.74926 -19.48276,-23.705318 -0.4792,-1.030176 -0.93584,-2.057617 -1.34292,-3.118555 z"
     id="path92"
     style="stroke-width:0.341797" />
  <path
     fill="#fcd579"
     d="m 167.63188,282.22031 c 5.62803,-0.61284 9.4271,1.52749 14.37188,3.61314 1.67378,4.06499 4.9458,7.30932 8.44375,9.86015 -2.39189,0.32198 -4.8501,0.63745 -7.18013,1.27388 -3.68799,-1.198 -7.33496,-2.75796 -10.95903,-4.1477 -2.32798,-1.06094 -5.01108,-1.61431 -7.49697,-2.17999 1.63379,-0.11826 3.14179,-0.3288 4.72773,-0.75366 -2.85605,-0.29018 -5.66597,-0.41528 -8.46289,-1.13681 1.84297,-0.48262 4.61768,-1.89663 6.2853,-2.07232 1.53843,-0.16235 3.12095,0.54756 4.65357,0.30215 0.42383,-0.0677 0.58857,-0.12202 0.84013,-0.46758 l -0.0684,-0.4146 c -0.62378,-0.88149 -1.78692,-1.0353 -2.76993,-1.28789 -1.82929,-0.47031 -6.59087,0.0478 -7.6959,-0.75879 l 0.0919,-0.31718 c 1.52134,-1.13511 3.39507,-1.29883 5.21889,-1.5128 z"
     id="path93"
     style="stroke-width:0.341797" />
  <path
     fill="#fdfdfd"
     d="m 183.36309,127.35283 c 0.0454,-0.004 0.0906,-0.009 0.13603,-0.0109 1.87236,-0.10288 2.95313,0.26182 4.35347,1.49195 -1.30635,1.99712 -2.05659,4.33227 -2.86768,6.56113 -2.01557,5.54121 -3.83701,11.03149 -4.44199,16.92783 l -3.01465,1.43418 -2.03984,1.35694 c -0.27344,-0.77759 -0.53252,-1.5545 -0.72085,-2.35772 -1.46563,-6.24497 -0.94336,-15.81665 2.5686,-21.35752 1.43281,-2.26064 3.44736,-3.48701 6.02691,-4.04585 z"
     id="path94"
     style="stroke-width:0.341797" />
  <path
     fill="#fdfdfd"
     d="m 115.38276,294.36333 c 5.17242,1.34976 10.20059,3.20298 15.29336,4.81763 q 23.81641,7.65864 47.2271,16.47939 c -0.006,1.06299 -0.0933,2.12222 -0.16543,3.18247 -1.44819,-0.014 -14.25942,-5.01553 -16.85298,-5.91411 -7.73486,-2.68003 -15.41709,-5.48105 -23.21757,-7.96865 l -13.73579,-4.52232 c -2.83282,-0.93208 -5.81192,-1.72949 -8.55142,-2.90253 -0.0335,-1.05445 -0.002,-2.11675 0.003,-3.17188 z"
     id="path95"
     style="stroke-width:0.341797" />
  <path
     fill="#fcd579"
     d="m 248.91768,94.292188 c 5.57094,0.787158 10.85068,4.545898 14.58276,8.585942 5.97358,6.46645 9.50845,14.56157 11.38867,23.07573 0.3835,1.73598 0.91192,3.82676 0.84492,5.60786 l -0.28608,0.14697 c -2.95552,-0.54824 -4.46011,-0.50859 -7.38384,0.37495 q -0.0403,-3.55195 -0.62685,-7.05537 c -1.63824,-9.82392 -5.74185,-19.43628 -13.03887,-26.400047 -1.69976,-1.622168 -3.57691,-2.969873 -5.48071,-4.336035 z"
     id="path96"
     style="stroke-width:0.341797" />
  <path
     fill="#fcd579"
     d="m 211.83032,295.18501 c 7.37974,-0.9437 13.71973,4.06704 20.6336,5.76167 4.69492,1.15083 9.40112,0.9895 14.18422,0.93892 -3.02661,1.30942 -6.21626,1.85048 -9.34096,2.85332 q -10.42788,3.35849 -20.73545,7.06972 c -0.65352,0.25874 -1.14981,0.50449 -1.83613,0.2502 -0.16783,-0.34863 -0.20269,-0.46074 -0.13399,-0.86065 0.3958,-2.30097 2.7918,-4.76499 4.65493,-6.01596 0.0687,-0.0462 0.13809,-0.0906 0.20713,-0.13604 -0.14697,-0.3811 -0.0441,-0.25942 -0.34966,-0.50893 -2.10717,-1.71958 -10.14179,-0.71607 -12.89599,-0.33086 2.47802,-3.09121 5.22231,-3.57964 8.64609,-5.11739 0.21807,-0.38315 0.30967,-0.45083 0.2625,-0.88149 -0.39922,-0.37769 -0.8562,-0.41255 -1.3812,-0.41426 -4.07935,-0.013 -6.99248,2.64517 -9.67764,5.38467 l -1.61601,-1.07598 c 0.19721,-0.37597 0.40879,-0.72153 0.65488,-1.06743 2.27603,-3.19922 4.80054,-5.18198 8.72368,-5.84951 z"
     id="path97"
     style="stroke-width:0.341797" />
  <path
     fill="#4a434c"
     d="m 279.90703,272.68555 c 0.13535,-2.45957 0.33018,-4.99024 0.15518,-7.45015 -0.1668,-2.34404 -0.76324,-4.99468 -0.58653,-7.31616 0.25772,-3.38892 4.14292,-11.50249 5.96949,-14.49219 1.28515,-2.10376 2.82563,-4.24956 4.66313,-5.90967 0.6959,-0.6289 1.36514,-1.01206 2.23262,-1.35522 -0.0359,5.0897 -1.83545,9.62842 -4.2875,14.02495 -1.45025,2.60005 -2.86358,4.90991 -3.38379,7.88799 1.72607,-1.01822 2.88408,-2.67627 4.55,-3.74063 2.2979,-2.37036 5.02646,-4.51137 7.821,-6.2542 2.25483,-1.40615 5.27666,-3.02285 8.01035,-2.38232 0.32778,0.37598 0.43818,0.53354 0.41391,1.0459 -0.16133,3.36054 -4.57837,7.88286 -7.05093,9.86938 -1.87954,1.51006 -10.6644,6.70196 -11.11694,8.04488 l 0.11826,0.20507 c 2.63457,0.25259 8.79273,-1.9684 10.78369,-0.38418 0.18731,0.43033 0.25464,0.64053 0.0868,1.0982 -0.83193,2.27226 -4.57632,4.05952 -6.69409,4.85898 -3.59639,1.35728 -7.84526,2.04258 -11.68467,2.24937 z"
     id="path98"
     style="stroke-width:0.341797" />
  <path
     fill="#fdfdfd"
     d="m 289.21963,254.33447 c 2.2979,-2.37036 5.02646,-4.51137 7.821,-6.2542 2.25483,-1.40615 5.27666,-3.02285 8.01035,-2.38232 -0.95977,0.94028 -6.20225,2.98354 -7.86407,3.94023 -2.6373,1.51827 -4.92905,3.473 -7.21875,5.46294 -0.34624,-0.22182 -0.51474,-0.43032 -0.74853,-0.76665 z"
     id="path99"
     style="stroke-width:0.341797" />
  <path
     fill="#fcd579"
     d="m 196.11177,153.85508 c 1.0394,5.42397 2.58877,8.29712 6.43945,12.16728 -5.5084,5.26128 -8.09341,6.84893 -15.95918,6.67359 -7.30249,-0.16236 -15.90688,-1.64063 -22.61738,1.90722 -0.0103,-0.0776 -0.0215,-0.15517 -0.0311,-0.23276 -0.17602,-1.4752 0.0872,-2.56553 0.9919,-3.74541 1.2749,-1.44546 2.48042,-2.89331 3.90571,-4.20137 4.62827,-4.24887 11.31792,-8.39966 17.28296,-10.28501 2.81367,-0.88935 5.82764,-1.31523 8.74146,-1.75615 0.26967,-0.0174 0.51235,-0.0441 0.77793,-0.10185 0.33974,-0.0742 0.29394,-0.14766 0.46826,-0.42554 z"
     id="path100"
     style="stroke-width:0.341797" />
  <path
     fill="#fdfdfd"
     d="m 219.20083,99.926367 c -0.0349,0.03247 -0.069,0.06562 -0.10425,0.09809 -1.89731,1.73599 -4.41806,3.00713 -6.56797,4.41294 -5.83344,3.81411 -11.4625,9.14649 -14.05366,15.75376 -0.0827,0.202 -0.14014,0.32129 -0.18901,0.54448 -0.10152,0.46451 0.008,0.74478 0.23618,1.13443 1.84023,1.04966 6.41313,-2.073 8.14741,-2.94697 1.31216,-0.66104 2.67456,-1.28755 4.05234,-1.80367 1.68165,-0.62993 3.62134,-0.99633 5.39732,-1.23867 5.09277,-0.69487 10.86196,0.14014 15.02642,3.34004 6.18515,4.75303 9.827,15.57979 10.7642,23.13657 -4.26494,0.2044 -8.3395,0.72666 -12.54428,1.47007 -0.46929,-3.45659 -1.20449,-6.80415 -2.78496,-9.93945 -2.21724,-4.39927 -6.29966,-8.56475 -11.06978,-10.09463 -3.17016,-1.01685 -6.90908,-0.90747 -9.87793,0.67334 -4.65083,2.477 -7.27173,7.19927 -8.49023,12.16284 -0.35274,1.43623 -0.44058,2.96372 -0.87261,4.36441 -0.34248,0.24096 -0.57866,0.29531 -1.0042,0.22592 -0.5168,-0.0844 -0.59883,-0.13091 -0.73247,-0.64941 -0.22422,-0.86851 -0.11177,-2.1041 -0.20371,-3.0249 -0.35376,-3.53965 -1.17031,-6.94771 -3.18965,-9.91929 1.39658,-2.54229 2.91143,-5.0791 4.54077,-7.47988 4.50591,-6.63872 10.06592,-12.61368 16.78838,-17.04883 2.05386,-1.35523 4.2875,-2.70156 6.73169,-3.171202 z"
     id="path101"
     style="stroke-width:0.341797" />
  <path
     fill="#4a434c"
     d="m 197.85835,200.59819 c -0.005,3.55503 -7.00376,16.24219 -8.87988,20.04742 -1.73155,3.51196 -3.45318,7.09126 -4.95367,10.70849 -2.72514,6.569 -4.82993,13.34717 -5.75585,20.40698 -1.29131,1.37779 -2.47803,2.91656 -3.84214,4.21744 -3.14385,2.99721 -7.53492,5.49096 -11.46524,7.31582 -1.60063,0.7434 -4.11455,2.11503 -5.88027,1.46528 -0.45562,-0.56943 -0.68257,-0.91602 -0.75571,-1.65156 -0.94165,-9.45035 13.18686,-29.04043 19.05654,-36.21099 4.77388,-5.8314 10.1083,-11.23794 15.03667,-16.94219 2.60893,-3.01943 4.9687,-6.22754 7.43955,-9.35669 z"
     id="path102"
     style="stroke-width:0.341797" />
  <path
     fill="#fcd579"
     d="m 270.57905,133.89551 c 1.98994,-0.31172 4.33911,0.35991 5.96231,1.52715 3.78916,2.7248 5.84404,8.40444 6.46167,12.84643 1.04658,7.52739 -0.25943,16.38472 -4.97896,22.55689 -1.8375,2.40351 -4.60366,4.31313 -7.67129,4.6228 -1.92363,0.19414 -3.89238,-0.98608 -5.29887,-2.20664 -4.54488,-3.94502 -6.75186,-10.81275 -7.12989,-16.64961 -0.38896,-6.004 1.00591,-12.33477 4.59204,-17.25049 2.08189,-2.87383 4.50694,-4.85488 8.06299,-5.44653 z"
     id="path103"
     style="stroke-width:0.341797" />
  <path
     d="m 270.58452,135.1147 c 0.33633,0.31172 0.48467,0.39409 0.61113,0.82749 -0.58208,0.52363 -1.41196,0.70718 -2.10444,1.06025 -0.92729,0.47271 -1.82143,1.06743 -2.68652,1.64575 -0.47202,0.31548 -1.30567,1.04932 -1.84571,1.0688 0.0479,-0.20952 0.0913,-0.40469 0.18902,-0.59814 1.07358,-2.12256 3.73994,-3.21084 5.83652,-4.00415 z"
     id="path104"
     style="stroke-width:0.341797" />
  <path
     fill="#fdfdfd"
     d="m 262.51606,139.34204 c 2.08189,-2.87383 4.50694,-4.85488 8.06299,-5.44653 0.28506,0.53218 -0.0102,0.68393 0.005,1.21919 -2.09658,0.79331 -4.76294,1.88159 -5.83652,4.00415 -0.0978,0.19345 -0.14116,0.38862 -0.18902,0.59814 z"
     id="path105"
     style="stroke-width:0.341797" />
  <path
     d="m 272.32769,142.22852 c 1.12041,-0.0851 2.09658,-0.0479 3.09907,0.51816 1.72265,0.97275 2.70498,2.80889 3.23237,4.65664 1.24483,4.36235 0.63267,10.03276 -1.60986,13.98906 -1.19424,2.10684 -2.73028,3.5335 -5.09004,4.20034 -0.98916,0.0492 -1.85186,-0.0779 -2.73438,-0.55131 -1.81084,-0.97105 -2.82495,-2.82837 -3.40498,-4.72911 -1.31967,-4.32509 -0.8227,-9.64243 1.32105,-13.62812 1.19731,-2.22612 2.73813,-3.71943 5.18677,-4.45566 z"
     id="path106"
     style="stroke-width:0.341797" />
  <path
     fill="#fdfdfd"
     d="m 272.84243,144.07183 c 0.51509,-0.009 0.95396,0.0219 1.43145,0.23515 1.2373,0.55269 2.05659,1.72984 2.52964,2.95757 1.39248,3.61177 0.89482,8.51382 -0.69932,11.98135 -0.94404,2.05386 -2.25415,3.63364 -4.42251,4.44814 -0.44844,-0.015 -0.91773,-0.10322 -1.33472,-0.27412 -1.25747,-0.51577 -2.13486,-1.73906 -2.61201,-2.96577 -1.32959,-3.4166 -1.08828,-8.13955 0.3459,-11.48711 0.9731,-2.27056 2.44727,-3.94912 4.76157,-4.89521 z"
     id="path107"
     style="stroke-width:0.341797" />
  <path
     d="m 271.6605,149.94663 0.33906,0.22114 c 0.22388,0.76905 -0.039,1.70762 -0.0417,2.5187 0.32813,0.16749 0.61421,0.25396 0.96558,0.36231 0.12441,0.15415 0.19175,0.28027 0.21772,0.47954 0.13809,1.06641 -0.148,3.48325 -0.82578,4.31553 -0.8374,-0.90337 -0.18047,-2.05454 -0.50517,-3.13565 -0.44776,-0.24677 -0.97002,-0.49902 -1.15186,-1.00727 -0.37119,-1.03599 0.52568,-2.82256 1.00215,-3.7543 z"
     id="path108"
     style="stroke-width:0.341797" />
  <path
     fill="#fdfdfd"
     d="m 210.054,126.50757 c 2.59629,-0.202 5.05655,0.22422 7.29668,1.60473 4.43516,2.73335 7.40093,8.27251 8.5169,13.22857 1.42597,6.33281 0.8979,14.57593 -2.69883,20.1479 -1.9585,3.03413 -4.42627,4.53872 -7.91909,5.27974 -3.37832,0.29155 -6.42442,-0.21465 -9.27808,-2.13213 -3.62544,-2.43565 -5.88745,-6.20396 -6.68452,-10.46275 -1.22876,-6.56797 -0.38281,-17.50615 3.51025,-23.10752 1.78555,-2.56963 4.20787,-3.98774 7.25669,-4.55854 z"
     id="path109"
     style="stroke-width:0.341797" />
  <path
     d="m 204.17202,142.5375 c 1.06402,0.20337 1.65874,0.64326 2.24424,1.54902 1.76094,2.72412 2.11948,7.68804 1.36719,10.79702 -0.31309,1.29336 -0.70616,2.23194 -1.85425,2.95381 -0.0585,-0.013 -0.11792,-0.0226 -0.17568,-0.039 -0.98301,-0.27822 -1.66011,-1.00249 -2.17793,-1.85459 -1.72369,-2.83794 -2.073,-7.33735 -1.2585,-10.51641 0.31001,-1.21098 0.75469,-2.23364 1.85493,-2.88989 z"
     id="path110"
     style="stroke-width:0.341797" />
  <path
     fill="#fdfdfd"
     d="m 205.10991,145.16523 c 0.41255,0.0687 0.65557,0.15723 0.95738,0.46109 0.54516,0.54892 0.66855,1.42597 0.57592,2.15571 -0.0909,0.71777 -0.34179,0.96489 -0.88252,1.38018 -0.34043,0.0441 -0.49082,-0.0314 -0.79365,-0.18184 -0.28916,-0.33223 -0.46006,-0.59097 -0.54072,-1.03223 -0.1897,-1.03837 0.0738,-1.95166 0.68359,-2.78291 z"
     id="path111"
     style="stroke-width:0.341797" />
  <path
     fill="#4a434c"
     d="m 229.51523,91.024268 c 1.22022,0.752294 2.93775,2.842041 4.27862,2.925781 0.15244,-0.136377 0.28745,-0.171924 0.27959,-0.39751 -0.0506,-1.486475 -2.65747,-4.490185 -2.70396,-6.266846 0.59575,0.255323 1.06094,0.77417 1.53159,1.209619 2.19126,2.025831 3.41045,4.27793 4.8877,6.835596 0.50859,0.880811 0.96865,1.861084 1.64131,2.631494 1.43384,1.641993 3.76387,2.665678 5.5624,3.897168 5.77671,3.95459 9.21006,9.7812 11.7667,16.1646 1.88877,4.71645 3.15068,9.49546 3.85718,14.52671 -3.75567,1.40239 -6.38203,4.20342 -8.00694,7.84219 q -0.64223,1.47006 -1.15595,2.98969 c -2.31704,-0.64394 -4.62349,-0.83945 -7.00923,-1.02915 -1.51485,-8.37402 -5.66973,-21.11963 -12.88438,-26.19052 -4.56948,-3.21187 -11.39824,-4.00826 -16.79248,-3.04507 -5.19018,0.92661 -11.69629,4.3251 -16.29243,7.07314 2.59116,-6.60727 8.22022,-11.93965 14.05366,-15.75376 2.14991,-1.40581 4.67066,-2.67695 6.56797,-4.41294 0.0352,-0.03247 0.0694,-0.06562 0.10425,-0.09809 1.08521,-0.393408 2.37036,-0.243359 3.48394,-0.623437 0.45493,-0.155518 0.8832,-0.385547 1.08964,-0.836035 -0.64326,-1.26294 -9.76377,-0.689747 -11.56709,-0.90337 -1.46767,-0.173632 -2.80752,-0.553027 -4.09985,-1.285839 2.44522,-0.664112 4.82857,-1.030176 7.36572,-0.913624 1.20244,0.05537 3.76626,0.55542 4.80464,0.07246 1.10503,0.106641 2.37412,0.700684 3.48325,0.977198 0.10323,-0.627881 0.2461,-1.22295 0.42315,-1.833741 l 0.16645,-0.171582 c -0.29121,-1.397265 -5.53369,-5.775 -6.84277,-6.815087 1.42222,-0.0068 2.67285,0.06733 4.05029,0.450146 1.80332,0.501416 6.83594,3.00918 7.95703,2.980811 z"
     id="path112"
     style="stroke-width:0.341797" />
  <path
     fill="#fdfdfd"
     d="m 237.36016,244.92207 0.0861,0.12578 c -1.25884,14.2895 -5.05313,38.84419 -16.24424,48.82261 -3.10044,-0.87466 -6.33213,-1.62422 -9.57134,-1.20381 -4.41499,0.57285 -7.12749,2.91348 -9.73506,6.34409 -6.02827,-1.9332 -10.66303,-4.72329 -14.73623,-9.63388 -7.04716,-8.59244 -8.15185,-20.38887 -7.49492,-31.04917 2.5293,1.67583 5.13584,2.86665 8.13819,3.38037 16.61645,2.84238 36.40444,-7.42315 49.55747,-16.78599 z"
     id="path113"
     style="stroke-width:0.341797" />
  <path
     fill="#fdfdfd"
     d="m 229.57607,147.43818 c 4.04654,-1.13955 8.55826,-1.61943 12.7586,-1.66181 3.0143,15.87783 -0.41768,34.66025 -6.12774,49.55713 -1.47109,3.83735 -3.43881,7.4997 -5.06884,11.27109 -2.58091,4.23999 -5.32247,8.3354 -8.50288,12.15737 -7.32232,8.79888 -16.8024,16.08531 -26.27803,22.40479 -2.82188,1.88159 -5.802,3.47402 -8.64951,5.29341 -1.99336,1.27387 -3.79805,2.71079 -5.66597,4.15351 -0.23174,0.1791 -0.14766,0.121 -0.47202,0.18662 2.28662,-3.54101 9.70395,-7.44878 13.42578,-9.97534 13.9354,-9.46196 33.98623,-26.23564 38.27202,-43.24995 -2.20015,3.52939 -4.40098,7.12373 -6.82671,10.50205 q -2.07197,2.83384 -4.31621,5.53335 -2.24424,2.69951 -4.65254,5.25376 -2.40796,2.55425 -4.97041,4.95366 -2.56245,2.39942 -5.26948,4.63477 -4.88223,4.09575 -10.11411,7.73418 c -5.67486,3.97099 -12.23189,7.25464 -15.98618,13.33418 2.0101,-8.60747 5.17959,-16.62774 8.92739,-24.60869 5.54839,-11.81524 11.87505,-21.83296 12.65674,-35.31993 1.33471,0.46553 3.19443,1.13921 4.62382,0.82784 0.39102,-0.0855 0.40606,-0.14014 0.59781,-0.46314 -0.39854,-0.75093 -2.50127,-1.76606 -3.27305,-2.28013 -2.98594,-1.98823 -5.75142,-4.30732 -8.50903,-6.59497 1.2831,-0.33735 2.51562,-0.70444 3.71909,-1.26977 4.24614,-1.99404 7.74409,-5.76646 9.3331,-10.19136 q 1.63858,0.35855 3.31338,0.44639 0.37017,0.0168 0.74102,0.015 0.37051,-0.002 0.74067,-0.0219 0.36983,-0.0202 0.73863,-0.0588 0.36845,-0.0383 0.73486,-0.095 0.36641,-0.0567 0.72939,-0.13125 0.36299,-0.0749 0.72188,-0.16748 0.35889,-0.0926 0.71265,-0.20302 0.35376,-0.11041 0.7017,-0.23824 0.34795,-0.12783 0.68907,-0.27241 0.34111,-0.14492 0.6747,-0.30659 0.3336,-0.16167 0.65865,-0.33941 0.32505,-0.17807 0.64087,-0.37187 0.31616,-0.1938 0.62207,-0.40298 0.3059,-0.20918 0.60087,-0.4334 0.29532,-0.22422 0.57901,-0.46279 0.28369,-0.23857 0.55508,-0.49082 c 5.03159,-4.72295 5.9852,-12.11123 6.21386,-18.6481 z"
     id="path114"
     style="stroke-width:0.341797" />
  <path
     fill="#4a434c"
     d="m 245.16919,145.7186 c 1.77598,0.12954 3.54307,0.33667 5.27393,0.7687 -1.20416,8.0565 -0.74957,19.16695 4.24716,25.95845 2.28833,3.11035 5.69229,5.46704 9.55391,6.02793 1.21577,0.17637 2.4835,0.13501 3.7102,0.13296 -2.1622,9.49102 -3.66337,15.89082 -2.74736,25.86856 0.75127,8.18056 2.50811,16.54126 4.40645,24.5311 l 3.46616,14.27925 c 2.55835,10.27031 5.93462,21.79194 3.58989,32.39482 -1.70932,7.72871 -7.43374,14.50142 -14.04614,18.63067 -8.44033,5.27084 -20.67871,5.80576 -30.19741,3.54614 q -4.34493,-1.06265 -8.46153,-2.81265 c 7.87603,-9.53169 10.97886,-21.23481 13.06826,-33.17173 1.04009,-5.94145 1.81768,-11.98408 1.71446,-18.02807 6.26616,-5.52105 12.45679,-12.03741 15.87544,-19.75518 -4.46284,3.75942 -8.20791,9.31397 -12.7169,13.46714 -12.03091,11.08105 -35.35136,23.29448 -52.0519,21.79263 -3.37764,-0.30386 -6.64829,-1.33575 -9.8147,-2.50879 0.18355,-1.36822 0.40195,-4.90581 1.38906,-5.94727 0.0386,-0.041 0.0943,-0.0622 0.14151,-0.093 0.32436,-0.0656 0.24028,-0.008 0.47202,-0.18662 1.86792,-1.44272 3.67261,-2.87964 5.66597,-4.15351 2.84751,-1.81939 5.82763,-3.41182 8.64951,-5.29341 9.47563,-6.31948 18.95571,-13.60591 26.27803,-22.40479 3.18041,-3.82197 5.92197,-7.91738 8.50288,-12.15737 -0.0694,2.37788 -7.06255,14.67744 -8.41265,17.6791 5.05449,-5.94385 8.97969,-13.26445 12.24111,-20.32187 8.87066,-19.19532 12.23804,-34.12056 10.52495,-55.28462 q -0.12475,-1.4834 -0.32231,-2.9586 z"
     id="path115"
     style="stroke-width:0.341797" />
</svg>
