<?xml version="1.0" encoding="UTF-8" standalone="no"?>
<svg
   width="350"
   height="350"
   version="1.1"
   id="svg81"
   sodipodi:docname="pinguin.svg"
   inkscape:version="1.3.1 (9b9bdc1480, 2023-11-25, custom)"
   xmlns:inkscape="http://www.inkscape.org/namespaces/inkscape"
   xmlns:sodipodi="http://sodipodi.sourceforge.net/DTD/sodipodi-0.dtd"
   xmlns="http://www.w3.org/2000/svg"
   xmlns:svg="http://www.w3.org/2000/svg">
  <sodipodi:namedview
     id="namedview81"
     pagecolor="#ffffff"
     bordercolor="#999999"
     borderopacity="1"
     inkscape:showpageshadow="2"
     inkscape:pageopacity="0"
     inkscape:pagecheckerboard="0"
     inkscape:deskcolor="#d1d1d1"
     inkscape:zoom="1.4726562"
     inkscape:cx="245.47481"
     inkscape:cy="218.65253"
     inkscape:window-width="1920"
     inkscape:window-height="954"
     inkscape:window-x="0"
     inkscape:window-y="27"
     inkscape:window-maximized="1"
     inkscape:current-layer="svg81" />
  <path
     fill="#fdca60"
     d="m 167.76891,66.076172 c -0.50244,0.04102 -0.94883,0.09058 -1.27353,0.527392 -0.71402,0.960108 -0.22115,3.307911 -0.12237,4.416016 -0.98608,0.733154 -3.14863,1.665918 -3.60117,2.878613 -0.13398,0.359229 -0.16064,0.679493 0.0714,1.007959 0.71298,1.009327 2.69746,1.223291 3.80625,1.474854 0.0636,0.861328 0.10151,1.754785 0.25258,2.604492 0.18218,1.02334 0.6043,2.281494 1.47315,2.899463 0.30249,0.0499 0.4146,0.110742 0.7123,-0.0021 1.27285,-0.482275 2.12222,-2.737793 2.6708,-3.88623 0.54312,-0.0106 0.81451,0.206787 1.29063,0.455615 0.79673,0.455615 1.80605,0.769726 2.71523,0.912598 0.4146,0.06494 0.72871,0.02119 1.07974,-0.220459 0.25225,-0.320264 0.32129,-0.548926 0.32026,-0.962159 -0.004,-1.650879 -1.76743,-3.148632 -2.84648,-4.18872 0.57524,-0.839112 1.28071,-1.758545 1.65737,-2.706006 0.2584,-0.648731 0.45972,-1.536035 0.0889,-2.182031 -0.23174,-0.403663 -0.58823,-0.557129 -1.02984,-0.624463 -1.46972,-0.223877 -3.30927,1.181591 -4.42695,2.020703 -0.80014,-1.631397 -1.43725,-3.20127 -2.83828,-4.425586 z"
     id="path3"
     style="stroke-width:0.341797" />
  <path
     fill="#fdca60"
     d="m 153.13659,155.32446 c -2.12222,1.05308 -3.55811,3.64766 -4.84634,5.54771 -1.42153,-0.54072 -3.15752,-1.44341 -4.66416,-0.79058 -0.22422,0.2502 -0.36607,0.34658 -0.45425,0.68052 -0.36504,1.38325 1.03599,3.16367 1.71343,4.25776 -0.83535,1.60269 -2.14238,3.60801 -2.47495,5.35972 -0.0978,0.51475 -0.0168,0.69385 0.27104,1.08794 1.57124,0.66514 4.40235,-0.92764 5.96402,-1.37813 0.51577,0.18013 0.67265,0.44947 1.0312,0.85279 0.88388,1.48032 1.8997,3.79018 3.61416,4.35757 0.29223,-0.0417 0.48364,-0.013 0.71606,-0.21636 1.23491,-1.08281 1.24927,-4.51719 1.30327,-6.06348 1.40684,-0.52158 2.8981,-0.73144 4.18736,-1.55552 0.49492,-0.3165 0.71333,-0.58686 0.84389,-1.15459 -0.53047,-1.15253 -4.74619,-2.72856 -6.01255,-3.54819 -0.0619,-0.04 -0.1227,-0.0817 -0.18422,-0.12236 0.0943,-1.48887 0.27856,-3.04917 0.17739,-4.5377 -0.0817,-1.2021 -0.25943,-1.97695 -1.18535,-2.7771 z"
     id="path4"
     style="stroke-width:0.341797" />
  <path
     fill="#fdca60"
     d="m 278.29304,309.83545 c -3.25049,-0.10562 -6.55054,0.28437 -9.80103,0.42656 -3.09976,0.13535 -6.37861,0.0332 -9.44932,0.39238 -0.49389,0.0578 -1.08452,0.13672 -1.46494,0.4939 -0.33906,0.31856 -0.42861,0.61284 -0.40503,1.0647 0.082,1.57773 4.40064,5.37373 5.6752,6.63633 0.16167,0.10937 0.33906,0.17944 0.53149,0.21909 1.85801,0.38384 10.38482,-0.62959 12.68511,-0.80835 1.80161,-0.14014 3.68115,-0.0984 5.46465,-0.36983 0.59541,-0.0902 1.59551,-0.22661 2.04668,-0.6559 0.17739,-0.16885 0.13808,-0.40264 0.10766,-0.62788 -0.21464,-1.5815 -4.04311,-5.72715 -5.39047,-6.771 z"
     id="path5"
     style="stroke-width:0.341797" />
  <path
     fill="#fefefe"
     d="m 277.41564,312.36133 c -5.42842,0.6771 -10.75805,0.79604 -16.22407,0.93481 0.99121,0.94507 2.02207,1.83955 3.05806,2.73506 0.0325,0.0359 0.0612,0.0755 0.0974,0.10767 0.27993,0.24951 0.61557,0.29428 0.9789,0.30351 1.76231,0.0451 3.59844,-0.26626 5.35664,-0.40571 q 4.51651,-0.31582 9.03814,-0.54893 c -0.71504,-1.07426 -1.5292,-2.09453 -2.30508,-3.12641 z"
     id="path6"
     style="stroke-width:0.341797" />
  <path
     fill="#e6da9b"
     d="m 136.13834,315.06699 c -3.85649,1.4253 -16.52177,4.24546 -18.81796,6.22412 -0.36094,0.31104 -0.43477,0.49151 -0.48672,0.9543 1.06606,1.88843 8.71616,3.62441 10.98637,4.44131 3.49932,1.2062 6.92857,2.60859 10.42139,3.83154 1.19185,0.41699 3.22656,1.10811 4.39517,0.45083 0.22387,-0.12578 0.33051,-0.30488 0.37461,-0.56191 0.0844,-0.48877 -0.096,-1.06778 -0.25909,-1.52202 -0.36264,-1.0107 -0.95566,-1.94483 -1.36274,-2.94117 -1.25303,-3.06626 -2.42163,-6.31435 -4.0168,-9.22202 -0.34043,-0.62036 -0.76255,-1.13271 -1.23423,-1.65498 z"
     id="path7"
     style="stroke-width:0.341797" />
  <path
     fill="#fefefe"
     d="m 134.57565,318.52324 c -3.33594,1.45161 -7.0041,2.54365 -10.44258,3.78335 2.37207,0.30591 4.45464,1.03565 6.66914,1.89561 2.51699,0.95361 5.09483,1.68164 7.63198,2.57099 -1.30532,-2.72138 -2.12768,-5.75039 -3.85854,-8.24995 z"
     id="path8"
     style="stroke-width:0.341797" />
  <path
     fill="#da6a61"
     d="m 234.73717,318.11479 c -0.0615,0.008 -0.12339,0.0126 -0.18423,0.0246 -1.82724,0.35752 -9.64277,4.83575 -10.51128,6.22207 -0.27856,0.44434 -0.39716,0.96558 -0.20747,1.4752 0.25362,0.68086 1.58047,1.03462 2.23706,1.24209 3.42037,1.08008 7.05503,1.75444 10.53623,2.66396 1.95098,0.50962 4.09678,1.37984 6.06792,1.67344 0.57696,0.0861 1.00899,-0.18252 1.50152,-0.44023 3.23476,-1.83819 6.77578,-3.19854 9.89912,-5.2459 0.65591,-0.42998 1.43213,-0.97822 1.60098,-1.78589 -0.0444,-0.30522 -0.0841,-0.50962 -0.28745,-0.75845 -0.31514,-0.3852 -0.72871,-0.59814 -1.18843,-0.76357 -1.85698,-0.66856 -3.96656,-0.91943 -5.8919,-1.37129 -4.51753,-1.06025 -8.97729,-2.24458 -13.57207,-2.93604 z"
     id="path10"
     style="stroke-width:0.341797" />
  <path
     fill="#fefefe"
     d="m 235.43615,320.83892 c -1.54151,-0.323 -5.97666,2.7788 -7.47237,3.67876 q 5.48379,1.52236 11.05474,2.68447 c 1.21919,0.26181 2.68174,0.73213 3.91597,0.76152 0.34521,0.008 0.67778,-0.1145 0.99394,-0.24028 2.63423,-1.24688 5.44859,-2.17144 8.01035,-3.54888 -1.71308,-0.4768 -3.527,-0.6812 -5.26743,-1.05991 -3.75771,-0.81758 -7.43066,-1.68848 -11.2352,-2.27568 z"
     id="path11"
     style="stroke-width:0.341797" />
  <path
     fill="#fdca60"
     d="m 323.15917,100.29072 c -0.32539,-0.009 -0.66257,-0.0226 -0.98612,0.0185 -1.89994,0.24062 -4.14869,4.22871 -5.26859,5.63555 -1.66045,-0.33291 -4.93008,-1.28345 -6.47568,-0.52364 -0.42998,0.21192 -0.70069,0.47066 -0.82032,0.94849 -0.45083,1.80127 1.68711,4.62725 2.51666,6.19609 -0.94234,1.74556 -2.55938,4.13335 -2.3813,6.16089 1.07802,1.8628 5.16865,-0.76255 7.03862,0.42691 0.7793,1.35044 2.35501,4.48506 3.92246,5.07466 0.39467,0.14833 0.71863,0.18764 1.09594,-0.039 1.47448,-0.88662 1.65542,-5.1478 2.05608,-6.77544 l 0.0449,-0.17671 c 1.54153,-0.48432 3.62379,-0.92558 4.80891,-2.05112 0.31066,-0.29497 0.54544,-0.66685 0.51515,-1.11187 -0.11187,-1.64404 -3.28036,-3.57998 -4.44763,-4.6727 -0.11447,-1.14331 -0.0619,-2.32012 -0.0761,-3.46924 -0.0249,-2.0207 0.002,-4.13437 -1.54301,-5.64136 z"
     id="path12"
     style="stroke-width:0.341797" />
  <path
     fill="#da6a61"
     d="m 323.47971,281.00078 c -1.85473,-0.15517 -19.71597,3.10078 -21.28824,3.84043 -0.39682,0.18662 -0.76152,0.59507 -0.85517,1.03018 -0.094,0.4375 0.0557,0.80903 0.31753,1.14843 0.80698,1.04454 9.36694,5.84507 10.87597,6.11817 3.91597,-0.10083 17.17892,-2.26406 20.7766,-3.62339 0.64692,-0.24439 1.58051,-0.65317 1.79577,-1.38701 0.12653,-0.43135 -0.0421,-0.88526 -0.28629,-1.23936 -1.38752,-2.0125 -8.90507,-5.37475 -11.33617,-5.88745 z"
     id="path13"
     style="stroke-width:0.341797" />
  <path
     fill="#fefefe"
     d="m 323.67166,283.3397 c -5.79274,1.32788 -11.61422,2.3061 -17.49415,3.14658 1.16074,0.71675 6.15986,4.28682 6.95454,4.47891 0.20337,0.0492 0.41836,-0.013 0.62788,-0.0195 4.97031,-0.38759 13.21831,-2.08838 18.09353,-3.28535 -2.62189,-1.63208 -5.41311,-2.96167 -8.1818,-4.32065 z"
     id="path14"
     style="stroke-width:0.341797" />
  <path
     fill="#fdca60"
     d="m 295.81047,60.309717 c -0.47954,0.119629 -0.81075,0.223877 -1.18365,0.580029 -1.25747,1.200049 -0.70649,5.456787 -0.65761,7.093311 -1.97935,0.990869 -4.90274,2.144775 -6.04229,4.131298 -0.25088,0.437159 -0.41802,0.95293 -0.23139,1.448536 0.52978,1.407861 5.27666,2.438037 6.76142,3.14624 0.36231,2.118115 1.15117,8.113232 2.93877,9.149219 0.40503,0.234814 0.80425,0.210205 1.23457,0.07109 1.90928,-0.617968 3.30518,-3.869482 4.16035,-5.554199 0.26421,-0.534228 0.64873,-1.019922 0.99292,-1.50664 2.04566,0.182861 4.76021,1.372998 6.72998,0.637451 0.69829,-0.260791 1.05205,-0.686328 1.33335,-1.354541 -0.0202,-2.375489 -3.4624,-4.860352 -4.54453,-7.006836 -0.0304,-0.05982 -0.0588,-0.120655 -0.0882,-0.181153 0.64668,-1.667968 2.3085,-5.175488 1.82246,-6.888916 -0.12715,-0.448779 -0.34863,-0.811084 -0.77314,-1.033593 -1.81118,-0.950196 -5.21104,0.968652 -6.93745,1.67207 -1.83374,-1.464941 -3.22759,-3.614502 -5.51558,-4.403369 z"
     id="path17"
     style="stroke-width:0.341797" />
  <path
     fill="#fefefe"
     d="m 104.25451,60.554785 c -0.29053,1.090674 1.55005,7.80083 1.91132,9.355664 1.46392,0.201319 2.98765,0.190723 4.4649,0.253272 -0.1357,-2.627735 -0.92867,-5.524463 -1.47349,-8.108448 -1.60098,-0.620703 -3.2416,-1.074267 -4.90273,-1.500488 z"
     id="path19"
     style="stroke-width:0.341797" />
  <path
     fill="#fefefe"
     d="m 79.699144,119.64976 -0.37427,-0.0133 c -0.43408,0.64189 0.42075,13.9101 0.55815,15.58696 3.72593,1.51108 7.61558,2.61953 11.44234,3.84453 l 0.39375,0.009 c 0.51303,-0.8774 -0.40162,-14.25567 -0.53765,-16.37925 -3.84316,-0.71743 -7.70684,-2.00464 -11.48232,-3.0478 z"
     id="path26"
     style="stroke-width:0.341797" />
  <path
     fill="#fefefe"
     d="m 278.45641,25.330156 c -0.9413,-0.124619 -1.74419,-0.136753 -2.64926,0.201695 -1.9274,0.720644 -3.18282,2.189311 -4.01065,4.031938 -1.7541,3.904482 -1.46323,8.710283 0.0742,12.631035 1.11494,2.84375 2.59629,5.038428 5.47764,6.293848 0.97925,0.126465 1.75205,0.06665 2.66943,-0.333936 2.08428,-0.909863 3.41182,-2.836914 4.20513,-4.901367 1.46802,-3.821631 1.42871,-8.957471 -0.28096,-12.69314 -1.16484,-2.544814 -2.84033,-4.239785 -5.4855,-5.230073 z"
     id="path28"
     style="stroke-width:0.341797" />
  <path
     fill="#030c27"
     d="m 224.47062,67.758496 c -0.8644,-0.09775 -1.83135,-0.02085 -2.69985,0.01846 -5.50396,0.250195 -11.58794,1.796826 -15.93731,5.339551 -1.62729,1.325488 -3.02798,2.967822 -4.43857,4.517871 -3.21494,-1.286865 -8.01411,-3.11958 -11.51753,-2.197754 -0.67368,0.177051 -1.48716,0.606006 -1.77803,1.284815 -0.18218,0.424853 -0.18765,0.778271 -0.002,1.204492 1.02368,2.355664 8.48476,5.08457 10.92417,6.212158 -3.96211,-0.177051 -9.26714,-0.228662 -12.89053,1.52373 -0.56431,0.272754 -1.18774,0.695557 -1.35146,1.340186 -0.12237,0.482275 0.0554,1.021631 0.3517,1.408203 1.49092,1.945508 7.47339,1.874072 9.89537,2.102051 q -0.79537,0.393066 -1.5586,0.845264 c -5.58188,3.322265 -9.02378,9.096237 -10.56118,15.275927 -0.67095,0.21943 -1.35454,0.40844 -2.03061,0.61181 -3.84624,1.1563 -11.52847,3.44976 -13.47193,7.35513 -1.72163,3.46001 -0.52978,11.31758 0.60498,14.91431 2.29927,7.28745 6.2084,12.88335 13.06074,16.43974 -1.68505,0.93311 -3.43266,1.6314 -5.25376,2.25484 -1.47417,0.50517 -4.55376,1.01069 -5.70288,1.87612 -0.42451,0.31992 -0.6747,0.78477 -0.70444,1.31592 -0.0485,0.86953 0.53901,1.62319 1.08589,2.23296 4.44609,4.95913 12.04014,6.46645 18.37466,6.83593 0.15688,0.27105 0.33359,0.52535 0.51577,0.77999 2.302,3.21835 5.28896,4.45053 9.10307,5.0726 -0.31513,2.99209 -0.13876,8.21338 -1.10092,10.85923 -0.66992,1.84229 -3.594,5.68511 -4.81455,7.48945 -6.82671,10.09258 -15.37163,19.36998 -25.65083,26.048 -2.59322,1.68506 -15.80538,8.94585 -16.44078,10.28433 -0.14628,0.30796 -0.10185,0.74409 0.003,1.05615 0.48808,1.45264 2.68413,2.53477 3.98877,3.16162 8.78247,4.21948 22.49399,2.34234 31.43984,-0.82202 -0.84936,3.24365 -1.32173,6.94087 -1.34531,10.28467 -0.0728,10.31338 3.73652,18.74277 10.89512,26.03569 -1.86416,-0.14184 -3.75567,-0.17466 -5.62495,-0.16064 -5.00015,0.0379 -10.14317,1.23593 -13.76177,4.90444 -6.20054,-2.54092 -12.25684,-5.34023 -18.35415,-8.11597 -3.23203,-1.47143 -6.53721,-2.8 -9.71455,-4.3873 q -4.58247,-27.8127 -9.60552,-55.54883 l -3.23101,-18.88393 c -0.50893,-2.8875 -0.92114,-5.81089 -1.58183,-8.66661 -2.73233,-1.1269 -5.64614,-1.97661 -8.4458,-2.9309 q -9.94868,-3.40396 -20.01426,-6.44424 L 65.695684,148.2667 c -8.34941,-2.56553 -16.62021,-5.37031 -24.97714,-7.9085 -2.52657,-0.76733 -5.09004,-1.91303 -7.65762,-2.45171 -1.80879,-0.37905 -11.21641,2.08907 -12.94863,3.19956 -0.30865,0.84971 0.23618,2.49717 0.43408,3.40328 q 4.42114,19.94931 9.19228,39.81796 l 7.48159,32.7544 c 1.28789,5.48276 2.41685,10.9956 3.65894,16.48794 0.67607,2.99004 1.2062,6.31367 2.44351,9.11572 4.94716,2.15742 10.03242,3.96929 15.00112,6.07271 1.90928,0.80835 3.88555,1.58217 5.70083,2.58706 -0.57866,4.57734 -0.68838,9.19638 -1.41299,13.76211 -3.55571,0.48261 -7.13877,1.44751 -10.64834,2.22202 -1.82964,0.34692 -10.00918,1.97832 -10.95254,3.35371 -0.89243,1.3019 -0.19722,5.33613 0.0684,6.83867 0.66445,0.79297 1.3918,1.50083 2.30918,1.99507 1.66626,0.89722 3.55845,1.53535 5.30708,2.2603 q 5.60923,2.3126 11.19453,4.68296 c 13.7604,5.9271 27.57344,11.95913 41.545746,17.36499 3.81924,-0.67607 7.6231,-1.79922 11.38628,-2.73916 3.25869,-0.81382 6.74571,-1.47246 9.90254,-2.61235 0.74478,-0.269 2.09556,-0.74307 2.49512,-1.45025 0.72768,-1.28789 -0.23687,-4.9352 -0.47544,-6.40117 -4.5394,-1.4417 -8.9814,-3.66269 -13.34785,-5.56479 l -20.813036,-8.93184 c 0.33496,-2.45615 0.50996,-4.92563 0.70308,-7.3958 5.21616,2.56826 11.403366,4.81831 16.865956,7.12441 l 30.63252,13.18995 c 11.87198,5.15429 23.64825,10.52836 35.56226,15.58525 5.18472,2.20083 10.3749,4.55444 15.68403,6.42988 q 3.18418,-0.85962 6.31641,-1.89355 c 5.73638,-1.9086 11.40781,-4.05884 17.11684,-6.05186 4.61426,-1.61089 9.37208,-3.0437 13.88448,-4.91333 0.50039,-0.20747 1.14604,-0.41528 1.43862,-0.8914 0.34658,-1.78316 -0.13193,-7.46006 -0.83945,-9.10035 -0.1333,-0.3083 -0.30352,-0.59814 -0.57491,-0.8039 -1.71992,-1.30259 -4.24033,-2.12666 -6.20805,-3.00166 q -7.11279,-3.1982 -14.32027,-6.17696 c 2.39463,-1.69907 4.20616,-3.22314 5.84097,-5.69536 1.50288,0.59268 2.94048,1.36582 4.44336,1.97251 5.24727,2.11846 10.34858,3.65655 15.90142,4.75987 -1.65669,0.45527 -3.41182,0.88081 -4.83506,1.88535 -0.78716,0.55542 -1.68403,1.42939 -1.79785,2.44145 -0.0731,0.64907 0.20507,1.28413 0.62207,1.76812 1.88945,2.1916 6.54233,2.59458 9.2603,2.8041 -0.59985,0.41289 -1.21851,0.82202 -1.74009,1.33335 -0.64599,0.63335 -1.21304,1.47143 -1.17954,2.41377 0.028,0.79365 0.49219,1.46733 1.08555,1.96123 3.55674,2.9603 14.70034,2.921 19.34229,2.34814 6.00092,-0.74067 13.14106,-2.34985 17.0372,-7.38486 2.22476,-2.87451 3.34619,-6.26445 2.85913,-9.89092 4.76636,-1.66318 9.29859,-3.37182 13.69136,-5.89394 2.05694,-1.18091 3.99629,-2.5481 6.00503,-3.80728 q 0.93618,0.11279 1.87647,0.1791 0.94062,0.0663 1.8833,0.0858 0.94267,0.0195 1.88501,-0.008 0.94233,-0.0277 1.88227,-0.10185 0.93994,-0.0742 1.8751,-0.19517 0.93481,-0.12065 1.86279,-0.28779 0.92798,-0.16714 1.84639,-0.38042 0.91841,-0.21294 1.82519,-0.47134 c 4.7479,-1.36069 10.21501,-3.99116 12.67636,-8.5292 0.82284,-1.51724 1.35803,-3.48017 0.79379,-5.17651 -0.34662,-1.0418 -1.14314,-1.78999 -2.10437,-2.27808 -3.76866,-1.91338 -9.26646,0.39819 -13.00127,1.52749 4.87402,-11.21094 7.21396,-19.62256 7.97002,-31.91357 2.04155,-33.19531 -8.4711,-73.71533 -22.48853,-103.519 -4.41362,-9.38437 -9.86357,-19.467035 -16.79932,-27.237445 -6.94531,-7.781347 -15.82041,-13.10791 -25.70654,-16.245605 -2.3126,-0.73418 -4.82549,-0.880811 -7.0793,-1.685742 -1.32891,-0.474756 -2.52861,-1.369922 -3.84248,-1.915772 q -1.69736,-0.712646 -3.44839,-1.280029 -1.75102,-0.567383 -3.54375,-0.985742 -1.79238,-0.418702 -3.61382,-0.685303 -1.82143,-0.26626 -3.65859,-0.379053 z"
     id="path32"
     style="stroke-width:0.341797" />
  <path
     fill="#86afcc"
     d="m 197.79235,121.83965 -0.0899,0.0434 -0.13672,-0.0923 c -0.0386,-0.70307 -0.0974,-1.38804 -0.20337,-2.08428 0.0161,3.50855 -0.12749,7.13296 -0.69488,10.59947 0.25806,0.32197 0.29156,0.28813 0.70445,0.36367 l 0.23481,-0.15415 c 0.3958,-2.79624 -0.0263,-5.82149 0.1856,-8.67583 z"
     id="path33"
     style="stroke-width:0.341797" />
  <path
     fill="#86afcc"
     d="m 193.18595,131.81875 c -0.45766,-0.08 -0.80596,-0.16543 -1.25918,-0.003 -0.1022,0.45048 -0.11382,0.66001 0.0349,1.09956 0.89003,1.0042 3.14624,0.90713 4.41054,1.04829 0.44878,0.0291 0.87124,0.0362 1.32036,0.013 0.39854,-0.27071 0.48809,-0.33531 0.7065,-0.75948 l -0.13535,-0.30385 c -1.06983,-0.74581 -3.72012,-0.86202 -5.07774,-1.09478 z"
     id="path34"
     style="stroke-width:0.341797" />
  <path
     fill="#fefefe"
     d="m 189.9235,123.54077 c -0.17261,-0.009 -0.34521,-0.0236 -0.51782,-0.0212 -0.33975,0.005 -0.66206,0.10493 -0.8832,0.36948 -0.31548,0.37769 -0.38418,0.821 -0.33975,1.29781 0.1186,1.2684 0.79707,2.3184 1.723,3.13837 0.0998,0.0215 0.19721,0.0561 0.29873,0.0646 0.42724,0.0362 0.55747,-0.1456 0.85552,-0.40537 0.19414,-0.43237 0.28437,-0.79297 0.27548,-1.27182 -0.0253,-1.3607 -0.47612,-2.23706 -1.41196,-3.17188 z"
     id="path35"
     style="stroke-width:0.341797" />
  <path
     fill="#86afcc"
     d="m 236.24689,119.3623 c -0.26045,-0.007 -0.57285,-0.0345 -0.82749,0.0171 -0.4833,0.0978 -0.67437,0.43272 -0.9396,0.80459 -0.0738,0.5732 -0.0297,0.95328 0.11484,1.51109 0.88731,0.86201 8.80161,0.90542 10.56153,0.97788 0.45185,-0.008 0.58208,0.027 0.95327,-0.21807 0.49663,-0.80151 0.57182,-1.82793 0.73623,-2.74531 -3.58067,0.148 -7.03623,-0.0793 -10.59878,-0.34727 z"
     id="path36"
     style="stroke-width:0.341797" />
  <path
     fill="#e6da9b"
     d="m 74.920814,201.13516 c -1.26328,0.19585 -2.58979,0.70888 -3.82436,1.06538 1.60405,0.68051 3.32876,1.17544 4.97041,1.76743 q 5.91445,2.13931 11.85591,4.20205 l 1.23457,0.34248 q 1.104,-0.68359 2.22065,-1.34668 c -5.33545,-2.26611 -10.99458,-4.07319 -16.45718,-6.03066 z"
     id="path37"
     style="stroke-width:0.341797" />
  <path
     fill="#e6da9b"
     d="m 122.93952,292.9876 c -6.54302,1.69839 -13.21592,3.09223 -19.79961,4.65014 -0.18526,1.14502 -0.35479,2.27227 -0.43067,3.43028 2.5252,-0.34248 5.0374,-1.07632 7.51577,-1.67276 4.37193,-1.05239 8.71582,-2.08667 12.99615,-3.47675 -0.13741,-0.97413 -0.20816,-1.9503 -0.28164,-2.93091 z"
     id="path38"
     style="stroke-width:0.341797" />
  <path
     fill="#fdca60"
     d="m 224.93239,151.22461 c -2.09898,0.2707 -5.46021,2.42812 -7.57559,3.30928 -8.80879,3.66884 -15.81221,5.60581 -25.41225,6.14277 0.58071,0.60054 1.13852,1.0958 1.82006,1.58218 q 0.59165,0.36264 1.22774,0.64053 0.63608,0.27788 1.30429,0.46586 c 2.35909,0.66309 4.99161,0.55406 7.38282,0.14014 10.15683,-1.75889 13.35366,-7.82168 21.25293,-12.28076 z"
     id="path39"
     style="stroke-width:0.341797" />
  <path
     fill="#86afcc"
     d="m 189.74645,107.72002 c -1.75547,-0.1186 -3.47334,0.0417 -5.19087,0.41528 -4.01885,0.87432 -13.13525,3.39678 -15.28003,6.94395 -1.68506,2.78598 -0.51885,8.57978 0.19653,11.5893 1.37505,5.78594 4.2147,11.42422 8.90826,15.20586 1.36274,1.09751 2.90698,1.99097 4.39277,2.91075 l 1.13955,-0.93619 c -5.60786,-2.96884 -8.9291,-6.86943 -11.25435,-12.72783 -1.30737,-3.75361 -2.08769,-7.51577 -2.0665,-11.50351 0.009,-1.696 0.14082,-3.44053 1.44033,-4.67749 2.74361,-2.61201 12.01348,-5.64854 15.80264,-5.57505 1.59209,0.0308 2.81504,0.33222 3.91186,1.53774 4.17198,4.58657 3.82437,12.69365 3.63877,18.44165 0.99258,-5.70151 1.2544,-13.39638 -1.74931,-18.58178 -0.94644,-1.63414 -2.07505,-2.55562 -3.88965,-3.04268 z"
     id="path40"
     style="stroke-width:0.341797" />
  <path
     fill="#54515d"
     d="m 317.88952,253.99951 c -4.25537,-0.29189 -8.64507,1.31216 -12.7668,2.24971 -1.1498,1.87817 -2.36557,3.73174 -3.81958,5.39184 -1.15151,1.3149 -2.59697,2.571 -3.53281,4.04278 l 0.0841,0.19756 0.52534,0.14492 c 1.32959,-0.0677 2.65098,-0.16304 3.97134,-0.33941 5.03535,-0.67299 12.29785,-2.82734 15.44307,-7.18457 0.65642,-0.90952 1.16819,-2.40351 0.92476,-3.5311 -0.10954,-0.50723 -0.44574,-0.69043 -0.8294,-0.97173 z"
     id="path41"
     style="stroke-width:0.341797" />
  <path
     fill="#da6a61"
     d="m 217.45968,74.921191 c -0.0571,-0.0075 -0.11416,-0.01709 -0.17158,-0.02256 -4.37603,-0.409473 -10.49282,0.855176 -13.879,3.794629 l 1.39795,1.5333 q 0.26352,-0.175683 0.53662,-0.335986 c 4.95673,-2.901855 10.75703,-3.419678 16.25927,-1.960205 11.38594,3.019775 20.51568,11.306299 26.30332,21.340088 2.00567,3.644243 3.7232,7.481253 4.83199,11.494293 l 1.36821,-0.93379 c -2.56211,-7.37119 -5.69981,-14.39888 -10.68765,-20.48389 -6.55293,-7.994287 -15.59756,-13.410742 -25.95913,-14.425879 z"
     id="path42"
     style="stroke-width:0.341797" />
  <path
     fill="#e6da9b"
     d="m 226.21925,291.1166 c -3.91084,2.87964 -9.19057,4.04927 -13.72929,5.65777 q -10.58614,3.8059 -21.28711,7.27514 c -0.11006,1.39282 -0.16578,2.78189 -0.20816,4.17813 11.73355,-3.68936 23.51323,-7.65899 34.97232,-12.13448 z"
     id="path43"
     style="stroke-width:0.341797" />
  <path
     fill="#86afcc"
     d="m 218.15319,107.73472 q -0.62344,-0.0653 -1.24961,-0.0854 c -4.65767,-0.13672 -9.53579,0.74682 -12.99956,4.08926 -3.72866,3.59775 -4.57051,8.68335 -4.65015,13.66503 -0.1039,6.49722 1.88877,12.09141 6.46167,16.77505 3.31235,3.39234 7.58277,5.48174 12.3669,5.51695 4.3039,0.0314 8.92602,-1.49297 11.98852,-4.58931 4.89248,-4.94683 5.92505,-12.6229 5.88711,-19.27461 l -1.5186,-0.45083 q 0.0229,0.17739 0.0407,0.35513 c 0.63574,6.30923 -0.31821,12.67827 -4.37192,17.69277 -0.95498,1.07666 -2.04326,1.98994 -3.30313,2.6896 -3.86538,2.14717 -9.66225,2.46333 -13.85337,1.2021 -4.61084,-1.3877 -7.95395,-4.89658 -10.18042,-9.05488 -2.61269,-4.87949 -2.93501,-11.33638 -1.32788,-16.59766 1.14571,-3.75088 3.55708,-6.99111 7.07246,-8.81221 4.51206,-2.33754 9.90664,-2.50571 14.6836,-0.93037 4.71543,1.55484 8.37231,4.58692 10.60254,9.00772 0.51679,-0.52808 1.07939,-0.97071 1.65771,-1.427 -0.41392,-0.68052 -0.85244,-1.34156 -1.36069,-1.95611 -4.0544,-4.90376 -9.74839,-7.19516 -15.94585,-7.81518 z"
     id="path44"
     style="stroke-width:0.341797" />
  <path
     fill="#fefefe"
     d="m 181.94049,112.18081 c -2.28901,0.87534 -6.73476,2.16357 -8.48271,3.82026 -0.98301,0.9314 -1.16485,2.40967 -1.20381,3.69278 -0.18628,6.11543 1.82451,13.62334 6.10142,18.1436 1.34838,1.34702 2.8205,2.47085 4.39584,3.53931 -0.79672,-2.04976 -1.65566,-4.09917 -2.19194,-6.23574 -1.90688,-7.59917 -0.62446,-15.5398 1.3812,-22.96021 z"
     id="path45"
     style="stroke-width:0.341797" />
  <path
     fill="#fefefe"
     d="m 187.97389,110.97051 c -0.85278,-0.0171 -1.81904,-0.0379 -2.60688,0.31616 -0.30591,0.30488 -0.4751,0.59131 -0.60806,0.99736 -0.33496,1.01993 -0.49424,2.13521 -0.7376,3.1835 -1.69907,7.32231 -2.21347,14.31343 -0.50483,21.71265 0.42519,1.84126 0.85107,3.65654 1.75683,5.32963 1.39009,-1.333 2.86802,-2.65576 3.99117,-4.22734 -1.38838,-1.59004 -1.92022,-3.41352 -2.46573,-5.40893 -0.57763,-2.83829 -1.29746,-6.82876 -0.38315,-9.65508 0.29941,-0.92627 0.94199,-1.95611 1.85425,-2.38028 0.51509,-0.2396 1.10879,-0.23686 1.63686,-0.0376 3.42686,1.29438 3.02901,6.0686 4.27144,8.72949 0.0451,-0.0851 0.10766,-0.16304 0.13501,-0.25532 0.22422,-0.75401 0.12715,-1.98379 0.12373,-2.77369 -0.0188,-4.31518 -0.38862,-10.09155 -3.12676,-13.62094 -0.93311,-1.2021 -1.85596,-1.68985 -3.33628,-1.90962 z"
     id="path46"
     style="stroke-width:0.341797" />
  <path
     fill="#fdca60"
     d="m 194.51896,263.28271 c -5.21377,-0.36093 -11.05576,0.28643 -15.60132,3.03995 2.302,0.71059 4.51206,0.84423 6.89131,1.08828 4.21025,0.43135 8.62148,0.66103 12.76167,1.53843 -3.61895,1.19458 -7.00547,1.3354 -10.77481,1.4851 l 2.23433,0.86099 c 4.42422,1.59072 8.94859,3.40361 13.17593,5.46225 2.71079,-1.54594 5.04184,-2.89707 7.17261,-5.21547 -1.8146,-1.17408 -3.75259,-2.16119 -5.56685,-3.34209 -1.71514,-1.11631 -4.83437,-3.88555 -6.49995,-4.50865 -1.10435,-0.41323 -2.6127,-0.34555 -3.79292,-0.40879 z"
     id="path47"
     style="stroke-width:0.341797" />
  <path
     fill="#e6da9b"
     d="m 43.608124,273.93755 -0.40503,-0.0154 c -0.471,0.72427 -0.0954,1.95337 0.0468,2.76684 1.61806,1.20245 3.78471,1.83101 5.63828,2.60005 l 9.69575,4.00655 q 20.70161,8.92397 41.550876,17.49658 l 0.24507,0.056 0.22216,-0.15176 c 0.20372,-1.01718 0.0516,-2.18203 0.008,-3.22075 -5.669386,-2.09009 -11.208206,-4.67373 -16.781536,-7.01777 l -25.29673,-10.44395 c -4.95982,-2.06377 -9.84068,-4.32509 -14.92388,-6.07646 z"
     id="path48"
     style="stroke-width:0.341797" />
  <path
     fill="#e6da9b"
     d="m 93.361784,208.67041 c -0.96899,0.36675 -1.80332,0.96797 -2.66157,1.5374 -0.52808,6.45073 -0.88047,12.91343 -1.37266,19.36656 q -1.06709,13.9019 -2.43496,27.77749 -0.73589,8.34052 -1.87065,16.63593 c -0.35445,2.6274 -0.64429,5.29204 -1.21509,7.88218 1.3248,-0.0937 2.64482,-0.42383 3.94502,-0.68975 0.11929,-6.39331 0.99224,-12.9059 1.53159,-19.28554 l 2.96509,-35.72564 q 0.50757,-6.05903 0.92695,-12.12456 c 0.11245,-1.72026 0.40059,-3.66167 0.18628,-5.37407 z"
     id="path49"
     style="stroke-width:0.341797" />
  <path
     fill="#da6a61"
     d="m 261.06784,109.94272 c -0.69897,-0.0458 -1.42119,0.0246 -2.10991,0.14493 -2.91314,0.50927 -5.5002,2.43564 -7.1504,4.84702 -3.80556,5.56035 -5.00664,14.60532 -3.77856,21.12373 0.88218,4.68056 3.15273,9.16323 7.19927,11.85898 3.76934,2.51084 7.83604,2.39873 12.11055,1.53604 0.0752,-0.0362 0.0219,-0.004 0.094,-0.16236 -2.60381,-0.40058 -4.63374,-1.08588 -6.63257,-2.85742 -3.78369,-3.35371 -5.58223,-8.90996 -5.81978,-13.83423 -0.26113,-5.41064 1.54458,-11.84907 5.26504,-15.89047 2.43223,-2.64209 5.17959,-3.82608 8.73838,-3.95972 -0.0325,-0.0167 -0.0649,-0.0332 -0.0967,-0.0506 -2.28081,-1.24961 -5.25273,-2.38608 -7.81929,-2.75591 z"
     id="path50"
     style="stroke-width:0.341797" />
  <path
     fill="#fdca60"
     d="m 271.30637,279.85747 c -1.61944,0.54551 -3.40464,0.78272 -5.09244,1.04898 q -2.6684,0.42656 -5.35835,0.68667 -2.6896,0.2601 -5.39047,0.35273 -2.70054,0.0926 -5.40211,0.0171 -2.70122,-0.0752 -5.39253,-0.31821 c -2.83657,-0.23926 -5.94179,-1.05889 -8.76743,-0.86851 -1.60029,0.10801 -5.6834,0.91533 -6.59292,2.3437 -0.24199,0.38042 -0.20268,0.49219 -0.11177,0.89961 2.0043,2.27432 14.50586,1.48682 18.22496,2.20835 0.12441,0.0605 0.2249,0.10322 0.33872,0.18936 0.31547,0.23994 0.37836,0.46723 0.4498,0.83945 -0.0789,0.10185 -0.12954,0.23481 -0.23721,0.30591 -0.49629,0.32846 -4.58794,0.43818 -5.81704,0.7499 -1.38598,0.35171 -5.2083,1.58833 -5.81636,2.92476 -0.19619,0.43066 -0.15278,0.56875 -0.0116,0.98403 2.04327,1.48374 10.67911,1.62934 13.38443,1.51963 6.08193,-0.24644 14.11587,-1.36616 18.41738,-6.09971 1.71958,-1.89253 3.31543,-5.19087 3.17496,-7.78374 z"
     id="path51"
     style="stroke-width:0.341797" />
  <path
     fill="#e6da9b"
     d="m 32.882194,140.31719 c -2.2668,-0.29771 -5.44619,0.98061 -7.63403,1.58149 10.42241,3.5687 21.02529,6.66196 31.52563,9.98833 l 65.516646,20.44561 c 0.51338,0.21123 1.05718,0.37495 1.58321,0.55508 2.0518,-0.80801 4.19966,-1.40684 6.27573,-2.16187 -4.69732,-1.16348 -9.29858,-2.93022 -13.91318,-4.39653 l -18.877786,-5.80542 z"
     id="path52"
     style="stroke-width:0.341797" />
  <path
     fill="#da6a61"
     d="m 226.47492,70.305225 c -5.46534,-0.555762 -13.58301,0.48125 -18.21504,3.611767 6.4914,-1.573974 12.3833,-1.290283 18.68535,0.987451 12.65024,4.572559 20.63325,14.964893 26.17002,26.732957 1.01856,2.33277 2.03062,4.68706 2.88682,7.08477 3.20024,-1.08281 5.17139,-1.2937 8.47622,-0.18799 -1.70967,-8.24482 -5.80713,-16.597657 -11.09883,-23.156739 -6.85645,-8.498437 -15.99268,-13.89917 -26.90454,-15.072216 z"
     id="path53"
     style="stroke-width:0.341797" />
  <path
     fill="#e6da9b"
     d="m 92.269404,262.49077 -0.17363,0.12954 c -0.47408,1.04693 -0.41939,2.80547 -0.53355,3.96963 l 53.692526,22.57193 c 14.44229,6.21215 28.67744,12.85395 43.24004,18.7913 l 0.0578,-0.0335 c 0.51783,-0.9314 0.37017,-3.09463 0.54619,-4.26939 l -25.94716,-11.20649 c -8.38565,-3.67466 -16.69405,-7.55303 -25.13882,-11.09097 -7.094,-2.97192 -14.31104,-5.65434 -21.43716,-8.55176 q -12.20283,-5.03774 -24.306196,-10.3103 z"
     id="path54"
     style="stroke-width:0.341797" />
  <path
     fill="#e6da9b"
     d="m 62.498894,267.4752 c -6.15679,1.7435 -12.6499,2.56108 -18.87881,4.09882 6.15611,1.85801 12.11226,4.59615 18.04141,7.07862 7.53218,3.15341 15.13716,6.14243 22.64883,9.34028 5.95581,2.53579 11.87265,5.36655 17.950826,7.58823 l 4.11967,-1.02197 c 4.61153,-1.33608 9.27842,-2.29038 14.00274,-3.123 -5.04971,-2.4999 -10.48804,-4.51684 -15.68267,-6.72451 -4.773866,-2.02925 -9.548086,-4.41294 -14.478846,-6.00503 -0.16509,1.55039 -0.32984,3.14522 -0.83296,4.62656 -2.02071,0.51748 -4.00381,0.96797 -6.08946,1.11118 -3.69516,-2.59765 -19.64785,-7.70854 -21.09775,-9.34951 -0.66514,-0.75332 0.30898,-6.08227 0.30146,-7.39477 -6.8e-4,-0.0752 -0.003,-0.15005 -0.004,-0.2249 z"
     id="path55"
     style="stroke-width:0.341797" />
  <path
     fill="#fdca60"
     d="m 195.83351,135.79453 c -0.6395,-0.066 -1.28926,-0.0872 -1.93115,-0.12817 -3.35098,5.90693 -8.08692,11.21435 -14.44741,13.90088 -2.43257,1.02744 -5.00972,1.66694 -7.54585,2.38198 0.3623,0.45185 0.73383,0.84663 1.18364,1.21372 6.19097,5.05381 15.91474,5.09858 23.42847,4.36099 6.72451,-0.69659 13.04843,-2.7231 19.277,-5.26573 1.7165,-0.70068 3.48291,-1.35454 5.10952,-2.24834 -3.30484,0.066 -6.54507,-0.13261 -9.65405,-1.3518 -5.49815,-2.15572 -10.1066,-7.25054 -12.46021,-12.58086 z"
     id="path56"
     style="stroke-width:0.341797" />
  <path
     fill="#54515d"
     d="m 196.69313,183.31489 c -0.83843,0.63814 -3.25288,5.02032 -4.03525,6.19781 -1.16075,1.74589 -2.36148,3.48769 -3.68218,5.11772 -9.56416,11.80395 -20.91797,19.23735 -33.81875,26.8437 l 1.43999,0.69795 c 7.74819,2.94458 16.57441,1.65225 24.47846,-0.0625 1.85254,-0.40229 3.66475,-1.01684 5.5272,-1.35488 l 0.18628,-0.0321 c 1.0811,-3.00679 1.87818,-6.17593 2.76992,-9.24492 2.70772,-9.31636 4.97827,-18.70484 7.13433,-28.1627 z"
     id="path57"
     style="stroke-width:0.341797" />
  <path
     fill="#da6a61"
     d="m 268.75519,115.04336 c -1.75068,-0.11792 -3.50341,0.44468 -4.97109,1.38872 -3.22417,2.07471 -4.98203,6.11338 -5.80542,9.71797 -1.20757,5.28725 -0.60293,11.4936 2.36865,16.12153 1.73496,2.70191 3.88999,4.04654 7.01641,4.74072 1.86074,0.025 3.6456,-0.37871 5.25615,-1.333 3.21323,-1.90381 4.90137,-5.58052 5.82183,-9.05386 1.40683,-5.30913 0.82236,-10.95562 -1.97593,-15.72231 -1.83818,-3.13155 -4.19761,-4.95401 -7.7106,-5.85977 z"
     id="path58"
     style="stroke-width:0.341797" />
  <path
     fill="#fefefe"
     d="m 247.96881,116.02021 c -3.49692,-7.45322 -8.89424,-13.47602 -16.21758,-17.380366 -6.70571,-3.575196 -11.95639,-4.191114 -18.92836,-1.049658 -2.20733,0.994628 -4.16138,2.035058 -6.01495,3.620314 -1.55244,1.32754 -3.51709,3.92895 -5.52959,4.46011 -3.00336,0.79228 -5.68476,-4.69424 -8.31865,-6.067583 -0.68564,-0.357519 -1.37983,-0.447412 -2.1147,-0.18833 -2.48725,0.877053 -3.78437,4.208203 -4.86889,6.412453 l 0.61181,-0.0434 c 2.46197,-0.16406 4.49156,0.27583 6.37007,1.98994 3.20572,2.9251 4.20445,7.79502 4.4044,11.93281 0.10595,0.69624 0.16474,1.38121 0.20337,2.08428 l 0.13672,0.0923 0.0899,-0.0434 c 0.20542,-1.79136 0.53081,-3.55879 1.14297,-5.26026 1.43759,-3.99594 4.32202,-7.56669 8.21269,-9.36933 5.41167,-2.50708 12.61743,-2.50435 18.15864,-0.42246 4.78174,1.79717 9.51084,5.67964 11.65733,10.39131 3.35337,0.38076 6.57891,0.60053 9.95449,0.59336 0.30317,-0.64498 0.59746,-1.19937 1.05034,-1.75206 z"
     id="path59"
     style="stroke-width:0.341797" />
  <path
     fill="#e6da9b"
     d="m 131.88331,172.20308 c -2.2039,1.00078 -4.52197,1.67993 -6.75219,2.6144 0.27754,2.20698 0.9355,4.44917 1.35796,6.64419 l 2.85639,15.34565 9.58125,52.45352 c 1.69805,9.7624 3.54444,19.57607 4.6334,29.42769 l 0.0663,0.108 c 0.74136,0.17329 5.20317,-2.20835 6.1855,-2.64345 -3.78438,-19.78184 -6.90464,-39.72261 -10.27544,-59.58067 -2.51289,-14.80493 -5.35801,-29.52304 -7.65318,-44.36933 z"
     id="path60"
     style="stroke-width:0.341797" />
  <path
     fill="#54515d"
     d="m 194.31149,77.643945 c -1.22466,-0.105957 -2.48076,-0.05571 -3.71089,-0.05537 q 1.23525,0.508936 2.44385,1.078369 c 1.92978,0.907129 10.63672,4.917774 11.13437,6.706397 0.0646,0.232422 -0.001,0.374951 -0.15039,0.56123 -0.35957,0.448096 -1.06025,0.498682 -1.5914,0.518506 -1.90381,0.07109 -3.88692,-0.380078 -5.79107,-0.513037 -2.85571,-0.198926 -6.04194,0.453906 -8.8375,1.049316 2.09829,0.494239 7.03897,0.890723 8.5063,2.274317 0.32915,0.31001 0.49595,0.656592 0.49424,1.113232 -0.007,1.890479 -4.41328,5.237012 -5.82695,6.608643 4.76328,0.277539 6.10107,3.138382 9.13042,6.184812 5.71176,-4.281345 8.87475,-7.875339 16.24936,-9.720359 7.0458,-1.762646 13.82773,0.940283 19.81909,4.519238 6.04434,4.146341 11.12276,9.278421 13.54986,16.301661 l 1.23525,-2.02207 c -0.25737,-1.67173 -0.71333,-3.21665 -1.31694,-4.7961 -4.21197,-11.025678 -11.84737,-19.700483 -22.70181,-24.545454 -6.59873,-2.945605 -13.7228,-3.514697 -20.51841,-0.906103 q 0.24404,0.369482 0.48091,0.74375 c 0.33154,0.526025 0.61728,0.951221 0.47578,1.586621 -0.74512,0.312402 -1.26089,-0.718457 -1.73428,-1.220557 -2.8082,-2.977734 -7.34282,-4.891455 -11.33979,-5.467042 z"
     id="path61"
     style="stroke-width:0.341797" />
  <path
     fill="#fefefe"
     d="m 218.54728,110.97119 c -3.64082,-0.49492 -7.56226,0.3794 -10.59878,2.4582 -2.99927,2.05284 -4.77183,5.25 -5.43354,8.77906 -0.90269,4.81626 -0.53868,10.61108 2.35053,14.7311 3.13701,4.47412 5.96538,6.53447 11.32715,7.45938 3.64287,0.11074 7.71299,-0.0147 10.81548,-2.194 3.18828,-2.23945 4.89795,-5.9165 5.54907,-9.66738 0.87705,-5.0521 1.14946,-10.68526 -1.96465,-15.04829 -2.69096,-3.76968 -7.61899,-5.79038 -12.04526,-6.51807 z"
     id="path62"
     style="stroke-width:0.341797" />
  <path
     fill="#030c27"
     d="m 212.64855,121.36353 c -0.49048,-0.0691 -0.93037,-0.11451 -1.42153,-0.0215 -0.98882,0.18765 -1.84331,0.87945 -2.36455,1.72163 -1.59039,2.57032 -1.2879,6.69717 -0.59507,9.51768 0.67436,2.7436 1.64507,5.80747 4.19692,7.33735 0.54517,0.12783 1.07461,0.26489 1.63447,0.14937 0.90371,-0.18594 1.6461,-0.76494 2.12256,-1.54492 1.74077,-2.84717 1.37368,-8.05718 0.51441,-11.14292 -0.67881,-2.4377 -1.80606,-4.74825 -4.08721,-6.01665 z"
     id="path63"
     style="stroke-width:0.341797" />
  <path
     fill="#fefefe"
     d="m 211.96803,124.19976 c -0.54243,0.013 -0.97925,0.10937 -1.40923,0.45698 -0.45014,0.36435 -0.6624,0.86304 -0.69795,1.43076 -0.096,1.53809 0.80049,3.22827 1.78316,4.34902 0.50312,0.12271 1.05171,0.26797 1.48921,-0.0926 0.64804,-0.53389 0.70717,-1.6878 0.64087,-2.44898 -0.14048,-1.61499 -0.57935,-2.64106 -1.80606,-3.69516 z"
     id="path64"
     style="stroke-width:0.341797" />
  <path
     fill="#e6da9b"
     d="m 70.395084,204.24756 c -0.51201,0.68428 -1.23047,15.89834 -1.3935,18.16582 q -1.26602,17.16504 -2.90459,34.29863 c -0.54517,5.67041 -1.33643,11.35894 -1.72574,17.03858 2.33687,1.06093 15.77154,6.65341 17.24776,6.78911 0.79263,-3.62852 1.0165,-8.88706 1.4793,-12.70801 q 2.48486,-20.66607 3.90502,-41.43262 c 0.39786,-5.19121 0.28711,-10.61997 1.20689,-15.73803 -2.17896,-0.98233 -4.61289,-1.64371 -6.87798,-2.41924 q -5.52412,-1.84536 -10.93716,-3.99424 z"
     id="path65"
     style="stroke-width:0.341797" />
  <path
     fill="#030c27"
     d="m 77.948454,213.65552 c -0.97412,-0.0827 -1.71206,0.0321 -2.61201,0.44844 -1.56782,0.72529 -2.52417,2.10581 -3.07617,3.70234 -0.71026,2.05283 -0.64053,4.3415 0.38691,6.2771 0.99395,1.87236 2.47871,2.81709 4.45532,3.39165 1.46734,0.0851 2.66431,0.0109 3.93374,-0.80664 1.42974,-0.92149 2.27535,-2.44624 2.57442,-4.09404 0.39136,-2.15503 -0.0571,-4.50523 -1.3125,-6.31163 -1.12656,-1.6208 -2.47393,-2.26884 -4.34971,-2.60722 z"
     id="path66"
     style="stroke-width:0.341797" />
  <path
     fill="#e6da9b"
     d="m 77.433364,215.70767 c -0.59233,0.11723 -1.13134,0.23413 -1.64165,0.57387 -0.99292,0.6607 -1.62114,1.67857 -1.83442,2.84478 -0.26968,1.47246 0.0598,3.06968 0.92969,4.29331 0.86782,1.22124 1.8351,1.66523 3.27202,1.93389 0.60259,-0.1087 1.22295,-0.22081 1.74897,-0.55201 0.90371,-0.56909 1.49639,-1.51142 1.73531,-2.54023 q 0.0605,-0.27036 0.0947,-0.54517 0.0338,-0.27514 0.041,-0.552 0.007,-0.27685 -0.0127,-0.55337 -0.0202,-0.27617 -0.0666,-0.54927 -0.0468,-0.27309 -0.11997,-0.54038 -0.0728,-0.26728 -0.17158,-0.52602 -0.0988,-0.25908 -0.22251,-0.50689 -0.12339,-0.24814 -0.27036,-0.48296 c -0.8586,-1.34702 -1.95816,-1.96259 -3.48189,-2.29755 z"
     id="path67"
     style="stroke-width:0.341797" />
  <defs
     id="defs68">
    <linearGradient
       id="gradient_0"
       gradientUnits="userSpaceOnUse"
       x1="586.76007"
       y1="741.91046"
       x2="423.41739"
       y2="898.19452"
       gradientTransform="matrix(-0.34179688,0,0,0.34179688,352.16935,0)">
      <stop
         offset="0"
         stop-color="#FAF5DC"
         id="stop67" />
      <stop
         offset="1"
         stop-color="#FDFCF8"
         id="stop68" />
    </linearGradient>
  </defs>
  <path
     fill="url(#gradient_0)"
     d="m 225.42184,289.07163 c -2.45615,-1.48374 -5.38979,-2.38984 -8.02197,-3.55093 q -10.31338,-4.64912 -20.77818,-8.94619 l -48.27744,-20.81235 q 0.85689,4.18769 1.55518,8.40444 0.32163,2.27227 0.71675,4.53257 c 0.60088,2.87383 1.14467,5.78252 1.50698,8.69634 -2.47188,1.74897 -5.73364,2.72925 -8.4499,4.10737 2.17143,1.05855 4.49873,1.84331 6.72177,2.78975 l 16.15093,6.94873 15.64028,6.70468 c 2.84649,1.22706 5.65093,2.57886 8.54971,3.6774 l 21.60156,-7.444 c 4.28545,-1.48921 9.19981,-2.76035 13.08433,-5.10781 z"
     id="path68"
     style="fill:url(#gradient_0);stroke-width:0.341797" />
  <path
     fill="#fdca60"
     d="m 150.61618,268.69917 c 1.0353,0.2666 2.07129,0.55439 3.14248,0.6231 2.34267,0.15004 7.69487,-1.37505 9.37719,-3.06456 0.32061,-0.32197 0.3794,-0.50688 0.37666,-0.94814 -0.15825,-0.24233 -0.30283,-0.43921 -0.53491,-0.61763 -1.54492,-1.18911 -5.90351,-2.90424 -7.87671,-2.53545 -0.0619,0.0113 -0.1227,0.0273 -0.18423,0.0403 -1.71992,0.36743 -3.19785,1.42085 -4.87299,1.92841 -0.0479,0.0144 -0.0961,0.0273 -0.14424,0.0414 q 0.32163,2.27227 0.71675,4.53257 z"
     id="path69"
     style="stroke-width:0.341797" />
  <path
     fill="#fefefe"
     d="m 156.53336,264.06304 c -0.10014,0.008 -0.20063,0.013 -0.30044,0.0222 -1.15835,0.10425 -1.96806,0.50518 -2.71557,1.37915 -0.10425,0.4898 -0.11382,0.45083 0.15791,0.8709 0.52773,0.3083 0.9437,0.32847 1.54663,0.36162 1.45913,-0.24985 2.4999,-0.90507 3.55845,-1.88945 -0.74068,-0.296 -1.48169,-0.52534 -2.24698,-0.74443 z"
     id="path70"
     style="stroke-width:0.341797" />
  <path
     fill="#de4a1d"
     d="m 175.89171,271.25273 c -2.36933,-0.2184 -4.92221,0.14424 -6.825,1.68438 -0.78237,0.63335 -1.46084,1.53227 -1.51142,2.5727 q -0.007,0.11963 -6.9e-4,0.2396 0.006,0.11963 0.0256,0.23789 0.0188,0.11827 0.0509,0.23414 0.0318,0.11552 0.0759,0.22695 0.0441,0.11142 0.10014,0.21772 0.0557,0.10596 0.12305,0.20542 0.067,0.0991 0.14424,0.19073 0.0776,0.0916 0.1644,0.17431 c 1.36787,1.31182 3.88316,1.16929 5.63897,1.15357 2.50844,-0.30523 5.40996,-1.20415 7.52568,-2.59595 0.47339,-0.31138 0.70308,-0.55132 0.8251,-1.104 -0.75127,-1.58013 -4.7585,-2.78257 -6.33692,-3.43746 z"
     id="path71"
     style="stroke-width:0.341797" />
  <path
     fill="#fefefe"
     d="m 177.02033,273.97891 c -0.12715,-0.0195 -0.2543,-0.0431 -0.38247,-0.053 -1.56372,-0.12168 -4.43277,-0.0444 -5.65948,1.04555 -10e-4,0.4293 -0.004,0.32915 0.24917,0.61729 0.6812,0.15142 1.31831,0.23174 2.01866,0.18389 1.06811,-0.0725 3.00542,-0.22012 3.69721,-1.1187 0.21397,-0.27823 0.12168,-0.3483 0.0769,-0.67505 z"
     id="path72"
     style="stroke-width:0.341797" />
  <path
     fill="#de4a1d"
     d="m 162.03288,275.70806 c -2.27056,-0.1357 -4.88497,0.29052 -6.80586,1.56645 -0.77725,0.51646 -1.79649,1.44478 -1.91954,2.4353 -0.0632,0.50757 0.0328,0.94405 0.35376,1.35079 0.98882,1.25131 3.07686,1.66865 4.5835,1.89731 2.49854,0.15586 5.22505,-0.10288 7.33633,-1.5873 0.72871,-0.51236 1.40889,-1.25508 1.52544,-2.17349 0.0687,-0.54038 -0.0837,-1.04522 -0.41494,-1.4728 -1.03462,-1.33609 -3.07481,-1.76504 -4.65869,-2.01626 z"
     id="path73"
     style="stroke-width:0.341797" />
  <path
     fill="#fefefe"
     d="m 162.84396,278.24282 c -1.48511,-0.053 -4.68091,-0.27309 -5.87583,0.82818 -0.29087,0.26796 -0.3148,0.34829 -0.35855,0.73281 l 0.46587,0.22046 c 0.8627,0.21601 1.62491,0.25361 2.50674,0.14697 1.03941,-0.12544 3.07036,-0.35547 3.71499,-1.18228 -0.0393,-0.44399 -0.11997,-0.43784 -0.45322,-0.74614 z"
     id="path74"
     style="stroke-width:0.341797" />
  <path
     fill="#fdca60"
     d="m 206.41554,285.03638 c -1.09819,-0.01 -2.88203,1.14843 -3.95288,1.57295 -4.02124,1.59311 -13.35195,4.71782 -16.63867,6.98872 2.7501,1.81084 5.68716,3.16059 8.77734,4.2769 2.12564,-0.53389 19.52412,-6.95864 20.27813,-7.56772 0.13159,-0.1063 0.19687,-0.27481 0.29531,-0.41187 l -0.0824,-0.46279 c -1.41949,-1.88706 -6.38784,-3.38653 -8.67686,-4.39619 z"
     id="path75"
     style="stroke-width:0.341797" />
  <path
     fill="#fdca60"
     d="m 186.76803,278.24248 c -0.11108,-0.013 -0.22251,-0.0277 -0.33393,-0.0386 -2.43223,-0.23311 -7.20918,1.97661 -9.73267,2.68515 -1.88228,0.52876 -3.82915,0.74786 -5.71792,1.23423 -1.04863,0.27036 -6.66743,2.12871 -7.21978,2.75967 -0.2936,0.33564 -0.25703,0.49834 -0.20678,0.89961 1.51963,1.53877 6.65683,3.2956 8.7688,4.20889 0.56772,0.23208 1.21645,0.51406 1.82861,0.5643 q 0.30488,0.0243 0.60806,-0.0164 0.30317,-0.041 0.59062,-0.14527 c 2.1711,-0.78374 4.27246,-1.81631 6.42612,-2.65849 2.64927,-1.03599 5.37305,-1.89834 8.05206,-2.85708 1.34736,-0.48262 4.02568,-0.9461 4.98886,-1.94312 0.22285,-0.23037 0.14903,-0.12954 0.15279,-0.50483 -1.11153,-1.70694 -6.17627,-3.45523 -8.20484,-4.18804 z"
     id="path76"
     style="stroke-width:0.341797" />
  <path
     fill="#fdca60"
     d="m 171.6008,284.43926 c -0.73589,-0.0749 -1.72676,-0.28745 -2.35669,0.17978 -0.23208,0.17193 -0.17979,0.29053 -0.21705,0.55337 0.66377,0.0366 1.58013,0.0598 2.19297,-0.19892 0.30318,-0.12818 0.26455,-0.24541 0.38077,-0.53423 z"
     id="path77"
     style="stroke-width:0.341797" />
  <path
     fill="#fefefe"
     d="m 183.32443,283.55537 c -0.44092,-0.0253 -0.87945,-0.0396 -1.31865,0.0226 -0.53423,0.0759 -0.96968,0.23926 -1.28858,0.68975 -0.0639,0.39887 -0.0673,0.46484 0.0803,0.83877 q 0.40401,0.053 0.80938,0.0964 c 0.74101,0.0772 1.09307,0.0646 1.67822,-0.40605 0.18423,-0.49082 0.12818,-0.74204 0.0393,-1.24141 z"
     id="path78"
     style="stroke-width:0.341797" />
  <path
     fill="#54515d"
     d="m 248.93131,77.269678 -0.1938,0.03145 c 0.17876,0.438525 4.3651,4.320654 5.07945,5.157373 5.02407,5.887109 12.14815,19.239069 12.59077,26.828669 4.02193,2.28081 9.29688,5.67519 11.9605,9.50093 3.27339,4.70141 4.1501,10.84077 3.14692,16.40589 -0.83774,4.64914 -3.01977,9.67422 -7.0434,12.44038 -1.22022,0.83878 -2.62398,1.27046 -3.94229,1.92022 -4.45293,2.19502 -6.73408,3.31645 -11.77559,2.41719 2.81163,12.45338 4.22701,27.06998 4.66109,39.83335 2.32661,-4.72124 4.26597,-9.652 6.11201,-14.57831 1.21816,-3.25015 2.32559,-6.5649 3.81685,-9.7026 -0.43272,4.87676 -1.94175,9.95176 -3.48872,14.5896 -5.40997,16.21997 -13.86123,31.37285 -25.56881,43.89184 -3.96928,4.24444 -8.34292,8.03086 -12.66255,11.90479 -1.28037,1.14809 -2.65302,2.24014 -3.88144,3.44018 -0.32881,0.32095 -0.60806,0.56568 -0.74033,1.0189 0.0885,0.13228 0.12304,0.20405 0.26694,0.30625 0.76973,0.54824 2.33823,0.7458 3.26348,0.89414 7.58857,1.21577 17.8042,-0.31308 25.26392,-2.18818 28.47509,-7.15723 41.51738,-26.77705 40.33066,-55.60694 -0.0632,-1.53706 -1.22842,-8.11391 -0.69043,-9.01352 l 0.21567,0.0755 c 0.94507,1.60713 1.38052,3.67397 1.85596,5.4749 2.50435,9.83555 1.36104,21.22319 -2.00703,30.71626 q -0.32676,0.92319 -0.69077,1.83237 -0.36436,0.90918 -0.76528,1.80264 -0.40127,0.89346 -0.83877,1.76982 -0.4375,0.87603 -0.91055,1.7336 -0.47271,0.85756 -0.98062,1.69531 -0.50791,0.8374 -1.04965,1.65327 -0.54141,0.81587 -1.11631,1.60884 -0.57456,0.79297 -1.18125,1.56201 -0.60703,0.7687 -1.24483,1.51211 -0.63745,0.74307 -1.30532,1.45947 -0.66753,0.71675 -1.36411,1.40513 -0.69658,0.68838 -1.42085,1.3477 -0.72393,0.65967 -1.47451,1.28858 -0.75059,0.62925 -1.52647,1.22705 -0.77588,0.5978 -1.57534,1.16313 -0.7998,0.56568 -1.62182,1.09786 c -2.79248,1.78178 -5.79825,3.18281 -8.7835,4.60468 -2.14854,11.19932 -6.8332,22.83272 -14.7793,31.21084 -1.84946,1.94995 -4.0544,3.61724 -6.11338,5.34297 13.80347,0.37598 26.20557,-1.28447 38.43335,-8.21269 12.33921,-6.99142 18.88872,-16.39493 22.62696,-30.02545 10.32633,-37.65064 -5.86729,-99.7148 -24.85035,-132.96582 -6.03613,-10.573147 -11.09848,-17.506155 -21.65522,-24.181106 -3.87837,-2.452393 -7.94199,-4.479248 -12.38194,-5.690576 z"
     id="path79"
     style="stroke-width:0.341797" />
  <path
     fill="#fefefe"
     d="m 238.90675,124.14712 c -0.31992,-0.0475 -0.58584,-0.0386 -0.90747,-0.0243 -0.16953,0.35718 -0.15688,5.29546 -0.25669,6.16123 -0.30693,2.66807 -0.8791,5.43594 -1.87304,7.93823 -1.96192,4.94068 -5.52481,8.10367 -10.33082,10.19922 0.85826,0.0263 1.73223,0.0287 2.58638,0.11245 0.74614,0.0731 1.2937,0.17774 1.78965,0.77007 0.0649,0.46895 0.11416,0.76597 -0.0851,1.21714 -1.04726,1.06367 -2.52929,1.59653 -3.79599,2.34985 -0.98951,0.58858 -1.89219,1.34634 -2.80103,2.05044 -1.96157,1.51895 -3.68628,3.29629 -5.54497,4.93316 -5.3563,4.71748 -10.46992,6.13525 -17.46582,6.40527 0.0475,2.49238 0.2126,4.95059 0.11758,7.44912 -0.31001,8.14126 -1.77153,15.98243 -3.51572,23.91519 -0.71709,3.26177 -1.39146,6.55498 -2.28218,9.77402 -2.11709,7.64907 -4.90889,15.32139 -5.78184,23.24458 -1.08965,9.89126 1.8563,18.40576 8.06436,26.04732 7.28745,8.9708 20.39468,15.97729 31.47641,18.98715 5.00938,1.3607 10.08438,2.05557 15.23902,2.5816 1.92534,-1.18809 3.5229,-2.91895 5.14404,-4.48062 8.03633,-7.96181 14.26216,-19.91684 16.45479,-30.96885 -5.8919,1.85494 -11.6375,3.4959 -17.80044,4.19146 -6.3793,0.71982 -18.78789,1.20757 -23.99961,-2.93672 -0.26319,-0.55337 -0.39683,-1.1686 -0.55679,-1.75923 2.33447,-4.227 10.45659,-10.21015 14.29189,-13.96684 6.49893,-6.36563 12.50977,-13.02691 17.52872,-20.63667 1.60268,-2.4295 5.40517,-7.69009 6.07783,-10.17564 0.50313,-1.85937 0.12783,-4.30425 0.0475,-6.23608 q -0.5144,-10.18931 -1.76299,-20.3147 -1.24858,-10.12539 -3.22485,-20.13423 c -2.29414,-1.16655 -4.46011,-2.73061 -6.05391,-4.76977 -4.76978,-6.10313 -4.68296,-14.27925 -3.78985,-21.57798 -2.33925,-0.0393 -4.65629,-0.17124 -6.98906,-0.3459 z"
     id="path80"
     style="stroke-width:0.341797" />
  <path
     fill="#da6a61"
     d="m 23.306754,143.71191 -0.2061,0.0253 -0.13638,0.22832 c 1.54287,5.72202 2.56758,11.57905 3.94434,17.34209 q 6.29624,25.99092 12.10097,52.09634 c 2.0566,9.11059 3.59878,18.50249 6.33282,27.44082 2.84272,1.32001 5.88061,2.32832 8.79956,3.48393 3.43403,1.35967 6.8062,2.86733 10.23374,4.24204 q 1.55278,-17.44702 2.79145,-34.91899 c 0.27139,-3.37251 0.41768,-6.78091 0.77486,-10.14351 0.0578,-0.54277 0.11245,-1.4417 0.42417,-1.87646 1.10297,-1.53741 4.18803,-2.37412 6.01665,-2.43155 0.81997,-0.026 1.6249,0.11553 2.40966,0.34351 2.21109,0.64326 17.72149,6.27334 18.83335,7.31274 0.71026,2.71148 -0.31616,11.27998 -0.56533,14.72701 -0.92832,12.85669 -2.25517,25.70893 -3.03379,38.57109 3.27749,0.80493 7.46006,2.85195 10.673636,4.14941 q 14.00649,5.89429 28.16679,11.40918 c 3.4378,1.3607 6.95113,3.271 10.49727,4.24204 -0.54072,-6.69409 -2.03233,-13.44355 -3.07925,-20.08159 -3.22725,-20.46714 -7.29497,-40.79721 -11.01919,-61.1789 l -2.87725,-15.97183 c -0.47099,-2.57783 -1.10502,-5.12798 -1.44272,-7.72803 q -29.047946,-8.60063 -57.910296,-17.8042 l -23.16426,-7.19243 c -6.21455,-1.95473 -12.49575,-3.91426 -18.5647,-6.28633 z"
     id="path81"
     style="stroke-width:0.341797" />
</svg>
