<?xml version="1.0" encoding="UTF-8" standalone="no"?>
<!-- Created with Inkscape (http://www.inkscape.org/) -->

<svg
   width="132"
   height="495"
   viewBox="0 0 34.925 130.96876"
   version="1.1"
   id="svg1"
   inkscape:version="1.4.2 (2aeb623e1d, 2025-05-12)"
   sodipodi:docname="ruller.svg"
   xmlns:inkscape="http://www.inkscape.org/namespaces/inkscape"
   xmlns:sodipodi="http://sodipodi.sourceforge.net/DTD/sodipodi-0.dtd"
   xmlns="http://www.w3.org/2000/svg"
   xmlns:svg="http://www.w3.org/2000/svg">
  <sodipodi:namedview
     id="namedview1"
     pagecolor="#ffffff"
     bordercolor="#999999"
     borderopacity="1"
     inkscape:showpageshadow="2"
     inkscape:pageopacity="0"
     inkscape:pagecheckerboard="0"
     inkscape:deskcolor="#d1d1d1"
     inkscape:document-units="px"
     inkscape:zoom="0.94363242"
     inkscape:cx="129.28763"
     inkscape:cy="108.62281"
     inkscape:window-width="1920"
     inkscape:window-height="954"
     inkscape:window-x="0"
     inkscape:window-y="27"
     inkscape:window-maximized="1"
     inkscape:current-layer="g21" />
  <defs
     id="defs1" />
  <g
     inkscape:label="Layer 1"
     inkscape:groupmode="layer"
     id="layer1"
     transform="translate(-103.69345,-97.256191)">
    <g
       id="g21"
       style="display:inline"
       transform="matrix(0.67325091,0,0,0.58312787,68.721258,65.004626)">
      <path
         style="fill:#d4aa00;fill-opacity:1;stroke:none;stroke-width:2.79034;stroke-linejoin:round;stroke-opacity:1"
         d="m 51.945259,60.806279 c 3.161746,71.440751 7.822662,143.548471 7.534047,213.454221 l 37.273698,5.29223 C 94.309701,217.14744 100.02451,133.39277 103.49399,55.514017 88.375938,57.507533 71.804902,59.339606 51.945259,60.806279 Z"
         id="path7"
         sodipodi:nodetypes="ccccc" />
      <path
         style="fill:#ffffff;fill-opacity:1;stroke:none;stroke-width:1.56428;stroke-linejoin:round;stroke-opacity:1"
         d="m 85.643851,108.54589 c -1.534537,4.01012 -17.772963,0.18499 -15.62897,-4.29726 0.944991,-1.9756 18.246753,-2.54359 15.62897,4.29726 z"
         id="path10"
         sodipodi:nodetypes="sss" />
      <path
         style="fill:#c95374;fill-opacity:1;stroke:none;stroke-width:1.56428;stroke-linejoin:round;stroke-opacity:1"
         d="m 72.368532,106.94896 c -0.160297,-1.35224 12.672089,-0.68674 11.889575,1.55855 -0.782515,2.2453 -11.729279,-0.20631 -11.889575,-1.55855 z"
         id="path11"
         sodipodi:nodetypes="zzz" />
      <g
         id="g16"
         transform="translate(-5.2916667,-14.814426)"
         style="display:inline">
        <path
           style="fill:#fffcef;fill-opacity:1;stroke:none;stroke-width:1.67815;stroke-linejoin:round;stroke-opacity:1"
           d="M 92.47818,83.937981 C 80.879088,82.814781 81.200699,106.34714 90.958599,105.82683 100.7165,105.30653 104.07728,85.061182 92.47818,83.937981 Z"
           id="path15"
           sodipodi:nodetypes="zzz" />
        <ellipse
           style="display:inline;fill:#000000;fill-opacity:1;stroke:none;stroke-width:1.28541;stroke-linejoin:round;stroke-opacity:1"
           id="path5-1-9"
           cx="-89.623055"
           cy="97.961731"
           rx="3.8980598"
           ry="4.5638328"
           transform="scale(-1,1)" />
        <ellipse
           style="display:inline;fill:#ffffff;fill-opacity:0.762483;stroke:none;stroke-width:1.28541;stroke-linejoin:round;stroke-opacity:1"
           id="path6-2-2"
           cx="-87.941277"
           cy="96.05986"
           rx="0.63068897"
           ry="0.6950714"
           transform="scale(-1,1)" />
      </g>
      <g
         id="g18"
         transform="matrix(-1,0,0,1,161.38935,-14.170067)"
         style="display:inline">
        <path
           style="fill:#fffcef;fill-opacity:1;stroke:none;stroke-width:1.67815;stroke-linejoin:round;stroke-opacity:1"
           d="m 90.676354,84.33338 c -11.647433,0.371265 -8.315241,23.66873 1.295711,21.90324 9.610955,-1.76548 10.351725,-22.274505 -1.295711,-21.90324 z"
           id="path17"
           sodipodi:nodetypes="zzz" />
        <ellipse
           style="display:inline;fill:#000000;fill-opacity:1;stroke:none;stroke-width:1.28541;stroke-linejoin:round;stroke-opacity:1"
           id="ellipse17"
           cx="-89.093887"
           cy="97.961746"
           rx="3.8980598"
           ry="4.5638328"
           transform="scale(-1,1)" />
        <ellipse
           style="display:inline;fill:#ffffff;fill-opacity:0.762483;stroke:none;stroke-width:1.28541;stroke-linejoin:round;stroke-opacity:1"
           id="ellipse18"
           cx="-90.057945"
           cy="96.059868"
           rx="0.63068897"
           ry="0.6950714"
           transform="scale(-1,1)" />
      </g>
      <path
         style="fill:#040200;fill-opacity:1;stroke:none;stroke-width:1.32292;stroke-linejoin:round;stroke-opacity:1"
         d="m 100.35748,117.34673 -10.359318,-2.62699 0.198264,1.53655 10.309754,2.9244 z"
         id="path20"
         sodipodi:nodetypes="ccccc" />
      <path
         style="display:inline;fill:#040200;fill-opacity:1;stroke:none;stroke-width:1.32292;stroke-linejoin:round;stroke-opacity:1"
         d="m 98.994726,132.27283 -10.359309,-2.62699 0.198264,1.53655 10.309745,2.9244 z"
         id="path20-9"
         sodipodi:nodetypes="ccccc" />
      <path
         style="display:inline;fill:#040200;fill-opacity:1;stroke:none;stroke-width:1.32292;stroke-linejoin:round;stroke-opacity:1"
         d="m 99.03456,146.56034 -10.359318,-2.62699 0.198264,1.53655 10.309754,2.9244 z"
         id="path20-2"
         sodipodi:nodetypes="ccccc" />
      <path
         style="display:inline;fill:#040200;fill-opacity:1;stroke:none;stroke-width:1.32292;stroke-linejoin:round;stroke-opacity:1"
         d="m 97.671806,161.48644 -10.359309,-2.62699 0.198264,1.53655 10.309745,2.9244 z"
         id="path20-9-9"
         sodipodi:nodetypes="ccccc" />
      <path
         style="display:inline;fill:#040200;fill-opacity:1;stroke:none;stroke-width:1.32292;stroke-linejoin:round;stroke-opacity:1"
         d="m 97.976232,178.5749 -10.359318,-2.62699 0.198264,1.53655 10.309754,2.9244 z"
         id="path20-7"
         sodipodi:nodetypes="ccccc" />
      <path
         style="display:inline;fill:#040200;fill-opacity:1;stroke:none;stroke-width:1.32292;stroke-linejoin:round;stroke-opacity:1"
         d="m 96.613472,193.501 -10.359303,-2.62699 0.198264,1.53655 10.309739,2.9244 z"
         id="path20-9-8"
         sodipodi:nodetypes="ccccc" />
      <path
         style="display:inline;fill:#040200;fill-opacity:1;stroke:none;stroke-width:1.32292;stroke-linejoin:round;stroke-opacity:1"
         d="m 96.653312,207.78851 -10.359318,-2.62699 0.198264,1.53655 10.309754,2.9244 z"
         id="path20-2-4"
         sodipodi:nodetypes="ccccc" />
      <path
         style="display:inline;fill:#040200;fill-opacity:1;stroke:none;stroke-width:1.32292;stroke-linejoin:round;stroke-opacity:1"
         d="m 95.290552,222.71461 -10.359303,-2.62699 0.198264,1.53655 10.309739,2.9244 z"
         id="path20-9-9-5"
         sodipodi:nodetypes="ccccc" />
      <path
         style="fill:#040200;fill-opacity:0.0870674;stroke:none;stroke-width:1.32292;stroke-linejoin:round;stroke-opacity:1"
         d="m 103.28996,55.307878 -6.168542,1.121553 -5.327375,222.067409 4.766598,0.56076 z"
         id="path21" />
    </g>
    <path
       d="m 118.18529,98.36527 c 0,0 -6.21937,1.66563 -6.58363,3.0718 -0.36427,1.40615 -0.24157,1.9539 0.64696,1.97777 3.69654,0.0993 9.49019,-4.498485 5.93667,-5.04957 z"
       fill="#0f0f0f"
       stroke="#000000"
       stroke-opacity="0.956956"
       stroke-width="0.607264"
       id="path3-5"
       inkscape:transform-center-x="-2.9475973"
       inkscape:transform-center-y="-0.13711902" />
    <path
       d="m 129.5241,102.26908 c 1.60769,-0.23711 -4.15558,-4.788802 -5.07581,-4.105767 -2.45725,2.403607 3.5243,5.597757 5.07581,4.105767 z"
       fill="#0f0f0f"
       stroke="#000000"
       stroke-opacity="0.956956"
       stroke-width="0.607264"
       id="path4-6" />
  </g>
</svg>
