<?xml version="1.0" encoding="UTF-8" standalone="no"?>
<svg
   width="340"
   height="615"
   version="1.1"
   id="svg155"
   sodipodi:docname="snowman.svg"
   inkscape:version="1.3.1 (9b9bdc1480, 2023-11-25, custom)"
   xmlns:inkscape="http://www.inkscape.org/namespaces/inkscape"
   xmlns:sodipodi="http://sodipodi.sourceforge.net/DTD/sodipodi-0.dtd"
   xmlns="http://www.w3.org/2000/svg"
   xmlns:svg="http://www.w3.org/2000/svg">
  <sodipodi:namedview
     id="namedview155"
     pagecolor="#ffffff"
     bordercolor="#999999"
     borderopacity="1"
     inkscape:showpageshadow="2"
     inkscape:pageopacity="0"
     inkscape:pagecheckerboard="0"
     inkscape:deskcolor="#d1d1d1"
     inkscape:clip-to-page="true"
     inkscape:zoom="1.190086"
     inkscape:cx="391.14821"
     inkscape:cy="391.56835"
     inkscape:window-width="1920"
     inkscape:window-height="954"
     inkscape:window-x="0"
     inkscape:window-y="27"
     inkscape:window-maximized="1"
     inkscape:current-layer="g155" />
  <defs
     id="defs2">
    <linearGradient
       id="gradient_0"
       gradientUnits="userSpaceOnUse"
       x1="576.94659"
       y1="-1.7882807"
       x2="574.20795"
       y2="877.87543">
      <stop
         offset="0"
         stop-color="#539AA5"
         id="stop1" />
      <stop
         offset="1"
         stop-color="#97B6A9"
         id="stop2" />
    </linearGradient>
  </defs>
  <defs
     id="defs69">
    <linearGradient
       id="gradient_1"
       gradientUnits="userSpaceOnUse"
       x1="8.8678131"
       y1="892.18427"
       x2="44.312351"
       y2="824.1778">
      <stop
         offset="0"
         stop-color="#92B6AD"
         id="stop68" />
      <stop
         offset="1"
         stop-color="#D6D8B5"
         id="stop69" />
    </linearGradient>
  </defs>
  <defs
     id="defs71">
    <linearGradient
       id="gradient_2"
       gradientUnits="userSpaceOnUse"
       x1="1074.6196"
       y1="869.54059"
       x2="1092.1958"
       y2="776.28156">
      <stop
         offset="0"
         stop-color="#9CBAAC"
         id="stop70" />
      <stop
         offset="1"
         stop-color="#C2CDB7"
         id="stop71" />
    </linearGradient>
  </defs>
  <defs
     id="defs94">
    <linearGradient
       id="gradient_3"
       gradientUnits="userSpaceOnUse"
       x1="644.39465"
       y1="280.45981"
       x2="645.82349"
       y2="254.17511"
       gradientTransform="matrix(-1,0,0,1,875.622,0)">
      <stop
         offset="0"
         stop-color="#A04113"
         id="stop93" />
      <stop
         offset="1"
         stop-color="#B76218"
         id="stop94" />
    </linearGradient>
  </defs>
  <defs
     id="defs96">
    <linearGradient
       id="gradient_4"
       gradientUnits="userSpaceOnUse"
       x1="606.27606"
       y1="288.38998"
       x2="631.40808"
       y2="248.98354"
       gradientTransform="matrix(-1,0,0,1,875.622,0)">
      <stop
         offset="0"
         stop-color="#8E2A07"
         id="stop95" />
      <stop
         offset="1"
         stop-color="#B46D1E"
         id="stop96" />
    </linearGradient>
  </defs>
  <defs
     id="defs124">
    <linearGradient
       id="gradient_5"
       gradientUnits="userSpaceOnUse"
       x1="474.02576"
       y1="541.79828"
       x2="462.62173"
       y2="482.1969"
       gradientTransform="matrix(-1,0,0,1,875.622,0)">
      <stop
         offset="0"
         stop-color="#000140"
         id="stop123" />
      <stop
         offset="1"
         stop-color="#1A4F79"
         id="stop124" />
    </linearGradient>
  </defs>
  <defs
     id="defs132">
    <linearGradient
       id="gradient_6"
       gradientUnits="userSpaceOnUse"
       x1="721.37469"
       y1="349.20309"
       x2="685.03033"
       y2="371.56107"
       gradientTransform="matrix(-1,0,0,1,875.622,0)">
      <stop
         offset="0"
         stop-color="#08285E"
         id="stop131" />
      <stop
         offset="1"
         stop-color="#29597C"
         id="stop132" />
    </linearGradient>
  </defs>
  <defs
     id="defs134">
    <linearGradient
       id="gradient_7"
       gradientUnits="userSpaceOnUse"
       x1="716.39246"
       y1="336.92242"
       x2="683.87482"
       y2="355.71356"
       gradientTransform="matrix(-1,0,0,1,875.622,0)">
      <stop
         offset="0"
         stop-color="#06255B"
         id="stop133" />
      <stop
         offset="1"
         stop-color="#2B5F84"
         id="stop134" />
    </linearGradient>
  </defs>
  <g
     id="g155"
     transform="scale(0.68158301,0.72162767)">
    <path
       fill="#5c868c"
       d="M 8.367,0 H 0 L 1.324,0.922643 C 3.55,0.914957 5.826,1.02635 8.023,0.632808 Z"
       id="path3" />
    <path
       fill="#5c868c"
       d="m 119.32,0 h -11.011 c 1.404,1.0466 2.617,1.51151 4.379,1.65343 C 115.09,1.84695 117.436,1.62321 119.32,0 Z"
       id="path4" />
    <path
       fill="#5c868c"
       d="m 350.784,170.51 c 0.216,5.224 1.776,13.348 0.352,18.212 1.292,1.571 2.563,3.166 3.896,4.701 -2.243,-9.894 1.628,-11.071 -4.248,-22.913 z"
       id="path8" />
    <path
       d="m 236.06,113.763 c -5.063,2.076 -10.644,3.912 -15.283,6.788 l 2.427,1.153 c 0.09,-0.04 0.181,-0.077 0.269,-0.119 4.638,-2.203 9.006,-0.884 13.731,-3.56 l 0.48,-1.59 c 0.253,-0.697 0.244,-1.098 0.24,-1.827 z"
       id="path9" />
    <path
       fill="#4b7881"
       d="m 326.003,95.8531 1.709,-0.4738 c 1.697,-1.6441 3.094,-3.5939 3.775,-5.8812 1.68,-5.6472 -0.469,-11.8495 -3.364,-16.7027 -1.884,-3.158 -4.383,-7.0822 -8.117,-8.0251 3.552,4.9172 6.793,10.0307 8.045,16.0688 1.399,3.9025 1.313,8.4964 -0.54,12.2453 -0.36,0.7297 -0.746,1.2129 -1.321,1.7754 z"
       id="path10" />
    <path
       fill="#5c868c"
       d="m 364.558,239.17 c 0.885,-0.701 1.589,-1.791 1.84,-2.899 0.886,-3.927 -1.534,-23.208 -3.603,-26.593 l -0.131,3.012 c -1.806,-1.174 -1.025,-7.45 -3.66,-10.344 0.816,5.599 1.771,11.208 2.091,16.861 0.988,4.29 1.786,8.879 2.263,13.253 0.78,2.251 0.996,4.361 1.2,6.71 z"
       id="path11" />
    <path
       fill="#5c868c"
       d="m 239.354,62.7734 c -2.744,2.9022 -3.957,6.0184 -3.975,10.0388 -0.029,6.1701 4.244,11.8514 8.539,15.8697 4.348,4.0685 9.444,7.2657 13.977,11.1342 l 1.601,0.0735 c -5.123,-5.7056 -13.11,-10.1437 -16.959,-16.6561 -4.284,-7.0722 -4.77,-12.4448 -3.183,-20.4601 z"
       id="path12" />
    <path
       fill="#4b7881"
       d="m 350.784,170.51 c -1.693,-2.962 -3.389,-7.422 -6.292,-9.26 0.583,1.914 1.334,3.896 1.636,5.873 -1.729,1.451 -3.985,0.403 -4.325,3.226 -0.024,0.204 -0.019,0.41 -0.029,0.615 1.494,0.565 1.865,0.955 2.47,2.462 1.084,2.701 1.081,5.76 2.41,8.422 1.05,2.24 1.923,4.72 4.299,5.859 l -0.222,0.944 0.405,0.071 C 352.56,183.858 351,175.734 350.784,170.51 Z"
       id="path14" />
    <path
       fill="#050834"
       d="m 350.953,187.707 c -0.775,-7.047 -4.3,-13.492 -4.825,-20.584 -1.729,1.451 -3.985,0.403 -4.325,3.226 -0.024,0.204 -0.019,0.41 -0.029,0.615 1.494,0.565 1.865,0.955 2.47,2.462 1.084,2.701 1.081,5.76 2.41,8.422 1.05,2.24 1.923,4.72 4.299,5.859 z"
       id="path15" />
    <path
       fill="#28557a"
       d="m 346.654,181.848 c -1.329,-2.662 -1.326,-5.721 -2.41,-8.422 -0.605,-1.507 -0.976,-1.897 -2.47,-2.462 l -0.375,0.193 c -1.619,1.223 -3.06,2.241 -4.938,3.048 -0.65,-0.817 -1.363,-1.561 -2.076,-2.324 -1.81,-0.251 -2.395,0.173 -4.05,0.87 0.144,0.251 0.281,0.505 0.431,0.752 0.803,1.323 2.162,2.255 3.368,3.195 -0.772,0.433 -2.164,-0.125 -3.043,-0.306 l 11.897,8.035 c 2.611,1.342 5.284,2.615 7.743,4.224 l 0.222,-0.944 c -2.376,-1.139 -3.249,-3.619 -4.299,-5.859 z"
       id="path16" />
    <path
       fill="#3e646a"
       d="m 67.104,278.757 c -0.282,-2.292 -2.658,-5.604 -4.071,-7.443 -5.121,-6.663 -15.724,-11.811 -23.982,-12.766 -8.649,-1.001 -16.096,0.132 -22.977,5.59 l 1.101,1.459 c 5.415,-4.086 11.069,-6.076 17.888,-5.141 7.78,1.067 14.553,4.908 20.873,9.349 4.296,3.016 6.402,6.582 9.341,10.806 l 0.315,-0.918 c 1.187,1.935 2.074,4.013 3.012,6.076 -0.587,-1.895 -1.581,-4.238 -1.537,-6.223 0.006,-0.263 0.025,-0.526 0.037,-0.789 z"
       id="path18" />
    <path
       fill="#4b7881"
       d="m 20.918,356.475 c -1.933,7.272 7.802,19.868 8.483,27.412 l -0.749,0.209 c -0.591,-0.653 -3.177,-5.213 -3.345,-5.249 0.999,4.108 3.287,7.859 5.388,11.485 7.472,12.892 12.975,18.621 23.739,28.485 2.347,2.151 4.793,4.876 7.42,6.631 0.26,0.174 0.614,0.354 0.879,0.497 l 0.928,-1.453 C 60.412,422.137 57.409,418.912 54.56,416.08 37.607,399.223 27.944,379.026 20.918,356.475 Z"
       id="path19" />
    <path
       fill="#2b0406"
       d="m 243.971,78.9475 c -0.439,1.392 -0.79,2.9808 -1.434,4.286 3.849,6.5124 11.836,10.9505 16.959,16.6561 2.085,-0.5226 4.384,0.6284 6.41,1.1774 -1.275,-1.7133 -1.087,-5.4413 -1.992,-7.6563 -0.772,-1.8889 -2.174,-3.6139 -3.401,-5.2327 -4.998,-3.6363 -12.23,-4.5436 -16.542,-9.2305 z"
       id="path20" />
    <path
       fill="#4b7881"
       d="m 16.074,264.138 c -7.451,6.331 -10.57,12.64 -11.306,22.431 -0.735,9.764 2.068,21.456 8.784,28.882 0.772,0.854 1.556,1.592 2.483,2.27 q -0.186,-0.424 -0.364,-0.851 c -0.763,-1.829 -1.281,-2.76 -0.521,-4.626 -3.399,-6.561 -6.056,-14.146 -6.255,-21.577 -0.256,-9.571 1.615,-18.007 8.28,-25.07 z"
       id="path21" />
    <path
       fill="#0b0412"
       d="m 339.908,152.175 -1.239,2.499 c 1.016,1.873 2.01,3.674 2.734,5.687 -0.848,2.1 -3.477,3.35 -5.086,5.164 -1.124,-0.549 -2.061,-1.666 -2.873,-2.584 l -3.951,-1.713 c -2.401,0.073 -5.048,-0.15 -7.215,0.987 l -0.808,1.292 c 1.487,1.519 3.471,4.163 5.743,4.196 0.674,0.01 1.342,-0.065 2.009,-0.154 -0.225,1.58 -0.649,2.796 0.294,4.238 0.285,0.436 0.479,0.611 0.819,0.964 1.655,-0.697 2.24,-1.121 4.05,-0.87 0.713,0.763 1.426,1.507 2.076,2.324 1.878,-0.807 3.319,-1.825 4.938,-3.048 l 0.375,-0.193 c 0.01,-0.205 0.005,-0.411 0.029,-0.615 0.34,-2.823 2.596,-1.775 4.325,-3.226 -0.302,-1.977 -1.053,-3.959 -1.636,-5.873 -1.378,-3.118 -2.683,-6.228 -4.584,-9.075 z"
       id="path22" />
    <path
       fill="#2b0406"
       d="m 329.493,161.228 c -2.401,0.073 -5.048,-0.15 -7.215,0.987 l -0.808,1.292 c 1.487,1.519 3.471,4.163 5.743,4.196 0.674,0.01 1.342,-0.065 2.009,-0.154 3.365,1.14 7.877,3.839 11.344,2.671 0.321,-1.598 0.201,-1.786 -0.372,-3.232 -1.331,-1.063 -2.202,-1.252 -3.877,-1.463 -1.124,-0.549 -2.061,-1.666 -2.873,-2.584 z"
       id="path23" />
    <path
       fill="#20495a"
       d="m 362.148,242.249 c -1.851,0.467 -3.503,0.912 -5.432,0.854 5.375,13.909 5.31,28.554 3.879,43.161 -1.997,6.066 -4.455,11.755 -7.536,17.355 l 1.466,0.524 c 4.834,-4.175 6.113,-8.68 7.828,-14.653 1.134,-2.209 1.47,-5.21 1.855,-7.631 1.298,-8.157 0.996,-16.635 -0.237,-24.773 -0.71,-4.678 -1.762,-9.466 -1.82,-14.197 z"
       id="path24" />
    <path
       fill="#050834"
       d="m 296.649,107.377 -1.503,2.076 c 4.349,2.279 19.656,14.972 22.256,18.875 0.017,0.941 0.019,1.253 -0.367,2.145 3.734,2.525 4.268,8.052 8.695,10.61 l 0.74,3.404 c 3.909,3.418 8.945,4.231 11.804,8.945 l 0.395,1.242 1.239,-2.499 c -1.228,-3.382 -4.662,-7.481 -6.73,-10.526 -9.595,-12.899 -23.782,-24.609 -36.529,-34.272 z"
       id="path25" />
    <path
       fill="#4b7881"
       d="m 166.502,206.143 c -0.674,3.956 0.252,6.592 1.879,10.158 -1.521,5.916 -3.709,11.629 -5.195,17.54 -1.452,5.773 -2.167,11.782 -3.052,17.662 -0.491,3.261 -1.236,6.682 -1.348,9.975 -2.123,7.343 -0.072,18.109 2.446,25.099 1.301,3.612 3.321,7.398 3.792,11.211 l 1.817,-1.198 c -0.871,-6.136 -3.099,-11.701 -4.396,-17.703 -0.985,-4.557 -1.034,-9.497 -1.247,-14.149 0.85,-13.831 6.529,-38.364 13.211,-50.342 l -2.135,0.382 c -0.613,-0.307 -1.215,-0.604 -1.788,-0.983 -3.044,-2.02 -3.401,-4.306 -3.984,-7.652 z"
       id="path26" />
    <path
       fill="#3e646a"
       d="m 466.297,439.208 -0.956,1.814 c 8.965,10.414 21.705,22.331 26.535,35.4 1.847,4.997 2.537,10.538 3.396,15.78 1.123,6.859 2.023,13.602 1.464,20.577 -1.074,13.388 -9.181,24.908 -19.232,33.42 -12.475,10.564 -28.572,13.356 -44.463,11.861 q -0.919,-0.083 -1.835,-0.197 l 1.196,1.461 c 2.239,0.36 4.557,0.485 6.82,0.643 13.982,0.979 29.953,-3.483 40.567,-12.842 11.388,-10.042 18.076,-21.838 18.91,-37.088 0.598,-10.929 -0.644,-26.283 -5.272,-36.258 -4.388,-9.456 -19.72,-26.34 -27.13,-34.571 z"
       id="path27" />
    <path
       fill="#050834"
       d="m 220.777,120.551 c -9.066,3.868 -17.715,13.457 -21.575,22.424 -2.013,3.902 -3.921,7.799 -5.686,11.821 1.007,1.139 1.228,1.835 2.774,2.014 l 0.338,-0.159 c -1.111,-5.646 8.878,-6.47 10.334,-11.458 1.163,-0.392 2.53,0.023 3.873,-0.307 0.758,1.632 1.09,2.336 2.76,3.047 2.084,-0.533 3.506,-2.381 4.985,-3.864 l -0.329,-0.459 c 0.105,-0.721 0.021,-1.028 -0.189,-1.754 -0.247,-0.854 -0.432,-1.657 -0.59,-2.533 l 1.415,0.71 0.863,-0.529 c 0.133,-1.967 -1.354,-2.384 -1.986,-4.143 -0.056,-0.155 -0.08,-0.319 -0.12,-0.479 -1.448,-1.794 -3.082,-3.416 -4.686,-5.07 2.856,-2.607 5.584,-4.867 8.948,-6.796 l 1.298,-1.312 z"
       id="path28" />
    <path
       d="m 210.858,137.799 -1.213,-0.376 c -1.661,1.021 -2.979,1.808 -4.086,3.482 l -0.105,1.21 c 0.875,0.756 1.505,1.094 2.699,1.107 0.272,0.003 0.543,-0.041 0.815,-0.062 l 1.129,-0.643 c 0.933,-1.679 0.745,-2.86 0.761,-4.718 z"
       id="path29" />
    <path
       fill="#0b0412"
       d="m 206.377,145.197 c -0.574,-1.183 -1.791,-1.938 -2.798,-2.744 0.087,-2.147 2.946,-4.239 3.578,-6.586 l -0.581,-0.263 c -2.045,1.359 -3.334,3.822 -4.693,5.833 -0.755,1.945 -1.35,2.745 -0.818,4.881 1.112,0.643 1.185,0.698 2.493,0.334 0.941,-0.262 2.048,-0.848 2.819,-1.455 z"
       id="path30" />
    <path
       fill="#0b0412"
       d="m 210.858,137.799 c -0.016,1.858 0.172,3.039 -0.761,4.718 l -1.129,0.643 1.893,0.625 -0.026,1.101 c 0.758,1.632 1.09,2.336 2.76,3.047 2.084,-0.533 3.506,-2.381 4.985,-3.864 l -0.329,-0.459 -1.891,0.589 c -3.11,-1.042 -4.089,-3.681 -5.502,-6.4 z"
       id="path31" />
    <path
       fill="#050834"
       d="m 162.198,323.462 -0.97,1.089 c -1.297,-0.042 -1.845,-0.524 -2.813,-1.287 -2.24,2.832 -5.52,4.568 -8.017,7.16 -1.691,7.396 -4.912,14.731 -5.751,22.225 l 0.956,3.959 c 4.959,5.425 12.194,10.916 19.056,13.702 1.015,-1.212 2.278,-1.477 3.72,-2.044 -3.891,-2.333 -10.171,-4.933 -12.912,-8.403 -2.721,-3.446 -2.062,-6.238 -1.563,-10.313 0.442,-2.893 0.223,-5.81 0.637,-8.682 0.824,-5.707 4.193,-7.87 8.492,-11.059 1.071,-0.492 2.504,-0.297 3.68,-0.305 -1.714,-1.853 -3.082,-3.971 -4.515,-6.042 z"
       id="path32" />
    <path
       d="m 320.006,64.7703 c -5.256,-5.3655 -11.756,-9.85 -18.41,-13.3161 -11.811,-6.1525 -29.609,-7.9361 -42.321,-3.8167 -7.566,2.4516 -16.18,7.9748 -19.921,15.1359 -1.587,8.0153 -1.101,13.3879 3.183,20.4601 0.644,-1.3052 0.995,-2.894 1.434,-4.286 q -0.479,-0.6774 -0.88,-1.4036 -0.402,-0.7262 -0.72,-1.4923 -0.319,-0.766 -0.551,-1.5626 -0.232,-0.7966 -0.375,-1.6139 c -0.701,-3.8734 0.025,-7.4141 2.404,-10.5823 5.104,-6.796 16.155,-12.4532 24.523,-13.5631 17.172,-2.2777 29.355,4.268 42.547,14.3629 7.816,3.619 11.459,11.8221 17.132,17.7465 -1.252,-6.0381 -4.493,-11.1516 -8.045,-16.0688 z"
       id="path33" />
    <path
       fill="#89a298"
       d="m 128.235,546.063 c -4.159,-4.757 -7.195,-10.287 -11.224,-15.167 3.275,8.331 8.794,16.141 12.434,24.412 -7.163,9.777 -17.934,16.136 -25.483,25.425 -2.193,2.698 -3.864,5.963 -5.6,8.968 -3.037,4.07 -6.762,8.224 -9.309,12.578 -4.454,7.613 -10.771,24.512 -13.177,33.264 4.135,-6.305 6.069,-13.457 10.548,-19.692 -1.422,5.202 -5.167,10.362 -5.209,15.841 2.693,-5.174 4.389,-11.185 6.819,-16.544 8.798,-19.404 19.554,-33.822 36.657,-46.677 l -0.734,-0.883 c 2.216,-2.337 4.975,-4.994 6.349,-7.924 1.618,-3.449 1.215,-6.191 0.02,-9.619 q -1.066,-1.98 -2.091,-3.982 z"
       id="path34" />
    <path
       fill="#440911"
       d="m 342.988,184.427 c -1.96,0.015 -3.921,-0.796 -5.78,-1.37 l 1.818,1.396 c 2.255,2.964 4.757,5.98 6.411,9.327 3.381,6.844 12.753,33.726 11.923,40.576 -0.36,2.974 -1.852,5.535 -1.954,8.578 l 1.31,0.169 c 1.929,0.058 3.581,-0.387 5.432,-0.854 l 2.41,-3.079 c -0.204,-2.349 -0.42,-4.459 -1.2,-6.71 -0.477,-4.374 -1.275,-8.963 -2.263,-13.253 -0.32,-5.653 -1.275,-11.262 -2.091,-16.861 -1.133,-3.117 -2.412,-5.995 -3.972,-8.923 -1.333,-1.535 -2.604,-3.13 -3.896,-4.701 l -0.405,-0.071 c -2.459,-1.609 -5.132,-2.882 -7.743,-4.224 z"
       id="path35" />
    <path
       fill="#2b0406"
       d="m 342.988,184.427 c -1.96,0.015 -3.921,-0.796 -5.78,-1.37 l 1.818,1.396 c 1.528,0.938 3.099,1.815 4.45,3.001 2.101,2.626 5.13,5.395 6.695,8.317 4.77,8.907 6.143,24.973 10.713,31.898 l -0.286,-1.493 c 0.807,1.945 1.304,4.794 2.76,6.284 -0.477,-4.374 -1.275,-8.963 -2.263,-13.253 -0.32,-5.653 -1.275,-11.262 -2.091,-16.861 -1.133,-3.117 -2.412,-5.995 -3.972,-8.923 -1.333,-1.535 -2.604,-3.13 -3.896,-4.701 l -0.405,-0.071 c -2.459,-1.609 -5.132,-2.882 -7.743,-4.224 z"
       id="path36" />
    <path
       fill="#4b7881"
       d="m 376.988,362.934 c 0.112,-5.611 -0.381,-12.169 -3.225,-17.146 -1.31,-2.293 -3.982,-5.058 -6.572,-5.776 l 0.142,0.844 c 4.383,6.202 8.772,14.088 7.476,21.964 -0.363,2.202 -1.462,3.762 -1.052,6.029 -1.073,0.06 -2.404,-10e-4 -3.441,0.22 2.035,0.506 4.106,1 5.994,1.935 5.725,2.836 11.184,7.29 16.411,10.977 9.866,6.959 19.817,14.136 30.103,20.448 6.908,5.041 14.108,10.126 20.306,16.037 4.841,4.616 8.718,10 13.322,14.81 2.777,2.9 5.932,5.094 8.889,7.746 l 0.956,-1.814 c -6.323,-6.268 -11.643,-13.502 -17.862,-19.876 -6.602,-6.765 -15.024,-12.672 -22.701,-18.194 -13.346,-13.823 -38.713,-22.14 -48.746,-38.204 z"
       id="path37" />
    <path
       fill="#2b0406"
       d="m 194.579,159.965 c -2.179,0.331 -4.699,0.984 -6.885,0.681 -3.633,1.863 -8.322,4.98 -10.345,8.627 -6.389,10.186 -8.323,25.279 -10.847,36.87 0.583,3.346 0.94,5.632 3.984,7.652 0.573,0.379 1.175,0.676 1.788,0.983 l 2.135,-0.382 3.263,-1.324 q -0.516,-0.785 -0.887,-1.649 c -0.776,-1.779 -0.398,-5.382 -0.354,-7.393 0.43,-19.739 6.661,-22.787 13.525,-38.107 1.171,-2.614 2.572,-4.032 4.623,-5.958 z"
       id="path38" />
    <path
       fill="#0b0412"
       d="m 177.349,169.273 c -6.389,10.186 -8.323,25.279 -10.847,36.87 0.583,3.346 0.94,5.632 3.984,7.652 0.573,0.379 1.175,0.676 1.788,0.983 -0.067,-10.764 3.966,-8.302 -1.833,-20.605 1.593,-8.559 7.912,-15.813 6.908,-24.9 z"
       id="path39" />
    <path
       fill="#440911"
       d="m 328.051,80.8391 c -5.673,-5.9244 -9.316,-14.1275 -17.132,-17.7465 4.689,6.126 6.974,9.6355 6.509,17.7884 -1.978,3.0434 -3.87,6.0297 -7.744,6.7323 -3.389,0.6146 -26.962,-0.4528 -29.917,-1.4709 -0.749,-0.258 -1.492,-0.5121 -2.23,-0.7999 -5.737,2.1646 -10.769,4.4684 -17.024,2.8355 1.227,1.6188 2.629,3.3438 3.401,5.2327 0.905,2.215 0.717,5.943 1.992,7.6563 -2.026,-0.549 -4.325,-1.7 -6.41,-1.1774 l -1.601,-0.0735 -0.784,1.9149 c 2.357,-0.529 2.782,-0.777 5.033,0.202 0.558,0.243 1.097,0.416 1.681,0.582 2.822,1.682 5.802,3.183 7.965,5.706 5.768,-0.49 19.336,3.842 23.356,1.232 l 1.503,-2.076 c 13.833,-3.605 17.802,-0.367 29.354,-11.5239 l 0.187,-0.9933 c 0.575,-0.5625 0.961,-1.0457 1.321,-1.7754 1.853,-3.7489 1.939,-8.3428 0.54,-12.2453 z"
       id="path40" />
    <path
       d="m 326.19,94.8598 c -2.621,0.1231 -5.975,4.0704 -8.666,5.2232 -7.483,3.207 -17.208,1.356 -23.997,6.078 -4.014,-1.284 -10.499,-5.779 -14.566,-4.417 -0.863,0.584 -1.778,1.252 -2.751,1.635 -3.079,1.212 -7.435,-1.153 -10.304,-2.312 -2.026,-0.549 -4.325,-1.7 -6.41,-1.1774 l -1.601,-0.0735 -0.784,1.9149 c 2.357,-0.529 2.782,-0.777 5.033,0.202 0.558,0.243 1.097,0.416 1.681,0.582 2.822,1.682 5.802,3.183 7.965,5.706 5.768,-0.49 19.336,3.842 23.356,1.232 l 1.503,-2.076 c 13.833,-3.605 17.802,-0.367 29.354,-11.5239 z"
       id="path41" />
    <path
       fill="#1a3168"
       d="m 293.527,106.161 c -4.014,-1.284 -10.499,-5.779 -14.566,-4.417 l -1.027,2.483 c 0.94,1.805 2.525,2.382 4.451,2.973 2.34,0.718 8.311,1.514 10.49,0.476 0.251,-0.487 0.587,-0.967 0.652,-1.515 z"
       id="path42" />
    <path
       fill="#28557a"
       d="m 263.825,102.515 c -0.584,-0.166 -1.123,-0.339 -1.681,-0.582 -2.251,-0.979 -2.676,-0.731 -5.033,-0.202 -6.023,1.261 -15.062,9.003 -21.051,12.032 l 1.864,0.845 c 0.004,0.729 0.013,1.13 -0.24,1.827 l -0.48,1.59 c -4.725,2.676 -9.093,1.357 -13.731,3.56 -0.088,0.042 -0.179,0.079 -0.269,0.119 l -1.298,1.312 h 3.733 c 5.219,-1.196 21.26,-0.162 27.709,-0.186 13.553,-0.297 28.207,1.632 40.896,6.548 l 2.574,1.03 c 9.577,3.956 21.164,8.151 29.652,14.079 l -0.74,-3.404 c -4.427,-2.558 -4.961,-8.085 -8.695,-10.61 0.386,-0.892 0.384,-1.204 0.367,-2.145 -2.6,-3.903 -17.907,-16.596 -22.256,-18.875 -4.02,2.61 -17.588,-1.722 -23.356,-1.232 -2.163,-2.523 -5.143,-4.024 -7.965,-5.706 z"
       id="path43" />
    <path
       fill="#1a3168"
       d="m 263.825,102.515 c -2.314,1.678 -4.765,3.038 -7.257,4.426 4.664,0.323 9.294,-0.256 13.806,1.091 0.49,0.147 0.906,0.193 1.416,0.189 -2.163,-2.523 -5.143,-4.024 -7.965,-5.706 z"
       id="path44" />
    <path
       fill="#050834"
       d="m 263.825,102.515 c -0.584,-0.166 -1.123,-0.339 -1.681,-0.582 -2.251,-0.979 -2.676,-0.731 -5.033,-0.202 -6.023,1.261 -15.062,9.003 -21.051,12.032 l 1.864,0.845 c 0.004,0.729 0.013,1.13 -0.24,1.827 l 18.884,-9.494 c 2.492,-1.388 4.943,-2.748 7.257,-4.426 z"
       id="path45" />
    <path
       fill="#440911"
       d="m 317.035,130.473 c -5.363,-0.49 -15.265,-4.967 -20.685,-6.809 -13.024,-4.426 -28.023,-9.161 -41.967,-8.08 -5.625,0.436 -11.119,2.137 -16.715,2.424 -0.155,0.008 -0.309,0.012 -0.464,0.017 -4.725,2.676 -9.093,1.357 -13.731,3.56 -0.088,0.042 -0.179,0.079 -0.269,0.119 l -1.298,1.312 h 3.733 c 5.219,-1.196 21.26,-0.162 27.709,-0.186 13.553,-0.297 28.207,1.632 40.896,6.548 l 2.574,1.03 c 9.577,3.956 21.164,8.151 29.652,14.079 l -0.74,-3.404 c -4.427,-2.558 -4.961,-8.085 -8.695,-10.61 z"
       id="path46" />
    <path
       fill="#28557a"
       d="m 296.818,130.408 c -0.706,2.713 -0.536,4.869 -2.918,6.428 l -0.837,-0.068 c -2.339,1.587 -3.748,1.075 -6.536,0.821 -0.333,0.515 -0.782,1.097 -1.034,1.664 q -3.018,-1.768 -6.093,-3.436 c -2.093,1.589 -4.069,3.19 -5.98,4.995 l -2.68,0.06 c -0.756,1.521 -1.418,2.366 -1.328,4.082 3.417,2.223 6.132,5.761 10.415,5.658 0.206,-0.005 0.412,-0.004 0.619,-0.011 0.123,-0.004 0.247,-0.015 0.371,-0.023 l -0.458,1.683 0.373,-0.004 c -0.427,1.002 -0.833,1.659 -1.556,2.473 l -0.84,-0.083 -1.12,-1.566 c 0.091,2.618 1.636,4.681 2.877,6.9 l 11.182,3.201 c 7.621,2.027 15.274,3.971 22.695,6.658 4.087,1.48 13.487,5.855 17.121,6.552 0.879,0.181 2.271,0.739 3.043,0.306 -1.206,-0.94 -2.565,-1.872 -3.368,-3.195 -0.15,-0.247 -0.287,-0.501 -0.431,-0.752 -0.34,-0.353 -0.534,-0.528 -0.819,-0.964 -0.943,-1.442 -0.519,-2.658 -0.294,-4.238 -0.667,0.089 -1.335,0.164 -2.009,0.154 -2.272,-0.033 -4.256,-2.677 -5.743,-4.196 l 0.808,-1.292 c 2.167,-1.137 4.814,-0.914 7.215,-0.987 l 3.951,1.713 c 0.812,0.918 1.749,2.035 2.873,2.584 1.609,-1.814 4.238,-3.064 5.086,-5.164 -0.724,-2.013 -1.718,-3.814 -2.734,-5.687 l -0.395,-1.242 c -2.859,-4.714 -7.895,-5.527 -11.804,-8.945 -8.488,-5.928 -20.075,-10.123 -29.652,-14.079 z"
       id="path47" />
    <path
       fill="#2b0406"
       d="m 279.4,135.817 c -2.093,1.589 -4.069,3.19 -5.98,4.995 l -2.68,0.06 c -0.756,1.521 -1.418,2.366 -1.328,4.082 3.417,2.223 6.132,5.761 10.415,5.658 0.206,-0.005 0.412,-0.004 0.619,-0.011 0.123,-0.004 0.247,-0.015 0.371,-0.023 0.45,-0.331 0.901,-0.644 1.36,-0.962 0.311,-0.215 0.616,-0.439 0.939,-0.635 1.987,-1.205 3.857,-0.756 5.979,-0.171 0.782,0.215 0.798,0.086 1.53,-0.181 0.394,-1.227 0.591,-1.876 0.256,-3.142 -0.264,-0.999 -0.425,-1.893 -0.523,-2.922 l -0.035,-0.387 c 5.476,5.766 8.801,14.789 15.443,19.086 0.46,-2.231 -0.602,-2.731 -1.173,-4.707 -0.532,-1.842 0.444,-2.968 1.254,-4.562 -0.609,-0.452 -1.221,-0.905 -1.813,-1.381 -1.457,-1.174 -2.415,-1.962 -2.643,-3.819 1.232,-1.489 2.99,-1.693 4.783,-2.157 -3.057,-1.286 -7.297,-1.069 -9.972,-3.189 -1.647,-1.304 -2.166,-2.564 -2.302,-4.613 l -0.837,-0.068 c -2.339,1.587 -3.748,1.075 -6.536,0.821 -0.333,0.515 -0.782,1.097 -1.034,1.664 q -3.018,-1.768 -6.093,-3.436 z"
       id="path48" />
    <path
       fill="#4d5b7b"
       d="m 279.4,135.817 c -2.093,1.589 -4.069,3.19 -5.98,4.995 0.463,0.771 0.937,1.664 1.542,2.329 1.023,1.126 2.262,1.19 3.681,1.058 2.23,-0.208 5.476,-3.235 6.85,-4.946 q -3.018,-1.768 -6.093,-3.436 z"
       id="path49" />
    <path
       fill="#28557a"
       d="m 296.818,130.408 c -0.706,2.713 -0.536,4.869 -2.918,6.428 0.136,2.049 0.655,3.309 2.302,4.613 2.675,2.12 6.915,1.903 9.972,3.189 -1.793,0.464 -3.551,0.668 -4.783,2.157 0.228,1.857 1.186,2.645 2.643,3.819 0.592,0.476 1.204,0.929 1.813,1.381 -0.81,1.594 -1.786,2.72 -1.254,4.562 0.571,1.976 1.633,2.476 1.173,4.707 0.1,0.068 0.192,0.149 0.3,0.203 2.014,1.004 4.968,-0.462 6.927,-1.147 3.316,-0.23 5.498,2.327 8.477,3.187 l 0.808,-1.292 c 2.167,-1.137 4.814,-0.914 7.215,-0.987 l 3.951,1.713 c 0.812,0.918 1.749,2.035 2.873,2.584 1.609,-1.814 4.238,-3.064 5.086,-5.164 -0.724,-2.013 -1.718,-3.814 -2.734,-5.687 l -0.395,-1.242 c -2.859,-4.714 -7.895,-5.527 -11.804,-8.945 -8.488,-5.928 -20.075,-10.123 -29.652,-14.079 z"
       id="path50" />
    <path
       fill="#0b0412"
       d="m 321.589,151.071 c -2.192,-2.235 -5.101,-5.051 -8.358,-5.354 -2.33,-0.217 -3.909,0.863 -5.669,2.231 0.671,1.153 0.804,1.461 1.941,2.12 0.986,-0.293 1.963,-0.643 2.943,-0.933 0.929,-0.276 1.935,-0.013 2.866,0.151 l 4.414,3.346 z"
       id="path51" />
    <path
       fill="#1a3168"
       d="m 338.274,153.432 c -2.296,0.909 -4.42,2.004 -6.874,2.425 l -0.589,1.158 c 1.362,1.479 2.023,2.373 2.374,4.358 0.093,0.525 0.183,1.04 0.259,1.568 0.812,0.918 1.749,2.035 2.873,2.584 1.609,-1.814 4.238,-3.064 5.086,-5.164 -0.724,-2.013 -1.718,-3.814 -2.734,-5.687 z"
       id="path52" />
    <path
       fill="#1a3168"
       d="m 306.174,144.638 c -1.793,0.464 -3.551,0.668 -4.783,2.157 0.228,1.857 1.186,2.645 2.643,3.819 0.592,0.476 1.204,0.929 1.813,1.381 -0.81,1.594 -1.786,2.72 -1.254,4.562 0.571,1.976 1.633,2.476 1.173,4.707 0.1,0.068 0.192,0.149 0.3,0.203 2.014,1.004 4.968,-0.462 6.927,-1.147 3.316,-0.23 5.498,2.327 8.477,3.187 l 0.808,-1.292 c 2.167,-1.137 4.814,-0.914 7.215,-0.987 -1.389,-0.877 -2.443,-1.686 -3.56,-2.894 l 3.103,-0.939 c -1.723,-1.576 -3.947,-1.505 -5.804,-2.717 -1.36,-0.888 -1.369,-2.168 -1.643,-3.607 l -1.863,1.561 -4.414,-3.346 c -0.931,-0.164 -1.937,-0.427 -2.866,-0.151 -0.98,0.29 -1.957,0.64 -2.943,0.933 -1.137,-0.659 -1.27,-0.967 -1.941,-2.12 -0.183,-1.517 -0.474,-2.083 -1.388,-3.31 z"
       id="path53" />
    <path
       fill="#0b0412"
       d="m 321.589,151.071 -1.863,1.561 0.713,1.73 c -1.027,0.493 -1.718,0.502 -2.832,0.53 l -1.041,1.22 c 0.254,0.982 0.339,1.432 1.297,1.999 1.642,0.972 5.211,1.291 7.076,0.937 l 0.994,-0.714 3.103,-0.939 c -1.723,-1.576 -3.947,-1.505 -5.804,-2.717 -1.36,-0.888 -1.369,-2.168 -1.643,-3.607 z"
       id="path54" />
    <path
       fill="#440911"
       d="m 307.019,152.842 -1.172,-0.847 c -0.81,1.594 -1.786,2.72 -1.254,4.562 0.571,1.976 1.633,2.476 1.173,4.707 0.1,0.068 0.192,0.149 0.3,0.203 2.014,1.004 4.968,-0.462 6.927,-1.147 0.834,-1.284 0.993,-1.4 0.939,-3.002 -1.324,-1.921 -4.869,-3.195 -6.913,-4.476 z"
       id="path55" />
    <path
       fill="#4d5b7b"
       d="m 306.174,144.638 c -1.793,0.464 -3.551,0.668 -4.783,2.157 0.228,1.857 1.186,2.645 2.643,3.819 0.592,0.476 1.204,0.929 1.813,1.381 l 1.172,0.847 c 1.991,-0.254 2.996,0.032 4.868,0.594 1.34,0.402 2.044,0.81 3.261,0.107 0.21,-1.489 0.347,-2.76 0.164,-4.257 -0.931,-0.164 -1.937,-0.427 -2.866,-0.151 -0.98,0.29 -1.957,0.64 -2.943,0.933 -1.137,-0.659 -1.27,-0.967 -1.941,-2.12 -0.183,-1.517 -0.474,-2.083 -1.388,-3.31 z"
       id="path56" />
    <path
       fill="#28557a"
       d="m 253.348,122.83 c -6.449,0.024 -22.49,-1.01 -27.709,0.186 h -3.733 c -3.364,1.929 -6.092,4.189 -8.948,6.796 1.604,1.654 3.238,3.276 4.686,5.07 0.04,0.16 0.064,0.324 0.12,0.479 0.632,1.759 2.119,2.176 1.986,4.143 l -0.863,0.529 -1.415,-0.71 c 0.158,0.876 0.343,1.679 0.59,2.533 0.21,0.726 0.294,1.033 0.189,1.754 l 0.329,0.459 c -1.479,1.483 -2.901,3.331 -4.985,3.864 -1.67,-0.711 -2.002,-1.415 -2.76,-3.047 -1.343,0.33 -2.71,-0.085 -3.873,0.307 -1.456,4.988 -11.445,5.812 -10.334,11.458 23.098,-3.503 41.475,-3.026 64.478,-1.534 2.234,-0.116 6.02,0.111 7.938,-0.892 0.246,-0.404 0.422,-0.734 0.756,-1.089 1.134,-1.202 3.769,-1.628 5.333,-1.463 1.272,0.134 1.26,0.419 2.083,1.408 l 1.12,1.566 0.84,0.083 c 0.723,-0.814 1.129,-1.471 1.556,-2.473 l -0.373,0.004 0.458,-1.683 c -0.124,0.008 -0.248,0.019 -0.371,0.023 -0.207,0.007 -0.413,0.006 -0.619,0.011 -4.283,0.103 -6.998,-3.435 -10.415,-5.658 -0.09,-1.716 0.572,-2.561 1.328,-4.082 l 2.68,-0.06 c 1.911,-1.805 3.887,-3.406 5.98,-4.995 q 3.075,1.668 6.093,3.436 c 0.252,-0.567 0.701,-1.149 1.034,-1.664 2.788,0.254 4.197,0.766 6.536,-0.821 l 0.837,0.068 c 2.382,-1.559 2.212,-3.715 2.918,-6.428 l -2.574,-1.03 c -12.689,-4.916 -27.343,-6.845 -40.896,-6.548 z"
       id="path57" />
    <path
       d="m 261.804,135.566 c -2.556,-0.892 -5.805,-1.059 -8.504,-1.473 -1.387,0.32 -2.012,0.286 -3.013,1.332 0.706,1.368 2.397,1.997 3.718,2.694 q 2.724,0.578 5.477,1.001 c 3.046,0.46 3.943,0.089 6.374,-1.719 -0.936,-1.068 -2.718,-1.407 -4.052,-1.835 z"
       id="path58" />
    <path
       fill="#2b0406"
       d="m 253.3,134.093 -0.419,-0.115 c -2.153,-0.608 -4.165,-1.948 -6.415,-1.85 -1.537,1.527 -1.514,3.822 -2.42,5.707 -0.64,1.332 -2.063,-0.152 -2.094,2.322 -0.007,0.586 0.023,1.176 0.048,1.761 0.371,-0.653 0.742,-1.387 1.22,-1.966 1.003,-1.216 2.321,-1.116 3.765,-1.314 l -0.236,-0.303 0.107,-0.773 1.025,-0.034 c 1.175,0.986 2.363,2.013 3.356,3.186 1.089,1.287 1.28,2.381 1.102,4.018 -0.071,0.646 -0.104,1.289 -0.14,1.939 0.287,0.353 0.454,0.598 0.783,0.886 1.163,1.024 3.179,1.235 4.662,1.131 1.858,-0.13 2.917,-0.695 4.136,-2.06 0.007,-1.204 0.054,-0.798 -0.952,-1.211 -3.417,-1.402 -4.963,-4.265 -6.823,-7.298 -1.321,-0.697 -3.012,-1.326 -3.718,-2.694 1.001,-1.046 1.626,-1.012 3.013,-1.332 z"
       id="path59" />
    <path
       d="m 242,141.918 c -4.118,-1.121 -4.024,-6.349 -8.397,-7.5 -1.581,0.481 -2.1,1.45 -3.011,2.767 l -1.094,0.147 c -0.345,-1.402 -0.673,-2.412 -1.867,-3.224 -2.039,0.373 -2.665,3.06 -4.555,3.714 -0.71,0.246 -4.522,-2.409 -5.432,-2.94 0.04,0.16 0.064,0.324 0.12,0.479 0.632,1.759 2.119,2.176 1.986,4.143 l -0.863,0.529 -1.415,-0.71 c 0.158,0.876 0.343,1.679 0.59,2.533 0.21,0.726 0.294,1.033 0.189,1.754 l 0.329,0.459 c 1.657,-0.417 3.603,-0.916 5.311,-0.504 1.889,0.455 2.618,2.813 3.605,4.335 0.515,0.236 0.976,0.456 1.546,0.523 2.708,0.319 15.134,-4.976 17.149,-6.734 0.988,-0.863 0.742,-1.847 0.794,-3.051 -1.444,0.198 -2.762,0.098 -3.765,1.314 -0.478,0.579 -0.849,1.313 -1.22,1.966 z"
       id="path60" />
    <path
       fill="#6e5473"
       d="m 230.592,137.185 -1.094,0.147 c 0.051,0.811 0.045,1.602 0.036,2.413 -0.873,0.574 -1.776,1.051 -2.264,2.016 -0.288,0.572 -0.146,1.047 0.039,1.627 0.545,1.706 1.75,3.531 3.304,4.311 l 1.373,-0.539 c 1.071,-1.144 2.008,-2.477 2.182,-4.091 0.229,-2.13 -2.295,-4.394 -3.576,-5.884 z"
       id="path61" />
    <path
       fill="#28557a"
       d="m 253.348,122.83 c -6.449,0.024 -22.49,-1.01 -27.709,0.186 h -3.733 c -3.364,1.929 -6.092,4.189 -8.948,6.796 1.604,1.654 3.238,3.276 4.686,5.07 0.91,0.531 4.722,3.186 5.432,2.94 1.89,-0.654 2.516,-3.341 4.555,-3.714 1.194,0.812 1.522,1.822 1.867,3.224 l 1.094,-0.147 c 0.911,-1.317 1.43,-2.286 3.011,-2.767 4.373,1.151 4.279,6.379 8.397,7.5 -0.025,-0.585 -0.055,-1.175 -0.048,-1.761 0.031,-2.474 1.454,-0.99 2.094,-2.322 0.906,-1.885 0.883,-4.18 2.42,-5.707 2.25,-0.098 4.262,1.242 6.415,1.85 l 0.419,0.115 c 2.699,0.414 5.948,0.581 8.504,1.473 1.334,0.428 3.116,0.767 4.052,1.835 l 0.922,0.392 c -0.615,2.64 -3.28,4.663 -3.563,7.173 0.603,0.262 0.786,0.472 1.446,0.341 1.581,-0.314 3.321,0.041 4.751,-0.353 -0.09,-1.716 0.572,-2.561 1.328,-4.082 l 2.68,-0.06 c 1.911,-1.805 3.887,-3.406 5.98,-4.995 q 3.075,1.668 6.093,3.436 c 0.252,-0.567 0.701,-1.149 1.034,-1.664 2.788,0.254 4.197,0.766 6.536,-0.821 l 0.837,0.068 c 2.382,-1.559 2.212,-3.715 2.918,-6.428 l -2.574,-1.03 c -12.689,-4.916 -27.343,-6.845 -40.896,-6.548 z"
       id="path62" />
    <path
       fill="#4d5b7b"
       d="m 253.348,122.83 c -6.449,0.024 -22.49,-1.01 -27.709,0.186 1.43,0.189 2.814,0.37 4.208,0.745 2.822,0.758 5.546,-0.063 8.268,1.266 0.551,0.269 0.319,0.174 1.041,0.271 3.908,-0.593 10.826,-0.479 14.192,-2.468 z"
       id="path63" />
    <path
       fill="#4d5b7b"
       d="m 296.818,130.408 -2.574,-1.03 c -2.363,1.251 -3.359,2.492 -4.819,4.656 l -2.245,0.755 c 1.933,0.679 3.895,1.488 5.883,1.979 l 0.837,0.068 c 2.382,-1.559 2.212,-3.715 2.918,-6.428 z"
       id="path64" />
    <path
       fill="#050834"
       d="m 287.18,134.789 c -0.148,-0.018 -0.303,-0.005 -0.444,-0.053 -1.212,-0.414 -2.186,-1.251 -3.49,-1.558 -3.996,-0.941 -8.737,0.56 -12.833,0.898 -0.91,0.304 -1.962,0.803 -2.916,0.844 -1.899,0.285 -3.77,0.593 -5.693,0.646 1.334,0.428 3.116,0.767 4.052,1.835 l 0.922,0.392 c -0.615,2.64 -3.28,4.663 -3.563,7.173 0.603,0.262 0.786,0.472 1.446,0.341 1.581,-0.314 3.321,0.041 4.751,-0.353 -0.09,-1.716 0.572,-2.561 1.328,-4.082 l 2.68,-0.06 c 1.911,-1.805 3.887,-3.406 5.98,-4.995 q 3.075,1.668 6.093,3.436 c 0.252,-0.567 0.701,-1.149 1.034,-1.664 2.788,0.254 4.197,0.766 6.536,-0.821 -1.988,-0.491 -3.95,-1.3 -5.883,-1.979 z"
       id="path65" />
    <path
       fill="#c2cdb0"
       d="m 55.936,269.805 c -6.32,-4.441 -13.093,-8.282 -20.873,-9.349 -6.819,-0.935 -12.473,1.055 -17.888,5.141 -6.665,7.063 -8.536,15.499 -8.28,25.07 0.199,7.431 2.856,15.016 6.255,21.577 -0.76,1.866 -0.242,2.797 0.521,4.626 q 0.178,0.427 0.364,0.851 c 2.014,1.61 6.44,4.392 6.843,7.128 0.041,0.28 0.055,0.564 0.085,0.845 l 0.067,0.576 c 2.233,-2.336 5.229,-4.168 7.86,-6.052 l -1.264,-0.572 c 6.828,-6.914 13.175,-10.573 22.735,-12.405 0.915,-4.742 2.857,-9.16 3.816,-13.864 1.502,-7.374 0.174,-16.06 -0.241,-23.572 z"
       id="path66"
       style="fill:#dadfd0;fill-opacity:1" />
    <path
       fill="#3e646a"
       d="m 15.15,312.244 c -0.76,1.866 -0.242,2.797 0.521,4.626 q 0.178,0.427 0.364,0.851 c 2.014,1.61 6.44,4.392 6.843,7.128 0.041,0.28 0.055,0.564 0.085,0.845 l 0.067,0.576 c 2.233,-2.336 5.229,-4.168 7.86,-6.052 l -1.264,-0.572 c -0.877,0.901 -1.342,1.336 -2.569,1.752 -4.468,-0.873 -8.721,-6.099 -11.907,-9.154 z"
       id="path67" />
    <path
       fill="#6e0300"
       d="M 310.919,63.0926 C 297.727,52.9977 285.544,46.452 268.372,48.7297 c -8.368,1.1099 -19.419,6.7671 -24.523,13.5631 -2.379,3.1682 -3.105,6.7089 -2.404,10.5823 q 0.143,0.8173 0.375,1.6139 0.232,0.7966 0.551,1.5626 0.318,0.7661 0.72,1.4923 0.401,0.7262 0.88,1.4036 c 4.312,4.6869 11.544,5.5942 16.542,9.2305 6.255,1.6329 11.287,-0.6709 17.024,-2.8355 0.738,0.2878 1.481,0.5419 2.23,0.7999 2.955,1.0181 26.528,2.0855 29.917,1.4709 3.874,-0.7026 5.766,-3.6889 7.744,-6.7323 0.465,-8.1529 -1.82,-11.6624 -6.509,-17.7884 z"
       id="path68" />
    <path
       fill="#6e0300"
       d="m 277.216,153.081 c -0.823,-0.989 -0.811,-1.274 -2.083,-1.408 -1.564,-0.165 -4.199,0.261 -5.333,1.463 -0.334,0.355 -0.51,0.685 -0.756,1.089 -1.918,1.003 -5.704,0.776 -7.938,0.892 -23.003,-1.492 -41.38,-1.969 -64.478,1.534 l -0.338,0.159 c -1.546,-0.179 -1.767,-0.875 -2.774,-2.014 -1.542,2.68 -3.328,4.118 -5.822,5.85 2.186,0.303 4.706,-0.35 6.885,-0.681 -2.051,1.926 -3.452,3.344 -4.623,5.958 -6.864,15.32 -13.095,18.368 -13.525,38.107 -0.044,2.011 -0.422,5.614 0.354,7.393 q 0.371,0.864 0.887,1.649 c 22.897,-8.476 55.552,-13.644 79.871,-10.187 5.725,0.813 11.155,3.223 16.806,4.409 5.816,1.22 11.707,1.542 17.387,3.437 7.949,2.652 15.794,6.64 23.409,10.14 6.694,3.076 13.229,6.52 19.944,9.54 5.559,3.212 15.191,10.852 20.317,12.523 0.102,-3.043 1.594,-5.604 1.954,-8.578 0.83,-6.85 -8.542,-33.732 -11.923,-40.576 -1.654,-3.347 -4.156,-6.363 -6.411,-9.327 l -1.818,-1.396 c 1.859,0.574 3.82,1.385 5.78,1.37 l -11.897,-8.035 c -3.634,-0.697 -13.034,-5.072 -17.121,-6.552 -7.421,-2.687 -15.074,-4.631 -22.695,-6.658 l -11.182,-3.201 c -1.241,-2.219 -2.786,-4.282 -2.877,-6.9 z"
       id="path72" />
    <path
       d="m 331.091,176.392 c -3.634,-0.697 -13.034,-5.072 -17.121,-6.552 -7.421,-2.687 -15.074,-4.631 -22.695,-6.658 l -1.396,1.476 1.583,0.392 0.288,0.65 c 15.061,4.383 28.593,9.212 42.669,16.272 l 2.789,1.085 c 1.859,0.574 3.82,1.385 5.78,1.37 z"
       id="path73" />
    <path
       fill="#0b0412"
       d="m 277.216,153.081 c -0.823,-0.989 -0.811,-1.274 -2.083,-1.408 -1.564,-0.165 -4.199,0.261 -5.333,1.463 -0.334,0.355 -0.51,0.685 -0.756,1.089 -1.918,1.003 -5.704,0.776 -7.938,0.892 l -0.421,2.626 c 10.361,1.819 20.524,7.468 31.065,7.957 l -0.288,-0.65 -1.583,-0.392 1.396,-1.476 -11.182,-3.201 c -1.241,-2.219 -2.786,-4.282 -2.877,-6.9 z"
       id="path74" />
    <path
       fill="#4d5b7b"
       d="m 277.216,153.081 c -0.823,-0.989 -0.811,-1.274 -2.083,-1.408 -1.564,-0.165 -4.199,0.261 -5.333,1.463 -0.334,0.355 -0.51,0.685 -0.756,1.089 1.721,-0.107 3.437,-0.31 5.145,-0.005 -1.66,0.559 -3.961,0.905 -5.054,2.267 2.284,2.15 7.918,2.785 10.958,3.494 -1.241,-2.219 -2.786,-4.282 -2.877,-6.9 z"
       id="path75" />
    <path
       d="m 261.106,155.117 c -23.003,-1.492 -41.38,-1.969 -64.478,1.534 l -0.338,0.159 c -1.546,-0.179 -1.767,-0.875 -2.774,-2.014 -1.542,2.68 -3.328,4.118 -5.822,5.85 2.186,0.303 4.706,-0.35 6.885,-0.681 14.559,-5.073 50.209,-3.721 66.106,-2.222 z"
       id="path76" />
    <path
       fill="#550706"
       d="m 337.208,183.057 -2.789,-1.085 c 5.311,6.826 4.626,15.146 8.179,22.684 1.816,3.853 5.863,6.984 7.327,10.769 1.649,4.264 3.45,12.707 2.995,17.267 -0.052,0.529 -0.204,0.938 -0.393,1.429 -2.382,1.068 -4.192,0.887 -6.63,0.012 -3.374,-1.21 -7.152,-4.185 -10.808,-3.722 5.559,3.212 15.191,10.852 20.317,12.523 0.102,-3.043 1.594,-5.604 1.954,-8.578 0.83,-6.85 -8.542,-33.732 -11.923,-40.576 -1.654,-3.347 -4.156,-6.363 -6.411,-9.327 z"
       id="path77" />
    <path
       fill="#c2cdb0"
       d="m 335.089,230.411 c -6.715,-3.02 -13.25,-6.464 -19.944,-9.54 -7.615,-3.5 -15.46,-7.488 -23.409,-10.14 -5.68,-1.895 -11.571,-2.217 -17.387,-3.437 -5.651,-1.186 -11.081,-3.596 -16.806,-4.409 -24.319,-3.457 -56.974,1.711 -79.871,10.187 l -3.263,1.324 c -6.682,11.978 -12.361,36.511 -13.211,50.342 0.213,4.652 0.262,9.592 1.247,14.149 1.297,6.002 3.525,11.567 4.396,17.703 1.795,6.338 4.248,12.143 8.457,17.26 6.257,7.612 13.19,14.082 21.922,18.818 6.023,-0.747 11.805,-0.864 17.87,-0.595 2.389,0.618 4.727,1.532 7.038,2.395 3.446,1.287 19.985,7.155 21.943,9.467 0.994,1.175 1.074,3.47 1.751,4.953 9.817,2.248 27.39,0.594 36.852,-2.082 5.386,-1.523 10.479,-3.933 15.845,-5.519 4.828,-1.426 9.873,-2.071 14.667,-3.636 24.805,-8.095 28.304,-10.996 39.873,-34.032 3.081,-5.6 5.539,-11.289 7.536,-17.355 1.431,-14.607 1.496,-29.252 -3.879,-43.161 l -1.31,-0.169 c -5.126,-1.671 -14.758,-9.311 -20.317,-12.523 z"
       id="path78"
       style="fill:#e0e5d6;fill-opacity:1" />
    <path
       d="m 300.494,303.681 c -0.193,0.055 -0.386,0.108 -0.578,0.167 -1.607,0.493 -3.08,1.166 -3.853,2.654 0.81,1.602 1.791,1.986 3.273,2.961 l 1.658,0.328 c 0.916,-0.697 1.293,-0.908 1.463,-2.144 0.257,-1.867 -0.836,-2.708 -1.963,-3.966 z"
       id="path79" />
    <path
       fill="#0b0412"
       d="m 227.935,207.611 c -6.014,0.574 -10.106,2.951 -15.124,6.121 4.66,-1.517 9.282,-2.583 14.12,-3.356 1.719,-0.147 12.463,3.693 15.651,4.19 -4.655,-2.855 -9.398,-5.378 -14.647,-6.955 z"
       id="path80" />
    <path
       d="m 197.154,291.766 c -1.777,-0.009 -3.373,0.057 -4.659,1.454 q -0.303,0.33 -0.535,0.712 -0.233,0.383 -0.386,0.804 -0.153,0.421 -0.22,0.863 -0.068,0.443 -0.048,0.89 c 0.092,2.296 1.188,3.651 2.837,5.115 1.376,-0.121 2.974,-0.159 4.135,-1.002 0.889,-0.646 1.441,-1.715 1.548,-2.777 0.248,-2.456 -1.192,-4.277 -2.672,-6.059 z"
       id="path81" />
    <path
       d="m 289.473,309.908 c -0.288,0.062 -0.577,0.118 -0.864,0.185 -1.879,0.436 -3.444,1.409 -4.382,3.146 -0.619,1.145 -0.664,2.41 -0.276,3.637 0.66,2.089 2.19,2.79 4.033,3.739 2.247,-0.675 4.179,-1.654 5.431,-3.752 0.568,-0.952 0.758,-2.173 0.424,-3.238 -0.653,-2.079 -2.564,-2.832 -4.366,-3.717 z"
       id="path82" />
    <path
       d="m 228.97,313.832 c -2.204,0.114 -3.869,0.463 -5.541,1.953 -0.452,0.981 -0.845,1.532 -0.753,2.632 0.225,2.704 1.994,4.104 3.889,5.771 0.676,0.022 1.355,0.044 2.031,0.006 1.288,-0.072 2.453,-0.554 3.275,-1.58 0.851,-1.064 1.1,-2.537 0.837,-3.851 -0.469,-2.347 -1.821,-3.654 -3.738,-4.931 z"
       id="path83" />
    <path
       d="m 316.322,291.802 c -0.167,0.011 -0.334,0.019 -0.5,0.032 -2.305,0.181 -4.077,0.801 -5.554,2.669 -0.953,1.206 -1.26,2.639 -1.013,4.144 0.351,2.13 1.706,2.995 3.359,4.214 2.373,-0.102 4.275,-0.545 5.937,-2.366 1.031,-1.13 1.317,-2.461 1.147,-3.962 -0.248,-2.201 -1.788,-3.375 -3.376,-4.731 z"
       id="path84" />
    <path
       d="m 211.207,303.679 c -0.636,0.024 -1.248,0.077 -1.87,0.219 -1.57,0.359 -2.988,1.098 -3.762,2.58 -0.673,1.289 -0.5,2.747 0.026,4.053 1.017,2.53 2.893,3.243 5.211,4.28 1.239,0.089 2.504,0.174 3.704,-0.22 1.014,-0.333 1.888,-1.116 2.303,-2.107 0.473,-1.129 0.332,-2.31 -0.069,-3.429 -1.05,-2.934 -2.819,-4.099 -5.543,-5.376 z"
       id="path85" />
    <path
       d="m 245.852,318.969 c -1.213,0.095 -2.338,0.328 -3.483,0.758 -1.328,0.498 -2.601,1.429 -3.13,2.791 -0.556,1.433 -0.176,2.848 0.491,4.173 1.801,3.579 4.825,4.989 8.416,6.167 1.508,-0.072 3.213,-0.256 4.577,-0.957 1.008,-0.518 1.651,-1.33 2.011,-2.393 0.516,-1.526 -0.098,-3.233 -0.859,-4.569 -1.947,-3.417 -4.376,-4.967 -8.023,-5.97 z"
       id="path86" />
    <path
       d="m 272.573,316.178 c -2.051,-0.186 -4.134,-0.389 -6.146,0.195 -1.938,0.562 -3.937,1.853 -4.866,3.697 -0.547,1.087 -0.605,2.237 -0.194,3.38 0.938,2.614 3.525,3.632 5.837,4.729 1.711,0.471 3.663,1.081 5.457,0.824 1.758,-0.251 3.594,-1.341 4.573,-2.834 0.857,-1.309 1.024,-2.851 0.634,-4.35 -0.749,-2.886 -2.915,-4.219 -5.295,-5.641 z"
       id="path87" />
    <path
       d="m 194.769,254.597 c -3.365,-0.236 -6.059,1.799 -9.649,1.552 -2.844,-0.696 -7.49,-2.105 -10.164,-0.209 -1.071,0.759 -0.937,1.152 -1.032,2.363 1.431,3.403 3.717,5.16 7.053,6.543 6.937,2.877 14.205,5.776 21.268,8.291 l 0.403,-1.711 c -0.308,-2.539 -0.732,-4.801 -1.524,-7.238 -1.031,-2.966 -3.264,-5.63 -5.071,-8.181 z"
       id="path88" />
    <path
       fill="#2b0406"
       d="m 194.769,254.597 c -3.365,-0.236 -6.059,1.799 -9.649,1.552 1.523,1.463 4.186,2.937 5.39,4.556 1.851,2.488 0.559,7.847 5.111,7.745 1.398,-0.032 4.404,-3.245 5.503,-4.262 -1.031,-2.966 -3.264,-5.63 -5.071,-8.181 z"
       id="path89" />
    <path
       fill="#70381d"
       d="m 274.012,258.382 c -1.898,-2.151 -3.786,-4.431 -5.889,-6.383 -2.577,-2.392 -5.79,-4.343 -9.291,-4.912 -10.132,-1.649 -20.645,2.56 -30.559,4.07 -6.588,1.004 -13.338,1.402 -19.973,2.053 -4.326,0.424 -8.652,1.204 -12.995,1.371 l -0.536,0.016 1.284,1.41 q 9.272,-0.432 18.536,-0.997 c 4.309,3.418 7.147,9.299 7.831,14.761 0.151,1.204 -0.047,2.086 -0.401,3.231 -1.312,1.196 -1.741,1.321 -3.547,1.3 -4.993,-0.057 -11.128,-1.156 -15.824,-2.876 l -0.403,1.711 c 5.218,3.38 11.039,4.969 17.032,6.382 0.623,-0.388 0.391,-0.303 0.966,-0.486 1.579,-0.503 2.417,-0.942 3.273,-2.447 1.901,-3.343 1.854,-7.339 0.907,-10.959 -1.44,-5.508 -4.404,-9.044 -9.285,-11.863 5.837,0.549 11.832,0.036 17.689,-0.168 l 2.301,-0.51 c 8.307,-3.122 18.506,-4.561 27.28,-3.674 4.289,2.788 7.598,6.3 11.27,9.809 z"
       id="path90" />
    <path
       d="m 229.086,225.065 c -1.665,-0.048 -3.308,-0.006 -4.946,0.334 q -0.468,0.093 -0.923,0.234 -0.456,0.141 -0.894,0.33 -0.438,0.188 -0.854,0.421 -0.416,0.233 -0.806,0.508 -0.389,0.275 -0.748,0.589 -0.358,0.315 -0.682,0.665 -0.324,0.35 -0.609,0.732 -0.285,0.382 -0.529,0.792 c -1.329,2.262 -1.476,5.046 -0.837,7.548 1.072,4.195 3.758,7.353 7.479,9.429 1.723,0.21 3.396,0.441 5.072,-0.144 2.829,-0.987 4.886,-3.383 5.982,-6.107 1.335,-3.318 1.379,-7.389 -0.223,-10.628 -1.408,-2.845 -3.696,-3.698 -6.482,-4.703 z"
       id="path91" />
    <path
       fill="#ae5c1c"
       d="m 214.589,255.01 q -9.264,0.565 -18.536,0.997 c 1.807,2.551 4.04,5.215 5.071,8.181 0.792,2.437 1.216,4.699 1.524,7.238 4.696,1.72 10.831,2.819 15.824,2.876 1.806,0.021 2.235,-0.104 3.547,-1.3 0.354,-1.145 0.552,-2.027 0.401,-3.231 -0.684,-5.462 -3.522,-11.343 -7.831,-14.761 z"
       id="path92" />
    <path
       d="m 286.31,231.245 c -1.574,0.336 -3.121,1.094 -4.309,2.179 -2.339,2.136 -3.53,5.059 -3.638,8.199 -0.133,3.898 1.305,7.932 4.004,10.767 2.572,2.701 4.637,3.043 8.157,3.037 q 1.235,-0.36 2.376,-0.954 c 3.989,-2.042 5.113,-6.139 6.342,-10.098 -0.539,-2.144 -1.266,-4.436 -2.413,-6.345 -2.51,-4.18 -6.085,-5.559 -10.519,-6.785 z"
       id="path93" />
    <path
       fill="url(#gradient_3)"
       d="m 235.128,253.086 -2.301,0.51 c -5.857,0.204 -11.852,0.717 -17.689,0.168 4.881,2.819 7.845,6.355 9.285,11.863 0.947,3.62 0.994,7.616 -0.907,10.959 -0.856,1.505 -1.694,1.944 -3.273,2.447 -0.575,0.183 -0.343,0.098 -0.966,0.486 4.404,1.42 8.83,3.657 13.356,4.488 2.634,0.805 5.55,1.994 8.264,2.351 1.284,-5.747 3.89,-11.829 3.37,-17.774 -0.554,-6.319 -4.473,-11.498 -9.139,-15.498 z"
       id="path94"
       style="fill:url(#gradient_3)" />
    <path
       fill="#440911"
       d="m 235.128,253.086 -2.301,0.51 c 4.756,3.494 7.531,7.683 8.405,13.569 0.601,4.046 0.797,10.954 -1.914,14.342 -0.73,0.913 -1.553,1.339 -2.713,1.442 -1.003,0.089 -2.072,-0.01 -3.078,-0.06 -0.344,0.357 -0.728,0.645 -0.894,1.118 2.634,0.805 5.55,1.994 8.264,2.351 1.284,-5.747 3.89,-11.829 3.37,-17.774 -0.554,-6.319 -4.473,-11.498 -9.139,-15.498 z"
       id="path95" />
    <path
       fill="url(#gradient_4)"
       d="m 262.408,249.412 c -8.774,-0.887 -18.973,0.552 -27.28,3.674 4.666,4 8.585,9.179 9.139,15.498 0.52,5.945 -2.086,12.027 -3.37,17.774 2.131,-0.31 4.26,-0.33 6.322,0.396 3.672,1.702 5.471,1.053 9.133,-0.095 6.336,2.044 11.595,3.437 17.955,0.445 1.666,-0.527 3.543,-1.728 4.845,-2.917 1.972,-1.801 3.002,-4.301 3.133,-6.944 0.358,-7.222 -3.608,-13.716 -8.273,-18.861 l -0.334,0.839 c -3.672,-3.509 -6.981,-7.021 -11.27,-9.809 z"
       id="path96"
       style="fill:url(#gradient_4)" />
    <path
       fill="#2b0406"
       d="m 274.307,287.104 c -3.19,0.391 -6.984,0.898 -10.084,-0.052 -3.069,-2.458 -2.286,-6.14 -3.523,-9.468 l -0.841,10e-4 c -1.497,1.363 -2.267,3.008 -3.199,4.77 -2.292,0.5 -5.007,0.877 -7.166,1.758 -1.536,0.626 -1.749,1.129 -2.275,2.641 3.672,1.702 5.471,1.053 9.133,-0.095 6.336,2.044 11.595,3.437 17.955,0.445 z"
       id="path97" />
    <path
       fill="#c2cdb0"
       d="m 65.277,280.611 c -2.939,-4.224 -5.045,-7.79 -9.341,-10.806 0.415,7.512 1.743,16.198 0.241,23.572 -0.959,4.704 -2.901,9.122 -3.816,13.864 -9.56,1.832 -15.907,5.491 -22.735,12.405 l 1.264,0.572 c -2.631,1.884 -5.627,3.716 -7.86,6.052 -4.663,8.173 -4.884,14.942 -3.336,24.084 0.327,1.935 1.169,4.204 1.224,6.121 7.026,22.551 16.689,42.748 33.642,59.605 2.849,2.832 5.852,6.057 9.101,8.412 l -0.928,1.453 c 0.136,0.199 0.268,0.4 0.408,0.596 5.439,7.548 43.248,25.726 44.519,27.958 0.423,0.742 -0.389,7.83 -0.456,9.395 -0.407,9.544 -0.533,19.346 0.216,28.873 q 0.38,4.926 1.176,9.803 0.796,4.877 2.001,9.668 1.206,4.792 2.812,9.465 1.606,4.673 3.602,9.193 c 4.029,4.88 7.065,10.41 11.224,15.167 q 1.025,2.002 2.091,3.982 c 1.195,3.428 1.598,6.17 -0.02,9.619 -1.374,2.93 -4.133,5.587 -6.349,7.924 l 0.734,0.883 c 3.749,-2.462 7.294,-5.009 10.802,-7.808 7.233,7.748 13.121,15.898 22.592,21.192 l 0.499,-1.308 c 8.596,3.57 17.277,6.838 25.916,10.289 5.931,2.37 11.952,5.166 18.111,6.883 5.517,1.539 12.736,1.303 18.52,1.881 6.645,0.665 13.245,1.857 19.899,2.406 7.872,0.65 15.802,0.572 23.686,1.059 5.8,0.359 11.828,1.408 17.612,1.186 6.2,-0.237 12.634,-2.002 18.81,-2.814 7.051,-0.927 15.015,-0.738 21.854,-2.593 17.938,-4.867 35.384,-13.656 51.413,-22.97 6.92,-4.021 19.077,-12.933 21.202,-21.112 1.606,0.208 3.171,0.336 4.79,0.374 l 1.827,-0.213 c 6.382,-0.02 12.421,-0.123 18.677,1.355 3.877,0.916 7.567,2.35 11.501,3.046 l -1.196,-1.461 q 0.916,0.114 1.835,0.197 c 15.891,1.495 31.988,-1.297 44.463,-11.861 10.051,-8.512 18.158,-20.032 19.232,-33.42 0.559,-6.975 -0.341,-13.718 -1.464,-20.577 -0.859,-5.242 -1.549,-10.783 -3.396,-15.78 -4.83,-13.069 -17.57,-24.986 -26.535,-35.4 -2.957,-2.652 -6.112,-4.846 -8.889,-7.746 -4.604,-4.81 -8.481,-10.194 -13.322,-14.81 -6.198,-5.911 -13.398,-10.996 -20.306,-16.037 -10.286,-6.312 -20.237,-13.489 -30.103,-20.448 -5.227,-3.687 -10.686,-8.141 -16.411,-10.977 -1.888,-0.935 -3.959,-1.429 -5.994,-1.935 1.037,-0.221 2.368,-0.16 3.441,-0.22 -0.41,-2.267 0.689,-3.827 1.052,-6.029 1.296,-7.876 -3.093,-15.762 -7.476,-21.964 l -0.142,-0.844 c -1.338,-0.985 -2.474,-2.195 -3.647,-3.366 1.153,-6.216 1.584,-15.164 0.267,-21.375 -0.995,-4.691 -3.177,-7.182 -7.084,-9.735 l -2.202,-1.393 -1.466,-0.524 c -11.569,23.036 -15.068,25.937 -39.873,34.032 -4.794,1.565 -9.839,2.21 -14.667,3.636 -5.366,1.586 -10.459,3.996 -15.845,5.519 -9.462,2.676 -27.035,4.33 -36.852,2.082 -0.677,-1.483 -0.757,-3.778 -1.751,-4.953 -1.958,-2.312 -18.497,-8.18 -21.943,-9.467 -2.311,-0.863 -4.649,-1.777 -7.038,-2.395 -6.065,-0.269 -11.847,-0.152 -17.87,0.595 -8.732,-4.736 -15.665,-11.206 -21.922,-18.818 -4.209,-5.117 -6.662,-10.922 -8.457,-17.26 l -1.817,1.198 c -3.354,3.387 -7.049,6.739 -9.335,10.974 0.231,4.137 0.472,10.918 2.726,14.502 0.968,0.763 1.516,1.245 2.813,1.287 l 0.97,-1.089 c 1.433,2.071 2.801,4.189 4.515,6.042 -1.176,0.008 -2.609,-0.187 -3.68,0.305 -4.299,3.189 -7.668,5.352 -8.492,11.059 -0.414,2.872 -0.195,5.789 -0.637,8.682 -0.499,4.075 -1.158,6.867 1.563,10.313 2.741,3.47 9.021,6.07 12.912,8.403 -1.442,0.567 -2.705,0.832 -3.72,2.044 -6.862,-2.786 -14.097,-8.277 -19.056,-13.702 l -0.956,-3.959 c -0.673,1.346 -0.949,2.116 -2.494,2.659 -6,2.112 -18.293,4.092 -24.062,1.563 -12.471,-5.916 -16.796,-10.901 -23.537,-22.83 -2.573,-4.553 -5.229,-9.104 -7.627,-13.752 -1.298,-2.516 -2.031,-5.329 -3.453,-7.777 -2.163,-3.723 -6.172,-3.933 -9.995,-4.782 -0.17,-0.129 -0.369,-0.226 -0.51,-0.387 -0.947,-1.082 -0.393,-3.109 -0.242,-4.464 0.896,-7.984 -2.091,-17.055 -5.623,-24.122 -0.012,0.263 -0.031,0.526 -0.037,0.789 -0.044,1.985 0.95,4.328 1.537,6.223 -0.938,-2.063 -1.825,-4.141 -3.012,-6.076 z"
       id="path98"
       style="fill:#dfe5d6;fill-opacity:1" />
    <path
       fill="#c3cab8"
       d="m 228.959,476.179 -1.962,2.58 -0.368,-0.467 c 0.089,-2.468 -0.161,-4.286 -0.983,-6.626 l -0.249,-0.697 c 0.07,2.496 0.199,4.983 -0.128,7.467 l -0.635,0.581 c -0.406,-0.324 -0.857,-0.631 -1.204,-1.017 -1.642,-0.045 -1.949,-0.193 -3.22,0.966 -0.71,0.648 -0.964,1.347 -1.329,2.216 0.192,1.588 0.284,1.627 1.397,2.794 1.979,0.922 3.752,0.135 5.815,-0.126 1.952,-2.002 2.276,-5.035 2.866,-7.671 z"
       id="path99" />
    <path
       fill="#20495a"
       d="m 216.497,454.606 -1.337,-0.888 c -0.69,3.312 -1.017,7.894 -2.723,10.798 -1.156,0.024 -0.983,-0.108 -1.791,-0.829 -0.943,4.134 -0.754,17.774 0.534,21.807 2.545,-5.942 2.066,-12.158 3.075,-18.421 0.676,-4.194 1.906,-8.225 2.242,-12.467 z"
       id="path100" />
    <path
       fill="#550706"
       d="m 201.689,444.99 -1.067,0.629 -5.687,1.613 c 0.537,1.369 0.955,2.292 0.689,3.798 -1.615,0.942 -3.44,0.615 -4.643,2.05 3.196,0.44 5.46,-1.119 8.408,-2.057 l 0.377,0.547 2.553,0.73 1.561,0.352 c 1.084,4.019 0.32,9.489 0.337,13.704 0.327,-3.634 0.031,-9.127 1.609,-12.32 0.698,-0.576 1.37,-1.176 2.137,-1.659 -1.202,-0.838 -1.673,-1.059 -2.332,-2.403 -1.439,-1.569 -2.674,-3.278 -3.942,-4.984 z"
       id="path101" />
    <path
       fill="#3e646a"
       d="m 202.319,452.3 -2.553,-0.73 c -0.195,7.177 -3.054,15.738 -0.324,22.595 0.308,1.501 0.11,3.06 0.46,4.537 0.335,1.414 1.226,2.508 2.431,3.251 1.321,-0.403 1.484,-0.535 2.234,-1.705 0.989,-1.545 1.427,-3.203 1.088,-4.999 l -0.882,-0.582 c -0.564,0.28 -1.001,0.524 -1.483,0.94 -0.129,0.111 -0.251,0.23 -0.376,0.345 -1.174,-2.67 -0.78,-6.821 -1.109,-9.801 -0.14,-4.336 -0.735,-9.67 0.514,-13.851 z"
       id="path102" />
    <path
       fill="#3e646a"
       d="m 189.465,452.91 c -1.505,0.246 -2.616,0.643 -3.96,1.361 3.297,3.737 -1.459,20.167 3.476,24.44 1.376,1.192 3.019,1.057 4.718,0.931 0.19,-2.575 -2.719,-6.243 -3.246,-9.02 -1.093,-5.76 0.008,-11.919 -0.988,-17.712 z"
       id="path103" />
    <path
       d="m 392.411,479.555 c -6.829,0.521 -12.466,1.088 -17.202,6.614 -2.466,2.878 -3.768,6.449 -3.503,10.25 0.371,5.333 3.557,8.91 7.479,12.147 l 0.195,0.158 c 1.157,-1.164 1.044,-1.119 1.079,-2.776 -2.429,-2.265 -4.704,-4.386 -5.381,-7.792 -0.669,-3.364 0.225,-6.595 2.238,-9.332 3.298,-4.482 7.772,-5.928 13.003,-6.837 0.784,-0.674 1.432,-1.631 2.092,-2.432 z"
       id="path104" />
    <path
       fill="#70381d"
       d="m 175.265,440.351 -1.055,-0.36 c -0.651,4.101 -1.969,9.24 -0.895,13.298 3.582,-0.742 4.181,-2.647 9.103,-2.773 l 0.517,1.444 0.797,0.726 1.773,1.585 c 1.344,-0.718 2.455,-1.115 3.96,-1.361 l 1.516,0.17 c 1.203,-1.435 3.028,-1.108 4.643,-2.05 0.266,-1.506 -0.152,-2.429 -0.689,-3.798 -1.902,0.269 -3.923,0.708 -5.843,0.627 -4.384,-1.227 -10.088,-0.011 -13.744,-2.527 -0.814,-1.878 -0.38,-3.032 -0.083,-4.981 z"
       id="path105" />
    <path
       fill="#70381d"
       d="m 194.935,447.232 c -1.902,0.269 -3.923,0.708 -5.843,0.627 l 0.746,1.4 c -2.502,0.167 -5.498,-0.595 -7.42,1.257 l 0.517,1.444 0.797,0.726 1.773,1.585 c 1.344,-0.718 2.455,-1.115 3.96,-1.361 l 1.516,0.17 c 1.203,-1.435 3.028,-1.108 4.643,-2.05 0.266,-1.506 -0.152,-2.429 -0.689,-3.798 z"
       id="path106" />
    <path
       fill="#9d3422"
       d="m 183.732,452.686 c 2.154,-0.701 4.115,-0.252 6.266,-1.106 0.704,-0.969 0.803,-1.051 0.83,-2.235 l -0.99,-0.086 c -2.502,0.167 -5.498,-0.595 -7.42,1.257 l 0.517,1.444 z"
       id="path107" />
    <path
       fill="#28557a"
       d="m 67.104,278.757 c -0.012,0.263 -0.031,0.526 -0.037,0.789 -0.044,1.985 0.95,4.328 1.537,6.223 -0.938,-2.063 -1.825,-4.141 -3.012,-6.076 l -0.315,0.918 c 3.711,10.262 6.814,14.399 3.097,25.404 -5.244,0.079 -10.914,-0.068 -16.013,1.226 -9.56,1.832 -15.907,5.491 -22.735,12.405 l 1.264,0.572 c 3.418,-2.903 6.785,-5.649 10.765,-7.753 10.437,-5.52 20.784,-6.193 31.916,-2.689 0.447,-0.262 0.645,-0.547 0.969,-0.944 l -1.061,-1.102 c -0.17,-0.129 -0.369,-0.226 -0.51,-0.387 -0.947,-1.082 -0.393,-3.109 -0.242,-4.464 0.896,-7.984 -2.091,-17.055 -5.623,-24.122 z"
       id="path108" />
    <path
       fill="#3e646a"
       d="m 182.418,450.516 c -4.922,0.126 -5.521,2.031 -9.103,2.773 1.05,5.996 -1.286,12.766 -0.627,18.975 0.186,1.744 0.311,2.771 1.659,3.869 l 0.823,-0.393 c 1.142,-4.422 -0.525,-10.531 -0.529,-15.214 -0.002,-2.182 -0.19,-5.263 1.416,-6.851 l 1.774,0.052 0.892,1.044 c -0.081,2.219 -0.003,4.501 -0.694,6.628 -0.216,-2.199 -0.452,-4.331 -0.939,-6.493 -2.648,4.061 0.859,8.835 0.86,12.876 0,2.687 -0.669,5.469 -0.881,8.157 -0.105,1.331 -0.189,2.387 0.691,3.408 l 1.309,-0.29 c 3.8,-3.869 1.59,-17.193 1.879,-22.628 0.114,-2.143 0.362,-3.017 1.987,-4.469 z"
       id="path109" />
    <path
       fill="#5c868c"
       d="m 144.647,352.649 c -0.673,1.346 -0.949,2.116 -2.494,2.659 -6,2.112 -18.293,4.092 -24.062,1.563 l -1.444,2.075 c 2.473,2.753 7.2,5.233 10.255,7.498 4.561,3.382 8.962,7.041 13.423,10.56 l -1.517,0.1 1.802,0.095 0.274,-0.277 -0.143,-1.013 c -2.942,-4.224 -8.656,-7.697 -12.85,-10.704 5.767,-3.944 11.099,-5.688 17.359,-8.439 l 0.353,-0.158 z"
       id="path110" />
    <path
       fill="#3e646a"
       d="m 118.091,356.871 c -12.471,-5.916 -16.796,-10.901 -23.537,-22.83 -2.573,-4.553 -5.229,-9.104 -7.627,-13.752 -1.298,-2.516 -2.031,-5.329 -3.453,-7.777 -2.163,-3.723 -6.172,-3.933 -9.995,-4.782 l 1.061,1.102 c -0.324,0.397 -0.522,0.682 -0.969,0.944 1.574,0.892 3.493,1.84 4.728,3.178 3.993,4.322 6.539,11.188 9.272,16.367 3.204,6.071 7.392,12.425 12.012,17.525 4.835,5.337 11.416,7.881 17.064,12.1 z"
       id="path111" />
    <path
       d="m 376.439,531.067 c -1.619,-3.178 -2.341,-7.6 -4.488,-10.363 l -0.578,0.525 c 0.991,3.849 2.788,13.279 6.526,15.392 0.724,0.409 1.479,0.75 2.24,1.081 3.022,6.125 -4.451,11.317 7.578,15.56 2.471,0.872 5.297,1.177 7.89,1.5 1.606,0.208 3.171,0.336 4.79,0.374 l 1.827,-0.213 q 1.618,-0.41 3.246,-0.778 l -0.073,-0.561 -4.301,-1.951 -0.167,-1.324 1.499,-0.608 c -5.577,-1.89 -15.77,-4.456 -18.785,-9.832 -0.679,-1.211 -0.551,-1.39 -0.194,-2.649 -0.04,-0.229 -0.063,-0.461 -0.12,-0.687 -0.438,-1.765 -5.26,-4.348 -6.89,-5.466 z"
       id="path112" />
    <path
       fill="#89a298"
       d="m 65.277,280.611 c -2.939,-4.224 -5.045,-7.79 -9.341,-10.806 0.415,7.512 1.743,16.198 0.241,23.572 -0.959,4.704 -2.901,9.122 -3.816,13.864 5.099,-1.294 10.769,-1.147 16.013,-1.226 3.717,-11.005 0.614,-15.142 -3.097,-25.404 z"
       id="path113" />
    <path
       d="m 246.448,565.977 c -3.558,-0.228 -6.038,-0.589 -9.186,1.374 -1.976,1.231 -3.438,2.929 -3.835,5.276 -0.429,2.539 0.289,5.038 1.78,7.108 3.371,4.682 9.488,6.562 14.894,7.486 3.409,-0.195 7.556,-0.602 10.462,-2.546 1.569,-1.05 2.707,-2.495 3.039,-4.381 0.377,-2.139 -0.55,-4.335 -1.78,-6.041 -3.663,-5.081 -9.378,-7.473 -15.374,-8.276 z"
       id="path114" />
    <path
       fill="#050834"
       d="m 435.701,541.176 c -1.502,-1.059 -2.805,-1.879 -4.669,-2.117 -5.403,-0.69 -11.377,1.234 -16.893,1.204 -5.473,-0.029 -10.901,-1.741 -16.36,-1.717 -3.784,0.016 -6.702,2.635 -10.423,0.698 -0.879,-1.092 -1.206,-1.216 -1.201,-2.66 l -0.456,-0.76 c -0.75,0.583 -1.339,1.088 -2.25,1.396 -0.357,1.259 -0.485,1.438 0.194,2.649 3.015,5.376 13.208,7.942 18.785,9.832 l -1.499,0.608 0.167,1.324 4.301,1.951 0.073,0.561 q -1.628,0.368 -3.246,0.778 c 6.382,-0.02 12.421,-0.123 18.677,1.355 3.877,0.916 7.567,2.35 11.501,3.046 l -1.196,-1.461 c -3.9,-0.151 -7.163,-1.695 -10.6,-3.394 5.821,-3.841 11.622,-7.013 15.095,-13.293 z"
       id="path115" />
    <path
       fill="#5c868c"
       d="m 124.827,537.078 c -10.423,-18.181 -16.496,-52.686 -15.229,-73.245 0.432,-7.007 3.733,-15.743 2.412,-22.507 -0.208,-1.063 -0.184,-1.27 -1.113,-1.877 -1.261,2.839 -0.621,8.1 -1.038,11.382 -0.512,0.555 -0.427,0.687 -1.252,0.75 -6.289,0.482 -38.095,-21.724 -44.946,-27.089 l -0.928,1.453 c 0.136,0.199 0.268,0.4 0.408,0.596 5.439,7.548 43.248,25.726 44.519,27.958 0.423,0.742 -0.389,7.83 -0.456,9.395 -0.407,9.544 -0.533,19.346 0.216,28.873 q 0.38,4.926 1.176,9.803 0.796,4.877 2.001,9.668 1.206,4.792 2.812,9.465 1.606,4.673 3.602,9.193 c 4.029,4.88 7.065,10.41 11.224,15.167 q 1.025,2.002 2.091,3.982 c 1.195,3.428 1.598,6.17 -0.02,9.619 -1.374,2.93 -4.133,5.587 -6.349,7.924 l 0.734,0.883 c 3.749,-2.462 7.294,-5.009 10.802,-7.808 7.233,7.748 13.121,15.898 22.592,21.192 l 0.499,-1.308 c -2.443,-2.063 -5.129,-3.756 -7.502,-5.949 -12.67,-11.707 -17.157,-23.8 -26.255,-37.52 z"
       id="path116" />
    <path
       d="m 245.424,520.838 c -4.154,-0.208 -8.217,-0.018 -11.979,1.986 -3.538,1.885 -6.006,4.922 -7.074,8.787 -1.001,3.619 -0.765,7.759 1.317,10.966 2.413,3.716 6.327,5.212 10.473,6.005 3.355,0.165 6.424,-0.043 9.65,-1.041 3.978,-1.231 7.709,-3.722 9.582,-7.547 q 0.255,-0.514 0.457,-1.052 0.202,-0.538 0.349,-1.093 0.146,-0.555 0.236,-1.123 0.089,-0.567 0.121,-1.141 0.031,-0.573 0.005,-1.147 -0.027,-0.573 -0.112,-1.142 -0.085,-0.568 -0.227,-1.124 -0.142,-0.557 -0.339,-1.096 c -2.076,-5.631 -7.34,-8.069 -12.459,-10.238 z"
       id="path117" />
    <path
       d="m 244.497,442.68 -1.014,1.32 c -0.023,2.948 -0.172,5.96 -0.005,8.9 -10.271,-6.206 -19.834,-0.404 -33.934,-7.814 -1.162,1.242 -2.063,2.466 -2.997,3.885 -0.451,0.685 -0.249,0.427 -0.916,1.003 0.659,1.344 1.13,1.565 2.332,2.403 2.007,1.072 3.311,1.36 5.574,1.36 0.544,-0.001 1.079,-0.002 1.623,-0.019 l 1.337,0.888 c 1.527,0.157 1.785,0.027 2.927,1.134 1.43,7.563 -3.126,13.354 3.636,19.84 0.151,0.799 0.359,1.606 0.37,2.42 0.347,0.386 0.798,0.693 1.204,1.017 l 0.635,-0.581 c 0.327,-2.484 0.198,-4.971 0.128,-7.467 l 0.249,0.697 c 0.822,2.34 1.072,4.158 0.983,6.626 l 0.368,0.467 1.962,-2.58 c -0.59,2.636 -0.914,5.669 -2.866,7.671 1.225,2.101 2.394,4.493 3.901,6.402 3.007,3.812 6.825,5.821 11.605,6.366 4.579,0.522 9.182,-0.014 12.852,-3.075 3.224,-2.69 5.048,-6.709 5.39,-10.854 0.372,-4.501 -0.913,-9.385 -3.997,-12.763 -2.779,-3.045 -6.239,-4.025 -10.221,-4.115 -0.863,-0.019 -0.773,-0.069 -1.431,-0.525 0.699,-7.926 1.25,-14.698 0.305,-22.606 z"
       id="path118" />
    <path
       fill="#c2cdb0"
       d="m 242.665,455.731 c -1.686,0.885 -2.441,1.1 -3.012,3.051 -0.548,1.87 -0.438,4.405 -0.545,6.38 l 1.481,0.433 0.867,-0.575 c 1.146,-2.42 2.088,-6.727 1.209,-9.289 z"
       id="path119" />
    <path
       fill="#c2cdb0"
       d="m 238.465,465.251 c 0.265,-2.021 0.368,-4.004 -0.176,-5.997 -0.353,-1.292 -0.676,-1.788 -1.816,-2.448 -1.017,0.451 -1.353,1.102 -1.963,1.99 -1.372,3.646 1.917,10.291 1.845,14.857 1.126,-0.856 1.314,-2.486 1.515,-3.866 0.222,-1.511 0.315,-3.034 0.595,-4.536 z"
       id="path120" />
    <path
       fill="#c2cdb0"
       d="m 229.085,456.591 c -0.681,0.034 -1.59,-0.173 -2.043,0.411 -1.815,2.34 -1.702,10.849 -1.645,13.967 l 0.249,0.697 c 0.822,2.34 1.072,4.158 0.983,6.626 l 0.368,0.467 1.962,-2.58 c 0.288,-0.484 0.548,-0.94 0.77,-1.46 2.739,-6.422 1.733,-11.776 -0.644,-18.128 z"
       id="path121" />
    <path
       fill="#6e0300"
       d="m 243.478,452.9 c -10.271,-6.206 -19.834,-0.404 -33.934,-7.814 -1.162,1.242 -2.063,2.466 -2.997,3.885 -0.451,0.685 -0.249,0.427 -0.916,1.003 0.659,1.344 1.13,1.565 2.332,2.403 2.007,1.072 3.311,1.36 5.574,1.36 0.544,-0.001 1.079,-0.002 1.623,-0.019 l 1.337,0.888 c 1.527,0.157 1.785,0.027 2.927,1.134 1.43,7.563 -3.126,13.354 3.636,19.84 0.151,0.799 0.359,1.606 0.37,2.42 0.347,0.386 0.798,0.693 1.204,1.017 l 0.635,-0.581 c 0.327,-2.484 0.198,-4.971 0.128,-7.467 -0.057,-3.118 -0.17,-11.627 1.645,-13.967 0.453,-0.584 1.362,-0.377 2.043,-0.411 1.597,-0.35 3.335,-0.286 4.765,0.595 0.712,0.438 0.542,0.852 0.66,1.61 0.61,-0.888 0.946,-1.539 1.963,-1.99 1.14,0.66 1.463,1.156 1.816,2.448 0.544,1.993 0.441,3.976 0.176,5.997 l 0.643,-0.089 c 0.107,-1.975 -0.003,-4.51 0.545,-6.38 0.571,-1.951 1.326,-2.166 3.012,-3.051 0.637,-0.857 0.672,-1.806 0.813,-2.831 z"
       id="path122" />
    <path
       fill="#c3cab8"
       d="m 224.225,455.281 c -1.353,0.031 -2.322,-0.037 -3.463,0.806 -1.951,4.436 0.077,9.644 1.54,13.973 l 0.298,0.501 0.76,-0.166 c 1.114,-4.715 1.016,-10.298 0.865,-15.114 z"
       id="path123" />
    <path
       fill="url(#gradient_5)"
       d="m 417.815,481.426 c 1.921,-2.437 4.063,-4.729 6.779,-6.287 6.526,-3.746 15.396,-1.245 22.248,0.416 l -0.178,-0.57 1.042,0.591 c -1.209,-1.539 -6.319,-2.198 -8.268,-2.607 -10.212,-2.14 -15.846,0.877 -24.205,6.35 l 1.609,1.271 c -1.717,0.836 -3.398,-1.812 -4.219,-3.037 -2.483,-3.704 -4.344,-7.793 -7.371,-11.12 -3.787,-4.163 -9.352,-6.468 -13.546,-10.267 -2.625,-2.377 -5.421,-7.424 -8.695,-8.445 l -0.258,0.682 c 2.66,3.181 5.306,6.395 8.345,9.226 3.138,2.923 6.566,5.389 9.579,8.472 -0.851,4.275 -2.156,8.352 -2.597,12.718 -1.764,0.183 -4.018,0.145 -5.669,0.736 -0.66,0.801 -1.308,1.758 -2.092,2.432 -5.231,0.909 -9.705,2.355 -13.003,6.837 -2.013,2.737 -2.907,5.968 -2.238,9.332 0.677,3.406 2.952,5.527 5.381,7.792 -0.035,1.657 0.078,1.612 -1.079,2.776 -3.324,1.435 -6.323,3.765 -7.727,7.214 -0.714,1.754 -0.932,3.503 -0.28,5.291 l 0.578,-0.525 c 2.147,2.763 2.869,7.185 4.488,10.363 1.63,1.118 6.452,3.701 6.89,5.466 0.057,0.226 0.08,0.458 0.12,0.687 0.911,-0.308 1.5,-0.813 2.25,-1.396 l 0.456,0.76 c -0.005,1.444 0.322,1.568 1.201,2.66 3.721,1.937 6.639,-0.682 10.423,-0.698 5.459,-0.024 10.887,1.688 16.36,1.717 5.516,0.03 11.49,-1.894 16.893,-1.204 1.864,0.238 3.167,1.058 4.669,2.117 4.919,-9.251 4.532,-21.443 2.491,-31.408 -2.797,-13.663 -9.049,-20.911 -20.377,-28.342 z"
       id="path124"
       style="fill:url(#gradient_5)" />
    <path
       fill="#0b0412"
       d="m 410.077,481.005 1.162,-0.209 0.242,-0.674 c -0.258,-0.263 -0.504,-0.531 -0.802,-0.752 -1.561,-1.159 -2.424,-0.798 -4.265,-0.677 l -3.511,-0.075 -3.888,0.03 -0.935,0.171 c -1.764,0.183 -4.018,0.145 -5.669,0.736 -0.66,0.801 -1.308,1.758 -2.092,2.432 6.568,-0.347 13.224,-0.231 19.758,-0.982 z"
       id="path125" />
    <path
       d="m 410.077,481.005 1.162,-0.209 0.242,-0.674 c -0.258,-0.263 -0.504,-0.531 -0.802,-0.752 -1.561,-1.159 -2.424,-0.798 -4.265,-0.677 l -3.511,-0.075 c -1.316,0.357 -2.497,0.535 -3.43,1.612 2.347,1.291 7.72,0.468 10.604,0.775 z"
       id="path126" />
    <path
       fill="#89a298"
       d="m 406.414,478.693 c 0.886,-1.615 1.916,-2.793 1.435,-4.737 -0.611,-2.467 -2.411,-5.829 -4.337,-7.513 l -0.887,-0.224 c -1.927,3.227 -2.217,8.655 -3.61,12.429 l 3.888,-0.03 z"
       id="path127" />
    <path
       fill="#0b0412"
       d="m 380.459,505.948 c -0.035,1.657 0.078,1.612 -1.079,2.776 -3.324,1.435 -6.323,3.765 -7.727,7.214 -0.714,1.754 -0.932,3.503 -0.28,5.291 l 0.578,-0.525 c 2.147,2.763 2.869,7.185 4.488,10.363 1.63,1.118 6.452,3.701 6.89,5.466 0.057,0.226 0.08,0.458 0.12,0.687 0.911,-0.308 1.5,-0.813 2.25,-1.396 -4.993,-3.119 -8.874,-5.673 -10.555,-11.621 -0.924,-3.27 -1.027,-6.898 0.79,-9.888 2.173,-3.577 5.1,-3.936 8.885,-4.862 -1.493,-1.109 -2.916,-2.334 -4.36,-3.505 z"
       id="path128" />
    <path
       d="m 166.841,296.59 -1.817,1.198 c -3.354,3.387 -7.049,6.739 -9.335,10.974 0.231,4.137 0.472,10.918 2.726,14.502 0.968,0.763 1.516,1.245 2.813,1.287 l 0.97,-1.089 c 1.433,2.071 2.801,4.189 4.515,6.042 -1.176,0.008 -2.609,-0.187 -3.68,0.305 -4.299,3.189 -7.668,5.352 -8.492,11.059 -0.414,2.872 -0.195,5.789 -0.637,8.682 -0.499,4.075 -1.158,6.867 1.563,10.313 2.741,3.47 9.021,6.07 12.912,8.403 -1.442,0.567 -2.705,0.832 -3.72,2.044 7.332,3.917 14.973,6.708 22.773,9.542 q -2.794,13.073 -6.105,26.025 c -2.883,11.213 -6.3,22.52 -7.117,34.114 l 1.055,0.36 c -0.297,1.949 -0.731,3.103 0.083,4.981 3.656,2.516 9.36,1.3 13.744,2.527 1.92,0.081 3.941,-0.358 5.843,-0.627 l 5.687,-1.613 1.067,-0.629 c 1.268,1.706 2.503,3.415 3.942,4.984 0.667,-0.576 0.465,-0.318 0.916,-1.003 0.934,-1.419 1.835,-2.643 2.997,-3.885 14.1,7.41 23.663,1.608 33.934,7.814 -0.167,-2.94 -0.018,-5.952 0.005,-8.9 l 1.014,-1.32 c 0.15,-1.287 -0.194,-2.582 -0.422,-3.846 4.626,-0.147 8.752,-0.747 12.61,-3.5 5.596,-3.993 6.928,-9.921 7.979,-16.295 -1.866,-2.924 -3.739,-5.681 -6.576,-7.752 -4.966,-3.626 -10.389,-4.255 -16.305,-3.289 -0.314,-6.771 -1.55,-13.653 -2.263,-20.411 9.478,1.11 18.994,3.109 28.518,3.629 13.584,0.741 41.475,-1.808 54.762,-4.71 8.21,-1.793 16.5,-4.59 24.37,-7.532 7.881,-1.228 16.059,-6.299 23.146,-9.905 1.037,-0.221 2.368,-0.16 3.441,-0.22 -0.41,-2.267 0.689,-3.827 1.052,-6.029 1.296,-7.876 -3.093,-15.762 -7.476,-21.964 l -0.142,-0.844 c -1.338,-0.985 -2.474,-2.195 -3.647,-3.366 1.153,-6.216 1.584,-15.164 0.267,-21.375 -0.995,-4.691 -3.177,-7.182 -7.084,-9.735 l -2.202,-1.393 -1.466,-0.524 c -11.569,23.036 -15.068,25.937 -39.873,34.032 -4.794,1.565 -9.839,2.21 -14.667,3.636 -5.366,1.586 -10.459,3.996 -15.845,5.519 -9.462,2.676 -27.035,4.33 -36.852,2.082 -0.677,-1.483 -0.757,-3.778 -1.751,-4.953 -1.958,-2.312 -18.497,-8.18 -21.943,-9.467 -2.311,-0.863 -4.649,-1.777 -7.038,-2.395 -6.065,-0.269 -11.847,-0.152 -17.87,0.595 -8.732,-4.736 -15.665,-11.206 -21.922,-18.818 -4.209,-5.117 -6.662,-10.922 -8.457,-17.26 z"
       id="path129" />
    <path
       fill="#28557a"
       d="m 166.841,296.59 -1.817,1.198 c -3.354,3.387 -7.049,6.739 -9.335,10.974 0.231,4.137 0.472,10.918 2.726,14.502 0.968,0.763 1.516,1.245 2.813,1.287 l 0.97,-1.089 c 1.433,2.071 2.801,4.189 4.515,6.042 6.277,6.649 14.725,10.853 19.712,16.178 1.309,0.511 1.834,0.522 3.214,0.26 0.519,-0.476 1.359,-0.848 1.976,-1.2 0.159,-0.091 0.322,-0.175 0.48,-0.266 2.077,-1.199 3.998,-3.746 4.53,-6.103 1.31,-5.797 -11.516,-9.781 -15.224,-13.15 -1.215,-1.105 -1.83,-2.529 -2.789,-3.814 -3.113,-4.168 -3.466,-0.888 -7.145,-1.317 l 0.441,-1.18 c 1.822,-1.32 2.425,-2.075 2.977,-4.188 l 0.413,-0.874 c -4.209,-5.117 -6.662,-10.922 -8.457,-17.26 z"
       id="path130" />
    <path
       fill="#0b0412"
       d="m 166.841,296.59 -1.817,1.198 c -3.354,3.387 -7.049,6.739 -9.335,10.974 0.231,4.137 0.472,10.918 2.726,14.502 0.968,0.763 1.516,1.245 2.813,1.287 l 0.97,-1.089 c -0.947,-2.235 -1.86,-4.663 -2.136,-7.09 -0.731,-6.435 1.659,-11.698 5.533,-16.673 2.28,5.929 4.663,10.6 9.29,15.025 l 0.413,-0.874 c -4.209,-5.117 -6.662,-10.922 -8.457,-17.26 z"
       id="path131" />
    <path
       fill="url(#gradient_6)"
       d="m 166.713,329.504 c -1.176,0.008 -2.609,-0.187 -3.68,0.305 -4.299,3.189 -7.668,5.352 -8.492,11.059 -0.414,2.872 -0.195,5.789 -0.637,8.682 -0.499,4.075 -1.158,6.867 1.563,10.313 2.741,3.47 9.021,6.07 12.912,8.403 q 9.883,5.085 19.504,10.65 c 1.097,-5.231 2.055,-10.434 2.816,-15.725 l 0.526,-0.645 -0.334,-3.07 c 0.117,-3.864 1.906,-9.093 0.537,-12.742 l -1.789,-0.792 c -1.38,0.262 -1.905,0.251 -3.214,-0.26 -4.987,-5.325 -13.435,-9.529 -19.712,-16.178 z"
       id="path132"
       style="fill:url(#gradient_6)" />
    <path
       fill="#050834"
       d="m 159.11,345.354 c -0.485,1.978 -0.215,3.114 0.818,4.927 1.096,1.924 2.551,3.601 3.996,5.266 3.626,1.147 22.404,5.557 25.592,5.653 1.004,0.731 0.918,0.761 1.183,1.991 l 0.526,-0.645 -0.334,-3.07 c -0.541,0.624 -0.971,0.684 -1.733,0.952 -6.312,-0.643 -24.706,-10.855 -30.048,-15.074 z"
       id="path133" />
    <path
       fill="url(#gradient_7)"
       d="m 166.713,329.504 c -1.176,0.008 -2.609,-0.187 -3.68,0.305 -4.299,3.189 -7.668,5.352 -8.492,11.059 -0.414,2.872 -0.195,5.789 -0.637,8.682 0.621,-1.885 1.802,-3.574 3.132,-5.024 0.455,-0.496 0.609,-0.343 1.25,-0.369 l 0.824,1.197 c 5.342,4.219 23.736,14.431 30.048,15.074 0.762,-0.268 1.192,-0.328 1.733,-0.952 0.117,-3.864 1.906,-9.093 0.537,-12.742 l -1.789,-0.792 c -1.38,0.262 -1.905,0.251 -3.214,-0.26 -4.987,-5.325 -13.435,-9.529 -19.712,-16.178 z"
       id="path134"
       style="fill:url(#gradient_7)" />
    <path
       fill="#050834"
       d="m 166.713,329.504 c -1.176,0.008 -2.609,-0.187 -3.68,0.305 6.461,7.728 13.764,12.751 23.392,15.873 -4.987,-5.325 -13.435,-9.529 -19.712,-16.178 z"
       id="path135" />
    <path
       fill="#28557a"
       d="m 370.316,369.069 c 1.037,-0.221 2.368,-0.16 3.441,-0.22 -0.41,-2.267 0.689,-3.827 1.052,-6.029 1.296,-7.876 -3.093,-15.762 -7.476,-21.964 -1.875,0.433 -16.153,12.7 -19.755,15.112 l -1.131,-0.328 -1.255,-2.343 c -1.792,1.468 -3.61,3.171 -5.543,4.432 -27.614,15.004 -35.946,18.433 -68.277,14.152 -7.373,-0.977 -15.016,-2.824 -22.443,-2.943 l -2.084,1.394 c -2.526,-0.483 -5.088,-0.905 -7.592,-1.485 -1.135,6.069 -1.838,11.837 -1.847,18.033 8.249,-1.567 17.742,1.637 26.081,2.332 16.732,1.396 43.211,-0.757 59.364,-5.462 2.107,-0.295 3.831,-0.821 5.812,-1.582 5.666,-0.621 13.008,-4.243 18.507,-3.194 7.881,-1.228 16.059,-6.299 23.146,-9.905 z"
       id="path136" />
    <path
       fill="#1a3168"
       d="m 328.663,382.168 c 6.658,-5.887 14.799,-7.981 18.416,-17.685 0.512,-1.375 0.342,-1.944 -0.241,-3.235 -1.605,-1.121 -2.601,-1.611 -4.573,-1.689 -1.939,1.168 -4.098,2.268 -5.882,3.646 0.192,0.01 0.384,0.021 0.576,0.028 3,0.106 6.566,-1.177 9.339,-0.584 -0.225,1.428 -0.75,2.073 -1.914,2.997 -2.221,1.762 -5.207,2.344 -7.441,4.087 -3.278,2.557 -5.78,6.391 -8.702,9.362 -1.681,1.71 -3.717,2.98 -5.39,4.655 2.107,-0.295 3.831,-0.821 5.812,-1.582 z"
       id="path137" />
    <path
       fill="#050834"
       d="m 345.192,353.297 c -1.792,1.468 -3.61,3.171 -5.543,4.432 -27.614,15.004 -35.946,18.433 -68.277,14.152 -7.373,-0.977 -15.016,-2.824 -22.443,-2.943 l -2.084,1.394 c 17.515,2.141 43.125,6.735 60.031,3.408 10.009,-1.97 20.174,-6.483 29.507,-10.535 1.784,-1.378 3.943,-2.478 5.882,-3.646 1.302,-1.323 3.763,-2.422 5.313,-3.591 l -1.131,-0.328 z"
       id="path138" />
    <path
       fill="#050834"
       d="m 370.316,369.069 c 1.037,-0.221 2.368,-0.16 3.441,-0.22 -0.41,-2.267 0.689,-3.827 1.052,-6.029 1.296,-7.876 -3.093,-15.762 -7.476,-21.964 -1.875,0.433 -16.153,12.7 -19.755,15.112 -1.55,1.169 -4.011,2.268 -5.313,3.591 1.972,0.078 2.968,0.568 4.573,1.689 0.583,1.291 0.753,1.86 0.241,3.235 -3.617,9.704 -11.758,11.798 -18.416,17.685 5.666,-0.621 13.008,-4.243 18.507,-3.194 7.881,-1.228 16.059,-6.299 23.146,-9.905 z"
       id="path139" />
    <path
       fill="#28557a"
       d="m 363.544,336.646 c 1.153,-6.216 1.584,-15.164 0.267,-21.375 -0.995,-4.691 -3.177,-7.182 -7.084,-9.735 -3.219,8.207 -6.723,13.475 -12.761,19.935 -9.25,7.211 -21.243,12.519 -32.724,15.064 -5.149,1.141 -10.593,1.574 -15.638,3.103 -6.991,2.118 -13.076,5.824 -20.487,6.652 -10.165,1.135 -20.4,-0.333 -30.477,0.573 -2.038,5.185 -4.162,10.325 -5.381,15.779 3.216,0.986 6.356,1.723 9.67,2.296 7.427,0.119 15.07,1.966 22.443,2.943 32.331,4.281 40.663,0.852 68.277,-14.152 1.933,-1.261 3.751,-2.964 5.543,-4.432 l 1.255,2.343 1.131,0.328 c 3.602,-2.412 17.88,-14.679 19.755,-15.112 l -0.142,-0.844 c -1.338,-0.985 -2.474,-2.195 -3.647,-3.366 z"
       id="path140" />
    <path
       fill="#050834"
       d="m 363.544,336.646 c 1.153,-6.216 1.584,-15.164 0.267,-21.375 -0.995,-4.691 -3.177,-7.182 -7.084,-9.735 -3.219,8.207 -6.723,13.475 -12.761,19.935 1.171,-0.529 2.304,-1.16 3.603,-1.252 0.282,4.196 -3.285,8.618 -5.908,11.593 -7.169,8.128 -14.728,10.564 -21.74,17.272 2.376,-0.258 19.242,-3.019 19.597,-2.879 0.249,0.098 0.434,0.314 0.652,0.471 0.592,2.265 0.025,4.805 -0.521,7.053 1.933,-1.261 3.751,-2.964 5.543,-4.432 l 1.255,2.343 1.131,0.328 c 3.602,-2.412 17.88,-14.679 19.755,-15.112 l -0.142,-0.844 c -1.338,-0.985 -2.474,-2.195 -3.647,-3.366 z"
       id="path141" />
    <path
       d="m 363.544,336.646 -1.973,-0.092 c -1.531,1.782 -2.634,3.782 -4.052,5.64 -3.553,4.653 -7.606,7.752 -12.327,11.103 l 1.255,2.343 1.131,0.328 c 3.602,-2.412 17.88,-14.679 19.755,-15.112 l -0.142,-0.844 c -1.338,-0.985 -2.474,-2.195 -3.647,-3.366 z"
       id="path142" />
    <path
       fill="#28557a"
       d="m 211.473,333.252 -6.936,0.351 c -9.437,7.667 -10.914,21.434 -12.131,32.808 l -0.06,0.584 c -0.553,10.571 -3.934,19.325 -6.666,29.401 -3.845,14.177 -7.807,28.972 -10.184,43.466 l -0.231,0.489 c -0.297,1.949 -0.731,3.103 0.083,4.981 3.656,2.516 9.36,1.3 13.744,2.527 1.92,0.081 3.941,-0.358 5.843,-0.627 l 5.687,-1.613 1.067,-0.629 c 1.268,1.706 2.503,3.415 3.942,4.984 0.667,-0.576 0.465,-0.318 0.916,-1.003 0.934,-1.419 1.835,-2.643 2.997,-3.885 14.1,7.41 23.663,1.608 33.934,7.814 -0.167,-2.94 -0.018,-5.952 0.005,-8.9 l 1.014,-1.32 c 0.15,-1.287 -0.194,-2.582 -0.422,-3.846 -1.085,-1.739 -1.498,-4.497 -2.056,-6.483 -4.561,-16.223 -9.325,-47.374 -6.409,-63.772 1.15,-6.466 5.097,-12.45 6.186,-18.958 0.309,-1.847 0.49,-3.348 -0.618,-4.929 -5.363,-4.02 -23.012,-10.75 -29.705,-11.44 z"
       id="path143" />
    <path
       fill="#c3cab8"
       d="m 243.483,444 c -6.863,0.085 -14.117,0.879 -20.877,-0.567 -5.215,-1.115 -10.44,-3.825 -15.744,-4.216 -6.035,-0.445 -11.852,1.945 -17.859,2.219 -4.462,0.203 -9.018,-1.368 -13.507,-1.574 l -0.231,0.489 c -0.297,1.949 -0.731,3.103 0.083,4.981 3.656,2.516 9.36,1.3 13.744,2.527 1.92,0.081 3.941,-0.358 5.843,-0.627 l 5.687,-1.613 1.067,-0.629 c 1.268,1.706 2.503,3.415 3.942,4.984 0.667,-0.576 0.465,-0.318 0.916,-1.003 0.934,-1.419 1.835,-2.643 2.997,-3.885 14.1,7.41 23.663,1.608 33.934,7.814 -0.167,-2.94 -0.018,-5.952 0.005,-8.9 z"
       id="path144" />
    <path
       fill="#70381d"
       d="m 209.544,445.086 c -2.718,-0.605 -5.116,-0.366 -7.855,-0.096 1.268,1.706 2.503,3.415 3.942,4.984 0.667,-0.576 0.465,-0.318 0.916,-1.003 0.934,-1.419 1.835,-2.643 2.997,-3.885 z"
       id="path145" />
    <path
       fill="#c2cdb0"
       d="m 400.397,555.136 c -1.619,-0.038 -3.184,-0.166 -4.79,-0.374 -2.125,8.179 -14.282,17.091 -21.202,21.112 -16.029,9.314 -33.475,18.103 -51.413,22.97 -6.839,1.855 -14.803,1.666 -21.854,2.593 -6.176,0.812 -12.61,2.577 -18.81,2.814 -5.784,0.222 -11.812,-0.827 -17.612,-1.186 -7.884,-0.487 -15.814,-0.409 -23.686,-1.059 -6.654,-0.549 -13.254,-1.741 -19.899,-2.406 -5.784,-0.578 -13.003,-0.342 -18.52,-1.881 -6.159,-1.717 -12.18,-4.513 -18.111,-6.883 -8.639,-3.451 -17.32,-6.719 -25.916,-10.289 l -0.499,1.308 c -9.471,-5.294 -15.359,-13.444 -22.592,-21.192 -3.508,2.799 -7.053,5.346 -10.802,7.808 -17.103,12.855 -27.859,27.273 -36.657,46.677 -2.43,5.359 -4.126,11.37 -6.819,16.544 0.042,-5.479 3.787,-10.639 5.209,-15.841 -4.479,6.235 -6.413,13.387 -10.548,19.692 -8.806,22.934 -13.244,51.206 -10.416,75.756 1.007,8.741 3.191,17.637 5.377,26.148 2.177,8.471 4.467,16.649 8.034,24.668 12.792,28.757 19.313,39.834 41.825,61.942 2.298,2.257 4.875,5.136 7.559,6.887 2.148,1.401 28.43697,11.21871 30.07797,13.21371 66.96067,5.55696 128.93493,15.18171 221.75442,-0.35635 4.012,-4.031 20.80661,-13.37336 25.40361,-16.87536 14.868,-11.329 27.504,-25.646 34.601,-42.993 9.205,-13.38 14.87,-36.916 16.998,-53.001 4.919,-29.341 4.518,-44.469 0.94,-73.889 -0.571,-6.458 -2.084,-12.981 -2.964,-19.433 -1.151,-8.258 -3.325,-16.77 -7.549,-24.016 -1.637,-2.809 -3.705,-5.108 -5.106,-8.094 l -0.287,-0.62 c -1.443,-9.683 -9.705,-20.827 -15.7,-28.332 -4.533,-7.684 -11.225,-12.316 -18.757,-16.68 -2.466,-1.429 -5.223,-2.737 -7.27,-4.732 z"
       id="path146"
       sodipodi:nodetypes="ccscsccccccccccscccsccscccccccccccccc"
       style="fill:#dee5d6;fill-opacity:1" />
    <path
       fill="#3e646a"
       d="m 442.124,604.88 c -1.314,-1.22 -1.63,-2.938 -3.241,-3.904 l -0.685,0.834 c 5.871,11.037 10.034,22.805 13.423,34.808 l 0.8,-1.227 0.861,-0.02 1.784,2.239 c -1.151,-8.258 -3.325,-16.77 -7.549,-24.016 -1.637,-2.809 -3.705,-5.108 -5.106,-8.094 z"
       id="path147" />
    <path
       fill="#4b7881"
       d="m 426.424,576.548 c -3.832,-1.993 -4.472,-4.914 -9.303,-4.953 4.688,5.175 8.988,10.457 12.662,16.418 2.785,4.519 5.148,9.629 8.415,13.797 l 0.685,-0.834 c 1.611,0.966 1.927,2.684 3.241,3.904 -1.443,-9.683 -9.705,-20.827 -15.7,-28.332 z"
       id="path148" />
    <path
       fill="#3e646a"
       d="m 455.036,730.195 c -3.727,12.927 -6.44,27.213 -11.47,39.672 -2.394,5.929 -6.076,11.191 -8.683,16.973 l 0.497,0.243 c 1.921,-0.082 3.169,-1.954 4.712,-3.15 9.205,-13.38 14.87,-36.916 16.998,-53.001 -0.392,0.264 -0.829,0.326 -1.283,0.446 z"
       id="path149" />
    <path
       fill="#3e646a"
       d="m 455.066,637.61 -1.784,-2.239 -0.861,0.02 -0.8,1.227 c 1.735,7.571 3.341,15.211 4.298,22.925 0.203,8.33 1.349,16.625 1.747,24.95 q 0.527,11.463 -0.132,22.919 -0.66,11.456 -2.498,22.783 l 0.771,1.183 c 0.454,-0.12 0.891,-0.182 1.283,-0.446 4.919,-29.341 4.518,-44.469 0.94,-73.889 -0.571,-6.458 -2.084,-12.981 -2.964,-19.433 z"
       id="path150" />
    <path
       fill="#4b7881"
       d="m 440.092,783.933 c -1.543,1.196 -2.791,3.068 -4.712,3.15 l -0.497,-0.243 c -13.459,22.978 -33.133,41.015 -55.215,55.499 l 0.267,0.385 c 3.839,-1.151 7.166,-3.68 10.914,-4.923 4.012,-4.031 10.045,-7.373 14.642,-10.875 14.868,-11.329 27.504,-25.646 34.601,-42.993 z"
       id="path151" />
    <path
       fill="#5c868c"
       d="m 400.397,555.136 c -1.619,-0.038 -3.184,-0.166 -4.79,-0.374 -2.125,8.179 -14.282,17.091 -21.202,21.112 -16.029,9.314 -33.475,18.103 -51.413,22.97 -6.839,1.855 -14.803,1.666 -21.854,2.593 -6.176,0.812 -12.61,2.577 -18.81,2.814 -5.784,0.222 -11.812,-0.827 -17.612,-1.186 -7.884,-0.487 -15.814,-0.409 -23.686,-1.059 -6.654,-0.549 -13.254,-1.741 -19.899,-2.406 -5.784,-0.578 -13.003,-0.342 -18.52,-1.881 -6.159,-1.717 -12.18,-4.513 -18.111,-6.883 -8.639,-3.451 -17.32,-6.719 -25.916,-10.289 l -0.499,1.308 c 8.321,4.321 37.262,15.579 45.934,17.411 5.795,1.224 11.879,1.142 17.755,1.835 7.284,0.86 14.373,2.438 21.727,2.977 7.716,0.566 15.469,0.014 23.186,0.283 4.559,0.159 8.973,2.033 13.561,1.867 8.259,-0.299 16.517,-2.585 24.665,-3.841 4.389,-0.677 8.931,-0.313 13.335,-0.867 16.56,-2.087 54.393,-20.899 67.787,-31.582 4.756,-3.793 8.378,-8.228 12.04,-13.023 6.789,4.149 12.347,10.258 19.046,14.68 4.831,0.039 5.471,2.96 9.303,4.953 -4.533,-7.684 -11.225,-12.316 -18.757,-16.68 -2.466,-1.429 -5.223,-2.737 -7.27,-4.732 z"
       id="path152" />
    <path
       d="m 254.811,656.51 c -2.661,-0.207 -5.334,-0.317 -7.999,-0.466 l -0.767,0.402 c -4.759,2.51 -8.579,5.395 -10.113,10.897 -1.108,3.973 -0.734,8.714 1.347,12.315 2.583,4.471 6.714,6.416 11.473,7.66 3.791,0.309 7.766,-0.491 11.073,-2.411 q 0.714,-0.412 1.384,-0.893 0.67,-0.481 1.288,-1.025 0.619,-0.545 1.18,-1.149 0.562,-0.604 1.061,-1.26 0.499,-0.656 0.93,-1.359 0.431,-0.703 0.79,-1.445 0.36,-0.742 0.643,-1.516 0.284,-0.774 0.49,-1.572 c 0.949,-3.744 0.469,-7.672 -1.557,-10.981 -2.532,-4.138 -6.663,-6.197 -11.223,-7.197 z"
       id="path153" />
    <path
       d="m 262.03,721.177 q -0.988,-0.131 -1.982,-0.208 c -8.546,-0.702 -14.231,1.696 -20.671,7.119 -1.476,4.091 -2.479,8.983 -1.27,13.258 1.409,4.983 5.15,7.562 9.448,9.864 5.655,0.655 10.599,-0.272 16.098,-1.428 5.219,-4.546 6.654,-8.392 8.264,-15.049 q -0.357,-1.267 -0.785,-2.512 c -1.795,-5.177 -4.073,-8.578 -9.102,-11.044 z"
       id="path154" />
    <path
       fill="#5c868c"
       d="m 81.215,631.692 c 0.042,-5.479 3.787,-10.639 5.209,-15.841 -4.479,6.235 -6.413,13.387 -10.548,19.692 -8.806,22.934 -13.244,51.206 -10.416,75.756 1.007,8.741 3.191,17.637 5.377,26.148 2.177,8.471 4.467,16.649 8.034,24.668 12.792,28.757 19.313,39.834 41.825,61.942 2.298,2.257 4.875,5.136 7.559,6.887 2.148,1.401 5.65875,2.38103 7.29975,4.37603 l 3.37325,1.56497 c 9.089,1.915 14.916,8.416 24.967,9.404 -6.896,-3.437 -13.916,-6.762 -20.446,-10.868 -18.059,-11.356 -34.161,-28.108 -45.077,-46.409 -5.66,-9.49 -11.722,-19.76 -15.877,-29.987 -13.602,-33.48 -14.992,-72.118 -7.486,-107.179 1.441,-6.729 4.438,-12.998 6.087,-19.656 z"
       id="path155"
       sodipodi:nodetypes="cccsccsccccccsccc" />
  </g>
</svg>
