<?xml version="1.0" encoding="UTF-8" standalone="no"?>
<svg
   width="263.87604"
   height="400.00006"
   version="1.1"
   id="svg82"
   sodipodi:docname="swan.svg"
   inkscape:version="1.3.1 (9b9bdc1480, 2023-11-25, custom)"
   xmlns:inkscape="http://www.inkscape.org/namespaces/inkscape"
   xmlns:sodipodi="http://sodipodi.sourceforge.net/DTD/sodipodi-0.dtd"
   xmlns="http://www.w3.org/2000/svg"
   xmlns:svg="http://www.w3.org/2000/svg">
  <sodipodi:namedview
     id="namedview82"
     pagecolor="#ffffff"
     bordercolor="#999999"
     borderopacity="1"
     inkscape:showpageshadow="2"
     inkscape:pageopacity="0"
     inkscape:pagecheckerboard="0"
     inkscape:deskcolor="#d1d1d1"
     inkscape:zoom="4.1653009"
     inkscape:cx="189.78221"
     inkscape:cy="374.04261"
     inkscape:window-width="1920"
     inkscape:window-height="954"
     inkscape:window-x="0"
     inkscape:window-y="27"
     inkscape:window-maximized="1"
     inkscape:current-layer="g82" />
  <defs
     id="defs23">
    <linearGradient
       id="gradient_0"
       gradientUnits="userSpaceOnUse"
       x1="533.87885"
       y1="326.02216"
       x2="548.89966"
       y2="345.11856"
       gradientTransform="matrix(0.76874607,0,0,0.76874607,0.21948535,67.875404)">
      <stop
         offset="0"
         stop-color="#C17466"
         id="stop22" />
      <stop
         offset="1"
         stop-color="#D38F77"
         id="stop23" />
    </linearGradient>
  </defs>
  <defs
     id="defs46">
    <linearGradient
       id="gradient_1"
       gradientUnits="userSpaceOnUse"
       x1="254.98625"
       y1="907.54108"
       x2="233.62109"
       y2="923.13605">
      <stop
         offset="0"
         stop-color="#E0CABE"
         id="stop45" />
      <stop
         offset="1"
         stop-color="#EEE9E8"
         id="stop46" />
    </linearGradient>
  </defs>
  <g
     id="g82"
     transform="matrix(0.62883081,0.14203831,-0.14203831,0.62883081,-145.06537,-184.70312)">
    <path
       style="fill:#ffffff;fill-opacity:1;stroke-width:1.19246"
       d="m 473.58107,344.21247 6.45119,-46.36956 -8.24431,-27.6026 -21.28925,-7.66496 c 3.33258,11.39489 10.4985,20.82873 6.87648,35.78143 -9.68874,18.76122 -21.62354,27.57868 -33.87758,34.98282 -29.1875,-14.01239 -60.28305,-25.48549 -81.22524,-50.47091 l 17.71679,-45.85754 c 18.6493,-19.46906 39.5726,-32.74839 64.55196,-34.98737 l 48.62141,17.33134 c 18.22969,17.78694 29.76287,39.61231 40.76357,61.75881 l -4.68337,70.66718 -26.28369,59.34799 -65.9333,40.11148 -11.30126,-3.44502"
       id="path83"
       sodipodi:nodetypes="ccccccccccccccc" />
    <path
       fill="#040403"
       d="m 379.16518,242.88584 c 3.95059,-0.39668 7.75742,-0.43204 11.58731,0.75721 q 0.64882,0.20526 1.28611,0.44203 0.63806,0.23677 1.26305,0.5043 0.62499,0.26829 1.23615,0.56656 0.61115,0.29828 1.20693,0.62653 0.59578,0.32826 1.17541,0.68572 0.57887,0.3567 1.13928,0.74261 0.56042,0.38514 1.10085,0.79796 0.5412,0.41205 1.06087,0.851 0.51967,0.43896 1.01782,0.90251 0.49738,0.46355 0.97169,0.95171 0.47355,0.48738 0.92327,0.99783 0.44894,0.51122 0.87329,1.04319 0.42358,0.53197 0.82025,1.08393 0.39745,0.55273 0.76644,1.12391 0.369,0.57118 0.70956,1.16003 0.34055,0.58886 0.65189,1.19387 c -3.67922,-2.62835 -7.18085,-5.45579 -11.16757,-7.61674 -0.0938,-0.0484 -0.18604,-0.0992 -0.28136,-0.14529 -4.69781,-2.27703 -10.10517,-3.52932 -15.17812,-1.71046 -4.93843,1.77119 -4.74163,3.9552 -7.11936,7.73743 -0.58963,0.9371 -0.75799,0.96631 -1.76197,1.27765 -0.71801,-0.58117 -0.46816,-0.2091 -0.72185,-1.13543 l 0.33133,0.91865 c -0.0677,-0.11608 -0.16298,-0.21986 -0.20372,-0.34748 -0.63729,-2.00642 0.32518,-5.04066 1.08701,-6.89642 1.31532,-3.20106 4.14585,-5.19057 7.22544,-6.51281 z"
       id="path2"
       style="stroke-width:0.768746" />
    <path
       fill="#040403"
       d="m 385.31361,261.17507 c 3.81529,-0.28443 6.74037,0.57272 10.0406,2.3885 q 0.94863,0.5312 1.87112,1.10699 0.92173,0.57656 1.81501,1.19694 0.89329,0.61961 1.75505,1.28227 0.86253,0.66266 1.69124,1.36606 0.82948,0.7034 1.62359,1.44524 0.79412,0.74261 1.5521,1.52289 0.75722,0.77951 1.47599,1.59515 0.71955,0.81564 1.39835,1.6651 0.67881,0.84947 1.31533,1.73045 0.63729,0.88175 1.23076,1.79271 0.59424,0.9102 1.14313,1.84884 0.54888,0.93864 1.05241,1.90264 0.50276,0.96401 0.95939,1.95108 0.45587,0.9863 0.86331,1.9949 0.4082,1.00782 0.76721,2.0341 0.35823,1.02628 0.66727,2.0687 c 3.65538,-4.63554 7.53448,-7.98497 12.98642,-10.29351 -5.28513,5.23439 -9.28722,10.58717 -13.27701,16.82631 -2.43231,4.1174 -6.09846,14.64 -8.5769,17.21453 -0.77028,0.80103 -1.712,1.1585 -2.80438,1.17234 -2.93277,0.0369 -5.52037,-2.67293 -7.37459,-4.65783 -9.83687,-10.53182 -16.70639,-24.05637 -16.12752,-38.78939 0.15913,-4.04361 0.90174,-7.52756 3.95212,-10.36501 z"
       id="path3"
       style="stroke-width:0.768746" />
    <path
       fill="#fefefa"
       d="m 387.55451,263.48669 c 0.86714,0.19219 1.35991,0.18527 2.04794,0.78489 -0.41436,1.28919 -2.94507,2.88895 -3.97211,3.94982 -0.16298,0.25446 -0.48739,0.5043 -0.70802,0.7157 -0.20448,-0.7895 -0.1622,-1.31993 0.0408,-2.09483 0.44664,-1.70508 1.09315,-2.45307 2.59144,-3.35558 z"
       id="path4"
       style="stroke-width:0.768746" />
    <path
       fill="#fefefa"
       d="m 393.85669,270.12866 c 2.45461,-0.20372 4.31497,0.2483 6.42595,1.54518 7.44453,4.5725 12.32223,14.09265 14.25716,22.33361 -1.70431,2.23782 -3.50241,4.36417 -5.12753,6.6681 -1.08778,-1.87036 -2.29702,-3.57928 -3.58082,-5.31664 -2.73828,-3.39709 -6.60123,-7.50758 -11.13452,-8.13411 -1.28458,-0.17758 -2.58453,0.0469 -3.62233,0.86023 -2.00797,1.57593 -1.66818,3.48703 -1.93647,5.7287 -1.68125,-1.94416 -2.4377,-4.34188 -2.89741,-6.83646 -0.85331,-4.62632 -0.63806,-9.8807 2.204,-13.81975 1.48752,-2.06024 2.97504,-2.61758 5.41197,-3.02886 z"
       id="path5"
       style="stroke-width:0.768746" />
    <path
       id="path6"
       style="stroke-width:0.768746"
       d="M 373.51858 209.35547 C 372.21556 210.44017 371.73829 211.85317 371.5584 213.50675 C 371.30625 215.8199 372.22451 219.34625 371.15672 221.31269 C 370.01744 221.66401 369.26346 221.39533 368.21566 220.84644 C 366.20078 219.79096 364.67695 217.50011 363.27169 215.74814 C 361.75341 219.63491 361.10138 223.9307 362.81645 227.89589 C 363.22081 228.82992 363.78316 229.60911 364.42121 230.394 C 358.81783 239.22227 355.48924 247.86143 352.40888 257.80592 C 346.49262 262.88579 341.69602 268.42177 341.06872 276.57432 C 340.63438 282.2146 342.34142 287.24133 346.09828 291.44328 C 347.09304 292.55643 348.15348 293.58189 349.26355 294.57971 C 346.76743 288.63193 343.62667 280.74812 346.3142 274.3583 C 346.87384 273.02915 347.64017 271.74271 348.36049 270.49196 C 349.95487 270.35512 351.55762 270.16787 353.15815 270.18477 C 354.86323 256.70789 360.68216 236.01295 371.86971 227.23312 C 376.69206 223.44858 382.18188 221.14321 388.43563 221.91965 C 390.52046 222.17795 392.70248 222.94951 394.79039 222.78577 L 395.13402 222.28574 C 394.75272 221.22103 393.93946 220.80868 392.93548 220.3628 C 389.81669 218.97829 386.81818 218.27833 383.43339 217.9247 C 399.28953 206.99853 417.00683 202.57059 436.07863 205.99919 C 461.1036 210.49866 482.12621 227.87379 496.21654 248.36624 C 499.98109 253.84048 503.29608 259.67719 505.63614 265.90863 C 513.3136 286.35649 513.82221 312.31711 509.82242 333.6421 C 504.67414 361.09169 492.95555 383.49158 480.46651 408.15062 C 459.71346 414.18604 431.1751 436.46927 415.54266 451.42444 C 412.93276 449.64249 410.07689 447.93719 407.14644 446.74563 C 414.81467 433.39175 424.7391 421.2154 434.3538 409.22989 C 454.48493 384.13497 475.18384 357.61059 481.76584 325.33481 C 484.20046 313.39774 484.62871 300.96597 481.46532 289.11884 C 478.84774 279.31733 473.60379 268.52755 464.48263 263.2432 C 460.77189 261.09379 456.22103 260.00931 452.01523 261.20778 C 451.62317 261.32002 451.23918 261.45837 450.85327 261.59137 C 450.71639 257.20491 450.56165 252.82632 450.63695 248.43679 C 447.80797 254.11167 446.30089 261.6067 448.30809 267.80049 C 449.51425 271.52351 452.07097 274.50415 454.09815 277.78592 C 459.21492 286.06916 457.27925 295.9174 453.21335 304.17526 C 447.93669 314.8908 438.74929 323.79994 428.43734 329.68391 L 427.62827 329.58091 C 428.4047 327.74438 428.13862 325.94461 427.44982 324.10192 C 426.31747 321.0723 423.70379 318.27746 420.74335 316.97597 C 413.23501 313.67652 407.79984 318.42982 405.55049 318.26147 C 404.25362 318.16384 402.42923 316.50773 401.4068 315.7436 C 393.6294 309.93189 385.93647 305.70827 376.12344 309.81338 L 375.54756 310.05527 C 372.01288 304.24587 358.17967 283.89861 351.97513 281.98443 C 350.96577 281.67232 350.44416 281.82823 349.49322 282.20338 C 348.30555 283.47871 348.19676 284.93474 348.29436 286.61753 C 348.87784 296.69653 355.27115 305.28594 362.75027 311.61964 C 364.79359 313.35008 366.89297 314.8306 369.30298 316.01601 C 367.84544 321.52254 370.07727 325.33829 370.44011 330.68952 C 371.40489 344.91746 358.75479 359.32385 347.22054 365.96273 C 342.76565 368.52727 332.17417 371.4855 330.64898 376.64148 C 330.23232 378.04829 330.70749 379.37444 331.47623 380.55139 C 333.22667 383.232 336.44133 384.30627 339.45173 384.82517 C 345.23501 385.82301 350.73503 384.33312 356.4691 384.68675 C 369.91291 385.51776 378.00593 392.35014 391.20222 383.01911 C 400.93146 376.14037 405.76908 365.26299 410.33926 354.68429 C 412.07663 350.66145 413.7833 346.47221 416.5377 343.019 C 420.67817 337.82844 427.17388 334.8554 432.74114 331.46677 C 446.22954 323.25811 457.22866 309.32031 459.86162 293.44265 C 460.42511 290.04556 460.35443 286.60229 459.35045 283.28669 C 457.96748 278.71881 449.85757 267.642 453.02865 263.56303 C 455.12809 262.67051 457.4212 263.65304 459.4184 264.47406 C 466.81373 267.51675 471.72403 273.50479 474.66525 280.78096 C 483.05918 301.54477 480.24299 325.35313 471.56002 345.60496 C 461.85999 368.23144 446.71936 387.89824 431.47669 407.02539 C 421.55833 419.47214 411.28082 431.66075 404.13071 445.97633 C 399.29069 438.43135 394.37322 430.94013 389.37535 423.49867 C 385.73304 418.05596 381.82187 411.29271 376.97723 406.90549 C 375.75416 405.7985 374.39715 405.06675 372.77818 404.72004 C 370.75946 404.28801 368.71284 404.7837 367.01622 405.92836 C 359.14734 411.23962 355.94114 427.52466 354.49512 436.34063 C 352.4003 449.11257 352.30889 469.6105 360.41608 480.53975 C 362.67465 483.58552 365.67832 485.42022 369.46517 485.85379 C 372.22112 486.16975 374.81361 485.73493 377.49039 485.14991 C 363.70909 506.44031 352.50667 538.4061 358.03087 563.69091 C 358.58667 566.23699 359.33562 570.44922 361.5104 572.05512 C 362.02854 572.08202 362.41093 572.27625 362.78762 571.83807 C 363.79544 570.66343 364.6712 564.58241 365.18779 562.58059 C 366.79755 556.33992 369.06738 550.20692 372.57516 544.77959 C 375.54175 553.09972 380.6409 564.52149 389.3208 568.35445 C 390.49698 568.87336 391.80538 569.07607 393.06305 569.30131 C 394.47139 573.29186 395.91983 577.20628 397.80326 581.00543 C 400.43084 586.30438 410.21054 602.64749 415.26965 605.4611 L 416.26824 605.53682 C 416.87321 604.92413 416.86644 604.96618 416.88484 604.15516 C 416.94019 601.68979 416.25472 599.09371 416.22322 596.56454 C 416.13404 589.4352 416.70412 582.17376 417.44057 575.08516 C 435.21243 605.9818 458.35363 624.73562 489.32561 641.31131 C 496.81011 645.31724 504.91205 648.47696 512.23819 652.66893 L 512.38703 653.13537 C 513.45482 656.52784 514.05961 660.02757 514.97365 663.45925 C 517.79264 674.04257 523.09448 681.98193 532.9175 687.15482 C 534.31585 687.89128 535.80442 688.50384 537.29194 689.03043 C 537.49258 702.16675 537.95216 715.64073 536.52767 728.71401 C 511.47427 728.55488 480.7655 732.56855 456.73914 739.81321 C 454.06236 740.62115 449.07575 741.67316 447.21154 743.73877 C 446.57275 744.44678 446.51283 744.63222 446.49973 745.52397 C 451.33745 749.21548 462.22714 747.01008 463.41946 755.00504 C 464.01677 759.0102 459.81278 765.67542 461.09582 766.89772 C 468.97007 766.31348 473.43042 762.95919 482.16874 764.25299 C 483.92686 764.51359 485.95573 764.85701 487.31564 766.097 C 488.42802 767.11097 488.55859 768.92595 488.81766 770.3266 C 489.54642 770.99463 489.93811 771.12725 490.94823 771.04115 C 497.38417 770.4915 502.22135 768.52326 508.16144 772.88358 C 511.17108 775.09296 513.30075 778.40683 513.82734 782.12679 C 514.28244 785.34707 513.40401 788.15205 512.17863 791.08097 C 512.31162 791.60295 512.23288 791.96672 512.7587 792.23271 C 514.44303 793.08371 517.65811 791.94577 519.47696 791.69669 C 528.22759 790.49745 539.45654 791.34434 546.54744 797.19218 C 549.19193 799.37311 551.19635 802.14373 553.2489 804.85971 C 564.0713 799.34473 617.37075 755.86953 620.71556 745.53452 C 620.93156 744.86648 620.76924 744.56087 620.63394 743.89437 C 618.52527 741.08306 614.70839 740.63761 611.43891 740.17559 C 607.84068 739.69127 604.24253 739.22763 600.63916 738.78535 C 600.4439 727.30106 599.81841 709.66232 601.83867 698.48476 C 608.83348 695.79415 613.63352 691.35369 616.69083 684.47034 C 618.77567 679.77561 619.62793 674.72211 620.15375 669.64609 C 655.79662 661.91944 700.31238 630.27067 720.02916 599.65539 C 729.52931 584.90317 737.09563 569.31329 740.884 552.09801 C 741.93411 547.32334 742.49483 542.52098 743.30509 537.70787 C 749.08529 535.53616 755.95509 529.5747 758.28747 523.71994 C 758.67385 522.74978 758.63911 522.31486 758.28779 521.35623 C 758.03411 521.21171 757.81876 520.94595 757.52817 520.92215 C 756.65103 520.85219 748.1111 522.77669 745.48354 522.90353 C 757.38679 506.79371 758.72104 487.00334 755.83517 467.76087 C 755.50768 465.5784 755.02577 462.14649 753.26765 460.65666 C 752.92172 460.36377 752.59999 460.23288 752.20639 460.04223 L 751.36559 460.26631 C 749.79275 463.46199 748.88208 466.93651 747.53447 470.22904 C 745.2636 475.77554 742.52643 481.3 739.70668 486.58897 C 745.19321 468.51346 746.15305 443.98737 736.74975 427.07574 C 736.10785 425.92108 735.32725 424.45681 734.0027 424.00325 C 733.39616 423.79569 733.12096 424.09073 732.57439 424.33519 C 730.65636 426.55609 731.08955 432.315 730.27852 435.237 C 728.31361 442.31715 725.56605 449.66608 721.73309 455.95518 C 721.21803 452.50121 720.84481 446.16275 718.57701 443.37144 L 717.92571 443.2794 C 716.40821 446.71491 715.13104 450.4692 713.25991 453.7133 C 708.78273 461.47532 697.96641 467.47357 689.91842 470.57085 C 684.28197 472.74024 677.7272 474.25886 671.6618 474.09204 C 668.18553 471.45063 664.95408 468.5104 661.54777 465.78212 C 656.1135 461.42949 650.42162 457.29325 644.6737 453.36803 C 608.44889 428.63366 562.77835 409.59364 518.04737 415.63905 C 508.02677 416.99358 498.51934 419.68115 489.53577 424.36204 C 489.51963 418.35353 488.75491 413.16249 484.29081 408.6907 C 488.75875 400.41747 493.63966 392.21427 497.60332 383.6935 C 513.5248 349.4628 522.60225 308.86524 511.38856 271.78096 C 503.68804 246.31397 484.59623 223.1669 460.99575 210.65173 C 443.26695 201.24997 423.55812 197.96257 404.16037 204.06794 C 397.14481 206.27655 390.49024 209.37025 385.00371 214.30253 C 383.87826 215.3142 382.61857 216.95692 381.01112 216.1113 C 378.4758 214.77676 375.97857 209.75675 373.51858 209.35547 z M 564.08022 688.21624 C 569.23081 693.80579 575.75681 696.7935 582.83619 699.19891 C 584.03928 712.51358 585.09076 725.79988 585.35444 739.16912 L 569.42087 741.9606 L 565.56701 742.65095 C 566.95844 741.03812 568.50308 739.3719 568.7091 737.14562 C 568.82057 735.94023 568.44493 734.83804 567.61392 733.9609 C 564.24912 730.41084 556.25449 730.74057 551.78501 730.75287 C 551.74121 721.5602 554.04377 702.36386 556.49915 693.32033 C 559.61871 692.16415 561.9039 690.76155 564.08022 688.21624 z " />
    <path
       fill="#fefefa"
       d="m 349.97436,282.2095 c 0.10762,0.0584 0.21986,0.1107 0.32364,0.17605 1.05395,0.66189 2.57145,2.00027 2.91585,3.18261 -1.27458,0.14913 -1.89957,0.22985 -3.05423,-0.36362 -0.56195,-1.10546 -0.38129,-1.83346 -0.18526,-2.99504 z"
       id="path7"
       style="stroke-width:0.768746" />
    <path
       fill="#d2a693"
       d="m 376.0533,221.18029 c -0.53889,0.22986 -0.80872,0.24292 -1.38221,0.26445 -0.27751,-0.36054 -0.3467,-0.41282 -0.55042,-0.88637 -0.54812,-1.27534 -0.41282,-3.07498 0.10301,-4.33111 0.35132,-0.85638 0.0861,-0.55888 0.95479,-0.92865 l 1.06548,0.88791 c -0.71801,1.18463 -1.01013,2.35236 -0.71186,3.74071 0.17297,0.80258 0.0961,0.54274 0.52121,1.25306 z"
       id="path8"
       style="stroke-width:0.768746" />
    <path
       fill="#fefefa"
       d="m 352.17681,260.74381 c 0.21756,1.59207 0.18604,3.78607 -0.59501,5.21363 -1.01474,0.65805 -1.37913,0.41051 -2.54916,0.25138 l -0.33671,-0.77874 c 0.69572,-1.79271 2.23398,-3.24487 3.48088,-4.68627 z"
       id="path9"
       style="stroke-width:0.768746" />
    <path
       fill="#e6d3c7"
       d="m 376.0533,221.18029 c -0.42512,-0.71032 -0.34824,-0.45048 -0.52121,-1.25306 -0.29827,-1.38835 -0.006,-2.55608 0.71186,-3.74071 l 3.70997,2.79131 c -1.27612,0.75337 -2.55147,1.58977 -3.90062,2.20246 z"
       id="path10"
       style="stroke-width:0.768746" />
    <path
       fill="#e6d3c7"
       d="m 365.1963,222.79619 c 1.4537,0.41667 4.03284,0.53966 4.89999,1.8204 l -0.96555,1.25459 -1.31071,1.11161 c -1.02935,0.113 -0.97862,0.0861 -1.82193,-0.5266 -0.58732,-1.2961 -0.73646,-2.24473 -0.8018,-3.66 z"
       id="path11"
       style="stroke-width:0.768746" />
    <path
       fill="#bc856d"
       d="m 597.13006,727.94539 c 0.0507,0.3813 -0.0769,0.77874 -0.1476,1.15543 -1.59745,1.98951 -5.4481,2.04178 -7.82199,2.39848 l -0.1991,-1.57977 c 0.974,-1.48752 5.83632,-1.18694 7.75741,-1.82885 0.13761,-0.0461 0.27368,-0.0969 0.41128,-0.14529 z"
       id="path12"
       style="stroke-width:0.768746" />
    <path
       fill="#bc856d"
       d="m 540.70026,687.30102 c 3.03885,2.07254 4.89922,5.14214 8.65838,6.14535 1.60899,0.42896 2.83898,0.36516 3.79838,1.77273 -2.77056,1.23384 -9.03969,-1.61513 -11.92018,-2.57299 z"
       id="path13"
       style="stroke-width:0.768746" />
    <path
       fill="#bc856d"
       d="m 587.13867,701.59816 c 1.7489,1.27304 3.88063,4.23117 5.97546,4.57019 1.59438,-0.44433 2.88511,-1.63743 4.19121,-2.61989 l 0.36592,0.47201 c -0.0446,0.99092 0.0677,2.3662 -0.71263,3.09421 -1.92494,1.79579 -6.36675,0.60654 -8.85365,0.67188 l -0.42742,0.0146 z"
       id="path14"
       style="stroke-width:0.768746" />
    <path
       fill="#bc856d"
       d="m 541.32602,694.34734 c 3.21412,1.01475 7.70898,1.0847 10.48723,2.97889 l 0.25138,1.63128 c -3.56237,0.25753 -7.18239,0.1453 -10.75476,0.15683 z"
       id="path15"
       style="stroke-width:0.768746" />
    <path
       fill="#bc856d"
       d="m 596.25369,722.68255 0.26061,-0.05 0.4797,0.42127 c 0.10916,1.36375 0.19526,1.7143 -0.41052,2.98811 -2.20399,1.56287 -4.16199,1.46985 -6.76419,1.53212 l -0.48585,-0.24754 c -0.65958,-1.38297 -0.59193,-2.9835 -0.67342,-4.48948 2.54916,0.0692 5.04835,-0.006 7.59367,-0.15452 z"
       id="path16"
       style="stroke-width:0.768746" />
    <path
       fill="#bc856d"
       d="m 588.25028,715.43712 c 2.93661,0.66497 5.6695,0.54197 8.62456,0.16528 l -0.0454,5.67412 c -2.74442,0.2583 -5.37661,0.34593 -8.13102,0.25522 -0.34133,-2.01488 -0.36593,-4.0559 -0.44818,-6.09462 z"
       id="path17"
       style="stroke-width:0.768746" />
    <path
       fill="#bc856d"
       d="m 540.98085,714.97049 c 3.04423,1.2915 5.57956,1.55595 8.84827,1.35453 l -1.09547,5.61108 c -2.89048,0.4797 -5.28589,-0.19526 -8.04569,-0.95094 -0.008,-2.01027 0.15682,-4.01055 0.29289,-6.01467 z"
       id="path18"
       style="stroke-width:0.768746" />
    <path
       fill="#bc856d"
       d="m 587.8882,708.6022 c 2.96198,0.76183 6.223,0.51045 9.24494,0.36131 l -0.2337,5.51499 c -2.87588,0.20833 -5.71563,0.0969 -8.59381,-0.01 -0.23063,-1.94569 -0.30366,-3.91138 -0.41743,-5.8663 z"
       id="path19"
       style="stroke-width:0.768746" />
    <path
       fill="#bc856d"
       d="m 544.9668,700.38354 6.61736,-0.23831 c -0.40128,1.69431 -0.35054,3.34558 -0.96093,5.0053 -0.95862,0.92019 -1.28534,0.72032 -2.57607,0.75414 q -3.39939,0.0138 -6.79648,0.14683 c -0.10532,-1.8473 -0.11454,-3.70612 -0.16221,-5.55573 z"
       id="path20"
       style="stroke-width:0.768746" />
    <path
       fill="#bc856d"
       d="m 541.06926,706.0269 c 3.12418,1.12006 6.26066,1.08393 9.53322,1.13006 l -1.02936,7.53679 c -0.10608,0.0746 -0.20525,0.16066 -0.31902,0.22293 -2.21476,1.21155 -5.98469,-0.27982 -8.21944,-0.96785 0.10301,-2.65064 0.10378,-5.27129 0.0346,-7.92193 z"
       id="path21"
       style="stroke-width:0.768746" />
    <path
       fill="#fefefa"
       d="m 354.46998,288.62085 c 5.0768,1.06855 13.94506,14.39861 16.93548,18.8558 -2.16248,-1.82962 -4.4003,-4.95995 -6.99636,-6.04849 -0.72569,-0.30443 -0.40897,-0.24447 -1.2446,0.0538 -0.42742,1.35068 0.15606,2.88126 0.56119,4.18198 1.58208,3.18799 3.55929,5.74714 5.90781,8.40316 -5.68488,-3.27178 -11.42587,-10.64021 -14.22103,-16.51574 -1.48983,-3.13264 -2.12174,-5.6203 -0.94249,-8.93052 z"
       id="path22"
       style="stroke-width:0.768746" />
    <path
       fill="url(#gradient_0)"
       d="m 408.41828,323.45965 c -0.56734,-1.17695 -0.9102,-1.57286 -0.75876,-2.8951 0.6373,-1.03242 1.33147,-1.43986 2.4869,-1.70046 2.81207,-0.63345 8.22558,-0.0892 10.73554,1.45984 3.03039,1.86959 4.72471,5.57495 5.62337,8.86057 0.78566,0.41589 0.40206,0.31288 1.12391,0.39591 l 0.80872,0.10301 q -6.51743,4.4618 -12.83344,9.20496 c 0.50352,-3.32021 2.38772,-11.39204 2.21322,-14.26331 l -0.47816,0.18065 c -1.43372,1.5867 -2.04718,3.29485 -2.7944,5.25285 l -0.62191,-0.38822 c -0.42281,-1.12775 -0.45741,-2.17709 -0.52044,-3.36327 -0.2091,-0.37745 -0.41974,-0.7549 -0.65805,-1.11621 -0.77797,-1.18003 -1.5667,-1.46754 -2.8605,-1.7489 -0.50738,-0.10071 -0.95479,-0.0261 -1.466,0.0177 z"
       id="path23"
       style="fill:url(#gradient_0);stroke-width:0.768746" />
    <path
       fill="#bc856d"
       d="m 413.40283,326.30708 c 0.063,1.18618 0.0976,2.23552 0.52044,3.36327 l 0.62191,0.38822 c -0.52966,3.41246 -0.93249,6.84722 -1.80809,10.19434 -2.66832,10.19588 -8.64455,24.01947 -14.92751,32.36344 -4.60786,6.11999 -10.88467,10.81164 -18.63287,11.83023 -8.63686,1.13621 -16.73637,-2.76287 -25.3002,-2.93046 -3.14878,-0.0615 -9.22572,1.82039 -11.77796,-0.12069 0.93787,0.0661 1.88343,0.14222 2.82438,0.12838 2.6883,-0.0384 4.67858,-0.6642 6.57585,-2.58683 0.0923,-0.0938 0.18296,-0.18988 0.27444,-0.28444 5.96393,0.45587 11.72953,1.68971 17.65502,2.34545 7.91425,0.8756 14.82604,-0.85024 21.03751,-5.92704 12.43447,-10.16359 21.25429,-33.04147 22.93708,-48.76387 z"
       id="path24"
       style="stroke-width:0.768746" />
    <path
       fill="#c4d9da"
       d="m 398.88429,448.79985 c 2.85128,0.24139 5.64413,0.58502 8.42007,1.30533 1.62052,0.42051 4.06052,1.13698 4.8162,2.81669 0.37053,0.82102 0.26829,1.79272 -0.003,2.62834 -0.76797,2.36236 -2.194,4.57712 -3.10573,6.9118 -1.02628,2.62527 -1.49367,5.48346 -2.25858,8.20098 -2.45998,-4.19505 -3.65923,-8.85672 -5.01068,-13.48919 -0.23601,1.70585 -0.37669,3.42246 -0.53659,5.136 0.0638,4.35033 1.05933,7.81123 3.03194,11.69416 -0.20372,0.71263 -0.03,0.62422 -0.60808,0.974 -0.98553,0.59578 -2.12789,0.59117 -3.22566,0.36669 -2.40694,-0.49276 -4.25809,-2.23013 -5.5588,-4.23809 -2.34468,-3.6208 -3.89293,-8.92053 -2.96429,-13.17708 0.89252,-4.08819 3.55545,-6.9633 7.00328,-9.12963 z"
       id="path25"
       style="stroke-width:0.768746" />
    <path
       fill="#c4d9da"
       d="m 373.32732,407.89026 c 0.73416,0.23985 1.24922,0.46279 1.85499,0.9617 2.9689,2.43923 23.4406,33.52425 23.91646,37.05126 -0.74569,0.60193 -1.38836,0.57502 -2.30855,0.6665 -4.72087,-1.9357 -9.62085,-4.20273 -13.95351,-6.8872 -6.10461,-3.78223 -10.81472,-10.21663 -12.3745,-17.27141 -1.16696,-5.27668 0.0338,-10.0306 2.86511,-14.52085 z"
       id="path26"
       style="stroke-width:0.768746" />
    <path
       fill="#fefefa"
       d="m 516.53165,654.2826 c 4.75931,1.51059 9.27338,3.75763 13.90739,5.61262 6.60967,2.64602 13.26163,5.11216 19.81981,7.89502 2.19861,4.49563 4.44104,8.91669 7.2339,13.08406 1.22307,1.82577 3.02655,3.33098 4.06051,5.21978 l -0.33133,1.07548 c -2.05409,1.97414 -5.48961,2.34621 -8.22942,2.26703 -4.40031,-0.12761 -6.85337,-2.57068 -9.6862,-5.57418 -4.71319,-6.32139 -7.19777,-12.30916 -10.11363,-19.55613 0.36362,9.19421 2.72598,13.19784 4.72549,21.58562 q -2.58453,-1.16926 -4.9761,-2.69445 c -10.734,-6.79187 -13.83743,-17.11613 -16.41042,-28.91485 z"
       id="path27"
       style="stroke-width:0.768746" />
    <path
       fill="#c4d9da"
       d="m 478.34419,412.24367 0.47508,0.11762 0.28675,0.66189 c -0.54658,6.33677 -3.62849,13.0387 -7.77049,17.82645 -11.61037,13.42 -36.98053,22.9317 -54.27347,24.26855 l -0.34056,0.009 -0.13606,-0.46893 c 3.31175,-3.76378 8.01955,-6.90181 11.91172,-10.11055 17.65809,-14.55698 28.64424,-22.72952 49.84703,-32.30425 z"
       id="path28"
       style="stroke-width:0.768746" />
    <path
       fill="#c4d9da"
       d="m 391.43668,472.6748 2.37465,2.98043 c -3.64693,6.11614 -15.49946,27.43347 -15.00823,34.11926 3.30638,0.40436 14.09727,-30.0034 18.08783,-31.46248 l 0.20602,0.49892 c -10.80857,21.65635 -12.36835,61.33133 -7.94576,84.82729 l -0.35746,0.33363 c -1.39989,-0.69648 -2.62758,-2.28779 -3.6231,-3.47165 -3.19184,-3.79915 -11.10992,-15.14507 -10.57949,-20.09503 0.0753,-0.7034 0.16528,-1.20539 0.01,-1.90726 l -0.88022,0.18066 c -5.90935,5.2121 -11.2652,18.03786 -12.20922,25.7576 q -1.07932,-5.56187 -1.44755,-11.216 c -1.20924,-20.11962 8.69375,-49.78861 19.66375,-66.43504 3.33406,-5.05911 7.70592,-9.56858 11.70878,-14.11033 z"
       id="path30"
       style="stroke-width:0.768746" />
    <path
       fill="#c4d9da"
       d="m 370.423,406.28435 0.81257,0.42435 c -0.11455,1.56286 -1.78734,3.18184 -2.51534,4.6217 -1.93186,3.81682 -1.46831,10.05212 -0.20372,14.00579 5.03683,15.74545 13.32237,16.25513 26.2473,23.02317 -1.99336,1.7635 -3.83527,3.78223 -5.03144,6.18303 -2.54455,5.10678 -0.85562,10.21356 0.72339,15.29112 -2.45538,3.03271 -5.21441,5.80942 -8.05954,8.47312 q -1.56363,1.48138 -3.34404,2.69215 c -2.69446,1.84038 -6.06003,2.88664 -9.31182,2.20092 -3.38864,-0.71416 -5.91858,-3.26563 -7.73282,-6.08539 -7.97882,-12.40449 -6.39674,-31.54165 -3.30177,-45.19458 1.8204,-8.02802 4.44951,-21.08286 11.71723,-25.63538 z"
       id="path31"
       style="stroke-width:0.768746" />
    <path
       fill="#040403"
       d="m 366.9329,458.47606 c 1.18848,-0.0315 2.42308,-0.0177 3.60234,0.12531 2.91355,0.35362 7.90425,2.33929 9.78383,4.69012 l -0.85869,0.0515 c -2.97351,-1.27842 -5.99622,-2.44922 -9.23264,-2.83667 -1.53749,-0.18373 -3.18799,0.0577 -4.67321,-0.36516 0.14453,-0.98783 0.62423,-1.08008 1.37837,-1.6651 z"
       id="path32"
       style="stroke-width:0.768746" />
    <path
       fill="#bc856d"
       d="m 540.42505,723.18839 c 2.88664,0.69341 5.42811,0.90481 8.36395,0.68418 -0.17527,3.34789 -0.18526,6.52128 0.14376,9.86455 4.59403,-0.17143 12.03779,-1.3676 16.04834,1.22615 0.53966,0.861 0.82256,1.18157 0.50814,2.25397 -0.8533,2.91739 -6.88796,6.82569 -9.61778,8.06645 -6.60737,3.00272 -14.49317,4.62785 -21.47492,6.6904 -14.33711,4.23656 -28.31369,8.38163 -42.18725,13.98426 -0.76182,-0.70956 -1.53365,-1.43218 -2.40156,-2.01181 -6.715,-4.48102 -16.11984,-3.29177 -23.50518,-1.61514 0.68726,-3.73764 1.11622,-8.01494 -0.84408,-11.45816 -2.4769,-4.34956 -7.55678,-5.64567 -12.00859,-6.94485 l 3.87833,-0.98092 c 19.19021,-5.58494 39.54199,-7.93423 59.37795,-9.98832 6.4959,-0.67265 13.22704,-0.68649 19.64991,-1.76273 -0.22601,1.76119 -0.63037,3.48088 -1.00936,5.21363 -9.33565,1.89035 -18.23081,4.51024 -27.13751,7.8489 -1.78272,0.66804 -3.91522,1.19463 -5.56725,2.1079 -1.0209,0.56349 -1.9949,1.36068 -2.38619,2.45691 0.1868,0.0338 0.3713,0.0984 0.56041,0.10071 2.82207,0.0454 13.77593,-4.52253 17.33677,-5.62184 5.15444,-1.59207 10.6748,-2.38158 15.72777,-4.11049 1.19386,-0.4082 2.31546,-0.98783 3.23104,-1.86882 3.43706,-3.30637 3.12726,-9.69158 3.3133,-14.13493 z"
       id="path33"
       style="stroke-width:0.768746" />
    <path
       fill="#c4d9da"
       d="m 407.33435,475.90891 c 1.28073,1.06626 1.21769,4.05975 1.32454,5.61339 0.78951,11.40742 1.3161,22.76488 3.23796,34.06006 3.01656,17.72729 10.375,36.0811 18.61365,52.03181 2.2063,4.27039 5.54343,7.89502 7.77356,12.15465 0.0615,0.11684 0.11993,0.236 0.17989,0.35362 -5.31588,-2.27011 -10.85162,-4.73778 -15.59863,-8.05185 -1.86344,-1.30072 -5.24669,-5.62261 -7.09629,-5.73638 -0.90097,1.42525 -0.82487,3.98595 -1.04012,5.65797 -1.22999,9.5486 -1.82192,18.23158 -1.10315,27.85475 -4.21503,-5.57188 -8.05031,-11.73645 -11.38436,-17.87104 -7.64748,-14.74917 -11.29749,-29.80352 -11.46969,-46.42304 -0.11839,-11.45893 2.90817,-48.93915 10.65405,-56.1915 0.58963,-0.55196 0.615,-0.57194 1.44294,-0.51352 0.2975,0.79565 -1.28227,10.84009 -1.45447,12.7927 -1.01397,11.53196 -1.18079,25.18643 3.51394,35.91813 -1.15389,-17.25143 -2.13711,-34.73656 2.40618,-51.64975 z"
       id="path34"
       style="stroke-width:0.768746" />
    <path
       fill="#bc856d"
       d="m 371.5446,319.45679 c 0.68726,-1.43909 1.45601,-2.79209 2.54378,-3.97288 2.52687,-2.74289 5.87707,-4.398 9.63162,-4.4841 8.56922,-0.19603 16.39351,6.90872 22.2675,12.28533 0.7257,0.66343 1.09162,1.14082 2.11482,1.08932 l 0.31596,-0.91481 c 0.51121,-0.0438 0.95862,-0.11839 1.466,-0.0177 0.67649,2.89356 0.54965,5.45886 0.006,8.35089 -2.57992,13.74595 -12.14465,33.91554 -23.83882,41.8244 -10.72862,7.25465 -22.01535,3.92137 -33.74795,1.57285 0.71493,-2.67985 1.47445,-5.12062 3.19183,-7.36459 0.0853,-0.11147 0.17374,-0.22063 0.25984,-0.33056 -0.33902,0.0308 -0.43896,0.0184 -0.79565,0.17143 -3.00503,1.28842 -3.67384,4.35264 -4.70012,7.12935 -2.97735,0.99322 -7.06247,1.60207 -9.69696,3.12649 -1.01782,0.58809 -1.78734,1.70201 -2.79055,2.24628 -0.56349,0.30519 -0.99399,0.29597 -1.54825,0.0392 -0.86869,-0.40206 -1.3776,-0.99937 -1.58055,-1.95185 -0.19449,-0.9125 0.0784,-1.82962 0.68496,-2.53302 1.94492,-2.2555 7.14165,-3.34635 9.93681,-4.78391 q 1.41142,-0.72415 2.77978,-1.52826 1.3676,-0.80411 2.68754,-1.68509 1.31917,-0.88176 2.58606,-1.83731 1.2669,-0.95478 2.4769,-1.98182 1.21001,-1.02628 2.35928,-2.12021 1.14928,-1.09469 2.23321,-2.25319 1.0847,-1.15773 2.10098,-2.3762 1.01629,-1.21923 1.96108,-2.49381 c 4.98147,-6.63658 9.4279,-14.99439 8.85749,-23.53977 -0.25907,-3.87986 -1.2077,-7.80585 -1.76274,-11.66649 z"
       id="path35"
       style="stroke-width:0.768746" />
    <path
       fill="#040403"
       d="m 389.02512,327.68007 c 0.51429,0.1007 1.27381,0.18757 1.72507,0.44433 0.82255,0.46663 1.36836,1.11468 1.49136,2.07485 0.1599,1.24844 -0.6911,2.66293 -1.49521,3.54161 -1.21539,1.32762 -2.43231,1.91264 -4.21349,1.958 l -0.3298,-0.53505 c 0.7257,-1.49214 2.41925,-1.58362 3.1903,-3.07729 l -0.4205,-0.82948 c -1.24307,0.76567 -2.19785,1.44832 -3.12419,2.60221 -0.86407,1.07547 -1.63743,2.18016 -3.05423,2.40925 l -0.39052,-0.73262 c 0.0246,-0.94632 0.13453,-1.67125 0.47432,-2.56377 1.14389,-3.00656 3.41861,-3.99901 6.14689,-5.29204 z"
       id="path36"
       style="stroke-width:0.768746" />
    <path
       fill="#c4d9da"
       d="m 482.48004,412.06378 c 0.33364,0.13453 0.37054,0.12685 0.69956,0.38822 1.20232,0.95478 1.89419,2.88049 2.2801,4.30344 3.45398,12.73505 -8.88901,30.72524 -13.73211,42.1811 -2.44,5.77174 -4.96994,12.75811 -4.72241,19.1264 0.13684,3.50779 1.03166,5.58494 3.58005,7.95499 -1.46753,2.18862 -2.74365,3.91906 -4.89845,5.52574 -6.56201,4.89153 -15.92534,5.53421 -23.76578,4.30421 -12.26304,-1.92263 -24.58066,-9.65314 -31.88451,-19.66299 -0.34901,-0.56579 -0.81026,-1.22615 -1.01398,-1.85805 -0.41051,-1.26844 0.68649,-3.16109 1.20463,-4.33189 6.71499,1.98106 14.35479,4.29037 21.41419,3.78608 0.79027,-0.0561 1.12314,0.0261 1.65818,-0.60116 -2.82975,-1.40835 -6.99712,-1.65896 -10.10132,-2.55301 -4.06974,-1.17234 -7.94192,-2.87742 -12.04471,-3.97519 0.7526,-2.60374 1.70892,-4.96456 2.87511,-7.40917 16.22208,-0.64421 35.54528,-7.49374 48.99141,-16.71023 12.66894,-8.68376 16.65489,-15.78236 19.46004,-30.46849 z"
       id="path37"
       style="stroke-width:0.768746" />
    <path
       fill="#bc856d"
       d="m 596.96863,731.38399 0.25368,-0.003 c 1.59669,3.72688 -1.00782,9.43866 1.91111,14.70303 0.83408,1.50444 1.80424,2.56454 3.47627,3.07883 l 0.36899,-0.369 c -0.20141,-2.37696 -1.95722,-5.26898 -2.6983,-7.65671 3.08652,0.49738 15.40721,1.81578 17.14535,3.42169 -0.46509,2.58606 -4.68397,6.1123 -6.52666,8.00495 -17.39518,17.86336 -37.01819,32.9646 -56.78727,48.05586 -1.49213,-2.05025 -3.03731,-3.98364 -4.96533,-5.64721 -9.19958,-7.93807 -21.20817,-6.73268 -32.50258,-5.94164 0.1745,-2.28779 0.18296,-4.60863 0.25368,-6.90257 -0.42665,-3.67384 -1.83653,-7.10475 -4.31804,-9.87685 -3.37557,-3.7707 -7.32923,-5.14599 -12.22768,-5.39429 20.53859,-7.64902 41.33702,-13.62449 62.60207,-18.87502 7.49912,-1.85191 14.95749,-3.88909 22.54348,-5.35816 -0.31673,1.99412 -0.64037,4.09665 -1.48983,5.94394 -2.98043,6.48207 -10.97078,8.59766 -17.16226,10.744 4.27654,-0.21218 8.29247,-1.00322 12.23229,-2.73751 8.37933,-3.68844 9.57781,-9.42713 9.65237,-17.76572 0.0177,-1.96338 -0.20679,-3.93444 0.51506,-5.79711 0.71724,-0.66728 0.63806,-0.66804 1.6113,-0.63653 0.40282,0.26983 1.03627,0.81488 1.48829,0.93941 1.01859,0.27983 3.61541,-1.42525 4.62401,-1.93032 z"
       id="path38"
       style="stroke-width:0.768746" />
    <path
       fill="#fefefa"
       d="m 525.89421,418.96636 c 8.21559,-1.1685 17.96252,-0.32672 26.11046,0.87329 35.31235,5.20287 68.12013,21.55487 97.40397,41.43772 5.4827,3.72227 10.84086,7.72667 16.10216,11.75413 4.36724,3.34327 8.74756,7.33076 13.80283,9.58011 l 0.51967,0.22755 c -1.99797,-2.14326 -4.34495,-4.03899 -6.54049,-5.98238 4.45642,-0.0484 8.61534,-0.11993 12.93262,-1.33839 12.93184,-3.6477 25.52314,-11.55118 32.22891,-23.39064 0.17527,3.43015 0.22601,6.86183 -0.83486,10.17282 -3.10881,9.6985 -13.74364,16.30357 -22.20754,20.81226 3.39017,-0.47431 6.17995,-1.61821 9.08197,-3.40554 15.70317,-9.67006 25.9398,-31.30257 30.21864,-48.6647 4.18198,12.34452 6.28296,27.38043 4.96302,40.41913 -0.85715,8.47081 -4.03207,20.59547 -10.39959,26.68087 -2.61297,2.49612 -5.78866,4.17198 -8.56922,6.4444 l -0.32133,0.26675 q 1.34146,-0.37976 2.66063,-0.83255 c 12.17309,-4.25962 23.03163,-22.95476 28.41208,-34.01701 1.29073,5.27359 1.65204,10.73553 1.6136,16.15443 -0.0938,13.07944 -2.73212,28.10458 -12.39372,37.73697 -2.89356,2.88511 -6.52666,4.91306 -9.39408,7.80892 -0.0876,0.0884 -0.17374,0.17989 -0.2606,0.2706 4.2158,-1.91264 8.10104,-4.40491 11.9909,-6.89257 3.91753,0.0846 7.82968,-0.0408 11.71261,-0.58041 -3.16723,3.74303 -6.43902,7.0863 -10.36423,10.0529 -2.05486,1.55286 -5.003,3.01655 -6.66196,4.91228 1.04319,0.27137 1.59669,-0.59578 2.64603,-0.21832 0.83178,3.92137 -4.43336,17.62043 -6.0508,21.89927 -18.30077,48.42639 -53.21722,79.03863 -99.76556,100.02616 -4.72779,2.13173 -9.57858,4.01363 -14.4163,5.87937 -0.65189,-10.99153 -3.65231,-21.61483 -11.76642,-29.4645 1.37759,3.52086 3.0819,6.88412 4.38415,10.45034 3.26871,8.94974 4.78007,19.6676 2.56454,29.04707 -1.89034,7.99726 -6.81263,13.80437 -13.66523,18.07322 1.27996,-5.18827 2.07331,-10.38422 2.07408,-15.72932 -3.84834,7.68285 -3.77839,14.61079 -9.86378,21.72092 -4.34188,-3.78607 -8.02648,-8.48618 -11.19295,-13.27086 -2.18323,-3.30023 -4.20734,-6.86029 -6.97713,-9.70157 1.35376,6.28988 3.74763,11.64419 7.1109,17.10998 -14.16338,-5.71256 -23.82806,-16.89089 -30.03722,-30.62223 -2.35467,-5.20672 -4.45334,-11.20217 -7.68285,-15.93304 -0.9271,3.52701 2.48997,10.48109 3.70613,13.87126 -7.59752,-3.54853 -15.48485,-6.36061 -23.24842,-9.51247 -14.60156,-5.9278 -29.46527,-12.4729 -43.08668,-20.44018 -22.35667,-13.07714 -41.69064,-29.25848 -57.65442,-49.71943 -2.0218,-2.59144 -6.08309,-6.92794 -6.70961,-10.03905 -0.13684,-0.67957 -0.16221,-0.42512 0.20371,-0.98476 9.10888,7.47989 17.99942,11.86713 29.84349,12.70967 -0.97477,-0.81025 -2.05562,-1.48675 -3.01732,-2.32161 -4.51101,-3.9206 -7.85044,-10.27429 -10.7563,-15.47486 -15.44872,-27.65333 -20.34871,-54.31037 -23.10312,-85.48687 4.30805,4.9638 9.03353,9.46634 14.83449,12.63896 9.76307,5.33894 21.77166,7.88041 32.64788,4.59479 6.44824,-1.94877 11.16142,-5.9524 14.28791,-11.91556 0.5681,-1.08393 1.29611,-2.36313 0.90943,-3.57236 -1.20463,0.34747 -1.67587,1.21769 -2.49458,2.14557 -4.18121,-14.47549 5.75329,-28.53816 11.71799,-41.09179 2.37005,-4.98762 4.21581,-10.03137 5.68027,-15.35263 11.74797,-6.32139 23.89724,-8.71143 37.07124,-9.81611 z"
       id="path39"
       style="stroke-width:0.768746" />
    <path
       fill="#040403"
       d="m 522.24881,458.15088 c 34.95719,0.94863 61.1968,15.10432 86.22103,38.61412 9.0343,8.48695 17.47283,17.96021 27.93469,24.74209 5.77405,3.74302 11.26136,6.22146 18.13703,7.23928 3.87448,0.57348 9.10579,0.07 12.5075,2.03487 0.16605,0.5435 0.22293,0.65882 0.30365,1.27151 0.2214,1.67509 -0.83024,3.49548 -1.88727,4.69934 -4.69473,5.34663 -12.62973,8.53155 -19.57458,9.16807 6.74036,1.94108 14.10418,3.0573 21.11668,3.19029 3.54392,0.0669 8.4885,-1.1239 11.78257,-0.13453 0.93941,0.28213 1.61053,0.74338 1.97338,1.68817 0.37899,0.98861 0.19449,1.97337 -0.2191,2.91201 -3.26025,7.39303 -21.99382,13.55607 -29.27077,15.84539 -0.28521,0.47509 -0.55581,0.95863 -0.92711,1.37452 -1.45524,1.63128 -3.73611,2.97966 -5.61723,4.08666 -11.13913,6.55356 -23.92491,8.82289 -36.63382,9.70311 -5.20441,4.8923 -13.95659,7.11013 -20.75615,8.41546 -30.56611,5.86861 -61.72185,-6.16765 -86.60001,-23.20229 -18.63979,-12.76272 -35.89814,-31.4617 -40.18774,-54.27886 2.84974,5.49116 5.41197,11.04996 8.68837,16.31895 11.87713,19.1018 28.98711,33.48734 48.63164,44.12602 20.15422,10.91389 44.86403,17.32446 67.8011,14.28023 4.94919,-0.65651 9.647,-1.93724 14.4163,-3.35558 1.62205,-0.56657 3.0819,-1.23845 4.59325,-2.05409 -26.80233,-1.10469 -46.86045,-8.10489 -67.96253,-24.61371 4.77468,1.86344 9.03354,5.07372 13.59297,7.42147 9.69773,4.99455 20.49246,8.58228 31.1027,11.07072 22.46429,5.26668 47.69992,3.35327 67.58508,-8.88902 q -3.24873,0.63268 -6.5405,0.98169 c -20.93833,2.11867 -55.16752,-3.6108 -71.45802,-17.07 17.82261,7.5906 35.75361,13.45843 55.3059,14.13954 q 5.63798,0.22217 11.26751,-0.15682 5.6303,-0.37899 11.18756,-1.3553 c 8.32091,-1.54749 22.76334,-6.68271 28.71574,-12.63665 0.92634,-0.92634 1.15082,-1.56132 1.11084,-2.8482 -1.85498,-1.01167 -5.58571,-0.0408 -7.7651,0.17066 -12.31301,1.19771 -18.3961,-1.74813 -29.90115,-4.22657 -3.33251,-0.71801 -6.79341,-0.95555 -10.15667,-1.53518 -8.7491,-1.50828 -17.25528,-4.39185 -24.15708,-10.09287 7.94192,3.57467 16.08986,7.08938 24.8428,7.98958 11.54426,1.18771 21.84623,0.70263 31.23953,-7.02096 1.10085,-0.90481 2.39003,-1.96261 2.54302,-3.46243 -0.89175,-1.26843 -3.96827,-0.90943 -5.4458,-0.96324 -7.38073,-0.26599 -13.07483,-1.34146 -19.57843,-4.90768 -15.90766,-8.72373 -27.49958,-21.8885 -40.83348,-33.81483 -7.74589,-6.92794 -16.00068,-13.02563 -25.09495,-18.07629 -10.72939,-5.95779 -23.27994,-10.5964 -35.31158,-13.18016 -5.34048,-1.14696 -11.31902,-1.30686 -16.36814,-3.45243 -0.11839,-0.05 -0.23601,-0.10379 -0.35363,-0.15606 z"
       id="path40"
       style="stroke-width:0.768746" />
  </g>
</svg>
