<?xml version="1.0" encoding="UTF-8" standalone="no"?>
<svg
   width="375.87076"
   height="372.04272"
   version="1.1"
   id="svg148"
   sodipodi:docname="turtle2.svg"
   inkscape:version="1.3.1 (9b9bdc1480, 2023-11-25, custom)"
   xmlns:inkscape="http://www.inkscape.org/namespaces/inkscape"
   xmlns:sodipodi="http://sodipodi.sourceforge.net/DTD/sodipodi-0.dtd"
   xmlns="http://www.w3.org/2000/svg"
   xmlns:svg="http://www.w3.org/2000/svg">
  <sodipodi:namedview
     id="namedview148"
     pagecolor="#ffffff"
     bordercolor="#999999"
     borderopacity="1"
     inkscape:showpageshadow="2"
     inkscape:pageopacity="0"
     inkscape:pagecheckerboard="0"
     inkscape:deskcolor="#d1d1d1"
     inkscape:zoom="0.52066261"
     inkscape:cx="131.56312"
     inkscape:cy="482.07802"
     inkscape:window-width="1920"
     inkscape:window-height="954"
     inkscape:window-x="0"
     inkscape:window-y="27"
     inkscape:window-maximized="1"
     inkscape:current-layer="svg148" />
  <defs
     id="defs3">
    <linearGradient
       id="gradient_0"
       gradientUnits="userSpaceOnUse"
       x1="274.82739"
       y1="778.01782"
       x2="191.13107"
       y2="937.41071"
       gradientTransform="matrix(0.390625,0,0,0.390625,-12.531563,-13.82758)">
      <stop
         offset="0"
         stop-color="#FFE9CA"
         id="stop2" />
      <stop
         offset="1"
         stop-color="#FFFCE8"
         id="stop3" />
    </linearGradient>
  </defs>
  <defs
     id="defs19">
    <linearGradient
       id="gradient_1"
       gradientUnits="userSpaceOnUse"
       x1="242.68231"
       y1="774.83752"
       x2="263.90842"
       y2="851.07263"
       gradientTransform="matrix(0.390625,0,0,0.390625,-12.531563,-13.82758)">
      <stop
         offset="0"
         stop-color="black"
         id="stop18" />
      <stop
         offset="1"
         stop-color="#200A09"
         id="stop19" />
    </linearGradient>
  </defs>
  <path
     d="m 79.681718,40.670857 c -0.733984,-1.645703 -1.433203,-3.367968 -2.404297,-4.889453 -1.160156,-1.818359 -2.5625,-3.466406 -3.643359,-5.338672 -3.216016,-5.571796 -4.534766,-12.584101 -2.207031,-18.728007 1.749219,-4.6157417 4.827734,-7.8780857 9.31875,-9.8835157 7.423826,-3.315 16.694136,-1.65117199 23.985549,1.20707 10.05039,3.939961 18.92617,10.2637107 27.06289,17.2574997 2.28789,1.966446 4.30625,4.498633 6.68984,6.30125 1.45938,1.103125 3.4875,1.548829 5.09375,2.430469 4.02305,2.208594 9.99024,7.575 11.80586,11.858203 0.82774,1.952735 0.94454,3.976953 0.0566,5.93125 -1.44374,3.178125 -4.91445,4.761328 -8.02304,5.845313 -3.13945,1.095312 -6.35235,1.51289 -9.5336,2.373437 2.94961,3.012891 5.06172,6.875 6.47735,10.830078 3.75351,10.490235 4.57851,25.857811 4.46797,36.940231 -0.11055,11.02969 -1.52071,22.86055 1.32187,33.61563 0.23203,0.8789 0.31797,2.15117 0.85039,2.87148 l 0.30742,-0.32383 -0.275,0.15938 0.007,0.1582 0.2754,-0.36836 c -0.14649,-0.57422 -0.32579,-1.01367 -0.58985,-1.54492 -0.68672,-1.38125 -0.95,-3.33125 -1.18125,-4.86601 2.0125,-2.02266 4.33203,-4.18438 6.84531,-5.56993 1.33399,-0.73554 2.75977,-1.04726 3.98594,-2 21.81914,-16.95507 49.72539,-21.86718 76.69024,-18.36289 32.5125,4.22461 65.35586,22.55118 85.34179,48.61328 13.18125,17.18868 20.33789,30.65118 26.46016,51.64336 1.21875,4.1793 2.65781,8.51368 3.40898,12.79766 3.58008,-1.12148 7.28399,-0.87695 10.63594,0.8582 2.59258,1.3418 4.89219,3.70157 5.72266,6.54102 0.58437,1.99883 0.2125,4.04023 -0.78789,5.84062 -3.53321,6.35821 -14.66758,11.3418 -21.32539,13.89649 12.48789,8.87265 23.66953,34.14844 27.72148,48.70703 0.4668,1.67695 1.31523,3.4 1.57148,5.09805 0.10547,0.69922 0.0805,1.2082 -0.26015,1.84101 -0.65547,0.58711 -1.30859,0.58477 -2.15313,0.53282 -2.67929,-0.16524 -5.43476,-0.97969 -7.99804,-1.75586 q -1.14883,-0.35196 -2.28438,-0.74454 -1.13555,-0.39218 -2.25625,-0.825 -1.12109,-0.43281 -2.22578,-0.90507 -1.10469,-0.47266 -2.1918,-0.98399 -1.0875,-0.51133 -2.15547,-1.06133 -1.06835,-0.54961 -2.1164,-1.13711 -1.04805,-0.5875 -2.07461,-1.2121 -1.02656,-0.62422 -2.03008,-1.28516 -1.00351,-0.66055 -1.9832,-1.35625 -0.9793,-0.6961 -1.93321,-1.42656 -0.9539,-0.73008 -1.88124,-1.49414 -0.92774,-0.76407 -1.82735,-1.56055 -0.89922,-0.79649 -1.76992,-1.62422 -0.8707,-0.82812 -1.71133,-1.68633 -0.84062,-0.85859 -1.65,-1.74648 -0.80976,-0.88789 -1.58711,-1.80391 c -5.62305,-6.60547 -11.74101,-17.70664 -13.46094,-26.22578 q -3.56132,0.58867 -7.09961,1.30352 c -1.23242,4.84648 -6.02304,19.66445 -8.82578,23.12226 -1.02656,1.26641 -2.71679,2.22422 -4.10195,3.04453 -5.36406,3.17617 -24.76055,12.33828 -30.41562,10.92149 -0.56524,-0.1418 -0.96563,-0.35313 -1.28868,-0.85743 -1.93281,-3.01757 1.67422,-13.51523 2.78516,-16.92109 1.93789,-5.93984 4.15039,-11.65234 6.7625,-17.32422 -4.52578,0.0738 -9.08594,0.20821 -13.60898,0.0156 -15.81602,-0.67266 -41.29571,-4.01524 -54.63243,-12.8668 3.90235,12.8082 13.09688,23.28906 21.27774,33.57227 13.04922,16.40351 26.31562,36.31953 29.55351,57.45625 0.33086,2.15937 1.31563,7.96445 0.18164,9.69492 -0.49492,0.75508 -1.45312,0.9457 -2.29375,1.08086 -3.37031,0.54023 -7.24921,0.0539 -10.64492,-0.26485 -19.3082,-1.81289 -38.52461,-9.53867 -53.96875,-21.21406 -18.175,-13.73945 -29.05117,-33.3832 -32.11679,-55.84141 q -0.35547,-2.59726 -0.53946,-5.2125 -0.18398,-2.61523 -0.19609,-5.23671 -0.0121,-2.62149 0.14765,-5.23829 0.15977,-2.6164 0.49102,-5.21718 c 0.27422,-2.26133 2.83945,-13.17422 2.66797,-14.13594 -0.004,-0.0184 -0.004,-0.0367 -0.006,-0.0551 -0.46172,-0.13594 -0.64844,-0.29258 -1.10938,-0.0965 -2.33085,4.17148 -4.66679,8.25508 -7.75937,11.92578 -8.00859,9.50547 -20.32617,15.81562 -32.10195,19.14609 -17.78672,5.03047 -34.794923,2.83164 -52.511725,-1.08867 -5.729687,-1.26758 -11.894922,-2.42227 -17.069922,-5.30352 -1.11875,-0.62304 -2.130078,-1.3746 -3.145312,-2.15156 -2.445703,2.78203 -3.654297,6.59219 -5.881641,9.58242 -2.366016,3.17696 -5.388281,5.76641 -7.925781,8.78868 -3.78711,4.51132 -6.817188,9.70117 -9.865625,14.72187 1.294531,-10.6668 6.142187,-21.35625 10.923828,-30.8918 0.858984,-1.71289 1.721875,-4.01914 2.941797,-5.47109 l 0.24414,-0.0113 c 1.089844,1.38516 4.073047,4.42969 5.857032,4.75391 0.296875,0.0535 0.307422,0.0367 0.564843,0.006 l 0.223829,-0.30977 c -0.817578,-1.16289 -3.382032,-1.87422 -4.561328,-2.93047 -5.182813,-4.64296 -5.194532,-14.48437 -4.120704,-20.7625 1.032422,-6.03789 4.288672,-11.40468 9.339063,-14.91015 3.635156,-2.52266 7.788281,-4.60039 12.223437,-5.11289 1.002344,-2.29883 2.378907,-4.47656 3.622266,-6.65352 l 6.239453,-10.91328 q 2.010938,-3.52226 3.960547,-7.07852 c 0.854297,-1.59296 1.606641,-3.32148 2.611719,-4.81953 0.288281,-0.42968 0.673828,-0.70039 1.149218,-0.88476 1.402344,-0.54414 2.966407,0.025 4.251563,0.63398 2.179297,1.03281 4.030859,2.36758 4.892188,4.69922 -0.76836,2.69336 -2.259766,5.33711 -3.435157,7.88633 -2.924609,6.34336 -6.05625,13.8957 -10.109765,19.58594 11.876171,-6.60664 26.763287,-7.12578 39.977737,-5.36563 6.60937,0.88086 13.29531,2.17695 19.98047,1.44024 -3.18594,-3.85977 -6.56953,-7.65782 -9.3336,-11.83438 -12.52656,-18.93047 -20.02148,-44.87578 -18.16523,-67.61367 -3.25469,0.94141 -6.507813,1.92891 -9.827733,2.61719 -7.80938,1.61914 -19.785551,2.90898 -27.536332,0.86914 -4.123828,1.64765 -7.786719,3.86914 -11.122265,6.81406 -9.210938,-4.97422 -16.040625,-14.33828 -19.039454,-24.25977 -0.927734,-3.06914 -1.708203,-6.42461 -1.721093,-9.64609 -0.162891,-0.90039 -0.117969,-1.84297 -0.127344,-2.75625 -0.9125,-0.76211 -1.795313,-1.53203 -2.650391,-2.35859 -3.564453,-3.5086 -5.155469,-9.29805 -5.203906,-14.18907 -0.03906,-3.94023 0.898047,-7.871089 3.749609,-10.735543 1.807813,-1.816015 4.18086,-3.016015 6.783985,-2.974218 1.609375,0.02617 3.020703,0.49375 4.467578,1.162109 5.296484,-9.333594 12.729297,-17.979297 21.814844,-23.816015 3.183203,-2.044922 7.098828,-3.721876 10.032812,-5.941797 -0.708774,-1.307523 -1.714633,-2.765726 -1.286508,-4.326664 0.217969,-0.793359 0.870313,-1.33789 1.575,-1.703124 1.072266,-0.55586 2.297266,-0.764844 3.472656,-0.987501 z"
     id="path27"
     style="stroke-width:0.390625" />
  <path
     fill="#e7e8ca"
     d="m 214.4825,225.95601 0.24414,0.25703 c 0.55664,0.58868 1.50586,1.39688 1.48203,2.25586 l -0.53593,0.47813 c -0.32227,0.23047 -0.65703,0.43047 -0.99727,0.6332 l -0.26836,-0.0914 c -0.29492,-0.86172 0.13828,-2.33399 0.0894,-3.30469 -0.004,-0.0762 -0.009,-0.15235 -0.0141,-0.22813 z"
     id="path28"
     style="stroke-width:0.390625" />
  <path
     fill="#d8bbab"
     d="m 66.042656,207.33922 c 2.675781,2.0539 5.251953,3.92265 8.063672,5.78828 l -0.115625,0.3664 c -2.854297,-1.40078 -5.36211,-3.38437 -8.19961,-4.79179 -0.07851,-0.0387 -0.157422,-0.0762 -0.235937,-0.11407 -0.06133,-0.45234 0.274609,-0.85 0.4875,-1.24882 z"
     id="path29"
     style="stroke-width:0.390625" />
  <path
     fill="#190d0b"
     d="m 34.275468,104.18297 c 0.188282,-0.46094 0.391407,-0.69336 0.203125,-1.19024 -0.284765,-0.75195 -1.078125,-1.44804 -1.173828,-2.22812 l 0.175781,-0.15977 c 0.290235,0.21485 0.342579,0.3 0.491016,0.63711 0.643359,1.46094 2.642969,2.05313 2.871094,3.67813 0.215234,1.53164 0.441015,2.83164 0.210547,4.37773 -0.162891,-0.90039 -0.117969,-1.84297 -0.127344,-2.75625 -0.9125,-0.76211 -1.795313,-1.53203 -2.650391,-2.35859 z"
     id="path30"
     style="stroke-width:0.390625" />
  <path
     fill="#8e614f"
     d="m 120.05516,126.81929 0.10859,0.0742 c -2.11562,2.36993 -9.47812,5.51133 -12.52343,6.59727 l -0.23086,-0.34688 0.0949,-0.4332 c 1.45195,-1.01406 3.61562,-1.53242 5.26992,-2.22344 2.52578,-1.05507 4.94258,-2.23789 7.28086,-3.66797 z"
     id="path31"
     style="stroke-width:0.390625" />
  <path
     fill="#8e614f"
     d="m 50.854374,88.90094 c 1.217188,3.46132 1.4125,6.54296 1.225782,10.18945 -0.483203,2.32383 -1.3,5.23906 -3.357031,6.65937 -0.238672,0.16485 -0.220704,0.14844 -0.435938,0.25977 0.584375,-1.45508 1.677344,-1.90078 2.197266,-3.81289 0.433593,-1.28164 0.654687,-2.61289 0.908203,-3.93867 0.267578,-3.49532 -0.115235,-5.96094 -0.538282,-9.35703 z"
     id="path32"
     style="stroke-width:0.390625" />
  <path
     fill="#e9cdb3"
     d="m 41.214921,254.66461 c 1.369922,1.98711 3.839844,3.25664 5.994532,4.20469 l -0.865625,1.78554 c -0.951172,0.0137 -4.790235,-2.98242 -5.776563,-3.66562 z"
     id="path33"
     style="stroke-width:0.390625" />
  <defs
     id="defs34">
    <linearGradient
       id="gradient_2"
       gradientUnits="userSpaceOnUse"
       x1="578.23505"
       y1="310.07108"
       x2="570.13251"
       y2="321.68536"
       gradientTransform="matrix(0.390625,0,0,0.390625,-12.531563,-13.82758)">
      <stop
         offset="0"
         stop-color="#E5B9A2"
         id="stop33" />
      <stop
         offset="1"
         stop-color="#F7D8B4"
         id="stop34" />
    </linearGradient>
  </defs>
  <path
     fill="url(#gradient_2)"
     d="m 212.83563,107.82945 c 0.91758,0.0141 1.83437,-0.0371 2.75117,-0.0762 l 0.31641,0.59766 c -0.99688,0.64062 -3.275,1.58945 -3.67657,2.62031 0.48516,0.22422 0.90938,0.0438 1.39922,-0.12617 0.0977,-0.0336 0.19414,-0.0711 0.29102,-0.10704 -0.0641,0.0801 -0.12539,0.1629 -0.19258,0.24063 -0.23555,0.27266 -0.34141,0.34414 -0.66641,0.46328 0.28242,0.18516 0.58672,0.36016 0.85,0.5707 -1.9664,-0.31718 -3.96445,-0.47851 -5.94531,-0.68437 1.6793,-1.12109 3.31719,-2.20273 4.87305,-3.49883 z"
     id="path34"
     style="fill:url(#gradient_2);stroke-width:0.390625" />
  <path
     fill="#8e614f"
     d="m 64.50789,78.931795 q 0.424609,-0.739062 0.926172,-1.428516 0.501172,-0.689062 1.073828,-1.320703 0.572656,-0.63125 1.209375,-1.197656 0.63711,-0.566406 1.33125,-1.061328 c 3.201953,-2.305078 7.493359,-3.449219 11.410547,-2.805469 -2.272266,0.185156 -4.675391,0.288281 -6.876172,0.889063 0.620703,0.08359 1.194141,-0.07539 1.772656,-0.291016 0.745313,-0.278125 2.553516,-0.435547 3.304297,-0.13125 0.204688,0.08281 0.314453,0.175781 0.484766,0.299609 -4.505469,0.01524 -8.059375,1.027344 -11.29375,4.303125 -1.05586,1.069141 -1.917188,2.246875 -2.74375,3.496485 z"
     id="path35"
     style="stroke-width:0.390625" />
  <path
     fill="#c69784"
     d="m 85.550078,28.313436 c -0.79375,0.396093 -1.755079,0.770703 -2.656641,0.555859 -0.954297,-0.227734 -1.888672,-0.922656 -2.339453,-1.797266 -0.315234,-0.612109 -0.353906,-1.266797 -0.140625,-1.918554 0.298047,-0.908789 1.098047,-1.617617 1.921484,-2.046172 0.536719,-0.01156 0.66836,-0.04953 1.083203,0.342539 0.594922,0.562344 0.911329,2.058515 0.91211,2.834297 0,0.414844 0.02773,0.721484 0.143359,1.128125 0.354297,0.239844 0.340625,0.232422 0.766016,0.178125 z"
     id="path36"
     style="stroke-width:0.390625" />
  <path
     fill="#c69784"
     d="m 313.37469,183.2275 c 0.0535,0.7875 -1.22578,2.27344 -1.52813,3.10312 -0.82968,2.27344 -1.43359,4.78633 -1.56679,7.20664 -1.14141,-0.56367 -2.34336,-1.02461 -3.51914,-1.5125 l -2.02188,-0.7414 c 3.46992,-2.13047 6.13555,-4.86641 8.63594,-8.05586 z"
     id="path37"
     style="stroke-width:0.390625" />
  <defs
     id="defs38">
    <linearGradient
       id="gradient_3"
       gradientUnits="userSpaceOnUse"
       x1="199.11769"
       y1="264.49362"
       x2="191.68407"
       y2="264.89648"
       gradientTransform="matrix(0.390625,0,0,0.390625,-12.531563,-13.82758)">
      <stop
         offset="0"
         stop-color="#8F5954"
         id="stop37" />
      <stop
         offset="1"
         stop-color="#A5706A"
         id="stop38" />
    </linearGradient>
  </defs>
  <path
     fill="url(#gradient_3)"
     d="m 64.50789,78.931795 0.599219,0.752344 C 62.625078,84.755233 62.483671,89.64273 64.32039,94.98062 q 0.274609,0.78985 0.590235,1.56407 0.316015,0.77382 0.672265,1.53046 0.35625,0.75625 0.752344,1.49258 0.395703,0.73672 0.830078,1.45117 0.433984,0.71446 0.905469,1.40508 0.471484,0.69024 0.978906,1.35508 0.507031,0.66445 1.048828,1.30156 0.541797,0.63672 1.116406,1.24414 l -0.436328,0.51446 C 67.386796,104.0939 64.125078,98.12203 62.924687,93.94703 61.422734,88.72281 61.898124,83.700154 64.50789,78.931795 Z"
     id="path38"
     style="fill:url(#gradient_3);stroke-width:0.390625" />
  <path
     fill="#e7e8ca"
     d="m 164.67821,147.79625 c 1.05234,0.9039 7.45078,9.17656 7.60468,10.18086 l -0.48945,-0.0574 c -2.93086,-1.23086 -5.70273,-2.72266 -8.46758,-4.28399 0.6332,-1.89766 0.98985,-3.87617 1.35235,-5.83945 z"
     id="path39"
     style="stroke-width:0.390625" />
  <path
     fill="#8e614f"
     d="m 158.18055,138.79234 c 2.31641,1.87422 5.51406,4.55977 7.27344,6.91172 l 0.0367,0.9918 -0.98672,-1.23633 -0.23711,0.0488 c -1.20274,2.02422 -1.58633,4.91523 -2.12891,7.20156 l -2.19531,-1.73789 c -0.0641,-4.56992 -0.60391,-7.76289 -1.76211,-12.17969 z"
     id="path40"
     style="stroke-width:0.390625" />
  <path
     fill="#d8bbab"
     d="m 40.132109,90.63453 c 0.730859,-3.66992 2.033203,-6.685548 4.089062,-9.802735 1.382422,1.009375 2.363282,2.030469 3.326563,3.437891 -2.061719,1.485156 -2.638672,2.874604 -3.339844,5.242964 -0.191406,1.11797 -0.454687,2.27579 -0.546875,3.40391 -0.04297,1.02422 0.221875,3.58399 -0.246094,4.375 l -0.205078,0.11016 c -0.777734,-0.84805 -1.574609,-2.01836 -2.107422,-3.04375 -0.30039,-0.57813 -0.367578,-0.77735 -0.15664,-1.39219 -0.07109,-0.80625 -0.05977,-1.53125 -0.329297,-2.30547 z"
     id="path41"
     style="stroke-width:0.390625" />
  <path
     fill="#e9cdb3"
     d="m 42.250078,92.79469 c -0.08359,-0.002 -0.167969,0.007 -0.250782,-0.006 -0.407421,-0.0613 -0.435156,-0.10078 -0.64414,-0.45625 l 0.205859,-0.36953 c 0.34375,0.0266 0.232813,7.8e-4 0.526563,0.0797 0.06211,0.0168 0.123437,0.0356 0.184765,0.0535 0.287891,-0.64258 0.425782,-1.24063 0.558985,-1.93047 0.477343,-0.48399 0.730078,-0.48789 1.376562,-0.65313 -0.191406,1.11797 -0.454687,2.27579 -0.546875,3.40391 -0.04297,1.02422 0.221875,3.58399 -0.246094,4.375 l -0.205078,0.11016 c -0.777734,-0.84805 -1.574609,-2.01836 -2.107422,-3.04375 -0.30039,-0.57813 -0.367578,-0.77735 -0.15664,-1.39219 0.453515,0.18945 0.700781,0.45508 1.03164,0.80273 l 0.135157,0.14414 c -0.01484,-0.32421 -0.01953,-0.56875 0.06563,-0.88711 0.0207,-0.0777 0.04805,-0.1539 0.07187,-0.23085 z"
     id="path42"
     style="stroke-width:0.390625" />
  <path
     fill="#9f7169"
     d="m 195.55047,192.54312 c 1.09297,0.82266 5.08359,8.16641 6.07813,9.75625 4.50937,7.20703 10.36757,15.81133 15.82109,22.3711 6.17461,7.42695 13.44922,12.41289 21.20859,17.99023 -0.31015,-0.0422 -0.55742,-0.0793 -0.85312,-0.18789 -5.2082,-1.91602 -14.70664,-9.27226 -18.35078,-13.21016 -3.71641,-4.0164 -6.06485,-8.90195 -9.06016,-13.4207 -4.84336,-7.30742 -11.2043,-15.34375 -14.84375,-23.29883 z"
     id="path43"
     style="stroke-width:0.390625" />
  <path
     fill="#8e614f"
     d="m 165.45399,145.70406 c 3.01172,2.70781 5.57031,6.42969 7.89297,9.74063 2.2246,3.17109 4.57421,6.29492 6.60703,9.59296 2.78203,4.51368 5.12461,9.24532 7.63476,13.91016 0.88086,1.63711 3.52891,5.86797 3.51485,7.55898 -0.004,0.38868 0.0355,0.24883 -0.24649,0.5254 -1.63828,-1.50625 -5.86406,-10.56641 -7.36172,-13.3125 q -2.33203,-4.29727 -4.91445,-8.44883 c -2.34414,-3.72657 -4.76797,-7.53828 -7.35781,-11.09727 -1.37657,-1.8918 -4.91133,-5.60586 -5.73242,-7.47773 z"
     id="path44"
     style="stroke-width:0.390625" />
  <path
     fill="#adaf98"
     d="m 360.83016,268.13492 c 0.47109,0.15039 0.62383,0.19609 0.94297,0.59766 1.09023,1.37187 4.99258,9.63164 4.78906,11.09882 -0.65625,0.33907 -1.43047,0.33047 -2.15625,0.3875 -0.26797,-0.0316 -0.53047,-0.0855 -0.79219,-0.15273 -1.63906,-0.41953 -3.04648,-2.29141 -3.81719,-3.7043 -0.95507,-1.75195 -1.6625,-4.07734 -1.00546,-6.03476 0.39687,-1.18086 0.93086,-1.675 2.03906,-2.19219 z"
     id="path45"
     style="stroke-width:0.390625" />
  <path
     fill="#9f7169"
     d="m 224.58992,156.47203 c 2.25196,-0.0172 4.51446,0.10586 6.76875,0.11953 1.13594,2.43906 2.28204,4.84844 3.67774,7.15273 l -0.17969,0.26016 c -2.72031,0.18828 -5.41641,0.62109 -8.14531,0.675 -0.8707,-2.70586 -1.61914,-5.40625 -2.12149,-8.20742 z"
     id="path46"
     style="stroke-width:0.390625" />
  <path
     fill="#9f7169"
     d="m 295.18406,131.85406 c 1.75743,0.63984 3.6254,2.31992 5.09961,3.4793 7.61133,5.98711 15.51758,13.15351 20.94297,21.23047 -5.79101,-1.65235 -12.64375,-11.06797 -16.73593,-15.47149 -2.98711,-3.21445 -6.09532,-6.25039 -9.30665,-9.23828 z"
     id="path47"
     style="stroke-width:0.390625" />
  <path
     fill="#8e614f"
     d="m 150.65906,133.92984 c 2.09883,0.97227 4.27969,2.4082 6.12344,3.80625 1.40352,4.64766 2.14531,7.7086 2.20469,12.55625 -6.61836,-5.09805 -6.10273,-8.89023 -8.32813,-16.3625 z"
     id="path48"
     style="stroke-width:0.390625" />
  <path
     fill="#e7e8ca"
     d="m 40.132109,90.63453 0.484375,0.0258 c 0.269531,0.77422 0.258203,1.49922 0.329297,2.30547 -0.210938,0.61484 -0.14375,0.81406 0.15664,1.39219 0.532813,1.02539 1.329688,2.1957 2.107422,3.04375 0.647656,0.75742 1.110938,4.5707 1.550782,5.84218 0.352734,1.01954 0.882812,1.90743 1.435546,2.82774 -1.245312,0.69961 -2.569531,1.40937 -4.051171,1.12695 -1.452344,-0.27695 -2.294532,-1.3793 -3.067969,-2.53867 -0.458985,-4.72305 0.339453,-9.37031 1.055078,-14.02539 z"
     id="path49"
     style="stroke-width:0.390625" />
  <path
     fill="#fefefe"
     d="M 47.314921,105.54547 C 46.27,104.61226 45.585624,103.34351 45.181328,102.01031 44.105937,98.46422 44.418437,89.80992 46.342265,86.6107 c 0.322266,-0.535936 0.602344,-0.712108 1.200391,-0.846093 0.555859,0.16875 0.816015,0.445703 1.117968,0.925783 2.479688,3.93789 2.096485,9.70625 1.132422,14.00625 -0.4875,-1.09844 -1.168359,-2.74414 -2.351562,-3.2293 -0.4375,-0.17929 -0.55,-0.11601 -0.98125,0.0141 -0.697656,0.7336 -0.84375,1.60899 -0.798047,2.60235 0.08555,1.85117 0.866406,3.44336 1.883594,4.95039 z"
     id="path50"
     style="stroke-width:0.390625" />
  <path
     fill="#adaf98"
     d="m 344.99227,251.81578 c 1.78047,0.0203 3.45703,0.64141 4.99375,1.50898 1.6793,0.94766 3.2332,2.33203 3.71797,4.27344 0.18476,0.73945 0.13398,1.37344 -0.28438,2.02891 -0.63476,0.99609 -1.73633,1.28437 -2.8125,1.53203 -2.13125,0.0957 -4.3832,0.14492 -6.30508,-0.94219 -1.66523,-0.94219 -2.3625,-2.30859 -2.8207,-4.08555 0.16875,-0.77461 0.33398,-1.54804 0.70078,-2.25781 0.62461,-1.21015 1.56055,-1.66484 2.81016,-2.05781 z"
     id="path51"
     style="stroke-width:0.390625" />
  <path
     fill="#d8bbab"
     d="m 39.818046,258.23375 c 1.841407,1.41758 3.68125,2.79648 5.696485,3.96133 -2.403516,4.38671 -6.105078,7.50078 -9.429688,11.13281 -1.169922,1.27812 -2.199218,2.68164 -3.229297,4.07265 l -2.446484,3.77071 c 2.312109,-7.9336 5.650781,-15.58789 9.408984,-22.9375 z"
     id="path52"
     style="stroke-width:0.390625" />
  <path
     fill="#9f7169"
     d="m 312.38758,157.99976 c 2.76641,1.78125 6.10469,2.81914 9.35703,3.22852 0.81836,5.62226 1.39336,10.59297 2.53555,16.23789 -2.69024,-2.16953 -4.8,-4.55703 -7.83828,-6.34492 -0.32344,-4.88203 -1.97813,-8.77149 -4.0543,-13.12149 z"
     id="path53"
     style="stroke-width:0.390625" />
  <path
     fill="#e9cdb3"
     d="m 213.91688,110.73804 c 1.27265,-0.66484 7.27812,1.38086 8.80468,1.85938 3.29297,1.03281 7.81758,2.98633 11.13868,3.425 3.28633,0.43359 11.60898,-2.00742 14.63203,-3.56602 0.35742,-0.18437 0.38476,-0.16718 0.60937,-0.51601 l 0.002,-0.71055 c 1.37421,0.075 6.33203,1.55 7.86796,2.0418 -7.32226,2.53281 -14.58632,5.34844 -22.33554,6.24101 -3.44688,-2.55468 -11.41914,-5.07382 -15.77617,-6.21562 -1.45977,-0.38242 -3.62227,-0.62773 -4.95157,-1.28438 -0.26328,-0.21054 -0.56758,-0.38554 -0.85,-0.5707 0.325,-0.11914 0.43086,-0.19062 0.66641,-0.46328 0.0672,-0.0777 0.12851,-0.16055 0.19258,-0.24063 z"
     id="path54"
     style="stroke-width:0.390625" />
  <path
     fill="#9f7169"
     d="m 282.50047,178.31422 c 0.93281,1.07617 1.62656,2.7164 2.37774,3.9539 1.61718,2.66524 3.34257,5.26407 4.95781,7.93321 -3.37617,1.38671 -4.90391,3.7789 -6.93008,6.60546 l -0.20273,0.25743 -0.28399,0.0305 c -0.9375,-1.40235 -1.58398,-4.16915 -2.34258,-5.86094 -1.18867,-2.65 -2.68437,-5.15899 -4.07812,-7.7043 2.63437,-1.35469 4.46484,-3.11562 6.50195,-5.21523 z"
     id="path55"
     style="stroke-width:0.390625" />
  <path
     fill="#fefefe"
     d="m 38.08914,78.767733 c 1.766406,-0.114454 2.782031,0.208593 4.320313,0.998828 -2.983985,5.092578 -4.64336,11.006249 -5.097657,16.882029 -0.150781,1.94727 0.01641,4.05352 -0.319922,5.96524 l -0.06836,0.36875 c -1.021484,-1.25157 -1.878515,-2.46172 -2.570703,-3.925 -2.047656,-4.32774 -2.682422,-10.60469 -1.016016,-15.145707 0.901563,-2.458203 2.388672,-4.072656 4.752345,-5.14414 z"
     id="path56"
     style="stroke-width:0.390625" />
  <path
     fill="#9f7169"
     d="m 215.5868,107.75328 c 7.67969,-0.8375 20.48086,0.53437 28.17617,2.07422 1.12539,0.22539 3.12656,0.42031 3.98945,1.17969 0.0625,0.0555 0.11954,0.11679 0.1793,0.17539 -0.0719,0.42617 0.0328,0.30664 -0.28984,0.53203 -1.19414,0.83437 -9.96289,2.87461 -11.76328,3.10195 -1.01016,0.12773 -1.98985,0.10625 -2.98672,-0.10273 -2.51875,-0.52774 -5.10938,-1.73282 -7.57188,-2.53672 -3.26367,-1.06602 -6.59023,-1.86797 -9.92539,-2.67071 l -0.0508,-0.2082 c 0.30703,-0.26914 0.63945,-0.42265 0.68984,-0.83867 l -0.13046,-0.10859 z"
     id="path57"
     style="stroke-width:0.390625" />
  <path
     fill="#9f7169"
     d="m 354.73914,220.81969 c 0.99805,-0.0609 1.98828,-0.01 2.98203,0.0867 3.05118,0.29532 6.00196,1.42149 7.95039,3.90391 1.08946,1.38828 1.67305,3.07305 1.44688,4.84297 -0.38711,3.02539 -2.81211,5.27187 -5.12695,6.99414 -0.64883,-0.84453 -0.93164,-2.60469 -1.68008,-3.68477 -2.49844,-3.60585 -6.64297,-6.07382 -10.91719,-6.83007 1.33399,-1.31211 2.10742,-2.75079 3.21719,-4.21602 0.67226,-0.88711 1.0707,-0.94805 2.12773,-1.09687 z"
     id="path58"
     style="stroke-width:0.390625" />
  <path
     fill="#9f7169"
     d="m 338.4786,232.8357 c 1.66171,0.5707 3.47265,1.91992 4.75312,3.10938 2.76094,2.56523 3.49297,5.15312 3.61133,8.81796 -3.88359,1.01211 -7.72461,2.56055 -11.56992,3.74766 l -2.18242,0.63125 c -0.32696,-1.74805 -0.60704,-3.54141 -1.07657,-5.25664 -0.87109,-3.18203 -2.3125,-5.29531 -5.21093,-6.95234 q 5.98437,-1.63047 11.67539,-4.09727 z"
     id="path59"
     style="stroke-width:0.390625" />
  <path
     fill="#9f7169"
     d="m 161.64578,126.86969 c 5.35703,0.41093 9.17305,4.99218 12.78399,8.51992 -0.73242,0.74922 -1.36133,1.59648 -2.12696,2.31718 -2.36289,2.22422 -5.62304,3.31172 -8.61484,4.39844 -3.87539,-3.95429 -7.56719,-7.05586 -12.63398,-9.42539 3.09609,-2.46523 6.6,-5.16133 10.59179,-5.81015 z"
     id="path60"
     style="stroke-width:0.390625" />
  <path
     fill="#9f7169"
     d="m 348.93914,226.61617 c 0.86836,0.1918 1.69102,0.41055 2.5125,0.7543 4.53282,1.89453 7.96055,5.12461 9.80586,9.6707 -3.1,2.56367 -6.76992,4.24258 -10.37343,5.96602 l -3.09922,1.38945 c 0.0184,-1.54492 -0.10313,-2.96406 -0.60039,-4.4418 -1.29102,-3.83906 -4.37618,-5.85664 -7.82266,-7.54726 3.42734,-1.60508 6.79219,-3.17344 9.57734,-5.79141 z"
     id="path61"
     style="stroke-width:0.390625" />
  <path
     fill="#9f7169"
     d="m 174.81219,135.94273 c 1.97031,1.15703 8.525,9.725 10.37461,12.02969 -3.40898,3.71836 -5.59805,5.55195 -10.16367,7.78828 -3.59532,-4.34609 -6.78477,-8.91719 -10.57852,-13.13281 4.01875,-1.24531 8.15781,-2.90039 10.36758,-6.68516 z"
     id="path62"
     style="stroke-width:0.390625" />
  <defs
     id="defs63">
    <linearGradient
       id="gradient_4"
       gradientUnits="userSpaceOnUse"
       x1="375.67133"
       y1="282.37701"
       x2="216.67522"
       y2="231.43837"
       gradientTransform="matrix(0.390625,0,0,0.390625,-12.531563,-13.82758)">
      <stop
         offset="0"
         stop-color="#6E4348"
         id="stop62" />
      <stop
         offset="1"
         stop-color="#936056"
         id="stop63" />
    </linearGradient>
  </defs>
  <path
     fill="url(#gradient_4)"
     d="m 98.507887,85.256014 c 8.163683,-3.998828 16.716803,-7.371875 25.033213,-11.051563 6.41523,-2.838281 12.71054,-6.08125 19.1832,-8.7625 0.28945,0.716797 0.55469,1.454297 0.93711,2.127344 -7.32109,4.078125 -15.14102,7.258594 -22.78672,10.682422 -7.07344,3.167187 -14.13281,6.622656 -21.346483,9.452343 1.438283,5.89024 1.274613,12.21367 -1.97344,17.52461 -0.34414,0.56211 -0.85235,1.47695 -1.36094,1.87188 -0.29844,0.51835 -0.69961,1.00234 -1.10234,1.44218 -2.37969,2.6 -6.42852,4.81797 -9.982425,4.98477 -5.849219,0.27422 -10.244141,-2.90508 -14.330469,-6.68828 l 0.436328,-0.51446 c 3.38086,3.39844 7.545313,6.25899 12.510157,6.29805 4.423439,0.0352 7.696089,-2.07656 10.849609,-4.99883 2.74063,-3.03945 4.24102,-6.60273 4.81602,-10.65234 0.805073,-5.6668 -1.20352,-11.184767 -4.59024,-15.681251 -4.07109,-5.405078 -8.974608,-8.452735 -15.655858,-9.40586 -0.170313,-0.123828 -0.280078,-0.216797 -0.484766,-0.299609 -0.750781,-0.304297 -2.558984,-0.146875 -3.304297,0.13125 -0.578515,0.215625 -1.151953,0.374609 -1.772656,0.291016 2.200781,-0.600782 4.603906,-0.703907 6.876172,-0.889063 5.550781,0.440625 10.420705,3.785156 13.960545,7.91875 1.61055,1.880469 2.96719,4.014063 4.08828,6.219141 z"
     id="path63"
     style="fill:url(#gradient_4);stroke-width:0.390625" />
  <path
     fill="#9f7169"
     d="m 163.00985,124.82437 c 10.42773,-6.50039 19.35586,-11.10195 31.30664,-14.31211 2.39883,-0.64414 5.15859,-1.48125 7.63789,-1.47031 l 0.14375,0.62813 c -0.36407,0.0789 -0.70938,0.17851 -1.05274,0.32421 -5.30742,2.25821 -10.93164,6.28008 -13.10078,11.79297 -6.92539,1.22149 -13.94844,3.09493 -20.76484,4.83868 -1.30156,-0.8586 -2.70117,-1.32149 -4.16992,-1.80157 z"
     id="path64"
     style="stroke-width:0.390625" />
  <path
     fill="#9f7169"
     d="m 325.26063,237.37867 c 0.83867,-0.0777 1.56797,0.32578 2.23398,0.81055 3.21446,2.33906 3.90977,7.62578 4.5711,11.21093 q -6.78086,1.83789 -13.68946,3.11641 l -2.99023,0.57266 c 0.225,-4.77852 -0.83555,-9.3168 -3.40156,-13.35821 4.51367,-0.54648 8.84648,-1.31797 13.27617,-2.35234 z"
     id="path65"
     style="stroke-width:0.390625" />
  <path
     fill="#d8bbab"
     d="m 190.9536,188.69195 c 0.23593,0.001 0.57148,-0.0219 0.80859,0.032 0.58008,0.13242 0.8082,0.30313 1.08984,0.81055 2.31055,4.15976 4.20196,8.55508 6.61094,12.68008 1.60938,2.75586 3.54297,5.23945 5.29336,7.8875 -0.22148,-0.0793 -0.40156,-0.30391 -0.5707,-0.46172 -3.76836,-3.51367 -9.14453,-7.27344 -14.55977,-6.99727 -6.54453,0.33399 -10.76484,5.24336 -14.76211,9.78282 0.55899,-3.0875 1.60821,-5.64415 3.44883,-8.17969 2.70859,-3.34531 6.29297,-5.83516 10.25352,-7.43594 1.34648,-0.54414 2.9164,-0.95273 4.15039,-1.69883 0.29609,-0.1789 0.34179,-0.13515 0.42343,-0.47343 -1.60507,-0.35782 -3.19609,0.26523 -4.70468,0.78359 -6.86446,2.35703 -10.80703,7.06211 -13.91875,13.44258 0.36015,-1.8668 0.81679,-3.64571 1.53789,-5.40977 2.76679,-6.76523 8.22187,-11.96758 14.89922,-14.7625 z"
     id="path66"
     style="stroke-width:0.390625" />
  <path
     fill="#c69784"
     d="m 78.442265,184.44078 c 2.185547,0.36836 5.655078,1.70195 6.941016,3.63203 0.318359,0.47813 0.439844,0.91172 0.326562,1.48477 -0.313672,1.58593 -9.504297,20.74765 -10.173047,21.18125 l -0.271093,-0.20821 c -2.626954,-1.99101 -5.315625,-3.75273 -8.142188,-5.44336 0.604297,-1.42226 1.49375,-2.78515 2.247266,-4.13672 l 4.082422,-7.37031 c 1.627343,-2.95508 3.057031,-6.40429 4.989062,-9.13945 z"
     id="path67"
     style="stroke-width:0.390625" />
  <path
     fill="#9f7169"
     d="m 185.8118,148.6357 c 3.51484,3.45156 8.54687,11.83672 11.39727,16.29805 -3.85782,2.35781 -6.58047,5.61914 -10.87344,7.34844 l -0.50469,0.12265 c -0.94805,-0.67305 -2.69297,-4.30586 -3.43984,-5.55664 -2.16055,-3.61836 -4.56407,-7.04922 -7.07735,-10.4293 4.4,-1.70976 7.70938,-3.94882 10.49805,-7.7832 z"
     id="path68"
     style="stroke-width:0.390625" />
  <path
     fill="#9f7169"
     d="m 309.45828,239.96031 c 0.18711,-0.0297 0.37383,-0.0629 0.56211,-0.0781 0.48672,-0.0402 0.7668,0.11601 1.11133,0.43945 2.7,2.53711 3.19414,9.42969 3.39688,12.94609 -6.68711,1.1543 -13.30352,1.30938 -20.07774,1.2961 l -2.6582,-0.025 c 0.90586,-2.08672 1.83164,-4.23946 2.11211,-6.51602 0.35703,-2.89727 -0.38555,-5.70469 -2.18086,-7.99727 5.89531,0.26993 11.85664,0.58907 17.73437,-0.0652 z"
     id="path69"
     style="stroke-width:0.390625" />
  <path
     fill="#9f7169"
     d="m 190.80789,126.8064 c 1.1043,0.65664 9.27969,11.71368 10.51289,13.55469 q -3.7125,1.49492 -7.26328,3.3418 -3.55039,1.84687 -6.90586,4.02851 l -1.03906,-1.28398 q -5.57695,-6.95508 -11.70273,-13.43164 c 5.38711,-2.33555 10.95195,-4.04883 16.39804,-6.20938 z"
     id="path70"
     style="stroke-width:0.390625" />
  <path
     fill="#e7e8ca"
     d="m 59.121953,215.90289 0.510937,0.0551 c -0.902734,2.02851 -2.182031,3.96054 -3.265234,5.90273 -2.233985,4.00508 -4.353516,8.01094 -6.057422,12.27383 -2.41836,6.05039 -3.934766,16.30859 -1.283985,22.46484 -1.707031,-0.93008 -3.35664,-1.91992 -4.883203,-3.12656 -1.601172,-1.42539 -2.447656,-3.57969 -2.957422,-5.61758 -1.677343,-6.70429 -1.725,-14.68086 1.979297,-20.74375 3.464844,-5.67109 9.55625,-9.70429 15.957032,-11.20859 z"
     id="path71"
     style="stroke-width:0.390625" />
  <path
     fill="#d8bbab"
     d="m 64.972343,209.28961 c 2.953907,1.43125 5.670313,3.45039 8.467578,5.17343 -3.297265,5.41407 -7.619922,9.97383 -11.082421,15.26055 -3.965235,6.0543 -6.832422,12.86016 -10.060547,19.32383 q -1.365235,2.6793 -2.851172,5.29375 c -1.801172,-13.19414 2.563672,-20.93281 8.519531,-32.02148 2.332812,-4.34297 4.553906,-8.75391 7.007031,-13.03008 z"
     id="path72"
     style="stroke-width:0.390625" />
  <path
     fill="#e9cdb3"
     d="m 85.239531,27.590389 c 0.258593,-1.557422 0.445312,-3.267266 -0.565235,-4.629492 -0.378125,-0.509415 -0.911718,-0.824922 -1.542968,-0.894961 -0.879688,-0.09762 -1.808204,0.30707 -2.470703,0.864257 q -0.155469,0.128125 -0.297266,0.270977 -0.142188,0.142852 -0.269141,0.299023 -0.127344,0.156133 -0.238281,0.324063 -0.111328,0.167969 -0.205078,0.346055 -0.09414,0.178086 -0.170313,0.36457 -0.07578,0.186484 -0.133203,0.37957 -0.05703,0.193086 -0.09492,0.390781 -0.03789,0.198047 -0.05625,0.398438 c -0.09883,1.204297 0.385547,2.322266 1.210157,3.183984 0.802343,0.838282 1.688672,1.275 2.858984,1.25625 1.711719,-0.02734 3.238672,-0.969531 4.354683,-2.208593 2.22852,-2.47461 3.43867,-6.519571 3.2125,-9.83418 -0.11797,-1.729219 -0.65976,-3.784805 -1.99101,-4.991836 -0.99102,-0.89875 -2.332814,-1.219453 -3.646486,-1.081914 -2.303515,0.241172 -4.249609,2.209492 -5.608203,3.959062 -1.840625,2.370118 -2.408984,5.173282 -2.787109,8.079961 l -0.0125,-0.02641 -0.0832,0.269375 c -0.642969,-1.15543 0.165625,-4.5925 0.540234,-5.888828 0.925,-3.203594 2.576172,-6.100078 5.601953,-7.737734 2.341407,-1.2672657 5.324601,-1.5480857 7.867571,-0.7882037 q 0.19766,0.05777 0.39219,0.1257427 0.19414,0.06797 0.38477,0.145937 0.19062,0.07797 0.37695,0.165742 0.18633,0.08773 0.36797,0.185039 0.18164,0.09731 0.35781,0.203907 0.17617,0.106601 0.34648,0.222187 0.17032,0.115625 0.33477,0.239883 0.16407,0.124297 0.32148,0.256953 0.15782,0.132617 0.30821,0.273281 0.15039,0.140625 0.29336,0.288868 0.14298,0.148281 0.27812,0.30375 0.13478,0.155468 0.26172,0.317734 0.12695,0.162305 0.24492,0.330937 0.11836,0.168633 0.22774,0.343164 0.10898,0.174571 0.20937,0.354532 0.1,0.18 0.19063,0.364922 c 1.73086,3.466718 1.8957,7.078007 0.63281,10.718164 -1.3293,3.832382 -3.92539,7.91207 -7.70273,9.703867 -0.37657,0.178515 -0.72696,0.271875 -1.132813,0.355859 l -0.52539,-0.241015 c -2.502739,-0.687106 -5.045318,-1.473434 -6.888677,-3.413278 -1.808203,-1.903125 -2.645312,-4.383984 -2.560547,-6.987187 0.109375,-3.357422 1.569922,-6.716055 4.096094,-8.959883 1.257031,-1.116328 2.887109,-2.021289 4.621484,-1.852187 0.957813,0.09332 1.811329,0.523281 2.418749,1.274882 1.21563,1.503672 1.24609,3.874688 1.02031,5.716524 -0.35664,2.90914 -1.47929,5.993398 -3.854293,7.839492 -0.06133,0.04766 -0.123438,0.09414 -0.185156,0.141016 z"
     id="path73"
     style="stroke-width:0.390625" />
  <path
     fill="#9f7169"
     d="m 210.66024,187.10054 c 1.13632,1.07149 4.47187,7.55274 5.6082,9.37188 q 3.27344,5.1457 6.79609,10.12383 -0.5125,0.81836 -1.03828,1.62812 c -1.53164,2.36016 -5.72226,8.41211 -8.49804,9.00157 l -0.46094,-0.51407 c -5.00391,-6.82226 -9.58828,-13.69453 -13.80313,-21.0332 4.76211,-1.41836 7.97539,-5.18438 11.3961,-8.57813 z"
     id="path74"
     style="stroke-width:0.390625" />
  <path
     fill="#9f7169"
     d="m 329.26219,168.13726 c 1.10586,1.14414 2.00156,2.87618 2.86523,4.23555 7.50235,11.81211 12.43204,25.41875 16.15586,38.8543 0.95547,3.44804 2.01524,6.91953 2.51055,10.46836 -0.6125,0.98633 -1.27266,1.84687 -2.03359,2.72343 -0.75391,0.74688 -1.53789,1.46875 -2.30586,2.20118 -1.3418,-3.63008 -2.29414,-7.40196 -3.43985,-11.09727 -1.41015,-4.54844 -3.02382,-9.07148 -4.66132,-13.54336 -2.675,-7.30469 -6.71368,-14.85078 -8.52696,-22.35156 -0.85039,-3.5168 -1.22851,-7.92774 -0.56406,-11.49063 z"
     id="path75"
     style="stroke-width:0.390625" />
  <path
     fill="#9f7169"
     d="m 197.51297,165.98609 c 1.55,0.68477 11.04531,17.41055 12.68828,20.21758 -3.28906,3.15781 -6.86992,7.5918 -11.43867,8.71133 -1.79102,-2.3461 -3.15937,-4.96875 -4.69141,-7.48164 -2.89531,-4.74844 -5.86406,-9.48555 -8.22812,-14.52813 4.91836,-0.77265 7.61601,-4.45781 11.66992,-6.91914 z"
     id="path76"
     style="stroke-width:0.390625" />
  <path
     fill="#9f7169"
     d="m 262.94578,234.25875 c 9.18164,3.18359 18.42813,4.6332 28.04766,5.68008 q 0.42461,0.79023 0.77656,1.61562 c 1.91524,4.525 0.86094,8.04805 -0.90156,12.3418 l -0.30234,0.36367 c -3.50235,0.69336 -23.30196,-3.23711 -27.7336,-4.39609 1.53242,-6.36172 1.39414,-9.23047 0.11328,-15.60508 z"
     id="path77"
     style="stroke-width:0.390625" />
  <path
     fill="#e7e8ca"
     d="m 217.18563,229.09273 c 4.36289,4.94297 10.05351,9.41602 15.93672,12.45742 -1.78125,3.24063 -4.45664,5.15079 -7.39883,7.26368 1.71758,0.0637 3.89726,-1.74141 5.11875,-2.86368 1.25781,-1.15586 2.29922,-2.43828 3.12695,-3.9332 15.43125,8.10859 32.1793,12.01445 49.45469,13.62149 -3.00039,0.16757 -5.98281,0.0875 -8.98555,0.0687 -10.61445,-0.0668 -20.84336,-0.91094 -31.3332,-2.55821 -6.12969,-0.9625 -12.26641,-2.05742 -18.17344,-4 -5.03906,-1.05156 -11.39297,-4.39687 -15.75117,-7.05664 q -0.83867,-3.02617 -1.30078,-6.13203 c 3.32656,-1.9543 6.3039,-4.45742 9.30586,-6.86758 z"
     id="path78"
     style="stroke-width:0.390625" />
  <path
     fill="#9f7169"
     d="m 205.82938,145.54703 c 4.28828,3.42891 13.33281,12.93164 13.90078,18.40352 0.51992,5.00703 -7.99063,12.64687 -11.16133,16.33085 l -1.47148,-2.52265 c -5.09766,-8.89492 -10.96407,-17.28281 -16.80547,-25.69414 5.23906,-2.0211 10.31914,-4.44141 15.5375,-6.51758 z"
     id="path79"
     style="stroke-width:0.390625" />
  <path
     fill="#9f7169"
     d="m 78.993437,35.701717 c 1.621875,0.570703 3.192187,1.071484 4.931641,1.077734 1.298437,0.0047 2.846875,-0.347656 4.095699,0.0059 3.89414,1.103125 7.67071,2.84414 11.56368,4.030078 q 4.206253,1.276953 8.467963,2.355078 4.26172,1.078515 8.56914,1.955078 4.30743,0.876953 8.65157,1.550391 4.34414,0.673437 8.71484,1.142187 c 1.54453,1.824219 2.76445,3.939063 4.24649,5.826953 -2.87344,0.579297 -5.72149,1.261328 -8.62461,1.682422 -12.46524,2.026563 -29.28008,1.074219 -41.470323,-2.100391 -4.170699,-1.086328 -9.018356,-3.14375 -11.224215,-7.111718 -0.466797,-0.839844 -0.870313,-1.735938 -0.5875,-2.678125 0.189063,-0.144531 0.234766,-0.196875 0.484375,-0.290235 0.668359,-0.25039 3.254297,-0.60625 3.847656,-0.289062 0.373828,0.50625 0.358594,0.99375 0.404297,1.598437 l 0.01875,0.278125 0.227344,0.183204 c 0.385937,-0.301954 0.586328,-0.487501 0.702344,-0.982032 0.545312,-2.325821 -1.829297,-6.350821 -3.019141,-8.234024 z"
     id="path80"
     style="stroke-width:0.390625" />
  <path
     fill="#9f7169"
     d="m 223.68524,207.59742 c 0.70937,0.77539 1.30039,1.81992 1.91406,2.68242 1.32109,1.85781 2.70625,3.68125 4.31055,5.30664 2.40507,2.43672 5.41562,4.01328 7.90273,6.31094 0.0641,0.059 0.12656,0.11992 0.18984,0.17969 0.12305,1.10937 0.27461,2.25273 0.16407,3.36718 -0.46602,4.71016 -3.62071,8.16758 -7.08594,11.04688 1.74805,-0.67969 3.21719,-1.51211 4.49297,-2.93086 2.83359,-3.15078 3.66601,-6.93047 3.39258,-11.04766 7.075,4.85079 14.90156,8.43868 22.95429,11.33438 0.37539,1.86758 0.68008,3.70351 0.89844,5.59805 0.13438,3.50976 -0.13672,6.72929 -0.88789,10.16289 -5.16523,-1.28633 -11.76211,-3.10938 -16.62852,-5.22305 -2.36171,-1.02578 -4.57851,-2.38594 -6.77851,-3.71563 -9.83945,-5.94726 -17.65039,-13.53359 -24.51445,-22.71875 4.38945,-2.77695 6.92578,-6.00664 9.67578,-10.35312 z"
     id="path81"
     style="stroke-width:0.390625" />
  <path
     fill="#9f7169"
     d="m 319.03016,181.35758 c 0.51211,0.068 0.89101,0.15234 1.34023,0.41914 10.18555,6.05586 18.35586,36.02109 21.41641,47.75039 q -3.17422,1.4914 -6.41875,2.82383 c -4.00508,1.55781 -8.06797,2.74492 -12.2207,3.8371 -0.45625,-1.28476 -0.75235,-2.64218 -1.03555,-3.97421 q -1.92188,-9.47188 -3.46602,-19.0125 c -1.3125,-8.34297 -4.32617,-24.5918 0.38438,-31.84375 z"
     id="path82"
     style="stroke-width:0.390625" />
  <path
     fill="#9f7169"
     d="m 225.79266,171.46383 c 2.00586,-0.084 4.10859,-0.0934 6.05469,0.44726 4.07695,1.13281 8.0789,4.61719 10.10351,8.28867 0.9461,1.71524 1.61445,3.72969 1.50196,5.70508 -0.30235,5.30391 -3.4168,11.61641 -5.25821,16.6711 -1.07851,2.96054 -1.98242,5.96601 -2.97656,8.9539 -0.59922,1.80078 -1.29805,3.56211 -1.82891,5.38555 l -2.47383,-2.36914 c -2.78867,-2.86875 -4.96835,-6.20742 -7.21367,-9.50039 -2.85078,-4.18086 -5.6164,-8.33985 -8.1789,-12.7043 -1.63946,-2.79297 -3.14649,-5.72891 -4.9586,-8.40977 4.94297,-4.31406 10.3086,-8.10312 15.22852,-12.46796 z"
     id="path83"
     style="stroke-width:0.390625" />
  <path
     fill="#e7e8ca"
     d="m 310.83446,255.78726 0.84336,-0.0926 0.16953,0.16718 c -0.70782,2.65352 -1.8793,5.28477 -2.85547,7.8543 -1.76914,4.65625 -3.47774,9.40742 -5.68867,13.875 -2.22696,1.075 -4.29297,2.60469 -6.49141,3.77187 -6.66211,3.53751 -18.97031,9.16758 -26.33086,9.95626 l -0.40977,-0.11329 c -0.28515,-0.22031 -0.3914,-0.36132 -0.53476,-0.7039 -1.61641,-3.85313 7.63867,-28.52149 9.88789,-33.06094 4.32148,-0.0875 8.60547,-0.69414 12.91406,-0.90938 6.18789,-0.30937 12.30469,-0.20156 18.4961,-0.74453 z"
     id="path84"
     style="stroke-width:0.390625" />
  <path
     fill="#e7e8ca"
     d="m 128.04735,122.31578 c 0.43398,0.41758 3.46796,12.88828 3.97656,14.46523 2.70469,8.38321 6.16289,16.10547 10.48476,23.77149 -3.16953,1.01719 -6.1289,2.75664 -9.17968,4.08828 -4.45,1.94297 -8.9961,3.57539 -13.5918,5.13125 -2.21758,0.7 -4.4543,1.23789 -6.7168,1.76758 -0.80547,-1.77305 -1.21875,-3.80235 -1.70586,-5.68281 -2.59375,-10.01016 -4.11093,-20.61758 -4.1375,-30.96719 8.16719,-1.84531 14.85508,-7.00352 20.87032,-12.57383 z"
     id="path85"
     style="stroke-width:0.390625" />
  <path
     d="m 79.144609,71.884529 c 6.68125,0.953125 11.584768,4.000782 15.655858,9.40586 3.38672,4.496484 5.395313,10.014451 4.59024,15.681251 -0.575,4.04961 -2.07539,7.61289 -4.81602,10.65234 -3.15352,2.92227 -6.42617,5.03399 -10.849609,4.99883 -4.964844,-0.0391 -9.129297,-2.89961 -12.510157,-6.29805 q -0.574609,-0.60742 -1.116406,-1.24414 -0.541797,-0.63711 -1.048828,-1.30156 -0.507422,-0.66484 -0.978906,-1.35508 -0.471485,-0.69062 -0.905469,-1.40508 -0.434375,-0.71445 -0.830078,-1.45117 Q 65.93914,98.8314 65.58289,98.07515 65.22664,97.31851 64.910625,96.54469 64.594999,95.77047 64.32039,94.98062 c -1.836719,-5.33789 -1.695312,-10.225387 0.786719,-15.296481 0.826562,-1.24961 1.68789,-2.427344 2.74375,-3.496485 3.234375,-3.275781 6.788281,-4.28789 11.29375,-4.303125 z"
     id="path86"
     style="stroke-width:0.390625" />
  <path
     fill="#e7e8ca"
     d="m 69.548124,101.68687 c -3.233203,-3.41992 -5.170703,-9.90234 -5.021875,-14.54765 0.125782,-3.920316 1.604297,-7.496097 4.505079,-10.166409 2.676562,-2.464063 6.296875,-4.047657 9.976171,-3.844922 5.366016,0.295703 10.110548,3.810937 13.520708,7.716797 3.53125,4.044531 5.96992,9.639844 5.59882,15.085544 -0.30546,4.48946 -2.44765,8.93594 -5.87226,11.86914 -2.60352,2.23008 -6.101564,3.64688 -9.566799,3.29453 -0.687109,-0.0699 -1.375781,-0.19414 -2.054297,-0.32421 -1.266797,-0.45704 -2.605078,-0.90352 -3.736718,-1.64219 -2.835157,-1.28672 -5.74375,-4.85391 -7.348829,-7.44063 z"
     id="path87"
     style="stroke-width:0.390625" />
  <path
     fill="#fefefe"
     d="m 69.548124,101.68687 0.429688,0.0973 c 0.939062,1.30742 2.236328,3.21406 3.545312,4.13984 l 0.25,-0.11679 c 0.03281,-0.26211 0.07656,-0.475 -0.01523,-0.73243 -0.23125,-0.65117 -0.726562,-1.31523 -1.062109,-1.93515 -0.542969,-1.00391 -0.854297,-2.07031 -1.149219,-3.16836 l 0.2125,-0.10391 0.121094,0.24336 c 1.7375,3.53125 2.429297,6.63516 6.214843,8.6293 -0.351171,0.002 -0.70039,0.007 -1.051562,0.0187 l -0.146484,0.36875 c -2.835157,-1.28672 -5.74375,-4.85391 -7.348829,-7.44063 z"
     id="path88"
     style="stroke-width:0.390625" />
  <path
     fill="#e7e8ca"
     d="m 71.759062,99.86734 -0.03125,-0.1664 c -0.310547,-1.57266 -0.887109,-3.08086 -1.241797,-4.64571 -0.819141,-3.61133 -0.696484,-8.16601 1.372266,-11.366794 0.859375,-1.330079 2.086718,-2.285938 3.658984,-2.594922 2.219141,-0.436328 4.339063,0.345312 6.139063,1.616797 3.719531,2.626953 5.799218,6.630859 6.520699,11.059769 0.23672,1.45156 0.64766,4.5457 0.05,5.83906 l -0.0949,0.0418 c -0.743748,3.61328 -2.262108,5.77968 -4.873436,8.30273 -0.921484,0.88984 -1.847656,1.70547 -2.583203,2.76133 -0.01328,0.0187 -0.02773,0.0363 -0.0418,0.0547 -1.266797,-0.45704 -2.605078,-0.90352 -3.736718,-1.64219 l 0.146467,-0.36876 c 0.351172,-0.0117 0.700391,-0.0168 1.051562,-0.0187 -3.785546,-1.99414 -4.477343,-5.09805 -6.214843,-8.6293 z"
     id="path89"
     style="stroke-width:0.390625" />
  <path
     d="m 71.759062,99.86734 -0.03125,-0.1664 c -0.310547,-1.57266 -0.887109,-3.08086 -1.241797,-4.64571 -0.819141,-3.61133 -0.696484,-8.16601 1.372266,-11.366794 0.859375,-1.330079 2.086718,-2.285938 3.658984,-2.594922 2.219141,-0.436328 4.339063,0.345312 6.139063,1.616797 3.719531,2.626953 5.799218,6.630859 6.520699,11.059769 0.23672,1.45156 0.64766,4.5457 0.05,5.83906 l -0.0949,0.0418 c -0.0367,-2.72539 -0.18633,-5.41133 -0.999608,-8.03321 -1.117187,-3.60273 -3.607812,-7.235935 -7.047656,-8.965623 -1.380469,-0.69414 -2.916015,-0.973437 -4.40625,-0.463671 -1.658203,0.567578 -2.899219,1.960937 -3.635937,3.5125 -2.007813,4.228904 -0.455078,9.249214 0.933593,13.399604 0.614844,-1.08984 1.470704,-1.97656 2.733985,-2.28359 1.258594,-0.30586 2.6625,0.3082 3.676562,1.01406 2.034766,1.41641 3.219141,3.86836 3.539454,6.28321 0.153906,1.16172 0.139843,2.57695 -0.605469,3.55273 -0.603516,0.79024 -1.53711,1.06914 -2.491407,1.1543 -0.579687,0.0519 -1.164843,0.0406 -1.734375,-0.0812 -3.785546,-1.99414 -4.477343,-5.09805 -6.214843,-8.6293 z"
     id="path90"
     style="stroke-width:0.390625" />
  <path
     fill="#9f7169"
     d="m 295.64344,195.98726 c 3.59922,-0.33281 7.09492,0.40821 10.03203,2.59571 1.99727,1.48789 3.5625,3.52734 4.61328,5.77617 2.49727,5.3457 3.38438,11.97695 4.48242,17.75351 q 1.51016,7.64532 2.73282,15.3418 c -3.51485,0.60313 -7.08985,1.13672 -10.65586,1.28789 -7.14532,0.57891 -14.40664,0.05 -21.51875,-0.67305 -0.0856,-8.81601 -1.63438,-30.81679 3.1457,-37.96523 1.68164,-2.51445 4.33828,-3.53828 7.16836,-4.1168 z"
     id="path91"
     style="stroke-width:0.390625" />
  <path
     fill="#e9cdb3"
     d="m 206.60281,112.30094 c 2.27969,0.7996 6.62344,1.04765 9.37735,1.73515 6.1164,1.52695 11.88086,3.93516 17.70898,6.28516 2.82696,5.20273 6.24336,10.76758 10.53321,14.89023 -2.66993,5.49297 -6.59141,11.91719 -12.00079,15.07344 -0.0527,0.0223 -0.10507,0.0453 -0.1582,0.0664 -2.79375,1.09961 -5.41992,0.95234 -8.16328,-0.20352 -11.07422,-4.66641 -24.08086,-18.75352 -28.59609,-29.99922 3.79961,-2.57187 7.525,-5.23945 11.29882,-7.84765 z"
     id="path92"
     style="stroke-width:0.390625" />
  <path
     d="m 209.99774,114.92047 c 2.93125,-0.27227 5.79765,0.075 8.56562,1.09375 8.40039,3.09258 17.76758,12.96953 21.47813,21.0539 -2.91719,4.35899 -5.93828,8.10235 -10.19883,11.23203 -3.76133,-1.62773 -6.41016,-2.56679 -9.99375,-4.82539 -5.30781,-3.34531 -18.92383,-15.6375 -20.11289,-21.58515 -0.11875,-0.59492 -0.12031,-1.06602 0.24531,-1.57852 1.54297,-2.16289 7.35508,-4.85117 10.01641,-5.39062 z"
     id="path93"
     style="stroke-width:0.390625" />
  <path
     fill="#9f7169"
     d="m 210.80867,116.11187 c 2.00352,-0.15468 4.13204,0.10313 6.05938,0.66211 8.76445,2.5418 17.57305,12.27813 21.88555,20.03672 -1.58985,2.60664 -3.59688,5.18672 -5.66524,7.42227 -0.94726,1.02343 -2.5289,2.80781 -3.99336,2.86132 l -0.14961,-0.0602 c -10.01289,-4.08516 -24.13672,-15.79336 -28.4375,-25.90899 3.19219,-2.27578 6.34492,-4.44414 10.30078,-5.01328 z"
     id="path94"
     style="stroke-width:0.390625" />
  <path
     fill="#e9cdb3"
     d="m 257.80985,113.58726 c 1.61406,0.1043 4.50312,1.46289 6.10664,2.08438 10.6957,4.14336 17.78242,10.25312 25.58086,18.35195 1.43125,1.48633 2.75078,3.06953 4.20429,4.53633 -2.2,1.82969 -4.0875,3.77852 -6.51211,5.36484 -4.83984,3.1668 -9.45312,5.89375 -15.3707,4.64336 -9.43711,-2.37929 -19.75391,-7.73633 -26.57773,-14.66758 -3.82657,-3.88671 -6.97071,-8.50546 -9.83282,-13.12617 5.96289,-0.92265 11.35743,-2.48515 17.01446,-4.53437 1.5414,-0.55821 3.28867,-1.06602 4.73593,-1.83125 0.50157,-0.26524 0.49883,-0.30313 0.65118,-0.82149 z"
     id="path95"
     style="stroke-width:0.390625" />
  <path
     d="m 255.19891,118.59664 c 5.39453,0.19336 17.70703,7.17617 22.37539,10.30625 2.03476,1.36406 9.90391,6.8664 10.00547,8.975 0.0231,0.4793 -0.27695,0.9539 -0.55742,1.31953 -0.6461,0.84258 -1.56563,1.5418 -2.37618,2.21836 -2.6914,2.24726 -5.22929,3.81016 -8.75937,4.25195 -2.09219,0.059 -4.17305,-0.54804 -6.11719,-1.26875 -6.37109,-2.36211 -23.36992,-12.21328 -25.90742,-18.24336 -0.29609,-0.70351 -0.41914,-1.50976 -0.10078,-2.22851 0.78125,-1.76485 9.37734,-4.53867 11.4375,-5.33047 z"
     id="path96"
     style="stroke-width:0.390625" />
  <path
     fill="#9f7169"
     d="m 255.27196,119.76812 c 0.0793,0.007 0.15937,0.009 0.23789,0.0203 1.36445,0.19531 2.81836,0.86835 4.11445,1.35078 8.29414,3.08906 15.61562,7.26445 22.6,12.69531 1.55391,1.20781 3.37773,2.46641 4.58125,4.02695 -2.64102,3.10313 -6.28164,5.84531 -10.30508,6.72891 -1.30234,0.0262 -2.5293,-0.0871 -3.79258,-0.3961 -6.77617,-1.65625 -24.39804,-12.18398 -27.81054,-18.20039 -0.30977,-0.54609 -0.4336,-0.96523 -0.25391,-1.58906 1.93789,-1.64805 8.02852,-3.77305 10.62852,-4.63672 z"
     id="path97"
     style="stroke-width:0.390625" />
  <path
     fill="#e7e8ca"
     d="m 142.76024,161.23023 c 0.23515,0.2043 5.00312,7.49922 6.09062,8.86016 3.65078,4.56992 7.93125,8.52226 12.15586,12.5414 -1.94414,1.95313 -3.41523,4.42383 -5.27734,6.47383 -6.39571,7.04297 -14.67422,11.6 -23.78047,14.12735 l -2.1957,0.56093 c -7.14219,-9.2332 -13.03086,-20.06289 -16.41993,-31.2375 10.3918,-2.49765 19.93399,-6.47382 29.42696,-11.32617 z"
     id="path98"
     style="stroke-width:0.390625" />
  <path
     fill="#e7e8ca"
     d="m 161.48328,183.01422 c 6.02149,4.68203 11.51993,8.34062 18.4125,11.6582 -2.00547,2.25742 -3.91015,4.79766 -5.12539,7.57734 -1.44336,3.30235 -2.16836,8.62696 -0.84023,12.04102 -3.70703,5.34297 -6.22344,11.49883 -8.69141,17.48281 -3.68945,-1.22851 -7.34297,-3.43281 -10.70117,-5.38789 -9.31953,-5.5289 -17.21797,-13.11055 -23.98516,-21.5168 3.04219,-1.03164 6.15313,-1.93359 9.12266,-3.16093 9.35469,-3.86524 16.43984,-10.17891 21.8082,-18.69375 z"
     id="path99"
     style="stroke-width:0.390625" />
  <path
     fill="#e7e8ca"
     d="m 345.00281,247.29273 c 0.0266,-0.004 0.0527,-0.0133 0.0793,-0.0129 1.57305,0.0266 5.77031,4.91953 6.95352,6.1543 -2.21328,-1.17227 -4.51563,-2.47969 -7.11563,-2.24024 -1.13828,0.10469 -2.28515,0.53907 -2.99492,1.475 -0.79375,1.04649 -1.16523,2.69493 -0.99531,3.98672 0.19922,1.51914 1.1,2.80391 2.31367,3.70196 1.98555,1.46875 5.26094,1.99531 7.68789,1.58906 1.15781,-0.19375 2.28438,-0.73281 2.92734,-1.75156 0.86563,-1.37071 0.51407,-2.69258 0.18789,-4.16289 1.63047,1.87265 6.85157,9.12421 6.93086,11.34882 -0.15156,0.0531 -0.30156,0.10938 -0.45351,0.16094 -0.91445,0.31172 -1.53633,0.61992 -2.06836,1.46953 -0.93438,1.49219 -0.81602,3.59258 -0.39258,5.22774 0.60313,2.32734 2.12266,4.91406 4.24531,6.12656 1.64961,0.94219 2.99649,0.81172 4.78125,0.37266 1.56524,3.09804 7.15196,17.30507 7.21094,20.17343 0.009,0.40352 -0.0441,0.34493 -0.30039,0.61524 -7.06602,-0.4586 -14.33594,-3.64258 -20.52383,-6.95899 -13.32695,-7.14179 -23.05117,-18.51914 -29.14648,-32.2664 -1.20039,-2.70743 -2.35508,-5.41602 -3.21094,-8.25547 8.17539,-1.9125 15.97344,-3.88906 23.88398,-6.75352 z"
     id="path100"
     style="stroke-width:0.390625" />
  <path
     d="m 341.60242,263.96695 c 2.66329,-0.16523 5.38946,0.79492 7.66485,2.13164 2.07695,1.22031 4.28086,3.1875 4.85078,5.6082 0.1707,0.7254 0.11328,1.49297 -0.30039,2.13008 -0.80352,1.23672 -2.16524,1.70899 -3.52774,1.97735 -2.70937,0.0699 -5.84961,-1.16094 -8.21914,-2.38985 -1.67851,-0.87031 -3.55586,-2.08554 -4.10156,-4.00781 -0.31641,-1.11367 -0.0488,-2.36562 0.5293,-3.34805 0.7125,-1.21132 1.79101,-1.74609 3.1039,-2.10156 z"
     id="path101"
     style="stroke-width:0.390625" />
  <path
     fill="#adaf98"
     d="m 340.93406,264.91734 c 1.83047,-0.19219 3.34883,0.0379 5.06915,0.64883 2.67812,0.95078 5.82773,2.83945 7.01601,5.5418 0.2711,0.61679 0.37891,1.26914 0.0961,1.90273 -0.47735,1.07109 -1.33008,1.56836 -2.37305,1.98594 -0.38438,0.0348 -0.75508,0.0258 -1.13867,-0.0129 -3.08399,-0.3086 -8.26289,-2.19961 -10.23594,-4.68906 -0.54414,-0.68633 -0.9332,-1.57071 -0.79063,-2.46368 0.21211,-1.33007 1.30547,-2.21875 2.35703,-2.91367 z"
     id="path102"
     style="stroke-width:0.390625" />
  <path
     fill="#9f7169"
     d="m 254.52703,187.96265 q 0.8125,-0.0488 1.62657,-0.0512 c 4.71445,-0.0402 13.22226,1.87031 16.59609,5.37266 7.21875,7.49414 4.00977,32.81211 3.95586,43.22422 q -4.88945,-1.09336 -9.72344,-2.41016 c -8.82734,-2.71992 -17.0832,-6.56445 -25.0207,-11.25859 1.5668,-6.99414 8.16094,-30.14219 12.56562,-34.87696 z"
     id="path103"
     style="stroke-width:0.390625" />
  <path
     fill="#e9cdb3"
     d="m 294.46375,139.05953 c 5.38321,4.17539 12.85742,13.76367 16.39571,19.72539 3.28945,5.54258 5.37968,12.14297 3.68007,18.56992 -1.59804,6.04297 -5.95898,10.37227 -11.22265,13.45508 q -2.65313,-0.54414 -5.33555,-0.91836 c -2.46836,-0.42695 -4.57461,-0.39844 -7.03828,0.0254 -0.99648,-1.20625 -1.79961,-2.62422 -2.62539,-3.95195 -1.51797,-2.43946 -2.96172,-4.92031 -4.03086,-7.59492 -1.63672,-4.09297 -2.45078,-8.50274 -3.46836,-12.77969 -0.66875,-2.81133 -1.48203,-5.55664 -2.29727,-8.32617 -0.64804,-2.20118 -1.14804,-4.95118 -2.37617,-6.88243 6.35313,-1.80546 14.25313,-5.96914 18.31875,-11.32226 z"
     id="path104"
     style="stroke-width:0.390625" />
  <path
     d="m 294.65282,144.77594 c 0.50117,-0.0367 0.86992,0.22343 1.26015,0.50546 5.69649,4.11797 14.69727,16.89141 15.68867,23.62227 0.61367,4.16836 -2.23789,10.15625 -4.76875,13.34883 -2.16836,2.73554 -4.63398,4.91094 -8.22226,5.34023 -2.02188,-0.0418 -4.0293,-0.25625 -5.8043,-1.32812 -1.23711,-0.74727 -2.05352,-1.69297 -2.65898,-2.9918 -2.45625,-5.26562 -3.50118,-12.19336 -5.01211,-17.8957 -1.20352,-4.54258 -2.79024,-8.98203 -3.92344,-13.53907 4.2625,-2.80937 8.57226,-5.41171 13.44102,-7.0621 z"
     id="path105"
     style="stroke-width:0.390625" />
  <path
     fill="#9f7169"
     d="m 294.1825,145.92398 c 0.40742,0.001 0.67969,0.0621 1.02774,0.2918 5.5625,3.66875 14.12031,16.5332 15.10078,22.97266 0.52187,3.42734 -1.93438,8.60742 -3.89219,11.3289 -1.95703,2.72031 -4.49883,5.26445 -7.92539,5.81485 -1.57227,0.0394 -3.07969,-0.0738 -4.51563,-0.78907 -1.1246,-0.56015 -2.34882,-1.58437 -2.90273,-2.73008 -1.72148,-3.56132 -3.04375,-10.79687 -4.12852,-14.99648 -1.35585,-5.24883 -2.97421,-10.37305 -4.7125,-15.50469 3.85508,-2.43242 7.79102,-4.52578 11.94844,-6.38789 z"
     id="path106"
     style="stroke-width:0.390625" />
  <defs
     id="defs107">
    <linearGradient
       id="gradient_5"
       gradientUnits="userSpaceOnUse"
       x1="237.38629"
       y1="157.0204"
       x2="294.67355"
       y2="256.2601"
       gradientTransform="matrix(0.390625,0,0,0.390625,-12.531563,-13.82758)">
      <stop
         offset="0"
         stop-color="#D3C5AD"
         id="stop106" />
      <stop
         offset="1"
         stop-color="#E5EEC7"
         id="stop107" />
    </linearGradient>
  </defs>
  <path
     fill="url(#gradient_5)"
     d="m 76.973515,49.091561 c 1.235156,0.708984 2.572656,2.36914 4.017578,3.226172 8.069534,4.785937 29.717187,5.961328 39.112507,5.430859 5.63593,-0.317969 11.00859,-1.141016 16.50078,-2.435938 1.87773,2.931641 3.8082,5.840235 5.32539,8.980078 -4.87774,1.683594 -9.58828,4.219141 -14.30235,6.328907 q -14.20039,6.292968 -28.322653,12.760156 c -3.08164,-5.158203 -7.17578,-9.279297 -12.563674,-11.958594 q -1.758984,-0.79414 -3.642578,-1.214453 C 78.603203,69.211873 73.395,69.562264 69.463749,72.132186 c -5.054296,3.303906 -7.673046,8.367187 -8.844531,14.143364 -3.320312,-0.901568 -5.866797,-0.384771 -8.946484,0.99062 -1.309766,-3.589062 -3.05586,-6.075781 -5.836328,-8.668359 1.934765,-3.721875 4.103906,-7.130469 6.690234,-10.433985 0.07656,0.576953 0.135156,1.219531 0.330859,1.769531 0.283594,0.798047 0.890625,1.545704 1.666407,1.902344 0.953515,0.438672 2.133593,0.200391 3.075,-0.149219 3.196094,-1.18789 5.707812,-3.865625 7.130859,-6.892187 -1.6625,1.801562 -3.394922,3.683984 -5.416406,5.089062 -1.142969,0.794532 -2.638672,1.338282 -4.037891,1.003907 -0.600781,-0.14375 -1.285156,-0.516407 -1.570312,-1.094141 -0.291016,-0.589844 -0.324219,-1.19414 -0.151172,-1.825781 0.547656,-1.998438 2.548828,-3.733203 4.008203,-5.111328 6.585156,-6.217969 11.855078,-9.128907 19.411328,-13.764453 z"
     id="path107"
     style="fill:url(#gradient_5);stroke-width:0.390625" />
  <path
     fill="#908a7f"
     d="M 64.883671,63.095076 Q 67.47,62.736092 70.047734,62.320857 l 0.323828,0.264063 c -1.530078,0.998828 -3.392188,1.5625 -5.187891,1.872656 -0.05469,-0.457031 -0.192968,-0.914062 -0.3,-1.3625 z"
     id="path108"
     style="stroke-width:0.390625" />
  <path
     d="m 65.183671,64.457576 c -0.253906,-0.03164 -0.464453,-0.100781 -0.663281,-0.277734 -0.415234,-0.370313 -0.582422,-0.703516 -0.553515,-1.252344 0.118359,-2.262891 2.11289,-4.482812 3.722265,-5.914062 2.329688,-2.071485 7.008594,-4.341016 10.189063,-4.059766 0.901953,0.07969 2.217968,0.325391 2.766015,1.145703 0.253125,0.378516 0.246094,0.795703 0.131641,1.216406 -1.026563,3.776953 -7.254688,5.656641 -10.404297,7.269141 l -0.323828,-0.264063 c 2.362891,-0.975 8.530469,-4.142578 9.463281,-6.507421 0.200781,-0.509766 0.11875,-0.775 -0.03359,-1.284375 -0.612109,-0.670703 -1.304687,-0.870703 -2.205468,-0.892188 -3.246485,-0.07813 -7.775391,2.350391 -10.045704,4.591406 -1.474999,1.45586 -2.139062,2.824219 -2.342578,4.866797 0.107032,0.448438 0.245313,0.905469 0.3,1.3625 z"
     id="path109"
     style="stroke-width:0.390625" />
  <path
     d="m 71.793046,63.002498 c 0.504688,0.02031 1.014453,0.04102 1.513672,0.121485 1.346094,0.216406 2.946094,0.899999 3.783203,2.00664 0.0543,0.299609 0.15586,0.466406 0.0012,0.74961 -0.410156,0.750781 -1.385156,0.899218 -2.139453,1.116406 -0.800781,0.102734 -1.607812,0.184375 -2.412891,0.08008 -1.169531,-0.151563 -2.697656,-0.834766 -3.358203,-1.864844 -0.296484,-0.463281 -0.242578,-0.70625 -0.129296,-1.219531 0.793359,-0.888672 1.60664,-0.895703 2.741796,-0.989844 z"
     id="path110"
     style="stroke-width:0.390625" />
  <path
     fill="#908a7f"
     d="m 70.234843,63.731795 c 1.155469,-0.04297 2.214063,-0.05625 3.355078,0.190234 0.883985,0.190625 2.021485,0.465235 2.5375,1.267188 -0.08906,0.465234 -0.15039,0.4375 -0.471875,0.751172 -1.176562,0.310156 -2.345312,0.371094 -3.542968,0.147656 -0.875391,-0.162891 -1.53086,-0.358203 -2.063672,-1.120703 -0.09883,-0.632422 -0.103516,-0.667188 0.185937,-1.235547 z"
     id="path111"
     style="stroke-width:0.390625" />
  <path
     fill="#adaf98"
     d="m 64.883671,63.095076 c 0.203516,-2.042578 0.867579,-3.410937 2.342578,-4.866797 2.270313,-2.241015 6.799219,-4.669531 10.045704,-4.591406 0.900781,0.02148 1.593359,0.221485 2.205468,0.892188 0.152344,0.509375 0.234375,0.774609 0.03359,1.284375 -0.932812,2.364843 -7.10039,5.532421 -9.463281,6.507421 q -2.577734,0.415235 -5.164063,0.774219 z"
     id="path112"
     style="stroke-width:0.390625" />
  <path
     d="m 88.756717,58.50992 c 2.84336,-0.217578 5.39141,-0.02852 7.81758,1.693359 1.50078,1.065235 2.96484,2.666797 3.2168,4.563282 0.13867,1.042968 -0.13828,2.076953 -0.82578,2.879297 -1.4543,1.697656 -3.84571,1.890234 -5.92071,2.036328 -2.92929,-0.19336 -5.845311,-1.027344 -8.362108,-2.565235 -1.334765,-0.816015 -2.803515,-2.026953 -3.139062,-3.641406 -0.153906,-0.741797 -0.0055,-1.476172 0.437109,-2.092188 1.36836,-1.905468 4.595313,-2.59414 6.776171,-2.873437 z"
     id="path113"
     style="stroke-width:0.390625" />
  <path
     fill="#adaf98"
     d="m 88.218827,59.47242 c 2.54609,-0.309375 5.00938,-0.185937 7.27227,1.167187 1.47031,0.879297 3.15703,2.416407 3.49414,4.182422 0.13867,0.727344 -0.0164,1.46875 -0.48321,2.049219 -1.19531,1.486719 -3.38984,1.724219 -5.15507,1.905859 q -0.51836,-0.0031 -1.03555,-0.03984 -0.5168,-0.03672 -1.03047,-0.10625 -0.51367,-0.06992 -1.02148,-0.172657 -0.50821,-0.102734 -1.0086,-0.23789 -0.50039,-0.135156 -0.99101,-0.302344 -0.49063,-0.167187 -0.969535,-0.365625 -0.478906,-0.198047 -0.944141,-0.426953 -0.464843,-0.228906 -0.914453,-0.487109 c -1.21914,-0.700782 -2.688672,-1.714453 -3.014453,-3.175782 -0.135156,-0.605859 -0.0078,-1.215234 0.367188,-1.713281 1.082031,-1.4375 3.741796,-1.974609 5.434374,-2.276953 z"
     id="path114"
     style="stroke-width:0.390625" />
  <path
     d="m 115.87938,59.495857 c 2.43476,-0.04844 4.92187,0.138672 7.13359,1.257422 1.18359,0.598438 2.23516,1.485157 2.59688,2.808204 0.28164,1.031249 0.0473,2.101953 -0.52344,2.991015 -1.9086,2.975781 -6.65547,4.230078 -9.8918,4.925781 -0.52265,0.107813 -1.04062,0.18125 -1.57148,0.234766 -2.39961,0.241797 -5.11914,0.140625 -7.04258,-1.5125 -0.92461,-0.794922 -1.47305,-1.876172 -1.53867,-3.096094 -0.0856,-1.585547 0.60586,-3.134765 1.65625,-4.295703 2.40664,-2.659375 5.82383,-3.095312 9.18125,-3.312891 z"
     id="path115"
     style="stroke-width:0.390625" />
  <path
     fill="#adaf98"
     d="m 114.09774,60.458358 c 2.65547,-0.169922 5.59687,-0.245313 8.06718,0.898828 1.01329,0.469531 2.09844,1.23125 2.4418,2.351953 0.22344,0.729687 0.10469,1.469531 -0.24961,2.135547 -1.34805,2.533203 -5.30039,3.751562 -7.86523,4.50664 -0.58008,0.147266 -1.17617,0.242188 -1.76602,0.340235 -2.34219,0.389843 -5.18125,0.598437 -7.18476,-0.921485 -0.85196,-0.646484 -1.42657,-1.572656 -1.5461,-2.641797 -0.15195,-1.358203 0.41797,-2.7 1.29024,-3.718359 1.78047,-2.079687 4.20664,-2.723047 6.8125,-2.951562 z"
     id="path116"
     style="stroke-width:0.390625" />
  <path
     fill="#c69784"
     d="m 87.407499,34.795076 q -0.519921,0.110547 -1.041796,0.210547 c -2.946875,0.561719 -6.191407,0.360156 -8.71211,-1.450391 -3.449218,-2.477734 -5.359375,-8.022265 -5.894531,-12.060585 -0.635937,-4.797461 0.138281,-9.771055 3.166016,-13.6703127 2.824218,-3.636836 7.378906,-5.583164 11.8625,-6.102773 C 102.72742,-0.12566569 120.0993,11.8441 131.3075,22.156912 c 5.1836,4.769414 10.53633,10.84793 16.00899,15.111992 l 0.22031,0.169922 -0.36445,-0.626562 c -1.78086,-3.063672 -4.30782,-5.583594 -6.77539,-8.094531 q 0.91054,0.48164 1.80507,0.991406 c 4.17539,2.397656 10.82422,7.990234 12.0375,12.851562 0.36407,1.457422 0.15703,2.951953 -0.66523,4.220313 -2.58555,3.9875 -9.62031,5.573437 -13.94024,6.55664 -0.0836,-0.322265 -0.16953,-0.642187 -0.29921,-0.95 -1.23594,-2.923047 -4.8543,-6.721093 -7.05274,-9.139062 -7.87383,-8.659766 -16.23672,-17.433985 -27.35508,-21.816406 1.4711,1.277812 3.33516,2.227382 4.97657,3.281953 q 2.85625,1.866093 5.52578,3.990703 c 6.51992,5.180078 11.97656,11.65625 17.52929,17.823047 -2.44765,-0.646485 -5.01328,-0.933985 -7.50546,-1.376563 -4.35625,-0.774219 -8.74024,-1.612109 -13.04063,-2.653906 q -5.82578,-1.442188 -11.56094,-3.211719 c -3.481253,-1.1 -8.970703,-3.411718 -12.456643,-3.614062 1.79414,-0.874219 3.49297,-1.931641 4.90625,-3.354297 2.92735,-2.947266 5.07578,-8.230274 5.04336,-12.404102 -0.0258,-3.282851 -1.2289,-6.628945 -3.6375,-8.922968 -1.94883,-1.8557427 -4.55351,-2.6905467 -7.21328,-2.6318357 -2.831249,0.06246 -5.339453,1.106054 -7.303124,3.1603117 -3.027735,3.167852 -4.394141,7.424883 -4.278516,11.761328 0.08984,3.347422 1.320312,6.91461 3.844141,9.212656 2.121484,1.931641 4.388672,2.217188 7.125781,2.061329 z"
     id="path117"
     style="stroke-width:0.390625" />
  <path
     fill="#e9cdb3"
     d="m 201.95438,109.04195 c 3.17539,-0.53672 6.23008,-0.96133 9.46133,-1.00898 -4.74844,2.81718 -14.08555,8.21718 -17.75196,12.01875 0.65625,2.49687 2.04063,4.89179 3.36367,7.09023 5.39883,8.97188 13.27813,17.59688 22.36329,22.93008 3.79179,2.22617 7.56015,3.43984 11.93203,2.29297 5.56328,-1.45977 9.77578,-7.94844 12.46367,-12.62031 q 0.9375,-1.65274 1.76953,-3.36094 c 2.07578,1.93945 4.1875,3.75664 6.55117,5.34687 6.09727,4.10274 16.1668,8.74492 23.56992,8.78633 0.15547,3.20039 1.60938,6.78672 2.4086,9.89805 1.39765,5.4414 2.51914,11.00742 4.23828,16.35508 -4.90195,4.52656 -7.04649,6.21523 -14.06953,5.92304 -9.5086,-0.39531 -21.85039,-7.53359 -28.21914,-14.51328 -1.62852,-1.78476 -3.01993,-3.59687 -4.25118,-5.68281 -1.1875,-2.01133 -2.24492,-5.44492 -4.00624,-6.97227 -0.3043,-0.26367 -1.02461,-0.2914 -1.42266,-0.30703 -1.76641,-0.0699 -5.02305,-0.37461 -6.65547,0.22774 -0.51367,0.80664 -0.18984,1.94687 0.009,2.84297 0.56602,2.54843 1.3254,5.05273 2.09688,7.54492 3.31641,-0.0469 6.49844,-0.45742 9.74453,-1.12813 1.64727,2.36602 3.34219,4.62188 5.38711,6.66914 6.13047,6.13672 15.24414,11.125 23.79023,12.6461 3.41407,0.60781 6.57344,0.41757 9.97032,-0.18477 3.37617,5.91875 6.01172,11.52578 7.39179,18.22891 1.4,-3.94102 3.11446,-8.29375 7.14493,-10.22813 4.4789,-2.14961 12.69804,-0.49179 17.21523,1.21836 1.68867,0.63945 3.43945,2.0336 5.12852,2.3918 l 0.33632,-0.20391 c 0.0586,-0.69297 -0.34257,-0.98125 -0.59179,-1.59062 -0.83086,-2.03008 3.69609,-13.04102 4.41172,-15.8336 0.48203,-1.88125 0.62421,-3.76015 0.60586,-5.69648 q 3.46601,2.34805 6.47656,5.25742 c 1.18984,1.15274 2.28086,2.43711 3.51992,3.53516 -0.675,-3.99336 -3.72383,-16.26211 -3.23828,-19.64492 l -0.29688,-1.07461 c -0.82226,-0.80664 -1.72734,-0.10586 -2.76328,-0.32539 -2.79648,-0.59375 -5.65586,-2.28672 -8.38515,-3.23672 l 0.0367,0.0715 c -3.49062,-4.97773 -7.17656,-9.94805 -11.34882,-14.38008 -2.19453,-2.33086 -4.6086,-4.42539 -6.86758,-6.68867 -4.65274,-4.66055 -9.1375,-9.19609 -14.1207,-13.52656 4.53476,2.39961 9.58906,5.21523 13.43828,8.60156 5.15351,4.53359 9.81445,9.8582 14.35156,14.99844 2.74101,3.10586 5.39687,6.58203 8.68555,9.11719 1.94531,1.49961 3.98046,2.47656 6.33125,3.15586 0.74218,0.85937 1.38125,1.80664 2.04257,2.72929 1.70352,1.60781 3.175,4.34805 4.51133,6.29492 -1.50156,3.80039 -0.88906,9.40664 0.0121,13.30196 0.92578,4.00117 2.77617,7.85429 4.37266,11.62304 q 2.24609,5.30313 4.25,10.70274 c 1.55078,4.12187 3.15664,8.27305 4.49023,12.4707 1.28867,4.05664 2.32656,8.20469 3.74961,12.21641 l -2.99844,1.60078 c -3.63164,-13.8707 -9.08515,-36.72305 -19.78671,-46.60234 -0.91797,-0.84727 -2.52149,-2.25352 -3.85821,-2.02813 -0.68476,0.11523 -1.15078,0.78359 -1.45664,1.35195 -5.5164,10.24102 1.51953,43.54766 4.63867,54.83243 -1.22148,0.29296 -2.46093,0.53164 -3.68984,0.79453 -0.31172,-3.9 -1.09219,-7.79532 -1.75547,-11.64688 -1.19922,-6.95937 -2.23516,-14.86172 -5.16094,-21.34492 q -0.35078,-0.78867 -0.78007,-1.5375 -0.42969,-0.74844 -0.9336,-1.44922 -0.5039,-0.70078 -1.07695,-1.34609 -0.57305,-0.64571 -1.20938,-1.22891 -0.27851,-0.25156 -0.56914,-0.48867 -0.29062,-0.2375 -0.59258,-0.45977 -0.30195,-0.22265 -0.61484,-0.43007 -0.3125,-0.20704 -0.63516,-0.39844 -0.32265,-0.19141 -0.65468,-0.3668 -0.33164,-0.175 -0.67188,-0.3332 -0.33984,-0.1586 -0.6875,-0.3 -0.34765,-0.14102 -0.70195,-0.26485 -0.35391,-0.12382 -0.71406,-0.23007 -0.35977,-0.10586 -0.72461,-0.19375 -0.36446,-0.0883 -0.73321,-0.15782 -0.36875,-0.0699 -0.74023,-0.12109 -0.37188,-0.0512 -0.74531,-0.084 -0.37383,-0.0328 -0.74883,-0.0469 -0.375,-0.0141 -0.75,-0.009 -0.375,0.005 -0.74961,0.0277 c -3.07148,0.17656 -6.0625,1.38047 -8.12031,3.72656 -6.05196,6.89883 -4.98516,29.99492 -4.37422,39.14297 -2.06445,-0.38476 -4.15313,-0.68047 -6.22383,-1.03594 1.08828,-10.81953 2.71563,-32.78046 -2.47578,-42.01289 -2.49336,-4.43398 -7.73672,-5.89961 -12.33555,-7.17734 -3.36054,-0.93399 -7.20547,-1.58867 -10.37343,0.19414 q -1.96641,4.11875 -3.68438,8.34727 -1.71797,4.22851 -3.18086,8.55195 -1.46289,4.32305 -2.66562,8.72578 -1.20274,4.40312 -2.14141,8.86953 c -2.42813,-1.52695 -4.6832,-3.26016 -6.95156,-5.01016 2.04882,-4.30625 3.52929,-8.84804 5.18281,-13.31484 1.74609,-4.71641 5.53398,-13.17891 5.62305,-18.08398 0.0684,-3.77422 -1.80899,-7.27383 -4.39024,-9.91641 -4.79844,-4.9125 -8.325,-5.42187 -14.91719,-5.52227 -4.68398,4.55743 -10.23906,8.48985 -15.34296,12.59063 l -0.95586,-1.90938 c 2.01132,-2.31992 4.23515,-4.44375 6.33398,-6.68281 2.37109,-2.52969 5.66992,-6.48398 5.47148,-10.15664 -0.39804,-7.35625 -9.38046,-15.07187 -14.63046,-19.70898 -5.10313,1.34062 -11.60547,4.63593 -16.5961,6.76406 -0.66523,-0.92695 -1.37265,-1.82813 -2.06054,-2.73867 q 7.34375,-4.27031 15.07851,-7.7836 c -2.0457,-3.85742 -8.09922,-11.4832 -11.13476,-15.02226 -1.69649,0.22031 -3.46524,0.98984 -5.08868,1.53984 q -6.60234,2.17227 -13.01523,4.85274 l -5.23438,-4.60703 c 4.79922,-0.75625 9.61836,-2.14727 14.32969,-3.34141 1.98203,-0.50234 4.08906,-1.24922 6.11992,-1.43203 3.45586,-7.99883 7.18321,-7.33008 12.92539,-12.21211 0.40235,-0.3418 0.39454,-0.31055 0.43946,-0.82656 z"
     id="path118"
     style="stroke-width:0.390625" />
  <path
     d="m 247.1118,144.88453 c 3.84453,0.9707 7.51406,3.63047 11.21211,5.13555 4.01484,1.63398 8.14883,2.44687 12.2668,3.69687 3.22851,3.92383 5.75742,11.57852 5.90585,16.67383 0.059,2.03672 -0.46718,4.06133 -1.92773,5.54492 -2.14414,2.17734 -5.6082,2.57188 -8.50937,2.63945 -5.21172,-0.26015 -10.74336,-3.7789 -15.05196,-6.55664 -5.65508,-3.6457 -12.87578,-9.22617 -14.37304,-16.17148 2.66445,-4.03164 6.90117,-7.73594 10.47734,-10.9625 z"
     id="path119"
     style="stroke-width:0.390625" />
  <path
     fill="#9f7169"
     d="m 247.37391,146.07125 c 7.53437,4.01289 14.19922,6.67226 22.51328,8.58906 2.84336,3.42813 5.22461,11.35391 5.40625,15.84531 0.0691,1.71524 -0.36719,3.35469 -1.59023,4.60742 -2.10118,2.15157 -5.26485,2.29063 -8.07188,2.29415 -1.63398,-0.16875 -3.18047,-0.7254 -4.67773,-1.3754 -8.4543,-3.67148 -19.96524,-11.10742 -23.39532,-19.83593 2.59532,-3.71602 6.54063,-6.98438 9.81563,-10.12461 z"
     id="path120"
     style="stroke-width:0.390625" />
  <path
     fill="#e7e8ca"
     d="m 97.130547,212.06734 c 4.873443,-0.37851 9.815623,-0.0996 14.671483,0.3836 6.53086,0.64961 16.96602,3.56796 22.925,0.90703 7.7918,8.21093 16.84063,15.18554 27.23399,19.74843 -5.19063,10.65547 -14.31797,19.39414 -24.84492,24.71368 -20.21446,10.21484 -42.799613,9.44296 -64.3211,4.4375 -5.157422,-1.19961 -10.259766,-2.50391 -15.285938,-4.175 q -3.240234,-1.30977 -6.395703,-2.81172 c 0.534375,-1.27383 5.058984,-10.73281 5.742578,-11.28438 0.378516,0.17657 0.751563,0.31563 1.158203,0.41641 5.508594,1.36601 14.591016,-2.53281 19.275781,-5.27969 -0.220312,0.68399 -0.482812,1.39649 -0.507812,2.12109 -0.02656,0.77618 0.305469,1.56954 0.846094,2.12383 0.927734,0.95157 2.399218,1.15742 3.661718,1.20039 5.627735,0.19063 13.358206,-1.81367 17.555466,-5.70039 q -3.2707,1.27461 -6.63437,2.27891 c -2.42031,0.71719 -11.428908,2.88828 -13.522267,1.31914 -0.369922,-0.27734 -0.567969,-0.54883 -0.566407,-1.02695 0.0074,-2.49297 5.851172,-5.92813 7.690235,-7.50391 -2.531641,0.72344 -4.890625,1.93203 -7.257032,3.06602 -6.717968,3.21953 -13.601562,6.44297 -21.245312,5.85546 3.316015,-7.18359 6.977734,-14.00742 12.301953,-19.93945 7.377734,-8.22031 16.886328,-10.25117 27.51836,-10.85 z"
     id="path121"
     style="stroke-width:0.390625" />
  <path
     fill="#e7e8ca"
     d="m 142.60985,69.92242 c 0.84062,0.141406 0.85468,0.898437 1.05234,1.636328 3.98711,14.887112 2.67969,30.522262 2.8668,45.734762 0.066,5.37149 0.0344,10.95196 1.08281,16.23672 0.96016,4.84063 3.02656,9.76836 5.92969,13.76875 4.14882,5.7168 12.64453,10.93399 19.6,12.02071 4.57929,6.3457 8.22578,13.42421 12.06953,20.2289 1.55625,2.75469 3.02226,5.625 4.8664,8.19844 -3.81484,1.45117 -6.68242,3.86758 -9.675,6.55547 -4.64257,-2.93711 -9.44726,-5.60899 -13.85976,-8.89961 q -1.29102,-0.96172 -2.54727,-1.96914 -1.25586,-1.00742 -2.475,-2.05899 -1.21953,-1.05156 -2.40039,-2.14609 -1.18086,-1.09414 -2.32187,-2.23008 -1.14102,-1.13594 -2.24102,-2.31211 -1.09961,-1.17578 -2.15664,-2.39023 -1.05703,-1.21446 -2.07031,-2.46563 -1.01289,-1.25156 -1.98086,-2.53828 -0.96758,-1.28672 -1.88867,-2.60742 -0.9211,-1.32031 -1.79453,-2.67305 -0.87344,-1.35273 -1.69805,-2.73554 -0.82461,-1.38282 -1.59922,-2.79414 -0.77461,-1.41172 -1.49844,-2.85 -0.72383,-1.4379 -1.3957,-2.90118 -0.67188,-1.46328 -1.29102,-2.94922 -0.61953,-1.48632 -1.18515,-2.99375 c -2.91367,-7.53789 -5.00899,-15.27929 -7.15508,-23.05625 0.40312,-0.4332 0.87617,-0.81093 1.32305,-1.1996 0.42109,1.21601 0.94922,2.42343 1.69726,3.47734 0.91563,1.29101 2.06446,2.3707 3.68164,2.61875 0.93477,0.14375 2.12071,-0.0742 2.87735,-0.64336 l 0.005,-0.27656 c -0.96836,-0.47813 -2.2789,0.15234 -3.42773,-0.28399 -2.14102,-0.81367 -3.4293,-3.46289 -4.31719,-5.43554 3.62852,-3.52071 7.95352,-7.4625 9.33985,-12.50196 -1.90039,1.93477 -3.19766,4.38907 -5.12071,6.32227 -8.1582,8.20156 -19.0957,13.98516 -29.9707,17.6789 -10.214063,4.14727 -22.517581,4.13633 -33.359378,3.77852 9.807813,-3.50469 16.800395,-5.56406 23.679295,-14.04609 1.33321,0.68906 3.71172,2.09414 5.253133,1.81836 0.33359,-0.0594 0.23984,-0.0656 0.45468,-0.38125 -0.33007,-0.55938 -5.400393,-3.11211 -6.334763,-3.39883 -1.50313,-0.46094 -4.92109,-1.22227 -6.34453,-0.49649 l -0.0348,0.26993 c 1.21406,1.15273 3.95195,1.4371 5.57696,1.79101 -8.784771,10.68672 -19.373443,10.06172 -30.307427,16.33867 -2.220312,1.27461 -4.107031,2.88516 -6.029297,4.55586 q -2.851953,-1.85937 -5.353125,-4.16875 c -8.720703,-8.03633 -12.935937,-19.01914 -13.44414,-30.67929 2.179687,1.40039 4.376953,2.17851 6.998437,1.60937 2.23125,-0.48437 4.325,-1.83789 5.55625,-3.775 2.434375,-3.82969 2.530078,-9.56016 1.573828,-13.84805 2.4375,-1.63945 4.736328,-2.21132 7.651172,-2.34257 0.126953,1.36054 0.280078,2.7375 0.546094,4.07812 1.491797,7.52188 7.163672,15.04297 13.504687,19.22461 3.8,2.50586 8.421875,3.82695 12.955081,2.86914 4.51484,-0.9543 8.48945,-4.5043 10.89843,-8.31523 3.582823,-5.66836 4.092583,-11.30196 2.616803,-17.73243 10.77813,-4.463668 21.31797,-9.405464 31.88945,-14.328902 3.22735,-1.503125 6.51368,-2.862891 9.73204,-4.386328 z"
     id="path122"
     style="stroke-width:0.390625" />
  <path
     d="m 46.948124,112.85445 c 0.414454,0.29102 0.738282,0.5582 0.906641,1.0586 0.334766,0.99492 -0.307422,2.19999 -0.700391,3.09843 -0.07266,-0.0219 -0.148046,-0.0359 -0.218359,-0.0656 -0.465234,-0.1961 -0.665234,-0.36446 -0.800391,-0.87383 -0.276171,-1.03867 0.316407,-2.33594 0.8125,-3.21758 z"
     id="path123"
     style="stroke-width:0.390625" />
  <path
     d="m 52.702421,111.24742 c 0.169141,0.0965 0.33711,0.18008 0.476953,0.32188 0.357813,0.36171 0.459766,1.06328 0.476172,1.55351 0.03477,1.03203 -0.371875,1.93164 -1.064062,2.66914 -0.195703,-0.12305 -0.538281,-0.30664 -0.69336,-0.49531 -0.40664,-0.49453 -0.547656,-1.31016 -0.470703,-1.93125 0.119922,-0.96328 0.512891,-1.54766 1.275,-2.11797 z"
     id="path124"
     style="stroke-width:0.390625" />
  <path
     d="m 153.53016,154.97906 c 2.5207,0.83789 4.75742,3.43125 6.03906,5.69414 0.83359,1.47188 1.23516,2.69727 0.78281,4.34922 -0.40781,0.11211 -0.76679,0.22695 -1.19687,0.16914 -1.03867,-0.13984 -1.99805,-0.93633 -2.6582,-1.70117 -1.9625,-2.27266 -3.15,-5.52344 -2.9668,-8.51133 z"
     id="path125"
     style="stroke-width:0.390625" />
  <path
     fill="#adaf98"
     d="m 154.16063,156.21109 c 0.43164,0.26445 0.81562,0.57539 1.19609,0.90899 1.98008,1.73437 4.20859,4.2 4.39102,6.93086 -0.76172,0.14296 -1.16094,0.0543 -1.78907,-0.39415 -2.18242,-1.55781 -3.38632,-4.88632 -3.79804,-7.4457 z"
     id="path126"
     style="stroke-width:0.390625" />
  <path
     d="m 136.54383,95.90094 c 0.26484,-0.0191 0.5332,-0.0418 0.79844,-0.0145 0.54687,0.0562 1.08476,0.45352 1.41289,0.88086 0.82422,1.07305 0.77851,2.78985 0.62812,4.0586 -0.25859,2.17734 -1.23242,4.11992 -2.98164,5.45664 -0.3039,0.005 -0.68398,0.0348 -0.97851,-0.0379 -0.52852,-0.13008 -0.99805,-0.52579 -1.30391,-0.96836 -0.87109,-1.26094 -0.7207,-3.24844 -0.44726,-4.66993 0.37226,-1.93554 1.22695,-3.5914 2.87187,-4.70546 z"
     id="path127"
     style="stroke-width:0.390625" />
  <path
     fill="#adaf98"
     d="m 136.95438,96.42125 c 0.0953,0.0266 0.19297,0.0465 0.28672,0.0793 0.54726,0.19335 0.84687,0.5539 1.0789,1.0707 0.73321,1.63437 0.42422,3.84414 -0.20742,5.4582 -0.47148,1.20508 -1.00703,2.01367 -2.2082,2.52891 -0.42227,-0.18164 -0.76446,-0.3336 -1.07891,-0.68516 -0.65039,-0.72656 -0.77305,-2.09844 -0.69023,-3.01719 0.2,-2.21523 1.10898,-4.03554 2.81914,-5.43476 z"
     id="path128"
     style="stroke-width:0.390625" />
  <path
     d="m 141.65399,114.66265 c 0.51406,0.0695 0.72656,0.15704 1.12968,0.48399 0.85821,1.59844 0.16094,3.68281 -0.2164,5.35156 0.45586,0.23242 0.87695,0.44727 1.21328,0.84375 1.2125,1.4293 1.68125,4.84024 1.41016,6.66484 -0.11407,0.76719 -0.34688,1.30079 -0.99024,1.75743 -0.65625,0.17656 -1.06367,0.0496 -1.69258,-0.12774 -0.61406,-0.57656 -1.06523,-1.1832 -1.46679,-1.92617 -1.63008,-3.01602 -0.64141,-3.47109 0.1457,-6.27773 0.13672,-0.48711 -1.41719,-1.90469 -1.73047,-2.49141 -0.36719,-0.68828 -0.51562,-1.31797 -0.23633,-2.07422 0.3793,-1.02734 1.50235,-1.75703 2.43399,-2.2043 z"
     id="path129"
     style="stroke-width:0.390625" />
  <path
     fill="#adaf98"
     d="m 141.31219,115.41539 c 0.13047,0.005 0.35234,0.006 0.47422,0.0387 0.29883,0.0809 0.39023,0.17109 0.5043,0.44883 0.47968,1.17109 0.032,3.1043 -0.47735,4.21289 l -0.38047,0.10625 c -0.35468,-0.27774 -0.75781,-0.60117 -1.03164,-0.96055 -0.44609,-0.58633 -0.63437,-1.30156 -0.5082,-2.02578 0.14726,-0.84375 0.77578,-1.3375 1.41914,-1.82031 z"
     id="path130"
     style="stroke-width:0.390625" />
  <path
     fill="#adaf98"
     d="m 141.80047,121.82515 c 0.32383,0.005 0.64063,-0.005 0.93906,0.14532 0.57539,0.29062 0.87344,1.01211 1.06563,1.58945 0.57578,1.7293 0.55742,3.88984 -0.28828,5.51055 -0.032,-0.0203 -0.0641,-0.0406 -0.0961,-0.0602 -1.17578,-0.71641 -1.83945,-1.61289 -2.22734,-2.95039 -0.44883,-1.54844 -0.16797,-2.86875 0.60703,-4.23477 z"
     id="path131"
     style="stroke-width:0.390625" />
  <path
     d="m 130.30946,85.783748 c 0.35859,0.03555 0.70625,0.06406 1.04726,0.189453 1.06367,0.390629 1.83125,1.326559 2.23672,2.359769 0.65703,1.67422 0.57109,3.7582 -0.2043,5.37773 -0.59336,1.23945 -1.32343,1.83984 -2.59687,2.29766 -0.29141,-0.0434 -0.53125,-0.0812 -0.80821,-0.17031 -1.04335,-0.33633 -1.81367,-1.19571 -2.26992,-2.17149 -0.70703,-1.51055 -0.79492,-3.50195 -0.21679,-5.06562 0.54687,-1.47891 1.41796,-2.17227 2.81211,-2.817192 z"
     id="path132"
     style="stroke-width:0.390625" />
  <path
     fill="#adaf98"
     d="m 130.06141,86.54547 c 0.9582,0.0664 1.61797,0.26328 2.26445,1.01172 0.89922,1.0414 1.1168,2.49804 0.9543,3.82773 -0.19961,1.63516 -0.85195,2.7918 -2.13985,3.79609 -0.26874,0 -0.55664,3.9e-4 -0.81953,-0.0613 -0.74453,-0.17618 -1.31757,-0.85352 -1.69765,-1.48008 -0.82852,-1.36602 -0.97617,-3.31758 -0.53985,-4.83633 0.32578,-1.13281 0.97539,-1.70625 1.97813,-2.25781 z"
     id="path133"
     style="stroke-width:0.390625" />
  <path
     d="m 145.38094,152.97867 c 0.2582,-0.0141 0.52852,-0.0363 0.78828,-0.0231 0.91211,0.0453 1.52305,0.61993 2.09219,1.28242 1.8582,2.16172 3.85351,6.90157 3.55234,9.78243 -0.0816,0.78242 -0.4207,1.10937 -0.98711,1.57968 -1.2414,-0.20703 -2.14609,-1.05742 -2.96484,-1.96289 -1.86563,-2.06406 -3.8457,-5.46992 -3.63086,-8.33398 0.0773,-1.03047 0.3918,-1.63711 1.15,-2.32461 z"
     id="path134"
     style="stroke-width:0.390625" />
  <path
     fill="#adaf98"
     d="m 145.81258,153.44976 c 0.54258,0.13203 0.96602,0.28008 1.36641,0.69024 1.83086,1.87578 3.81406,6.58047 3.71015,9.20547 -0.0242,0.60898 -0.18047,0.78984 -0.59687,1.2125 q -0.51133,-0.31602 -0.97344,-0.70078 c -2.09141,-1.70704 -4.19922,-4.86094 -4.41758,-7.58946 -0.0965,-1.20586 0.12344,-1.91367 0.91133,-2.81797 z"
     id="path135"
     style="stroke-width:0.390625" />
  <path
     d="m 141.82938,135.97789 c 0.38047,0.007 0.72422,0.007 1.09297,0.12187 1.02226,0.31914 1.87851,1.92774 2.22968,2.83868 0.83868,2.17695 1.18164,5.29882 0.16368,7.44336 -0.44493,0.9371 -1.03243,1.30429 -1.98399,1.64062 -1.38086,-0.72031 -2.21094,-1.85586 -2.91758,-3.21563 -0.98828,-1.90273 -1.79414,-4.39843 -1.0539,-6.49609 0.44336,-1.25703 1.31211,-1.7875 2.46914,-2.33281 z"
     id="path136"
     style="stroke-width:0.390625" />
  <path
     fill="#adaf98"
     d="m 141.85242,136.69429 c 0.22735,0.0102 0.48164,0.0258 0.69688,0.10313 0.65156,0.23437 1.07383,1.04297 1.35703,1.63008 0.90664,1.8789 1.53438,5.41992 0.7168,7.40469 -0.31055,0.75429 -0.78047,0.95039 -1.48555,1.225 -0.44492,-0.31329 -0.81406,-0.68829 -1.13516,-1.12774 -1.34843,-1.84648 -2.54882,-4.58789 -2.06914,-6.90937 0.24219,-1.17188 0.97227,-1.68985 1.91914,-2.32579 z"
     id="path137"
     style="stroke-width:0.390625" />
  <path
     d="m 139.30477,72.64742 c 0.56094,0.02695 0.90742,0.08555 1.36679,0.432813 1.46875,1.110546 1.94336,4.08164 2.15977,5.822656 0.38906,3.129297 0.50195,8.860161 -1.63789,11.404691 -0.59258,0.70468 -1.15,0.78828 -2.01641,0.84687 -0.99257,-0.41211 -1.66484,-1.01875 -2.22343,-1.93789 -1.86797,-3.074609 -1.79844,-7.496093 -1.00977,-10.892578 0.51836,-2.233203 1.34727,-4.405859 3.36094,-5.676562 z"
     id="path138"
     style="stroke-width:0.390625" />
  <path
     fill="#adaf98"
     d="m 139.18211,73.410311 c 0.0769,0.0023 0.15391,0 0.23008,0.0074 0.60703,0.05742 0.96641,0.372265 1.31484,0.84414 1.84063,2.490625 1.71016,7.607422 1.30352,10.550781 -0.27617,2.001178 -0.69531,4.384378 -2.38086,5.665628 -0.5375,-0.14766 -0.98359,-0.3625 -1.38164,-0.75625 -1.76328,-1.74453 -2.08633,-4.891409 -2.05391,-7.264846 0.0414,-3.03125 0.71133,-6.870704 2.96797,-9.046875 z"
     id="path139"
     style="stroke-width:0.390625" />
  <path
     fill="#e7e8ca"
     d="m 189.3075,204.18414 q 0.6336,-0.0684 1.27071,-0.0488 0.6371,0.0191 1.26523,0.12578 c 7.36992,1.26524 14.14688,8.10352 18.16875,14.00938 1.91445,2.81132 3.98398,7.07734 3.24336,10.5582 -0.61484,2.88828 -3.35391,4.28789 -5.63867,5.76016 -0.21875,-3.36563 -0.0637,-6.77813 -0.0215,-10.14961 -2.1582,4.07617 -1.79726,9.19843 -0.98086,13.58828 4.51641,24.28828 23.77344,39.4414 36.2875,59.51523 8.36485,13.41836 14.525,27.37149 17.27852,43.00977 0.18867,1.07187 0.73086,3.01914 -0.0887,3.91094 -1.16133,1.26406 -6.44141,0.4164 -8.21641,0.27148 -18.71523,-2.08789 -35.46211,-7.60977 -51.2668,-18.01133 -18.1457,-11.94219 -31.23164,-29.58125 -35.63515,-50.99687 -3.54219,-17.22774 -2.21992,-33.86836 4.80976,-50.0461 1.66993,-3.84258 3.47071,-7.50937 5.79571,-11.00468 3.34531,-5.03008 7.61797,-9.27618 13.72851,-10.4918 z"
     id="path140"
     style="stroke-width:0.390625" />
  <path
     d="m 209.28953,264.69898 c 0.46133,-0.0305 0.93086,-0.0578 1.38985,0.0148 2.4457,0.38672 4.86328,3.12461 6.24961,5.01914 1.55976,2.13203 3.77656,5.68632 3.25351,8.43476 -0.20781,1.09141 -0.88047,1.67422 -1.74414,2.29219 -0.54805,0.21367 -1.15156,0.3375 -1.7418,0.30664 -1.80937,-0.0945 -3.41796,-1.29883 -4.6,-2.58867 -2.37109,-2.5875 -4.44023,-6.77461 -4.21367,-10.35703 0.082,-1.30352 0.42422,-2.24844 1.40664,-3.12188 z"
     id="path141"
     style="stroke-width:0.390625" />
  <path
     fill="#adaf98"
     d="m 209.88367,265.65328 q 0.20743,-0.0109 0.41524,-0.0137 c 1.5539,-0.0121 2.95625,1.27656 3.98867,2.33828 2.03008,2.0875 5.24023,6.44492 5.10586,9.48789 -0.0438,0.98828 -0.49258,1.54609 -1.19609,2.18789 -0.35,0.0914 -0.70079,0.19219 -1.06485,0.20312 -1.54453,0.0461 -3.10078,-1.07343 -4.16054,-2.08671 -2.27891,-2.17969 -4.15196,-5.92305 -4.18047,-9.10586 -0.0117,-1.31289 0.18945,-2.05508 1.09218,-3.01094 z"
     id="path142"
     style="stroke-width:0.390625" />
  <path
     d="m 198.22938,250.80914 c 0.12148,0.0246 0.24375,0.0473 0.36484,0.0742 2.18633,0.48711 3.99531,2.68242 5.10703,4.53398 1.74883,2.91289 2.45664,6.53438 1.57071,9.85664 -0.45743,1.71446 -1.16016,2.63672 -2.66446,3.53047 -0.38515,-0.007 -0.77226,-0.0172 -1.14219,-0.13828 -2.17421,-0.71172 -3.68085,-3.47969 -4.57578,-5.44609 -1.34218,-2.94922 -2.28554,-6.89102 -1.01445,-10.01602 0.48359,-1.18945 1.17656,-1.90352 2.3543,-2.39492 z"
     id="path143"
     style="stroke-width:0.390625" />
  <path
     fill="#adaf98"
     d="m 197.89617,251.74586 c 1.24688,0.0934 2.05586,0.57968 2.98282,1.40781 2.16523,1.93477 3.56328,5.1 3.74609,7.96914 0.14922,2.34492 -0.16602,4.72109 -1.76523,6.53828 -0.17539,0.0586 -0.25547,0.0918 -0.45118,0.12305 -0.64843,0.1039 -1.1332,-0.11289 -1.63398,-0.49727 -2.46406,-1.8914 -4.13906,-6.46015 -4.43945,-9.48672 -0.22305,-2.24687 0.1207,-4.27773 1.56093,-6.05429 z"
     id="path144"
     style="stroke-width:0.390625" />
  <path
     d="m 200.99891,272.08726 c 0.53633,0.0535 1.01289,0.17344 1.51406,0.37735 4.97149,2.02578 8.0957,9.06094 9.96172,13.70234 1.02891,2.55899 2.7793,6.79609 1.50742,9.49844 -0.4918,1.0457 -1.23164,1.51328 -2.29726,1.85586 -0.76836,-0.068 -1.50118,-0.22617 -2.22852,-0.48867 -3.80625,-1.37266 -7.03008,-5.35352 -8.75547,-8.87891 -1.75469,-3.58555 -3.46719,-9.73633 -2.0293,-13.64297 0.48126,-1.30703 1.08125,-1.85469 2.32735,-2.42344 z"
     id="path145"
     style="stroke-width:0.390625" />
  <path
     fill="#adaf98"
     d="m 200.90711,272.88883 c 2.58711,0.45664 4.50469,2.49687 5.99766,4.53671 2.59336,3.54454 7.24219,12.59844 6.40351,17.03985 -0.19297,1.02187 -0.81796,1.53086 -1.62734,2.10586 -0.20469,-0.007 -0.40703,-0.0254 -0.60938,-0.0547 -2.93984,-0.42461 -5.68007,-3.18828 -7.40664,-5.45273 -3.01562,-3.95586 -5.26484,-10.14454 -4.44179,-15.16485 0.22343,-1.36484 0.57695,-2.17851 1.68398,-3.01015 z"
     id="path146"
     style="stroke-width:0.390625" />
  <path
     d="m 222.86844,283.86617 c 2.13828,-0.0613 3.88477,0.45547 5.73398,1.49375 4.79415,2.69141 9.49844,8.00586 10.95899,13.37773 0.3668,1.34922 0.53672,2.9043 -0.25039,4.14454 -0.71641,1.12812 -1.68477,1.52226 -2.93867,1.80195 -3.09414,-0.46524 -6.13204,-1.3 -8.89141,-2.80742 -3.50547,-1.91524 -6.4332,-5.16993 -7.52656,-9.05743 -0.57891,-2.05898 -1.0461,-5.07109 0.11328,-6.9789 0.67656,-1.11367 1.56055,-1.66797 2.80078,-1.97422 z"
     id="path147"
     style="stroke-width:0.390625" />
  <path
     fill="#adaf98"
     d="m 222.98133,284.85015 c 1.02031,0.0262 1.99219,0.10938 2.96758,0.4293 4.97148,1.63086 9.51836,6.42383 11.84961,10.99102 0.80156,1.56992 1.66406,3.60664 1.02695,5.36328 -0.39492,1.08789 -1.1043,1.54101 -2.11992,1.99844 -2.92149,-0.0211 -5.61875,-0.98633 -8.18008,-2.35079 -3.42891,-1.82617 -6.45273,-4.79023 -7.56601,-8.58867 -0.5543,-1.88984 -1.04336,-4.56484 0.0113,-6.33398 0.5086,-0.85352 1.06446,-1.24844 2.01055,-1.5086 z"
     id="path148"
     style="stroke-width:0.390625" />
</svg>
