<?xml version="1.0" encoding="UTF-8" standalone="no"?>
<svg
   width="370.28864"
   height="367.34937"
   version="1.1"
   id="svg125"
   sodipodi:docname="turtle.svg"
   inkscape:version="1.3.1 (9b9bdc1480, 2023-11-25, custom)"
   xmlns:inkscape="http://www.inkscape.org/namespaces/inkscape"
   xmlns:sodipodi="http://sodipodi.sourceforge.net/DTD/sodipodi-0.dtd"
   xmlns="http://www.w3.org/2000/svg"
   xmlns:svg="http://www.w3.org/2000/svg">
  <sodipodi:namedview
     id="namedview125"
     pagecolor="#ffffff"
     bordercolor="#999999"
     borderopacity="1"
     inkscape:showpageshadow="2"
     inkscape:pageopacity="0"
     inkscape:pagecheckerboard="0"
     inkscape:deskcolor="#d1d1d1"
     inkscape:zoom="1.0413252"
     inkscape:cx="471.99471"
     inkscape:cy="205.50736"
     inkscape:window-width="1920"
     inkscape:window-height="954"
     inkscape:window-x="0"
     inkscape:window-y="27"
     inkscape:window-maximized="1"
     inkscape:current-layer="svg125" />
  <path
     d="M 141.95664,0.08998643 C 129.46133,-0.56102957 109.01094,2.2802984 98.808988,9.9210794 93.387498,9.7027984 87.477738,9.5826814 83.008203,13.173931 80.735937,14.9994 79.375,17.502954 79.067187,20.4019 c -0.607422,5.725156 2.557032,12.338828 6.311331,16.488047 2.00937,2.220703 4.37539,4.107031 6.26328,6.436718 l 0.22148,0.275782 c -8.077341,-0.569141 -14.609763,-0.755469 -22.206247,2.78164 -9.658984,4.497266 -15.778516,12.882032 -19.3375,22.691016 -1.612891,-0.355859 -3.188281,-0.707422 -4.847656,-0.689453 -2.776172,0.03008 -5.616406,1.110547 -7.546094,3.133984 -3.767187,3.950781 -4.751953,10.591797 -4.690625,15.815622 0.08555,7.30703 2.804297,15.900394 8.194141,21.063284 3.313281,3.17383 7.11914,4.35391 11.633203,4.26719 3.758594,12.11758 10.224609,24.59297 20.320312,32.63125 2.314063,-1.40664 4.783203,-2.71562 7.300782,-3.7039 10.791014,4.31484 22.099216,6.20195 33.616016,3.77109 4.49414,3.65039 10.3043,11.83437 13.47305,16.84297 -3.56914,3.09844 -6.75352,6.49179 -8.98477,10.6914 -0.38945,0.73321 -0.88437,1.45469 -0.62617,2.29493 0.41875,0.0918 0.5207,0.0711 0.92109,-0.0399 2.45977,-0.6832 4.6293,-1.19531 7.11914,-0.21211 5.48868,2.16719 8.45782,9.74961 10.71446,14.70899 -0.84297,2.07578 -1.62891,4.11953 -2.13008,6.3082 0.71602,-0.3082 1.45,-0.56641 2.18203,-0.8332 1.05469,3.475 2.06133,6.81172 3.5082,10.15039 q -0.44453,0.30859 -0.91835,0.5707 c -3.68008,2.06484 -7.82461,3.31992 -11.93282,4.19453 -10.0414,2.13789 -21.01054,0.26211 -30.266792,-4.03125 -8.40899,-3.9 -17.735161,-10.7164 -25.40977,-16.0789 -4.499219,-3.14336 -7.007812,-6.53125 -12.643359,-8.08438 -4.251172,-1.17148 -8.246485,-0.62461 -12.05625,1.53086 -1.803125,-7.4957 -5.135157,-14.59687 -9.158203,-21.13086 -2.869141,-4.65976 -9.844532,-15.91289 -15.273829,-17.01094 -1.026171,-0.20742 -2.033984,0.1293 -2.855078,0.75508 -1.805078,1.375 -2.584375,3.99531 -2.90039,6.15938 -1.525782,10.44531 5.10664,27.59023 11.471484,36.09375 -3.234766,3.43437 -5.410156,7.03437 -6.055469,11.78203 -1.210156,8.90508 3.405469,16.79336 8.591797,23.59336 2.135938,2.80117 9.1125,10.94609 12.499219,11.40195 0.677344,-0.32852 0.503125,-0.73945 0.971094,-1.26484 3.825781,3.20586 7.649609,6.0625 11.998437,8.53086 2.246485,1.27461 4.638672,2.28476 6.839063,3.63867 l 0.25039,0.15547 c 2.047266,4.45781 4.865235,10.30351 7.648438,14.2582 1.873047,2.66172 4.20625,5.15117 6.334765,7.61602 2.470704,2.86093 5.42461,5.60742 7.541411,8.7289 2.81054,4.14492 4.19882,9.54844 6.61601,13.74258 0.38047,0.66016 0.75703,1.12578 1.52344,1.33125 0.24297,-0.14414 0.34492,-0.14688 0.46172,-0.42813 0.24258,-0.58242 0.24062,-1.4414 0.0684,-2.04804 -0.27891,-0.98086 -0.90547,-2.00039 -1.35547,-2.92422 -1.19063,-2.44453 -2.34141,-4.86367 -3.66367,-7.24688 -0.94102,-1.69531 -2.15743,-3.39609 -2.84024,-5.21211 -0.72383,-1.9246 -0.6082,-4.37226 -1,-6.4121 -0.749217,-3.89922 -1.450779,-8.1543 -2.65742,-11.92813 -0.604688,-1.89023 -1.492188,-3.75117 -2.250781,-5.58984 7.652341,1.2332 15.054301,1.8125 22.795313,1.03086 19.30274,-1.94883 35.96914,-10.69141 48.29219,-25.75039 3.39805,3.92109 5.77695,8.45625 10.0164,11.64765 -3.44023,7.56524 -5.89179,15.19141 -7.43398,23.36133 -4.44492,23.54727 -1.22148,46.88555 12.49648,66.90625 14.11524,20.60078 41.16133,34.49062 65.23946,38.97695 6.00976,0.975 16.43515,2.21836 22.03359,-0.16328 0.91758,-0.39023 1.88594,-1.0164 2.23985,-1.99961 0.81015,-2.25 -5.62422,-10.62226 -7.26016,-12.86094 -2.5668,-3.51289 -4.99453,-7.12929 -7.61484,-10.60273 -4.89063,-6.48242 -10.01172,-12.87227 -14.67227,-19.51953 -3.8918,-5.55117 -7.48984,-11.28906 -11.1125,-17.01758 -3.0457,-4.81641 -6.25,-9.56758 -9.1207,-14.48945 -5.11953,-8.77774 -9.51446,-17.85156 -13.73203,-27.08633 11.79101,8.37734 22.36523,13.37227 36.00351,17.85352 14.13125,4.64375 28.00508,7.26132 42.92305,6.98906 3.33008,12.08242 15.82187,26.10586 24.64375,34.99648 12.83047,12.92969 29.93828,23.63047 47.92148,27.28555 3.20914,0.65234 6.52656,1.2168 9.80625,1.21328 1.12406,-10e-4 2.57864,0.0352 3.42,-0.8043 0.29637,-1.04101 0.0245,-2.14804 -0.20816,-3.18164 -3.3607,-14.92578 -12.32317,-29.60078 -24.11848,-39.38398 -6.02617,-4.99844 -12.85976,-9.02344 -19.70117,-12.79649 -3.77813,-2.08359 -7.70977,-3.9332 -11.57109,-5.85937 -1.98633,-0.99063 -4.06758,-1.9168 -5.93243,-3.12422 l -0.23906,-0.15625 c 15.52735,4.65117 31.65781,5.27188 47.38906,1.35156 8.12809,-2.02539 16.30649,-4.75898 23.47286,-9.15117 1.31355,-0.80508 3.34851,-2.04101 4.06539,-3.44141 0.25609,-0.50039 0.22523,-0.76171 0.0896,-1.28789 -0.91957,-0.65273 -2.29047,-0.63203 -3.38289,-0.61289 -4.50985,0.0805 -9.04067,0.86328 -13.53422,1.24727 -6.78344,0.57969 -15.07793,0.66211 -21.88379,0.0441 3.45195,-1.20352 8.49687,-3.26992 10.24414,-6.74805 0.59726,-1.18906 0.66172,-2.47773 0.20234,-3.72343 -1.42812,-3.86993 -7.18203,-6.83907 -10.72461,-8.36993 q 0.24063,-0.79804 0.29805,-1.62929 c 0.34687,-5.33516 -0.45547,-10.94961 -1.09024,-16.23633 q -0.17812,-1.42695 -0.38281,-2.85039 -0.20469,-1.42344 -0.43633,-2.84297 -0.23125,-1.41914 -0.48945,-2.83399 -0.2582,-1.41445 -0.54297,-2.82421 -0.28476,-1.40977 -0.59609,-2.81368 -0.31133,-1.4039 -0.64883,-2.80195 -0.33789,-1.39766 -0.70156,-2.78906 -0.36406,-1.39141 -0.75391,-2.77539 -0.39023,-1.38438 -0.80625,-2.76094 -0.41601,-1.37656 -0.85781,-2.74492 -0.4418,-1.36875 -0.90938,-2.72852 -0.46757,-1.36015 -0.96054,-2.71093 -0.49297,-1.35079 -1.01133,-2.69219 -0.51875,-1.34141 -1.06211,-2.67305 -0.54375,-1.33125 -1.11211,-2.65234 -0.56836,-1.32071 -1.16172,-2.63086 -0.59336,-1.30977 -1.21133,-2.6086 -0.61757,-1.29843 -1.25976,-2.58515 -0.64219,-1.28672 -1.3086,-2.56133 -0.6664,-1.27422 -1.35625,-2.53594 -0.69023,-1.26172 -1.40429,-2.51015 -0.71367,-1.24844 -1.45078,-2.48321 -0.73711,-1.23476 -1.49727,-2.45547 -0.76055,-1.2207 -1.54375,-2.42695 -0.78281,-1.20586 -1.58867,-2.39726 -0.80547,-1.19102 -1.6336,-2.3668 -0.82812,-1.17617 -1.67773,-2.33594 -0.85,-1.16016 -1.72187,-2.30391 -0.87149,-1.14375 -1.76446,-2.27109 -0.89297,-1.12734 -1.80703,-2.2375 -0.91406,-1.11016 -1.84922,-2.20273 -0.93476,-1.09297 -1.88984,-2.16797 -0.99492,-1.10039 -2.01641,-2.17656 -1.02148,-1.07579 -2.06914,-2.12618 -1.04726,-1.05078 -2.11992,-2.07539 -1.07305,-1.025 -2.17031,-2.02304 -1.09766,-0.99844 -2.21914,-1.96954 -1.12149,-0.97109 -2.26641,-1.91445 -1.14492,-0.94336 -2.3125,-1.85859 -1.16797,-0.91524 -2.35742,-1.80196 -1.18945,-0.88632 -2.40039,-1.74335 -1.21094,-0.85704 -2.44258,-1.68438 -1.23125,-0.82734 -2.48281,-1.62461 -1.25117,-0.79687 -2.52149,-1.56289 -1.2707,-0.76641 -2.55937,-1.50117 -1.28867,-0.73516 -2.59492,-1.43828 -1.30625,-0.70352 -2.6293,-1.37461 -1.32305,-0.6711 -2.66211,-1.30977 -1.33906,-0.63867 -2.69336,-1.24453 -1.3543,-0.60586 -2.72305,-1.17812 -1.36836,-0.57266 -2.75078,-1.11172 -1.38203,-0.53867 -2.77695,-1.04375 -1.39531,-0.50508 -2.80195,-0.97578 -1.40704,-0.4711 -2.825,-0.90743 -1.41797,-0.43632 -2.8461,-0.83789 -1.42812,-0.40156 -2.86562,-0.76797 -1.4375,-0.36679 -2.8836,-0.69804 -1.44609,-0.33164 -2.9,-0.62735 -1.45351,-0.29609 -2.91406,-0.55625 -1.46055,-0.26054 -2.92734,-0.48515 -1.46641,-0.22461 -2.93789,-0.41367 -1.47149,-0.18868 -2.94727,-0.34141 -1.47539,-0.15273 -2.95469,-0.26953 -1.4789,-0.1168 -2.96015,-0.19727 c -17.05078,-0.96797 -31.93867,1.47071 -47.03555,9.71094 -3.21914,1.75703 -6.52773,3.50469 -9.28047,5.96523 -1.42851,-0.18515 -2.88047,-0.22031 -4.31875,-0.29062 -0.8043,-12.73945 -0.47187,-26.01875 -4.17578,-38.353914 0.80508,-0.10664 2.20391,-0.22382 2.64648,-1.01484 0.43633,-0.78008 -0.0859,-2.01563 -0.32148,-2.80313 1.79805,0.58008 3.62891,1.22813 5.48203,1.60586 2.79297,0.56954 5.3375,0.18125 7.73008,-1.44375 1.825,-1.23984 3.41289,-3.11679 3.79258,-5.34023 0.38945,-2.282422 -0.49688,-5.230469 -0.89336,-7.504688 -2.13711,-12.260156 -7.10508,-24.960546 -13.47617,-35.632812 -2.54961,-4.269922 -5.43868,-8.321094 -8.40821,-12.305469 1.33477,-0.366406 2.67735,-0.641015 3.53008,-1.8125 0.21602,-0.735547 -0.0851,-1.291406 -0.22344,-2.014844 0.46719,-0.748046 9.56758,-6.92539 11.40821,-8.387929 3.50429,-2.784766 6.97226,-5.6930856 9.8457,-9.1427346 -2.1457,-0.51457 -4.17734,-1.741875 -6.27227,-2.472187 q -2.10742,-0.719297 -4.26289,-1.277149 -2.15546,-0.55789 -4.34726,-0.95113197 -2.19141,-0.393282 -4.40664,-0.619688 -2.21524,-0.226406 -4.44102,-0.284687 z"
     id="path18"
     style="stroke-width:0.390625" />
  <path
     fill="#dcc397"
     d="m 285.56406,260.40948 c -0.56367,0.54336 -0.94648,0.95977 -1.29921,1.65899 -0.0508,0.10078 -0.1043,0.19961 -0.15586,0.30039 l -0.10196,0.20468 c 0.56211,0.0402 1.06328,0.12852 1.58672,-0.12812 0.31016,-0.57344 0.066,-1.40703 -0.0297,-2.03594 z"
     id="path19"
     style="stroke-width:0.390625" />
  <path
     fill="#fefefe"
     d="m 50.904687,75.585259 -0.166406,0.04766 c -0.323828,0.320704 -0.742578,0.650391 -0.866406,1.103125 -0.07109,0.259375 0.07109,0.364844 0.195312,0.575782 l 0.449219,0.06523 C 51.077734,77.109087 51.675,76.87979 52.1375,76.455181 51.833203,75.962212 51.408594,75.848931 50.904687,75.585259 Z"
     id="path20"
     style="fill:#f5f500;fill-opacity:1;stroke-width:0.390625" />
  <path
     fill="#dfe3c1"
     d="m 54.376562,99.858696 c -0.548437,0.311334 -1.094531,0.627344 -1.654297,0.918364 0.04766,0.0992 0.09649,0.19766 0.142579,0.29727 0.916796,1.98164 2.430078,3.20937 4.200781,4.40195 -1.21836,-1.78789 -2.108594,-3.52891 -2.689063,-5.617584 z"
     id="path21"
     style="fill:#f5f500;fill-opacity:1;stroke-width:0.390625" />
  <path
     fill="#a67b76"
     d="m 139.72735,20.707837 c -1.61172,0.572149 -2.99454,1.60086 -4.41797,2.531719 1.12422,0.867188 2.34687,1.491016 3.63281,2.076172 1.06016,-0.06445 2.90625,0.137109 3.68984,-0.710938 0.22657,-0.244921 0.13985,-0.401562 0.13008,-0.710156 -0.65156,-1.229297 -2.0168,-2.24543 -3.03476,-3.186797 z"
     id="path22"
     style="stroke-width:0.390625" />
  <path
     fill="#acb19b"
     d="m 125.43008,93.531356 c -1.12188,-0.0953 -2.25156,-0.0137 -3.375,0.0301 0.47695,2.8996 1.10664,5.00507 3.55352,6.872654 0.48554,0.22578 1.19843,0.46211 1.73984,0.34961 0.47812,-0.1 0.825,-0.29844 1.03633,-0.75937 0.34609,-0.754694 0.19101,-1.810944 -0.027,-2.577744 -0.48711,-1.71172 -1.39921,-3.0043 -2.92773,-3.91523 z"
     id="path23"
     style="stroke-width:0.390625" />
  <path
     fill="#fefefe"
     d="m 58.232031,84.636036 c -0.442187,0.13633 -0.798437,0.2711 -1.149219,0.59493 -2.060547,1.9039 -2.257422,5.94297 -2.327734,8.54023 0.439844,-0.27773 0.89375,-0.52461 1.417578,-0.59297 1.069141,-0.14023 1.897266,0.56016 2.667969,1.18985 0.703515,1.00156 1.152344,2.07539 1.632422,3.19414 0.290625,-4.13672 -0.608203,-9.13086 -2.241016,-12.92618 z"
     id="path24"
     style="fill:#f5f500;fill-opacity:1;stroke-width:0.390625" />
  <path
     fill="#8b9184"
     d="m 72.73164,90.331746 c -2.872265,0.0359 -5.700781,0.24336 -8.557812,0.52031 q 0.271094,2.36211 0.503125,4.72812 c 2.966406,-0.1289 5.951953,-0.4746 8.912109,-0.72187 -0.376562,-1.51094 -0.663281,-2.98047 -0.857422,-4.52656 z"
     id="path25"
     style="stroke-width:0.390625" />
  <path
     fill="#acb19b"
     d="m 142.30195,91.671586 q -3.7625,0.28086 -7.52109,0.60625 c 0.75313,2.16484 1.82656,4.02578 3.24766,5.8168 0.26445,0.27344 0.5289,0.51758 0.82773,0.75429 0.86094,0.68282 2.06953,1.713294 3.24297,1.497274 0.3875,-0.0711 0.72305,-0.347264 0.92734,-0.681254 1.2543,-2.05156 -0.1125,-5.83516 -0.72461,-7.99336 z"
     id="path26"
     style="stroke-width:0.390625" />
  <path
     fill="#a67b76"
     d="m 161.51133,136.68058 c -0.32656,0.56445 0.52031,2.13437 0.73711,2.8414 1.12578,3.67461 1.55742,7.37461 1.80898,11.18945 1.50391,-0.79023 3.00352,-1.29375 4.65235,-1.68046 0.61679,-0.14493 1.26328,-0.19571 1.89218,-0.27071 -1.96679,-5.13086 -4.7164,-8.7625 -9.09062,-12.07968 z"
     id="path27"
     style="fill:#205d34;fill-opacity:1;stroke-width:0.390625" />
  <path
     fill="#acb19b"
     d="m 68.364062,58.024322 c -0.633203,-0.0016 -1.222656,0.07305 -1.801172,0.344531 -1.383203,0.649609 -2.654687,1.8375 -3.160156,3.305078 -0.28789,0.834766 -0.290625,1.71875 0.154688,2.501172 0.786328,1.380859 2.413281,1.734375 3.839062,2.069922 1.060938,-0.113672 2.078516,-0.273438 3.055469,-0.726953 1.077734,-0.500391 2.082422,-1.35586 2.438281,-2.526172 0.259766,-0.852735 0.10586,-1.770703 -0.354687,-2.525 -0.909375,-1.489063 -2.57461,-2.04336 -4.171485,-2.442578 z"
     id="path28"
     style="stroke-width:0.390625" />
  <path
     fill="#8b9184"
     d="m 75.803906,254.91847 -0.100781,0.13828 c 1.905469,4.47812 6.6125,11.62344 7.529687,16.09101 l -0.12539,-0.0137 c -1.930078,-3.32226 -3.782032,-6.89453 -5.408203,-10.37812 -0.841016,-1.80118 -1.570313,-3.64532 -2.479688,-5.41524 l -2.180078,3.225 c -0.221094,0.43281 -0.142578,0.19922 -0.224219,0.7043 0.804297,1.49336 2.113672,2.87812 3.179297,4.20898 2.703125,3.375 5.488672,6.63555 8.272266,9.93985 -1.083985,-5.49414 -1.816797,-11.09375 -2.850782,-16.61016 -1.907812,-0.49687 -3.758593,-1.22266 -5.612109,-1.89023 z"
     id="path29"
     style="stroke-width:0.390625" />
  <path
     fill="#a67b76"
     d="m 237.76485,122.07823 c -0.0109,0.008 -0.0231,0.0148 -0.0324,0.0246 -1.09726,1.13945 -1.02226,3.61172 -0.97851,5.11367 3.64883,0.98789 7.52656,1.40235 11.22773,2.30274 5.77852,1.40547 11.24492,3.45781 16.82071,5.4832 l 0.59843,0.12109 0.0238,-0.20234 c -5.52305,-4.63437 -20.54805,-10.45625 -27.65976,-12.84297 z"
     id="path30"
     style="fill:#205d34;fill-opacity:1;stroke-width:0.390625" />
  <path
     fill="#a67b76"
     d="m 330.9043,256.24386 c -1.38047,1.8164 -1.06836,2.89336 -3.28086,4.37226 3.12305,2.81758 5.80195,5.95547 6.94492,10.0586 l 1.0707,-0.64493 c 1.40586,-0.91992 3.06016,-1.90117 3.97852,-3.34531 0.50703,-0.79726 0.70078,-1.68242 0.48359,-2.60976 -0.77695,-3.3211 -6.42461,-6.17969 -9.19687,-7.83086 z"
     id="path31"
     style="fill:#205d34;fill-opacity:1;stroke-width:0.390625" />
  <path
     fill="#fefefe"
     d="m 53.618359,77.414947 c -1.238672,0.566406 -2.466797,1.160937 -3.759375,1.595312 -1.191015,8.012887 0.369532,14.276957 2.863282,21.766801 0.559765,-0.29102 1.105859,-0.60703 1.654296,-0.918364 -0.960937,-4.30273 -1.541796,-10.4 0.91875,-14.33633 0.595313,-0.95234 1.308204,-1.6164 2.232422,-2.23672 -1.186328,-2.049606 -2.40625,-4.032418 -3.909375,-5.870699 z"
     id="path32"
     style="fill:#f5f500;fill-opacity:1;stroke-width:0.390625" />
  <path
     fill="#a67b76"
     d="m 150.24258,166.93331 c -0.88828,0.94844 -3.2207,7.57695 -4.05273,9.31055 -1.78516,3.7207 -3.74649,7.51093 -5.82188,11.07773 -1.32383,2.275 -3.14375,4.45508 -4.02891,6.93984 l 1.66055,-1.15351 c 6.33945,-5.16133 11.28477,-12.63164 15.40547,-19.59531 -0.79531,-2.29532 -2.04258,-4.42852 -3.1625,-6.5793 z"
     id="path33"
     style="fill:#205d34;fill-opacity:1;stroke-width:0.390625" />
  <path
     fill="#acb19b"
     d="m 145.87266,107.49464 c -1.60078,1.10039 -2.49141,2.80742 -3.03242,4.62617 -0.56485,1.89922 -0.86094,3.95625 -1.08711,5.92148 -1.00274,8.70977 2.36054,13.06602 6.3664,20.33633 l 1.8043,3.42774 c -3.86211,-11.95899 -3.38242,-21.99532 -4.05117,-34.31172 z"
     id="path34"
     style="stroke-width:0.390625" />
  <path
     fill="#a67b76"
     d="m 128.35508,163.00948 c -3.02656,3.39141 -5.70664,7.2418 -8.53594,10.81328 2.18282,-0.57304 4.24883,-0.92851 6.47422,-0.24258 4.38086,1.35079 7.37539,6.1086 9.40039,9.92774 0.80235,1.59727 1.54414,3.16992 2.15235,4.85234 0.62265,-1.10703 1.18398,-2.24414 1.75195,-3.37968 -1.61133,-6.68477 -7.14414,-16.41602 -11.24297,-21.9711 z"
     id="path35"
     style="fill:#205d34;fill-opacity:1;stroke-width:0.390625" />
  <path
     fill="#7f6b69"
     d="m 92.807808,38.704009 c -0.59023,-0.07305 -1.15234,-0.190234 -1.73593,-0.02539 0.11445,0.866016 1.81562,2.502735 2.37109,3.371876 0.58203,0.911328 1.03672,1.871093 1.48438,2.853515 17.544142,4.628125 31.171092,18.573438 42.907422,31.633203 0.47968,0.547656 1.01211,1.045703 1.53398,1.552344 -0.85781,-1.645703 -1.68594,-3.317578 -2.61289,-4.925781 C 130.28242,61.932135 114.77852,49.998541 103.63477,43.640729 100.1711,41.664166 96.687498,39.736823 92.807808,38.70401 Z"
     id="path36"
     style="stroke-width:0.390625" />
  <path
     fill="#8b9184"
     d="m 46.908594,69.577056 c -1.092969,-0.01836 -2.17461,0.02383 -3.247657,0.249219 -2.733593,0.574609 -4.876953,2.127344 -6.3625,4.479297 -3.44375,5.452734 -3.636718,13.647654 -2.173046,19.745704 1.273828,5.30859 4.648828,12.516404 9.52539,15.433594 1.714063,1.02539 5.438672,2.46641 7.405469,1.89922 0.417578,-0.11992 0.450391,-0.19844 0.65,-0.55273 -0.05078,-0.3418 -0.278906,-0.85469 -0.579297,-1.05938 -0.196094,-0.13359 -1.176563,-0.22187 -1.476172,-0.2789 -3.801172,-0.72188 -6.645312,-1.76172 -9.052734,-4.94063 -5.108594,-6.744144 -5.966016,-16.435944 -4.824219,-24.532425 q 0.06758,-0.25586 0.140625,-0.510157 c 0.759375,-2.638281 2.026172,-5.232031 4.577734,-6.55 2.06836,-1.068359 4.421875,-1.083593 6.616407,-0.415625 5.076953,1.545313 7.776172,5.041407 10.183593,9.557813 2.7,5.06406 5.167578,17.62734 3.407032,22.978524 -0.0375,0.11406 -0.07852,0.22695 -0.117969,0.34023 l 0.190234,0.0426 c 0.05273,-0.0395 0.110547,-0.073 0.158594,-0.11836 0.866406,-0.81914 1.315234,-3.08594 1.474219,-4.25977 1.072656,-7.938284 -1.528516,-19.372267 -6.478125,-25.76836 -2.526953,-3.264844 -5.94961,-5.197266 -10.017578,-5.739844 z"
     id="path37"
     style="stroke-width:0.390625" />
  <path
     fill="#fefefe"
     d="m 28.660937,161.45636 c -0.364062,0.0176 -0.707422,0.0211 -1.046484,0.17773 -0.752344,0.34766 -1.217188,1.15313 -1.437109,1.91914 -1.596094,5.57149 3.511328,16.55313 6.171484,21.60977 1.251172,-0.56367 2.478516,-0.89492 3.827344,-1.11797 l 1.722656,-0.20742 c 0.503516,-0.38985 1.261328,-0.86446 1.592969,-1.40117 0.523047,-0.84649 0.366406,-1.83907 0.176562,-2.76797 -0.951953,-4.66172 -7.055078,-15.63711 -11.007422,-18.21211 z"
     id="path38"
     style="stroke-width:0.390625" />
  <path
     fill="#a67b76"
     d="m 237.14766,127.9669 c -0.001,0.016 -0.004,0.032 -0.004,0.0481 0.0781,1.5375 7.02149,12.48438 8.33672,14.27695 0.47031,0.64141 1.00078,1.16836 1.59922,1.69024 3.83594,-0.8543 7.32266,-3.8918 10.93125,-5.51914 2.02188,-0.88985 4.12578,-1.50821 6.24141,-2.12617 -7.10743,-3.60625 -19.20703,-6.39024 -27.10508,-8.36993 z"
     id="path39"
     style="fill:#205d34;fill-opacity:1;stroke-width:0.390625" />
  <path
     fill="#a67b76"
     d="m 207.84766,116.48722 c -1.66133,-0.15743 -3.36328,-0.12852 -5.03242,-0.1668 2.84609,2.84023 4.88593,6.56016 7.27031,9.79961 6.04844,-0.4293 12.16445,-0.42539 18.22422,-0.33867 l 5.14375,0.23047 c -0.29297,-1.71563 -0.3211,-3.44102 -0.73047,-5.14415 -8.20469,-2.26289 -16.36211,-3.94492 -24.87539,-4.38046 z"
     id="path40"
     style="fill:#205d34;fill-opacity:1;stroke-width:0.390625" />
  <path
     fill="#8b9184"
     d="m 134.82149,84.248536 c -6.3375,-0.475 -13.57735,-0.13085 -19.96836,0.0824 0.59492,2.87617 0.7414,5.73828 0.69843,8.66836 q 4.37305,-0.37657 8.73047,-0.90391 c 7.15547,-0.91055 14.33125,-1.52188 21.50508,-2.25352 -1.14336,-2.98281 -0.0727,-3.0164 -2.80586,-5.41328 -2.72461,-0.0121 -5.43828,-0.0402 -8.15976,-0.18008 z"
     id="path41"
     style="stroke-width:0.390625" />
  <path
     fill="#a67b76"
     d="m 326.98438,260.94737 c -5.14453,2.42149 -10.61524,3.69063 -16.13203,4.94414 1.41992,3.81094 2.51289,7.52071 2.49492,11.62188 l 2.89531,-0.64727 c 5.85039,-1.36992 11.75664,-3.11523 17.17422,-5.75586 -0.6836,-1.81679 -1.47461,-3.4332 -2.64688,-4.99414 -1.21211,-1.61445 -2.99765,-3.31797 -3.78554,-5.16875 z"
     id="path42"
     style="fill:#205d34;fill-opacity:1;stroke-width:0.390625" />
  <path
     fill="#a67b76"
     d="m 170.7418,149.64893 c -2.33906,0.64883 -4.48633,1.3625 -6.64531,2.47969 q 0.0504,2.57656 -0.0453,5.15196 -0.0957,2.575 -0.33711,5.14101 -0.24179,2.56563 -0.62851,5.11328 -0.38672,2.54805 -0.91758,5.06992 c -0.34297,1.71368 -2.60976,9.38594 -2.57656,9.96524 l 0.45625,-0.11485 c 3.5914,-1.80273 6.9875,-4.12812 10.75351,-5.54531 -0.35078,-9.47969 1.48243,-17.41367 -0.0594,-27.26094 z"
     id="path43"
     style="fill:#205d34;fill-opacity:1;stroke-width:0.390625" />
  <path
     fill="#a67b76"
     d="m 275.48477,141.57589 -0.14102,0.0996 c 0.55938,1.38906 3.67305,4.55156 4.79297,5.96445 q 5.41289,6.7207 9.98359,14.04063 c 4.16368,6.78164 7.73789,13.93164 11.6461,20.86367 2.93281,0.3207 5.82344,0.44765 8.77109,0.46015 l 0.13828,-0.11992 c 0.003,-0.16094 0.0145,-0.23789 -0.0402,-0.40859 -0.7918,-2.47461 -3.725,-6.36914 -5.25235,-8.56367 -6.11445,-8.78438 -10.79453,-14.78711 -18.39375,-22.42539 -3.55429,-3.57266 -7.32265,-7.08477 -11.50468,-9.91094 z"
     id="path44"
     style="fill:#205d34;fill-opacity:1;stroke-width:0.390625" />
  <path
     fill="#acb19b"
     d="m 46.94375,198.64893 -0.05273,0.0281 c -0.07891,0.39258 0.220703,0.61914 0.43789,0.93633 3.829297,5.59414 6.510156,11.95195 9.640235,17.9457 3.465625,6.63555 6.70664,13.36055 10.11289,20.01992 2.74961,5.37617 5.6875,10.68321 8.289453,16.13125 1.791407,0.3043 3.432813,0.84961 5.130469,1.48789 l 0.07461,-0.0574 c 0.08945,-0.57461 -0.227343,-1.07812 -0.476562,-1.59531 -1.146875,-2.38125 -2.515625,-4.68399 -3.726563,-7.03945 -5.93789,-11.55079 -12.283593,-22.90274 -18.059765,-34.53282 -1.870313,-3.76601 -3.844531,-7.64882 -5.123828,-11.6625 -2.13711,-0.29648 -4.210938,-0.9664 -6.246094,-1.66172 z"
     id="path45"
     style="stroke-width:0.390625" />
  <path
     fill="#a67b76"
     d="m 274.58086,142.55401 c -0.1582,0.63477 3.02109,6.99727 3.5043,8.13477 q 1.30469,3.12461 2.34023,6.34805 1.03516,3.22382 1.79375,6.52382 c 1.22031,5.33008 1.93438,10.3375 3.95196,15.49297 3.99453,1.58203 8.22343,2.68516 12.42109,3.58438 0.0152,-0.066 0.0383,-0.13008 0.0457,-0.19727 0.0734,-0.67734 -0.32461,-1.6293 -0.51797,-2.28086 -1.14414,-3.85508 -3.26015,-7.28008 -5.25507,-10.73984 q -4.03594,-7.06524 -8.61407,-13.79219 -4.57812,-6.72695 -9.66992,-13.07383 z"
     id="path46"
     style="fill:#205d34;fill-opacity:1;stroke-width:0.390625" />
  <path
     fill="#acb19b"
     d="m 43.577344,196.61768 -0.296485,0.18047 c -0.302734,1.05547 -0.315234,2.1125 -0.364843,3.20235 7.469531,14.07383 14.380468,28.53164 21.391015,42.83984 2.473828,5.04922 4.587891,10.35703 7.325391,15.26094 l 0.921484,-1.19336 c 0.702344,-0.91836 1.370703,-1.87266 2.247266,-2.63477 -3.808203,-6.81054 -7.186328,-13.84336 -10.688672,-20.81289 q -4.758203,-9.48437 -9.716406,-18.86601 c -2.617578,-5.07383 -4.869532,-10.37696 -8.073047,-15.13242 -0.794141,-1.17891 -1.619531,-1.99727 -2.745703,-2.84415 z"
     id="path47"
     style="stroke-width:0.390625" />
  <path
     fill="#a67b76"
     d="m 326.6125,223.79542 q -0.98476,0.64219 -2.02109,1.19766 -1.03633,0.55546 -2.11641,1.01953 -1.08047,0.46445 -2.19648,0.83437 -1.11602,0.36953 -2.25977,0.64219 c 2.47149,8.34062 4.33633,21.55234 4.16914,30.31914 1.54492,-0.53711 7.43555,-2.40664 8.2625,-3.47539 1.58242,-2.04531 -2.78437,-26.85938 -3.83789,-30.5375 z"
     id="path48"
     style="fill:#205d34;fill-opacity:1;stroke-width:0.390625" />
  <path
     fill="#dfe3c1"
     d="m 42.578125,202.63644 c -1.420313,3.08281 0.06758,22.23749 0.51289,26.67187 4.6125,5.59336 11.740625,9.81133 18.235938,12.87969 l 0.203516,-0.0109 0.160937,-0.18828 C 59.191797,236.57241 56.373828,231.2564 53.697656,225.9228 49.83125,218.21772 46.094922,210.50952 42.578125,202.63648 Z"
     id="path49"
     style="stroke-width:0.390625" />
  <path
     fill="#a67b76"
     d="m 265.61485,137.06065 c -2.09415,0.19453 -4.51993,1.28321 -6.4293,2.12461 -2.33477,1.0293 -9.94063,4.77891 -10.78789,6.9875 0.13008,1.21016 8.23281,8.78203 9.59805,10.15821 1.77539,1.80703 3.78007,3.43437 5.20781,5.54296 0.90117,-1.1207 1.4914,-2.39101 1.98945,-3.72968 0.97695,-2.62657 1.43125,-5.47696 2.17539,-8.17969 0.94336,-3.42461 2.14961,-6.80586 2.90703,-10.27617 -1.53515,-0.975 -2.98359,-1.90274 -4.66054,-2.62774 z"
     id="path50"
     style="fill:#205d34;fill-opacity:1;stroke-width:0.390625" />
  <path
     fill="#dfe3c1"
     d="m 22.783594,147.04112 c -0.483594,-0.009 -0.967578,-0.003 -1.403907,0.23321 -1.285937,0.69648 -1.850781,2.14804 -2.236718,3.47929 -0.65,2.2418 -0.539453,4.69336 -0.353125,6.99297 0.862109,10.6375 5.667187,20.36836 10.701172,29.5707 l 1.440625,-1.08398 c -3.50586,-4.82148 -6.65,-14.30586 -6.866016,-20.29023 -0.06445,-1.78438 0.08516,-3.97383 1.410547,-5.31133 0.755469,-0.7625 1.877734,-1.22149 2.954297,-1.15782 1.921875,0.11407 3.232031,1.99883 4.367187,3.33633 3.051953,3.73555 8.802735,13.5461 8.976953,18.2918 0.05898,1.60898 -0.364453,2.39727 -1.455468,3.54336 1.261328,0.95039 2.25039,1.9207 3.192578,3.18086 l 2.565625,-2.77735 c -0.157422,-0.55546 -0.360547,-1.09179 -0.558985,-1.6332 -1.317578,-3.59805 -2.551953,-7.27851 -4.132422,-10.76992 -3.24414,-7.16875 -11.330078,-22.22969 -18.602343,-25.60469 z"
     id="path51"
     style="stroke-width:0.390625" />
  <path
     fill="#a67b76"
     d="m 271.41992,140.32979 c -0.77734,1.77461 -1.18945,3.92305 -1.71562,5.8 -1.67461,5.97188 -3.22852,11.95743 -4.36367,18.05899 1.53281,0.71758 2.98672,1.89023 4.38203,2.8543 q 4.67539,3.22734 9.26211,6.5789 c 1.12656,0.84063 2.17109,1.82617 3.23164,2.75 0.0703,-2.39648 0.057,-4.74609 -0.26953,-7.12617 -1.18516,-8.63125 -5.54102,-21.78867 -10.52696,-28.91602 z"
     id="path52"
     style="fill:#205d34;fill-opacity:1;stroke-width:0.390625" />
  <path
     fill="#acb19b"
     d="m 56.139844,183.43448 c -0.547266,-0.0348 -1.097266,-0.0703 -1.646094,-0.0707 -5.004688,-0.004 -7.372266,2.94883 -10.5625,6.20273 0.09336,1.99414 -0.11875,3.86328 -0.45625,5.82735 2.482812,0.62226 4.853906,1.69336 7.316016,2.39765 2.23789,0.64024 4.466796,0.82383 6.782421,0.94688 3.254297,-0.0191 6.626563,-0.47071 9.469922,-2.16914 1.822656,-1.08867 2.736719,-2.35235 3.272656,-4.37656 q -0.384375,-0.66368 -0.830859,-1.28711 c -3.041797,-4.19961 -8.359375,-6.62071 -13.345312,-7.4711 z"
     id="path53"
     style="stroke-width:0.390625" />
  <defs
     id="defs54">
    <linearGradient
       id="gradient_0"
       gradientUnits="userSpaceOnUse"
       x1="703.54541"
       y1="218.71748"
       x2="628.61584"
       y2="167.13213"
       gradientTransform="matrix(-0.390625,0,0,0.390625,384.38008,-17.204194)">
      <stop
         offset="0"
         stop-color="#9F6F6A"
         id="stop53" />
      <stop
         offset="1"
         stop-color="#D19187"
         id="stop54" />
    </linearGradient>
  </defs>
  <path
     fill="url(#gradient_0)"
     d="m 86.805468,32.275103 c -0.82578,-0.110938 -1.72187,-0.01094 -2.555078,0.01836 1.431248,2.465625 3.549998,4.432031 5.558988,6.417188 0.26718,-0.291407 0.56445,-0.646875 0.92187,-0.826953 1.3418,-0.675782 3.71641,0.109765 5.06133,0.592578 12.251172,4.397656 31.926562,19.842968 39.610942,30.235156 2.40586,3.253516 3.82773,6.662891 5.54258,10.275 1.75898,3.705078 5.92578,7.485934 9.8121,8.823044 2.55782,0.88008 5.08125,0.99024 7.55,-0.22656 1.54844,-0.99063 3.29688,-2.97461 3.9375,-4.72773 0.21954,-0.601176 0.17579,-0.969926 -0.0695,-1.546488 -0.75234,-0.116797 -1.55,0.36875 -2.3039,0.520703 -2.39922,0.483594 -5.11602,-0.05039 -7.36953,-0.929688 -4.80899,-1.876953 -8.72735,-6.073437 -12.41094,-9.571875 -5.47149,-5.196093 -10.46953,-10.836328 -15.9,-16.067968 -7.97539,-7.684375 -19.80156,-17.296094 -30.220312,-21.228907 -2.34649,-0.885937 -4.68985,-1.394531 -7.16602,-1.755859 z"
     id="path54"
     style="fill:url(#gradient_0);stroke-width:0.390625" />
  <path
     fill="#7f6b69"
     d="m 179.3543,199.3712 c 0.002,0.0594 -0.002,0.11953 0.006,0.17852 0.19414,1.3375 1.52031,3.18437 2.2375,4.325 7.12969,11.33398 19.7918,22.48125 30.15859,30.9 27.37422,22.23007 54.6836,34.5957 90.53477,30.79218 6.00703,-0.63711 22.53047,-3.16992 26.29648,-7.82929 l 0.67188,-1.30899 c -17.14219,8.0043 -36.65235,9.74297 -55.17383,6.55547 q -3.85508,-0.67344 -7.65742,-1.59883 -3.80274,-0.92539 -7.53594,-2.09922 -3.7332,-1.17343 -7.38125,-2.59023 -3.64805,-1.4168 -7.19492,-3.0707 c -14.2293,-6.73008 -27.92227,-17.39883 -39.95781,-27.49297 -5.51954,-4.6293 -11.20743,-9.46602 -16.0375,-14.81133 -3.35938,-3.71758 -6.08555,-7.86758 -8.9668,-11.94961 z"
     id="path55"
     style="fill:#205d34;fill-opacity:1;stroke-width:0.390625" />
  <path
     fill="#fefefe"
     d="m 46.351172,73.255572 c -0.734375,-0.0457 -1.475391,-0.06406 -2.204297,0.05586 -1.882813,0.310156 -3.457422,1.448047 -4.517188,3.007812 -3.040234,4.47461 -2.551562,12.465232 -1.523437,17.489452 0.990625,4.84063 3.178515,10.216024 7.435156,13.020314 1.949609,1.06446 3.952734,1.45469 6.141406,1.63907 -1.036718,-3.56524 -1.801562,-7.17032 -2.523047,-10.810944 -1.524609,-7.69258 -2.878906,-15.735938 -0.15039,-23.366798 -0.865235,-0.407031 -1.758594,-0.714844 -2.658203,-1.034766 z"
     id="path56"
     style="fill:#f5f500;fill-opacity:1;stroke-width:0.390625" />
  <path
     fill="#a67b76"
     d="m 312.14883,185.32042 c -2.35391,1.6918 -4.86289,0.75117 -6.79141,1.65859 -0.12226,0.45391 -0.11601,0.80078 0.002,1.25039 0.46172,1.76368 1.30234,3.55196 1.95039,5.26094 q 1.78359,4.6082 3.3,9.31094 c 2.19023,6.88008 3.71054,13.86172 5.68242,20.78945 l 1.73047,-0.47305 c 2.57148,-0.85664 5.1039,-2.01562 7.62265,-3.0246 -2.72578,-12.18672 -7.50664,-23.83672 -13.49648,-34.77266 z"
     id="path57"
     style="fill:#205d34;fill-opacity:1;stroke-width:0.390625" />
  <path
     fill="#a67b76"
     d="m 100.84649,11.782408 c -4.551572,-0.599415 -11.709382,-0.09313 -15.706642,2.393085 -2.089067,1.299258 -3.705473,3.37504 -4.232036,5.800391 -0.90625,4.173828 1.095703,8.541797 3.23125,12.00586 0.477736,-0.273047 0.993746,-0.570704 1.519536,-0.741407 3.68828,-1.196484 8.4082,1.132032 11.6914,2.635157 -0.94414,-2.600391 -1.69648,-5.128516 -1.25547,-7.927735 0.50703,-3.216797 2.18985,-5.198594 4.732822,-7.047265 0.54687,-0.325235 1.10976,-0.601016 1.69765,-0.843555 9.41797,-3.884844 20.73789,0.682344 29.51602,4.363476 l 0.005,-0.115625 0.27071,0.133594 -0.0949,0.04648 0.34257,0.09727 c -1.39492,-1.133711 -3.39336,-2.041758 -4.99336,-2.898555 -8.58085,-4.595078 -17.03085,-7.151406 -26.72421,-7.901171 z"
     id="path58"
     style="stroke-width:0.390625" />
  <path
     fill="#a67b76"
     d="m 149.8668,131.48409 c -0.46016,-0.0332 -0.23984,-0.0676 -0.6625,0.0981 -0.55078,2.73359 2.1457,9.87656 2.82656,12.89961 0.58789,2.6082 0.99453,5.31484 0.98594,7.99336 -0.0148,4.49726 -1.29453,8.56679 -2.62735,12.80781 2.77813,4.04453 5.44063,8.85703 5.83985,13.82656 0.10508,1.3086 -0.0926,4.24883 0.6539,5.28203 l 0.27618,-0.50117 c 0.93086,-3.25664 1.8625,-6.5082 2.59882,-9.81562 2.36954,-10.64102 3.83711,-23.0375 0.91211,-33.68399 -0.45859,-1.66836 -0.96992,-3.55469 -1.94843,-5.00351 -1.70274,-2.52188 -6.06875,-3.40469 -8.85508,-3.90313 z"
     id="path59"
     style="fill:#205d34;fill-opacity:1;stroke-width:0.390625" />
  <path
     fill="#a67b76"
     d="m 203.82656,230.19933 c -1.54531,0.83945 -5.96523,8.07031 -7.29921,10.05273 1.92929,1.79922 4.11718,3.41992 6.16953,5.08047 6.46914,5.23515 13.0457,10.06523 20.04297,14.58008 l 1.5789,1.06015 c 1.36211,-3.73945 2.84297,-7.55351 5.1043,-10.85 -8.78438,-6.18554 -17.8918,-12.39726 -25.59649,-19.92343 z"
     id="path60"
     style="fill:#205d34;fill-opacity:1;stroke-width:0.390625" />
  <path
     fill="#a67b76"
     d="m 181.15235,206.13878 c -3.52266,2.61875 -6.42383,6.325 -9.71485,9.2582 6.89727,8.07852 14.63164,15.36641 22.45235,22.52969 l 1.44921,1.3418 c 2.23633,-3.62891 4.57344,-6.96368 7.31055,-10.23008 -2.45234,-1.89492 -4.70586,-4.12149 -6.92187,-6.2832 -5.36836,-5.23711 -10.1836,-10.52227 -14.57539,-16.61641 z"
     id="path61"
     style="fill:#205d34;fill-opacity:1;stroke-width:0.390625" />
  <path
     fill="#a67b76"
     d="m 140.92539,28.488384 c -0.004,1.288281 1.5793,3.88125 2.09688,5.136719 0.87734,2.128125 1.50195,4.433203 2.10039,6.655859 1.37773,5.120313 2.18828,10.766016 2.48476,16.066016 0.33516,5.990234 -0.38164,11.495703 -4.5,16.129687 4.34805,3.800391 8.2375,7.22461 14.01602,8.592188 1.72422,0.04805 3.38984,-0.101172 5.09648,-0.335156 C 159.88438,63.087603 151.5586,42.736431 140.92539,28.488384 Z"
     id="path62"
     style="stroke-width:0.390625" />
  <path
     fill="#a67b76"
     d="m 170.86758,177.83722 c -4.01094,2.19218 -7.63398,4.58398 -12.00898,6.07617 -0.38555,1.19492 -0.90508,1.7539 -1.89102,2.525 3.14023,9.0375 6.54648,17.33359 11.85156,25.35664 l 1.90547,2.65117 c 2.43125,-3.57656 6.38477,-6.84023 10.01797,-9.1293 -5.3043,-8.30898 -8.92695,-17.63632 -9.875,-27.47968 z"
     id="path63"
     style="fill:#205d34;fill-opacity:1;stroke-width:0.390625" />
  <path
     fill="#dfe3c1"
     d="m 367.55703,274.21729 c -3.48066,0.14961 -6.95695,0.67422 -10.42273,1.01329 -3.99352,0.39101 -8.04024,0.56054 -12.0507,0.65898 -3.62305,0.0891 -7.26524,-0.11992 -10.88633,-0.25156 -1.94727,-0.0711 -3.9918,-0.27969 -5.92461,-0.0109 -3.03125,0.42109 -7.4793,2.29766 -10.85195,3.04805 -9.62266,2.14062 -19.14219,2.99961 -28.9836,3.21992 l 3.96445,1.18633 c 3.37774,0.68554 6.68907,1.69062 10.05352,2.44258 14.7918,3.30585 30.12227,1.92187 44.57168,-2.19415 4.38734,-1.25 8.76203,-2.66171 12.88406,-4.63789 2.67379,-1.28164 5.14703,-2.88945 7.64621,-4.47461 z"
     id="path64"
     style="stroke-width:0.390625" />
  <path
     fill="#acb19b"
     d="m 37.813281,186.14347 -0.201562,-0.025 c -2.142579,-0.24727 -3.840625,0.53554 -5.494922,1.86289 -4.184766,3.35664 -6.975391,7.20039 -7.578516,12.63554 -1.080859,9.74141 5.444922,18.85938 11.246485,26.03555 1.908203,2.30078 3.925,4.36523 6.385156,6.07656 -2.553516,-9.29609 -2.727735,-21.16836 -1.665625,-30.73359 0.459375,-4.13867 1.451953,-8.2707 1.48789,-12.44258 -1.182812,-1.96836 -2.030859,-2.68672 -4.178906,-3.40937 z"
     id="path65"
     style="stroke-width:0.390625" />
  <path
     fill="#a67b76"
     d="m 200.14102,116.34229 c -12.71992,0.62696 -23.76055,2.13282 -35.27539,7.99766 4.14687,2.325 7.61679,6.33984 10.81015,9.82266 1.55196,1.77187 3.03828,3.52383 4.26641,5.54023 8.48281,-4.32617 17.15391,-8.1375 25.41094,-12.90273 -2.23047,-3.42618 -4.14805,-6.45703 -5.21211,-10.45782 z"
     id="path66"
     style="fill:#205d34;fill-opacity:1;stroke-width:0.390625" />
  <path
     fill="#a67b76"
     d="m 111.26875,18.424712 c -2.54805,-0.104453 -5.33047,0.138164 -7.75547,0.966914 -2.23086,0.762344 -4.142972,2.194571 -5.138672,4.374102 -1.63633,3.583984 -0.22265,7.476172 1.01719,10.932422 5.959372,2.470703 11.357422,6.657422 16.358982,10.65039 l 0.95625,-3.228515 q 0.22852,-0.713672 0.50274,-1.411328 c 3.08398,-7.664063 9.86133,-13.073047 17.27304,-16.190235 -1.70468,-0.845703 -3.63398,-1.373828 -5.4414,-1.984375 -5.92266,-2.000547 -11.48867,-3.728359 -17.77266,-4.109375 z"
     id="path67"
     style="stroke-width:0.390625" />
  <path
     fill="#a67b76"
     d="m 143.42969,2.0174084 c -11.48281,-0.89836 -23.05977,0.881171 -33.94024,4.552773 -2.70429,0.912539 -5.63281,1.909375 -8.05937,3.413437 11.39766,1.3542966 16.94609,2.6950786 27.15977,7.9752346 2.23046,1.246758 4.30664,2.735508 6.35273,4.259219 1.09414,-1.128907 2.32187,-2.647422 4.00586,-2.776211 1.74297,-0.133243 3.21953,1.412929 4.41992,2.465664 7.06758,-4.981172 13.75156,-10.292539 20.60899,-15.5380856 -6.36329,-2.580469 -13.72383,-3.846758 -20.54766,-4.352031 z"
     id="path68"
     style="stroke-width:0.390625" />
  <path
     fill="#a67b76"
     d="m 135.22617,25.756353 c -1.39687,0.575 -2.7664,1.180078 -4.09023,1.911719 -7.33945,4.055078 -12.38086,10.610156 -14.71367,18.597656 6.89531,4.626953 12.5125,11.344531 18.00547,17.478906 2.55195,2.685547 5.20468,5.2875 7.80273,7.929297 0.79805,-1.144141 1.52266,-2.258594 2.07656,-3.542578 3.25157,-7.535547 0.75547,-22.290234 -1.50468,-30.137109 -1.00899,-3.502735 -2.36172,-6.857032 -3.71407,-10.2375 -1.33164,-0.611329 -2.61992,-1.221094 -3.86211,-2.000391 z"
     id="path69"
     style="stroke-width:0.390625" />
  <path
     fill="#dfe3c1"
     d="m 153.64649,174.93917 c -1.00977,1.33594 -1.85,3.07187 -2.77383,4.50039 -3.73438,5.77383 -7.43125,10.90391 -12.89024,15.20625 1.70743,4.02773 3.11485,8.18281 4.84102,12.20508 4.13633,9.63711 9.42031,18.06133 15.96445,26.23789 0.86211,1.05937 1.76055,2.06484 2.6961,3.05976 2.32343,-4.67109 6.9539,-14.50507 10.13007,-18.31836 -7.83593,-8.35625 -13.44609,-21.41367 -16.13711,-32.49101 -0.82695,-3.40586 -1.25117,-6.94258 -1.83046,-10.4 z"
     id="path70"
     style="stroke-width:0.390625" />
  <path
     fill="#a67b76"
     d="m 313.59141,228.30558 c -4.11172,2.01328 -13.78516,1.45 -18.56602,1.09726 -2.15,-0.15898 -4.55429,-0.57266 -6.68554,-0.31914 -0.98946,2.44883 -2.38594,29.88047 -2.26133,33.59961 1.62343,0.13906 3.23867,0.17227 4.8664,0.19766 9.81211,0.0527 19.09649,-1.37657 28.47774,-4.23789 -0.975,-7.38165 -2.64024,-14.78282 -4.14453,-22.07969 -0.56563,-2.74453 -1.26563,-5.48867 -1.68672,-8.25781 z"
     id="path71"
     style="fill:#205d34;fill-opacity:1;stroke-width:0.390625" />
  <path
     fill="#a67b76"
     d="m 230.42852,250.73604 c -0.20157,0.0789 -0.34414,0.25625 -0.44961,0.44532 -0.52774,0.9457 -0.85625,2.14375 -1.27422,3.15586 -0.99531,2.40937 -2.05703,4.82695 -3.40273,7.06367 l 0.15039,0.23281 0.39648,-0.14258 -0.28281,0.22266 0.21836,-0.28711 -0.0395,0.34766 c 3.21094,1.42187 6.27969,3.64882 9.41211,5.30976 6.05235,3.20938 12.29649,5.62539 18.79414,7.75586 0.11797,-3.7582 -0.0828,-7.79883 1.30039,-11.35234 0.61172,3.78359 0.44571,7.98047 -0.0242,11.78164 5.34179,1.62734 10.84687,2.75937 16.30625,3.9164 0.0566,-0.0406 0.11171,-0.084 0.17031,-0.12226 3.72617,-2.43594 9.56836,0.33828 13.46133,1.08594 l 0.25742,0.0473 c -0.46719,-4.01328 -0.55195,-8.04492 0.16992,-12.03281 0.7332,3.53437 0.99531,7.08594 1.26797,10.67773 0.0242,0.34649 0.0785,0.62032 0.16055,0.95469 1.53476,0.43203 3.63671,0.13242 5.23359,0.0664 6.90742,-0.28594 13.54844,-0.96368 20.35078,-2.18008 q -0.97812,-5.9418 -2.76758,-11.69141 c -18.34883,3.19024 -38.1164,2.59414 -55.76054,-3.77265 -8.23594,-2.97227 -16.09727,-7.08829 -23.64883,-11.48243 z"
     id="path72"
     style="fill:#205d34;fill-opacity:1;stroke-width:0.390625" />
  <path
     fill="#dfe3c1"
     d="m 185.22461,232.17003 c -1.12344,4.63203 3.94375,22.42265 5.85117,27.39297 3.34375,1.83047 6.40664,4.16133 9.79571,5.96875 21.35429,11.38633 45.36523,20.00664 69.79726,20.26836 -0.28594,-1.75899 -0.23984,-3.29336 -0.0703,-5.05352 -2.39141,-0.55937 -4.85313,-0.88281 -7.26094,-1.3832 q -6.43711,-1.33672 -12.675,-3.4125 c -17.52851,-5.84024 -38.60039,-20.03399 -52.63672,-31.95156 -4.45547,-3.78282 -8.53008,-7.85586 -12.80117,-11.8293 z"
     id="path73"
     style="stroke-width:0.390625" />
  <path
     fill="#a67b76"
     d="m 250.89492,219.48839 -0.3664,0.0672 c -1.20977,1.74882 -1.76406,5.13789 -2.33242,7.20117 q -1.94922,7.11718 -3.77579,14.26718 c -0.82968,3.29063 -1.53984,6.64961 -2.58046,9.88008 10.90351,4.96797 21.95234,8.45742 33.73125,10.65078 2.62968,0.41954 5.29492,0.80039 7.9539,0.96055 -0.55312,-6.49726 -0.9332,-12.9332 -0.98398,-19.45547 -0.0324,-4.15664 0.53008,-9.08203 -0.1168,-13.12344 -0.70234,-0.67031 -10.55937,-2.38085 -12.52305,-2.93554 -6.65937,-1.88164 -12.82656,-4.42656 -19.00625,-7.5125 z"
     id="path74"
     style="fill:#205d34;fill-opacity:1;stroke-width:0.390625" />
  <path
     fill="#a67b76"
     d="m 160.8582,126.88253 c -2.32773,0.94883 -4.6164,2.23242 -6.60585,3.77305 6.23085,1.87539 13.04882,8.08203 16.13554,13.78984 6.56328,12.1375 0.54649,26.45117 3.50703,39.33086 1.27657,5.5543 4.34844,11.19961 7.46797,15.96172 3.04727,4.65234 6.64258,9.39218 10.77071,13.13242 0.17929,-0.31875 0.27812,-0.61641 0.39414,-0.96172 0.007,-0.0551 0.0137,-0.11016 0.0223,-0.16484 0.66016,-4.2293 7.08516,-16.93633 9.52969,-20.94688 0.90547,-1.48555 4.88711,-6.67812 4.89492,-7.98867 0.005,-0.84766 -0.64492,-1.82578 -1.11601,-2.48242 -1.8168,-2.53164 -4.15664,-4.86836 -6.21329,-7.21953 -3.84257,-4.39219 -7.64843,-8.80977 -11.1871,-13.45391 -3.09415,-4.06094 -6.31875,-8.10156 -9.14454,-12.35352 -2.36953,-3.56562 -4.17734,-7.42851 -7.01054,-10.67851 -3.16368,-3.63008 -7.20938,-7.44258 -11.44493,-9.73789 z"
     id="path75"
     style="fill:#205d34;fill-opacity:1;stroke-width:0.390625" />
  <path
     fill="#8b9184"
     d="m 95.870308,65.47979 c -5.2164,-0.323437 -10.6746,0.07969 -15.036714,3.258594 -3.725782,2.715235 -6.289063,7.435938 -6.983203,11.955859 -1.274219,8.297263 1.202343,18.802733 6.184375,25.566797 3.185546,4.325 6.785152,6.93086 12.112112,7.75 5.30742,0.47539 9.710932,-0.88242 13.950392,-4.1039 4.75156,-3.61094 7.08945,-9.01875 7.86601,-14.821104 0.99961,-7.4664 -0.77656,-16.249214 -5.44297,-22.286324 C 105.35,68.69815 100.98594,66.149322 95.870308,65.47979 Z"
     id="path76"
     style="stroke-width:0.390625" />
  <path
     d="m 93.824998,69.002056 c -0.0379,-0.0066 -0.0754,-0.01641 -0.11367,-0.01992 -3.79023,-0.348047 -8.19805,0.06524 -11.282422,2.515234 -3.589453,2.850782 -5.239062,8.185938 -5.632812,12.578516 -0.638672,7.12695 1.360546,16.088284 6.033203,21.664454 2.921481,3.48633 6.329691,4.78985 10.760551,5.16602 q 0.3664,-0.004 0.73242,-0.0234 0.36562,-0.0187 0.73047,-0.0523 0.36484,-0.0336 0.72812,-0.0816 0.36328,-0.0477 0.72422,-0.11016 0.36094,-0.0625 0.71953,-0.13906 0.3582,-0.077 0.71289,-0.16758 0.35508,-0.091 0.70625,-0.1961 0.35078,-0.10468 0.69727,-0.22343 0.34687,-0.11914 0.688282,-0.25157 0.3414,-0.13242 0.67773,-0.27851 0.33594,-0.1461 0.66602,-0.30547 0.32969,-0.15898 0.65312,-0.33125 0.32344,-0.17227 0.63946,-0.35742 0.3164,-0.18516 0.625,-0.38242 0.30859,-0.19727 0.60898,-0.40703 0.30078,-0.20938 0.59258,-0.43086 c 3.90586,-3.01055 5.75156,-7.370324 6.33984,-12.164074 0.8211,-6.68515 -1.29257,-14.623432 -5.48398,-19.924604 C 102.175,71.06585 98.834378,69.590069 93.824998,69.002178 Z"
     id="path77"
     style="stroke-width:0.390625" />
  <path
     fill="#fefefe"
     d="m 89.466408,90.773536 c -0.68906,0.0258 -1.01055,0.0477 -1.58906,0.4375 -0.1961,0.43829 -0.33907,0.64141 -0.14375,1.12813 0.23359,0.58242 0.73164,0.83945 1.25586,1.11172 0.50117,-0.002 0.85898,-0.025 1.34453,-0.17695 0.20039,-0.22891 0.39296,-0.32344 0.38007,-0.64922 -0.0324,-0.79532 -0.70703,-1.35157 -1.24765,-1.85118 z"
     id="path78"
     style="stroke-width:0.390625" />
  <path
     fill="#dfe3c1"
     d="m 100.40039,72.557915 c -0.729292,0.246485 -1.436722,0.705078 -2.117192,1.069141 5.603522,3.319141 8.505862,8.459766 10.731652,14.40156 0.14296,0.40899 0.30546,0.81328 0.45859,1.21836 0.0676,-0.28945 0.0801,-0.20859 0.0422,-0.46172 -0.94142,-6.293356 -3.93556,-12.415231 -9.11525,-16.227341 z"
     id="path79"
     style="stroke-width:0.390625" />
  <path
     fill="#8b9184"
     d="m 93.069138,70.374322 c -3.79922,-0.134375 -7.7039,0.332031 -10.731638,2.786328 2.091408,0.536328 3.933208,0.688672 6.095308,0.689062 3.29141,-0.04102 8.56172,-0.164843 11.35352,-1.954297 -2.20078,-0.998437 -4.32266,-1.350781 -6.71719,-1.521093 z"
     id="path80"
     style="stroke-width:0.390625" />
  <path
     fill="#fefefe"
     d="m 81.614844,74.058306 c -0.04531,0.03047 -0.09609,0.05352 -0.135547,0.09102 -2.244141,2.14375 -3.557422,8.005078 -3.819141,10.98476 -0.568359,6.47734 1.722656,14.970314 5.984766,19.960554 2.334376,2.73359 5.465236,4.41328 9.071096,4.65586 4.26758,0.2875 8.817972,-1.62696 11.996872,-4.41328 3.03164,-2.65704 4.44063,-6.196104 4.69453,-10.182434 0.3418,-5.37109 -3.63164,-13.183195 -7.19453,-17.108195 -1.80781,-1.991406 -3.697262,-3.400781 -6.474222,-3.541015 -3.01718,0.282812 -5.57226,0.953515 -7.77539,3.170312 -3.1914,3.211328 -3.51484,7.685148 -3.5539,11.958198 0.0516,-0.0422 0.10195,-0.0855 0.15468,-0.12617 1.25469,-0.97149 2.61407,-1.58203 4.23438,-1.34102 1.93164,0.2875 3.56445,1.7336 4.71601,3.2336 1.43047,1.86406 1.95704,3.91992 2.85118,6.03164 0.51953,1.22695 1.27187,2.33828 1.67031,3.619924 0.23164,0.74648 0.3457,1.54492 0.21719,2.32148 -0.19024,1.15 -0.97735,2.24063 -1.95235,2.86602 -0.92968,0.59648 -2.01172,0.56953 -3.05664,0.34531 -2.58359,-0.55469 -4.36094,-2.55859 -5.74336,-4.67734 -3.457028,-5.298834 -5.208981,-12.260554 -3.845309,-18.511724 0.816799,-3.745699 2.577339,-6.464449 5.836329,-8.52773 -2.80313,0.112109 -5.223439,0.179297 -7.876954,-0.809766 z"
     id="path81"
     style="fill:#f5f500;fill-opacity:1;stroke-width:0.390625" />
  <path
     fill="#dfe3c1"
     d="m 86.169138,45.764556 c -5.003904,-0.457422 -10.382029,0.424219 -14.999998,2.39375 -9.360937,3.992187 -15.714062,12.459766 -19.40039,21.642578 2.942969,1.388672 5.028906,3.299219 6.883984,5.963281 2.625781,-0.975781 5.240625,-1.832031 7.948438,-2.544531 0.01055,-2.004297 0.123828,-4.000391 0.10664,-6.008203 -0.719922,-0.224219 -1.489062,-0.453906 -2.1625,-0.796484 -1.051562,-0.534766 -2.023437,-1.434766 -2.363281,-2.59375 -0.344922,-1.176954 0.01875,-2.392188 0.624219,-3.417188 0.871094,-1.474219 2.320312,-2.692969 3.995312,-3.119141 1.68711,-0.429296 3.490625,0.01523 4.920703,0.967579 1.066016,0.709765 2.140625,1.911718 2.331641,3.221093 0.171875,1.175782 -0.101953,2.355469 -0.851172,3.286719 -1.309375,1.627344 -3.45,2.281641 -5.447656,2.472656 0.09336,1.928907 0.162891,3.809766 0.002,5.7375 1.475,-0.382031 5.510547,-1.75 6.881641,-1.114453 l 0.02383,0.38125 c -0.772266,0.776563 -2.938672,0.870313 -4.052735,1.130078 -3.829687,0.89375 -7.698046,1.833203 -11.355859,3.2875 2.498047,4.081641 3.762109,8.240626 4.722266,12.883206 q 4.338672,-0.32657 8.68125,-0.59375 c -0.04922,-1.48555 -0.03086,-2.97071 -0.01953,-4.45664 0.04883,-3.126956 0.397266,-5.985941 1.641407,-8.876175 1.938281,-4.501562 5.030078,-7.969922 9.657812,-9.782813 5.114838,-2.003515 12.482418,-2.198046 17.54766,0.04375 4.88828,2.163672 8.71914,6.275391 10.82929,11.162891 0.80547,1.866016 1.33633,3.827344 2.07579,5.716797 8.78867,-0.772656 17.66054,-0.374609 26.44687,0.16211 q -0.20781,-0.265626 -0.42227,-0.526173 c -3.18208,-3.813671 -6.6809,-7.497656 -10.14692,-11.048437 -12.00117,-12.296875 -26.3332,-23.892969 -44.098442,-25.575 z"
     id="path82"
     style="stroke-width:0.390625" />
  <path
     d="m 79.595703,49.650103 c -1.43125,-0.01406 -3.083984,0.245312 -4.367969,0.889062 -0.916406,0.459375 -1.735937,1.174219 -2.035156,2.185938 -0.217578,0.737109 -0.08086,1.497266 0.277734,2.165234 1.07461,2.003125 3.432422,2.773438 5.459766,3.398438 1.768359,0.237109 3.85,0.251953 5.377734,-0.792969 0.830466,-0.567578 1.408206,-1.425391 1.535936,-2.429297 0.13242,-1.037109 -0.22578,-2.033594 -0.85703,-2.849219 -1.334374,-1.723828 -3.334374,-2.278125 -5.391015,-2.567187 z"
     id="path83"
     style="stroke-width:0.390625" />
  <path
     fill="#acb19b"
     d="m 80.314062,50.608306 q -0.877734,-0.05742 -1.751172,0.04687 -0.873437,0.104297 -1.71289,0.367187 c -0.984375,0.30625 -2.015625,0.901954 -2.467578,1.873047 -0.261328,0.561329 -0.239844,1.123047 -0.01289,1.689063 0.622656,1.551172 2.759766,2.108594 4.194141,2.576172 1.54414,0.271484 3.217969,0.464453 4.659375,-0.294141 0.647656,-0.340625 1.19375,-0.93164 1.40391,-1.641406 0.21132,-0.714844 0.0812,-1.490234 -0.280863,-2.133203 -0.833594,-1.480469 -2.475391,-2.097657 -4.032032,-2.483594 z"
     id="path84"
     style="stroke-width:0.390625" />
  <path
     d="m 110.51914,63.494634 c -0.27656,0.03555 -0.57422,0.06055 -0.83945,0.157031 -0.55274,0.201172 -0.89414,0.532032 -1.14844,1.05586 -0.0797,0.848047 0.12344,1.404297 0.54727,2.140625 2.42265,4.205078 6.6875,8.299218 11.44414,9.597265 0.30078,-0.04336 0.63906,-0.06836 0.92226,-0.192968 0.63282,-0.278125 1.20625,-0.925782 1.36524,-1.590235 0.28984,-1.213281 -0.77149,-2.914062 -1.44258,-3.885156 -2.30859,-3.339063 -6.85234,-6.514063 -10.84844,-7.282422 z"
     id="path85"
     style="stroke-width:0.390625" />
  <path
     fill="#acb19b"
     d="m 110.73985,64.457525 c -0.15,0.0043 -0.33672,0.002 -0.4793,0.04609 -0.49922,0.154296 -0.5625,0.298828 -0.76641,0.733593 0.041,0.535156 0.21446,0.921094 0.47735,1.379688 2.09531,3.651172 6.34257,7.694531 10.49101,8.761719 0.2918,-3.91e-4 0.53633,-0.05 0.82149,-0.10586 0.14336,-0.175 0.17734,-0.195703 0.27812,-0.43125 0.37109,-0.864453 -0.0121,-2.122265 -0.44375,-2.888672 -1.95312,-3.466406 -6.61211,-6.464062 -10.37851,-7.495312 z"
     id="path86"
     style="stroke-width:0.390625" />
  <path
     d="m 96.256638,52.005572 c -1.08515,-0.04414 -2.46484,-0.02617 -3.46797,0.398437 -1.21914,0.516016 -2.34101,1.304297 -2.82422,2.588281 -0.32343,0.860157 -0.23203,1.74375 0.17266,2.559766 1.43281,2.889063 5.55742,3.973828 8.38164,4.84375 1.624222,0.301953 3.630472,0.552344 5.080862,-0.445312 0.61719,-0.424219 1.0082,-1.110547 1.13906,-1.840235 0.26094,-1.45039 -0.34453,-2.878515 -1.21679,-4.008594 q -0.16328,-0.2125 -0.33672,-0.416406 -0.17383,-0.203906 -0.35742,-0.398828 -0.1836,-0.195312 -0.37696,-0.380469 -0.19297,-0.185547 -0.39531,-0.361328 -0.20234,-0.175391 -0.41328,-0.340625 -0.21094,-0.165234 -0.43008,-0.319531 -0.21875,-0.154297 -0.44531,-0.297266 -0.22617,-0.143359 -0.45977,-0.274609 -0.2332,-0.131641 -0.473042,-0.251172 -0.23946,-0.119922 -0.48477,-0.227344 -0.24531,-0.107422 -0.49609,-0.202344 -0.25039,-0.09492 -0.50508,-0.177343 -0.25508,-0.08203 -0.51367,-0.151563 -0.25899,-0.06914 -0.52071,-0.12539 -0.26211,-0.05625 -0.52656,-0.09922 -0.26406,-0.04297 -0.53047,-0.07266 z"
     id="path87"
     style="stroke-width:0.390625" />
  <path
     fill="#acb19b"
     d="m 97.287888,53.168462 c -1.14804,-0.0957 -2.3957,-0.107422 -3.50976,0.217969 -0.99453,0.290234 -2.43868,0.902734 -2.89571,1.925781 -0.26093,0.583594 -0.25468,1.097266 0.0191,1.676563 1.0961,2.318359 4.3086,3.323828 6.51329,4.185937 1.63281,0.36875 3.737892,0.945313 5.246092,-0.08086 0.5418,-0.36875 0.89062,-0.928516 0.99766,-1.575391 0.17343,-1.046875 -0.25469,-2.102343 -0.84727,-2.945703 -1.33828,-1.905469 -3.260942,-3.009765 -5.523442,-3.404297 z"
     id="path88"
     style="stroke-width:0.390625" />
  <path
     fill="#a67b76"
     d="m 245.56953,216.91847 c -8.24179,-5.64063 -16.35429,-11.8625 -23.53554,-18.81719 -2.7375,-2.65078 -5.53711,-5.31719 -8.13243,-8.10508 -0.83867,-0.90039 -1.48437,-2.19883 -2.47461,-2.92656 -0.39648,-0.2918 -0.60351,-0.33438 -1.07812,-0.26485 -2.07344,1.64454 -10.06133,15.26797 -11.69062,18.42891 -1.37852,2.67344 -2.69063,6.15742 -4.36993,8.58047 l -0.0742,-0.18086 -0.56211,0.59766 c 2.33711,3.2539 8.23985,7.89257 11.45196,10.5082 11.02383,8.975 22.27461,17.67695 34.51094,24.95625 0.52851,-11.12773 3.52734,-21.96797 5.95468,-32.77695 z"
     id="path89"
     style="fill:#205d34;fill-opacity:1;stroke-width:0.390625" />
  <path
     fill="#dfe3c1"
     d="m 276.4625,280.30831 c -0.99726,-0.0621 -2.62031,-0.36602 -3.47344,0.25352 -0.4207,0.30546 -0.57578,0.76132 -0.6457,1.25507 -0.14726,1.03633 0.25742,2.36289 0.52188,3.36563 1.67343,6.35 5.16953,12.13281 9.02226,17.39101 16.88281,23.04024 40.73906,41.73399 69.5041,46.18047 1.51543,0.17266 3.01641,0.24532 4.54055,0.29219 q -0.45344,-1.78437 -0.9891,-3.5457 -0.53567,-1.76094 -1.15238,-3.49571 -0.61676,-1.73437 -1.31325,-3.43867 -0.69648,-1.70429 -1.47125,-3.37422 -0.77472,-1.66992 -1.62609,-3.30234 -0.85133,-1.63203 -1.77742,-3.22305 -0.9261,-1.59101 -1.92496,-3.1375 -0.99879,-1.54648 -2.06832,-3.04492 c -3.59883,-5.07461 -7.62032,-9.71406 -12.45274,-13.65273 -9.60039,-7.82461 -21.22031,-13.43086 -32.19609,-19.02969 -5.23125,-2.66875 -10.44922,-5.64063 -15.94766,-7.72695 q -1.59101,-0.59883 -3.23242,-1.04141 -1.64141,-0.44258 -3.31797,-0.725 z"
     id="path90"
     style="stroke-width:0.390625" />
  <path
     d="m 301.25508,300.38253 c -0.49062,-0.0316 -0.90039,0.005 -1.37031,0.14336 -0.60586,0.17851 -1.16016,0.48398 -1.43125,1.08789 -0.35391,0.78789 0.0516,1.88476 0.38476,2.61406 q 0.10469,0.22617 0.22032,0.44727 0.11523,0.22109 0.24179,0.43593 0.12617,0.21485 0.26289,0.42344 0.13672,0.2086 0.28321,0.41016 0.14687,0.20156 0.30351,0.3957 0.15625,0.19414 0.32227,0.38008 0.16562,0.18633 0.34023,0.36406 0.175,0.17774 0.35821,0.34688 0.1832,0.16914 0.3746,0.3289 0.19141,0.15977 0.39024,0.31016 0.19883,0.15 0.40508,0.29062 0.20625,0.14024 0.41875,0.27032 0.21289,0.12968 0.43164,0.24922 0.21914,0.11953 0.44336,0.22812 0.22461,0.1082 0.4539,0.20586 0.22969,0.0973 0.46368,0.1832 c 0.33281,-0.001 0.6457,-0.034 0.96953,-0.11015 0.67617,-0.15899 1.4539,-0.5293 1.76484,-1.18907 0.41641,-0.8832 0.0164,-1.95937 -0.38281,-2.77265 -1.11758,-2.27656 -3.28321,-4.18906 -5.64844,-5.04336 z"
     id="path91"
     style="stroke-width:0.390625" />
  <path
     fill="#acb19b"
     d="m 301.07774,301.32472 c -0.19922,0.0195 -0.37813,0.0281 -0.57305,0.0914 -0.50195,0.16289 -0.74453,0.41367 -1.01602,0.84492 -0.1082,0.7211 0.0113,1.16602 0.34805,1.81329 1.08672,2.08789 2.89922,3.67148 5.12461,4.38515 0.65469,-0.14726 0.79961,-0.17031 1.31641,-0.63906 0.1957,-0.5125 0.1957,-0.85352 0.006,-1.36289 -0.79649,-2.14297 -3.16133,-4.25039 -5.20625,-5.13281 z"
     id="path92"
     style="stroke-width:0.390625" />
  <path
     d="m 289.34727,298.83018 c -0.65313,-0.0402 -1.27227,-0.0699 -1.90821,0.11602 -0.54726,0.16016 -1.04062,0.47539 -1.24765,1.03633 -0.28672,0.77578 0.12422,1.75859 0.48047,2.44258 1.21679,2.33554 3.50234,4.41914 6.01172,5.19414 0.7371,0.0863 1.4164,0.15117 2.12382,-0.12774 0.46016,-0.18125 0.83086,-0.48945 0.975,-0.97929 0.24102,-0.8168 -0.18203,-1.85586 -0.55195,-2.57344 -1.15781,-2.24649 -3.46289,-4.38203 -5.8832,-5.1086 z"
     id="path93"
     style="stroke-width:0.390625" />
  <path
     fill="#acb19b"
     d="m 288.78242,299.61612 c -0.17734,0.0129 -0.40664,0.0231 -0.575,0.068 -0.55547,0.14727 -0.6664,0.29336 -0.98671,0.73203 -0.0594,0.51641 0.007,0.84492 0.22539,1.30664 1.09218,2.30274 3.45039,4.26875 5.82851,5.05117 0.19922,-0.0125 0.51484,-0.0223 0.69961,-0.0808 0.49688,-0.15743 0.65,-0.38985 0.90703,-0.79688 0.0441,-0.59414 -0.1207,-1.01992 -0.40664,-1.53086 -1.14531,-2.0457 -3.46484,-4.06562 -5.69219,-4.74922 z"
     id="path94"
     style="stroke-width:0.390625" />
  <path
     d="m 300.76485,311.93995 c -0.79258,-0.007 -1.51172,0.13008 -2.2168,0.51406 -0.43828,0.23868 -0.70274,0.58243 -0.80977,1.07774 -0.16601,0.77031 0.40118,1.83476 0.77969,2.46445 1.43867,2.39375 3.97539,4.25 6.6793,4.88867 0.76054,-0.0484 1.37226,-0.18906 2.04101,-0.57383 0.51602,-0.29648 0.95274,-0.67812 1.06641,-1.29687 0.16992,-0.92188 -0.37031,-2.02813 -0.84219,-2.78594 -1.52812,-2.45508 -3.99492,-3.62422 -6.69765,-4.28828 z"
     id="path95"
     style="stroke-width:0.390625" />
  <path
     fill="#acb19b"
     d="m 301.70117,313.1005 q -0.50429,-0.0609 -1.01093,-0.0988 c -0.69375,-0.0457 -1.13555,0.0297 -1.675,0.50469 -0.16954,0.47929 -0.22774,0.73007 -0.0605,1.22539 0.75234,2.2289 3.34766,3.98281 5.36406,4.92461 0.42422,0.0934 0.8293,0.16093 1.26602,0.13242 0.61679,-0.0402 1.16914,-0.16485 1.57968,-0.65078 0.13008,-0.52188 0.12657,-0.8836 -0.0723,-1.38203 -0.95273,-2.39063 -3.12188,-3.73321 -5.39102,-4.65547 z"
     id="path96"
     style="stroke-width:0.390625" />
  <path
     d="m 313.01367,307.06065 c -1.06484,-0.10625 -1.82617,-0.0105 -2.78828,0.48164 -0.51093,0.26133 -0.85547,0.62266 -1.00429,1.19727 -0.31368,1.21133 0.33984,2.71094 1.00156,3.69531 1.8125,2.69727 4.81836,4.02657 7.8875,4.66446 0.57812,0.0434 1.17656,0.10312 1.75273,0.0191 0.825,-0.12032 1.58008,-0.32266 2.10742,-0.99844 0.23672,-0.75938 0.041,-1.32578 -0.28593,-2.01602 -1.62422,-3.42929 -5.22305,-5.76445 -8.67071,-7.04336 z"
     id="path97"
     style="stroke-width:0.390625" />
  <path
     fill="#acb19b"
     d="m 312.97695,308.0005 c -0.74609,-0.10039 -1.3582,-0.043 -2.04335,0.3 -0.44258,0.22187 -0.6754,0.46875 -0.79024,0.9625 -0.15664,0.67304 0.32188,1.59883 0.66641,2.14179 1.63984,2.58516 4.62656,4.07891 7.525,4.73399 0.90859,0.0695 1.5914,0.0891 2.38828,-0.39922 0.23164,-0.45664 0.30508,-0.66328 0.1207,-1.16484 -1.1082,-3.01407 -5.1332,-5.31485 -7.8668,-6.57422 z"
     id="path98"
     style="stroke-width:0.390625" />
  <path
     d="m 314.5875,319.77823 c -0.88359,-0.0285 -1.77422,0.1211 -2.56211,0.5336 -0.5125,0.26835 -0.94765,0.6539 -1.06797,1.24843 -0.23203,1.14649 0.53125,2.55508 1.15938,3.45664 1.85703,2.66485 4.85156,3.95743 7.9539,4.44258 1.1336,-0.0449 2.08243,-0.18554 3.05079,-0.8164 0.50117,-0.32618 0.81289,-0.75313 0.8957,-1.35782 0.15547,-1.13398 -0.67109,-2.49218 -1.34219,-3.33047 -1.98515,-2.48125 -5.00469,-3.78046 -8.0875,-4.17656 z"
     id="path99"
     style="stroke-width:0.390625" />
  <path
     fill="#acb19b"
     d="m 316.09922,320.92042 c -0.73281,-0.0648 -1.51836,-0.17422 -2.25195,-0.10352 -0.72735,0.0703 -1.19297,0.31172 -1.64922,0.89844 -0.24297,0.85117 -0.0172,1.45078 0.40273,2.19258 1.35157,2.38867 3.91914,3.70898 6.47891,4.36992 0.86289,0.13008 1.84531,0.23672 2.69023,-0.0215 0.60274,-0.18438 0.77539,-0.44961 1.04727,-0.9668 0.018,-0.5875 -0.0613,-0.98477 -0.3168,-1.51992 -1.23672,-2.59258 -3.8125,-3.96914 -6.40117,-4.84922 z"
     id="path100"
     style="stroke-width:0.390625" />
  <path
     fill="#dfe3c1"
     d="m 70.905859,191.57393 c -0.0023,0.077 -0.02187,0.15508 -0.0062,0.23047 0.113672,0.55235 0.346485,0.90352 0.336328,1.50586 -0.02226,1.32813 -1.088281,2.82461 -2.00664,3.71094 -3.759766,3.62774 -9.621485,3.83672 -14.510938,3.67578 l 16.658203,32.10078 c 2.535157,4.91797 5.191407,9.75977 7.526563,14.77969 14.187503,2.73516 29.318755,2.25899 42.854295,-3.14102 3.37383,-1.34609 6.50938,-3.04023 9.66602,-4.8246 q 3.35937,-1.93829 6.50273,-4.21016 3.14375,-2.27188 6.03789,-4.85352 c 2.21172,-1.99453 4.31915,-4.34179 6.73477,-6.07226 q -2.85234,-4.36367 -5.33672,-8.94688 -2.48437,-4.58281 -4.58398,-9.35468 c -4.34453,2.88554 -8.90274,4.89531 -14.03047,5.94531 -5.97539,1.22344 -12.10742,1.02851 -18.05078,-0.26055 -15.047662,-3.26367 -25.294927,-12.08984 -37.791021,-20.28516 z"
     id="path101"
     style="stroke-width:0.390625" />
  <path
     fill="#dfe3c1"
     d="m 134.01485,92.336036 c -2.48594,0.25352 -4.96797,0.49844 -7.43829,0.87891 1.42618,1.31016 2.6668,2.9707 2.94883,4.93867 0.125,0.8711 0.009,1.80899 -0.55625,2.514074 -0.43008,0.53671 -1.06836,0.85039 -1.74609,0.92656 -1.15078,0.1289 -2.26055,-0.43125 -3.10117,-1.17656 -2.00118,-1.774224 -2.6168,-4.194154 -2.75664,-6.751184 l -5.85899,0.47383 c -0.50078,3.5082 -1.23437,6.840244 -2.8543,10.022274 q -0.23203,0.45976 -0.48671,0.90742 -0.25469,0.44765 -0.53164,0.88164 -0.27696,0.43398 -0.5754,0.85391 -0.29843,0.41953 -0.61757,0.82382 -0.31953,0.40391 -0.6586,0.79141 -0.33906,0.3875 -0.69726,0.75742 -0.35821,0.36992 -0.73477,0.72149 -0.37617,0.35156 -0.76992,0.68359 -0.39375,0.33203 -0.80352,0.64375 -0.40976,0.31211 -0.83476,0.60273 -0.425,0.29063 -0.86406,0.55977 -0.43907,0.26914 -0.89141,0.51562 -0.45195,0.24649 -0.91602,0.47032 -0.46367,0.22343 -0.93828,0.42343 -0.47461,0.19961 -0.95898,0.3754 -0.48399,0.17578 -0.97617,0.32695 c -4.642582,1.4668 -10.057032,1.33633 -14.412112,-0.96524 -6.630471,-3.5039 -10.213284,-10.61835 -12.294534,-17.500784 q -4.507812,0.34844 -9.026562,0.49492 c 0.03281,2.50977 0.194922,5.268364 -0.754297,7.642974 -2.5375,6.35039 -7.816016,0.7586 -10.203125,1.83594 -0.258594,0.40547 -0.34336,0.56133 -0.35586,1.06016 -0.04922,2.01445 1.128125,4.53593 1.820313,6.41914 3.463672,9.4207 8.064453,18.0332 14.183594,25.99765 1.183984,1.54063 2.3375,3.15899 3.684375,4.56211 3.015234,-3.10937 7.814843,-3.66015 11.728516,-5.02226 q 0.94961,-0.32383 1.88594,-0.68321 0.93672,-0.35937 1.85898,-0.7539 0.92266,-0.39453 1.8293,-0.82383 0.90703,-0.42891 1.79687,-0.8918 0.88985,-0.46328 1.76172,-0.95937 0.87188,-0.49649 1.72422,-1.02539 0.85273,-0.52852 1.68477,-1.08946 0.83164,-0.56054 1.64179,-1.15234 0.81016,-0.5918 1.597272,-1.21367 0.7875,-0.62188 1.55039,-1.27305 0.76328,-0.65117 1.50117,-1.33047 0.73828,-0.67968 1.45,-1.38632 0.71172,-0.70704 1.39649,-1.44024 0.68476,-0.7332 1.34101,-1.4918 0.65664,-0.75859 1.28399,-1.54179 0.62734,-0.78282 1.2246,-1.58867 c -1.30625,-0.42383 -7.89375,-1.38438 -8.33164,-1.85625 0.0172,-0.27696 -0.0543,-0.38282 0.18907,-0.5668 1.18476,-0.89531 3.00468,-0.66914 4.38086,-0.53281 5.22734,0.51836 10.9125,4.07148 14.21718,8.05664 l -0.25898,0.18047 c -1.06719,-0.17657 -2.64961,-1.65469 -3.65039,-2.25352 -1.84531,-1.10469 -3.75742,-1.92695 -5.75664,-2.70313 q -0.3625,1.02969 -0.82422,2.01836 c -4.66719,9.94766 -15.894532,14.94649 -25.596492,18.48086 2.36758,1.04922 5.10665,1.54375 7.64883,1.99727 11.000782,1.96133 20.532422,1.01797 31.244142,-2.01758 -2.53515,1.91836 -5.07695,2.87774 -8.07539,3.82734 9.41172,5.21211 21.61016,27.96915 25.07227,38.25 0.86562,-2.17578 2.01406,-4.30273 3.01328,-6.42382 2.5582,-5.43086 5.24492,-11.16758 6.81836,-16.98086 3.02226,-11.16485 -0.48047,-16.67461 -5.75039,-25.92266 -4.29453,-7.53672 -5.14141,-13.03711 -2.74961,-21.52539 0.67539,-2.39648 1.66953,-4.1457 3.8793,-5.40352 -0.18868,-3.13671 -0.66446,-6.28281 -1.01172,-9.407424 -0.13789,0.65313 -0.25157,1.37266 -0.50782,1.99024 -0.2914,0.702344 -0.98632,1.503124 -1.74648,1.703514 -0.90742,0.23946 -1.79414,-0.0555 -2.59219,-0.49726 -3.0789,-1.704694 -5.00976,-5.165244 -5.89218,-8.458214 z"
     id="path102"
     style="stroke-width:0.390625" />
  <path
     d="m 65.771094,115.11573 c -0.321485,0.0715 -0.523047,0.12695 -0.802735,0.31445 -0.290234,0.19454 -0.222656,0.23868 -0.280078,0.55665 0.31875,0.58984 0.854688,0.87265 1.397656,1.23203 0.501953,-0.0496 0.636328,-0.008 1.009375,-0.33516 l -0.02773,-0.48945 c -0.378125,-0.59063 -0.718359,-0.88633 -1.296484,-1.27852 z"
     id="path103"
     style="stroke-width:0.390625" />
  <path
     d="m 135.69024,103.10987 c -0.42032,-0.0152 -0.85157,-0.0332 -1.26602,0.0516 -0.84414,0.17226 -1.63945,0.64648 -2.1043,1.38359 -0.83398,1.32266 -0.60976,3.08984 -0.31132,4.54492 0.58281,2.84063 1.7121,5.30664 4.19648,6.94453 0.44141,0.14258 0.7707,0.17344 1.23125,0.073 0.75312,-0.16367 1.30547,-0.78008 1.63672,-1.44024 1.01601,-2.02539 1.04023,-5.9289 0.25273,-8.01796 -0.70234,-1.86329 -1.84922,-2.78399 -3.63554,-3.53946 z"
     id="path104"
     style="stroke-width:0.390625" />
  <path
     fill="#acb19b"
     d="m 135.45547,104.0919 c -0.23164,0.007 -0.46445,0.0137 -0.69453,0.043 -0.66367,0.0852 -1.16563,0.46875 -1.54336,1.01094 -0.62617,0.89883 -0.5043,2.28516 -0.34531,3.29922 0.38554,2.46211 1.40156,5.15508 3.47812,6.63672 0.41485,0.0742 0.68203,0.15078 1.0961,0.0242 0.37148,-0.11368 0.66875,-0.475 0.83828,-0.81485 0.90234,-1.81015 0.93515,-5.29414 0.21367,-7.17578 -0.61875,-1.61406 -1.48906,-2.34805 -3.04297,-3.02344 z"
     id="path105"
     style="stroke-width:0.390625" />
  <path
     fill="#dfe3c1"
     d="m 171.96602,218.35206 c -1.8961,2.2668 -3.14571,5.62813 -4.42852,8.29453 -5.57773,11.59414 -10.44179,23.06758 -12.39492,35.88438 -3.3668,22.0957 0.068,45.57968 13.58242,63.89218 15.73008,21.31446 43.07696,34.38633 68.82774,38.27227 4.26132,0.58516 11.45898,1.16758 15.41054,-0.33203 0.72657,-0.27578 1.19336,-0.58867 1.51524,-1.31289 0.0828,-0.95117 -0.66953,-2.03594 -1.175,-2.81563 -2.59453,-4.00351 -5.73711,-7.61445 -8.63242,-11.39492 -6.52305,-8.5168 -13.24805,-16.98203 -19.43243,-25.74687 q -6.46562,-9.14766 -12.41679,-18.6379 -5.95117,-9.49062 -11.36953,-19.29492 c -4.68555,-8.53945 -9.17422,-17.31367 -12.41016,-26.5207 -1.33555,-3.79922 -2.35898,-7.76055 -3.25742,-11.68398 -1.09102,-4.76602 -2.07696,-10.55938 -1.23594,-15.43399 z"
     id="path106"
     style="stroke-width:0.390625" />
  <path
     d="m 199.49961,328.72979 c -1.18281,-0.14609 -1.93242,0.006 -2.95703,0.66211 -0.78047,0.5 -1.1793,1.33672 -1.32148,2.23047 -0.44141,2.77305 1.06875,6.08555 2.6832,8.28711 1.93633,2.6418 4.4418,4.45977 7.7164,4.9836 0.47813,-0.018 0.95274,-0.0687 1.41172,-0.21563 1.00391,-0.32031 1.84805,-1.01562 2.29453,-1.97305 0.68399,-1.46601 0.59024,-3.01523 0.003,-4.49726 -1.61133,-4.06992 -5.88437,-7.77383 -9.83047,-9.47735 z"
     id="path107"
     style="stroke-width:0.390625" />
  <path
     fill="#acb19b"
     d="m 199.29063,329.66925 c -0.62344,-0.0285 -1.05625,0.005 -1.60977,0.31797 -0.75859,0.42851 -1.29726,0.94257 -1.48281,1.82187 -0.44727,2.11836 0.87539,4.96289 1.99258,6.73789 1.73125,2.74961 4.1664,4.67813 7.37265,5.38242 0.24492,-0.0164 0.33203,-0.016 0.59375,-0.0656 0.90821,-0.17188 2.05743,-0.83281 2.50196,-1.66953 0.49375,-0.92852 0.19531,-2.14414 -0.13868,-3.07305 -1.39414,-3.87734 -5.575,-7.72031 -9.22968,-9.45195 z"
     id="path108"
     style="stroke-width:0.390625" />
  <path
     d="m 182.31406,321.30128 c -0.72031,-0.0574 -1.55351,-0.18164 -2.25625,0.0191 -0.91562,0.26133 -1.91601,0.76797 -2.33281,1.67578 -0.67656,1.47344 -0.11406,3.58203 0.45117,5.01914 1.62149,4.125 5.39024,7.99102 9.44727,9.73438 1.11289,0.24531 2.29297,0.23359 3.33047,-0.29649 0.6289,-0.32109 1.02383,-0.86875 1.21797,-1.54023 0.62031,-2.14258 -0.30157,-4.84766 -1.2961,-6.77305 -1.81797,-3.51992 -4.72812,-6.61406 -8.56172,-7.83867 z"
     id="path109"
     style="stroke-width:0.390625" />
  <path
     fill="#acb19b"
     d="m 181.92266,322.28214 c -0.65352,-0.0469 -1.38086,-0.0621 -1.99961,0.17578 -0.64219,0.24687 -1.1707,0.64414 -1.43281,1.30117 -0.43985,1.10391 0.22304,2.82031 0.66523,3.86406 1.58867,3.75196 5.03242,7.60196 8.82969,9.15352 0.67383,0.17031 1.44609,0.29766 2.09609,-0.0184 0.55117,-0.26758 0.88789,-0.59102 1.07149,-1.18594 0.57265,-1.85508 -0.44141,-4.48867 -1.3125,-6.15547 -1.68633,-3.22734 -4.39336,-6.0332 -7.91758,-7.13476 z"
     id="path110"
     style="stroke-width:0.390625" />
  <path
     d="m 166.99844,300.60792 c -0.96016,-0.0867 -1.82188,0.0168 -2.63594,0.56875 -0.80469,0.54531 -1.22109,1.29297 -1.38242,2.24336 -0.55234,3.25586 1.175,7.06992 3.06133,9.63594 1.99414,2.71289 4.82851,5.13203 8.24219,5.6375 0.75976,-0.091 1.47968,-0.21407 2.16601,-0.57188 1.02266,-0.5332 1.76445,-1.39062 2.04727,-2.5168 0.59179,-2.35742 -0.7043,-5.25742 -1.86992,-7.26601 -2.26446,-3.90234 -5.24415,-6.55703 -9.62852,-7.73086 z"
     id="path111"
     style="stroke-width:0.390625" />
  <path
     fill="#acb19b"
     d="m 166.44297,301.58253 c -0.64609,0.0492 -1.15352,0.0828 -1.68828,0.50117 -0.69922,0.54727 -0.94883,1.55117 -0.95859,2.39531 -0.0418,3.60157 2.35,7.57774 4.82617,10.04493 1.65547,1.64921 3.66133,3.20156 6.09258,3.20312 0.49101,-0.16797 1.00585,-0.3418 1.46015,-0.59609 0.76367,-0.42735 1.28281,-1.25508 1.46133,-2.09727 0.51016,-2.40898 -1.49922,-5.73789 -2.83008,-7.65586 -2.02656,-2.91953 -4.80117,-5.16836 -8.36328,-5.79531 z"
     id="path112"
     style="stroke-width:0.390625" />
  <path
     d="m 184.02813,298.24464 c -0.79453,0.0348 -1.55118,0.18047 -2.21055,0.65 -0.89961,0.64062 -1.35313,1.62422 -1.51875,2.69375 -0.75273,4.86328 3.01523,11.51211 5.82695,15.18672 2.13086,2.78398 4.79414,4.96406 8.35274,5.42734 0.61679,-0.0852 1.29414,-0.14297 1.86172,-0.41406 0.82421,-0.39375 1.44062,-1.15039 1.71445,-2.01563 0.95469,-3.01797 -1.31367,-7.78593 -2.65859,-10.41679 -2.32774,-4.55352 -6.34961,-9.50508 -11.36797,-11.11133 z"
     id="path113"
     style="stroke-width:0.390625" />
  <path
     fill="#acb19b"
     d="m 184.66758,299.41729 c -0.68242,-0.0816 -1.28086,-0.0598 -1.89023,0.27579 -0.6875,0.37851 -1.14141,0.98789 -1.35274,1.74101 -0.88086,3.14258 1.22031,7.47383 2.6582,10.16875 2.20079,4.12344 4.78633,8.06016 9.4793,9.48516 0.61289,0.0441 1.24063,0.0797 1.84024,-0.091 q 0.11718,-0.0324 0.23085,-0.0766 0.11329,-0.0441 0.22188,-0.0996 0.1082,-0.0555 0.21055,-0.12148 0.10195,-0.066 0.19726,-0.14219 0.0949,-0.0762 0.18164,-0.16172 0.0867,-0.0856 0.16407,-0.1793 0.0777,-0.0937 0.1457,-0.19492 0.0676,-0.10117 0.12461,-0.20859 c 0.79531,-1.51328 0.0898,-3.83477 -0.41914,-5.36992 -1.98164,-5.9793 -6.01446,-12.16368 -11.79219,-15.0254 z"
     id="path114"
     style="stroke-width:0.390625" />
  <path
     d="m 164.75,271.32472 c -1.27734,-0.12618 -2.29883,-0.20235 -3.52812,0.29218 -1.6043,0.6461 -2.69844,1.83946 -3.31133,3.44649 -1.36797,3.58476 -0.55234,7.70234 0.97109,11.09179 2.13672,4.7543 6.16992,9.01993 11.07149,10.8961 1.4832,0.36289 3.14023,0.51445 4.56601,-0.16445 1.11797,-0.53282 1.83633,-1.52032 2.20391,-2.68399 1.39219,-4.40937 -1.15117,-10.7418 -3.14219,-14.61133 -2.00547,-3.89609 -4.55664,-6.91054 -8.83086,-8.26679 z"
     id="path115"
     style="stroke-width:0.390625" />
  <path
     fill="#acb19b"
     d="m 164.30742,272.28018 c -0.82929,-0.0777 -1.67148,-0.0308 -2.50312,-0.0148 -1.52383,0.81836 -2.50742,1.82344 -3.10039,3.48164 -1.11172,3.11055 -0.275,6.95313 1.06328,9.86094 2.12812,4.62383 5.65391,8.55469 10.49062,10.33711 1.2461,0.34297 2.62774,0.61094 3.82696,-0.0289 0.93984,-0.50117 1.4664,-1.42539 1.71562,-2.43359 1.11367,-4.50508 -1.73164,-11.27539 -4.0082,-15.05508 -1.80352,-2.99453 -3.99024,-5.29258 -7.48477,-6.14727 z"
     id="path116"
     style="stroke-width:0.390625" />
  <path
     fill="#dfe3c1"
     d="m 209.17071,127.29542 c -1.67188,-2.3293 -3.12657,-4.78125 -4.60938,-7.23281 -0.71211,-1.17774 -1.40937,-2.6125 -2.29492,-3.65391 -0.48711,-0.0637 -0.83086,-0.14375 -1.30274,0.0309 -0.19297,1.02344 4.98555,8.90859 5.70625,10.43828 -4.42968,4.18125 -20.94804,12.00899 -26.93867,13.78555 q -1.90859,-2.56289 -4.02109,-4.96016 -2.11289,-2.39726 -4.41524,-4.61289 c -2.24492,-2.17148 -4.64375,-4.15469 -6.67695,-6.5375 -0.80547,0.45781 -1.63047,0.89609 -2.41406,1.38945 4.22695,2.57969 7.85664,5.64024 11.09648,9.40743 2.3375,2.71797 3.74024,5.83984 5.54961,8.88867 1.27461,2.14726 2.83086,4.18203 4.30078,6.19922 q 5.07735,6.86172 10.5168,13.44023 c 3.45977,4.21719 13.08945,14.36836 14.45703,18.89844 -1.02226,3.22148 -4.62031,8.22226 -6.37851,11.50742 -1.96524,3.67227 -3.76016,7.44727 -5.63086,11.16914 -1.05821,2.10586 -2.1293,4.60313 -3.5875,6.45586 -0.11602,0.34531 -0.21485,0.64297 -0.39414,0.96172 0.49648,0.45937 0.98437,0.94609 1.51835,1.36055 l 0.56211,-0.59766 c 2.02539,-7.68516 6.20938,-14.79727 10.47813,-21.42461 1.56172,-2.42422 3.1457,-5.05469 5.33281,-6.95664 0.52344,0.20117 1.13633,0.40508 1.60664,0.71328 1.20742,0.79297 2.39688,2.24961 3.44375,3.26367 q 3.61094,3.48086 7.26289,6.91914 c 4.50586,4.22344 9.29532,8.25782 14.06524,12.18008 3.44961,2.83633 7.03906,5.59102 10.20547,8.74336 -1.0668,5.60586 -2.11289,11.17539 -3.32383,16.75938 -1.04844,4.83359 -2.37578,9.86679 -2.93711,14.77617 -0.0715,0.62773 -0.0535,1.075 0.21367,1.65976 0.39648,0.2836 0.42891,0.32305 0.91133,0.3293 0.89062,-2.42461 1.13711,-5.57226 1.58242,-8.1332 1.29922,-7.46914 3.18164,-17.80547 7.29297,-24.15547 4.88086,1.55781 9.52773,3.8043 14.42656,5.38164 q 4.33945,1.40742 8.76758,2.50352 c 3.07109,0.76914 6.47891,1.16367 9.27344,2.7039 0.38008,0.89297 0.69922,1.73672 0.84258,2.70625 0.58359,3.94805 -0.25821,30.12578 0.34843,30.9707 l 0.10196,-0.20468 c 0.0516,-0.10078 0.10507,-0.19961 0.15586,-0.30039 0.35273,-0.69922 0.73554,-1.11563 1.29921,-1.65899 -0.0578,-5.16289 -0.37539,-28.28672 1.89844,-31.41211 0.46914,-0.64492 1.28281,-1.07343 2.06485,-1.17578 2.40625,-0.31445 5.22304,0.0602 7.66992,0.1211 5.71914,0.14257 11.35351,0.16992 17.01718,-0.75782 q 1.1129,3.825 2.03868,7.69961 0.92617,3.87461 1.66328,7.78985 0.73711,3.91484 1.28359,7.86093 0.54649,3.9461 0.90078,7.91407 c 0.66407,-0.22149 1.34844,-0.40118 2.02032,-0.59922 -0.79493,-4.00938 -1.30625,-8.08828 -2.00352,-12.11914 l -3.49414,-19.24493 q 2.16211,-0.56679 4.23984,-1.39062 c 1.54571,-0.60156 4.52071,-1.64727 5.22657,-3.25977 -0.041,-0.4914 -0.0457,-0.50742 -0.37344,-0.87617 -3.03125,1.89297 -6.30078,2.97735 -9.8211,3.58555 -2.60078,-6.61914 -4.39023,-13.72891 -6.52851,-20.51641 -1.57031,-4.98594 -3.62149,-9.90898 -4.80899,-15.00117 -0.18242,-0.78242 -0.41328,-1.84258 0.0902,-2.54297 0.51953,-0.72265 4.50976,-1.14336 5.5625,-1.39531 0.5625,-0.13477 0.98672,-0.18281 1.29961,-0.68984 l -0.18516,-0.40899 c -1.00351,-0.43008 -3.03633,0.0402 -4.2,0.0613 -1.85469,0.0336 -3.6418,-0.16172 -5.46836,-0.46602 -1.43242,-1.67421 -2.63554,-3.89765 -3.79062,-5.78125 0.62617,1.88125 1.11601,3.80352 1.74414,5.68711 -4.78203,-0.20625 -10.85938,-1.99218 -14.92266,-4.51797 -0.35859,-2.24687 -1.09609,-4.5207 -1.8082,-6.67734 q 0.0797,2.85859 0.0664,5.71836 c -5.91757,-4.14492 -12.54687,-7.86758 -17.83007,-12.82695 -0.0352,-0.2418 -0.0645,-0.48555 -0.10313,-0.72696 -0.33945,-2.13046 -0.0133,-3.79296 0.40938,-5.89062 -0.70352,1.65976 -1.33125,3.14922 -2.55352,4.50469 -2.85273,-4.08243 -14.78516,-12.66289 -15.18633,-16.89375 0.3211,-1.05196 1.67188,-1.98438 2.48594,-2.69805 -1.20898,0.42656 -2.81758,1.22461 -4.08594,0.63867 -3.32187,-1.53515 -9.48515,-14.51523 -10.74218,-18.1082 0.0316,-1.53086 0.31796,-2.78164 0.8246,-4.23516 l -2.13433,-0.65157 c 0.41055,1.79102 0.69727,3.55859 0.75547,5.39844 l -0.4293,0.70508 c -1.99336,0.2996 -5.4457,-0.15704 -7.63906,-0.15547 -5.85078,0.004 -11.69453,0.25742 -17.54648,0.2207 z"
     id="path117"
     style="stroke-width:0.390625" />
  <path
     d="m 288.11016,181.86222 c -0.76289,-0.0758 -1.23125,-0.10391 -1.87188,0.32187 -0.35742,0.58399 -0.32265,1.12227 -0.32265,1.78711 7.8e-4,4.94688 0.49843,9.91602 0.59648,14.86875 0.10664,5.39297 -0.1457,10.76836 -0.11484,16.15586 0.0191,3.28867 0.2582,6.57461 0.33398,9.8625 5.60664,2.5125 16.72852,1.18906 22.83047,0.56914 1.29727,-0.12656 2.53984,-0.28906 3.80938,-0.5875 -2.4254,-10.28242 -5.25938,-20.35664 -9.00313,-30.23594 -1.09336,-2.88476 -2.075,-5.9664 -3.89766,-8.48281 -3.28086,-1.63242 -8.77226,-3.28242 -12.36015,-4.25898 z"
     id="path118"
     style="stroke-width:0.390625" />
  <path
     fill="#a67b76"
     d="m 287.24766,182.388 c -0.0453,0.0207 -0.0977,0.0301 -0.13594,0.0621 -0.008,0.007 -0.28008,0.32734 -0.28594,0.34882 -0.0945,0.33672 0.8461,7.99571 0.92344,9.16055 0.46289,6.97539 0.22188,13.77149 0.0125,20.74102 -0.11797,3.92851 -0.0891,7.88047 -0.48516,11.79336 6.8125,1.48047 15.49102,0.55625 22.44532,0.11328 0.9082,-0.0117 1.81758,-0.0816 2.72422,-0.13399 -2.37032,-7.23828 -4.28399,-14.65078 -6.73594,-21.84804 q -1.66953,-4.82578 -3.44883,-9.61211 c -0.74102,-1.95938 -1.69687,-3.93516 -2.19141,-5.96914 z"
     id="path119"
     style="fill:#205d34;fill-opacity:1;stroke-width:0.390625" />
  <path
     d="m 264.67774,167.32198 -0.22188,0.11719 c -1.28672,1.67383 -12.71914,41.12734 -13.74297,45.95391 4.85274,6.12304 14.38985,8.31484 21.64141,10.19179 2.80351,0.63086 7.24961,1.92774 10.03398,1.84297 0.44961,-0.0137 0.67891,-0.0156 0.95547,-0.39453 1.56485,-2.14453 1.03516,-30.18555 0.78672,-34.66094 -0.1918,-3.45547 -0.68516,-6.90976 -1.08281,-10.34648 -6.52539,-3.60352 -11.88633,-9.10547 -18.36992,-12.70391 z"
     id="path120"
     style="stroke-width:0.390625" />
  <path
     fill="#a67b76"
     d="m 265.00235,168.48956 -0.28438,0.17109 c -1.05664,5.18047 -2.63008,10.37383 -4.08594,15.45821 -1.61445,5.63828 -3.19258,11.31015 -4.97148,16.89843 -1.325,4.1625 -3.06133,8.30664 -4.11055,12.53946 5.80703,4.43008 13.03711,6.56328 19.9668,8.5707 3.68476,0.97773 7.35781,1.91094 11.11211,2.58477 0.31523,-10.48438 0.21562,-21.04336 0.0418,-31.53086 -0.068,-4.10118 -0.77227,-8.49219 -0.41719,-12.55664 -6.63086,-3.75782 -11.25977,-7.46211 -17.25117,-12.13516 z"
     id="path121"
     style="fill:#205d34;fill-opacity:1;stroke-width:0.390625" />
  <path
     d="m 246.50039,148.73878 c -0.64297,0.0641 -1.08633,0.18945 -1.61054,0.57734 -1.8793,1.39024 -3.50118,3.14649 -5.17891,4.76641 -2.05078,1.98086 -4.16094,3.9039 -6.23125,5.86562 l -10.48477,9.99102 c -2.49922,2.38672 -5.08398,4.7293 -7.375,7.3207 -1.1125,1.2586 -2.26172,2.84571 -2.08359,4.61719 0.57812,5.74609 17.48555,19.64453 22.01016,23.32578 2.48984,2.04805 7.28164,6.42383 10.25859,7.15977 0.6707,0.16562 1.53516,0.18008 2.09219,-0.31211 0.59609,-0.52735 1.05937,-2.11211 1.32226,-2.87266 1.89922,-5.50117 3.3375,-11.23711 5.02305,-16.81172 l 5.12266,-16.7957 c 0.90703,-3.07578 2.33476,-6.58633 2.36953,-9.80547 0.0238,-2.17422 -12.97071,-14.71836 -15.23438,-17.02617 z"
     id="path122"
     style="stroke-width:0.390625" />
  <path
     fill="#a67b76"
     d="m 245.7082,149.6962 c -1.25156,0.58125 -5.68164,5.86914 -7.15117,7.34258 -4.19375,4.20586 -8.41172,8.45039 -12.74453,12.51172 -2.79687,2.62148 -5.73945,5.09101 -8.51211,7.73789 -1.13672,1.08515 -3.23242,2.99023 -3.04062,4.7207 0.43476,3.91875 18.82226,19.64219 22.28867,22.5082 l 3.38086,2.76524 c 1.67851,1.37265 4.83867,4.4457 7.10508,4.21875 l 0.22187,-0.14805 c 0.83477,-0.55742 1.40508,-3.4625 1.66211,-4.49101 1.77813,-7.11875 3.55899,-14.20157 5.7168,-21.21758 2.03789,-6.62656 4.41875,-13.1586 6.40859,-19.79453 -1.89844,-2.58164 -4.31094,-4.88086 -6.5668,-7.14727 -2.9582,-2.97226 -5.9207,-5.92695 -8.76875,-9.00664 z"
     id="path123"
     style="fill:#205d34;fill-opacity:1;stroke-width:0.390625" />
  <path
     d="m 230.34141,129.55948 c -6.71094,-0.6668 -18.90781,-0.25586 -25.16836,1.93125 -4.23399,1.4793 -8.38047,3.86211 -12.3711,5.91524 -3.47929,1.79023 -7.15625,3.46132 -10.26796,5.85039 2.19726,4.76172 5.25742,9.01132 8.23828,13.30312 3.80195,5.47383 7.62539,10.83906 11.8914,15.96485 1.54805,1.84296 5.12032,6.31523 7.35625,6.81289 0.79336,-0.26055 1.48711,-1.03868 2.08203,-1.60547 3.51172,-3.34649 6.7086,-7.05117 10.18516,-10.44922 5.79219,-5.66211 11.89063,-11.08125 17.46094,-16.96289 1.45508,-1.53672 2.99844,-3.08828 3.97851,-4.98086 -1.00507,-2.69453 -2.82187,-5.29805 -4.24609,-7.80469 -1.40195,-2.46641 -2.65742,-5.01914 -3.93281,-7.55234 -1.72617,-0.19844 -3.47344,-0.28946 -5.20625,-0.42227 z"
     id="path124"
     style="stroke-width:0.390625" />
  <path
     fill="#a67b76"
     d="m 230.48399,130.72745 c -7.53321,-0.29414 -19.13672,-0.5875 -26.05274,2.09336 -3.49726,1.35586 -6.78203,3.4582 -10.11133,5.19102 -3.63203,1.89062 -7.5,3.5625 -10.96328,5.74023 1.79805,3.20781 4.30078,6.16406 6.45586,9.14883 4.41953,6.11992 8.77735,12.225 13.47617,18.13984 2.1211,2.67188 4.27305,5.27149 6.58243,7.78438 6.47734,-8.88477 16.00976,-17.41758 24.17148,-24.85743 3.07969,-2.80742 6.3918,-5.46992 9.2125,-8.54023 -3.72148,-3.97031 -6.21328,-9.58242 -8.6457,-14.40898 -1.36524,-0.15352 -2.75391,-0.20313 -4.12539,-0.29102 z"
     id="path125"
     style="fill:#205d34;fill-opacity:1;stroke-width:0.390625" />
</svg>
