<?xml version="1.0" encoding="UTF-8" standalone="no"?>
<svg
   width="309.2114"
   height="400.00003"
   version="1.1"
   id="svg79"
   sodipodi:docname="vulture.svg"
   inkscape:version="1.3.1 (9b9bdc1480, 2023-11-25, custom)"
   xmlns:inkscape="http://www.inkscape.org/namespaces/inkscape"
   xmlns:sodipodi="http://sodipodi.sourceforge.net/DTD/sodipodi-0.dtd"
   xmlns="http://www.w3.org/2000/svg"
   xmlns:svg="http://www.w3.org/2000/svg">
  <sodipodi:namedview
     id="namedview79"
     pagecolor="#ffffff"
     bordercolor="#999999"
     borderopacity="1"
     inkscape:showpageshadow="2"
     inkscape:pageopacity="0"
     inkscape:pagecheckerboard="0"
     inkscape:deskcolor="#d1d1d1"
     inkscape:zoom="2.0826504"
     inkscape:cx="118.83896"
     inkscape:cy="153.17021"
     inkscape:window-width="1920"
     inkscape:window-height="954"
     inkscape:window-x="0"
     inkscape:window-y="27"
     inkscape:window-maximized="1"
     inkscape:current-layer="svg79" />
  <path
     d="m 12.540051,156.52285 c -2.6045762,2.27888 -5.1586701,4.96701 -6.5525431,8.19168 -1.0739969,2.48396 -1.2178518,4.57164 -0.2260576,7.10787 -0.501258,1.34741 -0.8635758,2.72519 -0.9078043,4.16956 -0.1032,3.3636 1.3433896,6.24383 3.5762669,8.65674 2.6568461,2.87174 6.3345271,5.26947 10.3624621,5.32041 2.775683,0.0348 4.853983,-1.02711 6.766538,-2.94412 1.361706,0.68948 2.742624,1.33788 4.142751,1.94516 6.105342,2.63094 12.455506,3.49317 18.73374,1.01728 -5.760447,13.88555 -14.424349,28.30186 -26.24323,37.89322 -5.12159,4.15616 -10.92716,7.45008 -16.6625891,10.66313 -0.7782456,0.43604 -2.6237869,1.12627 -3.0298866,1.8317 l 0.212655,0.45568 c 1.9514221,1.42738 5.6840529,1.91301 8.0518487,2.06222 9.092341,0.57319 17.136596,-4.40454 23.651612,-10.22263 -4.648924,9.59003 -9.38139,17.08209 -11.526257,27.81625 -0.369466,1.84778 -0.863576,4.01678 -0.674598,5.90878 0.07549,0.75859 0.32211,1.60786 1.00073,2.04613 0.544592,0.3516 1.262972,0.27118 1.863857,0.15413 8.65184,-1.68695 17.044564,-12.74768 21.716717,-19.89128 -1.162008,4.34781 -3.505231,12.4077 -2.825271,16.70503 0.127772,0.80639 0.337298,1.11599 0.982857,1.60117 0.781372,0.15948 1.417997,0.14251 2.196243,-0.0581 6.07541,-1.56408 11.545914,-10.31733 14.559272,-15.36699 -0.327918,1.21516 -0.630518,2.43674 -0.907806,3.66472 -0.760823,3.39667 -4.181619,17.62491 -2.318653,20.14191 0.313621,0.42397 0.864021,0.53655 1.36126,0.53388 4.530979,-0.0255 12.508223,-8.77336 15.347345,-12.12536 -1.157094,3.58028 -3.180444,7.22447 -3.618709,10.97451 -0.101863,0.87296 -0.156364,1.71062 0.421289,2.42454 0.892615,0.53879 1.73698,0.52895 2.739497,0.27342 7.588566,-1.93491 15.011832,-11.44853 18.91825,-17.87419 -0.643325,2.70598 -1.97912,6.04146 -1.589102,8.86182 0.0956,0.68934 0.354275,1.3894 0.991351,1.75529 0.583013,0.33551 1.29424,0.27431 1.927298,0.15145 7.090876,-1.37644 13.417816,-11.30377 17.368906,-16.98872 -0.60938,1.96124 -1.30766,4.09406 -1.53952,6.13171 -0.0996,0.87696 -0.17959,1.6284 0.38957,2.35752 0.45345,0.12062 0.62634,0.19523 1.08606,0.0393 1.10303,-0.37483 2.19938,-1.35947 3.09735,-2.08009 5.33291,-4.28169 9.15668,-9.81742 12.36212,-15.78472 -0.0419,1.74056 -0.005,3.75319 1.01951,5.24579 0.32836,0.47758 0.79968,0.82695 1.39119,0.88547 1.03557,0.10274 1.73429,-0.64109 2.45625,-1.26029 0.31897,2.68007 0.79075,10.92402 2.71583,12.5252 0.50794,0.0613 0.90868,0.0652 1.35588,-0.24081 1.288,-0.88234 1.53327,-3.08663 1.88084,-4.49121 0.0914,0.63498 0.19269,1.26833 0.30379,1.90004 0.11109,0.63171 0.23186,1.26164 0.36232,1.88977 0.13075,0.62813 0.27104,1.25404 0.42085,1.87771 0.1498,0.62367 0.3093,1.24496 0.47846,1.86385 0.16918,0.6189 0.34788,1.23498 0.53611,1.84822 0.18823,0.61325 0.386,1.22337 0.5933,1.83036 0.20699,0.60728 0.42337,1.21115 0.64913,1.81158 0.22576,0.60014 0.46074,1.19687 0.70497,1.79015 0.24423,0.59329 0.49769,1.18256 0.76038,1.7678 0.26239,0.58526 0.53387,1.16634 0.81443,1.74324 0.28056,0.57691 0.56991,1.14935 0.86805,1.71732 0.29813,0.56798 0.60504,1.13119 0.92075,1.68963 0.31572,0.55844 0.6399,1.11197 0.97259,1.66059 0.33268,0.5483 0.67385,1.09141 1.02351,1.6293 0.34967,0.5379 0.70752,1.07012 1.07355,1.59671 0.36604,0.52687 0.74013,1.04793 1.12225,1.56319 6.20094,8.35965 9.31528,10.25256 12.82632,20.92955 -1.38719,3.96493 -4.45236,7.66316 -5.14171,11.79518 -0.16885,1.01325 -0.10182,2.50987 0.64243,3.32118 0.36992,0.40297 0.72063,0.62813 1.28176,0.62545 1.57167,-0.007 3.44223,-2.16853 4.49165,-3.22957 l 0.0496,0.25821 c -0.18988,0.43022 -0.0938,0.27788 -0.36544,0.64512 -0.062,0.084 -0.12733,0.16574 -0.19077,0.24884 l 0.4816,0.0469 c 0.0938,0.75904 -14.8452,40.77258 -16.35433,44.66692 -1.5681,4.04582 -3.39801,7.98171 -4.96254,12.02842 -7.56623,-2.70777 -15.2991,-4.60112 -23.08111,-6.55835 -12.28037,-3.08752 -26.780678,-5.56298 -38.204622,1.35679 -4.256674,2.57867 -10.936095,8.52764 -12.044492,13.59607 -0.18317,0.83721 -0.152343,1.70258 0.338192,2.43303 0.966776,1.43898 2.855207,1.68069 4.415719,2.02647 0.351595,1.03736 0.648685,2.13861 1.580169,2.81499 1.319711,0.95829 3.187144,0.74296 4.723978,0.66612 11.874725,-0.59552 23.736936,-1.90943 35.564746,-3.08528 9.90843,-0.98317 19.82741,-1.84525 29.75695,-2.58627 8.64606,-0.65627 17.31129,-1.13208 25.96402,-1.69453 3.58431,-0.23321 7.66675,-0.0625 11.1492,-0.86224 0.73491,-0.16843 1.04094,-0.34043 1.41576,-1.01324 0.4213,-0.75501 0.30871,-1.76378 0.0859,-2.56213 -0.77958,-2.78819 -3.01157,-5.59159 -5.57907,-6.91352 -6.24829,-3.21574 -15.25888,0.9145 -21.43392,2.82304 0.48518,-3.12327 1.35054,-6.30192 2.14665,-9.35995 1.19819,-4.60157 12.50779,-46.02819 14.34484,-47.10487 0.33149,0.41013 0.54235,0.76976 1.06461,0.93416 0.92969,-0.12374 1.64539,-0.34712 2.38477,-0.94666 3.66785,-2.97405 3.87559,-8.69563 4.42063,-12.96391 1.48011,4.36433 2.67339,6.40242 6.5512,9.05436 0.96142,2.15604 2.54293,5.89492 4.686,7.08106 0.63529,0.35159 1.16784,0.37035 1.8536,0.17333 0.41816,-0.11973 0.78316,-0.20729 1.22052,-0.25242 1.43543,0.89441 2.4518,2.76989 3.84388,3.90776 0.70856,5.69256 7.46704,38.39138 6.8876,40.24272 -0.10273,0.32926 -0.26403,0.3172 -0.54414,0.45526 -0.93551,-0.28013 -1.37422,-1.21564 -2.16765,-1.72226 -1.62797,-1.03958 -4.34736,-1.16289 -6.19916,-0.89797 -2.83064,0.40521 -6.44845,1.86386 -8.16265,4.23076 -0.7224,0.9976 -1.17227,2.46564 -0.82024,3.69064 0.16575,0.57587 0.42621,0.87832 0.93908,1.17452 1.17004,0.67549 3.02676,0.49099 4.34737,0.81041 2.88691,0.69872 5.81495,1.95991 8.5817,3.0433 17.68029,6.92334 55.55164,25.48909 73.39232,21.13146 0.43827,-0.37035 0.89886,-0.8189 1.22009,-1.29648 0.8457,-1.25672 0.34936,-2.79891 0.0599,-4.1499 3.43599,0.28727 7.41464,0.0823 10.74172,-0.839 1.123,-0.31094 2.33737,-0.8323 2.90756,-1.92015 0.47503,-0.90647 0.32363,-1.97556 8.8e-4,-2.9039 -2.39281,-6.88359 -11.73484,-12.8701 -17.97064,-15.88211 -16.58708,-7.52379 -36.64233,-3.8957 -53.98622,-1.46671 -0.96364,-5.17385 -2.18416,-10.30347 -3.23226,-15.46126 -2.2217,-10.93386 -4.38132,-22.03436 -7.46705,-32.75913 0.79909,0.76395 1.60548,1.52 2.41917,2.26817 l 2.0591,-0.74028 c 4.59217,2.11225 9.20805,3.55125 14.15451,4.5636 -0.62397,6.73139 -1.60043,13.41127 -2.92938,20.0396 -0.79521,4.13159 -1.98089,8.231 -2.31105,12.43407 0.27877,0.42888 0.6,0.81085 1.07489,1.03647 0.79612,0.3784 1.72268,0.12241 2.47903,-0.22071 10.39105,-4.71907 17.30816,-20.03736 20.97556,-30.24256 3.96763,0.8734 7.85751,1.53905 11.89886,1.96794 0.16396,3.3645 0.73356,17.07762 3.04909,19.14386 0.47311,0.42263 0.91361,0.57229 1.54577,0.52494 2.10912,-0.1577 4.49077,-3.61469 5.59067,-5.21987 9.97782,-14.56017 11.44094,-36.59096 8.25156,-53.63955 3.3185,7.45098 12.38085,26.70652 18.52255,31.26744 0.61578,0.45702 1.059,0.68801 1.8216,0.56827 0.77388,-0.53298 1.20632,-1.1495 1.62981,-1.98717 5.42351,-10.72611 -0.16182,-29.2874 -3.8844,-40.1958 2.87888,2.51076 8.10662,7.49876 11.85779,8.05632 0.54871,0.0812 1.08351,-0.007 1.4965,-0.40879 0.66925,-0.65137 0.78124,-1.77273 0.84226,-2.65059 0.80555,-11.58969 -9.93469,-31.76556 -17.5816,-40.39461 2.26531,1.56363 10.23162,6.40198 12.7478,5.73318 0.65272,-0.17377 0.69543,-0.3279 1.00102,-0.87921 0.12393,-3.07276 -4.16006,-9.35636 -5.94439,-12.1115 -19.83298,-30.62411 -50.16714,-40.34144 -79.1168,-59.21458 -5.31816,-3.46725 -11.83094,-7.18514 -15.78919,-12.1928 1.77719,-0.40076 5.29091,-0.38913 6.52262,-1.88576 2.78864,-3.38819 -9.23308,-12.34963 -9.38988,-13.83866 -0.054,-0.51689 1.02887,-1.12984 0.38242,-4.12176 4.98533,-7.62116 4.93886,-10.42141 6.25724,-19.1166 0.44764,1.464 1.02039,4.41349 2.34278,5.26992 0.53654,0.34802 1.07265,0.42799 1.69229,0.30512 3.566,-0.70856 8.13943,-6.38144 10.14624,-9.20224 0.28831,0.43305 0.58839,0.85777 0.90021,1.27415 1.08874,1.43229 2.72296,3.08216 4.60246,3.25147 4.4872,0.40387 9.35101,-8.03263 10.92851,-11.50391 0.9976,-2.19626 1.79371,-5.4504 3.25058,-7.31382 0.63796,-0.81577 2.17882,-1.25583 3.00888,-1.97867 2.56125,-2.23109 3.27426,-5.94809 3.52981,-9.15936 -0.97615,-1.77004 -2.12565,-3.542303 -3.50255,-5.027761 1.11063,-9.479681 0.3918,-18.588997 -2.07294,-27.794813 -0.36157,-1.344137 -0.7568,-2.67844 -1.18569,-4.002918 -0.42888,-1.324479 -0.89083,-2.63719 -1.38583,-3.938138 -0.49501,-1.300947 -1.02232,-2.588792 -1.58196,-3.86353 -0.55992,-1.274441 -1.15157,-2.533989 -1.77494,-3.778646 -0.62308,-1.244657 -1.27727,-2.472932 -1.9626,-3.684828 -0.68502,-1.211597 -1.40027,-2.405324 -2.14576,-3.581181 -0.74519,-1.175856 -1.51955,-2.332056 -2.32312,-3.468598 -0.80327,-1.136843 -1.63482,-2.252683 -2.49467,-3.34753 -1.73207,-2.190435 -3.85282,-4.034635 -5.56299,-6.215689 -4.67305,-5.960594 -8.89667,-11.81486 -15.64757,-15.664987 -7.39377,-4.216242 -14.78086,-5.045418 -22.90954,-2.791857 -2.50987,-0.773108 -4.83432,-1.279727 -7.44963,-1.5967 0.68175,-0.746257 1.49171,-1.564844 1.84331,-2.534122 0.25376,-0.698857 0.21041,-1.5433125 -0.12732,-2.2066975 -0.69828,-1.3726967 -2.37228,-2.1076072 -3.7514,-2.5891634 -6.42209,-2.2429295 -14.58652,-0.8995395 -20.57169,2.0436766 -4.24908,2.0894243 -8.71126,5.4065293 -10.29321,10.0322673 1.48591,5.410638 4.80573,11.033933 8.62951,15.114138 -1.86164,1.423359 -3.13309,3.18223 -4.79949,4.786523 -1.80891,1.741896 -3.81349,3.284537 -5.5067,5.145715 -4.92724,5.415106 -7.94061,12.24419 -11.18582,18.721678 C 124.83946,57.99746 119.41541,54.23311 112.13421,52.895527 104.63589,51.518184 97.443599,53.482562 91.269901,57.81295 79.127574,66.329424 72.52678,79.483207 70.081248,93.876284 69.496,97.322097 68.328632,105.8618 70.515493,108.9319 c 0.900657,0.24438 1.400574,-1.13386 1.796845,-1.81293 2.259683,-3.86933 6.442641,-7.450073 10.495596,-9.346544 10.333416,-4.835671 27.914986,1.283973 38.080426,5.333354 1.90631,0.75948 4.16464,1.18523 5.87884,2.33474 2.01352,1.35054 3.47084,3.60932 5.0729,5.40482 3.85369,4.31878 9.41892,8.93152 14.91175,10.95263 1.02263,2.23958 2.1766,4.43761 3.26801,6.64546 -3.10136,1.4131 -5.90117,3.26579 -7.42236,6.4565 -2.23871,4.69807 -0.0161,9.82368 1.64761,14.30463 -1.91166,0.99 -3.49897,2.12386 -4.79188,3.87648 -3.35512,4.5484 -2.86458,9.87237 -1.99609,15.12485 -1.36663,3.0004 -3.46503,5.85875 -5.36061,8.55178 -4.15347,5.90206 -8.63665,11.6558 -13.70999,16.79973 -2.78642,2.82528 -5.80244,5.45131 -8.70009,8.16444 -4.69583,-2.28605 -9.20761,-5.48972 -13.611704,-8.3123 L 73.479163,178.81139 c -4.924571,-3.20725 -9.287125,-6.55477 -14.809007,-8.71394 l -2.202497,1.86565 c -1.732513,-6.66871 -3.712975,-12.86608 -9.355925,-17.2483 -9.181266,2.26844 -18.185144,-0.25722 -27.563518,-1.45396 z"
     id="path2"
     sodipodi:nodetypes="ccccccccccsccccccccccccccccccccccccccccccccccccscsssccscssscsccccccccsccccccsccscccccccccccccccscccccccscccccccssccccccccccccccccccccccccccccccccccccccccccccccsscccccccccccccccccccccccccccccccccccccccccccc"
     style="stroke-width:0.446755" />
  <path
     fill="#897670"
     d="m 52.293573,187.55528 c -0.173788,0.0639 -0.29039,0.0943 -0.444968,0.21981 -0.396717,0.32122 -0.747419,0.83097 -0.711678,1.36394 0.04913,0.74296 0.456136,0.96992 0.952926,1.4256 0.436479,-0.5513 0.737144,-0.9985 0.984646,-1.65835 -0.107669,-0.76843 -0.253757,-0.81668 -0.780926,-1.351 z"
     id="path3"
     style="stroke-width:0.446755" />
  <path
     fill="#b87c78"
     d="m 185.19489,308.09446 c -0.11526,1.83349 1.75619,3.85773 2.90077,5.16984 0.17245,-1.27906 -0.31496,-2.8266 -0.56783,-4.09807 z"
     id="path4"
     style="stroke-width:0.446755" />
  <path
     fill="#b87c78"
     d="m 166.07649,20.068055 c -0.57497,0.561121 -0.0644,0.474005 -0.29308,1.140563 l -1.24509,-0.385995 -0.16442,0.212208 c 2.4183,2.141291 4.43003,4.514003 6.36046,7.099369 0.76572,0.570059 1.65611,1.022174 2.48081,1.505116 -1.92461,-2.861015 -5.97891,-6.58203 -7.13868,-9.571261 z"
     id="path5"
     style="fill:#f75740;fill-opacity:1;stroke-width:0.446755" />
  <path
     fill="#897670"
     d="m 207.36327,327.63952 c -0.11165,0.29664 -0.0781,0.15726 -0.12152,0.4655 -0.0272,0.19123 -0.0504,0.38288 -0.088,0.57231 -0.14787,0.74697 -0.51109,1.09768 -1.11553,1.5127 -1.21474,0.26672 -2.11986,-0.38778 -3.14114,-0.97035 0.12419,1.33357 0.31274,2.65686 0.4959,3.98282 l 5.45486,0.46775 z"
     id="path6"
     style="stroke-width:0.446755" />
  <path
     fill="#fefefe"
     d="m 170.71648,241.95521 -1.70169,0.28859 c -0.3717,1.7964 1.10528,7.34642 1.45686,9.43142 l 1.11733,0.96946 0.60894,0.32926 0.33239,-0.11437 c 0.67995,-2.40621 -1.17944,-8.32123 -1.81383,-10.90436 z"
     id="path7"
     style="stroke-width:0.446755" />
  <path
     fill="#fefefe"
     d="m 164.40116,242.18841 c -0.54147,0.0138 -1.17139,-0.0697 -1.56186,0.3154 -0.41816,2.85298 -2.16093,10.20833 -1.80533,12.49483 0.47983,-0.15102 0.89619,-0.30158 1.25136,-0.67952 2.46564,-2.62691 2.19267,-8.72019 2.11583,-12.13071 z"
     id="path8"
     style="stroke-width:0.446755" />
  <path
     fill="#fefefe"
     d="m 167.6848,242.15625 c -0.60891,0.0156 -1.11911,-0.0131 -1.66192,0.30646 -0.65583,2.24806 0.22561,10.89723 0.83989,13.34009 0.26984,-0.26315 0.54371,-0.53254 0.77379,-0.83187 2.36154,-3.06875 0.52448,-9.18481 0.0483,-12.81468 z"
     id="path9"
     style="stroke-width:0.446755" />
  <path
     fill="#fefefe"
     d="m 184.26295,235.65105 -1.8357,1.52656 c 1.36752,3.10985 3.23182,7.48492 5.8489,9.68741 l 0.87564,0.17468 0.38153,-0.31897 c 0.34355,-2.43259 -3.89347,-8.77515 -5.27037,-11.06968 z"
     id="path10"
     style="stroke-width:0.446755" />
  <path
     fill="#fefefe"
     d="m 174.38656,241.11441 -2.55723,0.61339 c 0.42666,2.12701 1.01594,4.24326 1.34698,6.38636 0.21981,1.42514 0.15949,2.86145 0.51064,4.2665 0.55845,-0.7796 0.73045,-2.15784 0.97214,-3.09288 1.09722,0.73178 2.12968,2.20071 3.01468,3.20591 -0.57182,-3.86889 -2.41693,-7.53272 -3.28721,-11.37928 z"
     id="path11"
     style="stroke-width:0.446755" />
  <path
     fill="#fefefe"
     d="m 186.86531,233.58481 c -0.37215,0.26404 -0.6974,0.56872 -1.03647,0.8734 -0.0245,0.18853 -0.0452,0.24884 8.8e-4,0.45972 0.646,2.9718 5.43075,8.42264 7.98528,10.21771 l 0.65987,-0.10549 c 0.19566,-0.21802 0.39089,-0.33238 0.41189,-0.64333 0.0397,-0.57854 -0.24303,-1.10528 -0.55353,-1.57347 -0.92745,-1.39789 -2.20516,-2.61886 -3.31268,-3.88184 -1.50243,-1.71332 -2.85878,-3.4753 -4.15526,-5.34676 z"
     id="path12"
     style="stroke-width:0.446755" />
  <path
     fill="#fefefe"
     d="m 181.15132,238.02108 -1.93176,1.22946 c 1.31612,3.81619 2.86681,7.08151 5.57816,10.10916 0.28369,0.18987 0.47848,0.34892 0.82962,0.38376 0.32077,0.0317 0.21758,-0.0116 0.5236,-0.30022 0.26001,-2.73815 -3.71477,-8.70232 -4.99962,-11.42216 z"
     id="path13"
     style="stroke-width:0.446755" />
  <path
     fill="#5f636d"
     d="m 224.19608,273.70423 c 0.0496,1.64941 5.12695,11.71121 6.16922,14.07141 0.42263,-3.13755 0.24169,-6.52887 0.31631,-9.70216 -2.23512,-1.34384 -4.35049,-2.87396 -6.48553,-4.36925 z"
     id="path14"
     style="fill:#474a52;fill-opacity:1;stroke-width:0.446755" />
  <path
     fill="#897670"
     d="m 162.60253,331.52494 c -0.0532,0.0367 -0.11212,0.0661 -0.15993,0.10994 -1.03559,0.94443 -2.17794,5.49687 -2.32894,7.006 1.42291,0.52538 2.7806,0.688 4.27679,0.80014 0.19701,0.0772 0.0508,0.034 0.45747,-0.0103 0.91986,-1.65254 1.39119,-3.77776 1.97868,-5.5822 -1.5824,-0.58436 -2.85879,-1.35633 -4.22407,-2.32357 z"
     id="path15"
     style="stroke-width:0.446755" />
  <path
     fill="#897670"
     d="m 206.32502,341.90303 h -0.73715 c -0.58524,1.3215 0.43828,4.87498 0.93417,6.22552 0.86759,0.89619 3.19696,0.65226 4.38087,0.67862 0.22695,0.0267 0.42755,-0.0236 0.65136,-0.0604 0.35517,-1.73206 -0.73892,-4.89688 -1.13207,-6.71114 -1.36708,0.0156 -2.73236,-0.0675 -4.09718,-0.13268 z"
     id="path16"
     style="stroke-width:0.446755" />
  <path
     fill="#897670"
     d="m 204.67159,333.84761 c -0.3592,-0.0545 -0.50573,-0.0321 -0.85152,0.0412 -0.41593,1.71598 0.85821,5.08942 1.30139,6.84918 1.39566,0.22964 2.86146,0.27655 4.2732,0.39315 l 0.59822,-0.14519 c 0.44719,-1.52031 -0.72912,-5.13544 -1.08025,-6.80497 -1.41533,-8.8e-4 -2.83333,-0.19255 -4.24104,-0.33327 z"
     id="path17"
     style="stroke-width:0.446755" />
  <path
     fill="#897670"
     d="m 156.97253,347.38694 -0.25329,0.0978 c -1.09367,1.80131 -1.74503,4.13471 -2.50988,6.10891 1.58598,0.74966 3.18893,1.18033 4.89464,1.56008 l 0.50797,0.0823 c 0.85641,-0.78763 1.86652,-4.98264 2.28603,-6.34212 -1.69587,-0.36276 -3.29391,-0.92657 -4.92547,-1.50691 z"
     id="path18"
     style="stroke-width:0.446755" />
  <path
     fill="#897670"
     d="m 159.89966,339.85824 -0.31272,-0.0192 c -1.06997,1.02844 -2.05016,5.03582 -2.55588,6.63474 1.59983,0.41727 3.18848,0.88949 4.78115,1.33626 l 0.21088,-0.0509 c 1.11867,-1.27637 2.07428,-5.718 2.59832,-7.53852 -1.65388,0.0987 -3.10493,-0.042 -4.72175,-0.36232 z"
     id="path19"
     style="stroke-width:0.446755" />
  <path
     fill="#897670"
     d="m 165.66236,322.56261 c -1.31123,2.26057 -2.07474,5.26768 -2.89498,7.76011 1.06327,0.88502 2.27711,1.95366 3.55707,2.49779 0.52895,0.22518 0.28948,0.21178 0.81531,0.0135 1.04407,-3.02095 2.02201,-6.06782 3.02944,-9.10127 -0.0599,0.029 -0.11928,0.0589 -0.17915,0.0875 l -0.30156,0.13896 c -0.49232,0.23008 -1.0302,0.53655 -1.58732,0.54012 -1.07176,0.008 -1.8232,-1.19953 -2.43881,-1.93668 z"
     id="path21"
     style="stroke-width:0.446755" />
  <path
     fill="#897670"
     d="m 163.22621,21.188514 -0.63797,0.171553 c 0.46506,1.504221 3.43375,3.519083 4.65205,4.606035 l -0.21848,0.107223 c -1.98893,-0.741164 -3.64551,-3.055798 -5.20244,-4.48407 -1.44883,0.265371 -3.32028,0.373932 -4.64848,0.975264 0.15503,0.602226 0.59373,0.805944 1.05971,1.196408 1.69185,1.386278 3.38906,2.735475 5.16178,4.018553 q 3.31091,-0.06657 6.62225,-0.05272 c -2.15559,-2.307039 -4.3228,-4.555106 -6.78842,-6.538248 z"
     id="path22"
     style="fill:#97483d;fill-opacity:1;stroke-width:0.446755" />
  <path
     fill="#c08e81"
     d="m 147.47321,21.972568 c 0.35561,2.466082 4.64624,8.879238 6.29699,10.754711 0.95695,-0.678173 1.99073,-1.253145 2.99773,-1.853583 l 2.87172,-1.477416 c -6.15984,-1.660585 -7.01939,-5.909215 -12.16644,-7.423712 z"
     id="path23"
     style="fill:#f75740;fill-opacity:1;stroke-width:0.446755" />
  <path
     fill="#897670"
     d="m 211.91034,349.36293 -0.78361,0.0465 c -1.54801,0.0965 -3.02586,0.034 -4.57253,-0.0751 0.66164,2.81588 1.19908,5.67288 1.7906,8.50529 1.80576,0.0103 3.66785,-0.0692 5.44816,0.25018 z"
     id="path24"
     style="stroke-width:0.446755" />
  <path
     fill="#897670"
     d="m 154.16066,354.77715 c -0.0169,0.004 -0.0353,4.5e-4 -0.0504,0.009 -0.89173,0.46328 -2.80696,6.59722 -3.26265,7.85438 1.87815,0.61741 3.80948,1.08606 5.72068,1.59178 l 0.62055,0.20328 c 0.96052,-0.8457 2.04702,-6.40153 2.47858,-8.00002 -1.8576,-0.49679 -3.70225,-0.9851 -5.50668,-1.65791 z"
     id="path25"
     style="stroke-width:0.446755" />
  <path
     fill="#c08e81"
     d="m 242.33786,97.336859 c -0.2676,0.247503 -0.16037,0.114365 -0.36544,0.462391 -1.2518,2.126107 -2.68633,3.55125 -4.6927,4.98086 1.76512,1.99521 3.44313,4.04939 5.11489,6.12232 0.34221,0.37528 0.32701,0.47087 0.84525,0.58792 1.68651,-0.95113 2.51746,-3.80052 3.17419,-5.52946 -1.11152,-2.32357 -2.60724,-4.512217 -4.07619,-6.624031 z"
     id="path26"
     style="fill:#f75740;fill-opacity:1;stroke-width:0.446755" />
  <path
     fill="#c08e81"
     d="m 174.95215,15.935132 -0.38376,0.0068 q -1.63333,1.079806 -3.37522,1.972866 -1.7419,0.893509 -3.57181,1.589552 c 1.96841,2.633615 4.20888,5.113547 6.31309,7.643069 0.59731,0.922995 1.21785,1.832586 1.82767,2.747538 -0.27163,-1.766912 -0.36633,-3.461451 -0.20283,-5.23998 0.28861,-3.137107 1.32285,-5.641163 3.78446,-7.689531 -1.52031,-0.24929 -2.92668,-0.549061 -4.3916,-1.030215 z"
     id="path27"
     style="fill:#f75740;fill-opacity:1;stroke-width:0.446755" />
  <path
     fill="#b87c78"
     d="m 149.18427,122.51547 c -0.0733,0.54863 1.63021,2.96824 2.00414,3.73443 1.43632,2.9441 2.95617,6.01375 3.99264,9.12004 0.45122,1.35232 0.50572,2.8409 1.11197,4.1213 l 0.29128,-0.0228 0.2627,-0.76351 0.19969,-0.92254 c 1.24645,-5.81451 1.98181,-8.34314 -1.45999,-13.65593 -2.16274,-0.4691 -4.27946,-0.97706 -6.40243,-1.61101 z"
     id="path28"
     style="fill:#f75740;fill-opacity:1;stroke-width:0.446755" />
  <path
     fill="#fefefe"
     d="m 17.045119,155.6883 c -0.02279,-4.3e-4 -0.04556,-0.003 -0.06836,-8.8e-4 -1.257167,0.0567 -3.636132,2.99504 -4.553766,3.96407 3.122366,2.59787 6.059328,5.42581 9.02086,8.20373 l 0.281455,0.0545 c 0.11392,-0.59597 0.1032,-1.16646 0.168427,-1.76422 0.187637,-1.72583 2.560795,-3.11612 3.823768,-4.07753 -2.676951,-2.41561 -5.525901,-4.6123 -8.672391,-6.37966 z"
     id="path29"
     style="stroke-width:0.446755" />
  <path
     fill="#897670"
     d="m 253.15021,371.15873 -2.33652,-0.0871 q -2.46385,2.22305 -4.85666,4.52249 c 3.92562,0.64335 7.8039,1.59759 11.66162,2.55679 0.1854,0.0671 0.57765,0.21756 0.76351,0.24527 0.0267,0.004 0.47444,-0.003 0.54057,-0.0509 0.29441,-0.21488 0.76707,-1.10213 1.02171,-1.44524 1.3854,-1.86653 2.57957,-3.12325 4.5502,-4.36836 -3.77328,-0.537 -7.53942,-1.11376 -11.34443,-1.37288 z"
     id="path30"
     style="stroke-width:0.446755" />
  <path
     fill="#5f636d"
     d="m 58.789378,172.304 c -0.659855,0.39001 -0.499471,1.3483 -0.514661,2.03005 -0.147875,6.75715 -2.23377,14.98859 -5.168498,21.07518 l 3.144702,1.09901 c 0.162171,0.0179 0.31809,-0.0728 0.474899,-0.11705 4.02883,-5.41064 5.576833,-16.66035 4.665454,-23.2607 -0.852407,-0.35427 -1.709728,-0.59329 -2.601896,-0.82649 z"
     id="path31"
     style="fill:#f75740;fill-opacity:1;stroke-width:0.446755" />
  <path
     fill="#fefefe"
     d="m 7.6543476,173.7823 c -0.061206,0.0635 -0.134473,0.11794 -0.1845094,0.19122 -0.7393781,1.07891 -0.334172,3.4123 0.114369,4.52294 1.3545582,3.35422 4.6743878,6.47167 8.0053868,7.83739 2.382094,0.97616 4.333962,0.96366 6.674061,-0.03 0.818007,-0.75547 1.78925,-1.84868 1.71777,-3.0634 -0.04869,-0.82248 -0.693363,-1.28308 -1.409956,-1.53103 -1.314798,-0.45524 -2.785066,-0.55085 -4.136498,-0.91361 -4.325473,-1.16067 -7.723485,-3.84521 -10.7806234,-7.01359 z"
     id="path32"
     style="stroke-width:0.446755" />
  <defs
     id="defs33">
    <linearGradient
       id="gradient_0"
       gradientUnits="userSpaceOnUse"
       x1="350.07642"
       y1="77.271927"
       x2="396.25095"
       y2="103.78728"
       gradientTransform="matrix(-0.44675415,0,0,0.44675415,327.73046,-29.672212)">
      <stop
         offset="0"
         stop-color="#C9C7C5"
         id="stop32" />
      <stop
         offset="1"
         stop-color="#F4F5F5"
         id="stop33" />
    </linearGradient>
  </defs>
  <path
     fill="url(#gradient_0)"
     d="m 171.63992,7.0267203 c -2.79132,-0.3129961 -5.82924,-0.149618 -8.5951,0.3469492 -4.36837,0.7842322 -12.05165,3.6666005 -14.68839,7.4211665 0.25734,0.266892 1.51495,0.231151 1.94115,0.25885 4.53991,0.05987 9.36575,-1.167413 13.64163,-2.607883 2.04212,-0.688045 8.60985,-3.0338175 9.48817,-4.81936 -0.48473,-0.5223003 -1.1008,-0.4755698 -1.78746,-0.5997227 z"
     id="path33"
     style="fill:url(#gradient_0);stroke-width:0.446755" />
  <defs
     id="defs35">
    <linearGradient
       id="gradient_1"
       gradientUnits="userSpaceOnUse"
       x1="369.91531"
       y1="81.153648"
       x2="375.99258"
       y2="114.59046"
       gradientTransform="matrix(-1,0,0,1,1024,0)">
      <stop
         offset="0"
         stop-color="#BF8571"
         id="stop34" />
      <stop
         offset="1"
         stop-color="#D2928E"
         id="stop35" />
    </linearGradient>
  </defs>
  <path
     fill="url(#gradient_1)"
     d="m 175.62854,8.4026783 c -1.06551,0.5365516 -1.9961,1.4797392 -3.05982,2.0951877 -4.73203,2.738289 -9.97602,5.00302 -15.37324,5.961755 -1.7017,0.302453 -3.47174,0.560229 -5.19755,0.669239 -1.81918,0.114814 -4.46397,-0.624116 -6.09373,0.06344 -0.32657,0.137601 -0.3105,0.311387 -0.43826,0.611607 0.12597,0.763948 0.61607,1.260292 1.08381,1.845986 2.04883,0.221591 4.13874,0.513322 6.20141,0.447648 6.19648,-0.196571 14.23001,-2.285593 19.46373,-5.632363 1.75397,-1.121621 3.8671,-2.449687 4.33442,-4.6054992 -0.18854,-0.7459458 -0.40477,-0.907848 -0.92077,-1.456999 z"
     id="path35"
     style="fill:#f75740;fill-opacity:1;stroke-width:0.446755" />
  <path
     fill="#c08e81"
     d="m 234.96286,85.060951 c -1.96931,2.873523 -3.80859,4.875881 -7.00243,6.39573 2.24672,3.02944 4.70967,5.883307 7.17799,8.731369 0.28681,0.34891 0.33597,0.43514 0.77601,0.59418 2.07787,-0.974811 3.83583,-3.792046 5.14841,-5.591575 -1.72984,-3.494063 -4.03375,-6.820591 -6.09998,-10.129704 z"
     id="path36"
     style="fill:#f75740;fill-opacity:1;stroke-width:0.446755" />
  <path
     fill="#5f636d"
     d="m 216.52398,313.20935 c -0.24484,1.27102 -0.44186,2.70421 -0.98108,3.88767 -0.34266,0.75099 -0.56382,0.85016 -1.32016,1.1486 -0.43336,0.55844 -0.48652,1.00385 -0.41682,1.68337 0.0947,0.91807 0.0313,1.58106 -0.14654,2.47635 l -0.0679,0.32747 c 3.74424,1.17184 7.4398,2.44285 11.22068,3.50389 l 2.75825,0.72419 c 0.28458,-1.68963 0.40387,-3.42124 0.57454,-5.1265 -4.44478,-2.12609 -7.95759,-5.41198 -11.62098,-8.62504 z"
     id="path37"
     style="fill:#474a52;fill-opacity:1;stroke-width:0.446755" />
  <path
     fill="#897670"
     d="m 266.99289,373.33487 c -0.17022,-0.0283 -0.35695,-0.0719 -0.53164,-0.0513 -2.06802,0.24213 -4.64714,4.23969 -5.74705,5.84399 2.10377,0.86804 4.10255,1.86564 6.03611,3.06964 1.24197,0.77288 2.47724,1.9148 3.84252,2.42141 l 0.40254,-0.29843 c 2.25163,-2.33296 4.37282,-4.13292 7.28476,-5.59158 -3.2068,-2.69526 -7.30666,-4.26471 -11.28724,-5.39366 z"
     id="path38"
     style="stroke-width:0.446755" />
  <path
     fill="#897670"
     d="m 116.8482,376.74315 c -1.00206,-0.11481 -2.05418,-0.0978 -3.06473,-0.14072 2.89407,2.8083 4.45504,6.00839 4.98936,9.98764 2.82751,-0.43782 5.72917,-0.63038 8.57856,-0.91451 1.28219,-0.20819 2.64524,-0.24973 3.94262,-0.36992 -0.65987,-2.10064 -1.39702,-4.30268 -2.89542,-5.97309 -2.643,-2.94591 -7.89907,-2.39908 -11.55039,-2.5894 z"
     id="path39"
     style="stroke-width:0.446755" />
  <path
     fill="#897670"
     d="m 234.32265,376.74003 c -4.90044,-0.69292 -8.50083,3.22958 -12.11284,5.94228 3.1179,1.37421 6.28225,2.59965 9.46761,3.80679 l 2.06132,0.73758 c 2.68232,-4.23745 5.95613,-7.04709 10.40223,-9.33938 q -4.89955,-0.65629 -9.81832,-1.14727 z"
     id="path40"
     style="stroke-width:0.446755" />
  <path
     fill="#897670"
     d="m 279.83885,379.48443 c -3.01558,0.35518 -6.24562,4.23078 -8.10188,6.34391 1.79238,1.69142 3.4619,3.40472 4.93216,5.38832 1.47608,4.4e-4 2.95528,-0.0424 4.43136,-0.0648 2.75803,-0.2149 5.41792,-0.4767 8.08867,-1.24735 -1.70704,-4.21467 -5.88376,-7.65111 -9.35031,-10.42009 z"
     id="path41"
     style="stroke-width:0.446755" />
  <path
     fill="#5f636d"
     d="m 215.58891,253.61146 -0.19299,0.13536 c -0.0245,0.20551 -0.0429,0.25376 0.003,0.48696 0.31587,1.64987 5.33738,12.65209 6.34214,14.5557 0.44452,0.84168 0.95918,1.67622 1.59982,2.38299 1.92194,2.1194 4.91831,3.6969 7.29549,5.27081 q 0.19212,-5.54377 0.0943,-11.09022 l -0.0961,-0.73938 c -1.07176,-0.5236 -4.80305,1.32954 -6.23758,1.49617 -0.66834,0.0777 -0.96321,-0.0255 -1.47875,-0.4396 0.0693,-0.10057 0.10994,-0.22829 0.20773,-0.30156 0.55488,-0.41548 2.13326,-0.68756 2.86861,-1.00922 0.80863,-0.35338 1.54756,-0.82605 2.28739,-1.3023 -1.93759,-0.54458 -3.94797,-0.86714 -5.85919,-1.49125 -0.73401,-0.23947 -1.15753,-0.44274 -1.51673,-1.13208 l 0.23544,-0.53119 c 1.29201,-1.07399 2.84628,-1.21248 4.44833,-1.50556 -3.09868,-2.13012 -6.36848,-3.80859 -9.99969,-4.78563 z"
     id="path42"
     style="fill:#474a52;fill-opacity:1;stroke-width:0.446755" />
  <path
     fill="#897670"
     d="m 106.92981,376.08285 c -2.66532,-0.0969 -5.33379,0.0487 -7.997342,0.14654 q 0.389574,0.24705 0.761716,0.51958 c 3.626756,2.68052 5.464256,6.448 6.064696,10.82485 1.2183,-0.13671 2.45089,-0.17111 3.67544,-0.23455 2.82885,-0.34579 5.72114,-0.47356 8.56474,-0.70051 -0.88728,-4.32369 -2.70243,-7.16192 -5.75644,-10.27937 -1.74412,-0.22382 -3.55483,-0.20729 -5.31281,-0.27654 z"
     id="path43"
     style="stroke-width:0.446755" />
  <path
     fill="#b87c78"
     d="m 176.63419,180.56001 c -4.70879,1.42962 -9.31305,2.44776 -14.21706,2.93964 -0.56604,1.45106 -3.31492,7.85528 -2.92715,8.92794 5.22972,1.40861 11.10631,0.59061 16.15866,-1.12538 q -0.0617,-2.7051 0.18541,-5.39946 0.24751,-2.69438 0.80014,-5.34274 z"
     id="path44"
     style="fill:#f75740;fill-opacity:1;stroke-width:0.446755" />
  <path
     fill="#897670"
     d="m 246.16029,378.2858 c -0.0585,0.005 -0.11883,8.8e-4 -0.17467,0.0179 -4.11729,1.25805 -8.51245,5.91948 -10.63185,9.52435 3.41856,1.15128 7.44515,3.31268 10.94412,3.85683 l 0.31184,-0.37795 c 3.07591,-5.46382 6.67988,-7.67748 12.25894,-10.17216 -4.21871,-1.09991 -8.41193,-2.09795 -12.70838,-2.84895 z"
     id="path45"
     style="stroke-width:0.446755" />
  <path
     fill="#fefefe"
     d="m 184.17584,178.58536 c -2.12208,0.60847 -4.23835,1.26476 -6.41449,1.65254 -1.51807,12.30137 0.97258,24.19977 4.13202,36.04412 q 0.61965,2.06312 1.29515,4.10836 c 0.0787,-6.82507 -0.62502,-13.67694 -0.59687,-20.51807 0.0295,-7.174 0.8953,-14.16658 1.58419,-21.28695 z"
     id="path46"
     style="stroke-width:0.446755" />
  <path
     fill="#897670"
     d="m 103.09979,370.48993 c -3.772388,-0.26225 -7.742691,-0.30557 -11.467287,0.38735 -6.485077,1.20668 -11.465493,4.66367 -15.818217,9.49396 -0.958736,1.06418 -2.045688,2.16186 -2.827062,3.36362 -0.384655,0.5915 -0.628136,1.10617 -0.487409,1.82633 0.948013,0.48384 1.858944,1.01279 2.77211,1.55739 0.771097,-1.88531 1.520751,-3.60843 2.828401,-5.19531 4.486751,-5.44549 11.455671,-7.69355 18.214613,-8.37307 8.464201,-0.20506 16.626851,0.25063 25.033411,1.24333 5.42316,0.64064 10.75784,1.62796 16.22478,1.9407 l -0.0965,-0.13582 -0.17289,0.15458 0.18495,-0.0115 -0.20148,-0.21177 -0.0782,0.22159 -0.23453,-0.004 -0.0974,-0.40073 c -2.6993,-0.151 -5.63447,-0.97706 -8.30606,-1.49931 -8.53568,-1.66952 -16.75016,-3.85951 -25.47124,-4.35764 z"
     id="path47"
     style="stroke-width:0.446755" />
  <path
     fill="#fefefe"
     d="m 11.855623,160.36316 c -1.849562,1.69721 -3.6423859,4.49433 -3.8210875,7.03637 -0.1635121,2.32491 1.1995348,4.36747 2.6957145,6.01733 3.278728,3.61647 7.293708,5.62865 12.169582,5.85649 0.641986,-0.0164 1.254486,-0.0456 1.872346,-0.23767 0.720169,-0.22426 1.662374,-0.62769 1.953656,-1.38448 1.397449,-3.63122 -13.082748,-12.81739 -14.870211,-17.28804 z"
     id="path48"
     style="stroke-width:0.446755" />
  <path
     fill="#5f636d"
     d="m 253.44194,293.69692 c -0.73178,2.37808 -0.53208,8.27791 -0.94846,11.38464 -1.11554,8.31722 -3.03927,16.70682 -5.3883,24.76045 l 5.49195,1.18748 c 1.8366,0.33908 3.65624,0.61651 5.51385,0.8122 -0.76798,-7.68954 -1.45106,-15.41526 -2.43928,-23.07887 -0.6496,-5.03493 -1.58822,-10.02875 -2.22976,-15.0659 z"
     id="path49"
     style="fill:#474a52;fill-opacity:1;stroke-width:0.446755" />
  <path
     fill="#b87c78"
     d="m 175.67143,192.1564 c -0.36544,0.24572 -0.74786,0.45212 -1.13878,0.65583 -4.45949,2.32091 -10.86193,2.70957 -15.62612,1.20848 -0.55128,2.17392 -2.77122,10.17616 -2.02155,11.83005 l 0.68219,0.21936 c 6.93451,1.09187 13.14796,-0.172 19.56336,-2.84181 -0.646,-3.6741 -1.04719,-7.36652 -1.4591,-11.07191 z"
     id="path50"
     style="fill:#f75740;fill-opacity:1;stroke-width:0.446755" />
  <path
     fill="#897670"
     d="m 97.656984,376.69669 c -5.016596,-0.3431 -9.953678,1.57482 -14.016908,4.40724 -3.136212,2.18595 -5.648758,4.89509 -6.336759,8.77201 q 3.116109,-0.18585 6.227751,-0.43424 c 7.109649,-0.50752 14.193827,-1.01727 21.285152,-1.7495 -0.1854,-1.16646 -0.42575,-2.31642 -0.84525,-3.42258 -1.17586,-3.09958 -3.21396,-6.16655 -6.313986,-7.57293 z"
     id="path51"
     style="stroke-width:0.446755" />
  <path
     fill="#897670"
     d="m 260.68605,381.97777 c -5.95253,1.90944 -9.41845,5.02063 -12.77179,10.23067 4.95136,1.56007 9.98852,2.99102 15.09179,3.96227 2.55856,0.45389 9.85495,1.91479 11.89618,0.51912 0.37036,-0.25331 0.28548,-0.31764 0.36188,-0.72865 -2.7404,-6.69819 -8.1229,-10.97765 -14.57806,-13.98341 z"
     id="path52"
     style="stroke-width:0.446755" />
  <path
     fill="#fefefe"
     d="m 141.23294,70.336829 q 1.56542,-1.53326 2.95484,-3.227799 c 5.06708,-6.159846 9.74771,-15.133349 8.81222,-23.382217 -0.11704,-1.029769 -0.4052,-2.411578 -1.3769,-2.991466 -0.54325,-0.323897 -1.26074,-0.346233 -1.86117,-0.20506 -4.40724,1.033788 -8.87031,8.019236 -11.24079,11.585674 0.99314,-0.315855 1.72805,-0.489195 2.68768,0.02324 0.82693,0.44184 1.26699,1.224553 1.47697,2.114487 0.46015,1.946955 -0.13671,4.533662 -1.25896,6.167441 -1.97822,2.878884 -5.76224,1.360813 -7.40941,3.799197 2.55006,1.904959 5.00185,3.813941 7.21552,6.116512 z"
     id="path53"
     style="stroke-width:0.446755" />
  <path
     fill="#c08e81"
     d="m 221.42665,59.675934 c -4.04402,2.070706 -7.47643,2.245834 -11.93951,2.21724 3.97478,8.759957 9.77454,16.741666 15.01049,24.783688 l 2.43839,3.400246 c 2.57017,-1.908087 5.05904,-4.40187 6.70041,-7.159682 -3.84565,-7.869575 -8.47001,-15.291948 -12.20978,-23.241492 z"
     id="path54"
     style="fill:#f75740;fill-opacity:1;stroke-width:0.446755" />
  <path
     fill="#897670"
     d="m 214.01857,358.69876 c -1.93265,0.31049 -3.63568,0.31674 -5.57505,0.0915 q 1.05256,6.34079 2.32491,12.64091 l -0.21042,-0.11028 0.29352,0.82426 -0.22561,0.16664 c -0.72732,-0.4691 -0.99984,-1.12806 -1.51272,-1.79551 -0.35784,-0.4664 -0.69156,-0.74475 -1.30764,-0.77468 -1.44436,-0.0701 -3.32296,3.73934 -4.44833,4.7986 0.36724,-1.15933 0.85956,-2.28605 1.30943,-3.41544 -0.58926,-0.82425 -1.18791,-1.74681 -1.99118,-2.37896 -1.09901,-0.86537 -2.52863,-1.20535 -3.90641,-1.04675 -2.71539,0.31274 -5.44951,2.0966 -7.1378,4.21556 9.67,1.25182 20.84288,6.86216 29.9991,10.51705 1.35366,-1.4256 2.8141,-2.71448 4.35004,-3.93858 1.1772,-0.96544 2.50764,-1.71822 3.85102,-2.42185 -3.45385,-0.59508 -6.94121,-0.4213 -10.38122,-0.90424 5.27393,-1.49126 19.57721,-0.75143 25.14912,0.16842 1.56499,-1.74367 3.23808,-3.05892 5.17967,-4.36657 -4.91653,-0.43513 -10.32314,0.45792 -15.21019,0.96409 -5.76936,0.59687 -11.52267,1.07132 -17.26704,1.89201 q -1.9264,-7.50145 -3.2832,-15.1262 z"
     id="path55"
     style="stroke-width:0.446755" />
  <path
     fill="#b87c78"
     d="m 177.35436,204.52435 c -0.50573,0.323 -1.03334,0.62009 -1.56052,0.90825 -5.47855,2.99594 -13.4549,3.32742 -19.3592,1.58284 -0.1787,4.56584 -0.5151,11.57542 0.71302,15.89195 0.50887,0.54548 0.99,0.60133 1.69142,0.82872 7.89771,1.25763 14.94705,-0.88099 21.76496,-4.81913 -1.23572,-4.78652 -2.38968,-9.52346 -3.24968,-14.39263 z"
     id="path56"
     style="fill:#f75740;fill-opacity:1;stroke-width:0.446755" />
  <path
     fill="#b87c78"
     d="m 180.94492,220.20675 c -0.84839,0.72911 -1.81964,1.3979 -2.79087,1.95544 -6.36625,3.65402 -13.7234,4.71908 -20.77408,2.84316 0.84749,4.92099 1.43364,9.88578 2.27264,14.7956 0.56203,0.50795 0.94176,0.4664 1.67847,0.58346 0.50258,0.0812 0.99714,0.1376 1.5051,0.16888 8.88327,0.54414 16.65545,-2.8226 23.22228,-8.60807 q -3.00263,-5.67512 -5.11354,-11.73847 z"
     id="path57"
     style="fill:#f75740;fill-opacity:1;stroke-width:0.446755" />
  <path
     fill="#5f636d"
     d="m 224.91177,38.018635 c -0.11348,0.831857 1.63781,6.288066 1.804,8.015662 0.4396,4.555999 -0.43291,8.614761 -3.39935,12.173603 2.66711,3.449389 4.1347,7.93212 6.13483,11.796991 3.60485,6.963556 7.5899,14.09956 12.06861,20.541301 0.53923,0.824711 1.13074,1.618151 1.70392,2.419627 0.74519,-15.635948 -3.71029,-31.721777 -11.63705,-45.165503 -2.02335,-3.431071 -4.52473,-6.452469 -6.67496,-9.781681 z"
     id="path58"
     style="fill:#191a1d;fill-opacity:1;stroke-width:0.446755" />
  <path
     fill="#897670"
     d="m 150.72467,363.72161 c -0.11883,0.0644 -0.25553,0.10275 -0.35606,0.193 -0.44184,0.39582 -1.08203,2.83198 -1.36081,3.51327 -1.51494,3.70359 -2.94946,7.57561 -5.44504,10.74936 l -4.62792,-0.33954 c 1.09142,1.06417 1.78746,2.08902 2.44509,3.45073 q -1.34607,-1.57346 -2.77122,-3.07545 c -3.59236,-0.33641 -7.20838,-0.50439 -10.81012,-0.72865 2.31642,2.16228 3.19967,4.71414 3.88231,7.70159 9.78212,-0.35025 19.60535,-1.38852 29.37854,-2.02201 6.9448,-0.3851 13.97894,-0.54013 20.88755,-1.36216 -1.08294,-2.20741 -2.11806,-4.16821 -4.44744,-5.29538 -4.63329,-2.2427 -11.24838,0.20954 -15.79098,1.71867 -0.63661,0.77601 -1.08204,1.82097 -1.89423,2.40711 -0.0152,-0.82203 0.29978,-1.60831 0.54504,-2.38434 -2.19,0.57319 -4.17671,0.8207 -6.44398,0.8475 0.70364,-4.66098 2.27978,-9.25227 3.30374,-13.85787 q -3.30642,-0.50481 -6.49447,-1.51583 z"
     id="path59"
     style="stroke-width:0.446755" />
  <path
     fill="#c08e81"
     d="m 217.47377,80.909265 c -2.30168,15.362536 -2.52818,32.400835 7.19765,45.490285 1.1017,1.48279 2.33609,2.76541 3.73131,3.97255 1.15708,-0.86983 2.19444,-1.77407 3.2251,-2.79043 4.23166,-4.57074 7.00734,-11.33325 8.97754,-17.20138 -2.63496,-5.04162 -7.36968,-9.25406 -11.10767,-13.505822 -2.34456,-2.667564 -4.47335,-5.489707 -6.60883,-8.325255 -0.75456,9.024873 0.43023,20.512267 3.68572,28.990767 0.80238,2.08857 4.72443,7.94865 4.76107,9.50826 -7.25038,-6.48061 -9.05079,-17.70665 -9.57841,-26.9491 q -0.18719,-3.083498 -0.0898,-6.171454 0.0978,-3.087965 0.47937,-6.153596 c -1.64272,-2.230198 -3.14873,-4.553319 -4.67305,-6.864825 z"
     id="path61"
     style="fill:#f75740;fill-opacity:1;stroke-width:0.446755" />
  <path
     fill="#d0cec7"
     d="m 198.21732,88.110494 c -1.95365,2.269956 -4.10834,4.360774 -6.25053,6.451574 -9.10486,8.889072 -18.94149,15.207952 -31.92461,16.180542 q -1.74769,0.13493 -3.49988,0.18317 -1.75216,0.0483 -3.50433,0.009 -1.75261,-0.0384 -3.50076,-0.16396 -1.74815,-0.12509 -3.48826,-0.33685 -1.74011,-0.21177 -3.46725,-0.50975 -1.72716,-0.29754 -3.43779,-0.68041 -1.71061,-0.38286 -3.3998,-0.85017 -1.68961,-0.46685 -3.35377,-1.01726 c 8.18185,8.91543 14.05264,14.12369 26.64888,14.64863 9.62979,0.40164 17.45334,-1.92194 24.56969,-8.55311 1.14235,-1.06462 3.22512,-3.65937 4.64536,-4.0963 0.034,-0.021 0.0724,-0.0358 0.10137,-0.0626 3.23315,-2.97986 8.68489,-13.839551 9.68473,-18.154307 0.2265,-0.977049 0.17826,-2.049706 0.17691,-3.04865 z"
     id="path62"
     style="fill:#c1931a;fill-opacity:1;stroke-width:0.446755" />
  <path
     fill="#fefefe"
     d="m 46.34236,157.74741 c -4.364786,-0.0304 -16.062596,4.57744 -19.870283,7.08284 -0.776904,0.51108 -1.598485,1.05523 -1.7754,2.03004 -0.191211,1.05479 0.185404,2.07786 0.797009,2.92445 1.662373,2.30078 5.05279,4.08512 7.815071,4.40232 4.005598,0.46015 6.199606,-1.77987 9.085639,-4.03597 q -0.492322,1.52879 -1.011898,3.0482 c 0.917186,2.24271 2.529074,3.42661 3.862635,5.33424 l -0.08132,0.26538 c -2.033622,-0.49411 -3.675892,-2.28023 -4.843707,-3.91446 -1.397446,0.75411 -2.743069,1.39656 -4.245951,1.91388 0.472666,3.37435 2.938749,4.7432 5.419128,6.65173 -0.894403,-0.23053 -1.8031,-0.46909 -2.664889,-0.80192 -2.962874,-1.14458 -4.691812,-3.07278 -5.94183,-5.91325 -0.394931,0.2082 -0.519575,0.25912 -0.680853,0.70901 -0.635284,1.77048 -0.313174,4.39114 -1.044511,6.60437 -0.02279,-1.70884 0.213995,-6.81434 -0.969456,-8.04604 -0.595524,0.12776 -0.493218,0.19166 -0.811753,0.66879 -0.03217,0.82382 -0.176022,1.50958 -0.419056,2.29855 l -0.08488,0.26804 c -0.783607,0.78495 -1.653437,1.31883 -2.589833,1.89469 0.302005,1.29648 0.314961,2.36512 0.243033,3.68215 3.122366,1.31703 6.288958,2.77792 9.627999,3.4351 3.61871,0.71168 8.779611,0.64867 11.99088,-1.42694 1.234382,-0.7979 2.132805,-2.02871 3.368078,-2.85074 0.31541,0.87296 0.525831,1.66505 1.356793,2.1471 l 0.505726,-0.14385 c 0.455243,-0.41637 0.633945,-0.86135 0.851515,-1.42471 1.035128,-2.67828 3.118343,-8.98288 1.858943,-11.69959 -0.529404,0.22875 -0.56291,1.33758 -0.966328,1.86028 -0.240355,-0.29753 -0.209975,-0.18853 -0.289498,-0.50751 -1.601167,-6.45514 -3.390416,-11.93414 -8.491009,-16.45618 z"
     id="path63"
     style="stroke-width:0.446755" />
  <path
     fill="#fefefe"
     d="m 199.99451,193.4788 c -0.38287,0.85643 1.18569,6.76655 1.47071,8.09563 1.48681,6.94077 2.79177,13.93293 4.53053,20.81695 2.54831,10.0904 5.72963,19.98108 8.852,29.9017 q 1.54308,0.16262 3.05132,0.52629 1.50826,0.36409 2.95573,0.92344 c 2.66311,1.05568 5.00097,2.61619 6.17459,5.32307 -0.91629,0.38912 -1.8174,0.82247 -2.72297,1.23706 1.4658,0.35875 2.90748,0.84795 4.34783,1.29782 l 1.87368,0.69069 c 0.16708,-7.24055 -1.33759,-16.81315 -2.41739,-24.05682 -0.85733,-5.75464 -1.49843,-11.99624 -3.76078,-17.40332 -2.91328,-6.96087 -18.52554,-20.48948 -24.35525,-27.35251 z"
     id="path66"
     style="stroke-width:0.446755" />
  <path
     fill="#5f636d"
     d="m 205.79695,60.8232 c -0.30245,0.07596 -0.59417,0.178254 -0.89037,0.275646 -0.34535,0.68979 -0.058,1.517625 0.0572,2.249408 2.31464,14.720995 0.55532,39.620836 -5.12381,53.342886 -2.41069,5.82568 -5.96283,10.91332 -9.80358,15.86425 -2.04971,2.64255 -4.16688,5.33647 -6.57845,7.66094 -2.64971,2.55544 -6.14243,5.01123 -8.26496,8.0237 -0.0419,0.0595 -0.0812,0.11973 -0.12195,0.17959 4.85084,-1.36527 9.44974,-2.91373 14.01199,-5.08406 q 3.69912,-1.86698 7.10563,-4.22585 c 2.03183,-1.41084 11.06431,-9.10305 12.3456,-9.15667 1.25136,0.76619 1.95633,3.42125 2.48439,4.78071 4.45548,-1.9809 6.97964,-5.63312 9.77096,-9.4426 -10.25657,-17.3823 -6.58783,-30.151429 -6.30772,-48.760522 -1.70034,-2.886925 -3.4534,-5.770276 -4.95942,-8.765317 -0.99581,-1.981354 -1.80533,-4.459946 -3.01245,-6.277341 -0.20104,-0.302452 -0.42487,-0.454349 -0.71303,-0.66477 z"
     id="path67"
     style="fill:#191a1d;fill-opacity:1;stroke-width:0.446755" />
  <path
     fill="#fefefe"
     d="m 202.86134,92.033001 c -1.80444,-1.12448 -3.17463,-2.400862 -4.64402,-3.922507 0.003,0.998943 0.0496,2.0716 -0.17692,3.048658 -0.99984,4.314747 -6.45157,15.174438 -9.68473,18.154298 -0.0291,0.0267 -0.0676,0.0415 -0.10137,0.0626 -1.78121,2.50896 -4.07976,5.01347 -6.3475,7.07747 -7.21685,6.56909 -15.20616,8.17248 -24.62776,7.76593 0.8752,1.5078 1.81293,3.00309 2.57554,4.57119 1.10035,2.26237 3.08662,7.7016 2.13951,10.10111 -0.1872,0.47357 -0.0576,0.33104 -0.46373,0.52629 -0.90647,-1.2612 -1.18658,-3.75096 -1.76199,-5.30745 -0.86493,4.64401 -2.11941,8.85869 -4.11596,13.15736 5.52769,1.56229 10.86775,1.95365 16.5719,1.49127 3.83628,-4.37106 8.37038,-7.90934 12.43137,-12.04137 13.1453,-13.37492 16.23728,-26.66676 18.20568,-44.684792 z"
     id="path68"
     style="stroke-width:0.446755" />
  <path
     fill="#c08e81"
     d="m 192.65434,15.990084 c -3.55482,-0.28369 -8.1814,0.263137 -11.29126,2.087681 -1.53951,0.903338 -2.61753,2.250301 -3.00174,4.009171 -1.23126,5.640717 3.2899,12.912982 6.22595,17.485063 3.32386,5.175198 9.43679,12.21381 14.86129,15.271843 3.37524,1.902279 7.1092,3.074562 10.87668,3.901951 0.74876,0.102308 1.50019,0.20774 2.25387,0.268946 3.02139,0.245267 6.19648,-0.520022 8.49682,-2.565709 2.1958,-1.95321 3.21395,-4.800373 3.39042,-7.677023 0.49678,-8.100098 -3.14292,-14.853234 -8.36772,-20.753963 -6.22865,-7.03325 -14.01333,-11.433332 -23.44431,-12.02796 z"
     id="path69"
     style="fill:#f75740;fill-opacity:1;stroke-width:0.446755" />
  <path
     d="m 191.56739,18.42802 c -0.0764,-0.0112 -0.15188,-0.0268 -0.22874,-0.03351 -1.85314,-0.159938 -4.2531,0.272073 -5.73186,1.472055 -1.41442,1.147712 -2.08009,2.922219 -2.27218,4.690471 -0.65271,6.010632 3.97298,12.652971 7.52423,17.04948 5.39723,6.681652 12.50152,11.99892 21.24495,12.93353 2.21857,-0.09337 4.53232,-0.392698 6.37517,-1.746808 1.47341,-1.08338 2.24137,-2.671144 2.48217,-4.45816 0.73492,-5.459335 -2.3267,-10.945923 -5.43923,-15.172215 -5.78903,-7.860193 -14.28542,-13.285129 -23.95451,-14.734846 z"
     id="path70"
     style="stroke-width:0.446755" />
  <path
     fill="#d0cec7"
     d="m 193.23333,20.647942 c -1.93712,-0.258671 -4.09449,-0.09024 -5.7466,1.058806 -1.18122,0.822028 -1.78076,2.08813 -1.97867,3.48647 -0.68085,4.802606 2.54963,10.172591 5.35658,13.810958 4.93799,6.400645 12.41887,12.409935 20.65658,13.500908 1.95366,0.06747 3.88184,-0.08265 5.55494,-1.215619 1.20222,-0.813985 1.92282,-2.02871 2.19133,-3.444027 0.77109,-4.060546 -1.31525,-8.507984 -3.54366,-11.785373 -4.99247,-7.340617 -13.69168,-13.762262 -22.4905,-15.412123 z"
     id="path71"
     style="stroke-width:0.446755" />
  <path
     fill="#5f636d"
     d="m 138.1825,171.30237 c -1.03557,1.02799 -1.99073,3.16615 -2.78551,4.43359 -2.00325,3.19519 -4.0467,6.39127 -6.21614,9.47699 -5.1761,7.36385 -11.94666,13.36331 -18.66628,19.26539 -4.04535,-1.46044 -8.08535,-4.40099 -11.735337,-6.66424 -7.807023,-4.84058 -15.631032,-9.75041 -23.215578,-14.9341 -4.107011,-2.80696 -8.000919,-5.93647 -12.164667,-8.6572 1.509582,7.36161 -0.559337,16.48031 -4.664114,22.70807 0.626348,0.66566 8.516028,3.49629 9.945193,4.10969 10.986132,4.7128 21.900339,9.79955 32.731893,14.85503 5.86633,2.73815 11.7943,6.07094 17.94744,8.04201 3.60308,-4.27365 6.511,-9.16158 10.33433,-13.26189 1.6588,-8.49056 3.76256,-15.42017 6.93094,-23.48989 1.44793,-3.68795 2.87174,-7.39423 5.26857,-10.58494 -1.46848,-1.65299 -2.61798,-3.37881 -3.71074,-5.29851 z"
     id="path72"
     style="fill:#191a1d;fill-opacity:1;stroke-width:0.446755" />
  <path
     fill="#b87c78"
     d="m 151.03785,129.83063 c -1.60876,1.03111 -3.2211,2.07919 -4.47692,3.54366 -1.98314,2.31285 -2.63138,4.86336 -2.36199,7.85885 0.74831,8.31498 4.72756,12.90716 10.81324,18.05646 l -0.23544,-0.0625 c -4.32681,-1.18792 -7.71724,-4.99562 -9.87908,-8.76219 -2.106,1.73161 -3.76389,3.46413 -4.80796,6.02001 -1.62305,3.97432 -1.24645,8.78452 0.40207,12.68693 2.01933,4.77892 5.46202,9.42472 10.43305,11.37972 9.70796,3.8184 30.99446,-3.42214 40.53357,-7.32633 3.67947,-1.50601 7.19005,-3.58251 10.91107,-4.94065 2.52058,-0.92031 5.75329,-0.26001 7.45856,-1.01726 -0.0688,-1.97689 -7.13422,-9.56233 -8.68758,-11.83541 l -0.21533,-0.31898 c -7.84188,8.35072 -19.02951,13.31908 -30.30826,14.69062 9.40105,-3.17375 17.67271,-6.42254 25.63208,-12.59847 2.11717,-1.60653 3.39221,-3.86219 4.73469,-6.09418 -10.72611,8.44232 -27.73896,15.27542 -41.54901,14.49628 q -0.45749,-0.0255 -0.91272,-0.0737 -0.45569,-0.0477 -0.90825,-0.11794 -0.45258,-0.0702 -0.90156,-0.16217 -0.44854,-0.092 -0.89218,-0.20595 -0.44361,-0.11395 -0.88099,-0.2493 -0.43782,-0.13537 -0.86805,-0.29173 -0.43067,-0.1568 -0.85285,-0.33416 -0.42217,-0.17737 -0.83542,-0.37528 -0.41281,-0.19791 -0.81578,-0.41549 -0.40297,-0.21801 -0.79477,-0.45523 -0.3918,-0.23723 -0.772,-0.49323 -0.37974,-0.25598 -0.74652,-0.53029 -0.36679,-0.2743 -0.71972,-0.56604 -0.35294,-0.29173 -0.69159,-0.60043 -0.33818,-0.30871 -0.66119,-0.6335 -0.323,-0.32479 -0.62947,-0.66522 c 3.49361,1.87369 6.65931,4.42778 10.67297,5.14348 10.12388,1.80579 31.05877,-6.7022 39.55336,-12.75483 5.95299,-4.24192 8.49146,-11.30824 9.695,-18.26017 -10.03051,9.67669 -20.97376,16.32572 -35.15507,17.49756 -7.02208,0.58033 -16.3016,-0.0906 -21.9182,-4.89419 -1.13431,-0.97034 -3.08172,-2.89809 -2.97316,-4.53097 0.0363,-0.5446 0.0541,-0.67237 0.45792,-1.02039 q 0.41996,0.39806 0.82873,0.80772 c 1.81383,-2.53444 3.64597,-3.31625 6.6008,-3.89256 -0.0165,-0.0483 -0.033,-0.0965 -0.0487,-0.14476 -0.84659,-2.60368 -2.08588,-5.07333 -3.22735,-7.55773 z"
     id="path73"
     style="fill:#f75740;fill-opacity:1;stroke-width:0.446755" />
  <path
     fill="#fefefe"
     d="m 173.30586,31.365573 c -2.63494,-0.181828 -5.30475,-0.641539 -7.92765,-0.980178 -3.76121,1.989395 -11.06476,4.279905 -13.5353,7.454986 l 0.10674,0.216229 c 0.49903,0.17066 1.27147,0.353829 1.66283,0.711679 2.17747,1.992076 2.28291,6.223284 2.00771,8.963227 -0.89395,8.905597 -6.10535,18.57023 -13.01127,24.223009 1.27503,1.737874 2.49288,3.482002 3.47887,5.403938 1.65522,3.225118 2.36825,7.321855 5.39858,9.614597 3.98684,3.01603 9.48103,4.247292 14.40068,3.524892 5.8346,-0.85688 9.87504,-4.496582 13.30791,-9.096364 4.97684,-6.668699 8.27656,-14.04863 6.97472,-22.490943 -0.42799,-2.775684 -1.41264,-5.768043 -3.82154,-7.442924 -1.88529,-1.310777 -4.30313,-1.501094 -6.51411,-1.122247 -7.9558,1.363495 -14.15183,6.863038 -18.60374,13.261897 0.77377,0.129558 1.63111,0.228738 2.34545,0.564697 1.04675,0.491876 1.67982,1.317032 2.07696,2.383434 0.82963,2.225283 0.83142,4.573869 -0.22158,6.72499 -1.9139,3.909991 -6.48107,6.04637 -10.37587,7.421033 -0.15501,-6.77056 1.73654,-13.919073 5.29448,-19.678179 3.85192,-6.234902 10.89456,-11.131327 18.0395,-12.737408 3.15854,-0.709445 6.56683,-0.571846 9.33805,1.279951 3.02363,2.020669 4.33396,5.609891 5.01615,9.027561 1.70794,8.559361 -1.66236,16.340926 -6.35016,23.325033 0.73848,0.769311 1.20133,1.091421 2.24717,1.369748 1.51717,-1.300502 3.46458,-1.990737 5.44951,-2.09215 5.28778,-0.271179 9.51274,3.130854 13.17076,6.504293 0.65092,-9.325545 -0.0291,-17.979619 -1.42112,-27.205539 -9.06063,-3.369867 -15.8906,-9.979147 -20.71555,-18.274477 -1.4524,-2.496908 -2.52684,-5.430742 -4.26873,-7.714997 -0.0756,-0.09918 -0.15458,-0.195232 -0.23098,-0.293964 -0.90914,-1.174963 -2.12878,-1.975994 -3.31849,-2.845824 z"
     id="path74"
     style="stroke-width:0.446755" />
  <path
     fill="#d0cec7"
     d="m 126.09869,61.93383 c -7.88565,-4.401868 -15.93929,-7.445158 -25.00214,-4.899552 -9.732091,2.733241 -16.768919,11.184489 -21.493343,19.693816 -5.345414,9.628445 -6.525291,17.036525 -8.2721,27.474926 q 0.25331,-0.47534 0.52985,-0.93729 0.276541,-0.46195 0.575867,-0.90958 0.299324,-0.4481 0.620095,-0.88055 0.320768,-0.43202 0.662982,-0.84839 0.341767,-0.41592 0.704085,-0.814439 0.362317,-0.398507 0.743845,-0.77824 0.381528,-0.380187 0.781373,-0.741174 0.399845,-0.360533 0.817114,-0.700951 0.417268,-0.340427 0.85062,-0.659858 0.433798,-0.319422 0.882785,-0.616515 0.448542,-0.297538 0.911826,-0.572294 0.463284,-0.2752 0.939076,-0.52672 0.47624,-0.251529 0.964096,-0.479378 0.488303,-0.227395 0.98688,-0.430666 0.498578,-0.203271 1.006985,-0.381529 0.507959,-0.178249 1.024408,-0.331049 c 14.742879,-4.501485 32.298076,5.259645 45.941956,9.768733 14.45518,4.77669 31.65878,6.14912 45.69536,-0.53298 5.18457,-2.46787 9.87237,-5.93066 14.00082,-9.902758 2.09215,-2.012613 4.13516,-4.32011 6.52172,-5.967289 -4.54484,-2.45804 -7.46124,-3.300172 -12.63554,-2.6631 0.25152,-0.362765 0.48384,-0.682195 0.78315,-1.008772 -1.04584,-0.278327 -1.50869,-0.600437 -2.24717,-1.369748 -4.22585,5.32933 -8.76755,9.91258 -15.82984,10.766332 -5.31369,0.641982 -11.52848,-0.562916 -15.78427,-3.955121 q -0.87876,-0.705423 -1.69141,-1.485901 l 1.50243,3.834497 c -3.20144,-3.392657 -4.68869,-10.57557 -7.57025,-14.945272 -0.0741,1.241528 -0.77288,10.366035 -0.97882,10.92984 -0.19077,-3.805453 -0.0676,-7.458115 0.63125,-11.21487 q -4.42867,-4.651158 -9.51229,-8.575892 0.025,4.669921 -0.11075,9.337607 c -0.76573,-3.28409 -1.10571,-6.241155 -0.36544,-9.5726 l -2.39996,-2.013075 c -0.0215,2.234218 0.0211,4.417505 0.24124,6.644574 0.25779,2.608151 0.76887,5.310568 0.57453,7.931674 -1.83661,-4.597101 -1.95633,-10.456282 -1.61233,-15.346899 -0.85331,-0.784053 -1.79416,-1.363493 -2.76899,-1.980015 -0.37617,6.33006 0.37036,12.458187 1.2384,18.711852 -2.32356,-5.789934 -2.55989,-12.920131 -1.85805,-19.051384 z"
     id="path75"
     style="fill:#eab30f;fill-opacity:1;stroke-width:0.446755" />
  <path
     fill="#fefefe"
     d="m 142.78317,177.17585 c -0.0424,0.0528 -0.0947,0.0992 -0.12822,0.1577 -1.36706,2.40131 -2.17524,5.46469 -3.14067,8.06258 -4.18654,11.26266 -10.17573,28.14238 -8.58126,40.07205 2.38477,-3.15363 3.09244,-6.82282 4.05072,-10.57243 0.11085,5.66976 -0.88368,11.61068 -1.37689,17.25678 -0.60267,6.89743 -0.0156,13.12071 0.96632,19.92745 0.35518,2.46252 0.62144,4.9706 1.33178,7.36118 1.25672,-3.62586 1.72358,-7.46394 2.87709,-11.1291 0.76486,13.66308 6.87287,27.90605 15.45905,38.5111 3.72993,4.60694 7.23205,7.57651 9.25629,13.38163 3.14426,9.01773 -4.43761,15.34332 -3.22154,18.55326 0.44049,0.28769 0.56469,0.37438 1.11509,0.18762 2.33876,-0.79342 5.13141,-5.36372 6.30594,-7.41656 -0.28994,2.84984 -1.00474,6.46319 0.008,9.19823 0.26403,0.71256 0.53699,1.15485 1.24689,1.47875 0.63261,-0.092 0.90647,-0.21443 1.33893,-0.70452 2.18149,-2.47324 2.10778,-6.43104 1.92506,-9.46718 1.43542,2.1069 2.53845,4.45683 3.69376,6.72543 2.93965,-3.94036 3.04016,-8.38467 3.38372,-13.10105 -4.6038,-1.87013 -9.28446,-4.51625 -13.39146,-7.3107 -1.41173,-0.96051 -2.58625,-2.17927 -4.03151,-3.10851 l -0.27117,-0.17288 c 1.5556,0.35784 3.33591,1.50198 4.73112,2.30748 3.74424,2.16229 7.67167,4.2455 11.6241,5.99811 5.63445,2.49825 11.42126,4.61498 16.95788,7.33347 q -2.30123,-0.33015 -4.59262,-0.72329 c 0.28323,2.55007 0.7653,4.93753 1.52119,7.39154 0.67817,1.73386 1.45999,2.94234 2.77659,4.25623 0.5486,-1.77808 1.0588,-3.56554 1.85848,-5.25114 0.6411,1.46088 1.28174,2.92042 2.07205,4.30805 1.24465,2.18508 4.32146,6.80272 6.98455,7.22089 0.55532,0.0871 0.74117,-0.004 1.15979,-0.3038 0.83898,-2.95171 -1.74324,-8.63933 -2.17571,-11.85507 l -0.0407,-0.31943 c 1.98581,2.71314 3.70939,5.20202 6.68747,6.91621 1.35678,-3.738 -0.0845,-7.56087 0.49902,-11.34711 l 0.11166,0.36008 0.35918,-0.0224 -0.15009,0.16799 c 0.82693,1.58283 1.47831,3.28139 2.19043,4.92009 0.37258,-1.95409 0.52717,-3.98148 0.76261,-5.95791 -6.46186,-8.6152 -11.55932,-17.97203 -15.67974,-27.9141 q -4.54572,-10.98612 -7.98974,-22.36541 c -0.64467,-2.2074 -2.35574,-10.12612 -3.47084,-11.4284 -0.22786,0.79701 -0.4405,1.50332 -0.85151,2.22573 -0.32747,0.16617 -0.56203,0.26447 -0.94355,0.22961 -1.16022,-0.10582 -2.16453,-1.36481 -2.94678,-2.13994 -0.0295,0.63796 0.0178,1.70393 -0.25555,2.28426 -0.14207,0.302 -0.29351,0.49947 -0.60938,0.61295 -0.53833,0.19388 -1.36661,0.18361 -1.87011,-0.11303 -0.27251,-0.16084 -0.22874,-0.41192 -0.28502,-0.69516 0.20819,-0.56828 0.28235,-0.83364 0.79879,-1.1955 0.33149,0.4865 0.32881,0.66297 0.90066,0.87116 0.32299,-0.3869 0.3793,-0.58971 0.46149,-1.09455 0.12197,-0.74652 4.6e-4,-1.24465 -0.42083,-1.84285 l -0.37484,0.0732 -0.42172,0.74965 c 0.33371,-2.83421 -1.73029,-6.39037 -2.52596,-9.11648 l -3.07188,1.158 c 0.79209,2.84895 3.63524,8.51335 3.19609,11.19923 -0.10457,0.63975 -0.36099,0.97661 -0.87297,1.34473 -1.04898,-0.11571 -1.86832,-1.25269 -2.49824,-2.00011 -0.39717,0.96633 -0.81131,2.27845 -1.63155,2.96511 -0.34713,0.29083 -0.80505,0.45614 -1.25092,0.36231 -1.09232,-0.22963 -1.69989,-1.22545 -2.33473,-2.05731 l -0.088,0.29844 c -0.49768,1.64182 -1.09902,3.15899 -2.68052,4.01363 -0.59328,0.0156 -0.77735,0.0469 -1.24242,-0.39359 -1.15264,-1.09186 -0.7166,-3.39666 -0.61116,-4.77892 -0.71615,1.37064 -1.48367,3.3234 -2.64345,4.37328 -0.41995,0.38018 -0.94488,0.61518 -1.52254,0.51242 -1.06863,-0.18942 -1.63557,-1.2049 -2.21278,-2.01843 2.01174,-3.47976 1.86297,-8.60224 2.44644,-12.53861 l -2.16184,-0.65091 c -0.20775,-0.39672 -0.3726,-0.79925 -0.52763,-1.21831 q -0.3096,-0.84883 -0.59819,-1.70526 -0.28905,-0.85598 -0.55666,-1.71911 -0.26805,-0.86267 -0.51511,-1.73206 -0.24705,-0.86893 -0.47311,-1.74368 -0.22606,-0.8752 -0.43068,-1.7553 -0.2046,-0.88011 -0.38777,-1.76467 -0.18362,-0.88504 -0.34535,-1.77362 -0.16172,-0.88904 -0.302,-1.78166 -0.14074,-0.89261 -0.25912,-1.78835 -0.11884,-0.89575 -0.21578,-1.79417 -0.0969,-0.89843 -0.17201,-1.79863 -0.075,-0.90065 -0.12866,-1.80265 -0.0532,-0.902 -0.0849,-1.8049 -0.0313,-0.90333 -0.0411,-1.80666 -0.009,-0.90379 0.003,-1.80713 0.0121,-0.90333 0.0465,-1.80623 0.034,-0.90288 0.0898,-1.80488 0.0559,-0.902 0.13358,-1.8022 0.0777,-0.90022 0.17736,-1.79819 0.0996,-0.89797 0.22069,-1.79327 0.12108,-0.89573 0.26404,-1.7879 0.14296,-0.89218 0.30736,-1.78078 0.16441,-0.88859 0.35026,-1.77272 0.18584,-0.88412 0.3927,-1.76377 0.20729,-0.87922 0.43557,-1.75351 0.22875,-0.8743 0.47803,-1.7428 0.24973,-0.86848 0.52003,-1.73072 0.27028,-0.86224 0.56157,-1.71732 0.29128,-0.85555 0.60312,-1.70348 0.31184,-0.84793 0.64421,-1.68828 0.33239,-0.84035 0.68488,-1.67221 0.35248,-0.83184 0.72508,-1.65522 c -1.27325,0.0849 -2.55186,0.18138 -3.82733,0.21846 -6.34749,0.18629 -9.86523,-2.73726 -14.25995,-6.87018 z"
     id="path76"
     style="stroke-width:0.446755" />
  <path
     fill="#5f636d"
     d="m 50.091521,191.58009 c -0.921206,1.01055 -2.391027,4.95585 -3.163019,6.46543 q -1.699453,3.31759 -3.594136,6.52798 c -8.166218,13.93426 -16.373091,23.13113 -30.397597,31.52475 -2.56437,1.53505 -5.2743798,2.7739 -7.8677875,4.25265 3.4476016,0.66567 6.8299765,0.87832 10.3186795,0.3708 6.843827,-0.99581 14.973858,-5.5098 19.719281,-10.47415 1.471609,-1.53906 2.624681,-3.35422 3.890782,-5.06082 -0.927014,2.96198 -2.456255,5.85694 -3.811705,8.64246 -5.074681,10.43037 -11.59461,21.44107 -11.487837,33.46457 0.172894,-0.0541 0.346235,-0.1072 0.51734,-0.16664 8.47046,-2.93429 16.655441,-12.0043 21.297663,-19.57364 2.486634,-4.0543 4.496134,-8.43205 6.244283,-12.84866 0.927461,-2.34233 1.898705,-4.69136 2.701968,-7.07971 0.759929,-2.26013 1.351879,-4.77758 2.420068,-6.90503 0.02948,-0.0589 0.06076,-0.11705 0.09114,-0.17558 l -0.158599,-0.0228 0.607587,0.52449 c -0.130453,1.55872 -0.786288,3.26398 -1.229021,4.76194 q -1.761553,6.04816 -4.03419,11.92298 c -0.947566,2.40668 -2.068919,4.75525 -2.935622,7.1923 -1.841074,5.17833 -3.59369,15.17489 -3.712079,20.63021 0.335065,-0.12017 0.662536,-0.24124 0.988666,-0.3851 2.525948,-1.11242 4.676176,-2.93338 6.598559,-4.88346 7.148959,-7.25351 10.481299,-16.59379 13.084088,-26.22225 0.573186,-2.12029 1.237509,-6.74509 1.95723,-8.40925 0.177361,-0.40967 0.04423,-0.27251 0.458369,-0.4338 1.064615,2.5742 -5.697901,27.55491 -6.581581,31.76333 -1.229021,5.85337 -2.398176,11.6701 -2.983871,17.62713 12.556918,-5.71532 19.158159,-18.33702 24.320402,-30.40519 1.816502,-4.17224 2.748432,-8.39496 4.085566,-12.69496 -0.130005,5.89581 -2.043005,11.41233 -4.110138,16.87435 -1.944273,5.13766 -10.700656,22.82108 -10.063137,26.91872 0.608927,0.26315 1.066849,0.15324 1.682476,-0.0756 10.076094,-3.7438 19.421747,-19.57364 23.349605,-29.38615 1.350089,-3.37344 2.103326,-7.0328 3.584756,-10.33699 0.0348,-0.0781 0.0715,-0.15502 0.10722,-0.23232 -0.53611,4.38847 -1.37154,8.63219 -2.732802,12.84507 -2.224383,6.88583 -5.566107,13.40352 -5.670196,20.81116 q 0.806382,-0.25822 1.596249,-0.56381 c 2.979858,-1.16603 5.620619,-3.66964 7.766379,-5.96684 6.08345,-6.51189 10.33922,-14.29838 13.70418,-22.51328 1.00921,-2.46386 1.7745,-5.01526 2.83957,-7.45767 -0.67728,7.22312 -3.90641,13.56658 -6.15583,20.3282 -0.80817,2.4299 -1.2728,5.0099 -1.81516,7.51038 7.36831,-3.97476 12.92818,-12.32639 15.90535,-19.93907 0.75903,-1.94115 1.39208,-4.99114 2.67336,-6.57711 1.41443,1.38047 -2.51521,9.17498 -0.64689,13.57193 0.23143,0.54549 0.38867,0.71928 0.93505,0.91898 0.27343,-0.12063 0.35248,-0.13939 0.61296,-0.34221 0.59104,-0.45972 0.87384,-1.2259 0.9364,-1.93981 0.19208,-2.19133 -0.34892,-4.46397 -0.35652,-6.6687 -0.0138,-4.26472 0.58212,-8.6237 1.19372,-12.83747 -0.45256,0.42708 -0.92032,0.93593 -1.4573,1.25269 -0.41056,0.24124 -0.43246,0.25241 -0.90826,0.13403 -1.65612,-2.24719 -1.09008,-9.96174 -1.02217,-12.86696 -3.07814,3.82912 -6.24473,8.3534 -9.95368,11.56198 -5.90207,-1.43989 -14.90551,-5.91547 -20.693204,-8.51826 -12.436298,-5.59246 -24.776541,-11.3757 -37.358031,-16.64114 -1.887537,-0.79031 -9.095915,-3.44225 -9.983168,-4.29778 -0.500365,-0.48249 -0.748314,-1.05523 -0.716147,-1.74637 0.04824,-1.03736 0.638412,-2.03093 1.400575,-2.70777 0.109005,-0.0965 0.221142,-0.18941 0.33149,-0.28413 l -0.03306,-0.28906 z"
     id="path77"
     style="fill:#191a1d;fill-opacity:1;stroke-width:0.446755" />
  <path
     fill="#5f636d"
     d="m 203.03467,170.44997 c -2.58179,1.12671 -5.06708,2.52147 -7.62163,3.71699 q -4.91921,2.27443 -10.07162,3.95422 c -1.05925,8.95519 -1.66639,17.72631 -1.3617,26.7485 0.12554,3.72728 0.50796,7.44071 0.77512,11.15903 0.31808,4.42644 0.12688,8.51871 1.92506,12.66638 1.10393,2.54561 2.82885,5.11042 4.47066,7.34508 1.95501,2.66043 5.49911,5.50401 5.74615,9.00657 0.0456,0.64556 -0.0388,1.36394 -0.54682,1.8241 -0.45793,0.41502 -1.17898,0.50037 -1.77494,0.49142 -1.49306,-0.0215 -2.57912,-1.4104 -3.54635,-2.38388 0.0559,1.40728 -0.70095,3.60084 -0.54369,4.46486 0.0156,0.0871 0.0384,0.17334 0.0549,0.26046 0.46149,2.43794 1.46268,4.73158 2.18999,7.09803 4.9889,16.23102 13.87573,38.34983 24.11445,51.83957 3.27426,4.3134 7.32632,7.70025 11.40787,11.19611 0.64332,-9.92599 1.77271,-19.82338 1.9072,-29.77706 -2.47012,-3.14783 -4.39473,-7.02522 -6.25323,-10.55948 -11.2028,-21.30749 -17.67852,-44.99664 -22.70136,-68.43961 q -1.29828,-6.02047 -2.41873,-12.07623 c -0.83364,-4.66232 -1.39611,-9.09367 -3.03659,-13.57551 1.267,1.68606 2.11448,3.77508 3.56332,5.30879 1.55247,1.64405 3.59011,2.93428 5.26947,4.46843 4.90356,4.47961 18.32628,17.21925 20.934,22.25863 2.77835,5.36864 3.88139,11.68709 4.9192,17.59676 4.46531,25.43192 3.53159,51.65147 1.48144,77.27237 -1.309,16.35568 -2.89364,32.69838 -7.93033,48.39777 1.87235,-1.10795 3.54857,-2.29363 5.11042,-3.81616 13.94454,-13.59339 20.31882,-41.3967 21.88649,-60.36767 0.56692,-6.85677 0.34176,-13.5831 0.43513,-20.44033 1.27683,4.53545 1.12895,8.16756 1.96751,12.49929 1.31837,6.81166 3.05536,13.52547 4.27544,20.36439 1.58909,8.90963 2.53264,17.98855 3.44581,26.99064 0.46998,4.94781 0.73892,10.04171 1.66818,14.92115 3.35289,-2.55231 5.42761,-6.74108 7.03772,-10.5367 6.89877,-16.26498 7.62564,-36.42744 3.2546,-53.44385 -1.3693,-5.33022 -3.43733,-10.5626 -5.49552,-15.65739 -2.76228,-6.83848 -6.4212,-13.31953 -9.15355,-20.14326 9.93716,13.26011 14.75227,29.53626 21.09395,44.62806 1.46802,3.49273 3.25236,6.81926 5.01647,10.16768 3.59477,6.82371 7.13087,13.08051 12.08192,19.04469 1.17965,-1.40059 1.73465,-3.06787 2.05016,-4.84683 0.58708,-3.31002 0.48231,-6.79783 0.27354,-10.13776 -1.40821,-22.53026 -14.35573,-43.83507 -26.92175,-61.89242 -3.16034,-4.54171 -6.8626,-8.69205 -9.98541,-13.23107 8.77515,6.28896 20.92463,25.49 26.25488,35.01793 2.05035,3.66517 3.56137,8.13047 6.11938,11.41278 2.29896,2.94991 7.37868,6.99751 10.68998,8.67731 0.66651,0.33819 1.06506,0.38241 1.76945,0.16037 0.27044,-0.33058 0.43872,-0.60892 0.52053,-1.02797 1.39069,-7.12618 -7.31981,-24.9749 -11.30611,-31.39386 -2.61056,-4.20351 -5.75164,-8.24932 -8.88768,-12.07352 -2.03899,-2.4862 -4.2282,-4.81871 -6.43831,-7.1521 -1.45061,-1.53148 -3.15542,-3.0978 -4.28839,-4.87901 2.15603,1.06909 8.8917,8.143 11.07231,10.10424 4.50445,4.05116 10.94182,7.4197 16.5191,9.65392 -3.06367,-6.64904 -7.11895,-12.49973 -11.80092,-18.09667 q -2.07714,-2.50853 -4.30175,-4.88705 -2.22457,-2.37896 -4.58853,-4.61899 -2.36387,-2.24048 -4.85854,-4.33396 -2.49468,-2.09393 -5.11132,-4.03329 c -7.06451,-5.29003 -14.85368,-9.80359 -22.50478,-14.17686 -12.45238,-7.11769 -25.00395,-13.83553 -36.63831,-22.27337 -4.05252,-2.93874 -8.77292,-5.9521 -11.21398,-10.44466 z"
     id="path78"
     style="fill:#191a1d;fill-opacity:1;stroke-width:0.446755" />
  <path
     style="fill:#ffffff;fill-opacity:1;stroke:#1a1a1a;stroke-width:2.23377;stroke-dasharray:none;stroke-opacity:1"
     d="M 37.776508,155.63709 C 27.755,143.60417 22.190798,134.32887 15.468532,124.3371 c -10.970967,0.35177 -5.368751,3.82217 -6.2200004,6.50767 2.0278484,8.74457 9.5566774,19.17619 18.2564774,29.96693 z"
     id="path79"
     sodipodi:nodetypes="ccccc" />
</svg>
