<?xml version="1.0" encoding="UTF-8" standalone="no"?>
<!-- Created with Inkscape (http://www.inkscape.org/) -->

<svg
   xmlns:dc="http://purl.org/dc/elements/1.1/"
   xmlns:cc="http://creativecommons.org/ns#"
   xmlns:rdf="http://www.w3.org/1999/02/22-rdf-syntax-ns#"
   xmlns:svg="http://www.w3.org/2000/svg"
   xmlns="http://www.w3.org/2000/svg"
   xmlns:sodipodi="http://sodipodi.sourceforge.net/DTD/sodipodi-0.dtd"
   xmlns:inkscape="http://www.inkscape.org/namespaces/inkscape"
   width="48"
   height="48"
   viewBox="0 0 12.7 12.7"
   version="1.1"
   id="svg8"
   inkscape:version="0.92.3 (2405546, 2018-03-11)"
   sodipodi:docname="check-btn.svg">
  <defs
     id="defs2" />
  <sodipodi:namedview
     id="base"
     pagecolor="#ffffff"
     bordercolor="#666666"
     borderopacity="1.0"
     inkscape:pageopacity="0.0"
     inkscape:pageshadow="2"
     inkscape:zoom="0.98994949"
     inkscape:cx="-333.57718"
     inkscape:cy="-180.8851"
     inkscape:document-units="px"
     inkscape:current-layer="layer1"
     showgrid="false"
     units="px"
     inkscape:window-width="1920"
     inkscape:window-height="1018"
     inkscape:window-x="-8"
     inkscape:window-y="-8"
     inkscape:window-maximized="1" />
  <metadata
     id="metadata5">
    <rdf:RDF>
      <cc:Work
         rdf:about="">
        <dc:format>image/svg+xml</dc:format>
        <dc:type
           rdf:resource="http://purl.org/dc/dcmitype/StillImage" />
        <dc:title></dc:title>
      </cc:Work>
    </rdf:RDF>
  </metadata>
  <g
     inkscape:label="Layer 1"
     inkscape:groupmode="layer"
     id="layer1"
     transform="translate(-69.509827,-194.85194)">
    <g
       id="g848">
      <rect
         ry="1.8329896"
         y="194.85194"
         x="69.509827"
         height="12.7"
         width="12.7"
         id="rect816"
         style="fill:#a3db00;fill-opacity:1;stroke:none;stroke-width:0.24232562;stroke-miterlimit:4;stroke-dasharray:none;stroke-opacity:1" />
      <rect
         ry="1.3747422"
         y="196.70613"
         x="71.315063"
         height="9.5249996"
         width="9.5249996"
         id="rect816-6"
         style="fill:#aeea00;fill-opacity:1;stroke:none;stroke-width:0.18174423;stroke-miterlimit:4;stroke-dasharray:none;stroke-opacity:1" />
      <g
         id="g4"
         transform="matrix(0.01840755,0,0,0.01840755,72.164377,197.45374)">
        <path
           id="path2"
           d="M 434.539,98.499 395.711,59.671 c -5.324,-5.328 -11.799,-7.993 -19.41,-7.993 -7.618,0 -14.093,2.665 -19.417,7.993 L 169.59,247.248 85.651,163.023 c -5.33,-5.33 -11.801,-7.992 -19.412,-7.992 -7.616,0 -14.087,2.662 -19.417,7.992 L 7.994,201.852 C 2.664,207.181 0,213.654 0,221.269 c 0,7.609 2.664,14.088 7.994,19.416 l 103.351,103.349 38.831,38.828 c 5.327,5.332 11.8,7.994 19.414,7.994 7.611,0 14.084,-2.669 19.414,-7.994 l 38.83,-38.828 206.705,-206.704 c 5.325,-5.33 7.994,-11.802 7.994,-19.417 0.004,-7.611 -2.669,-14.084 -7.994,-19.414 z"
           inkscape:connector-curvature="0"
           style="fill:#ffffff" />
      </g>
      <path
         sodipodi:nodetypes="ccc"
         inkscape:connector-curvature="0"
         id="path841"
         d="m 79.198347,197.48156 c 0.560452,0.20044 -4.083158,0.63201 -6.548103,0.40862 -1.325974,-0.872 5.412669,-0.49136 6.548103,-0.40862 z"
         style="fill:#ffffff;fill-opacity:0.79292929;stroke:none;stroke-width:0.18888044px;stroke-linecap:butt;stroke-linejoin:miter;stroke-opacity:1" />
    </g>
  </g>
</svg>
