<?xml version="1.0" encoding="UTF-8" standalone="no"?>
<!-- Created with Inkscape (http://www.inkscape.org/) -->

<svg
   width="135"
   height="130"
   viewBox="0 0 35.718749 34.395834"
   version="1.1"
   id="svg1"
   inkscape:version="1.3.1 (9b9bdc1480, 2023-11-25, custom)"
   sodipodi:docname="play-btn.svg"
   xmlns:inkscape="http://www.inkscape.org/namespaces/inkscape"
   xmlns:sodipodi="http://sodipodi.sourceforge.net/DTD/sodipodi-0.dtd"
   xmlns="http://www.w3.org/2000/svg"
   xmlns:svg="http://www.w3.org/2000/svg">
  <sodipodi:namedview
     id="namedview1"
     pagecolor="#ffffff"
     bordercolor="#999999"
     borderopacity="1"
     inkscape:showpageshadow="2"
     inkscape:pageopacity="0"
     inkscape:pagecheckerboard="false"
     inkscape:deskcolor="#d1d1d1"
     inkscape:document-units="px"
     inkscape:zoom="1.3434063"
     inkscape:cx="155.20249"
     inkscape:cy="204.70352"
     inkscape:window-width="1920"
     inkscape:window-height="954"
     inkscape:window-x="0"
     inkscape:window-y="27"
     inkscape:window-maximized="1"
     inkscape:current-layer="layer1" />
  <defs
     id="defs1" />
  <g
     inkscape:label="Слой 1"
     inkscape:groupmode="layer"
     id="layer1"
     transform="translate(-57.679169,-65.087495)">
    <g
       id="g7"
       transform="matrix(0.26279133,0,0,0.26300717,-46.561536,-74.654004)">
      <g
         id="g6"
         transform="translate(-100,20)">
        <ellipse
           style="fill:#239212;fill-opacity:1;stroke:none;stroke-width:1.1"
           id="path5"
           cx="564.6275"
           cy="576.71155"
           rx="67.960289"
           ry="65.389534" />
        <ellipse
           style="fill:#2aae16;fill-opacity:1;stroke:none;stroke-width:0.944115"
           id="path5-3"
           cx="564.03467"
           cy="577.71667"
           rx="57.574154"
           ry="56.85915" />
        <path
           d="m 598.64624,575.20543 -50.38849,-34.35579 c -0.70315,-0.4764 -1.61015,-0.52908 -2.36139,-0.13284 -0.74896,0.39624 -1.21849,1.17497 -1.21849,2.0247 v 68.71158 c 0,0.84974 0.46953,1.62847 1.22078,2.0247 0.33439,0.17865 0.70315,0.26569 1.06961,0.26569 0.45121,0 0.90241,-0.13513 1.28949,-0.39853 l 50.38849,-34.35579 c 0.62528,-0.42601 1.0009,-1.13374 1.0009,-1.89186 0,-0.75812 -0.37562,-1.46585 -1.0009,-1.89186 z m -49.3876,31.91195 V 547.0772 l 44.03268,30.02009 z"
           id="path1-7"
           style="fill:#ffff00;stroke-width:2.29038" />
      </g>
      <path
         d="m 509.49292,624.8651 c 7.99593,-13.57302 7.44585,-28.85511 6.01901,-29.82397 -1.20738,-0.81983 -1.60551,9.93517 -8.16047,20.38849 -1.19225,1.90137 -3.32683,5.27873 -4.55738,7.36758 -7.99588,13.57294 -17.66444,20.42639 -16.23746,21.39535 1.42685,0.96885 14.94043,-5.75451 22.9363,-19.32745 z"
         fill="#ffe6d5"
         fill-opacity="0.47191"
         id="path4"
         style="stroke-width:0.975102"
         sodipodi:nodetypes="ssssss" />
    </g>
  </g>
</svg>
