<?xml version="1.0" encoding="UTF-8" standalone="no"?>
<svg
   width="1024"
   height="700"
   viewBox="0 0 1024 700"
   fill="none"
   version="1.1"
   id="svg4"
   sodipodi:docname="start-bg2.svg"
   inkscape:version="1.3.1 (9b9bdc1480, 2023-11-25, custom)"
   xmlns:inkscape="http://www.inkscape.org/namespaces/inkscape"
   xmlns:sodipodi="http://sodipodi.sourceforge.net/DTD/sodipodi-0.dtd"
   xmlns="http://www.w3.org/2000/svg"
   xmlns:svg="http://www.w3.org/2000/svg">
  <sodipodi:namedview
     id="namedview4"
     pagecolor="#ffffff"
     bordercolor="#999999"
     borderopacity="1"
     inkscape:showpageshadow="2"
     inkscape:pageopacity="0"
     inkscape:pagecheckerboard="0"
     inkscape:deskcolor="#d1d1d1"
     inkscape:zoom="0.62833335"
     inkscape:cx="691.51191"
     inkscape:cy="440.84879"
     inkscape:window-width="1920"
     inkscape:window-height="954"
     inkscape:window-x="0"
     inkscape:window-y="27"
     inkscape:window-maximized="1"
     inkscape:current-layer="svg4"
     showgrid="false" />
  <rect
     width="1024"
     height="700"
     fill="#2a7df9"
     id="rect2"
     x="0"
     y="0"
     style="fill:#389245;fill-opacity:1;stroke-width:1.22202" />
  <path
     fill="url(#gradient_0)"
     d="m 1047.9642,46.248612 h 314.7745 18.1297 20.8319 36.112 123.9393 17.2754 8.6182 9.5488 19.5239 14.4125 88.4409 9.7779 88.75 7.43 244.5575 c 0.9057,1.386955 0.8347,2.518981 0.8524,4.071906 0.7371,51.573662 0.027,103.246832 0.027,154.831932 v 310.03207 l -0.01,101.78554 c 0,4.67318 0.7992,30.23611 -0.3019,33.20695 -0.1332,0.35615 -0.3463,0.65078 -0.5506,0.98078 0.4263,0.65926 0.7016,1.13696 0.7726,1.9062 0.5239,5.69476 0.5772,61.61303 -0.222,63.69539 -0.1687,0.4177 -0.3019,0.58078 -0.5683,0.98617 1.3853,2.15775 1.3853,13.91496 0.6837,16.44425 -0.142,0.52617 -0.364,0.84848 -0.6837,1.30618 H 1047.9642 v -5.39397 -63.19307 z"
     id="path2"
     style="fill:url(#gradient_0);stroke-width:0.826502" />
  <defs
     id="defs4">
    <linearGradient
       id="paint0_linear"
       x1="795.5"
       y1="-1.5764601e-05"
       x2="-6.7552147"
       y2="664.25677"
       gradientUnits="userSpaceOnUse"
       gradientTransform="matrix(1.282631,0,0,1.2805499,735.94484,115.61153)">
      <stop
         offset="0.0597881"
         stop-color="#9EC0F4"
         id="stop3" />
      <stop
         offset="0.831596"
         stop-color="white"
         stop-opacity="0"
         id="stop4" />
    </linearGradient>
    <linearGradient
       id="gradient_3"
       gradientUnits="userSpaceOnUse"
       x1="834.04053"
       y1="619.34546"
       x2="833.3985"
       y2="608.63782"
       gradientTransform="translate(-244.8443,-304.808)">
      <stop
         offset="0"
         stop-color="#F79D6E"
         id="stop360" />
      <stop
         offset="1"
         stop-color="#FB9283"
         id="stop361" />
    </linearGradient>
    <linearGradient
       id="gradient_4"
       gradientUnits="userSpaceOnUse"
       x1="518.46313"
       y1="893.25836"
       x2="512.35229"
       y2="889.29797"
       gradientTransform="translate(-244.8443,-304.808)">
      <stop
         offset="0"
         stop-color="#FF6F72"
         id="stop443" />
      <stop
         offset="1"
         stop-color="#F7A0A0"
         id="stop444" />
    </linearGradient>
    <linearGradient
       id="gradient_0"
       gradientUnits="userSpaceOnUse"
       x1="15.275807"
       y1="-25.59557"
       x2="1047.215"
       y2="839.15045"
       gradientTransform="matrix(0.88801449,0,0,0.76924929,1047.9642,46.248612)">
      <stop
         offset="0"
         stop-color="#539AA5"
         id="stop1"
         style="stop-color:#115b23;stop-opacity:1;" />
      <stop
         offset="1"
         stop-color="#97B6A9"
         id="stop2"
         style="stop-color:#2b8562;stop-opacity:1;" />
    </linearGradient>
  </defs>
  <path
     id="rect1"
     style="fill:#354931;fill-opacity:1;stroke-width:6.53446"
     d="M 0,0 V 700 H 1024 V 0 Z M 10.039216,10 H 1013.9608 V 690 H 10.039216 Z" />
  <path
     fill="#fcd579"
     d="m 585.79931,109.10126 c 6.40551,0.49006 18.65422,5.50235 25.51981,7.52974 11.15319,3.29224 22.5251,6.00403 33.81547,8.79072 -0.17407,2.76732 -0.15789,5.56369 -0.21613,8.33617 -17.26622,12.92491 -29.95365,29.51138 -40.52317,48.1091 -2.77277,4.87864 -5.08222,10.00069 -7.86081,14.87804 -2.30104,-1.0873 -4.72891,-1.92666 -7.04484,-3.0146 -2.81288,-1.36881 -5.552,-2.84351 -8.29306,-4.34791 3.69357,-10.2596 10.59864,-19.23821 16.48777,-28.35822 -4.50049,-1.29198 -9.40411,-1.8847 -13.60047,-4.03218 1.1007,-3.66414 2.57799,-7.11651 4.20671,-10.57275 3.56545,0.52041 7.12055,1.66065 10.63876,2.4503 2.47511,0.55527 5.00198,0.81934 7.45573,1.46501 4.8661,-4.74176 9.27341,-9.93484 14.17444,-14.65852 -13.36817,-3.1799 -26.10154,-6.6936 -38.6835,-12.2857 0.94539,-4.75984 2.54564,-9.63073 3.92329,-14.2892 z"
     id="path12"
     style="fill:#ffd42a;stroke-width:0.646375" />
  <path
     fill="#fcd579"
     d="m 208.47817,527.55786 c 5.22847,1.5935 10.70994,2.56135 16.06588,3.63574 0.0958,10.56048 -0.84704,21.27141 -1.48248,31.8164 -0.75191,12.46778 -1.33947,24.97753 -2.39616,37.42271 -0.6995,8.24513 -1.77496,16.47154 -2.64141,24.70247 -5.91243,-0.80579 -11.9064,-1.31651 -17.83695,-2.04611 0.18636,-9.98585 1.42294,-20.14796 2.66988,-30.05955 0.0725,-3.47238 0.64515,-7.04355 0.97257,-10.50754 0.62379,-6.60321 1.15699,-13.27615 1.33882,-19.90584 -5.62512,7.65113 -11.7621,14.55586 -18.18961,21.53097 -4.96445,-3.21024 -8.57584,-7.51166 -12.42795,-11.91961 3.75828,-4.06768 8.14294,-7.59688 12.00217,-11.5858 9.27016,-9.5823 16.16293,-21.16488 21.92524,-33.08384 z"
     id="path13"
     style="fill:#aa0000;stroke-width:0.646375" />
  <path
     fill="#fcd579"
     d="m 758.30201,565.96185 q 0.65745,0.01 1.31424,0.0433 c 8.40242,0.40871 17.57423,1.78914 23.47243,8.41559 4.57426,5.13949 6.9426,11.13319 6.48316,18.02114 -0.45231,6.784 -3.27231,10.28479 -8.26653,14.66304 3.06266,3.11597 5.2757,7.55492 6.50905,11.71235 q 0.21806,0.73993 0.3986,1.48955 0.18119,0.75026 0.32484,1.50827 0.14365,0.75736 0.24977,1.52183 0.10613,0.76382 0.17407,1.53216 0.0679,0.76834 0.0984,1.53862 0.0298,0.77092 0.0213,1.54249 -0.008,0.77093 -0.0543,1.54056 -0.046,0.77027 -0.13072,1.53668 -0.0841,0.76705 -0.20642,1.52829 -0.12165,0.76188 -0.28148,1.51666 -0.15983,0.75414 -0.35654,1.50053 -0.19672,0.74574 -0.43032,1.48115 -0.23359,0.73477 -0.50278,1.45791 -0.26984,0.72314 -0.57462,1.43144 -0.30477,0.70894 -0.64449,1.40174 -0.33973,0.69279 -0.71309,1.36816 c -3.57128,6.4773 -9.83831,10.96467 -16.92133,12.94686 -10.54298,2.95004 -21.5027,0.51847 -30.84145,-4.77598 l -3.12996,-2.00414 c 1.15246,-5.56692 3.32861,-11.46829 5.53453,-16.70592 2.48676,1.59995 4.97157,3.14309 7.6861,4.33563 4.35489,1.91311 9.38923,3.03398 13.9609,1.14864 q 0.26336,-0.10589 0.5209,-0.22534 0.2569,-0.11944 0.50797,-0.2518 0.25107,-0.13237 0.49437,-0.27764 0.24395,-0.14527 0.47949,-0.30282 0.23554,-0.15818 0.46332,-0.32735 0.22713,-0.16981 0.44519,-0.35124 0.21807,-0.18143 0.42643,-0.37319 0.20837,-0.19241 0.40637,-0.39515 0.19801,-0.20274 0.38567,-0.41581 0.18701,-0.21242 0.36301,-0.43453 0.17601,-0.22211 0.34037,-0.45326 0.16436,-0.23114 0.31643,-0.47004 0.15206,-0.23954 0.29119,-0.48619 0.13977,-0.24664 0.26595,-0.50039 0.12618,-0.2531 0.23942,-0.5133 0.11324,-0.25956 0.21225,-0.52492 c 1.17122,-3.09661 0.84509,-6.27005 -0.52285,-9.24334 -4.12324,-8.96375 -10.52875,-8.24448 -18.23879,-11.23585 -0.10548,-0.0413 -0.21031,-0.0846 -0.31578,-0.12719 0.0272,-4.87412 1.18546,-9.65204 2.58835,-14.28791 4.3536,0.91814 11.10207,3.1347 15.037,0.39386 1.47536,-1.02726 2.23698,-2.59751 2.51717,-4.33435 0.32807,-2.03255 0.17018,-4.20134 -1.11817,-5.88975 -2.74753,-3.60087 -10.16638,-3.76551 -14.35432,-4.38341 1.88819,-5.37258 3.05489,-10.9395 5.07574,-16.2856 z"
     id="path14"
     style="fill:#00ffff;fill-opacity:1;stroke-width:0.646375" />
  <path
     id="path15"
     style="fill:#0000ff;stroke-width:0.646375"
     d="m 862.51937,69.698455 c -5.8529,7.70574 -10.83408,16.05167 -16.72063,23.76347 -4.74314,6.11746 -9.51822,12.209505 -14.32564,18.276585 -2.34634,2.97457 -4.95359,5.90422 -7.00421,9.08218 -0.26401,3.20314 -0.36626,6.38516 -0.43097,9.59669 9.87065,3.1644 19.25478,5.04366 29.65604,5.09596 -0.14689,7.68727 -0.9473,16.87407 -2.02341,24.5239 -0.0634,0.89359 -0.26369,1.78301 0.25657,2.56878 4.88226,1.39141 10.40645,1.7611 15.4492,2.43259 1.44623,-9.04575 2.29791,-20.03116 2.79941,-29.21379 3.4097,-0.25826 6.81334,-0.57466 10.21184,-0.94958 0.52737,-5.92332 0.92005,-11.82778 1.27142,-17.76207 l -9.62416,0.40101 c 1.31294,-14.80442 3.89575,-29.752005 4.30212,-44.600015 z m -2.98772,27.68033 -1.90082,22.465845 -16.05205,-4.06441 z" />
  <path
     fill="#fcd579"
     d="m 496.95512,463.55588 c 2.5094,-0.3526 5.37147,-0.21643 7.79222,0.50258 4.84409,1.43854 8.30148,4.86231 10.67888,9.18593 10.49057,19.07894 1.2877,52.26091 -4.52961,72.07506 9.03721,-11.74593 18.4685,-23.016 26.80751,-35.29783 4.00418,4.99745 8.63926,9.64042 12.28366,14.89742 -2.19687,3.7442 -5.70796,7.23144 -8.52667,10.54628 q -10.59411,12.68343 -22.01584,24.63016 c -3.99705,4.22652 -7.92228,8.50856 -12.36065,12.28505 -3.58875,-3.08756 -6.73035,-6.67165 -9.98973,-10.09238 -2.30298,-2.41736 -4.86998,-4.78049 -6.87012,-7.45419 2.11338,-7.14815 4.88227,-14.09873 6.89471,-21.29337 2.35669,-8.42592 9.1304,-38.79925 4.76062,-45.90479 -0.65356,-1.06212 -1.72837,-1.97509 -2.99019,-2.17589 -1.31618,-0.2099 -2.55276,0.34672 -3.54021,1.18157 -5.1877,4.38471 -5.25888,18.06698 -5.69502,24.33573 -5.28087,-0.25246 -10.56175,-0.8723 -15.8491,-1.17188 0.17536,-12.29667 1.88044,-28.11184 9.26111,-38.25425 3.52468,-4.84391 8.09894,-7.11807 13.88843,-7.9952 z"
     id="path17"
     style="fill:#2eef2e;fill-opacity:1;stroke-width:0.646375" />
  <path
     fill="#fcd579"
     d="m 370.56378,60.942163 0.79592,0.02 c 1.63584,1.82207 4.6092,14.62624 5.41547,17.79839 -3.66316,1.80398 -7.5748,3.18506 -11.36932,4.69527 -7.20207,2.8661 -14.4378,5.69992 -21.51719,8.85722 1.89267,5.9569 3.77084,11.815657 5.94893,17.681517 3.30532,-4.5797 7.18655,-8.39751 12.6169,-10.289307 q 0.48337,-0.16787 0.97516,-0.31185 0.49179,-0.14334 0.9894,-0.26214 0.49825,-0.11881 1.00169,-0.21243 0.50343,-0.0943 1.01075,-0.1627 0.50796,-0.0684 1.01786,-0.1117 0.51055,-0.0426 1.0224,-0.06 0.51185,-0.0174 1.02369,-0.009 0.51185,0.008 1.02305,0.0413 0.5112,0.0342 1.01981,0.0936 0.50861,0.0588 1.01333,0.14399 0.50538,0.0846 1.00558,0.19434 0.50019,0.10976 0.99392,0.24406 0.49438,0.13495 0.98099,0.29443 0.48661,0.15883 0.9648,0.3422 0.47755,0.183367 0.94604,0.390627 0.46785,0.20661 0.92534,0.43711 c 6.13956,3.07724 10.06867,8.91856 12.14582,15.31451 3.07496,9.47061 1.84161,21.03962 -2.7333,29.83551 -3.70133,7.11716 -9.67783,12.15657 -17.34516,14.53713 -3.53439,1.09699 -15.62068,3.75325 -18.84641,1.79301 -0.50537,-0.30733 -0.47302,-0.69861 -0.63414,-1.2287 q -1.33818,-6.92281 -2.40069,-13.89276 c 7.07848,-2.48129 18.29573,-5.41067 22.25202,-12.22372 1.64684,-2.83511 2.18133,-6.51991 1.21717,-9.67269 -0.51249,-1.67679 -1.40612,-3.04431 -3.01219,-3.843 -5.49247,-2.7318 -12.36648,6.04407 -16.13964,9.10645 -3.72204,3.02236 -8.20331,6.30169 -12.75162,7.91585 -0.12127,0.0426 -0.24389,0.082 -0.3658,0.12332 -2.41092,-7.15461 -4.16181,-14.6398 -6.22045,-21.90804 -1.95317,-6.89569 -9.20669,-28.667497 -8.79333,-34.393247 2.50701,-3.32517 39.41963,-18.84888 45.8232,-21.27851 z"
     id="path18"
     style="fill:#ff00ff;fill-opacity:1;stroke-width:0.646375" />
  <path
     id="path20"
     style="fill:#cc9105;fill-opacity:1;stroke-width:0.646375"
     d="m 87.288419,297.17797 c -0.85434,0.004 -1.72811,0.0352 -2.62627,0.0921 -10.13854,2.05709 -17.16232,8.30712 -22.79844,16.76078 -11.28971,16.93383 -15.02578,42.11767 -10.90189,61.75553 2.32951,11.09186 7.8379,23.84639 17.72537,30.263 4.00288,2.5975 9.39615,5.15272 14.32565,4.64071 7.5418,-0.75349 14.99566,-3.9158 19.895401,-9.82621 13.67487,-16.49606 17.15161,-44.31606 15.10164,-65.14904 -1.18093,-11.99966 -4.95933,-25.31393 -14.7465,-33.171 -5.013141,-4.02418 -9.994631,-5.39143 -15.974961,-5.36583 z m -0.27046,21.49104 c 3.205,-0.0158 5.87461,0.82443 8.56126,3.29893 5.245181,4.8314 7.269911,13.01901 7.902801,20.3977 1.09863,12.81039 -0.76495,29.91663 -8.093641,40.0602 -2.62588,3.63436 -6.61994,5.57842 -10.66177,6.04175 -2.64184,0.31484 -5.5326,-1.25529 -7.67784,-2.85252 -5.29893,-3.94563 -8.25059,-11.78903 -9.49903,-18.60951 -2.21008,-12.07549 -0.20769,-27.56038 5.84274,-37.97314 3.02052,-5.19823 6.78407,-9.04176 12.21756,-10.30667 0.48134,-0.0349 0.95006,-0.0545 1.40792,-0.0567 z" />
</svg>
