<svg width="800" height="600" viewBox="0 0 800 600" fill="none" xmlns="http://www.w3.org/2000/svg">
<rect width="800" height="600" fill="white"/>
<rect width="800" height="600" fill="#2A7DF9"/>
<rect width="800" height="600" fill="url(#paint0_linear)"/>
<path d="M114.557 141.808C113.917 142.277 113.192 142.448 112.381 142.32C111.57 142.192 110.93 141.808 110.461 141.168C109.949 140.443 109.778 139.653 109.949 138.8V138.672C110.461 132.613 110.696 126.171 110.653 119.344C110.61 112.517 110.162 105.947 109.309 99.632C109.181 98.8213 109.352 98.096 109.821 97.456C110.29 96.816 110.93 96.432 111.741 96.304C112.552 96.176 113.277 96.3467 113.917 96.816C114.557 97.2853 114.941 97.9253 115.069 98.736C116.477 108.379 116.84 119.557 116.157 132.272C118.12 130.437 119.997 128.475 121.789 126.384C123.581 124.293 125.373 121.947 127.165 119.344L131.645 112.624L136.445 104.88L140.925 97.52C141.352 96.8373 141.949 96.4107 142.717 96.24C143.528 96.0267 144.274 96.1333 144.957 96.56C145.554 96.944 145.96 97.456 146.173 98.096C146.386 98.6933 146.408 99.312 146.237 99.952V100.144C146.194 102.832 146.045 106.16 145.789 110.128L145.149 120.112C144.936 122.843 144.872 125.936 144.957 129.392C145.085 132.848 145.448 135.941 146.045 138.672C146.216 139.483 146.066 140.229 145.597 140.912C145.17 141.552 144.552 141.957 143.741 142.128C142.93 142.299 142.184 142.171 141.501 141.744C140.861 141.275 140.456 140.635 140.285 139.824C139.688 137.008 139.325 133.68 139.197 129.84C139.069 125.957 139.048 122.949 139.133 120.816C139.261 118.64 139.496 115.205 139.837 110.512L134.397 119.024C132.861 121.371 131.026 123.973 128.893 126.832C126.76 129.691 124.498 132.315 122.109 134.704C119.762 137.051 117.245 139.419 114.557 141.808ZM156.556 139.44C156.215 136.709 156.001 133.765 155.916 130.608C155.831 127.408 155.831 123.696 155.916 119.472C156.001 115.248 156.044 112.581 156.044 111.472C156.044 111.045 156.129 110.64 156.3 110.256C156.471 109.573 156.833 109.019 157.388 108.592C157.985 108.123 158.647 107.888 159.372 107.888H172.3C173.196 107.888 173.943 108.208 174.54 108.848C175.18 109.445 175.5 110.192 175.5 111.088C175.5 111.984 175.18 112.752 174.54 113.392C173.943 113.989 173.196 114.288 172.3 114.288H162.444C162.444 114.971 162.401 116.869 162.316 119.984C162.273 123.099 162.252 125.275 162.252 126.512C162.252 127.707 162.295 129.584 162.38 132.144C162.508 134.661 162.7 136.795 162.956 138.544C163.041 139.44 162.807 140.251 162.252 140.976C161.74 141.659 161.036 142.043 160.14 142.128C159.287 142.256 158.497 142.064 157.772 141.552C157.089 140.997 156.684 140.293 156.556 139.44ZM182.004 151.792C181.833 148.891 181.705 145.968 181.62 143.024C181.535 140.08 181.471 136.539 181.428 132.4C181.385 128.219 181.343 125.339 181.3 123.76C180.66 123.291 180.255 122.651 180.084 121.84C179.913 120.987 180.041 120.219 180.468 119.536L181.172 118.448C181.087 116.443 181.001 114.544 180.916 112.752C180.873 111.856 181.151 111.088 181.748 110.448C182.345 109.765 183.071 109.403 183.924 109.36C184.692 109.317 185.375 109.531 185.972 110C186.612 110.469 187.039 111.067 187.252 111.792C187.679 111.451 188.127 111.131 188.596 110.832C191.241 109.04 193.844 108.101 196.404 108.016C199.007 107.888 201.311 108.528 203.316 109.936C205.151 111.173 206.665 112.837 207.86 114.928C209.055 116.976 209.887 119.237 210.356 121.712C211.423 127.045 210.868 131.675 208.692 135.6C207.412 137.904 205.663 139.675 203.444 140.912C201.268 142.149 198.687 142.661 195.7 142.448C193.993 142.32 192.649 142.128 191.668 141.872C190.729 141.573 189.535 140.997 188.084 140.144L187.956 140.08C188.041 144.261 188.191 148.037 188.404 151.408C188.447 152.304 188.169 153.072 187.572 153.712C187.017 154.395 186.292 154.757 185.396 154.8C184.5 154.843 183.711 154.565 183.028 153.968C182.388 153.413 182.047 152.688 182.004 151.792ZM196.084 136.048C199.327 136.261 201.652 135.088 203.06 132.528C204.468 129.925 204.809 126.747 204.084 122.992C203.743 121.243 203.167 119.685 202.356 118.32C201.588 116.955 200.713 115.931 199.732 115.248C197.641 113.84 195.124 114.117 192.18 116.08C190.431 117.275 188.916 118.725 187.636 120.432L187.828 131.44C188.681 132.592 189.129 133.189 189.172 133.232C189.385 133.488 190.089 133.957 191.284 134.64C192.308 135.195 193.055 135.557 193.524 135.728C194.036 135.856 194.889 135.963 196.084 136.048ZM221.329 141.808C220.433 141.851 219.644 141.595 218.961 141.04C218.321 140.443 217.98 139.696 217.937 138.8C217.852 137.093 217.66 134.299 217.361 130.416C217.062 126.491 216.828 122.971 216.657 119.856C216.529 116.699 216.465 113.776 216.465 111.088C216.465 110.192 216.764 109.445 217.361 108.848C218.001 108.208 218.769 107.888 219.665 107.888C220.561 107.888 221.308 108.208 221.905 108.848C222.545 109.445 222.865 110.192 222.865 111.088C222.865 113.776 222.95 116.997 223.121 120.752C228.668 119.472 233.212 119.301 236.753 120.24C238.716 120.709 240.401 121.669 241.809 123.12C243.26 124.528 244.284 126.128 244.881 127.92C245.521 129.712 245.542 131.653 244.945 133.744C244.39 135.792 243.196 137.499 241.361 138.864C237.094 142.021 230.716 142.939 222.225 141.616C221.926 141.701 221.628 141.765 221.329 141.808ZM224.145 135.408C230.374 136.261 234.833 135.707 237.521 133.744C238.844 132.763 239.249 131.461 238.737 129.84C238.481 129.029 238.033 128.304 237.393 127.664C236.753 127.024 236.028 126.597 235.217 126.384C232.486 125.701 228.604 126 223.569 127.28C223.612 127.792 223.697 129.029 223.825 130.992C223.953 132.912 224.06 134.384 224.145 135.408ZM247.953 139.184C247.953 133.04 248.06 123.717 248.273 111.216C248.273 110.32 248.593 109.573 249.233 108.976C249.873 108.379 250.641 108.08 251.537 108.08C252.433 108.08 253.18 108.4 253.777 109.04C254.374 109.68 254.673 110.448 254.673 111.344C254.46 123.803 254.353 133.083 254.353 139.184C254.353 140.08 254.033 140.848 253.393 141.488C252.796 142.085 252.049 142.384 251.153 142.384C250.257 142.384 249.489 142.085 248.849 141.488C248.252 140.848 247.953 140.08 247.953 139.184ZM289.763 141.872C287.587 141.445 285.667 140.635 284.003 139.44C282.339 138.203 281.038 136.773 280.099 135.152C279.203 133.531 278.542 131.824 278.115 130.032C277.731 128.24 277.603 126.405 277.731 124.528C277.859 122.096 278.35 119.771 279.203 117.552C280.099 115.291 281.464 113.285 283.299 111.536C285.176 109.787 287.352 108.741 289.827 108.4C290.211 108.315 290.638 108.272 291.107 108.272C291.832 107.845 292.6 107.696 293.411 107.824L293.795 107.888C294.008 107.888 294.264 107.909 294.563 107.952C294.862 107.952 295.182 107.995 295.523 108.08C295.907 108.123 296.291 108.187 296.675 108.272C297.059 108.357 297.4 108.464 297.699 108.592C300.216 109.616 302.264 111.28 303.843 113.584C305.464 115.888 306.531 118.341 307.043 120.944C307.555 123.547 307.64 126.128 307.299 128.688C306.659 133.04 304.931 136.475 302.115 138.992C298.787 141.936 294.67 142.896 289.763 141.872ZM291.043 135.6C293.902 136.197 296.184 135.728 297.891 134.192C299.512 132.741 300.536 130.608 300.963 127.792C301.347 124.933 301.027 122.245 300.003 119.728C298.979 117.211 297.507 115.504 295.587 114.608C294.947 115.035 294.264 115.205 293.539 115.12C293.454 115.12 292.792 114.992 291.555 114.736C291.171 114.693 290.894 114.672 290.723 114.672C289.016 114.928 287.523 116.016 286.243 117.936C284.963 119.813 284.259 122.117 284.131 124.848C283.96 127.621 284.494 129.989 285.731 131.952C286.926 133.915 288.696 135.131 291.043 135.6ZM325.855 138.928C325.855 139.824 325.535 140.571 324.895 141.168C324.255 141.765 323.487 142.064 322.591 142.064C321.695 142.064 320.948 141.744 320.351 141.104C319.753 140.464 319.455 139.696 319.455 138.8C319.668 127.707 319.668 119.664 319.455 114.672C318.772 114.672 317.556 114.651 315.807 114.608C314.1 114.565 312.777 114.544 311.839 114.544C310.943 114.544 310.196 114.224 309.599 113.584C309.001 112.944 308.703 112.176 308.703 111.28C308.703 110.384 309.023 109.637 309.663 109.04C310.303 108.443 311.071 108.144 311.967 108.144C323.316 108.357 330.612 108.4 333.855 108.272C334.751 108.229 335.519 108.507 336.159 109.104C336.799 109.701 337.14 110.448 337.183 111.344C337.225 112.24 336.948 113.008 336.351 113.648C335.753 114.288 335.007 114.629 334.111 114.672C331.636 114.757 328.884 114.8 325.855 114.8C326.068 119.877 326.068 127.92 325.855 138.928ZM368.631 95.024C368.332 94.3413 368.353 93.616 368.695 92.848C369.036 92.08 369.569 91.568 370.295 91.312C371.02 91.0133 371.745 91.0347 372.471 91.376C373.239 91.6747 373.772 92.1867 374.071 92.912C374.881 95.0027 376.332 98.608 378.423 103.728C378.764 104.496 378.785 105.264 378.487 106.032C378.231 106.8 377.74 107.355 377.015 107.696C376.289 107.995 375.543 107.995 374.775 107.696C374.007 107.355 373.473 106.843 373.175 106.16L368.631 95.024ZM358.711 95.216C358.412 94.576 358.433 93.872 358.775 93.104C359.116 92.336 359.649 91.824 360.375 91.568C361.1 91.2693 361.825 91.2907 362.551 91.632C363.319 91.9307 363.852 92.4427 364.151 93.168C364.961 95.2587 366.412 98.864 368.503 103.984C368.844 104.752 368.865 105.52 368.567 106.288C368.311 107.056 367.82 107.589 367.095 107.888C366.369 108.187 365.623 108.187 364.855 107.888C364.087 107.589 363.553 107.077 363.255 106.352L358.711 95.216ZM388.717 139.44C388.034 135.6 387.586 131.099 387.373 125.936C387.202 120.773 387.181 116.229 387.309 112.304C387.394 108.848 387.309 104.581 387.053 99.504C387.01 98.608 387.288 97.8187 387.885 97.136C388.482 96.4533 389.229 96.0907 390.125 96.048C390.637 96.0053 391.128 96.0907 391.597 96.304C401.112 96.304 408.28 96.24 413.101 96.112C413.997 96.0693 414.765 96.368 415.405 97.008C416.088 97.6053 416.429 98.3733 416.429 99.312C416.472 100.208 416.173 100.997 415.533 101.68C414.936 102.32 414.168 102.64 413.229 102.64C408.493 102.768 402.008 102.832 393.773 102.832C393.901 107.355 393.922 111.387 393.837 114.928C393.752 118.427 393.794 122.352 393.965 126.704C394.136 131.013 394.52 134.875 395.117 138.288C395.288 139.184 395.117 140.016 394.605 140.784C394.093 141.509 393.389 141.936 392.493 142.064C391.597 142.235 390.765 142.064 389.997 141.552C389.272 141.04 388.845 140.336 388.717 139.44ZM422.686 139.12C422.472 136.389 422.302 133.851 422.174 131.504C422.046 129.029 421.96 126.917 421.918 125.168C421.918 123.376 421.896 120.965 421.854 117.936C421.854 114.907 421.832 112.688 421.79 111.28C421.79 110.384 422.088 109.616 422.686 108.976C423.283 108.336 424.03 108.016 424.926 108.016C425.822 108.016 426.59 108.315 427.23 108.912C427.87 109.509 428.19 110.256 428.19 111.152L428.318 121.328C432.627 121.157 437.406 121.072 442.654 121.072C442.611 118.683 442.483 115.44 442.27 111.344C442.227 110.448 442.504 109.68 443.102 109.04C443.699 108.357 444.424 107.995 445.278 107.952C446.174 107.909 446.942 108.187 447.582 108.784C448.264 109.381 448.627 110.107 448.67 110.96C449.096 119.323 449.31 128.603 449.31 138.8C449.31 139.696 448.99 140.464 448.35 141.104C447.752 141.701 447.006 142 446.11 142C445.214 142 444.446 141.701 443.806 141.104C443.208 140.464 442.91 139.696 442.91 138.8C442.91 134.576 442.888 130.8 442.846 127.472C437.512 127.472 432.712 127.557 428.446 127.728C428.531 131.397 428.744 134.981 429.086 138.48C429.171 139.333 428.936 140.123 428.382 140.848C427.827 141.531 427.102 141.915 426.206 142C425.352 142.085 424.563 141.851 423.838 141.296C423.155 140.741 422.771 140.016 422.686 139.12ZM467.576 141.872C465.4 141.445 463.48 140.635 461.816 139.44C460.152 138.203 458.85 136.773 457.911 135.152C457.016 133.531 456.354 131.824 455.928 130.032C455.544 128.24 455.416 126.405 455.544 124.528C455.672 122.096 456.162 119.771 457.016 117.552C457.912 115.291 459.277 113.285 461.112 111.536C462.989 109.787 465.165 108.741 467.64 108.4C468.024 108.315 468.45 108.272 468.92 108.272C469.645 107.845 470.413 107.696 471.224 107.824L471.608 107.888C471.821 107.888 472.077 107.909 472.376 107.952C472.674 107.952 472.994 107.995 473.336 108.08C473.72 108.123 474.104 108.187 474.488 108.272C474.872 108.357 475.213 108.464 475.512 108.592C478.029 109.616 480.077 111.28 481.656 113.584C483.277 115.888 484.344 118.341 484.856 120.944C485.368 123.547 485.453 126.128 485.112 128.688C484.472 133.04 482.744 136.475 479.928 138.992C476.6 141.936 472.482 142.896 467.576 141.872ZM468.856 135.6C471.714 136.197 473.997 135.728 475.704 134.192C477.325 132.741 478.349 130.608 478.776 127.792C479.16 124.933 478.84 122.245 477.816 119.728C476.792 117.211 475.32 115.504 473.4 114.608C472.76 115.035 472.077 115.205 471.352 115.12C471.266 115.12 470.605 114.992 469.368 114.736C468.984 114.693 468.706 114.672 468.536 114.672C466.829 114.928 465.336 116.016 464.056 117.936C462.775 119.813 462.072 122.117 461.944 124.848C461.773 127.621 462.306 129.989 463.544 131.952C464.738 133.915 466.509 135.131 468.856 135.6ZM509.013 141.552C508.245 141.936 507.434 142 506.581 141.744C505.77 141.445 505.152 140.891 504.725 140.08C503.146 136.923 500.885 131.739 497.941 124.528C497.941 125.68 497.92 127.941 497.877 131.312C497.834 134.64 497.813 137.157 497.813 138.864C497.813 139.76 497.493 140.528 496.853 141.168C496.256 141.765 495.509 142.064 494.613 142.064C493.717 142.064 492.949 141.765 492.309 141.168C491.712 140.528 491.413 139.76 491.413 138.864C491.413 137.115 491.434 134.256 491.477 130.288C491.562 126.277 491.584 122.843 491.541 119.984C491.541 117.125 491.456 114.309 491.285 111.536C491.242 110.64 491.498 109.872 492.053 109.232C492.65 108.549 493.397 108.187 494.293 108.144H494.421C495.189 107.845 495.957 107.867 496.725 108.208C497.493 108.507 498.048 109.019 498.389 109.744L503.381 121.072L507.797 130.992L508.373 129.712C513.749 119.557 516.586 114.096 516.885 113.328C517.226 112.517 517.525 111.707 517.781 110.896L517.845 110.832C517.93 110.107 518.25 109.488 518.805 108.976C519.402 108.464 520.085 108.187 520.853 108.144C521.749 108.101 522.517 108.379 523.157 108.976C523.797 109.573 524.138 110.32 524.181 111.216C524.224 112.837 524.33 115.141 524.501 118.128C524.672 120.816 524.778 122.992 524.821 124.656C525.034 130.075 525.034 134.896 524.821 139.12C524.778 140.016 524.416 140.763 523.733 141.36C523.093 141.915 522.325 142.171 521.429 142.128C520.533 142.085 519.786 141.744 519.189 141.104C518.634 140.421 518.378 139.632 518.421 138.736C518.634 134.597 518.634 129.989 518.421 124.912V124.272L517.269 126.32C516.373 127.813 515.349 129.84 514.197 132.4L511.125 139.504C510.869 140.016 510.506 140.421 510.037 140.72C509.781 141.061 509.44 141.339 509.013 141.552ZM535.329 141.68C534.177 140.912 533.729 139.845 533.985 138.48C533.942 138.395 533.921 138.309 533.921 138.224C533.707 136.176 533.579 133.872 533.536 131.312C533.494 128.752 533.494 126.832 533.536 125.552C533.579 124.272 533.686 121.648 533.857 117.68C534.07 113.712 534.198 111.472 534.241 110.96C534.283 110.107 534.625 109.381 535.265 108.784C535.947 108.187 536.715 107.909 537.569 107.952C538.465 107.995 539.211 108.357 539.809 109.04C540.406 109.68 540.683 110.448 540.641 111.344C540.598 112.24 540.491 114.267 540.321 117.424C540.15 120.581 540.022 123.035 539.937 124.784C539.894 126.491 539.873 128.176 539.873 129.84L544.417 124.016C548.427 118.768 551.478 114.011 553.569 109.744C554.123 108.848 554.934 108.336 556.001 108.208C556.342 108.08 556.705 107.995 557.089 107.952C557.985 107.909 558.753 108.187 559.393 108.784C560.075 109.339 560.438 110.064 560.481 110.96C560.651 115.141 560.715 120.048 560.673 125.68C560.545 131.739 560.545 136.112 560.673 138.8C560.715 139.696 560.438 140.464 559.841 141.104C559.243 141.744 558.497 142.085 557.601 142.128C556.705 142.171 555.937 141.893 555.297 141.296C554.657 140.699 554.315 139.952 554.273 139.056C554.145 136.325 554.145 131.845 554.273 125.616V121.456L549.473 127.92C544.481 134.405 541.238 138.715 539.745 140.848C539.233 141.573 538.55 142.021 537.697 142.192C536.843 142.363 536.054 142.192 535.329 141.68ZM592.712 140.976C588.232 135.941 584.456 131.248 581.384 126.896L576.008 132.528L575.944 132.656C576.115 134.619 576.328 136.603 576.584 138.608C576.712 139.461 576.52 140.251 576.008 140.976C575.496 141.659 574.792 142.064 573.896 142.192C573.043 142.32 572.253 142.128 571.528 141.616C570.845 141.104 570.44 140.4 570.312 139.504C569.971 137.115 569.715 134.683 569.544 132.208C569.373 129.648 569.267 127.707 569.224 126.384C569.224 125.019 569.224 122.395 569.224 118.512C569.267 114.587 569.288 112.133 569.288 111.152C569.288 110.256 569.587 109.509 570.184 108.912C570.824 108.272 571.592 107.952 572.488 107.952C573.384 107.952 574.131 108.272 574.728 108.912C575.368 109.509 575.688 110.256 575.688 111.152C575.688 112.475 575.667 114.672 575.624 117.744C575.624 120.773 575.624 122.885 575.624 124.08C584.371 115.888 589.405 111.152 590.728 109.872C591.325 109.232 592.072 108.912 592.968 108.912C593.864 108.912 594.611 109.232 595.208 109.872C595.848 110.469 596.168 111.216 596.168 112.112C596.168 113.008 595.848 113.755 595.208 114.352C593.16 116.443 590.173 119.195 586.248 122.608C589.235 126.96 592.968 131.675 597.448 136.752C598.045 137.392 598.323 138.16 598.28 139.056C598.237 139.909 597.875 140.635 597.192 141.232C596.552 141.829 595.784 142.107 594.888 142.064C594.035 142.021 593.309 141.659 592.712 140.976ZM613.36 141.872C611.227 142.171 609.179 141.872 607.216 140.976C605.296 140.037 603.611 138.501 602.16 136.368C601.008 134.661 600.304 133.104 600.048 131.696C599.792 130.245 599.707 128.475 599.792 126.384C599.963 122.075 601.008 118.384 602.928 115.312C604.891 112.197 607.472 110.064 610.672 108.912C613.829 107.717 617.157 107.653 620.656 108.72C624.112 109.787 627.291 111.856 630.192 114.928C630.832 115.611 631.131 116.4 631.088 117.296C631.045 118.192 630.704 118.96 630.064 119.6C629.723 119.941 629.296 120.197 628.784 120.368C628.827 120.752 628.848 121.221 628.848 121.776C628.848 122.117 628.827 122.459 628.784 122.8C628.784 123.099 628.784 123.269 628.784 123.312V123.888C628.827 124.528 628.869 125.275 628.912 126.128C628.997 126.939 629.04 127.536 629.04 127.92C629.083 128.304 629.125 128.731 629.168 129.2C629.253 129.669 629.317 130.053 629.36 130.352C629.445 130.651 629.531 130.949 629.616 131.248C630 132.528 631.365 134.32 633.712 136.624C634.309 137.307 634.608 138.096 634.608 138.992C634.608 139.888 634.267 140.656 633.584 141.296C632.944 141.936 632.176 142.256 631.28 142.256C630.384 142.256 629.595 141.936 628.912 141.296C626.309 138.608 624.603 136.304 623.792 134.384C623.621 134.725 623.429 135.024 623.216 135.28C622.021 137.029 620.571 138.501 618.864 139.696C617.157 140.891 615.323 141.616 613.36 141.872ZM612.464 135.344C614.469 135.088 616.24 133.829 617.776 131.568C619.312 129.264 620.507 126.085 621.36 122.032V121.776C621.36 121.605 621.36 121.371 621.36 121.072C621.403 120.773 621.424 120.475 621.424 120.176C621.467 119.365 621.552 118.747 621.68 118.32C621.808 117.893 622.021 117.488 622.32 117.104C622.363 117.019 622.405 116.955 622.448 116.912C619.12 114.608 615.941 114.011 612.912 115.12C611.163 115.76 609.669 117.061 608.432 119.024C607.195 120.944 606.512 123.483 606.384 126.64C606.341 128.261 606.384 129.435 606.512 130.16C606.64 130.885 607.045 131.739 607.728 132.72C609.051 134.725 610.629 135.6 612.464 135.344ZM644.773 105.968C644.474 106.651 643.941 107.163 643.173 107.504C642.405 107.803 641.658 107.803 640.933 107.504C640.207 107.163 639.695 106.608 639.397 105.84C639.141 105.072 639.183 104.304 639.525 103.536C641.615 98.416 643.066 94.8107 643.877 92.72C644.175 91.9947 644.687 91.4827 645.413 91.184C646.181 90.8427 646.927 90.8213 647.653 91.12C648.378 91.376 648.911 91.888 649.253 92.656C649.594 93.424 649.615 94.1493 649.317 94.832L644.773 105.968ZM654.693 106.16C654.394 106.885 653.861 107.397 653.093 107.696C652.325 107.995 651.578 107.995 650.853 107.696C650.127 107.397 649.615 106.864 649.317 106.096C649.061 105.328 649.103 104.56 649.445 103.792C651.535 98.672 652.986 95.0667 653.797 92.976C654.095 92.2507 654.607 91.7387 655.333 91.44C656.101 91.0987 656.847 91.0773 657.573 91.376C658.298 91.632 658.831 92.144 659.173 92.912C659.514 93.68 659.535 94.384 659.237 95.024L654.693 106.16Z" fill="#F3DEBF"/>
<defs>
<linearGradient id="paint0_linear" x1="795.5" y1="-1.57646e-05" x2="132.5" y2="489" gradientUnits="userSpaceOnUse">
<stop offset="0.0597881" stop-color="#9EC0F4"/>
<stop offset="0.831596" stop-color="white" stop-opacity="0"/>
</linearGradient>
</defs>
</svg>
