<svg width="193" height="52" viewBox="0 0 193 52" fill="none" xmlns="http://www.w3.org/2000/svg">
<g clip-path="url(#clip0)">
<path d="M170.145 0H22.8553C10.2327 0 0 7.35195 0 16.421V35.579C0 44.6481 10.2327 52 22.8553 52H170.145C182.767 52 193 44.6481 193 35.579V16.421C193 7.35195 182.767 0 170.145 0Z" fill="#239212"/>
<path d="M165.701 4.30597H31.1085C18.4858 4.30597 8.25317 11.6579 8.25317 20.727V29.8498C8.25317 38.9189 18.4858 46.2709 31.1085 46.2709H165.701C178.323 46.2709 188.556 38.9189 188.556 29.8498V20.727C188.556 11.6579 178.323 4.30597 165.701 4.30597Z" fill="#2AAE16"/>
<path d="M65.3914 12.1047C65.2546 12.4875 65.1863 13.0481 65.1863 13.7864C65.1863 14.0598 65.1954 14.4654 65.2136 15.0032C65.2319 15.5409 65.241 15.9465 65.241 16.22C65.241 17.1314 65.1589 18.4895 64.9949 20.2942C64.8399 22.0989 64.7625 23.4569 64.7625 24.3684C64.7625 25.0611 64.8126 26.1002 64.9128 27.4856C65.0131 28.871 65.0632 29.9146 65.0632 30.6165C65.0632 30.9902 64.9356 31.3046 64.6804 31.5598C64.4343 31.815 64.1244 31.9426 63.7507 31.9426C63.3861 31.9426 63.0763 31.815 62.821 31.5598C62.5658 31.3046 62.4382 30.9902 62.4382 30.6165C62.4382 29.9146 62.3881 28.871 62.2878 27.4856C62.1876 26.1002 62.1375 25.0611 62.1375 24.3684C62.1375 23.703 62.1602 23.0286 62.2058 22.345C60.6472 22.3723 58.7195 22.6047 56.4226 23.0422L50.6804 24.1633C50.6804 24.9836 50.5984 26.1503 50.4343 27.6633C50.2703 29.1672 50.1882 30.3339 50.1882 31.1633C50.1882 31.537 50.0606 31.8515 49.8054 32.1067C49.5593 32.371 49.2494 32.5032 48.8757 32.5032C48.502 32.5032 48.1876 32.371 47.9324 32.1067C47.6863 31.8515 47.5632 31.537 47.5632 31.1633C47.5632 30.1972 47.6407 28.7571 47.7957 26.843C47.9597 24.9198 48.0417 23.4752 48.0417 22.509C48.0417 22.0077 48.0235 21.2512 47.9871 20.2395C47.9506 19.2278 47.9324 18.4667 47.9324 17.9563C47.9324 17.2362 47.9779 16.1562 48.0691 14.7161C48.1602 13.2668 48.2058 12.1822 48.2058 11.4622C48.2058 11.0793 48.3289 10.7603 48.575 10.5051C48.8302 10.2499 49.1446 10.1223 49.5183 10.1223C49.892 10.1223 50.2019 10.2499 50.448 10.5051C50.7032 10.7603 50.8308 11.0793 50.8308 11.4622C50.8308 12.1913 50.7807 13.2851 50.6804 14.7434C50.5893 16.1926 50.5437 17.2818 50.5437 18.011L50.6257 21.47L56.491 20.3625C58.8334 19.925 60.8067 19.6972 62.4109 19.679C62.5111 18.3756 62.5613 16.4114 62.5613 13.7864C62.5613 13.0937 62.6752 12.3918 62.9031 11.6809C63.2039 10.7056 63.6277 10.218 64.1746 10.218C64.5209 10.218 64.8308 10.3456 65.1042 10.6008C65.3777 10.8469 65.5144 11.1614 65.5144 11.5442C65.5144 11.6809 65.4734 11.8678 65.3914 12.1047ZM79.5828 32.2708C79.4096 32.2708 79.0951 32.0702 78.6394 31.6692C78.2292 31.2955 77.9239 30.9628 77.7234 30.6711C76.8484 31.1451 76.0782 31.5006 75.4128 31.7375C74.7475 31.9836 74.1915 32.1067 73.7449 32.1067C71.6121 32.1067 70.058 31.5051 69.0828 30.302C68.1622 29.1718 67.7019 27.44 67.7019 25.1067C67.7019 22.901 68.4584 21.0142 69.9714 19.4465C71.4936 17.8788 73.3074 17.095 75.4128 17.095C76.2058 17.095 77.0945 17.3 78.0789 17.7102C79.3184 18.2206 79.9382 18.8359 79.9382 19.5559C79.9382 19.802 79.8471 20.0208 79.6648 20.2122C79.5736 20.5585 79.5007 21.1282 79.446 21.9211C79.4005 22.7141 79.3731 23.7304 79.364 24.97C79.3549 26.1002 79.4324 26.9934 79.5964 27.6497C79.6876 28.0507 79.9747 28.8528 80.4578 30.0559C80.5216 30.22 80.6264 30.4615 80.7722 30.7805L80.8542 31.0129C80.8542 31.3775 80.7266 31.6783 80.4714 31.9153C80.2162 32.1523 79.92 32.2708 79.5828 32.2708ZM76.739 22.7688C76.739 22.3769 76.7618 21.953 76.8074 21.4973C76.8621 21.0325 76.9395 20.5403 77.0398 20.0208C76.7026 19.8476 76.4109 19.72 76.1648 19.6379C75.9278 19.5559 75.7364 19.5149 75.5906 19.5149C74.1778 19.5149 72.9565 20.0937 71.9265 21.2512C70.9057 22.3997 70.3953 23.7258 70.3953 25.2297C70.3953 26.7245 70.6596 27.8456 71.1882 28.593C71.7169 29.3404 72.5098 29.7141 73.5671 29.7141C74.4421 29.7141 75.185 29.5546 75.7957 29.2356C76.1238 29.0624 76.5841 28.7161 77.1765 28.1965C76.8848 25.7812 76.739 23.9719 76.739 22.7688ZM94.7585 30.7258C94.7585 31.1269 94.6309 31.4504 94.3757 31.6965C94.1205 31.9517 93.797 32.0793 93.405 32.0793C93.004 32.0793 92.6759 31.9517 92.4207 31.6965C92.1654 31.4504 92.0378 31.1269 92.0378 30.7258C92.0378 29.9875 92.0105 28.429 91.9558 26.05C90.8438 26.843 89.4721 27.2395 87.8406 27.2395C85.9083 27.2395 84.5092 26.5741 83.6433 25.2434C82.7865 23.9127 82.3582 21.748 82.3582 18.7493C82.3582 17.2545 82.8412 16.5071 83.8074 16.5071C84.1993 16.5071 84.5229 16.6347 84.7781 16.8899C85.0333 17.136 85.1609 17.4596 85.1609 17.8606C85.1609 17.9609 85.1472 18.1112 85.1199 18.3118C85.0925 18.5032 85.0789 18.649 85.0789 18.7493C85.0789 21.1646 85.3067 22.7688 85.7625 23.5618C86.1817 24.3 87.0111 24.6692 88.2507 24.6692C88.8067 24.6692 89.4766 24.4778 90.2605 24.095C91.099 23.6757 91.6641 23.22 91.9558 22.7278C91.9558 22.4726 91.9649 21.912 91.9832 21.0461C92.0014 20.1803 92.0105 19.6334 92.0105 19.4055C92.0105 19.2232 91.9923 18.9498 91.9558 18.5852C91.9285 18.2206 91.9148 17.9517 91.9148 17.7786C91.9148 17.3958 92.047 17.0813 92.3113 16.8352C92.5847 16.5891 92.9128 16.4661 93.2957 16.4661C94.2618 16.4661 94.7449 17.3 94.7449 18.968C94.7449 19.2141 94.7312 19.5422 94.7039 19.9524C94.6856 20.3625 94.6765 20.6314 94.6765 20.759C94.6765 21.8072 94.6902 23.4706 94.7175 25.7493C94.7449 28.0188 94.7585 29.6777 94.7585 30.7258ZM108.868 32.2708C108.695 32.2708 108.38 32.0702 107.925 31.6692C107.514 31.2955 107.209 30.9628 107.009 30.6711C106.134 31.1451 105.363 31.5006 104.698 31.7375C104.033 31.9836 103.477 32.1067 103.03 32.1067C100.897 32.1067 99.3432 31.5051 98.3679 30.302C97.4473 29.1718 96.9871 27.44 96.9871 25.1067C96.9871 22.901 97.7436 21.0142 99.2566 19.4465C100.779 17.8788 102.593 17.095 104.698 17.095C105.491 17.095 106.38 17.3 107.364 17.7102C108.604 18.2206 109.223 18.8359 109.223 19.5559C109.223 19.802 109.132 20.0208 108.95 20.2122C108.859 20.5585 108.786 21.1282 108.731 21.9211C108.686 22.7141 108.658 23.7304 108.649 24.97C108.64 26.1002 108.718 26.9934 108.882 27.6497C108.973 28.0507 109.26 28.8528 109.743 30.0559C109.807 30.22 109.912 30.4615 110.057 30.7805L110.139 31.0129C110.139 31.3775 110.012 31.6783 109.757 31.9153C109.501 32.1523 109.205 32.2708 108.868 32.2708ZM106.024 22.7688C106.024 22.3769 106.047 21.953 106.093 21.4973C106.147 21.0325 106.225 20.5403 106.325 20.0208C105.988 19.8476 105.696 19.72 105.45 19.6379C105.213 19.5559 105.022 19.5149 104.876 19.5149C103.463 19.5149 102.242 20.0937 101.212 21.2512C100.191 22.3997 99.6804 23.7258 99.6804 25.2297C99.6804 26.7245 99.9447 27.8456 100.473 28.593C101.002 29.3404 101.795 29.7141 102.852 29.7141C103.727 29.7141 104.47 29.5546 105.081 29.2356C105.409 29.0624 105.869 28.7161 106.462 28.1965C106.17 25.7812 106.024 23.9719 106.024 22.7688ZM123.005 18.3391C123.005 18.7402 122.877 19.0728 122.622 19.3372C122.376 19.5924 122.057 19.72 121.665 19.72C121.419 19.72 121.05 19.7109 120.557 19.6926C120.074 19.6653 119.71 19.6516 119.464 19.6516C119.19 19.6516 118.853 19.679 118.452 19.7336C118.652 24.537 118.753 27.7955 118.753 29.509C118.753 31.3319 118.27 32.2434 117.303 32.2434C116.939 32.2434 116.62 32.1249 116.346 31.8879C116.082 31.651 115.95 31.3547 115.95 30.9993C115.95 30.6529 115.964 30.1334 115.991 29.4407C116.018 28.748 116.032 28.2284 116.032 27.8821C116.032 26.679 115.941 23.9719 115.759 19.761C115.458 19.7428 114.879 19.7336 114.022 19.7336C113.229 19.7336 112.678 19.679 112.368 19.5696C111.794 19.3691 111.507 18.9498 111.507 18.3118C111.507 17.929 111.625 17.6008 111.862 17.3274C112.108 17.054 112.427 16.9172 112.819 16.9172H120.885C121.56 16.9172 122.048 16.9856 122.348 17.1223C122.786 17.3319 123.005 17.7375 123.005 18.3391ZM136.389 26.9661C136.389 28.5702 135.76 29.7642 134.503 30.5481C133.436 31.2226 131.987 31.5598 130.155 31.5598C129.818 31.5598 129.362 31.5507 128.788 31.5325C128.122 31.496 127.662 31.4778 127.407 31.4778C127.261 31.5142 127.115 31.5325 126.969 31.5325C126.04 31.5325 125.575 30.9036 125.575 29.6458C125.575 29.4726 125.625 28.9257 125.725 28.0051C125.853 26.7838 125.917 25.6399 125.917 24.5735C125.917 23.8443 125.871 22.8144 125.78 21.4836C125.698 20.1438 125.657 19.1093 125.657 18.3801C125.657 17.414 126.099 16.9309 126.983 16.9309C127.922 16.9309 128.391 17.3502 128.391 18.1887C128.391 19.1458 128.451 20.4674 128.569 22.1536C129.016 22.1353 129.367 22.1262 129.622 22.1262C131.818 22.1262 133.432 22.4224 134.462 23.0149C135.747 23.7623 136.389 25.0793 136.389 26.9661ZM133.751 26.9661C133.751 25.9452 133.436 25.2571 132.807 24.9016C132.297 24.6008 131.385 24.4504 130.073 24.4504C129.718 24.4504 129.225 24.4687 128.596 24.5051C128.606 24.6965 128.61 24.8788 128.61 25.052C128.61 25.7447 128.528 27.121 128.364 29.1809C129.121 29.1991 129.718 29.2083 130.155 29.2083C132.552 29.2083 133.751 28.4609 133.751 26.9661Z" fill="#FFE6D5"/>
<path d="M95.7288 42.4508C124.219 42.4508 147.314 41.6394 147.314 40.6385C147.314 39.6375 124.219 38.8261 95.7288 38.8261C67.2391 38.8261 44.1437 39.6375 44.1437 40.6385C44.1437 41.6394 67.2391 42.4508 95.7288 42.4508Z" fill="#FFE6D5" fill-opacity="0.47191"/>
</g>
<defs>
<clipPath id="clip0">
<rect width="193" height="52" fill="white"/>
</clipPath>
</defs>
</svg>
