<?xml version="1.0" encoding="UTF-8" standalone="no"?>
<svg
   width="193"
   height="52"
   viewBox="0 0 193 52"
   fill="none"
   version="1.1"
   id="svg4"
   sodipodi:docname="start-btn.svg"
   inkscape:version="1.3.1 (9b9bdc1480, 2023-11-25, custom)"
   xmlns:inkscape="http://www.inkscape.org/namespaces/inkscape"
   xmlns:sodipodi="http://sodipodi.sourceforge.net/DTD/sodipodi-0.dtd"
   xmlns="http://www.w3.org/2000/svg"
   xmlns:svg="http://www.w3.org/2000/svg">
  <sodipodi:namedview
     id="namedview4"
     pagecolor="#ffffff"
     bordercolor="#999999"
     borderopacity="1"
     inkscape:showpageshadow="2"
     inkscape:pageopacity="0"
     inkscape:pagecheckerboard="0"
     inkscape:deskcolor="#d1d1d1"
     showgrid="false"
     inkscape:zoom="2.4748737"
     inkscape:cx="156.57364"
     inkscape:cy="35.153309"
     inkscape:window-width="1920"
     inkscape:window-height="954"
     inkscape:window-x="0"
     inkscape:window-y="27"
     inkscape:window-maximized="1"
     inkscape:current-layer="g4" />
  <g
     clip-path="url(#clip0)"
     id="g4">
    <path
       d="M170.145 0H22.8553C10.2327 0 0 7.35195 0 16.421V35.579C0 44.6481 10.2327 52 22.8553 52H170.145C182.767 52 193 44.6481 193 35.579V16.421C193 7.35195 182.767 0 170.145 0Z"
       fill="#239212"
       id="path1" />
    <path
       d="M165.701 4.30597H31.1085C18.4858 4.30597 8.25317 11.6579 8.25317 20.727V29.8498C8.25317 38.9189 18.4858 46.2709 31.1085 46.2709H165.701C178.323 46.2709 188.556 38.9189 188.556 29.8498V20.727C188.556 11.6579 178.323 4.30597 165.701 4.30597Z"
       fill="#2AAE16"
       id="path2" />
    <path
       d="M95.7288 42.4508C124.219 42.4508 147.314 41.6394 147.314 40.6385C147.314 39.6375 124.219 38.8261 95.7288 38.8261C67.2391 38.8261 44.1437 39.6375 44.1437 40.6385C44.1437 41.6394 67.2391 42.4508 95.7288 42.4508Z"
       fill="#FFE6D5"
       fill-opacity="0.47191"
       id="path4" />
  </g>
  <defs
     id="defs4">
    <clipPath
       id="clip0">
      <rect
         width="193"
         height="52"
         fill="white"
         id="rect4" />
    </clipPath>
  </defs>
</svg>
